<svg xmlns="http://www.w3.org/2000/svg" width="808" height="1298" viewBox="0 0 808 1298"><defs><style>
  .t { font-family: -apple-system,BlinkMacSystemFont,Segoe UI,Helvetica,Arial,sans-serif; font-variant-numeric: tabular-lining; }
  .t-h { font-size: 14px; fill: #c9d1d9; letter-spacing: 2px; font-weight: 600; }
  .t-sub { font-size: 11px; fill: #6e7681; }
  .t-label { font-size: 12px; fill: #8b949e; }
  .t-value { font-size: 11px; fill: #6e7681; }
  .t-subhdr { font-size: 11px; fill: #8b949e; letter-spacing: 1px; font-weight: 600; }
  .t-stat-label { font-size: 10px; fill: #8b949e; font-weight: 600; }
  .t-stat-value { font-size: 22px; font-weight: 700; }
  .t-card-title { font-size: 12px; fill: #58a6ff; font-weight: 700; }
  .t-card-detail { font-size: 11px; fill: #8b949e; }
  .t-pill { font-size: 11px; font-weight: 600; }
  .t-bullet { font-size: 12px; fill: #c9d1d9; }
  .bg-fill { fill: #0d1117; }
  .card-fill { fill: #161b22; }
  .border-stroke { stroke: #30363d; }

  @media (prefers-color-scheme: light) {
    .bg-fill { fill: #ffffff; }
    .card-fill { fill: #f6f8fa; }
    .border-stroke { stroke: #d0d7de; }
    .t-h { fill: #1f2328; }
    .t-sub { fill: #656d76; }
    .t-label { fill: #656d76; }
    .t-value { fill: #656d76; }
    .t-subhdr { fill: #656d76; }
    .t-stat-label { fill: #656d76; }
    .t-card-title { fill: #0969da; }
    .t-card-detail { fill: #656d76; }
    .t-bullet { fill: #1f2328; }
  }

  @keyframes fadeIn {
    from { opacity: 0; transform: translateY(8px); }
    to { opacity: 1; transform: translateY(0); }
  }
  @keyframes scaleIn {
    from { transform: scale(0); opacity: 0; }
    to { transform: scale(1); opacity: 1; }
  }
  @keyframes drawPath {
    from { stroke-dashoffset: var(--path-length); }
    to { stroke-dashoffset: 0; }
  }
  @keyframes radarReveal {
    from { transform: scale(0); opacity: 0; }
    to { transform: scale(1); opacity: 0.6; }
  }
  .fade-1 { animation: fadeIn 0.6s ease-out 0.1s both; }
  .fade-2 { animation: fadeIn 0.6s ease-out 0.25s both; }
  .fade-3 { animation: fadeIn 0.6s ease-out 0.4s both; }
  .fade-4 { animation: fadeIn 0.6s ease-out 0.55s both; }
  .fade-5 { animation: fadeIn 0.6s ease-out 0.7s both; }
  .fade-6 { animation: fadeIn 0.6s ease-out 0.85s both; }
</style></defs><rect width="808" height="1298" rx="12" class="bg-fill" fill="#0d1117"/><text x="24" y="40" class="t t-h">LANGUAGE VELOCITY</text><text x="24" y="56" class="t t-sub">How language usage has evolved over the past year</text><path key="TeX" d="M 24,206 C 55.66666666666667,206 55.66666666666667,206 87.33333333333334,206 C 119.00000000000001,206 119.00000000000001,205.58498023715416 150.66666666666669,205.58498023715416 C 182.33333333333334,205.58498023715416 182.33333333333334,205.3083003952569 214,205.3083003952569 C 245.66666666666669,205.3083003952569 245.66666666666669,205.72332015810278 277.33333333333337,205.72332015810278 C 309,205.72332015810278 309,206 340.6666666666667,206 C 372.33333333333337,206 372.33333333333337,200.46640316205534 404,200.46640316205534 C 435.6666666666667,200.46640316205534 435.6666666666667,205.0316205533597 467.33333333333337,205.0316205533597 C 499.00000000000006,205.0316205533597 499.00000000000006,201.57312252964428 530.6666666666667,201.57312252964428 C 562.3333333333334,201.57312252964428 562.3333333333334,205.3083003952569 594,205.3083003952569 C 625.6666666666667,205.3083003952569 625.6666666666667,182.20553359683794 657.3333333333334,182.20553359683794 C 689,182.20553359683794 689,136 720.6666666666667,136 C 752.3333333333334,136 752.3333333333334,66 784,66 L 784,66.96837944664031 C 752.3333333333334,66.96837944664031 752.3333333333334,136.55335968379447 720.6666666666667,136.55335968379447 C 689,136.55335968379447 689,182.34387351778656 657.3333333333334,182.34387351778656 C 625.6666666666667,182.34387351778656 625.6666666666667,205.3083003952569 594,205.3083003952569 C 562.3333333333334,205.3083003952569 562.3333333333334,201.57312252964428 530.6666666666667,201.57312252964428 C 499.00000000000006,201.57312252964428 499.00000000000006,205.0316205533597 467.33333333333337,205.0316205533597 C 435.6666666666667,205.0316205533597 435.6666666666667,200.46640316205534 404,200.46640316205534 C 372.33333333333337,200.46640316205534 372.33333333333337,206 340.6666666666667,206 C 309,206 309,205.72332015810278 277.33333333333337,205.72332015810278 C 245.66666666666669,205.72332015810278 245.66666666666669,205.3083003952569 214,205.3083003952569 C 182.33333333333334,205.3083003952569 182.33333333333334,205.58498023715416 150.66666666666669,205.58498023715416 C 119.00000000000001,205.58498023715416 119.00000000000001,206 87.33333333333334,206 C 55.66666666666667,206 55.66666666666667,206 24,206 Z" fill="#3D6117" fill-opacity="0.75" class="fade-1"/><path key="Java" d="M 24,206 C 55.66666666666667,206 55.66666666666667,206 87.33333333333334,206 C 119.00000000000001,206 119.00000000000001,205.58498023715416 150.66666666666669,205.58498023715416 C 182.33333333333334,205.58498023715416 182.33333333333334,205.3083003952569 214,205.3083003952569 C 245.66666666666669,205.3083003952569 245.66666666666669,205.72332015810278 277.33333333333337,205.72332015810278 C 309,205.72332015810278 309,206 340.6666666666667,206 C 372.33333333333337,206 372.33333333333337,200.46640316205534 404,200.46640316205534 C 435.6666666666667,200.46640316205534 435.6666666666667,205.0316205533597 467.33333333333337,205.0316205533597 C 499.00000000000006,205.0316205533597 499.00000000000006,201.57312252964428 530.6666666666667,201.57312252964428 C 562.3333333333334,201.57312252964428 562.3333333333334,205.3083003952569 594,205.3083003952569 C 625.6666666666667,205.3083003952569 625.6666666666667,182.34387351778656 657.3333333333334,182.34387351778656 C 689,182.34387351778656 689,136.55335968379447 720.6666666666667,136.55335968379447 C 752.3333333333334,136.55335968379447 752.3333333333334,66.96837944664031 784,66.96837944664031 L 784,71.11857707509881 C 752.3333333333334,71.11857707509881 752.3333333333334,138.62845849802372 720.6666666666667,138.62845849802372 C 689,138.62845849802372 689,183.03557312252966 657.3333333333334,183.03557312252966 C 625.6666666666667,183.03557312252966 625.6666666666667,205.3083003952569 594,205.3083003952569 C 562.3333333333334,205.3083003952569 562.3333333333334,201.71146245059288 530.6666666666667,201.71146245059288 C 499.00000000000006,201.71146245059288 499.00000000000006,205.0316205533597 467.33333333333337,205.0316205533597 C 435.6666666666667,205.0316205533597 435.6666666666667,200.60474308300394 404,200.60474308300394 C 372.33333333333337,200.60474308300394 372.33333333333337,206 340.6666666666667,206 C 309,206 309,205.72332015810278 277.33333333333337,205.72332015810278 C 245.66666666666669,205.72332015810278 245.66666666666669,205.3083003952569 214,205.3083003952569 C 182.33333333333334,205.3083003952569 182.33333333333334,205.58498023715416 150.66666666666669,205.58498023715416 C 119.00000000000001,205.58498023715416 119.00000000000001,206 87.33333333333334,206 C 55.66666666666667,206 55.66666666666667,206 24,206 Z" fill="#b07219" fill-opacity="0.75" class="fade-2"/><path key="Python" d="M 24,206 C 55.66666666666667,206 55.66666666666667,206 87.33333333333334,206 C 119.00000000000001,206 119.00000000000001,205.58498023715416 150.66666666666669,205.58498023715416 C 182.33333333333334,205.58498023715416 182.33333333333334,205.3083003952569 214,205.3083003952569 C 245.66666666666669,205.3083003952569 245.66666666666669,205.72332015810278 277.33333333333337,205.72332015810278 C 309,205.72332015810278 309,206 340.6666666666667,206 C 372.33333333333337,206 372.33333333333337,200.60474308300394 404,200.60474308300394 C 435.6666666666667,200.60474308300394 435.6666666666667,205.0316205533597 467.33333333333337,205.0316205533597 C 499.00000000000006,205.0316205533597 499.00000000000006,201.71146245059288 530.6666666666667,201.71146245059288 C 562.3333333333334,201.71146245059288 562.3333333333334,205.3083003952569 594,205.3083003952569 C 625.6666666666667,205.3083003952569 625.6666666666667,183.03557312252966 657.3333333333334,183.03557312252966 C 689,183.03557312252966 689,138.62845849802372 720.6666666666667,138.62845849802372 C 752.3333333333334,138.62845849802372 752.3333333333334,71.11857707509881 784,71.11857707509881 L 784,83.29249011857706 C 752.3333333333334,83.29249011857706 752.3333333333334,144.71541501976284 720.6666666666667,144.71541501976284 C 689,144.71541501976284 689,185.1106719367589 657.3333333333334,185.1106719367589 C 625.6666666666667,185.1106719367589 625.6666666666667,205.3083003952569 594,205.3083003952569 C 562.3333333333334,205.3083003952569 562.3333333333334,202.12648221343875 530.6666666666667,202.12648221343875 C 499.00000000000006,202.12648221343875 499.00000000000006,205.1699604743083 467.33333333333337,205.1699604743083 C 435.6666666666667,205.1699604743083 435.6666666666667,201.0197628458498 404,201.0197628458498 C 372.33333333333337,201.0197628458498 372.33333333333337,206 340.6666666666667,206 C 309,206 309,205.72332015810278 277.33333333333337,205.72332015810278 C 245.66666666666669,205.72332015810278 245.66666666666669,205.3083003952569 214,205.3083003952569 C 182.33333333333334,205.3083003952569 182.33333333333334,205.58498023715416 150.66666666666669,205.58498023715416 C 119.00000000000001,205.58498023715416 119.00000000000001,206 87.33333333333334,206 C 55.66666666666667,206 55.66666666666667,206 24,206 Z" fill="#3572A5" fill-opacity="0.75" class="fade-3"/><path key="JavaScript" d="M 24,206 C 55.66666666666667,206 55.66666666666667,206 87.33333333333334,206 C 119.00000000000001,206 119.00000000000001,205.58498023715416 150.66666666666669,205.58498023715416 C 182.33333333333334,205.58498023715416 182.33333333333334,205.3083003952569 214,205.3083003952569 C 245.66666666666669,205.3083003952569 245.66666666666669,205.72332015810278 277.33333333333337,205.72332015810278 C 309,205.72332015810278 309,206 340.6666666666667,206 C 372.33333333333337,206 372.33333333333337,201.0197628458498 404,201.0197628458498 C 435.6666666666667,201.0197628458498 435.6666666666667,205.1699604743083 467.33333333333337,205.1699604743083 C 499.00000000000006,205.1699604743083 499.00000000000006,202.12648221343875 530.6666666666667,202.12648221343875 C 562.3333333333334,202.12648221343875 562.3333333333334,205.3083003952569 594,205.3083003952569 C 625.6666666666667,205.3083003952569 625.6666666666667,185.1106719367589 657.3333333333334,185.1106719367589 C 689,185.1106719367589 689,144.71541501976284 720.6666666666667,144.71541501976284 C 752.3333333333334,144.71541501976284 752.3333333333334,83.29249011857706 784,83.29249011857706 L 784,95.74308300395256 C 752.3333333333334,95.74308300395256 752.3333333333334,150.9407114624506 720.6666666666667,150.9407114624506 C 689,150.9407114624506 689,187.18577075098813 657.3333333333334,187.18577075098813 C 625.6666666666667,187.18577075098813 625.6666666666667,205.3083003952569 594,205.3083003952569 C 562.3333333333334,205.3083003952569 562.3333333333334,202.5415019762846 530.6666666666667,202.5415019762846 C 499.00000000000006,202.5415019762846 499.00000000000006,205.3083003952569 467.33333333333337,205.3083003952569 C 435.6666666666667,205.3083003952569 435.6666666666667,201.57312252964428 404,201.57312252964428 C 372.33333333333337,201.57312252964428 372.33333333333337,206 340.6666666666667,206 C 309,206 309,205.72332015810278 277.33333333333337,205.72332015810278 C 245.66666666666669,205.72332015810278 245.66666666666669,205.3083003952569 214,205.3083003952569 C 182.33333333333334,205.3083003952569 182.33333333333334,205.58498023715416 150.66666666666669,205.58498023715416 C 119.00000000000001,205.58498023715416 119.00000000000001,206 87.33333333333334,206 C 55.66666666666667,206 55.66666666666667,206 24,206 Z" fill="#f1e05a" fill-opacity="0.75" class="fade-4"/><path key="Shell" d="M 24,206 C 55.66666666666667,206 55.66666666666667,206 87.33333333333334,206 C 119.00000000000001,206 119.00000000000001,205.58498023715416 150.66666666666669,205.58498023715416 C 182.33333333333334,205.58498023715416 182.33333333333334,205.3083003952569 214,205.3083003952569 C 245.66666666666669,205.3083003952569 245.66666666666669,205.72332015810278 277.33333333333337,205.72332015810278 C 309,205.72332015810278 309,206 340.6666666666667,206 C 372.33333333333337,206 372.33333333333337,201.57312252964428 404,201.57312252964428 C 435.6666666666667,201.57312252964428 435.6666666666667,205.3083003952569 467.33333333333337,205.3083003952569 C 499.00000000000006,205.3083003952569 499.00000000000006,202.5415019762846 530.6666666666667,202.5415019762846 C 562.3333333333334,202.5415019762846 562.3333333333334,205.3083003952569 594,205.3083003952569 C 625.6666666666667,205.3083003952569 625.6666666666667,187.18577075098813 657.3333333333334,187.18577075098813 C 689,187.18577075098813 689,150.9407114624506 720.6666666666667,150.9407114624506 C 752.3333333333334,150.9407114624506 752.3333333333334,95.74308300395256 784,95.74308300395256 L 784,113.72727272727273 C 752.3333333333334,113.72727272727273 752.3333333333334,159.9328063241107 720.6666666666667,159.9328063241107 C 689,159.9328063241107 689,190.22924901185772 657.3333333333334,190.22924901185772 C 625.6666666666667,190.22924901185772 625.6666666666667,205.44664031620553 594,205.44664031620553 C 562.3333333333334,205.44664031620553 562.3333333333334,203.09486166007906 530.6666666666667,203.09486166007906 C 499.00000000000006,203.09486166007906 499.00000000000006,205.44664031620553 467.33333333333337,205.44664031620553 C 435.6666666666667,205.44664031620553 435.6666666666667,202.26482213438734 404,202.26482213438734 C 372.33333333333337,202.26482213438734 372.33333333333337,206 340.6666666666667,206 C 309,206 309,205.72332015810278 277.33333333333337,205.72332015810278 C 245.66666666666669,205.72332015810278 245.66666666666669,205.44664031620553 214,205.44664031620553 C 182.33333333333334,205.44664031620553 182.33333333333334,205.58498023715416 150.66666666666669,205.58498023715416 C 119.00000000000001,205.58498023715416 119.00000000000001,206 87.33333333333334,206 C 55.66666666666667,206 55.66666666666667,206 24,206 Z" fill="#89e051" fill-opacity="0.75" class="fade-5"/><path key="Go" d="M 24,206 C 55.66666666666667,206 55.66666666666667,206 87.33333333333334,206 C 119.00000000000001,206 119.00000000000001,205.58498023715416 150.66666666666669,205.58498023715416 C 182.33333333333334,205.58498023715416 182.33333333333334,205.44664031620553 214,205.44664031620553 C 245.66666666666669,205.44664031620553 245.66666666666669,205.72332015810278 277.33333333333337,205.72332015810278 C 309,205.72332015810278 309,206 340.6666666666667,206 C 372.33333333333337,206 372.33333333333337,202.26482213438734 404,202.26482213438734 C 435.6666666666667,202.26482213438734 435.6666666666667,205.44664031620553 467.33333333333337,205.44664031620553 C 499.00000000000006,205.44664031620553 499.00000000000006,203.09486166007906 530.6666666666667,203.09486166007906 C 562.3333333333334,203.09486166007906 562.3333333333334,205.44664031620553 594,205.44664031620553 C 625.6666666666667,205.44664031620553 625.6666666666667,190.22924901185772 657.3333333333334,190.22924901185772 C 689,190.22924901185772 689,159.9328063241107 720.6666666666667,159.9328063241107 C 752.3333333333334,159.9328063241107 752.3333333333334,113.72727272727273 784,113.72727272727273 L 784,134.4782608695652 C 752.3333333333334,134.4782608695652 752.3333333333334,170.3083003952569 720.6666666666667,170.3083003952569 C 689,170.3083003952569 689,193.82608695652175 657.3333333333334,193.82608695652175 C 625.6666666666667,193.82608695652175 625.6666666666667,205.58498023715416 594,205.58498023715416 C 562.3333333333334,205.58498023715416 562.3333333333334,203.78656126482213 530.6666666666667,203.78656126482213 C 499.00000000000006,203.78656126482213 499.00000000000006,205.58498023715416 467.33333333333337,205.58498023715416 C 435.6666666666667,205.58498023715416 435.6666666666667,203.09486166007906 404,203.09486166007906 C 372.33333333333337,203.09486166007906 372.33333333333337,206 340.6666666666667,206 C 309,206 309,205.72332015810278 277.33333333333337,205.72332015810278 C 245.66666666666669,205.72332015810278 245.66666666666669,205.58498023715416 214,205.58498023715416 C 182.33333333333334,205.58498023715416 182.33333333333334,205.72332015810278 150.66666666666669,205.72332015810278 C 119.00000000000001,205.72332015810278 119.00000000000001,206 87.33333333333334,206 C 55.66666666666667,206 55.66666666666667,206 24,206 Z" fill="#00ADD8" fill-opacity="0.75" class="fade-6"/><path key="TypeScript" d="M 24,206 C 55.66666666666667,206 55.66666666666667,206 87.33333333333334,206 C 119.00000000000001,206 119.00000000000001,205.72332015810278 150.66666666666669,205.72332015810278 C 182.33333333333334,205.72332015810278 182.33333333333334,205.58498023715416 214,205.58498023715416 C 245.66666666666669,205.58498023715416 245.66666666666669,205.72332015810278 277.33333333333337,205.72332015810278 C 309,205.72332015810278 309,206 340.6666666666667,206 C 372.33333333333337,206 372.33333333333337,203.09486166007906 404,203.09486166007906 C 435.6666666666667,203.09486166007906 435.6666666666667,205.58498023715416 467.33333333333337,205.58498023715416 C 499.00000000000006,205.58498023715416 499.00000000000006,203.78656126482213 530.6666666666667,203.78656126482213 C 562.3333333333334,203.78656126482213 562.3333333333334,205.58498023715416 594,205.58498023715416 C 625.6666666666667,205.58498023715416 625.6666666666667,193.82608695652175 657.3333333333334,193.82608695652175 C 689,193.82608695652175 689,170.3083003952569 720.6666666666667,170.3083003952569 C 752.3333333333334,170.3083003952569 752.3333333333334,134.4782608695652 784,134.4782608695652 L 784,161.17786561264822 C 752.3333333333334,161.17786561264822 752.3333333333334,183.58893280632412 720.6666666666667,183.58893280632412 C 689,183.58893280632412 689,198.3913043478261 657.3333333333334,198.3913043478261 C 625.6666666666667,198.3913043478261 625.6666666666667,205.72332015810278 594,205.72332015810278 C 562.3333333333334,205.72332015810278 562.3333333333334,204.61660079051384 530.6666666666667,204.61660079051384 C 499.00000000000006,204.61660079051384 499.00000000000006,205.72332015810278 467.33333333333337,205.72332015810278 C 435.6666666666667,205.72332015810278 435.6666666666667,204.20158102766797 404,204.20158102766797 C 372.33333333333337,204.20158102766797 372.33333333333337,206 340.6666666666667,206 C 309,206 309,205.86166007905138 277.33333333333337,205.86166007905138 C 245.66666666666669,205.86166007905138 245.66666666666669,205.72332015810278 214,205.72332015810278 C 182.33333333333334,205.72332015810278 182.33333333333334,205.86166007905138 150.66666666666669,205.86166007905138 C 119.00000000000001,205.86166007905138 119.00000000000001,206 87.33333333333334,206 C 55.66666666666667,206 55.66666666666667,206 24,206 Z" fill="#3178c6" fill-opacity="0.75" class="fade-6"/><path key="Rust" d="M 24,206 C 55.66666666666667,206 55.66666666666667,206 87.33333333333334,206 C 119.00000000000001,206 119.00000000000001,205.86166007905138 150.66666666666669,205.86166007905138 C 182.33333333333334,205.86166007905138 182.33333333333334,205.72332015810278 214,205.72332015810278 C 245.66666666666669,205.72332015810278 245.66666666666669,205.86166007905138 277.33333333333337,205.86166007905138 C 309,205.86166007905138 309,206 340.6666666666667,206 C 372.33333333333337,206 372.33333333333337,204.20158102766797 404,204.20158102766797 C 435.6666666666667,204.20158102766797 435.6666666666667,205.72332015810278 467.33333333333337,205.72332015810278 C 499.00000000000006,205.72332015810278 499.00000000000006,204.61660079051384 530.6666666666667,204.61660079051384 C 562.3333333333334,204.61660079051384 562.3333333333334,205.72332015810278 594,205.72332015810278 C 625.6666666666667,205.72332015810278 625.6666666666667,198.3913043478261 657.3333333333334,198.3913043478261 C 689,198.3913043478261 689,183.58893280632412 720.6666666666667,183.58893280632412 C 752.3333333333334,183.58893280632412 752.3333333333334,161.17786561264822 784,161.17786561264822 L 784,206 C 752.3333333333334,206 752.3333333333334,206 720.6666666666667,206 C 689,206 689,206 657.3333333333334,206 C 625.6666666666667,206 625.6666666666667,206 594,206 C 562.3333333333334,206 562.3333333333334,206 530.6666666666667,206 C 499.00000000000006,206 499.00000000000006,206 467.33333333333337,206 C 435.6666666666667,206 435.6666666666667,206 404,206 C 372.33333333333337,206 372.33333333333337,206 340.6666666666667,206 C 309,206 309,206 277.33333333333337,206 C 245.66666666666669,206 245.66666666666669,206 214,206 C 182.33333333333334,206 182.33333333333334,206 150.66666666666669,206 C 119.00000000000001,206 119.00000000000001,206 87.33333333333334,206 C 55.66666666666667,206 55.66666666666667,206 24,206 Z" fill="#dea584" fill-opacity="0.75" class="fade-6"/><rect x="24" y="212" width="8" height="8" rx="2" fill="#dea584" opacity="0.85"/><text x="36" y="220" class="t t-value">Rust</text><rect x="80" y="212" width="8" height="8" rx="2" fill="#3178c6" opacity="0.85"/><text x="92" y="220" class="t t-value">TypeScript</text><rect x="178" y="212" width="8" height="8" rx="2" fill="#00ADD8" opacity="0.85"/><text x="190" y="220" class="t t-value">Go</text><rect x="220" y="212" width="8" height="8" rx="2" fill="#89e051" opacity="0.85"/><text x="232" y="220" class="t t-value">Shell</text><rect x="283" y="212" width="8" height="8" rx="2" fill="#f1e05a" opacity="0.85"/><text x="295" y="220" class="t t-value">JavaScript</text><rect x="381" y="212" width="8" height="8" rx="2" fill="#3572A5" opacity="0.85"/><text x="393" y="220" class="t t-value">Python</text><rect x="451" y="212" width="8" height="8" rx="2" fill="#b07219" opacity="0.85"/><text x="463" y="220" class="t t-value">Java</text><rect x="507" y="212" width="8" height="8" rx="2" fill="#3D6117" opacity="0.85"/><text x="519" y="220" class="t t-value">TeX</text><text key="Mar" x="24" y="220" class="t t-value" text-anchor="start" opacity="0">Mar</text><text key="May" x="150.66666666666669" y="220" class="t t-value" text-anchor="start" opacity="0">May</text><text key="Jul" x="277.33333333333337" y="220" class="t t-value" text-anchor="start" opacity="0">Jul</text><text key="Sep" x="404" y="220" class="t t-value" text-anchor="start" opacity="0">Sep</text><text key="Nov" x="530.6666666666667" y="220" class="t t-value" text-anchor="start" opacity="0">Nov</text><text key="Jan" x="657.3333333333334" y="220" class="t t-value" text-anchor="start" opacity="0">Jan</text><text key="Mar" x="784" y="220" class="t t-value" text-anchor="start" opacity="0">Mar</text><text x="24" y="282" class="t t-h">CONTRIBUTION RHYTHM</text><text x="24" y="298" class="t t-sub">Activity patterns and statistics over the past year</text><circle key="0.25" cx="144" cy="428" r="22.5" fill="none" stroke="#30363d" stroke-width="1" stroke-opacity="0.4"/><circle key="0.5" cx="144" cy="428" r="45" fill="none" stroke="#30363d" stroke-width="1" stroke-opacity="0.4"/><circle key="0.75" cx="144" cy="428" r="67.5" fill="none" stroke="#30363d" stroke-width="1" stroke-opacity="0.4"/><circle key="1" cx="144" cy="428" r="90" fill="none" stroke="#30363d" stroke-width="1" stroke-opacity="0.4"/><line key="Sun" x1="144" y1="428" x2="144" y2="338" stroke="#30363d" stroke-width="1" stroke-opacity="0.3"/><line key="Mon" x1="144" y1="428" x2="214.36483342212267" y2="371.885917832714" stroke="#30363d" stroke-width="1" stroke-opacity="0.3"/><line key="Tue" x1="144" y1="428" x2="231.74351209636413" y2="448.0268840560683" stroke="#30363d" stroke-width="1" stroke-opacity="0.3"/><line key="Wed" x1="144" y1="428" x2="183.04953652058023" y2="509.08719811121773" stroke="#30363d" stroke-width="1" stroke-opacity="0.3"/><line key="Thu" x1="144" y1="428" x2="104.95046347941977" y2="509.08719811121773" stroke="#30363d" stroke-width="1" stroke-opacity="0.3"/><line key="Fri" x1="144" y1="428" x2="56.25648790363587" y2="448.0268840560683" stroke="#30363d" stroke-width="1" stroke-opacity="0.3"/><line key="Sat" x1="144" y1="428" x2="73.63516657787731" y2="371.885917832714" stroke="#30363d" stroke-width="1" stroke-opacity="0.3"/><polygon points="144,353.2510460251046 176.8271084793585,401.8212545537557 183.09909639440494,436.92411360657434 170.7954978634944,483.64142464535445 129.29515361149697,458.534928159036 114.07909524747416,434.82925125761324 73.63516657787731,371.885917832714" fill="#58a6ff" fill-opacity="0.2" stroke="#58a6ff" stroke-width="2" stroke-opacity="0.8" class="fade-2" style="transform-origin: 144px 428px"/><circle key="Sun" cx="144" cy="353.2510460251046" r="3" fill="#58a6ff" class="fade-1"/><circle key="Mon" cx="176.8271084793585" cy="401.8212545537557" r="3" fill="#58a6ff" class="fade-2"/><circle key="Tue" cx="183.09909639440494" cy="436.92411360657434" r="3" fill="#58a6ff" class="fade-3"/><circle key="Wed" cx="170.7954978634944" cy="483.64142464535445" r="3" fill="#58a6ff" class="fade-4"/><circle key="Thu" cx="129.29515361149697" cy="458.534928159036" r="3" fill="#58a6ff" class="fade-5"/><circle key="Fri" cx="114.07909524747416" cy="434.82925125761324" r="3" fill="#58a6ff" class="fade-6"/><circle key="Sat" cx="73.63516657787731" cy="371.885917832714" r="3" fill="#58a6ff" class="fade-6"/><text key="Sun" x="144" y="326" class="t t-value" text-anchor="middle">Sun</text><text key="Mon" x="226.87413714161116" y="365.91008100297427" class="t t-value" text-anchor="middle">Mon</text><text key="Tue" x="247.34235869127332" y="455.5872189993693" class="t t-value" text-anchor="middle">Tue</text><text key="Wed" x="189.99167634646116" y="527.5026999976565" class="t t-value" text-anchor="middle">Wed</text><text key="Thu" x="98.00832365353884" y="527.5026999976565" class="t t-value" text-anchor="middle">Thu</text><text key="Fri" x="40.657641308726696" y="455.5872189993693" class="t t-value" text-anchor="middle">Fri</text><text key="Sat" x="61.12586285838883" y="365.91008100297427" class="t t-value" text-anchor="middle">Sat</text><text x="324" y="338" class="t t-stat-label">COMMITS</text><text x="324" y="360" fill="#58a6ff" class="t t-stat-value">1,831</text><text x="324" y="380" class="t t-stat-label">PRS</text><text x="324" y="402" fill="#3fb950" class="t t-stat-value">40</text><text x="324" y="422" class="t t-stat-label">REVIEWS</text><text x="324" y="444" fill="#d29922" class="t t-stat-value">5</text><text x="324" y="464" class="t t-stat-label">REPOS</text><text x="324" y="486" fill="#bc8cff" class="t t-stat-value">26</text><text x="324" y="506" class="t t-stat-label">STREAK</text><text x="324" y="528" fill="#39d2c0" class="t t-stat-value">20d</text><text x="24" y="614" class="t t-h">PROJECT CONSTELLATION</text><text x="24" y="630" class="t t-sub">Projects mapped by language ecosystem and complexity</text><line key="0-2" x1="103.2" y1="670" x2="487.2" y2="733.8388096660973" stroke="#30363d" stroke-width="1" stroke-opacity="0.15" stroke-dasharray="4 4"/><line key="0-3" x1="103.2" y1="670" x2="116" y2="739.266678984434" stroke="#30363d" stroke-width="1" stroke-opacity="0.15" stroke-dasharray="4 4"/><line key="0-6" x1="103.2" y1="670" x2="128.8" y2="809.7646622483531" stroke="#30363d" stroke-width="1" stroke-opacity="0.15" stroke-dasharray="4 4"/><line key="0-7" x1="103.2" y1="670" x2="564" y2="815.6217767534315" stroke="#30363d" stroke-width="1" stroke-opacity="0.15" stroke-dasharray="4 4"/><line key="0-8" x1="103.2" y1="670" x2="704.8" y2="820.399482968412" stroke="#30363d" stroke-width="1" stroke-opacity="0.15" stroke-dasharray="4 4"/><line key="0-9" x1="103.2" y1="670" x2="491.46666666666664" y2="828.7412316425996" stroke="#30363d" stroke-width="1" stroke-opacity="0.15" stroke-dasharray="4 4"/><line key="0-11" x1="103.2" y1="670" x2="495.73333333333335" y2="844.2781929680393" stroke="#30363d" stroke-width="1" stroke-opacity="0.15" stroke-dasharray="4 4"/><line key="0-12" x1="103.2" y1="670" x2="500" y2="865.3576772141092" stroke="#30363d" stroke-width="1" stroke-opacity="0.15" stroke-dasharray="4 4"/><line key="0-14" x1="103.2" y1="670" x2="429.6" y2="867.2620455839121" stroke="#30363d" stroke-width="1" stroke-opacity="0.15" stroke-dasharray="4 4"/><line key="0-17" x1="103.2" y1="670" x2="504.26666666666665" y2="874.3370117742221" stroke="#30363d" stroke-width="1" stroke-opacity="0.15" stroke-dasharray="4 4"/><line key="0-18" x1="103.2" y1="670" x2="508.53333333333336" y2="877.3152090045305" stroke="#30363d" stroke-width="1" stroke-opacity="0.15" stroke-dasharray="4 4"/><line key="0-22" x1="103.2" y1="670" x2="512.8" y2="907.994835120693" stroke="#30363d" stroke-width="1" stroke-opacity="0.15" stroke-dasharray="4 4"/><line key="0-24" x1="103.2" y1="670" x2="628" y2="919.6056096749093" stroke="#30363d" stroke-width="1" stroke-opacity="0.15" stroke-dasharray="4 4"/><line key="1-5" x1="295.2" y1="712.4139596839566" x2="423.2" y2="759.3114843805375" stroke="#30363d" stroke-width="1" stroke-opacity="0.15" stroke-dasharray="4 4"/><line key="1-8" x1="295.2" y1="712.4139596839566" x2="704.8" y2="820.399482968412" stroke="#30363d" stroke-width="1" stroke-opacity="0.15" stroke-dasharray="4 4"/><line key="1-10" x1="295.2" y1="712.4139596839566" x2="320.8" y2="833.2392814961008" stroke="#30363d" stroke-width="1" stroke-opacity="0.15" stroke-dasharray="4 4"/><line key="1-14" x1="295.2" y1="712.4139596839566" x2="429.6" y2="867.2620455839121" stroke="#30363d" stroke-width="1" stroke-opacity="0.15" stroke-dasharray="4 4"/><line key="1-18" x1="295.2" y1="712.4139596839566" x2="508.53333333333336" y2="877.3152090045305" stroke="#30363d" stroke-width="1" stroke-opacity="0.15" stroke-dasharray="4 4"/><line key="2-3" x1="487.2" y1="733.8388096660973" x2="116" y2="739.266678984434" stroke="#30363d" stroke-width="1" stroke-opacity="0.15" stroke-dasharray="4 4"/><line key="2-6" x1="487.2" y1="733.8388096660973" x2="128.8" y2="809.7646622483531" stroke="#30363d" stroke-width="1" stroke-opacity="0.15" stroke-dasharray="4 4"/><line key="2-7" x1="487.2" y1="733.8388096660973" x2="564" y2="815.6217767534315" stroke="#30363d" stroke-width="1" stroke-opacity="0.15" stroke-dasharray="4 4"/><line key="2-8" x1="487.2" y1="733.8388096660973" x2="704.8" y2="820.399482968412" stroke="#30363d" stroke-width="1" stroke-opacity="0.15" stroke-dasharray="4 4"/><line key="2-9" x1="487.2" y1="733.8388096660973" x2="491.46666666666664" y2="828.7412316425996" stroke="#30363d" stroke-width="1" stroke-opacity="0.15" stroke-dasharray="4 4"/><line key="2-11" x1="487.2" y1="733.8388096660973" x2="495.73333333333335" y2="844.2781929680393" stroke="#30363d" stroke-width="1" stroke-opacity="0.15" stroke-dasharray="4 4"/><line key="2-12" x1="487.2" y1="733.8388096660973" x2="500" y2="865.3576772141092" stroke="#30363d" stroke-width="1" stroke-opacity="0.15" stroke-dasharray="4 4"/><line key="2-17" x1="487.2" y1="733.8388096660973" x2="504.26666666666665" y2="874.3370117742221" stroke="#30363d" stroke-width="1" stroke-opacity="0.15" stroke-dasharray="4 4"/><line key="2-18" x1="487.2" y1="733.8388096660973" x2="508.53333333333336" y2="877.3152090045305" stroke="#30363d" stroke-width="1" stroke-opacity="0.15" stroke-dasharray="4 4"/><line key="2-22" x1="487.2" y1="733.8388096660973" x2="512.8" y2="907.994835120693" stroke="#30363d" stroke-width="1" stroke-opacity="0.15" stroke-dasharray="4 4"/><line key="3-6" x1="116" y1="739.266678984434" x2="128.8" y2="809.7646622483531" stroke="#30363d" stroke-width="1" stroke-opacity="0.15" stroke-dasharray="4 4"/><line key="3-7" x1="116" y1="739.266678984434" x2="564" y2="815.6217767534315" stroke="#30363d" stroke-width="1" stroke-opacity="0.15" stroke-dasharray="4 4"/><line key="3-8" x1="116" y1="739.266678984434" x2="704.8" y2="820.399482968412" stroke="#30363d" stroke-width="1" stroke-opacity="0.15" stroke-dasharray="4 4"/><line key="3-9" x1="116" y1="739.266678984434" x2="491.46666666666664" y2="828.7412316425996" stroke="#30363d" stroke-width="1" stroke-opacity="0.15" stroke-dasharray="4 4"/><line key="3-11" x1="116" y1="739.266678984434" x2="495.73333333333335" y2="844.2781929680393" stroke="#30363d" stroke-width="1" stroke-opacity="0.15" stroke-dasharray="4 4"/><line key="3-12" x1="116" y1="739.266678984434" x2="500" y2="865.3576772141092" stroke="#30363d" stroke-width="1" stroke-opacity="0.15" stroke-dasharray="4 4"/><line key="3-17" x1="116" y1="739.266678984434" x2="504.26666666666665" y2="874.3370117742221" stroke="#30363d" stroke-width="1" stroke-opacity="0.15" stroke-dasharray="4 4"/><line key="3-18" x1="116" y1="739.266678984434" x2="508.53333333333336" y2="877.3152090045305" stroke="#30363d" stroke-width="1" stroke-opacity="0.15" stroke-dasharray="4 4"/><line key="3-22" x1="116" y1="739.266678984434" x2="512.8" y2="907.994835120693" stroke="#30363d" stroke-width="1" stroke-opacity="0.15" stroke-dasharray="4 4"/><line key="4-8" x1="679.2" y1="756.9820587534513" x2="704.8" y2="820.399482968412" stroke="#30363d" stroke-width="1" stroke-opacity="0.15" stroke-dasharray="4 4"/><line key="4-13" x1="679.2" y1="756.9820587534513" x2="231.2" y2="865.8945916443621" stroke="#30363d" stroke-width="1" stroke-opacity="0.15" stroke-dasharray="4 4"/><line key="4-21" x1="679.2" y1="756.9820587534513" x2="256.8" y2="907.3013206482831" stroke="#30363d" stroke-width="1" stroke-opacity="0.15" stroke-dasharray="4 4"/><line key="5-8" x1="423.2" y1="759.3114843805375" x2="704.8" y2="820.399482968412" stroke="#30363d" stroke-width="1" stroke-opacity="0.15" stroke-dasharray="4 4"/><line key="5-10" x1="423.2" y1="759.3114843805375" x2="320.8" y2="833.2392814961008" stroke="#30363d" stroke-width="1" stroke-opacity="0.15" stroke-dasharray="4 4"/><line key="5-14" x1="423.2" y1="759.3114843805375" x2="429.6" y2="867.2620455839121" stroke="#30363d" stroke-width="1" stroke-opacity="0.15" stroke-dasharray="4 4"/><line key="5-18" x1="423.2" y1="759.3114843805375" x2="508.53333333333336" y2="877.3152090045305" stroke="#30363d" stroke-width="1" stroke-opacity="0.15" stroke-dasharray="4 4"/><line key="6-7" x1="128.8" y1="809.7646622483531" x2="564" y2="815.6217767534315" stroke="#30363d" stroke-width="1" stroke-opacity="0.15" stroke-dasharray="4 4"/><line key="6-8" x1="128.8" y1="809.7646622483531" x2="704.8" y2="820.399482968412" stroke="#30363d" stroke-width="1" stroke-opacity="0.15" stroke-dasharray="4 4"/><line key="6-9" x1="128.8" y1="809.7646622483531" x2="491.46666666666664" y2="828.7412316425996" stroke="#30363d" stroke-width="1" stroke-opacity="0.15" stroke-dasharray="4 4"/><line key="6-11" x1="128.8" y1="809.7646622483531" x2="495.73333333333335" y2="844.2781929680393" stroke="#30363d" stroke-width="1" stroke-opacity="0.15" stroke-dasharray="4 4"/><line key="6-12" x1="128.8" y1="809.7646622483531" x2="500" y2="865.3576772141092" stroke="#30363d" stroke-width="1" stroke-opacity="0.15" stroke-dasharray="4 4"/><line key="6-17" x1="128.8" y1="809.7646622483531" x2="504.26666666666665" y2="874.3370117742221" stroke="#30363d" stroke-width="1" stroke-opacity="0.15" stroke-dasharray="4 4"/><line key="6-18" x1="128.8" y1="809.7646622483531" x2="508.53333333333336" y2="877.3152090045305" stroke="#30363d" stroke-width="1" stroke-opacity="0.15" stroke-dasharray="4 4"/><line key="6-22" x1="128.8" y1="809.7646622483531" x2="512.8" y2="907.994835120693" stroke="#30363d" stroke-width="1" stroke-opacity="0.15" stroke-dasharray="4 4"/><line key="7-8" x1="564" y1="815.6217767534315" x2="704.8" y2="820.399482968412" stroke="#30363d" stroke-width="1" stroke-opacity="0.15" stroke-dasharray="4 4"/><line key="7-9" x1="564" y1="815.6217767534315" x2="491.46666666666664" y2="828.7412316425996" stroke="#30363d" stroke-width="1" stroke-opacity="0.15" stroke-dasharray="4 4"/><line key="7-11" x1="564" y1="815.6217767534315" x2="495.73333333333335" y2="844.2781929680393" stroke="#30363d" stroke-width="1" stroke-opacity="0.15" stroke-dasharray="4 4"/><line key="7-12" x1="564" y1="815.6217767534315" x2="500" y2="865.3576772141092" stroke="#30363d" stroke-width="1" stroke-opacity="0.15" stroke-dasharray="4 4"/><line key="7-17" x1="564" y1="815.6217767534315" x2="504.26666666666665" y2="874.3370117742221" stroke="#30363d" stroke-width="1" stroke-opacity="0.15" stroke-dasharray="4 4"/><line key="7-18" x1="564" y1="815.6217767534315" x2="508.53333333333336" y2="877.3152090045305" stroke="#30363d" stroke-width="1" stroke-opacity="0.15" stroke-dasharray="4 4"/><line key="7-19" x1="564" y1="815.6217767534315" x2="192.8" y2="883.6742892878368" stroke="#30363d" stroke-width="1" stroke-opacity="0.15" stroke-dasharray="4 4"/><line key="7-22" x1="564" y1="815.6217767534315" x2="512.8" y2="907.994835120693" stroke="#30363d" stroke-width="1" stroke-opacity="0.15" stroke-dasharray="4 4"/><line key="8-9" x1="704.8" y1="820.399482968412" x2="491.46666666666664" y2="828.7412316425996" stroke="#30363d" stroke-width="1" stroke-opacity="0.15" stroke-dasharray="4 4"/><line key="8-10" x1="704.8" y1="820.399482968412" x2="320.8" y2="833.2392814961008" stroke="#30363d" stroke-width="1" stroke-opacity="0.15" stroke-dasharray="4 4"/><line key="8-11" x1="704.8" y1="820.399482968412" x2="495.73333333333335" y2="844.2781929680393" stroke="#30363d" stroke-width="1" stroke-opacity="0.15" stroke-dasharray="4 4"/><line key="8-12" x1="704.8" y1="820.399482968412" x2="500" y2="865.3576772141092" stroke="#30363d" stroke-width="1" stroke-opacity="0.15" stroke-dasharray="4 4"/><line key="8-13" x1="704.8" y1="820.399482968412" x2="231.2" y2="865.8945916443621" stroke="#30363d" stroke-width="1" stroke-opacity="0.15" stroke-dasharray="4 4"/><line key="8-14" x1="704.8" y1="820.399482968412" x2="429.6" y2="867.2620455839121" stroke="#30363d" stroke-width="1" stroke-opacity="0.15" stroke-dasharray="4 4"/><line key="8-16" x1="704.8" y1="820.399482968412" x2="436" y2="870.2066856623296" stroke="#30363d" stroke-width="1" stroke-opacity="0.15" stroke-dasharray="4 4"/><line key="8-17" x1="704.8" y1="820.399482968412" x2="504.26666666666665" y2="874.3370117742221" stroke="#30363d" stroke-width="1" stroke-opacity="0.15" stroke-dasharray="4 4"/><line key="8-18" x1="704.8" y1="820.399482968412" x2="508.53333333333336" y2="877.3152090045305" stroke="#30363d" stroke-width="1" stroke-opacity="0.15" stroke-dasharray="4 4"/><line key="8-20" x1="704.8" y1="820.399482968412" x2="442.4" y2="886.6161329369302" stroke="#30363d" stroke-width="1" stroke-opacity="0.15" stroke-dasharray="4 4"/><line key="8-21" x1="704.8" y1="820.399482968412" x2="256.8" y2="907.3013206482831" stroke="#30363d" stroke-width="1" stroke-opacity="0.15" stroke-dasharray="4 4"/><line key="8-22" x1="704.8" y1="820.399482968412" x2="512.8" y2="907.994835120693" stroke="#30363d" stroke-width="1" stroke-opacity="0.15" stroke-dasharray="4 4"/><line key="9-11" x1="491.46666666666664" y1="828.7412316425996" x2="495.73333333333335" y2="844.2781929680393" stroke="#30363d" stroke-width="1" stroke-opacity="0.15" stroke-dasharray="4 4"/><line key="9-12" x1="491.46666666666664" y1="828.7412316425996" x2="500" y2="865.3576772141092" stroke="#30363d" stroke-width="1" stroke-opacity="0.15" stroke-dasharray="4 4"/><line key="9-17" x1="491.46666666666664" y1="828.7412316425996" x2="504.26666666666665" y2="874.3370117742221" stroke="#30363d" stroke-width="1" stroke-opacity="0.15" stroke-dasharray="4 4"/><line key="9-18" x1="491.46666666666664" y1="828.7412316425996" x2="508.53333333333336" y2="877.3152090045305" stroke="#30363d" stroke-width="1" stroke-opacity="0.15" stroke-dasharray="4 4"/><line key="9-22" x1="491.46666666666664" y1="828.7412316425996" x2="512.8" y2="907.994835120693" stroke="#30363d" stroke-width="1" stroke-opacity="0.15" stroke-dasharray="4 4"/><line key="10-14" x1="320.8" y1="833.2392814961008" x2="429.6" y2="867.2620455839121" stroke="#30363d" stroke-width="1" stroke-opacity="0.15" stroke-dasharray="4 4"/><line key="10-18" x1="320.8" y1="833.2392814961008" x2="508.53333333333336" y2="877.3152090045305" stroke="#30363d" stroke-width="1" stroke-opacity="0.15" stroke-dasharray="4 4"/><line key="11-12" x1="495.73333333333335" y1="844.2781929680393" x2="500" y2="865.3576772141092" stroke="#30363d" stroke-width="1" stroke-opacity="0.15" stroke-dasharray="4 4"/><line key="11-17" x1="495.73333333333335" y1="844.2781929680393" x2="504.26666666666665" y2="874.3370117742221" stroke="#30363d" stroke-width="1" stroke-opacity="0.15" stroke-dasharray="4 4"/><line key="11-18" x1="495.73333333333335" y1="844.2781929680393" x2="508.53333333333336" y2="877.3152090045305" stroke="#30363d" stroke-width="1" stroke-opacity="0.15" stroke-dasharray="4 4"/><line key="11-22" x1="495.73333333333335" y1="844.2781929680393" x2="512.8" y2="907.994835120693" stroke="#30363d" stroke-width="1" stroke-opacity="0.15" stroke-dasharray="4 4"/><line key="12-17" x1="500" y1="865.3576772141092" x2="504.26666666666665" y2="874.3370117742221" stroke="#30363d" stroke-width="1" stroke-opacity="0.15" stroke-dasharray="4 4"/><line key="12-18" x1="500" y1="865.3576772141092" x2="508.53333333333336" y2="877.3152090045305" stroke="#30363d" stroke-width="1" stroke-opacity="0.15" stroke-dasharray="4 4"/><line key="12-22" x1="500" y1="865.3576772141092" x2="512.8" y2="907.994835120693" stroke="#30363d" stroke-width="1" stroke-opacity="0.15" stroke-dasharray="4 4"/><line key="14-18" x1="429.6" y1="867.2620455839121" x2="508.53333333333336" y2="877.3152090045305" stroke="#30363d" stroke-width="1" stroke-opacity="0.15" stroke-dasharray="4 4"/><line key="14-24" x1="429.6" y1="867.2620455839121" x2="628" y2="919.6056096749093" stroke="#30363d" stroke-width="1" stroke-opacity="0.15" stroke-dasharray="4 4"/><line key="16-18" x1="436" y1="870.2066856623296" x2="508.53333333333336" y2="877.3152090045305" stroke="#30363d" stroke-width="1" stroke-opacity="0.15" stroke-dasharray="4 4"/><line key="16-20" x1="436" y1="870.2066856623296" x2="442.4" y2="886.6161329369302" stroke="#30363d" stroke-width="1" stroke-opacity="0.15" stroke-dasharray="4 4"/><line key="17-18" x1="504.26666666666665" y1="874.3370117742221" x2="508.53333333333336" y2="877.3152090045305" stroke="#30363d" stroke-width="1" stroke-opacity="0.15" stroke-dasharray="4 4"/><line key="17-22" x1="504.26666666666665" y1="874.3370117742221" x2="512.8" y2="907.994835120693" stroke="#30363d" stroke-width="1" stroke-opacity="0.15" stroke-dasharray="4 4"/><line key="18-20" x1="508.53333333333336" y1="877.3152090045305" x2="442.4" y2="886.6161329369302" stroke="#30363d" stroke-width="1" stroke-opacity="0.15" stroke-dasharray="4 4"/><line key="18-22" x1="508.53333333333336" y1="877.3152090045305" x2="512.8" y2="907.994835120693" stroke="#30363d" stroke-width="1" stroke-opacity="0.15" stroke-dasharray="4 4"/><circle cx="103.2" cy="670" r="26" fill="#00ADD8" fill-opacity="0.08" class="fade-1"/><circle cx="103.2" cy="670" r="22" fill="#00ADD8" fill-opacity="0.7" stroke="#00ADD8" stroke-width="1.5" stroke-opacity="0.9" class="fade-1"/><text x="103.2" y="706" class="t t-value fade-1" text-anchor="middle">incipit</text><circle cx="295.2" cy="712.4139596839566" r="26" fill="#DA5B0B" fill-opacity="0.08" class="fade-2"/><circle cx="295.2" cy="712.4139596839566" r="22" fill="#DA5B0B" fill-opacity="0.7" stroke="#DA5B0B" stroke-width="1.5" stroke-opacity="0.9" class="fade-2"/><text x="295.2" y="748.4139596839566" class="t t-value fade-2" text-anchor="middle">lepus-classifier</text><circle cx="487.2" cy="733.8388096660973" r="26" fill="#dea584" fill-opacity="0.08" class="fade-3"/><circle cx="487.2" cy="733.8388096660973" r="22" fill="#dea584" fill-opacity="0.7" stroke="#dea584" stroke-width="1.5" stroke-opacity="0.9" class="fade-3"/><text x="487.2" y="769.8388096660973" class="t t-value fade-3" text-anchor="middle">linear-gp</text><circle cx="116" cy="739.266678984434" r="26" fill="#00ADD8" fill-opacity="0.08" class="fade-4"/><circle cx="116" cy="739.266678984434" r="22" fill="#00ADD8" fill-opacity="0.7" stroke="#00ADD8" stroke-width="1.5" stroke-opacity="0.9" class="fade-4"/><text x="116" y="775.266678984434" class="t t-value fade-4" text-anchor="middle">zigbee-skill</text><circle cx="679.2" cy="756.9820587534513" r="26" fill="#3178c6" fill-opacity="0.08" class="fade-5"/><circle cx="679.2" cy="756.9820587534513" r="22" fill="#3178c6" fill-opacity="0.7" stroke="#3178c6" stroke-width="1.5" stroke-opacity="0.9" class="fade-5"/><text x="679.2" y="792.9820587534513" class="t t-value fade-5" text-anchor="middle">urmzd.com</text><circle cx="423.2" cy="759.3114843805375" r="26" fill="#3572A5" fill-opacity="0.08" class="fade-6"/><circle cx="423.2" cy="759.3114843805375" r="22" fill="#3572A5" fill-opacity="0.7" stroke="#3572A5" stroke-width="1.5" stroke-opacity="0.9" class="fade-6"/><text x="423.2" y="795.3114843805375" class="t t-value fade-6" text-anchor="middle">exp-agi-models</text><circle cx="128.8" cy="809.7646622483531" r="24.351941241051385" fill="#00ADD8" fill-opacity="0.08" class="fade-6"/><circle cx="128.8" cy="809.7646622483531" r="20.351941241051385" fill="#00ADD8" fill-opacity="0.7" stroke="#00ADD8" stroke-width="1.5" stroke-opacity="0.9" class="fade-6"/><text x="128.8" y="844.1166034894045" class="t t-value fade-6" text-anchor="middle">saige</text><circle cx="564" cy="815.6217767534315" r="21.762309019061945" fill="#89e051" fill-opacity="0.08" class="fade-6"/><circle cx="564" cy="815.6217767534315" r="17.762309019061945" fill="#89e051" fill-opacity="0.7" stroke="#89e051" stroke-width="1.5" stroke-opacity="0.9" class="fade-6"/><text x="564" y="847.3840857724934" class="t t-value fade-6" text-anchor="middle">dotfiles</text><circle cx="704.8" cy="820.399482968412" r="15.315656735546098" fill="#3178c6" fill-opacity="0.08" class="fade-6"/><circle cx="704.8" cy="820.399482968412" r="11.315656735546098" fill="#3178c6" fill-opacity="0.7" stroke="#3178c6" stroke-width="1.5" stroke-opacity="0.9" class="fade-6"/><text x="704.8" y="845.7151397039581" class="t t-value fade-6" text-anchor="middle">zoro</text><circle cx="491.46666666666664" cy="828.7412316425996" r="26" fill="#dea584" fill-opacity="0.08" class="fade-6"/><circle cx="491.46666666666664" cy="828.7412316425996" r="22" fill="#dea584" fill-opacity="0.7" stroke="#dea584" stroke-width="1.5" stroke-opacity="0.9" class="fade-6"/><text x="491.46666666666664" y="864.7412316425996" class="t t-value fade-6" text-anchor="middle">teasr</text><circle cx="320.8" cy="833.2392814961008" r="25.36863924926572" fill="#DA5B0B" fill-opacity="0.08" class="fade-6"/><circle cx="320.8" cy="833.2392814961008" r="21.36863924926572" fill="#DA5B0B" fill-opacity="0.7" stroke="#DA5B0B" stroke-width="1.5" stroke-opacity="0.9" class="fade-6"/><text x="320.8" y="868.6079207453665" class="t t-value fade-6" text-anchor="middle">md-classifier</text><circle cx="495.73333333333335" cy="844.2781929680393" r="20.72593699206231" fill="#dea584" fill-opacity="0.08" class="fade-6"/><circle cx="495.73333333333335" cy="844.2781929680393" r="16.72593699206231" fill="#dea584" fill-opacity="0.7" stroke="#dea584" stroke-width="1.5" stroke-opacity="0.9" class="fade-6"/><text x="495.73333333333335" y="875.0041299601016" class="t t-value fade-6" text-anchor="middle">oag</text><circle cx="500" cy="865.3576772141092" r="16.922285575576744" fill="#dea584" fill-opacity="0.08" class="fade-6"/><circle cx="500" cy="865.3576772141092" r="12.922285575576742" fill="#dea584" fill-opacity="0.7" stroke="#dea584" stroke-width="1.5" stroke-opacity="0.9" class="fade-6"/><text x="500" y="892.279962789686" class="t t-value fade-6" text-anchor="middle">sr</text><circle cx="231.2" cy="865.8945916443621" r="26" fill="#f1e05a" fill-opacity="0.08" class="fade-6"/><circle cx="231.2" cy="865.8945916443621" r="22" fill="#f1e05a" fill-opacity="0.7" stroke="#f1e05a" stroke-width="1.5" stroke-opacity="0.9" class="fade-6"/><text x="231.2" y="901.8945916443621" class="t t-value fade-6" text-anchor="middle">github-insights</text><circle cx="429.6" cy="867.2620455839121" r="24.287843736263678" fill="#3572A5" fill-opacity="0.08" class="fade-6"/><circle cx="429.6" cy="867.2620455839121" r="20.287843736263678" fill="#3572A5" fill-opacity="0.7" stroke="#3572A5" stroke-width="1.5" stroke-opacity="0.9" class="fade-6"/><text x="429.6" y="901.5498893201758" class="t t-value fade-6" text-anchor="middle">languide</text><circle cx="167.2" cy="869.4530995430916" r="24.861890796612347" fill="#b07219" fill-opacity="0.08" class="fade-6"/><circle cx="167.2" cy="869.4530995430916" r="20.861890796612347" fill="#b07219" fill-opacity="0.7" stroke="#b07219" stroke-width="1.5" stroke-opacity="0.9" class="fade-6"/><text x="167.2" y="904.314990339704" class="t t-value fade-6" text-anchor="middle">flappy-bird</text><circle cx="436" cy="870.2066856623296" r="26" fill="#3572A5" fill-opacity="0.08" class="fade-6"/><circle cx="436" cy="870.2066856623296" r="22" fill="#3572A5" fill-opacity="0.7" stroke="#3572A5" stroke-width="1.5" stroke-opacity="0.9" class="fade-6"/><text x="436" y="906.2066856623296" class="t t-value fade-6" text-anchor="middle">fighter-iq</text><circle cx="504.26666666666665" cy="874.3370117742221" r="12.283855820084858" fill="#dea584" fill-opacity="0.08" class="fade-6"/><circle cx="504.26666666666665" cy="874.3370117742221" r="8.283855820084858" fill="#dea584" fill-opacity="0.7" stroke="#dea584" stroke-width="1.5" stroke-opacity="0.9" class="fade-6"/><text x="504.26666666666665" y="896.620867594307" class="t t-value fade-6" text-anchor="middle">embed-src</text><circle cx="508.53333333333336" cy="877.3152090045305" r="16.053765723991788" fill="#dea584" fill-opacity="0.08" class="fade-6"/><circle cx="508.53333333333336" cy="877.3152090045305" r="12.053765723991786" fill="#dea584" fill-opacity="0.7" stroke="#dea584" stroke-width="1.5" stroke-opacity="0.9" class="fade-6"/><text x="508.53333333333336" y="903.3689747285223" class="t t-value fade-6" text-anchor="middle">llmem</text><circle cx="192.8" cy="883.6742892878368" r="14.637905107315877" fill="#b07219" fill-opacity="0.08" class="fade-6"/><circle cx="192.8" cy="883.6742892878368" r="10.637905107315877" fill="#b07219" fill-opacity="0.7" stroke="#b07219" stroke-width="1.5" stroke-opacity="0.9" class="fade-6"/><text x="192.8" y="908.3121943951527" class="t t-value fade-6" text-anchor="middle">barter-trader</text><circle cx="442.4" cy="886.6161329369302" r="14.425254648846348" fill="#3572A5" fill-opacity="0.08" class="fade-6"/><circle cx="442.4" cy="886.6161329369302" r="10.425254648846348" fill="#3572A5" fill-opacity="0.7" stroke="#3572A5" stroke-width="1.5" stroke-opacity="0.9" class="fade-6"/><text x="442.4" y="911.0413875857765" class="t t-value fade-6" text-anchor="middle">chess-cli</text><circle cx="256.8" cy="907.3013206482831" r="12.127871907170075" fill="#f1e05a" fill-opacity="0.08" class="fade-6"/><circle cx="256.8" cy="907.3013206482831" r="8.127871907170075" fill="#f1e05a" fill-opacity="0.7" stroke="#f1e05a" stroke-width="1.5" stroke-opacity="0.9" class="fade-6"/><text x="256.8" y="929.4291925554531" class="t t-value fade-6" text-anchor="middle">cypress-name-too-…</text><circle cx="512.8" cy="907.994835120693" r="10" fill="#dea584" fill-opacity="0.08" class="fade-6"/><circle cx="512.8" cy="907.994835120693" r="6" fill="#dea584" fill-opacity="0.7" stroke="#dea584" stroke-width="1.5" stroke-opacity="0.9" class="fade-6"/><text x="512.8" y="927.994835120693" class="t t-value fade-6" text-anchor="middle">gitit</text><circle cx="448.8" cy="916.4316623919046" r="10" fill="#3572A5" fill-opacity="0.08" class="fade-6"/><circle cx="448.8" cy="916.4316623919046" r="6" fill="#3572A5" fill-opacity="0.7" stroke="#3572A5" stroke-width="1.5" stroke-opacity="0.9" class="fade-6"/><text x="448.8" y="936.4316623919046" class="t t-value fade-6" text-anchor="middle">lightning-kfold</text><circle cx="628" cy="919.6056096749093" r="17.16456861146825" fill="#3D6117" fill-opacity="0.08" class="fade-6"/><circle cx="628" cy="919.6056096749093" r="13.164568611468251" fill="#3D6117" fill-opacity="0.7" stroke="#3D6117" stroke-width="1.5" stroke-opacity="0.9" class="fade-6"/><text x="628" y="946.7701782863775" class="t t-value fade-6" text-anchor="middle">rlgp-thesis</text><circle cx="372" cy="950" r="13.190508826918474" fill="#8b949e" fill-opacity="0.08" class="fade-6"/><circle cx="372" cy="950" r="9.190508826918474" fill="#8b949e" fill-opacity="0.7" stroke="#8b949e" stroke-width="1.5" stroke-opacity="0.9" class="fade-6"/><text x="372" y="973.1905088269185" class="t t-value fade-6" text-anchor="middle">urmzd</text><text x="24" y="1076" class="t t-h">OPEN SOURCE IMPACT</text><text x="24" y="1092" class="t t-sub">External repositories contributed to</text><text x="24" y="1126" class="t t-card-title fade-1">getzep/graphiti</text><rect x="280" y="1116" width="340" height="12" rx="3" fill="#58a6ff" fill-opacity="0.7" class="fade-1"/><text x="636" y="1126" class="t t-value fade-1">★ 24,309</text><text x="728" y="1126" class="t t-value fade-1">Python</text><text x="24" y="1172" class="t t-card-title fade-2">googleapis/python-aiplatform</text><rect x="280" y="1162" width="228.15068935991508" height="12" rx="3" fill="#3fb950" fill-opacity="0.7" class="fade-2"/><text x="636" y="1172" class="t t-value fade-2">★ 876</text><text x="728" y="1172" class="t t-value fade-2">Python</text><text x="24" y="1218" class="t t-card-title fade-3">MathisWellmann/gym-rs</text><rect x="280" y="1208" width="163.3576193095489" height="12" rx="3" fill="#d29922" fill-opacity="0.7" class="fade-3"/><text x="636" y="1218" class="t t-value fade-3">★ 127</text><text x="728" y="1218" class="t t-value fade-3">Rust</text></svg>