<svg xmlns="http://www.w3.org/2000/svg" width="808" height="1736" viewBox="0 0 808 1736"><defs><style>
  .t { font-family: -apple-system,BlinkMacSystemFont,Segoe UI,Helvetica,Arial,sans-serif; font-variant-numeric: tabular-lining; }
  .t-h { font-size: 14px; fill: #c9d1d9; letter-spacing: 2px; font-weight: 600; }
  .t-sub { font-size: 11px; fill: #6e7681; }
  .t-label { font-size: 12px; fill: #8b949e; }
  .t-value { font-size: 11px; fill: #6e7681; }
  .t-subhdr { font-size: 11px; fill: #8b949e; letter-spacing: 1px; font-weight: 600; }
  .t-stat-label { font-size: 10px; fill: #8b949e; font-weight: 600; }
  .t-stat-value { font-size: 22px; font-weight: 700; }
  .t-card-title { font-size: 12px; fill: #58a6ff; font-weight: 700; }
  .t-card-detail { font-size: 11px; fill: #8b949e; }
  .t-pill { font-size: 11px; font-weight: 600; }
  .t-bullet { font-size: 12px; fill: #c9d1d9; }
  .bg-fill { fill: #0d1117; }
  .card-fill { fill: #161b22; }
  .border-stroke { stroke: #30363d; }

  @media (prefers-color-scheme: light) {
    .bg-fill { fill: #ffffff; }
    .card-fill { fill: #f6f8fa; }
    .border-stroke { stroke: #d0d7de; }
    .t-h { fill: #1f2328; }
    .t-sub { fill: #656d76; }
    .t-label { fill: #656d76; }
    .t-value { fill: #656d76; }
    .t-subhdr { fill: #656d76; }
    .t-stat-label { fill: #656d76; }
    .t-card-title { fill: #0969da; }
    .t-card-detail { fill: #656d76; }
    .t-bullet { fill: #1f2328; }
  }

  @keyframes fadeIn {
    from { opacity: 0; transform: translateY(8px); }
    to { opacity: 1; transform: translateY(0); }
  }
  @keyframes scaleIn {
    from { transform: scale(0); opacity: 0; }
    to { transform: scale(1); opacity: 1; }
  }
  @keyframes drawPath {
    from { stroke-dashoffset: var(--path-length); }
    to { stroke-dashoffset: 0; }
  }
  @keyframes radarReveal {
    from { transform: scale(0); opacity: 0; }
    to { transform: scale(1); opacity: 0.6; }
  }
  .fade-1 { animation: fadeIn 0.6s ease-out 0.1s both; }
  .fade-2 { animation: fadeIn 0.6s ease-out 0.25s both; }
  .fade-3 { animation: fadeIn 0.6s ease-out 0.4s both; }
  .fade-4 { animation: fadeIn 0.6s ease-out 0.55s both; }
  .fade-5 { animation: fadeIn 0.6s ease-out 0.7s both; }
  .fade-6 { animation: fadeIn 0.6s ease-out 0.85s both; }
</style></defs><rect width="808" height="1736" rx="12" class="bg-fill" fill="#0d1117"/><text x="24" y="40" class="t t-h">LANGUAGE VELOCITY</text><text x="24" y="56" class="t t-sub">How language usage has evolved over the past year</text><path key="Lua" d="M 24,206 C 55.66666666666667,206 55.66666666666667,205.76027397260273 87.33333333333334,205.76027397260273 C 119.00000000000001,205.76027397260273 119.00000000000001,205.88013698630138 150.66666666666669,205.88013698630138 C 182.33333333333334,205.88013698630138 182.33333333333334,205.88013698630138 214,205.88013698630138 C 245.66666666666669,205.88013698630138 245.66666666666669,206 277.33333333333337,206 C 309,206 309,206 340.6666666666667,206 C 372.33333333333337,206 372.33333333333337,205.40068493150685 404,205.40068493150685 C 435.6666666666667,205.40068493150685 435.6666666666667,203.6027397260274 467.33333333333337,203.6027397260274 C 499.00000000000006,203.6027397260274 499.00000000000006,206 530.6666666666667,206 C 562.3333333333334,206 562.3333333333334,191.97602739726028 594,191.97602739726028 C 625.6666666666667,191.97602739726028 625.6666666666667,159.73287671232876 657.3333333333334,159.73287671232876 C 689,159.73287671232876 689,66 720.6666666666667,66 C 752.3333333333334,66 752.3333333333334,158.05479452054794 784,158.05479452054794 L 784,158.41438356164383 C 752.3333333333334,158.41438356164383 752.3333333333334,67.07876712328766 720.6666666666667,67.07876712328766 C 689,67.07876712328766 689,160.09246575342465 657.3333333333334,160.09246575342465 C 625.6666666666667,160.09246575342465 625.6666666666667,192.0958904109589 594,192.0958904109589 C 562.3333333333334,192.0958904109589 562.3333333333334,206 530.6666666666667,206 C 499.00000000000006,206 499.00000000000006,203.6027397260274 467.33333333333337,203.6027397260274 C 435.6666666666667,203.6027397260274 435.6666666666667,205.40068493150685 404,205.40068493150685 C 372.33333333333337,205.40068493150685 372.33333333333337,206 340.6666666666667,206 C 309,206 309,206 277.33333333333337,206 C 245.66666666666669,206 245.66666666666669,205.88013698630138 214,205.88013698630138 C 182.33333333333334,205.88013698630138 182.33333333333334,205.88013698630138 150.66666666666669,205.88013698630138 C 119.00000000000001,205.88013698630138 119.00000000000001,205.76027397260273 87.33333333333334,205.76027397260273 C 55.66666666666667,205.76027397260273 55.66666666666667,206 24,206 Z" fill="#000080" fill-opacity="0.75" class="fade-1"/><path key="Java" d="M 24,206 C 55.66666666666667,206 55.66666666666667,205.76027397260273 87.33333333333334,205.76027397260273 C 119.00000000000001,205.76027397260273 119.00000000000001,205.88013698630138 150.66666666666669,205.88013698630138 C 182.33333333333334,205.88013698630138 182.33333333333334,205.88013698630138 214,205.88013698630138 C 245.66666666666669,205.88013698630138 245.66666666666669,206 277.33333333333337,206 C 309,206 309,206 340.6666666666667,206 C 372.33333333333337,206 372.33333333333337,205.40068493150685 404,205.40068493150685 C 435.6666666666667,205.40068493150685 435.6666666666667,203.6027397260274 467.33333333333337,203.6027397260274 C 499.00000000000006,203.6027397260274 499.00000000000006,206 530.6666666666667,206 C 562.3333333333334,206 562.3333333333334,192.0958904109589 594,192.0958904109589 C 625.6666666666667,192.0958904109589 625.6666666666667,160.09246575342465 657.3333333333334,160.09246575342465 C 689,160.09246575342465 689,67.07876712328766 720.6666666666667,67.07876712328766 C 752.3333333333334,67.07876712328766 752.3333333333334,158.41438356164383 784,158.41438356164383 L 784,159.37328767123287 C 752.3333333333334,159.37328767123287 752.3333333333334,69.83561643835617 720.6666666666667,69.83561643835617 C 689,69.83561643835617 689,161.0513698630137 657.3333333333334,161.0513698630137 C 625.6666666666667,161.0513698630137 625.6666666666667,192.33561643835617 594,192.33561643835617 C 562.3333333333334,192.33561643835617 562.3333333333334,206 530.6666666666667,206 C 499.00000000000006,206 499.00000000000006,203.6027397260274 467.33333333333337,203.6027397260274 C 435.6666666666667,203.6027397260274 435.6666666666667,205.40068493150685 404,205.40068493150685 C 372.33333333333337,205.40068493150685 372.33333333333337,206 340.6666666666667,206 C 309,206 309,206 277.33333333333337,206 C 245.66666666666669,206 245.66666666666669,205.88013698630138 214,205.88013698630138 C 182.33333333333334,205.88013698630138 182.33333333333334,205.88013698630138 150.66666666666669,205.88013698630138 C 119.00000000000001,205.88013698630138 119.00000000000001,205.76027397260273 87.33333333333334,205.76027397260273 C 55.66666666666667,205.76027397260273 55.66666666666667,206 24,206 Z" fill="#b07219" fill-opacity="0.75" class="fade-2"/><path key="Python" d="M 24,206 C 55.66666666666667,206 55.66666666666667,205.76027397260273 87.33333333333334,205.76027397260273 C 119.00000000000001,205.76027397260273 119.00000000000001,205.88013698630138 150.66666666666669,205.88013698630138 C 182.33333333333334,205.88013698630138 182.33333333333334,205.88013698630138 214,205.88013698630138 C 245.66666666666669,205.88013698630138 245.66666666666669,206 277.33333333333337,206 C 309,206 309,206 340.6666666666667,206 C 372.33333333333337,206 372.33333333333337,205.40068493150685 404,205.40068493150685 C 435.6666666666667,205.40068493150685 435.6666666666667,203.6027397260274 467.33333333333337,203.6027397260274 C 499.00000000000006,203.6027397260274 499.00000000000006,206 530.6666666666667,206 C 562.3333333333334,206 562.3333333333334,192.33561643835617 594,192.33561643835617 C 625.6666666666667,192.33561643835617 625.6666666666667,161.0513698630137 657.3333333333334,161.0513698630137 C 689,161.0513698630137 689,69.83561643835617 720.6666666666667,69.83561643835617 C 752.3333333333334,69.83561643835617 752.3333333333334,159.37328767123287 784,159.37328767123287 L 784,167.4041095890411 C 752.3333333333334,167.4041095890411 752.3333333333334,93.4486301369863 720.6666666666667,93.4486301369863 C 689,93.4486301369863 689,168.84246575342465 657.3333333333334,168.84246575342465 C 625.6666666666667,168.84246575342465 625.6666666666667,194.73287671232876 594,194.73287671232876 C 562.3333333333334,194.73287671232876 562.3333333333334,206 530.6666666666667,206 C 499.00000000000006,206 499.00000000000006,203.9623287671233 467.33333333333337,203.9623287671233 C 435.6666666666667,203.9623287671233 435.6666666666667,205.5205479452055 404,205.5205479452055 C 372.33333333333337,205.5205479452055 372.33333333333337,206 340.6666666666667,206 C 309,206 309,206 277.33333333333337,206 C 245.66666666666669,206 245.66666666666669,205.88013698630138 214,205.88013698630138 C 182.33333333333334,205.88013698630138 182.33333333333334,205.88013698630138 150.66666666666669,205.88013698630138 C 119.00000000000001,205.88013698630138 119.00000000000001,205.76027397260273 87.33333333333334,205.76027397260273 C 55.66666666666667,205.76027397260273 55.66666666666667,206 24,206 Z" fill="#3572A5" fill-opacity="0.75" class="fade-3"/><path key="TypeScript" d="M 24,206 C 55.66666666666667,206 55.66666666666667,205.76027397260273 87.33333333333334,205.76027397260273 C 119.00000000000001,205.76027397260273 119.00000000000001,205.88013698630138 150.66666666666669,205.88013698630138 C 182.33333333333334,205.88013698630138 182.33333333333334,205.88013698630138 214,205.88013698630138 C 245.66666666666669,205.88013698630138 245.66666666666669,206 277.33333333333337,206 C 309,206 309,206 340.6666666666667,206 C 372.33333333333337,206 372.33333333333337,205.5205479452055 404,205.5205479452055 C 435.6666666666667,205.5205479452055 435.6666666666667,203.9623287671233 467.33333333333337,203.9623287671233 C 499.00000000000006,203.9623287671233 499.00000000000006,206 530.6666666666667,206 C 562.3333333333334,206 562.3333333333334,194.73287671232876 594,194.73287671232876 C 625.6666666666667,194.73287671232876 625.6666666666667,168.84246575342465 657.3333333333334,168.84246575342465 C 689,168.84246575342465 689,93.4486301369863 720.6666666666667,93.4486301369863 C 752.3333333333334,93.4486301369863 752.3333333333334,167.4041095890411 784,167.4041095890411 L 784,176.75342465753425 C 752.3333333333334,176.75342465753425 752.3333333333334,120.65753424657534 720.6666666666667,120.65753424657534 C 689,120.65753424657534 689,177.83219178082192 657.3333333333334,177.83219178082192 C 625.6666666666667,177.83219178082192 625.6666666666667,197.48972602739727 594,197.48972602739727 C 562.3333333333334,197.48972602739727 562.3333333333334,206 530.6666666666667,206 C 499.00000000000006,206 499.00000000000006,204.4417808219178 467.33333333333337,204.4417808219178 C 435.6666666666667,204.4417808219178 435.6666666666667,205.6404109589041 404,205.6404109589041 C 372.33333333333337,205.6404109589041 372.33333333333337,206 340.6666666666667,206 C 309,206 309,206 277.33333333333337,206 C 245.66666666666669,206 245.66666666666669,205.88013698630138 214,205.88013698630138 C 182.33333333333334,205.88013698630138 182.33333333333334,205.88013698630138 150.66666666666669,205.88013698630138 C 119.00000000000001,205.88013698630138 119.00000000000001,205.76027397260273 87.33333333333334,205.76027397260273 C 55.66666666666667,205.76027397260273 55.66666666666667,206 24,206 Z" fill="#3178c6" fill-opacity="0.75" class="fade-4"/><path key="Go" d="M 24,206 C 55.66666666666667,206 55.66666666666667,205.76027397260273 87.33333333333334,205.76027397260273 C 119.00000000000001,205.76027397260273 119.00000000000001,205.88013698630138 150.66666666666669,205.88013698630138 C 182.33333333333334,205.88013698630138 182.33333333333334,205.88013698630138 214,205.88013698630138 C 245.66666666666669,205.88013698630138 245.66666666666669,206 277.33333333333337,206 C 309,206 309,206 340.6666666666667,206 C 372.33333333333337,206 372.33333333333337,205.6404109589041 404,205.6404109589041 C 435.6666666666667,205.6404109589041 435.6666666666667,204.4417808219178 467.33333333333337,204.4417808219178 C 499.00000000000006,204.4417808219178 499.00000000000006,206 530.6666666666667,206 C 562.3333333333334,206 562.3333333333334,197.48972602739727 594,197.48972602739727 C 625.6666666666667,197.48972602739727 625.6666666666667,177.83219178082192 657.3333333333334,177.83219178082192 C 689,177.83219178082192 689,120.65753424657534 720.6666666666667,120.65753424657534 C 752.3333333333334,120.65753424657534 752.3333333333334,176.75342465753425 784,176.75342465753425 L 784,187.54109589041096 C 752.3333333333334,187.54109589041096 752.3333333333334,152.18150684931507 720.6666666666667,152.18150684931507 C 689,152.18150684931507 689,188.26027397260273 657.3333333333334,188.26027397260273 C 625.6666666666667,188.26027397260273 625.6666666666667,200.60616438356163 594,200.60616438356163 C 562.3333333333334,200.60616438356163 562.3333333333334,206 530.6666666666667,206 C 499.00000000000006,206 499.00000000000006,205.04109589041096 467.33333333333337,205.04109589041096 C 435.6666666666667,205.04109589041096 435.6666666666667,205.76027397260273 404,205.76027397260273 C 372.33333333333337,205.76027397260273 372.33333333333337,206 340.6666666666667,206 C 309,206 309,206 277.33333333333337,206 C 245.66666666666669,206 245.66666666666669,205.88013698630138 214,205.88013698630138 C 182.33333333333334,205.88013698630138 182.33333333333334,205.88013698630138 150.66666666666669,205.88013698630138 C 119.00000000000001,205.88013698630138 119.00000000000001,205.88013698630138 87.33333333333334,205.88013698630138 C 55.66666666666667,205.88013698630138 55.66666666666667,206 24,206 Z" fill="#00ADD8" fill-opacity="0.75" class="fade-5"/><path key="Rust" d="M 24,206 C 55.66666666666667,206 55.66666666666667,205.88013698630138 87.33333333333334,205.88013698630138 C 119.00000000000001,205.88013698630138 119.00000000000001,205.88013698630138 150.66666666666669,205.88013698630138 C 182.33333333333334,205.88013698630138 182.33333333333334,205.88013698630138 214,205.88013698630138 C 245.66666666666669,205.88013698630138 245.66666666666669,206 277.33333333333337,206 C 309,206 309,206 340.6666666666667,206 C 372.33333333333337,206 372.33333333333337,205.76027397260273 404,205.76027397260273 C 435.6666666666667,205.76027397260273 435.6666666666667,205.04109589041096 467.33333333333337,205.04109589041096 C 499.00000000000006,205.04109589041096 499.00000000000006,206 530.6666666666667,206 C 562.3333333333334,206 562.3333333333334,200.60616438356163 594,200.60616438356163 C 625.6666666666667,200.60616438356163 625.6666666666667,188.26027397260273 657.3333333333334,188.26027397260273 C 689,188.26027397260273 689,152.18150684931507 720.6666666666667,152.18150684931507 C 752.3333333333334,152.18150684931507 752.3333333333334,187.54109589041096 784,187.54109589041096 L 784,206 C 752.3333333333334,206 752.3333333333334,206 720.6666666666667,206 C 689,206 689,206 657.3333333333334,206 C 625.6666666666667,206 625.6666666666667,206 594,206 C 562.3333333333334,206 562.3333333333334,206 530.6666666666667,206 C 499.00000000000006,206 499.00000000000006,206 467.33333333333337,206 C 435.6666666666667,206 435.6666666666667,206 404,206 C 372.33333333333337,206 372.33333333333337,206 340.6666666666667,206 C 309,206 309,206 277.33333333333337,206 C 245.66666666666669,206 245.66666666666669,206 214,206 C 182.33333333333334,206 182.33333333333334,206 150.66666666666669,206 C 119.00000000000001,206 119.00000000000001,206 87.33333333333334,206 C 55.66666666666667,206 55.66666666666667,206 24,206 Z" fill="#dea584" fill-opacity="0.75" class="fade-6"/><rect x="24" y="212" width="8" height="8" rx="2" fill="#dea584" opacity="0.85"/><text x="36" y="220" class="t t-value">Rust</text><rect x="80" y="212" width="8" height="8" rx="2" fill="#00ADD8" opacity="0.85"/><text x="92" y="220" class="t t-value">Go</text><rect x="122" y="212" width="8" height="8" rx="2" fill="#3178c6" opacity="0.85"/><text x="134" y="220" class="t t-value">TypeScript</text><rect x="220" y="212" width="8" height="8" rx="2" fill="#3572A5" opacity="0.85"/><text x="232" y="220" class="t t-value">Python</text><rect x="290" y="212" width="8" height="8" rx="2" fill="#b07219" opacity="0.85"/><text x="302" y="220" class="t t-value">Java</text><rect x="346" y="212" width="8" height="8" rx="2" fill="#000080" opacity="0.85"/><text x="358" y="220" class="t t-value">Lua</text><text key="Apr" x="24" y="220" class="t t-value" text-anchor="start" opacity="0">Apr</text><text key="Jun" x="150.66666666666669" y="220" class="t t-value" text-anchor="start" opacity="0">Jun</text><text key="Aug" x="277.33333333333337" y="220" class="t t-value" text-anchor="start" opacity="0">Aug</text><text key="Oct" x="404" y="220" class="t t-value" text-anchor="start" opacity="0">Oct</text><text key="Dec" x="530.6666666666667" y="220" class="t t-value" text-anchor="start" opacity="0">Dec</text><text key="Feb" x="657.3333333333334" y="220" class="t t-value" text-anchor="start" opacity="0">Feb</text><text key="Apr" x="784" y="220" class="t t-value" text-anchor="start" opacity="0">Apr</text><text x="24" y="282" class="t t-h">CONTRIBUTION RHYTHM</text><text x="24" y="298" class="t t-sub">Activity patterns and statistics over the past year</text><circle key="0.25" cx="144" cy="428" r="22.5" fill="none" stroke="#30363d" stroke-width="1" stroke-opacity="0.4"/><circle key="0.5" cx="144" cy="428" r="45" fill="none" stroke="#30363d" stroke-width="1" stroke-opacity="0.4"/><circle key="0.75" cx="144" cy="428" r="67.5" fill="none" stroke="#30363d" stroke-width="1" stroke-opacity="0.4"/><circle key="1" cx="144" cy="428" r="90" fill="none" stroke="#30363d" stroke-width="1" stroke-opacity="0.4"/><line key="Sun" x1="144" y1="428" x2="144" y2="338" stroke="#30363d" stroke-width="1" stroke-opacity="0.3"/><line key="Mon" x1="144" y1="428" x2="214.36483342212267" y2="371.885917832714" stroke="#30363d" stroke-width="1" stroke-opacity="0.3"/><line key="Tue" x1="144" y1="428" x2="231.74351209636413" y2="448.0268840560683" stroke="#30363d" stroke-width="1" stroke-opacity="0.3"/><line key="Wed" x1="144" y1="428" x2="183.04953652058023" y2="509.08719811121773" stroke="#30363d" stroke-width="1" stroke-opacity="0.3"/><line key="Thu" x1="144" y1="428" x2="104.95046347941977" y2="509.08719811121773" stroke="#30363d" stroke-width="1" stroke-opacity="0.3"/><line key="Fri" x1="144" y1="428" x2="56.25648790363587" y2="448.0268840560683" stroke="#30363d" stroke-width="1" stroke-opacity="0.3"/><line key="Sat" x1="144" y1="428" x2="73.63516657787731" y2="371.885917832714" stroke="#30363d" stroke-width="1" stroke-opacity="0.3"/><polygon points="144,338 167.64959131614913,409.1400802674267 170.3351896610111,434.0108351869527 160.95927312235435,463.2162935088829 128.33697705260266,460.52460228527406 105.407417916122,436.80850502051135 95.14364263083598,389.03835512036295" fill="#58a6ff" fill-opacity="0.2" stroke="#58a6ff" stroke-width="2" stroke-opacity="0.8" class="fade-2" style="transform-origin: 144px 428px"/><circle key="Sun" cx="144" cy="338" r="3" fill="#58a6ff" class="fade-1"/><circle key="Mon" cx="167.64959131614913" cy="409.1400802674267" r="3" fill="#58a6ff" class="fade-2"/><circle key="Tue" cx="170.3351896610111" cy="434.0108351869527" r="3" fill="#58a6ff" class="fade-3"/><circle key="Wed" cx="160.95927312235435" cy="463.2162935088829" r="3" fill="#58a6ff" class="fade-4"/><circle key="Thu" cx="128.33697705260266" cy="460.52460228527406" r="3" fill="#58a6ff" class="fade-5"/><circle key="Fri" cx="105.407417916122" cy="436.80850502051135" r="3" fill="#58a6ff" class="fade-6"/><circle key="Sat" cx="95.14364263083598" cy="389.03835512036295" r="3" fill="#58a6ff" class="fade-6"/><text key="Sun" x="144" y="326" class="t t-value" text-anchor="middle">Sun</text><text key="Mon" x="226.87413714161116" y="365.91008100297427" class="t t-value" text-anchor="middle">Mon</text><text key="Tue" x="247.34235869127332" y="455.5872189993693" class="t t-value" text-anchor="middle">Tue</text><text key="Wed" x="189.99167634646116" y="527.5026999976565" class="t t-value" text-anchor="middle">Wed</text><text key="Thu" x="98.00832365353884" y="527.5026999976565" class="t t-value" text-anchor="middle">Thu</text><text key="Fri" x="40.657641308726696" y="455.5872189993693" class="t t-value" text-anchor="middle">Fri</text><text key="Sat" x="61.12586285838883" y="365.91008100297427" class="t t-value" text-anchor="middle">Sat</text><text x="324" y="338" class="t t-stat-label">COMMITS</text><text x="324" y="360" fill="#58a6ff" class="t t-stat-value">2,303</text><text x="324" y="380" class="t t-stat-label">PRS</text><text x="324" y="402" fill="#3fb950" class="t t-stat-value">143</text><text x="324" y="422" class="t t-stat-label">REVIEWS</text><text x="324" y="444" fill="#d29922" class="t t-stat-value">5</text><text x="324" y="464" class="t t-stat-label">REPOS</text><text x="324" y="486" fill="#bc8cff" class="t t-stat-value">29</text><text x="324" y="506" class="t t-stat-label">STREAK</text><text x="324" y="528" fill="#39d2c0" class="t t-stat-value">24d</text><text x="24" y="614" class="t t-h">PROJECT CONSTELLATION</text><text x="24" y="630" class="t t-sub">Top projects ranked by complexity, grouped by primary language</text><circle cx="29" cy="656" r="5" fill="#00ADD8" fill-opacity="0.8" class="fade-1"/><text x="40" y="660" class="t t-subhdr fade-1">Go</text><line x1="204" y1="656" x2="644" y2="656" stroke="#30363d" stroke-opacity="0.3" stroke-width="1"/><text x="32" y="688" class="t t-card-title fade-1">incipit</text><rect x="204" y="680" width="380" height="14" rx="4" fill="#00ADD8" fill-opacity="0.7" class="fade-1"/><text x="604" y="688" class="t t-value fade-1">★ 11</text><text x="32" y="730" class="t t-card-title fade-2">zigbee-skill</text><rect x="204" y="722" width="301.143390420497" height="14" rx="4" fill="#00ADD8" fill-opacity="0.7" class="fade-2"/><text x="604" y="730" class="t t-value fade-2">★ 0</text><text x="32" y="772" class="t t-card-title fade-3">saige</text><rect x="204" y="764" width="164.69573988870135" height="14" rx="4" fill="#00ADD8" fill-opacity="0.7" class="fade-3"/><text x="604" y="772" class="t t-value fade-3">★ 0</text><circle cx="36" cy="796" r="3" fill="#6e7681" fill-opacity="0.6" class="fade-3"/><text x="42" y="799" class="t fade-3" font-size="9" fill="#6e7681">Go Templa…</text><circle cx="29" cy="848" r="5" fill="#3572A5" fill-opacity="0.8" class="fade-4"/><text x="40" y="852" class="t t-subhdr fade-4">Python</text><line x1="204" y1="848" x2="644" y2="848" stroke="#30363d" stroke-opacity="0.3" stroke-width="1"/><text x="32" y="880" class="t t-card-title fade-4">lepus-classifier</text><rect x="204" y="872" width="339.3049472404734" height="14" rx="4" fill="#3572A5" fill-opacity="0.7" class="fade-4"/><text x="604" y="880" class="t t-value fade-4">★ 2</text><text x="32" y="922" class="t t-card-title fade-5">experimental-transforme…</text><rect x="204" y="914" width="252.30932710906504" height="14" rx="4" fill="#3572A5" fill-opacity="0.7" class="fade-5"/><text x="604" y="922" class="t t-value fade-5">★ 0</text><text x="32" y="964" class="t t-card-title fade-6">generative-artifact-pro…</text><rect x="204" y="956" width="180.16701336456438" height="14" rx="4" fill="#3572A5" fill-opacity="0.7" class="fade-6"/><text x="604" y="964" class="t t-value fade-6">★ 0</text><circle cx="36" cy="988" r="3" fill="#dea584" fill-opacity="0.6" class="fade-6"/><text x="42" y="991" class="t fade-6" font-size="9" fill="#6e7681">Rust</text><circle cx="80" cy="988" r="3" fill="#00ADD8" fill-opacity="0.6" class="fade-6"/><text x="86" y="991" class="t fade-6" font-size="9" fill="#6e7681">Go</text><circle cx="29" cy="1040" r="5" fill="#dea584" fill-opacity="0.8" class="fade-6"/><text x="40" y="1044" class="t t-subhdr fade-6">Rust</text><line x1="204" y1="1040" x2="644" y2="1040" stroke="#30363d" stroke-opacity="0.3" stroke-width="1"/><text x="32" y="1072" class="t t-card-title fade-6">linear-gp</text><rect x="204" y="1064" width="287.849938127468" height="14" rx="4" fill="#dea584" fill-opacity="0.7" class="fade-6"/><text x="604" y="1072" class="t t-value fade-6">★ 3</text><text x="32" y="1114" class="t t-card-title fade-6">teasr</text><rect x="204" y="1106" width="154.8716998084719" height="14" rx="4" fill="#dea584" fill-opacity="0.7" class="fade-6"/><text x="604" y="1114" class="t t-value fade-6">★ 0</text><text x="32" y="1156" class="t t-card-title fade-6">oag</text><rect x="204" y="1148" width="131.35282068436265" height="14" rx="4" fill="#dea584" fill-opacity="0.7" class="fade-6"/><text x="604" y="1156" class="t t-value fade-6">★ 0</text><circle cx="36" cy="1180" r="3" fill="#6e7681" fill-opacity="0.6" class="fade-6"/><text x="42" y="1183" class="t fade-6" font-size="9" fill="#6e7681">Jinja</text><circle cx="29" cy="1232" r="5" fill="#3178c6" fill-opacity="0.8" class="fade-6"/><text x="40" y="1236" class="t t-subhdr fade-6">TypeScript</text><line x1="204" y1="1232" x2="644" y2="1232" stroke="#30363d" stroke-opacity="0.3" stroke-width="1"/><text x="32" y="1264" class="t t-card-title fade-6">urmzd.com</text><rect x="204" y="1256" width="255.97744563416688" height="14" rx="4" fill="#3178c6" fill-opacity="0.7" class="fade-6"/><text x="604" y="1264" class="t t-value fade-6">★ 1</text><circle cx="36" cy="1288" r="3" fill="#6e7681" fill-opacity="0.6" class="fade-6"/><text x="42" y="1291" class="t fade-6" font-size="9" fill="#6e7681">MDX</text><circle cx="74" cy="1288" r="3" fill="#6e7681" fill-opacity="0.6" class="fade-6"/><text x="80" y="1291" class="t fade-6" font-size="9" fill="#6e7681">Astro</text><circle cx="124" cy="1288" r="3" fill="#6e7681" fill-opacity="0.6" class="fade-6"/><text x="130" y="1291" class="t fade-6" font-size="9" fill="#6e7681">JavaScript</text><text x="32" y="1324" class="t t-card-title fade-6">github-insights</text><rect x="204" y="1316" width="117.87258445776948" height="14" rx="4" fill="#3178c6" fill-opacity="0.7" class="fade-6"/><text x="604" y="1324" class="t t-value fade-6">★ 0</text><circle cx="29" cy="1382" r="5" fill="#000080" fill-opacity="0.8" class="fade-6"/><text x="40" y="1386" class="t t-subhdr fade-6">Lua</text><line x1="204" y1="1382" x2="644" y2="1382" stroke="#30363d" stroke-opacity="0.3" stroke-width="1"/><text x="32" y="1414" class="t t-card-title fade-6">dotfiles</text><rect x="204" y="1406" width="172.48702393638266" height="14" rx="4" fill="#000080" fill-opacity="0.7" class="fade-6"/><text x="604" y="1414" class="t t-value fade-6">★ 2</text><circle cx="36" cy="1438" r="3" fill="#6e7681" fill-opacity="0.6" class="fade-6"/><text x="42" y="1441" class="t fade-6" font-size="9" fill="#6e7681">Go Templa…</text><circle cx="116" cy="1438" r="3" fill="#6e7681" fill-opacity="0.6" class="fade-6"/><text x="122" y="1441" class="t fade-6" font-size="9" fill="#6e7681">Ruby</text><text x="24" y="1514" class="t t-h">OPEN SOURCE IMPACT</text><text x="24" y="1530" class="t t-sub">External repositories contributed to</text><text x="24" y="1564" class="t t-card-title fade-1">getzep/graphiti</text><rect x="280" y="1554" width="340" height="12" rx="3" fill="#58a6ff" fill-opacity="0.7" class="fade-1"/><text x="636" y="1564" class="t t-value fade-1">★ 24,521</text><text x="728" y="1564" class="t t-value fade-1">Python</text><text x="24" y="1610" class="t t-card-title fade-2">googleapis/python-aiplatform</text><rect x="280" y="1600" width="227.91631354106622" height="12" rx="3" fill="#3fb950" fill-opacity="0.7" class="fade-2"/><text x="636" y="1610" class="t t-value fade-2">★ 875</text><text x="728" y="1610" class="t t-value fade-2">Python</text><text x="24" y="1656" class="t t-card-title fade-3">MathisWellmann/gym-rs</text><rect x="280" y="1646" width="163.21728392235266" height="12" rx="3" fill="#d29922" fill-opacity="0.7" class="fade-3"/><text x="636" y="1656" class="t t-value fade-3">★ 127</text><text x="728" y="1656" class="t t-value fade-3">Rust</text></svg>