<svg xmlns="http://www.w3.org/2000/svg" width="808" height="1446" viewBox="0 0 808 1446"><defs><style>
  .t { font-family: -apple-system,BlinkMacSystemFont,Segoe UI,Helvetica,Arial,sans-serif; font-variant-numeric: tabular-lining; }
  .t-h { font-size: 14px; fill: #1f2328; letter-spacing: 2px; font-weight: 600; }
  .t-sub { font-size: 11px; fill: #656d76; }
  .t-label { font-size: 12px; fill: #656d76; }
  .t-value { font-size: 11px; fill: #656d76; }
  .t-subhdr { font-size: 11px; fill: #656d76; letter-spacing: 1px; font-weight: 600; }
  .t-stat-label { font-size: 10px; fill: #656d76; font-weight: 600; }
  .t-stat-value { font-size: 22px; font-weight: 700; }
  .t-card-title { font-size: 12px; fill: #0969da; font-weight: 700; }
  .t-card-detail { font-size: 11px; fill: #656d76; }
  .t-pill { font-size: 11px; font-weight: 600; }
  .t-bullet { font-size: 12px; fill: #1f2328; }
  .bg-fill { fill: #ffffff; }
  .card-fill { fill: #f6f8fa; }
  .border-stroke { stroke: #d0d7de; }
  .muted-fill { fill: #656d76; }
  .secondary-fill { fill: #656d76; }

  @keyframes fadeIn {
    from { opacity: 0; transform: translateY(8px); }
    to { opacity: 1; transform: translateY(0); }
  }
  @keyframes scaleIn {
    from { transform: scale(0); opacity: 0; }
    to { transform: scale(1); opacity: 1; }
  }
  @keyframes drawPath {
    from { stroke-dashoffset: var(--path-length); }
    to { stroke-dashoffset: 0; }
  }
  @keyframes radarReveal {
    from { transform: scale(0); opacity: 0; }
    to { transform: scale(1); opacity: 0.6; }
  }
  .fade-1 { animation: fadeIn 0.6s ease-out 0.1s both; }
  .fade-2 { animation: fadeIn 0.6s ease-out 0.25s both; }
  .fade-3 { animation: fadeIn 0.6s ease-out 0.4s both; }
  .fade-4 { animation: fadeIn 0.6s ease-out 0.55s both; }
  .fade-5 { animation: fadeIn 0.6s ease-out 0.7s both; }
  .fade-6 { animation: fadeIn 0.6s ease-out 0.85s both; }
</style></defs><rect width="808" height="1446" rx="12" class="bg-fill"/><text x="24" y="40" class="t t-h">LANGUAGE VELOCITY</text><text x="24" y="56" class="t t-sub">How language usage has evolved over the past year</text><path key="Lua" d="M 24,206 C 55.66666666666667,206 55.66666666666667,205.76129582267689 87.33333333333334,205.76129582267689 C 119.00000000000001,205.76129582267689 119.00000000000001,205.88064791133846 150.66666666666669,205.88064791133846 C 182.33333333333334,205.88064791133846 182.33333333333334,205.88064791133846 214,205.88064791133846 C 245.66666666666669,205.88064791133846 245.66666666666669,206 277.33333333333337,206 C 309,206 309,206 340.6666666666667,206 C 372.33333333333337,206 372.33333333333337,205.40323955669226 404,205.40323955669226 C 435.6666666666667,205.40323955669226 435.6666666666667,203.7323103154305 467.33333333333337,203.7323103154305 C 499.00000000000006,203.7323103154305 499.00000000000006,206 530.6666666666667,206 C 562.3333333333334,206 562.3333333333334,191.91645353793692 594,191.91645353793692 C 625.6666666666667,191.91645353793692 625.6666666666667,159.81074168797954 657.3333333333334,159.81074168797954 C 689,159.81074168797954 689,66 720.6666666666667,66 C 752.3333333333334,66 752.3333333333334,145.6078431372549 784,145.6078431372549 L 784,146.20460358056266 C 752.3333333333334,146.20460358056266 752.3333333333334,67.4322250639386 720.6666666666667,67.4322250639386 C 689,67.4322250639386 689,160.28815004262574 657.3333333333334,160.28815004262574 C 625.6666666666667,160.28815004262574 625.6666666666667,192.03580562659846 594,192.03580562659846 C 562.3333333333334,192.03580562659846 562.3333333333334,206 530.6666666666667,206 C 499.00000000000006,206 499.00000000000006,203.7323103154305 467.33333333333337,203.7323103154305 C 435.6666666666667,203.7323103154305 435.6666666666667,205.40323955669226 404,205.40323955669226 C 372.33333333333337,205.40323955669226 372.33333333333337,206 340.6666666666667,206 C 309,206 309,206 277.33333333333337,206 C 245.66666666666669,206 245.66666666666669,205.88064791133846 214,205.88064791133846 C 182.33333333333334,205.88064791133846 182.33333333333334,205.88064791133846 150.66666666666669,205.88064791133846 C 119.00000000000001,205.88064791133846 119.00000000000001,205.76129582267689 87.33333333333334,205.76129582267689 C 55.66666666666667,205.76129582267689 55.66666666666667,206 24,206 Z" fill="#000080" fill-opacity="0.75" class="fade-1"/><path key="Java" d="M 24,206 C 55.66666666666667,206 55.66666666666667,205.76129582267689 87.33333333333334,205.76129582267689 C 119.00000000000001,205.76129582267689 119.00000000000001,205.88064791133846 150.66666666666669,205.88064791133846 C 182.33333333333334,205.88064791133846 182.33333333333334,205.88064791133846 214,205.88064791133846 C 245.66666666666669,205.88064791133846 245.66666666666669,206 277.33333333333337,206 C 309,206 309,206 340.6666666666667,206 C 372.33333333333337,206 372.33333333333337,205.40323955669226 404,205.40323955669226 C 435.6666666666667,205.40323955669226 435.6666666666667,203.7323103154305 467.33333333333337,203.7323103154305 C 499.00000000000006,203.7323103154305 499.00000000000006,206 530.6666666666667,206 C 562.3333333333334,206 562.3333333333334,192.03580562659846 594,192.03580562659846 C 625.6666666666667,192.03580562659846 625.6666666666667,160.28815004262574 657.3333333333334,160.28815004262574 C 689,160.28815004262574 689,67.4322250639386 720.6666666666667,67.4322250639386 C 752.3333333333334,67.4322250639386 752.3333333333334,146.20460358056266 784,146.20460358056266 L 784,147.39812446717818 C 752.3333333333334,147.39812446717818 752.3333333333334,70.05797101449275 720.6666666666667,70.05797101449275 C 689,70.05797101449275 689,161.1236146632566 657.3333333333334,161.1236146632566 C 625.6666666666667,161.1236146632566 625.6666666666667,192.27450980392157 594,192.27450980392157 C 562.3333333333334,192.27450980392157 562.3333333333334,206 530.6666666666667,206 C 499.00000000000006,206 499.00000000000006,203.7323103154305 467.33333333333337,203.7323103154305 C 435.6666666666667,203.7323103154305 435.6666666666667,205.40323955669226 404,205.40323955669226 C 372.33333333333337,205.40323955669226 372.33333333333337,206 340.6666666666667,206 C 309,206 309,206 277.33333333333337,206 C 245.66666666666669,206 245.66666666666669,205.88064791133846 214,205.88064791133846 C 182.33333333333334,205.88064791133846 182.33333333333334,205.88064791133846 150.66666666666669,205.88064791133846 C 119.00000000000001,205.88064791133846 119.00000000000001,205.76129582267689 87.33333333333334,205.76129582267689 C 55.66666666666667,205.76129582267689 55.66666666666667,206 24,206 Z" fill="#b07219" fill-opacity="0.75" class="fade-2"/><path key="Python" d="M 24,206 C 55.66666666666667,206 55.66666666666667,205.76129582267689 87.33333333333334,205.76129582267689 C 119.00000000000001,205.76129582267689 119.00000000000001,205.88064791133846 150.66666666666669,205.88064791133846 C 182.33333333333334,205.88064791133846 182.33333333333334,205.88064791133846 214,205.88064791133846 C 245.66666666666669,205.88064791133846 245.66666666666669,206 277.33333333333337,206 C 309,206 309,206 340.6666666666667,206 C 372.33333333333337,206 372.33333333333337,205.40323955669226 404,205.40323955669226 C 435.6666666666667,205.40323955669226 435.6666666666667,203.7323103154305 467.33333333333337,203.7323103154305 C 499.00000000000006,203.7323103154305 499.00000000000006,206 530.6666666666667,206 C 562.3333333333334,206 562.3333333333334,192.27450980392157 594,192.27450980392157 C 625.6666666666667,192.27450980392157 625.6666666666667,161.1236146632566 657.3333333333334,161.1236146632566 C 689,161.1236146632566 689,70.05797101449275 720.6666666666667,70.05797101449275 C 752.3333333333334,70.05797101449275 752.3333333333334,147.39812446717818 784,147.39812446717818 L 784,157.06564364876385 C 752.3333333333334,157.06564364876385 752.3333333333334,92.49616368286445 720.6666666666667,92.49616368286445 C 689,92.49616368286445 689,168.52344416027282 657.3333333333334,168.52344416027282 C 625.6666666666667,168.52344416027282 625.6666666666667,194.54219948849104 594,194.54219948849104 C 562.3333333333334,194.54219948849104 562.3333333333334,206 530.6666666666667,206 C 499.00000000000006,206 499.00000000000006,204.09036658141517 467.33333333333337,204.09036658141517 C 435.6666666666667,204.09036658141517 435.6666666666667,205.5225916453538 404,205.5225916453538 C 372.33333333333337,205.5225916453538 372.33333333333337,206 340.6666666666667,206 C 309,206 309,206 277.33333333333337,206 C 245.66666666666669,206 245.66666666666669,205.88064791133846 214,205.88064791133846 C 182.33333333333334,205.88064791133846 182.33333333333334,205.88064791133846 150.66666666666669,205.88064791133846 C 119.00000000000001,205.88064791133846 119.00000000000001,205.76129582267689 87.33333333333334,205.76129582267689 C 55.66666666666667,205.76129582267689 55.66666666666667,206 24,206 Z" fill="#3572A5" fill-opacity="0.75" class="fade-3"/><path key="TypeScript" d="M 24,206 C 55.66666666666667,206 55.66666666666667,205.76129582267689 87.33333333333334,205.76129582267689 C 119.00000000000001,205.76129582267689 119.00000000000001,205.88064791133846 150.66666666666669,205.88064791133846 C 182.33333333333334,205.88064791133846 182.33333333333334,205.88064791133846 214,205.88064791133846 C 245.66666666666669,205.88064791133846 245.66666666666669,206 277.33333333333337,206 C 309,206 309,206 340.6666666666667,206 C 372.33333333333337,206 372.33333333333337,205.5225916453538 404,205.5225916453538 C 435.6666666666667,205.5225916453538 435.6666666666667,204.09036658141517 467.33333333333337,204.09036658141517 C 499.00000000000006,204.09036658141517 499.00000000000006,206 530.6666666666667,206 C 562.3333333333334,206 562.3333333333334,194.54219948849104 594,194.54219948849104 C 625.6666666666667,194.54219948849104 625.6666666666667,168.52344416027282 657.3333333333334,168.52344416027282 C 689,168.52344416027282 689,92.49616368286445 720.6666666666667,92.49616368286445 C 752.3333333333334,92.49616368286445 752.3333333333334,157.06564364876385 784,157.06564364876385 L 784,168.7621483375959 C 752.3333333333334,168.7621483375959 752.3333333333334,119.58908780903666 720.6666666666667,119.58908780903666 C 689,119.58908780903666 689,177.47485080988918 657.3333333333334,177.47485080988918 C 625.6666666666667,177.47485080988918 625.6666666666667,197.28729752770673 594,197.28729752770673 C 562.3333333333334,197.28729752770673 562.3333333333334,206 530.6666666666667,206 C 499.00000000000006,206 499.00000000000006,204.56777493606137 467.33333333333337,204.56777493606137 C 435.6666666666667,204.56777493606137 435.6666666666667,205.64194373401534 404,205.64194373401534 C 372.33333333333337,205.64194373401534 372.33333333333337,206 340.6666666666667,206 C 309,206 309,206 277.33333333333337,206 C 245.66666666666669,206 245.66666666666669,205.88064791133846 214,205.88064791133846 C 182.33333333333334,205.88064791133846 182.33333333333334,205.88064791133846 150.66666666666669,205.88064791133846 C 119.00000000000001,205.88064791133846 119.00000000000001,205.76129582267689 87.33333333333334,205.76129582267689 C 55.66666666666667,205.76129582267689 55.66666666666667,206 24,206 Z" fill="#3178c6" fill-opacity="0.75" class="fade-4"/><path key="Go" d="M 24,206 C 55.66666666666667,206 55.66666666666667,205.76129582267689 87.33333333333334,205.76129582267689 C 119.00000000000001,205.76129582267689 119.00000000000001,205.88064791133846 150.66666666666669,205.88064791133846 C 182.33333333333334,205.88064791133846 182.33333333333334,205.88064791133846 214,205.88064791133846 C 245.66666666666669,205.88064791133846 245.66666666666669,206 277.33333333333337,206 C 309,206 309,206 340.6666666666667,206 C 372.33333333333337,206 372.33333333333337,205.64194373401534 404,205.64194373401534 C 435.6666666666667,205.64194373401534 435.6666666666667,204.56777493606137 467.33333333333337,204.56777493606137 C 499.00000000000006,204.56777493606137 499.00000000000006,206 530.6666666666667,206 C 562.3333333333334,206 562.3333333333334,197.28729752770673 594,197.28729752770673 C 625.6666666666667,197.28729752770673 625.6666666666667,177.47485080988918 657.3333333333334,177.47485080988918 C 689,177.47485080988918 689,119.58908780903666 720.6666666666667,119.58908780903666 C 752.3333333333334,119.58908780903666 752.3333333333334,168.7621483375959 784,168.7621483375959 L 784,181.89087809036658 C 752.3333333333334,181.89087809036658 752.3333333333334,150.14322250639387 720.6666666666667,150.14322250639387 C 689,150.14322250639387 689,187.61977834612105 657.3333333333334,187.61977834612105 C 625.6666666666667,187.61977834612105 625.6666666666667,200.39045183290708 594,200.39045183290708 C 562.3333333333334,200.39045183290708 562.3333333333334,206 530.6666666666667,206 C 499.00000000000006,206 499.00000000000006,205.0451832907076 467.33333333333337,205.0451832907076 C 435.6666666666667,205.0451832907076 435.6666666666667,205.76129582267689 404,205.76129582267689 C 372.33333333333337,205.76129582267689 372.33333333333337,206 340.6666666666667,206 C 309,206 309,206 277.33333333333337,206 C 245.66666666666669,206 245.66666666666669,205.88064791133846 214,205.88064791133846 C 182.33333333333334,205.88064791133846 182.33333333333334,205.88064791133846 150.66666666666669,205.88064791133846 C 119.00000000000001,205.88064791133846 119.00000000000001,205.88064791133846 87.33333333333334,205.88064791133846 C 55.66666666666667,205.88064791133846 55.66666666666667,206 24,206 Z" fill="#00ADD8" fill-opacity="0.75" class="fade-5"/><path key="Rust" d="M 24,206 C 55.66666666666667,206 55.66666666666667,205.88064791133846 87.33333333333334,205.88064791133846 C 119.00000000000001,205.88064791133846 119.00000000000001,205.88064791133846 150.66666666666669,205.88064791133846 C 182.33333333333334,205.88064791133846 182.33333333333334,205.88064791133846 214,205.88064791133846 C 245.66666666666669,205.88064791133846 245.66666666666669,206 277.33333333333337,206 C 309,206 309,206 340.6666666666667,206 C 372.33333333333337,206 372.33333333333337,205.76129582267689 404,205.76129582267689 C 435.6666666666667,205.76129582267689 435.6666666666667,205.0451832907076 467.33333333333337,205.0451832907076 C 499.00000000000006,205.0451832907076 499.00000000000006,206 530.6666666666667,206 C 562.3333333333334,206 562.3333333333334,200.39045183290708 594,200.39045183290708 C 625.6666666666667,200.39045183290708 625.6666666666667,187.61977834612105 657.3333333333334,187.61977834612105 C 689,187.61977834612105 689,150.14322250639387 720.6666666666667,150.14322250639387 C 752.3333333333334,150.14322250639387 752.3333333333334,181.89087809036658 784,181.89087809036658 L 784,206 C 752.3333333333334,206 752.3333333333334,206 720.6666666666667,206 C 689,206 689,206 657.3333333333334,206 C 625.6666666666667,206 625.6666666666667,206 594,206 C 562.3333333333334,206 562.3333333333334,206 530.6666666666667,206 C 499.00000000000006,206 499.00000000000006,206 467.33333333333337,206 C 435.6666666666667,206 435.6666666666667,206 404,206 C 372.33333333333337,206 372.33333333333337,206 340.6666666666667,206 C 309,206 309,206 277.33333333333337,206 C 245.66666666666669,206 245.66666666666669,206 214,206 C 182.33333333333334,206 182.33333333333334,206 150.66666666666669,206 C 119.00000000000001,206 119.00000000000001,206 87.33333333333334,206 C 55.66666666666667,206 55.66666666666667,206 24,206 Z" fill="#dea584" fill-opacity="0.75" class="fade-6"/><rect x="24" y="212" width="8" height="8" rx="2" fill="#dea584" opacity="0.85"/><text x="36" y="220" class="t t-value">Rust</text><rect x="80" y="212" width="8" height="8" rx="2" fill="#00ADD8" opacity="0.85"/><text x="92" y="220" class="t t-value">Go</text><rect x="122" y="212" width="8" height="8" rx="2" fill="#3178c6" opacity="0.85"/><text x="134" y="220" class="t t-value">TypeScript</text><rect x="220" y="212" width="8" height="8" rx="2" fill="#3572A5" opacity="0.85"/><text x="232" y="220" class="t t-value">Python</text><rect x="290" y="212" width="8" height="8" rx="2" fill="#b07219" opacity="0.85"/><text x="302" y="220" class="t t-value">Java</text><rect x="346" y="212" width="8" height="8" rx="2" fill="#000080" opacity="0.85"/><text x="358" y="220" class="t t-value">Lua</text><text key="Apr" x="24" y="220" class="t t-value" text-anchor="start" opacity="0">Apr</text><text key="Jun" x="150.66666666666669" y="220" class="t t-value" text-anchor="start" opacity="0">Jun</text><text key="Aug" x="277.33333333333337" y="220" class="t t-value" text-anchor="start" opacity="0">Aug</text><text key="Oct" x="404" y="220" class="t t-value" text-anchor="start" opacity="0">Oct</text><text key="Dec" x="530.6666666666667" y="220" class="t t-value" text-anchor="start" opacity="0">Dec</text><text key="Feb" x="657.3333333333334" y="220" class="t t-value" text-anchor="start" opacity="0">Feb</text><text key="Apr" x="784" y="220" class="t t-value" text-anchor="start" opacity="0">Apr</text><text x="24" y="282" class="t t-h">CONTRIBUTION RHYTHM</text><text x="24" y="298" class="t t-sub">Activity patterns and statistics over the past year</text><circle key="0.25" cx="144" cy="428" r="22.5" fill="none" class="border-stroke" stroke-width="1" stroke-opacity="0.4"/><circle key="0.5" cx="144" cy="428" r="45" fill="none" class="border-stroke" stroke-width="1" stroke-opacity="0.4"/><circle key="0.75" cx="144" cy="428" r="67.5" fill="none" class="border-stroke" stroke-width="1" stroke-opacity="0.4"/><circle key="1" cx="144" cy="428" r="90" fill="none" class="border-stroke" stroke-width="1" stroke-opacity="0.4"/><line key="Sun" x1="144" y1="428" x2="144" y2="338" class="border-stroke" stroke-width="1" stroke-opacity="0.3"/><line key="Mon" x1="144" y1="428" x2="214.36483342212267" y2="371.885917832714" class="border-stroke" stroke-width="1" stroke-opacity="0.3"/><line key="Tue" x1="144" y1="428" x2="231.74351209636413" y2="448.0268840560683" class="border-stroke" stroke-width="1" stroke-opacity="0.3"/><line key="Wed" x1="144" y1="428" x2="183.04953652058023" y2="509.08719811121773" class="border-stroke" stroke-width="1" stroke-opacity="0.3"/><line key="Thu" x1="144" y1="428" x2="104.95046347941977" y2="509.08719811121773" class="border-stroke" stroke-width="1" stroke-opacity="0.3"/><line key="Fri" x1="144" y1="428" x2="56.25648790363587" y2="448.0268840560683" class="border-stroke" stroke-width="1" stroke-opacity="0.3"/><line key="Sat" x1="144" y1="428" x2="73.63516657787731" y2="371.885917832714" class="border-stroke" stroke-width="1" stroke-opacity="0.3"/><polygon points="144,338 168.39314225300254,408.5471181820075 170.20606227944742,433.9813627047457 164.40989108808992,470.3815755461298 128.900845878709,459.35371660300416 106.79675087114161,436.49139883977296 96.90247149612588,390.4409743360299" fill="#58a6ff" fill-opacity="0.2" stroke="#58a6ff" stroke-width="2" stroke-opacity="0.8" class="fade-2" style="transform-origin: 144px 428px"/><circle key="Sun" cx="144" cy="338" r="3" fill="#58a6ff" class="fade-1"/><circle key="Mon" cx="168.39314225300254" cy="408.5471181820075" r="3" fill="#58a6ff" class="fade-2"/><circle key="Tue" cx="170.20606227944742" cy="433.9813627047457" r="3" fill="#58a6ff" class="fade-3"/><circle key="Wed" cx="164.40989108808992" cy="470.3815755461298" r="3" fill="#58a6ff" class="fade-4"/><circle key="Thu" cx="128.900845878709" cy="459.35371660300416" r="3" fill="#58a6ff" class="fade-5"/><circle key="Fri" cx="106.79675087114161" cy="436.49139883977296" r="3" fill="#58a6ff" class="fade-6"/><circle key="Sat" cx="96.90247149612588" cy="390.4409743360299" r="3" fill="#58a6ff" class="fade-6"/><text key="Sun" x="144" y="326" class="t t-value" text-anchor="middle">Sun</text><text key="Mon" x="226.87413714161116" y="365.91008100297427" class="t t-value" text-anchor="middle">Mon</text><text key="Tue" x="247.34235869127332" y="455.5872189993693" class="t t-value" text-anchor="middle">Tue</text><text key="Wed" x="189.99167634646116" y="527.5026999976565" class="t t-value" text-anchor="middle">Wed</text><text key="Thu" x="98.00832365353884" y="527.5026999976565" class="t t-value" text-anchor="middle">Thu</text><text key="Fri" x="40.657641308726696" y="455.5872189993693" class="t t-value" text-anchor="middle">Fri</text><text key="Sat" x="61.12586285838883" y="365.91008100297427" class="t t-value" text-anchor="middle">Sat</text><text x="324" y="338" class="t t-stat-label">COMMITS</text><text x="324" y="360" fill="#58a6ff" class="t t-stat-value">2,431</text><text x="324" y="380" class="t t-stat-label">PRS</text><text x="324" y="402" fill="#3fb950" class="t t-stat-value">143</text><text x="324" y="422" class="t t-stat-label">REVIEWS</text><text x="324" y="444" fill="#d29922" class="t t-stat-value">5</text><text x="324" y="464" class="t t-stat-label">REPOS</text><text x="324" y="486" fill="#bc8cff" class="t t-stat-value">29</text><text x="324" y="506" class="t t-stat-label">STREAK</text><text x="324" y="528" fill="#39d2c0" class="t t-stat-value">27d</text><text x="24" y="614" class="t t-h">OPEN SOURCE IMPACT</text><text x="24" y="630" class="t t-sub">External repositories contributed to</text><text x="24" y="664" class="t t-card-title fade-1">getzep/graphiti</text><rect x="280" y="654" width="340" height="12" rx="3" fill="#58a6ff" fill-opacity="0.7" class="fade-1"/><text x="636" y="664" class="t t-value fade-1">★ 24,653</text><text x="728" y="664" class="t t-value fade-1">Python</text><text x="24" y="710" class="t t-card-title fade-2">googleapis/python-aiplatform</text><rect x="280" y="700" width="227.8719935560798" height="12" rx="3" fill="#3fb950" fill-opacity="0.7" class="fade-2"/><text x="636" y="710" class="t t-value fade-2">★ 877</text><text x="728" y="710" class="t t-value fade-2">Python</text><text x="24" y="756" class="t t-card-title fade-3">MathisWellmann/gym-rs</text><rect x="280" y="746" width="163.1306374209748" height="12" rx="3" fill="#d29922" fill-opacity="0.7" class="fade-3"/><text x="636" y="756" class="t t-value fade-3">★ 127</text><text x="728" y="756" class="t t-value fade-3">Rust</text><text x="24" y="828" class="t t-h">TECH STACK</text><text x="24" y="844" class="t t-sub">Projects arranged by abstraction layer</text><rect x="24" y="854" width="760" height="124" rx="8" fill="#bc8cff" fill-opacity="0.08" class="fade-1"/><text x="40" y="890" class="t t-subhdr fade-1" fill-opacity="0.9">AI &amp; RESEARCH</text><rect x="40" y="902" width="176" height="52" rx="6" class="card-fill fade-1"/><text x="50" y="922" class="t t-card-title fade-1">linear-gp</text><text x="206" y="922" class="t t-value fade-1" text-anchor="end" font-size="9">★ 3</text><circle cx="54" cy="940" r="3" fill="#dea584" fill-opacity="0.8" class="fade-1"/><text x="62" y="943" class="t muted-fill fade-1" font-size="9">Rust</text><rect x="228" y="902" width="176" height="52" rx="6" class="card-fill fade-1"/><text x="238" y="922" class="t t-card-title fade-1">experimental-transf…</text><text x="394" y="922" class="t t-value fade-1" text-anchor="end" font-size="9">★ 0</text><circle cx="242" cy="940" r="3" fill="#3572A5" fill-opacity="0.8" class="fade-1"/><text x="250" y="943" class="t muted-fill fade-1" font-size="9">Python</text><rect x="416" y="902" width="176" height="52" rx="6" class="card-fill fade-1"/><text x="426" y="922" class="t t-card-title fade-1">generative-artifact…</text><text x="582" y="922" class="t t-value fade-1" text-anchor="end" font-size="9">★ 0</text><circle cx="430" cy="940" r="3" fill="#3572A5" fill-opacity="0.8" class="fade-1"/><text x="438" y="943" class="t muted-fill fade-1" font-size="9">Python</text><rect x="24" y="986" width="760" height="124" rx="8" fill="#d29922" fill-opacity="0.08" class="fade-2"/><text x="40" y="1022" class="t t-subhdr fade-2" fill-opacity="0.9">APPLICATIONS</text><rect x="40" y="1034" width="176" height="52" rx="6" class="card-fill fade-2"/><text x="50" y="1054" class="t t-card-title fade-2">urmzd.com</text><text x="206" y="1054" class="t t-value fade-2" text-anchor="end" font-size="9">★ 1</text><circle cx="54" cy="1072" r="3" fill="#3178c6" fill-opacity="0.8" class="fade-2"/><text x="62" y="1075" class="t muted-fill fade-2" font-size="9">TypeScript</text><rect x="228" y="1034" width="176" height="52" rx="6" class="card-fill fade-2"/><text x="238" y="1054" class="t t-card-title fade-2">languide</text><text x="394" y="1054" class="t t-value fade-2" text-anchor="end" font-size="9">★ 0</text><circle cx="242" cy="1072" r="3" fill="#3D6117" fill-opacity="0.8" class="fade-2"/><text x="250" y="1075" class="t muted-fill fade-2" font-size="9">Other</text><rect x="416" y="1034" width="176" height="52" rx="6" class="card-fill fade-2"/><text x="426" y="1054" class="t t-card-title fade-2">urmzd</text><text x="582" y="1054" class="t t-value fade-2" text-anchor="end" font-size="9">★ 0</text><circle cx="430" cy="1072" r="3" fill="#8b949e" fill-opacity="0.8" class="fade-2"/><text x="438" y="1075" class="t muted-fill fade-2" font-size="9">Other</text><rect x="24" y="1118" width="760" height="124" rx="8" fill="#58a6ff" fill-opacity="0.08" class="fade-3"/><text x="40" y="1154" class="t t-subhdr fade-3" fill-opacity="0.9">LIBRARIES &amp; SDKS</text><rect x="40" y="1166" width="176" height="52" rx="6" class="card-fill fade-3"/><text x="50" y="1186" class="t t-card-title fade-3">zigbee-skill</text><text x="206" y="1186" class="t t-value fade-3" text-anchor="end" font-size="9">★ 0</text><circle cx="54" cy="1204" r="3" fill="#00ADD8" fill-opacity="0.8" class="fade-3"/><text x="62" y="1207" class="t muted-fill fade-3" font-size="9">Go</text><rect x="228" y="1166" width="176" height="52" rx="6" class="card-fill fade-3"/><text x="238" y="1186" class="t t-card-title fade-3">saige</text><text x="394" y="1186" class="t t-value fade-3" text-anchor="end" font-size="9">★ 0</text><circle cx="242" cy="1204" r="3" fill="#00ADD8" fill-opacity="0.8" class="fade-3"/><text x="250" y="1207" class="t muted-fill fade-3" font-size="9">Go</text><rect x="416" y="1166" width="176" height="52" rx="6" class="card-fill fade-3"/><text x="426" y="1186" class="t t-card-title fade-3">streamsafe</text><text x="582" y="1186" class="t t-value fade-3" text-anchor="end" font-size="9">★ 0</text><circle cx="430" cy="1204" r="3" fill="#dea584" fill-opacity="0.8" class="fade-3"/><text x="438" y="1207" class="t muted-fill fade-3" font-size="9">Rust</text><rect x="24" y="1250" width="760" height="124" rx="8" fill="#3fb950" fill-opacity="0.08" class="fade-4"/><text x="40" y="1286" class="t t-subhdr fade-4" fill-opacity="0.9">INFRASTRUCTURE &amp; DEVOPS</text><rect x="40" y="1298" width="176" height="52" rx="6" class="card-fill fade-4"/><text x="50" y="1318" class="t t-card-title fade-4">incipit</text><text x="206" y="1318" class="t t-value fade-4" text-anchor="end" font-size="9">★ 11</text><circle cx="54" cy="1336" r="3" fill="#00ADD8" fill-opacity="0.8" class="fade-4"/><text x="62" y="1339" class="t muted-fill fade-4" font-size="9">Go</text><rect x="228" y="1298" width="176" height="52" rx="6" class="card-fill fade-4"/><text x="238" y="1318" class="t t-card-title fade-4">dotfiles</text><text x="394" y="1318" class="t t-value fade-4" text-anchor="end" font-size="9">★ 2</text><circle cx="242" cy="1336" r="3" fill="#000080" fill-opacity="0.8" class="fade-4"/><text x="250" y="1339" class="t muted-fill fade-4" font-size="9">Lua</text><rect x="416" y="1298" width="176" height="52" rx="6" class="card-fill fade-4"/><text x="426" y="1318" class="t t-card-title fade-4">teasr</text><text x="582" y="1318" class="t t-value fade-4" text-anchor="end" font-size="9">★ 0</text><circle cx="430" cy="1336" r="3" fill="#dea584" fill-opacity="0.8" class="fade-4"/><text x="438" y="1339" class="t muted-fill fade-4" font-size="9">Rust</text></svg>