<svg xmlns="http://www.w3.org/2000/svg" width="808" height="1328" viewBox="0 0 808 1328"><defs><style>
  .t { font-family: -apple-system,BlinkMacSystemFont,Segoe UI,Helvetica,Arial,sans-serif; font-variant-numeric: tabular-lining; }
  .t-h { font-size: 14px; fill: #c9d1d9; letter-spacing: 2px; font-weight: 600; }
  .t-sub { font-size: 11px; fill: #6e7681; }
  .t-label { font-size: 12px; fill: #8b949e; }
  .t-value { font-size: 11px; fill: #6e7681; }
  .t-subhdr { font-size: 11px; fill: #8b949e; letter-spacing: 1px; font-weight: 600; }
  .t-stat-label { font-size: 10px; fill: #8b949e; font-weight: 600; }
  .t-stat-value { font-size: 22px; font-weight: 700; }
  .t-card-title { font-size: 12px; fill: #58a6ff; font-weight: 700; }
  .t-card-detail { font-size: 11px; fill: #8b949e; }
  .t-pill { font-size: 11px; font-weight: 600; }
  .t-bullet { font-size: 12px; fill: #c9d1d9; }
  .bg-fill { fill: #0d1117; }
  .card-fill { fill: #161b22; }
  .border-stroke { stroke: #30363d; }

  @media (prefers-color-scheme: light) {
    .bg-fill { fill: #ffffff; }
    .card-fill { fill: #f6f8fa; }
    .border-stroke { stroke: #d0d7de; }
    .t-h { fill: #1f2328; }
    .t-sub { fill: #656d76; }
    .t-label { fill: #656d76; }
    .t-value { fill: #656d76; }
    .t-subhdr { fill: #656d76; }
    .t-stat-label { fill: #656d76; }
    .t-card-title { fill: #0969da; }
    .t-card-detail { fill: #656d76; }
    .t-bullet { fill: #1f2328; }
  }

  @keyframes fadeIn {
    from { opacity: 0; transform: translateY(8px); }
    to { opacity: 1; transform: translateY(0); }
  }
  @keyframes scaleIn {
    from { transform: scale(0); opacity: 0; }
    to { transform: scale(1); opacity: 1; }
  }
  @keyframes drawPath {
    from { stroke-dashoffset: var(--path-length); }
    to { stroke-dashoffset: 0; }
  }
  @keyframes radarReveal {
    from { transform: scale(0); opacity: 0; }
    to { transform: scale(1); opacity: 0.6; }
  }
  .fade-1 { animation: fadeIn 0.6s ease-out 0.1s both; }
  .fade-2 { animation: fadeIn 0.6s ease-out 0.25s both; }
  .fade-3 { animation: fadeIn 0.6s ease-out 0.4s both; }
  .fade-4 { animation: fadeIn 0.6s ease-out 0.55s both; }
  .fade-5 { animation: fadeIn 0.6s ease-out 0.7s both; }
  .fade-6 { animation: fadeIn 0.6s ease-out 0.85s both; }
</style></defs><rect width="808" height="1328" rx="12" class="bg-fill" fill="#0d1117"/><text x="24" y="40" class="t t-h">LANGUAGE VELOCITY</text><text x="24" y="56" class="t t-sub">How language usage has evolved over the past year</text><path key="Jupyter Notebook" d="M 24,206 C 55.66666666666667,206 55.66666666666667,206 87.33333333333334,206 C 119.00000000000001,206 119.00000000000001,205.56701030927834 150.66666666666669,205.56701030927834 C 182.33333333333334,205.56701030927834 182.33333333333334,205.1340206185567 214,205.1340206185567 C 245.66666666666669,205.1340206185567 245.66666666666669,205.71134020618555 277.33333333333337,205.71134020618555 C 309,205.71134020618555 309,206 340.6666666666667,206 C 372.33333333333337,206 372.33333333333337,200.22680412371133 404,200.22680412371133 C 435.6666666666667,200.22680412371133 435.6666666666667,204.98969072164948 467.33333333333337,204.98969072164948 C 499.00000000000006,204.98969072164948 499.00000000000006,201.38144329896906 530.6666666666667,201.38144329896906 C 562.3333333333334,201.38144329896906 562.3333333333334,205.1340206185567 594,205.1340206185567 C 625.6666666666667,205.1340206185567 625.6666666666667,181.03092783505156 657.3333333333334,181.03092783505156 C 689,181.03092783505156 689,132.68041237113403 720.6666666666667,132.68041237113403 C 752.3333333333334,132.68041237113403 752.3333333333334,66 784,66 L 784,66.86597938144331 C 752.3333333333334,66.86597938144331 752.3333333333334,133.11340206185565 720.6666666666667,133.11340206185565 C 689,133.11340206185565 689,181.17525773195877 657.3333333333334,181.17525773195877 C 625.6666666666667,181.17525773195877 625.6666666666667,205.1340206185567 594,205.1340206185567 C 562.3333333333334,205.1340206185567 562.3333333333334,201.38144329896906 530.6666666666667,201.38144329896906 C 499.00000000000006,201.38144329896906 499.00000000000006,204.98969072164948 467.33333333333337,204.98969072164948 C 435.6666666666667,204.98969072164948 435.6666666666667,200.22680412371133 404,200.22680412371133 C 372.33333333333337,200.22680412371133 372.33333333333337,206 340.6666666666667,206 C 309,206 309,205.71134020618555 277.33333333333337,205.71134020618555 C 245.66666666666669,205.71134020618555 245.66666666666669,205.1340206185567 214,205.1340206185567 C 182.33333333333334,205.1340206185567 182.33333333333334,205.56701030927834 150.66666666666669,205.56701030927834 C 119.00000000000001,205.56701030927834 119.00000000000001,206 87.33333333333334,206 C 55.66666666666667,206 55.66666666666667,206 24,206 Z" fill="#DA5B0B" fill-opacity="0.75" class="fade-1"/><path key="TeX" d="M 24,206 C 55.66666666666667,206 55.66666666666667,206 87.33333333333334,206 C 119.00000000000001,206 119.00000000000001,205.56701030927834 150.66666666666669,205.56701030927834 C 182.33333333333334,205.56701030927834 182.33333333333334,205.1340206185567 214,205.1340206185567 C 245.66666666666669,205.1340206185567 245.66666666666669,205.71134020618555 277.33333333333337,205.71134020618555 C 309,205.71134020618555 309,206 340.6666666666667,206 C 372.33333333333337,206 372.33333333333337,200.22680412371133 404,200.22680412371133 C 435.6666666666667,200.22680412371133 435.6666666666667,204.98969072164948 467.33333333333337,204.98969072164948 C 499.00000000000006,204.98969072164948 499.00000000000006,201.38144329896906 530.6666666666667,201.38144329896906 C 562.3333333333334,201.38144329896906 562.3333333333334,205.1340206185567 594,205.1340206185567 C 625.6666666666667,205.1340206185567 625.6666666666667,181.17525773195877 657.3333333333334,181.17525773195877 C 689,181.17525773195877 689,133.11340206185565 720.6666666666667,133.11340206185565 C 752.3333333333334,133.11340206185565 752.3333333333334,66.86597938144331 784,66.86597938144331 L 784,67.8762886597938 C 752.3333333333334,67.8762886597938 752.3333333333334,133.69072164948454 720.6666666666667,133.69072164948454 C 689,133.69072164948454 689,181.31958762886597 657.3333333333334,181.31958762886597 C 625.6666666666667,181.31958762886597 625.6666666666667,205.1340206185567 594,205.1340206185567 C 562.3333333333334,205.1340206185567 562.3333333333334,201.38144329896906 530.6666666666667,201.38144329896906 C 499.00000000000006,201.38144329896906 499.00000000000006,204.98969072164948 467.33333333333337,204.98969072164948 C 435.6666666666667,204.98969072164948 435.6666666666667,200.22680412371133 404,200.22680412371133 C 372.33333333333337,200.22680412371133 372.33333333333337,206 340.6666666666667,206 C 309,206 309,205.71134020618555 277.33333333333337,205.71134020618555 C 245.66666666666669,205.71134020618555 245.66666666666669,205.1340206185567 214,205.1340206185567 C 182.33333333333334,205.1340206185567 182.33333333333334,205.56701030927834 150.66666666666669,205.56701030927834 C 119.00000000000001,205.56701030927834 119.00000000000001,206 87.33333333333334,206 C 55.66666666666667,206 55.66666666666667,206 24,206 Z" fill="#3D6117" fill-opacity="0.75" class="fade-2"/><path key="Java" d="M 24,206 C 55.66666666666667,206 55.66666666666667,206 87.33333333333334,206 C 119.00000000000001,206 119.00000000000001,205.56701030927834 150.66666666666669,205.56701030927834 C 182.33333333333334,205.56701030927834 182.33333333333334,205.1340206185567 214,205.1340206185567 C 245.66666666666669,205.1340206185567 245.66666666666669,205.71134020618555 277.33333333333337,205.71134020618555 C 309,205.71134020618555 309,206 340.6666666666667,206 C 372.33333333333337,206 372.33333333333337,200.22680412371133 404,200.22680412371133 C 435.6666666666667,200.22680412371133 435.6666666666667,204.98969072164948 467.33333333333337,204.98969072164948 C 499.00000000000006,204.98969072164948 499.00000000000006,201.38144329896906 530.6666666666667,201.38144329896906 C 562.3333333333334,201.38144329896906 562.3333333333334,205.1340206185567 594,205.1340206185567 C 625.6666666666667,205.1340206185567 625.6666666666667,181.31958762886597 657.3333333333334,181.31958762886597 C 689,181.31958762886597 689,133.69072164948454 720.6666666666667,133.69072164948454 C 752.3333333333334,133.69072164948454 752.3333333333334,67.8762886597938 784,67.8762886597938 L 784,72.06185567010309 C 752.3333333333334,72.06185567010309 752.3333333333334,135.8556701030928 720.6666666666667,135.8556701030928 C 689,135.8556701030928 689,182.04123711340208 657.3333333333334,182.04123711340208 C 625.6666666666667,182.04123711340208 625.6666666666667,205.1340206185567 594,205.1340206185567 C 562.3333333333334,205.1340206185567 562.3333333333334,201.5257731958763 530.6666666666667,201.5257731958763 C 499.00000000000006,201.5257731958763 499.00000000000006,204.98969072164948 467.33333333333337,204.98969072164948 C 435.6666666666667,204.98969072164948 435.6666666666667,200.37113402061857 404,200.37113402061857 C 372.33333333333337,200.37113402061857 372.33333333333337,206 340.6666666666667,206 C 309,206 309,205.71134020618555 277.33333333333337,205.71134020618555 C 245.66666666666669,205.71134020618555 245.66666666666669,205.1340206185567 214,205.1340206185567 C 182.33333333333334,205.1340206185567 182.33333333333334,205.56701030927834 150.66666666666669,205.56701030927834 C 119.00000000000001,205.56701030927834 119.00000000000001,206 87.33333333333334,206 C 55.66666666666667,206 55.66666666666667,206 24,206 Z" fill="#b07219" fill-opacity="0.75" class="fade-3"/><path key="Python" d="M 24,206 C 55.66666666666667,206 55.66666666666667,206 87.33333333333334,206 C 119.00000000000001,206 119.00000000000001,205.56701030927834 150.66666666666669,205.56701030927834 C 182.33333333333334,205.56701030927834 182.33333333333334,205.1340206185567 214,205.1340206185567 C 245.66666666666669,205.1340206185567 245.66666666666669,205.71134020618555 277.33333333333337,205.71134020618555 C 309,205.71134020618555 309,206 340.6666666666667,206 C 372.33333333333337,206 372.33333333333337,200.37113402061857 404,200.37113402061857 C 435.6666666666667,200.37113402061857 435.6666666666667,204.98969072164948 467.33333333333337,204.98969072164948 C 499.00000000000006,204.98969072164948 499.00000000000006,201.5257731958763 530.6666666666667,201.5257731958763 C 562.3333333333334,201.5257731958763 562.3333333333334,205.1340206185567 594,205.1340206185567 C 625.6666666666667,205.1340206185567 625.6666666666667,182.04123711340208 657.3333333333334,182.04123711340208 C 689,182.04123711340208 689,135.8556701030928 720.6666666666667,135.8556701030928 C 752.3333333333334,135.8556701030928 752.3333333333334,72.06185567010309 784,72.06185567010309 L 784,84.4742268041237 C 752.3333333333334,84.4742268041237 752.3333333333334,142.35051546391753 720.6666666666667,142.35051546391753 C 689,142.35051546391753 689,184.20618556701032 657.3333333333334,184.20618556701032 C 625.6666666666667,184.20618556701032 625.6666666666667,205.1340206185567 594,205.1340206185567 C 562.3333333333334,205.1340206185567 562.3333333333334,201.95876288659792 530.6666666666667,201.95876288659792 C 499.00000000000006,201.95876288659792 499.00000000000006,205.1340206185567 467.33333333333337,205.1340206185567 C 435.6666666666667,205.1340206185567 435.6666666666667,200.94845360824743 404,200.94845360824743 C 372.33333333333337,200.94845360824743 372.33333333333337,206 340.6666666666667,206 C 309,206 309,205.71134020618555 277.33333333333337,205.71134020618555 C 245.66666666666669,205.71134020618555 245.66666666666669,205.1340206185567 214,205.1340206185567 C 182.33333333333334,205.1340206185567 182.33333333333334,205.56701030927834 150.66666666666669,205.56701030927834 C 119.00000000000001,205.56701030927834 119.00000000000001,206 87.33333333333334,206 C 55.66666666666667,206 55.66666666666667,206 24,206 Z" fill="#3572A5" fill-opacity="0.75" class="fade-4"/><path key="Shell" d="M 24,206 C 55.66666666666667,206 55.66666666666667,206 87.33333333333334,206 C 119.00000000000001,206 119.00000000000001,205.56701030927834 150.66666666666669,205.56701030927834 C 182.33333333333334,205.56701030927834 182.33333333333334,205.1340206185567 214,205.1340206185567 C 245.66666666666669,205.1340206185567 245.66666666666669,205.71134020618555 277.33333333333337,205.71134020618555 C 309,205.71134020618555 309,206 340.6666666666667,206 C 372.33333333333337,206 372.33333333333337,200.94845360824743 404,200.94845360824743 C 435.6666666666667,200.94845360824743 435.6666666666667,205.1340206185567 467.33333333333337,205.1340206185567 C 499.00000000000006,205.1340206185567 499.00000000000006,201.95876288659792 530.6666666666667,201.95876288659792 C 562.3333333333334,201.95876288659792 562.3333333333334,205.1340206185567 594,205.1340206185567 C 625.6666666666667,205.1340206185567 625.6666666666667,184.20618556701032 657.3333333333334,184.20618556701032 C 689,184.20618556701032 689,142.35051546391753 720.6666666666667,142.35051546391753 C 752.3333333333334,142.35051546391753 752.3333333333334,84.4742268041237 784,84.4742268041237 L 784,101.50515463917526 C 752.3333333333334,101.50515463917526 752.3333333333334,151.29896907216494 720.6666666666667,151.29896907216494 C 689,151.29896907216494 689,187.23711340206185 657.3333333333334,187.23711340206185 C 625.6666666666667,187.23711340206185 625.6666666666667,205.27835051546393 594,205.27835051546393 C 562.3333333333334,205.27835051546393 562.3333333333334,202.53608247422682 530.6666666666667,202.53608247422682 C 499.00000000000006,202.53608247422682 499.00000000000006,205.27835051546393 467.33333333333337,205.27835051546393 C 435.6666666666667,205.27835051546393 435.6666666666667,201.6701030927835 404,201.6701030927835 C 372.33333333333337,201.6701030927835 372.33333333333337,206 340.6666666666667,206 C 309,206 309,205.71134020618555 277.33333333333337,205.71134020618555 C 245.66666666666669,205.71134020618555 245.66666666666669,205.27835051546393 214,205.27835051546393 C 182.33333333333334,205.27835051546393 182.33333333333334,205.56701030927834 150.66666666666669,205.56701030927834 C 119.00000000000001,205.56701030927834 119.00000000000001,206 87.33333333333334,206 C 55.66666666666667,206 55.66666666666667,206 24,206 Z" fill="#89e051" fill-opacity="0.75" class="fade-5"/><path key="Go" d="M 24,206 C 55.66666666666667,206 55.66666666666667,206 87.33333333333334,206 C 119.00000000000001,206 119.00000000000001,205.56701030927834 150.66666666666669,205.56701030927834 C 182.33333333333334,205.56701030927834 182.33333333333334,205.27835051546393 214,205.27835051546393 C 245.66666666666669,205.27835051546393 245.66666666666669,205.71134020618555 277.33333333333337,205.71134020618555 C 309,205.71134020618555 309,206 340.6666666666667,206 C 372.33333333333337,206 372.33333333333337,201.6701030927835 404,201.6701030927835 C 435.6666666666667,201.6701030927835 435.6666666666667,205.27835051546393 467.33333333333337,205.27835051546393 C 499.00000000000006,205.27835051546393 499.00000000000006,202.53608247422682 530.6666666666667,202.53608247422682 C 562.3333333333334,202.53608247422682 562.3333333333334,205.27835051546393 594,205.27835051546393 C 625.6666666666667,205.27835051546393 625.6666666666667,187.23711340206185 657.3333333333334,187.23711340206185 C 689,187.23711340206185 689,151.29896907216494 720.6666666666667,151.29896907216494 C 752.3333333333334,151.29896907216494 752.3333333333334,101.50515463917526 784,101.50515463917526 L 784,122.43298969072166 C 752.3333333333334,122.43298969072166 752.3333333333334,162.2680412371134 720.6666666666667,162.2680412371134 C 689,162.2680412371134 689,190.98969072164948 657.3333333333334,190.98969072164948 C 625.6666666666667,190.98969072164948 625.6666666666667,205.42268041237114 594,205.42268041237114 C 562.3333333333334,205.42268041237114 562.3333333333334,203.2577319587629 530.6666666666667,203.2577319587629 C 499.00000000000006,203.2577319587629 499.00000000000006,205.42268041237114 467.33333333333337,205.42268041237114 C 435.6666666666667,205.42268041237114 435.6666666666667,202.53608247422682 404,202.53608247422682 C 372.33333333333337,202.53608247422682 372.33333333333337,206 340.6666666666667,206 C 309,206 309,205.71134020618555 277.33333333333337,205.71134020618555 C 245.66666666666669,205.71134020618555 245.66666666666669,205.42268041237114 214,205.42268041237114 C 182.33333333333334,205.42268041237114 182.33333333333334,205.71134020618555 150.66666666666669,205.71134020618555 C 119.00000000000001,205.71134020618555 119.00000000000001,206 87.33333333333334,206 C 55.66666666666667,206 55.66666666666667,206 24,206 Z" fill="#00ADD8" fill-opacity="0.75" class="fade-6"/><path key="TypeScript" d="M 24,206 C 55.66666666666667,206 55.66666666666667,206 87.33333333333334,206 C 119.00000000000001,206 119.00000000000001,205.71134020618555 150.66666666666669,205.71134020618555 C 182.33333333333334,205.71134020618555 182.33333333333334,205.42268041237114 214,205.42268041237114 C 245.66666666666669,205.42268041237114 245.66666666666669,205.71134020618555 277.33333333333337,205.71134020618555 C 309,205.71134020618555 309,206 340.6666666666667,206 C 372.33333333333337,206 372.33333333333337,202.53608247422682 404,202.53608247422682 C 435.6666666666667,202.53608247422682 435.6666666666667,205.42268041237114 467.33333333333337,205.42268041237114 C 499.00000000000006,205.42268041237114 499.00000000000006,203.2577319587629 530.6666666666667,203.2577319587629 C 562.3333333333334,203.2577319587629 562.3333333333334,205.42268041237114 594,205.42268041237114 C 625.6666666666667,205.42268041237114 625.6666666666667,190.98969072164948 657.3333333333334,190.98969072164948 C 689,190.98969072164948 689,162.2680412371134 720.6666666666667,162.2680412371134 C 752.3333333333334,162.2680412371134 752.3333333333334,122.43298969072166 784,122.43298969072166 L 784,161.2577319587629 C 752.3333333333334,161.2577319587629 752.3333333333334,182.61855670103094 720.6666666666667,182.61855670103094 C 689,182.61855670103094 689,197.91752577319588 657.3333333333334,197.91752577319588 C 625.6666666666667,197.91752577319588 625.6666666666667,205.71134020618555 594,205.71134020618555 C 562.3333333333334,205.71134020618555 562.3333333333334,204.55670103092783 530.6666666666667,204.55670103092783 C 499.00000000000006,204.55670103092783 499.00000000000006,205.71134020618555 467.33333333333337,205.71134020618555 C 435.6666666666667,205.71134020618555 435.6666666666667,204.1237113402062 404,204.1237113402062 C 372.33333333333337,204.1237113402062 372.33333333333337,206 340.6666666666667,206 C 309,206 309,205.8556701030928 277.33333333333337,205.8556701030928 C 245.66666666666669,205.8556701030928 245.66666666666669,205.71134020618555 214,205.71134020618555 C 182.33333333333334,205.71134020618555 182.33333333333334,205.8556701030928 150.66666666666669,205.8556701030928 C 119.00000000000001,205.8556701030928 119.00000000000001,206 87.33333333333334,206 C 55.66666666666667,206 55.66666666666667,206 24,206 Z" fill="#3178c6" fill-opacity="0.75" class="fade-6"/><path key="Rust" d="M 24,206 C 55.66666666666667,206 55.66666666666667,206 87.33333333333334,206 C 119.00000000000001,206 119.00000000000001,205.8556701030928 150.66666666666669,205.8556701030928 C 182.33333333333334,205.8556701030928 182.33333333333334,205.71134020618555 214,205.71134020618555 C 245.66666666666669,205.71134020618555 245.66666666666669,205.8556701030928 277.33333333333337,205.8556701030928 C 309,205.8556701030928 309,206 340.6666666666667,206 C 372.33333333333337,206 372.33333333333337,204.1237113402062 404,204.1237113402062 C 435.6666666666667,204.1237113402062 435.6666666666667,205.71134020618555 467.33333333333337,205.71134020618555 C 499.00000000000006,205.71134020618555 499.00000000000006,204.55670103092783 530.6666666666667,204.55670103092783 C 562.3333333333334,204.55670103092783 562.3333333333334,205.71134020618555 594,205.71134020618555 C 625.6666666666667,205.71134020618555 625.6666666666667,197.91752577319588 657.3333333333334,197.91752577319588 C 689,197.91752577319588 689,182.61855670103094 720.6666666666667,182.61855670103094 C 752.3333333333334,182.61855670103094 752.3333333333334,161.2577319587629 784,161.2577319587629 L 784,206 C 752.3333333333334,206 752.3333333333334,206 720.6666666666667,206 C 689,206 689,206 657.3333333333334,206 C 625.6666666666667,206 625.6666666666667,206 594,206 C 562.3333333333334,206 562.3333333333334,206 530.6666666666667,206 C 499.00000000000006,206 499.00000000000006,206 467.33333333333337,206 C 435.6666666666667,206 435.6666666666667,206 404,206 C 372.33333333333337,206 372.33333333333337,206 340.6666666666667,206 C 309,206 309,206 277.33333333333337,206 C 245.66666666666669,206 245.66666666666669,206 214,206 C 182.33333333333334,206 182.33333333333334,206 150.66666666666669,206 C 119.00000000000001,206 119.00000000000001,206 87.33333333333334,206 C 55.66666666666667,206 55.66666666666667,206 24,206 Z" fill="#dea584" fill-opacity="0.75" class="fade-6"/><rect x="24" y="212" width="8" height="8" rx="2" fill="#dea584" opacity="0.85"/><text x="36" y="220" class="t t-value">Rust</text><rect x="80" y="212" width="8" height="8" rx="2" fill="#3178c6" opacity="0.85"/><text x="92" y="220" class="t t-value">TypeScript</text><rect x="178" y="212" width="8" height="8" rx="2" fill="#00ADD8" opacity="0.85"/><text x="190" y="220" class="t t-value">Go</text><rect x="220" y="212" width="8" height="8" rx="2" fill="#89e051" opacity="0.85"/><text x="232" y="220" class="t t-value">Shell</text><rect x="283" y="212" width="8" height="8" rx="2" fill="#3572A5" opacity="0.85"/><text x="295" y="220" class="t t-value">Python</text><rect x="353" y="212" width="8" height="8" rx="2" fill="#b07219" opacity="0.85"/><text x="365" y="220" class="t t-value">Java</text><rect x="409" y="212" width="8" height="8" rx="2" fill="#3D6117" opacity="0.85"/><text x="421" y="220" class="t t-value">TeX</text><rect x="458" y="212" width="8" height="8" rx="2" fill="#DA5B0B" opacity="0.85"/><text x="470" y="220" class="t t-value">Jupyter Notebook</text><text key="Mar" x="24" y="220" class="t t-value" text-anchor="start" opacity="0">Mar</text><text key="May" x="150.66666666666669" y="220" class="t t-value" text-anchor="start" opacity="0">May</text><text key="Jul" x="277.33333333333337" y="220" class="t t-value" text-anchor="start" opacity="0">Jul</text><text key="Sep" x="404" y="220" class="t t-value" text-anchor="start" opacity="0">Sep</text><text key="Nov" x="530.6666666666667" y="220" class="t t-value" text-anchor="start" opacity="0">Nov</text><text key="Jan" x="657.3333333333334" y="220" class="t t-value" text-anchor="start" opacity="0">Jan</text><text key="Mar" x="784" y="220" class="t t-value" text-anchor="start" opacity="0">Mar</text><text x="24" y="282" class="t t-h">CONTRIBUTION RHYTHM</text><text x="24" y="298" class="t t-sub">Activity patterns and statistics over the past year</text><circle key="0.25" cx="144" cy="428" r="22.5" fill="none" stroke="#30363d" stroke-width="1" stroke-opacity="0.4"/><circle key="0.5" cx="144" cy="428" r="45" fill="none" stroke="#30363d" stroke-width="1" stroke-opacity="0.4"/><circle key="0.75" cx="144" cy="428" r="67.5" fill="none" stroke="#30363d" stroke-width="1" stroke-opacity="0.4"/><circle key="1" cx="144" cy="428" r="90" fill="none" stroke="#30363d" stroke-width="1" stroke-opacity="0.4"/><line key="Sun" x1="144" y1="428" x2="144" y2="338" stroke="#30363d" stroke-width="1" stroke-opacity="0.3"/><line key="Mon" x1="144" y1="428" x2="214.36483342212267" y2="371.885917832714" stroke="#30363d" stroke-width="1" stroke-opacity="0.3"/><line key="Tue" x1="144" y1="428" x2="231.74351209636413" y2="448.0268840560683" stroke="#30363d" stroke-width="1" stroke-opacity="0.3"/><line key="Wed" x1="144" y1="428" x2="183.04953652058023" y2="509.08719811121773" stroke="#30363d" stroke-width="1" stroke-opacity="0.3"/><line key="Thu" x1="144" y1="428" x2="104.95046347941977" y2="509.08719811121773" stroke="#30363d" stroke-width="1" stroke-opacity="0.3"/><line key="Fri" x1="144" y1="428" x2="56.25648790363587" y2="448.0268840560683" stroke="#30363d" stroke-width="1" stroke-opacity="0.3"/><line key="Sat" x1="144" y1="428" x2="73.63516657787731" y2="371.885917832714" stroke="#30363d" stroke-width="1" stroke-opacity="0.3"/><polygon points="144,351.6538461538462 177.52854242122513,401.26187965105817 183.93454717206316,437.11479979474905 171.36805123664598,484.83034397538336 130.14909602047794,456.76169847534646 119.06434378458027,433.69140081080576 73.63516657787731,371.885917832714" fill="#58a6ff" fill-opacity="0.2" stroke="#58a6ff" stroke-width="2" stroke-opacity="0.8" class="fade-2" style="transform-origin: 144px 428px"/><circle key="Sun" cx="144" cy="351.6538461538462" r="3" fill="#58a6ff" class="fade-1"/><circle key="Mon" cx="177.52854242122513" cy="401.26187965105817" r="3" fill="#58a6ff" class="fade-2"/><circle key="Tue" cx="183.93454717206316" cy="437.11479979474905" r="3" fill="#58a6ff" class="fade-3"/><circle key="Wed" cx="171.36805123664598" cy="484.83034397538336" r="3" fill="#58a6ff" class="fade-4"/><circle key="Thu" cx="130.14909602047794" cy="456.76169847534646" r="3" fill="#58a6ff" class="fade-5"/><circle key="Fri" cx="119.06434378458027" cy="433.69140081080576" r="3" fill="#58a6ff" class="fade-6"/><circle key="Sat" cx="73.63516657787731" cy="371.885917832714" r="3" fill="#58a6ff" class="fade-6"/><text key="Sun" x="144" y="326" class="t t-value" text-anchor="middle">Sun</text><text key="Mon" x="226.87413714161116" y="365.91008100297427" class="t t-value" text-anchor="middle">Mon</text><text key="Tue" x="247.34235869127332" y="455.5872189993693" class="t t-value" text-anchor="middle">Tue</text><text key="Wed" x="189.99167634646116" y="527.5026999976565" class="t t-value" text-anchor="middle">Wed</text><text key="Thu" x="98.00832365353884" y="527.5026999976565" class="t t-value" text-anchor="middle">Thu</text><text key="Fri" x="40.657641308726696" y="455.5872189993693" class="t t-value" text-anchor="middle">Fri</text><text key="Sat" x="61.12586285838883" y="365.91008100297427" class="t t-value" text-anchor="middle">Sat</text><text x="324" y="338" class="t t-stat-label">COMMITS</text><text x="324" y="360" fill="#58a6ff" class="t t-stat-value">1,783</text><text x="324" y="380" class="t t-stat-label">PRS</text><text x="324" y="402" fill="#3fb950" class="t t-stat-value">34</text><text x="324" y="422" class="t t-stat-label">REVIEWS</text><text x="324" y="444" fill="#d29922" class="t t-stat-value">5</text><text x="324" y="464" class="t t-stat-label">REPOS</text><text x="324" y="486" fill="#bc8cff" class="t t-stat-value">26</text><text x="324" y="506" class="t t-stat-label">STREAK</text><text x="324" y="528" fill="#39d2c0" class="t t-stat-value">20d</text><text x="24" y="614" class="t t-h">PROJECT CONSTELLATION</text><text x="24" y="630" class="t t-sub">Projects mapped by language ecosystem and complexity</text><line key="0-2" x1="103.2" y1="670" x2="487.2" y2="733.82096258497" stroke="#30363d" stroke-width="1" stroke-opacity="0.15" stroke-dasharray="4 4"/><line key="0-3" x1="103.2" y1="670" x2="116" y2="739.2473144623552" stroke="#30363d" stroke-width="1" stroke-opacity="0.15" stroke-dasharray="4 4"/><line key="0-6" x1="103.2" y1="670" x2="128.8" y2="809.7535454503292" stroke="#30363d" stroke-width="1" stroke-opacity="0.15" stroke-dasharray="4 4"/><line key="0-7" x1="103.2" y1="670" x2="564" y2="815.7739657175595" stroke="#30363d" stroke-width="1" stroke-opacity="0.15" stroke-dasharray="4 4"/><line key="0-8" x1="103.2" y1="670" x2="692" y2="820.3574365739369" stroke="#30363d" stroke-width="1" stroke-opacity="0.15" stroke-dasharray="4 4"/><line key="0-9" x1="103.2" y1="670" x2="491.46666666666664" y2="828.6968531892074" stroke="#30363d" stroke-width="1" stroke-opacity="0.15" stroke-dasharray="4 4"/><line key="0-11" x1="103.2" y1="670" x2="495.73333333333335" y2="844.2294709278746" stroke="#30363d" stroke-width="1" stroke-opacity="0.15" stroke-dasharray="4 4"/><line key="0-12" x1="103.2" y1="670" x2="500" y2="865.3785445767255" stroke="#30363d" stroke-width="1" stroke-opacity="0.15" stroke-dasharray="4 4"/><line key="0-13" x1="103.2" y1="670" x2="429.6" y2="867.2068980686421" stroke="#30363d" stroke-width="1" stroke-opacity="0.15" stroke-dasharray="4 4"/><line key="0-16" x1="103.2" y1="670" x2="504.26666666666665" y2="874.2798863477688" stroke="#30363d" stroke-width="1" stroke-opacity="0.15" stroke-dasharray="4 4"/><line key="0-20" x1="103.2" y1="670" x2="508.53333333333336" y2="893.5363066112566" stroke="#30363d" stroke-width="1" stroke-opacity="0.15" stroke-dasharray="4 4"/><line key="0-22" x1="103.2" y1="670" x2="512.8" y2="907.9283001531317" stroke="#30363d" stroke-width="1" stroke-opacity="0.15" stroke-dasharray="4 4"/><line key="0-24" x1="103.2" y1="670" x2="628" y2="919.5358287440146" stroke="#30363d" stroke-width="1" stroke-opacity="0.15" stroke-dasharray="4 4"/><line key="1-5" x1="295.2" y1="712.4021022357465" x2="423.2" y2="759.286516037367" stroke="#30363d" stroke-width="1" stroke-opacity="0.15" stroke-dasharray="4 4"/><line key="1-8" x1="295.2" y1="712.4021022357465" x2="692" y2="820.3574365739369" stroke="#30363d" stroke-width="1" stroke-opacity="0.15" stroke-dasharray="4 4"/><line key="1-10" x1="295.2" y1="712.4021022357465" x2="320.8" y2="833.1936455465074" stroke="#30363d" stroke-width="1" stroke-opacity="0.15" stroke-dasharray="4 4"/><line key="1-13" x1="295.2" y1="712.4021022357465" x2="429.6" y2="867.2068980686421" stroke="#30363d" stroke-width="1" stroke-opacity="0.15" stroke-dasharray="4 4"/><line key="2-3" x1="487.2" y1="733.82096258497" x2="116" y2="739.2473144623552" stroke="#30363d" stroke-width="1" stroke-opacity="0.15" stroke-dasharray="4 4"/><line key="2-6" x1="487.2" y1="733.82096258497" x2="128.8" y2="809.7535454503292" stroke="#30363d" stroke-width="1" stroke-opacity="0.15" stroke-dasharray="4 4"/><line key="2-7" x1="487.2" y1="733.82096258497" x2="564" y2="815.7739657175595" stroke="#30363d" stroke-width="1" stroke-opacity="0.15" stroke-dasharray="4 4"/><line key="2-8" x1="487.2" y1="733.82096258497" x2="692" y2="820.3574365739369" stroke="#30363d" stroke-width="1" stroke-opacity="0.15" stroke-dasharray="4 4"/><line key="2-9" x1="487.2" y1="733.82096258497" x2="491.46666666666664" y2="828.6968531892074" stroke="#30363d" stroke-width="1" stroke-opacity="0.15" stroke-dasharray="4 4"/><line key="2-11" x1="487.2" y1="733.82096258497" x2="495.73333333333335" y2="844.2294709278746" stroke="#30363d" stroke-width="1" stroke-opacity="0.15" stroke-dasharray="4 4"/><line key="2-12" x1="487.2" y1="733.82096258497" x2="500" y2="865.3785445767255" stroke="#30363d" stroke-width="1" stroke-opacity="0.15" stroke-dasharray="4 4"/><line key="2-16" x1="487.2" y1="733.82096258497" x2="504.26666666666665" y2="874.2798863477688" stroke="#30363d" stroke-width="1" stroke-opacity="0.15" stroke-dasharray="4 4"/><line key="2-20" x1="487.2" y1="733.82096258497" x2="508.53333333333336" y2="893.5363066112566" stroke="#30363d" stroke-width="1" stroke-opacity="0.15" stroke-dasharray="4 4"/><line key="2-22" x1="487.2" y1="733.82096258497" x2="512.8" y2="907.9283001531317" stroke="#30363d" stroke-width="1" stroke-opacity="0.15" stroke-dasharray="4 4"/><line key="3-6" x1="116" y1="739.2473144623552" x2="128.8" y2="809.7535454503292" stroke="#30363d" stroke-width="1" stroke-opacity="0.15" stroke-dasharray="4 4"/><line key="3-7" x1="116" y1="739.2473144623552" x2="564" y2="815.7739657175595" stroke="#30363d" stroke-width="1" stroke-opacity="0.15" stroke-dasharray="4 4"/><line key="3-8" x1="116" y1="739.2473144623552" x2="692" y2="820.3574365739369" stroke="#30363d" stroke-width="1" stroke-opacity="0.15" stroke-dasharray="4 4"/><line key="3-9" x1="116" y1="739.2473144623552" x2="491.46666666666664" y2="828.6968531892074" stroke="#30363d" stroke-width="1" stroke-opacity="0.15" stroke-dasharray="4 4"/><line key="3-11" x1="116" y1="739.2473144623552" x2="495.73333333333335" y2="844.2294709278746" stroke="#30363d" stroke-width="1" stroke-opacity="0.15" stroke-dasharray="4 4"/><line key="3-12" x1="116" y1="739.2473144623552" x2="500" y2="865.3785445767255" stroke="#30363d" stroke-width="1" stroke-opacity="0.15" stroke-dasharray="4 4"/><line key="3-16" x1="116" y1="739.2473144623552" x2="504.26666666666665" y2="874.2798863477688" stroke="#30363d" stroke-width="1" stroke-opacity="0.15" stroke-dasharray="4 4"/><line key="3-20" x1="116" y1="739.2473144623552" x2="508.53333333333336" y2="893.5363066112566" stroke="#30363d" stroke-width="1" stroke-opacity="0.15" stroke-dasharray="4 4"/><line key="3-22" x1="116" y1="739.2473144623552" x2="512.8" y2="907.9283001531317" stroke="#30363d" stroke-width="1" stroke-opacity="0.15" stroke-dasharray="4 4"/><line key="4-8" x1="679.2" y1="757.1506413159233" x2="692" y2="820.3574365739369" stroke="#30363d" stroke-width="1" stroke-opacity="0.15" stroke-dasharray="4 4"/><line key="4-21" x1="679.2" y1="757.1506413159233" x2="244" y2="907.2349795629248" stroke="#30363d" stroke-width="1" stroke-opacity="0.15" stroke-dasharray="4 4"/><line key="5-8" x1="423.2" y1="759.286516037367" x2="692" y2="820.3574365739369" stroke="#30363d" stroke-width="1" stroke-opacity="0.15" stroke-dasharray="4 4"/><line key="5-10" x1="423.2" y1="759.286516037367" x2="320.8" y2="833.1936455465074" stroke="#30363d" stroke-width="1" stroke-opacity="0.15" stroke-dasharray="4 4"/><line key="5-13" x1="423.2" y1="759.286516037367" x2="429.6" y2="867.2068980686421" stroke="#30363d" stroke-width="1" stroke-opacity="0.15" stroke-dasharray="4 4"/><line key="6-7" x1="128.8" y1="809.7535454503292" x2="564" y2="815.7739657175595" stroke="#30363d" stroke-width="1" stroke-opacity="0.15" stroke-dasharray="4 4"/><line key="6-8" x1="128.8" y1="809.7535454503292" x2="692" y2="820.3574365739369" stroke="#30363d" stroke-width="1" stroke-opacity="0.15" stroke-dasharray="4 4"/><line key="6-9" x1="128.8" y1="809.7535454503292" x2="491.46666666666664" y2="828.6968531892074" stroke="#30363d" stroke-width="1" stroke-opacity="0.15" stroke-dasharray="4 4"/><line key="6-11" x1="128.8" y1="809.7535454503292" x2="495.73333333333335" y2="844.2294709278746" stroke="#30363d" stroke-width="1" stroke-opacity="0.15" stroke-dasharray="4 4"/><line key="6-12" x1="128.8" y1="809.7535454503292" x2="500" y2="865.3785445767255" stroke="#30363d" stroke-width="1" stroke-opacity="0.15" stroke-dasharray="4 4"/><line key="6-16" x1="128.8" y1="809.7535454503292" x2="504.26666666666665" y2="874.2798863477688" stroke="#30363d" stroke-width="1" stroke-opacity="0.15" stroke-dasharray="4 4"/><line key="6-20" x1="128.8" y1="809.7535454503292" x2="508.53333333333336" y2="893.5363066112566" stroke="#30363d" stroke-width="1" stroke-opacity="0.15" stroke-dasharray="4 4"/><line key="6-22" x1="128.8" y1="809.7535454503292" x2="512.8" y2="907.9283001531317" stroke="#30363d" stroke-width="1" stroke-opacity="0.15" stroke-dasharray="4 4"/><line key="7-8" x1="564" y1="815.7739657175595" x2="692" y2="820.3574365739369" stroke="#30363d" stroke-width="1" stroke-opacity="0.15" stroke-dasharray="4 4"/><line key="7-9" x1="564" y1="815.7739657175595" x2="491.46666666666664" y2="828.6968531892074" stroke="#30363d" stroke-width="1" stroke-opacity="0.15" stroke-dasharray="4 4"/><line key="7-11" x1="564" y1="815.7739657175595" x2="495.73333333333335" y2="844.2294709278746" stroke="#30363d" stroke-width="1" stroke-opacity="0.15" stroke-dasharray="4 4"/><line key="7-12" x1="564" y1="815.7739657175595" x2="500" y2="865.3785445767255" stroke="#30363d" stroke-width="1" stroke-opacity="0.15" stroke-dasharray="4 4"/><line key="7-16" x1="564" y1="815.7739657175595" x2="504.26666666666665" y2="874.2798863477688" stroke="#30363d" stroke-width="1" stroke-opacity="0.15" stroke-dasharray="4 4"/><line key="7-17" x1="564" y1="815.7739657175595" x2="192.8" y2="883.6145534876912" stroke="#30363d" stroke-width="1" stroke-opacity="0.15" stroke-dasharray="4 4"/><line key="7-20" x1="564" y1="815.7739657175595" x2="508.53333333333336" y2="893.5363066112566" stroke="#30363d" stroke-width="1" stroke-opacity="0.15" stroke-dasharray="4 4"/><line key="7-22" x1="564" y1="815.7739657175595" x2="512.8" y2="907.9283001531317" stroke="#30363d" stroke-width="1" stroke-opacity="0.15" stroke-dasharray="4 4"/><line key="8-9" x1="692" y1="820.3574365739369" x2="491.46666666666664" y2="828.6968531892074" stroke="#30363d" stroke-width="1" stroke-opacity="0.15" stroke-dasharray="4 4"/><line key="8-10" x1="692" y1="820.3574365739369" x2="320.8" y2="833.1936455465074" stroke="#30363d" stroke-width="1" stroke-opacity="0.15" stroke-dasharray="4 4"/><line key="8-11" x1="692" y1="820.3574365739369" x2="495.73333333333335" y2="844.2294709278746" stroke="#30363d" stroke-width="1" stroke-opacity="0.15" stroke-dasharray="4 4"/><line key="8-12" x1="692" y1="820.3574365739369" x2="500" y2="865.3785445767255" stroke="#30363d" stroke-width="1" stroke-opacity="0.15" stroke-dasharray="4 4"/><line key="8-13" x1="692" y1="820.3574365739369" x2="429.6" y2="867.2068980686421" stroke="#30363d" stroke-width="1" stroke-opacity="0.15" stroke-dasharray="4 4"/><line key="8-15" x1="692" y1="820.3574365739369" x2="436" y2="870.1507149294802" stroke="#30363d" stroke-width="1" stroke-opacity="0.15" stroke-dasharray="4 4"/><line key="8-16" x1="692" y1="820.3574365739369" x2="504.26666666666665" y2="874.2798863477688" stroke="#30363d" stroke-width="1" stroke-opacity="0.15" stroke-dasharray="4 4"/><line key="8-18" x1="692" y1="820.3574365739369" x2="442.4" y2="886.5555747009881" stroke="#30363d" stroke-width="1" stroke-opacity="0.15" stroke-dasharray="4 4"/><line key="8-19" x1="692" y1="820.3574365739369" x2="704.8" y2="888.3783368978224" stroke="#30363d" stroke-width="1" stroke-opacity="0.15" stroke-dasharray="4 4"/><line key="8-20" x1="692" y1="820.3574365739369" x2="508.53333333333336" y2="893.5363066112566" stroke="#30363d" stroke-width="1" stroke-opacity="0.15" stroke-dasharray="4 4"/><line key="8-21" x1="692" y1="820.3574365739369" x2="244" y2="907.2349795629248" stroke="#30363d" stroke-width="1" stroke-opacity="0.15" stroke-dasharray="4 4"/><line key="8-22" x1="692" y1="820.3574365739369" x2="512.8" y2="907.9283001531317" stroke="#30363d" stroke-width="1" stroke-opacity="0.15" stroke-dasharray="4 4"/><line key="9-11" x1="491.46666666666664" y1="828.6968531892074" x2="495.73333333333335" y2="844.2294709278746" stroke="#30363d" stroke-width="1" stroke-opacity="0.15" stroke-dasharray="4 4"/><line key="9-12" x1="491.46666666666664" y1="828.6968531892074" x2="500" y2="865.3785445767255" stroke="#30363d" stroke-width="1" stroke-opacity="0.15" stroke-dasharray="4 4"/><line key="9-16" x1="491.46666666666664" y1="828.6968531892074" x2="504.26666666666665" y2="874.2798863477688" stroke="#30363d" stroke-width="1" stroke-opacity="0.15" stroke-dasharray="4 4"/><line key="9-20" x1="491.46666666666664" y1="828.6968531892074" x2="508.53333333333336" y2="893.5363066112566" stroke="#30363d" stroke-width="1" stroke-opacity="0.15" stroke-dasharray="4 4"/><line key="9-22" x1="491.46666666666664" y1="828.6968531892074" x2="512.8" y2="907.9283001531317" stroke="#30363d" stroke-width="1" stroke-opacity="0.15" stroke-dasharray="4 4"/><line key="10-13" x1="320.8" y1="833.1936455465074" x2="429.6" y2="867.2068980686421" stroke="#30363d" stroke-width="1" stroke-opacity="0.15" stroke-dasharray="4 4"/><line key="11-12" x1="495.73333333333335" y1="844.2294709278746" x2="500" y2="865.3785445767255" stroke="#30363d" stroke-width="1" stroke-opacity="0.15" stroke-dasharray="4 4"/><line key="11-16" x1="495.73333333333335" y1="844.2294709278746" x2="504.26666666666665" y2="874.2798863477688" stroke="#30363d" stroke-width="1" stroke-opacity="0.15" stroke-dasharray="4 4"/><line key="11-20" x1="495.73333333333335" y1="844.2294709278746" x2="508.53333333333336" y2="893.5363066112566" stroke="#30363d" stroke-width="1" stroke-opacity="0.15" stroke-dasharray="4 4"/><line key="11-22" x1="495.73333333333335" y1="844.2294709278746" x2="512.8" y2="907.9283001531317" stroke="#30363d" stroke-width="1" stroke-opacity="0.15" stroke-dasharray="4 4"/><line key="12-16" x1="500" y1="865.3785445767255" x2="504.26666666666665" y2="874.2798863477688" stroke="#30363d" stroke-width="1" stroke-opacity="0.15" stroke-dasharray="4 4"/><line key="12-20" x1="500" y1="865.3785445767255" x2="508.53333333333336" y2="893.5363066112566" stroke="#30363d" stroke-width="1" stroke-opacity="0.15" stroke-dasharray="4 4"/><line key="12-22" x1="500" y1="865.3785445767255" x2="512.8" y2="907.9283001531317" stroke="#30363d" stroke-width="1" stroke-opacity="0.15" stroke-dasharray="4 4"/><line key="13-24" x1="429.6" y1="867.2068980686421" x2="628" y2="919.5358287440146" stroke="#30363d" stroke-width="1" stroke-opacity="0.15" stroke-dasharray="4 4"/><line key="15-18" x1="436" y1="870.1507149294802" x2="442.4" y2="886.5555747009881" stroke="#30363d" stroke-width="1" stroke-opacity="0.15" stroke-dasharray="4 4"/><line key="16-20" x1="504.26666666666665" y1="874.2798863477688" x2="508.53333333333336" y2="893.5363066112566" stroke="#30363d" stroke-width="1" stroke-opacity="0.15" stroke-dasharray="4 4"/><line key="16-22" x1="504.26666666666665" y1="874.2798863477688" x2="512.8" y2="907.9283001531317" stroke="#30363d" stroke-width="1" stroke-opacity="0.15" stroke-dasharray="4 4"/><line key="20-22" x1="508.53333333333336" y1="893.5363066112566" x2="512.8" y2="907.9283001531317" stroke="#30363d" stroke-width="1" stroke-opacity="0.15" stroke-dasharray="4 4"/><circle cx="103.2" cy="670" r="26" fill="#00ADD8" fill-opacity="0.08" class="fade-1"/><circle cx="103.2" cy="670" r="22" fill="#00ADD8" fill-opacity="0.7" stroke="#00ADD8" stroke-width="1.5" stroke-opacity="0.9" class="fade-1"/><text x="103.2" y="706" class="t t-value fade-1" text-anchor="middle">incipit</text><circle cx="295.2" cy="712.4021022357465" r="26" fill="#DA5B0B" fill-opacity="0.08" class="fade-2"/><circle cx="295.2" cy="712.4021022357465" r="22" fill="#DA5B0B" fill-opacity="0.7" stroke="#DA5B0B" stroke-width="1.5" stroke-opacity="0.9" class="fade-2"/><text x="295.2" y="748.4021022357465" class="t t-value fade-2" text-anchor="middle">lepus-classifier</text><circle cx="487.2" cy="733.82096258497" r="26" fill="#dea584" fill-opacity="0.08" class="fade-3"/><circle cx="487.2" cy="733.82096258497" r="22" fill="#dea584" fill-opacity="0.7" stroke="#dea584" stroke-width="1.5" stroke-opacity="0.9" class="fade-3"/><text x="487.2" y="769.82096258497" class="t t-value fade-3" text-anchor="middle">linear-gp</text><circle cx="116" cy="739.2473144623552" r="26" fill="#00ADD8" fill-opacity="0.08" class="fade-4"/><circle cx="116" cy="739.2473144623552" r="22" fill="#00ADD8" fill-opacity="0.7" stroke="#00ADD8" stroke-width="1.5" stroke-opacity="0.9" class="fade-4"/><text x="116" y="775.2473144623552" class="t t-value fade-4" text-anchor="middle">zigbee-rest</text><circle cx="679.2" cy="757.1506413159233" r="26" fill="#3178c6" fill-opacity="0.08" class="fade-5"/><circle cx="679.2" cy="757.1506413159233" r="22" fill="#3178c6" fill-opacity="0.7" stroke="#3178c6" stroke-width="1.5" stroke-opacity="0.9" class="fade-5"/><text x="679.2" y="793.1506413159233" class="t t-value fade-5" text-anchor="middle">urmzd.com</text><circle cx="423.2" cy="759.286516037367" r="26" fill="#3572A5" fill-opacity="0.08" class="fade-6"/><circle cx="423.2" cy="759.286516037367" r="22" fill="#3572A5" fill-opacity="0.7" stroke="#3572A5" stroke-width="1.5" stroke-opacity="0.9" class="fade-6"/><text x="423.2" y="795.286516037367" class="t t-value fade-6" text-anchor="middle">exp-agi-models</text><circle cx="128.8" cy="809.7535454503292" r="24.34407914057398" fill="#00ADD8" fill-opacity="0.08" class="fade-6"/><circle cx="128.8" cy="809.7535454503292" r="20.34407914057398" fill="#00ADD8" fill-opacity="0.7" stroke="#00ADD8" stroke-width="1.5" stroke-opacity="0.9" class="fade-6"/><text x="128.8" y="844.0976245909031" class="t t-value fade-6" text-anchor="middle">saige</text><circle cx="564" cy="815.7739657175595" r="21.662575812224762" fill="#89e051" fill-opacity="0.08" class="fade-6"/><circle cx="564" cy="815.7739657175595" r="17.662575812224762" fill="#89e051" fill-opacity="0.7" stroke="#89e051" stroke-width="1.5" stroke-opacity="0.9" class="fade-6"/><text x="564" y="847.4365415297842" class="t t-value fade-6" text-anchor="middle">dotfiles</text><circle cx="692" cy="820.3574365739369" r="15.315656735546098" fill="#3178c6" fill-opacity="0.08" class="fade-6"/><circle cx="692" cy="820.3574365739369" r="11.315656735546098" fill="#3178c6" fill-opacity="0.7" stroke="#3178c6" stroke-width="1.5" stroke-opacity="0.9" class="fade-6"/><text x="692" y="845.673093309483" class="t t-value fade-6" text-anchor="middle">zoro</text><circle cx="491.46666666666664" cy="828.6968531892074" r="26" fill="#dea584" fill-opacity="0.08" class="fade-6"/><circle cx="491.46666666666664" cy="828.6968531892074" r="22" fill="#dea584" fill-opacity="0.7" stroke="#dea584" stroke-width="1.5" stroke-opacity="0.9" class="fade-6"/><text x="491.46666666666664" y="864.6968531892074" class="t t-value fade-6" text-anchor="middle">teasr</text><circle cx="320.8" cy="833.1936455465074" r="25.36863924926572" fill="#DA5B0B" fill-opacity="0.08" class="fade-6"/><circle cx="320.8" cy="833.1936455465074" r="21.36863924926572" fill="#DA5B0B" fill-opacity="0.7" stroke="#DA5B0B" stroke-width="1.5" stroke-opacity="0.9" class="fade-6"/><text x="320.8" y="868.562284795773" class="t t-value fade-6" text-anchor="middle">md-classifier</text><circle cx="495.73333333333335" cy="844.2294709278746" r="20.72593699206231" fill="#dea584" fill-opacity="0.08" class="fade-6"/><circle cx="495.73333333333335" cy="844.2294709278746" r="16.72593699206231" fill="#dea584" fill-opacity="0.7" stroke="#dea584" stroke-width="1.5" stroke-opacity="0.9" class="fade-6"/><text x="495.73333333333335" y="874.9554079199369" class="t t-value fade-6" text-anchor="middle">oag</text><circle cx="500" cy="865.3785445767255" r="16.802607394206206" fill="#dea584" fill-opacity="0.08" class="fade-6"/><circle cx="500" cy="865.3785445767255" r="12.802607394206204" fill="#dea584" fill-opacity="0.7" stroke="#dea584" stroke-width="1.5" stroke-opacity="0.9" class="fade-6"/><text x="500" y="892.1811519709318" class="t t-value fade-6" text-anchor="middle">sr</text><circle cx="429.6" cy="867.2068980686421" r="24.287843736263678" fill="#3572A5" fill-opacity="0.08" class="fade-6"/><circle cx="429.6" cy="867.2068980686421" r="20.287843736263678" fill="#3572A5" fill-opacity="0.7" stroke="#3572A5" stroke-width="1.5" stroke-opacity="0.9" class="fade-6"/><text x="429.6" y="901.4947418049057" class="t t-value fade-6" text-anchor="middle">languide</text><circle cx="167.2" cy="869.3973394863604" r="24.861890796612347" fill="#b07219" fill-opacity="0.08" class="fade-6"/><circle cx="167.2" cy="869.3973394863604" r="20.861890796612347" fill="#b07219" fill-opacity="0.7" stroke="#b07219" stroke-width="1.5" stroke-opacity="0.9" class="fade-6"/><text x="167.2" y="904.2592302829727" class="t t-value fade-6" text-anchor="middle">flappy-bird</text><circle cx="436" cy="870.1507149294802" r="26" fill="#3572A5" fill-opacity="0.08" class="fade-6"/><circle cx="436" cy="870.1507149294802" r="22" fill="#3572A5" fill-opacity="0.7" stroke="#3572A5" stroke-width="1.5" stroke-opacity="0.9" class="fade-6"/><text x="436" y="906.1507149294802" class="t t-value fade-6" text-anchor="middle">fighter-iq</text><circle cx="504.26666666666665" cy="874.2798863477688" r="12.283855820084858" fill="#dea584" fill-opacity="0.08" class="fade-6"/><circle cx="504.26666666666665" cy="874.2798863477688" r="8.283855820084858" fill="#dea584" fill-opacity="0.7" stroke="#dea584" stroke-width="1.5" stroke-opacity="0.9" class="fade-6"/><text x="504.26666666666665" y="896.5637421678537" class="t t-value fade-6" text-anchor="middle">embed-src</text><circle cx="192.8" cy="883.6145534876912" r="14.637905107315877" fill="#b07219" fill-opacity="0.08" class="fade-6"/><circle cx="192.8" cy="883.6145534876912" r="10.637905107315877" fill="#b07219" fill-opacity="0.7" stroke="#b07219" stroke-width="1.5" stroke-opacity="0.9" class="fade-6"/><text x="192.8" y="908.252458595007" class="t t-value fade-6" text-anchor="middle">barter-trader</text><circle cx="442.4" cy="886.5555747009881" r="14.425254648846348" fill="#3572A5" fill-opacity="0.08" class="fade-6"/><circle cx="442.4" cy="886.5555747009881" r="10.425254648846348" fill="#3572A5" fill-opacity="0.7" stroke="#3572A5" stroke-width="1.5" stroke-opacity="0.9" class="fade-6"/><text x="442.4" y="910.9808293498345" class="t t-value fade-6" text-anchor="middle">chess-cli</text><circle cx="704.8" cy="888.3783368978224" r="26" fill="#3178c6" fill-opacity="0.08" class="fade-6"/><circle cx="704.8" cy="888.3783368978224" r="22" fill="#3178c6" fill-opacity="0.7" stroke="#3178c6" stroke-width="1.5" stroke-opacity="0.9" class="fade-6"/><text x="704.8" y="924.3783368978224" class="t t-value fade-6" text-anchor="middle">github-insights</text><circle cx="508.53333333333336" cy="893.5363066112566" r="10" fill="#dea584" fill-opacity="0.08" class="fade-6"/><circle cx="508.53333333333336" cy="893.5363066112566" r="6" fill="#dea584" fill-opacity="0.7" stroke="#dea584" stroke-width="1.5" stroke-opacity="0.9" class="fade-6"/><text x="508.53333333333336" y="913.5363066112566" class="t t-value fade-6" text-anchor="middle">llmem</text><circle cx="244" cy="907.2349795629248" r="12.127871907170075" fill="#f1e05a" fill-opacity="0.08" class="fade-6"/><circle cx="244" cy="907.2349795629248" r="8.127871907170075" fill="#f1e05a" fill-opacity="0.7" stroke="#f1e05a" stroke-width="1.5" stroke-opacity="0.9" class="fade-6"/><text x="244" y="929.3628514700948" class="t t-value fade-6" text-anchor="middle">cypress-name-too-…</text><circle cx="512.8" cy="907.9283001531317" r="10" fill="#dea584" fill-opacity="0.08" class="fade-6"/><circle cx="512.8" cy="907.9283001531317" r="6" fill="#dea584" fill-opacity="0.7" stroke="#dea584" stroke-width="1.5" stroke-opacity="0.9" class="fade-6"/><text x="512.8" y="927.9283001531317" class="t t-value fade-6" text-anchor="middle">gitit</text><circle cx="448.8" cy="916.3627687848017" r="10" fill="#3572A5" fill-opacity="0.08" class="fade-6"/><circle cx="448.8" cy="916.3627687848017" r="6" fill="#3572A5" fill-opacity="0.7" stroke="#3572A5" stroke-width="1.5" stroke-opacity="0.9" class="fade-6"/><text x="448.8" y="936.3627687848017" class="t t-value fade-6" text-anchor="middle">lightning-kfold</text><circle cx="628" cy="919.5358287440146" r="17.16456861146825" fill="#3D6117" fill-opacity="0.08" class="fade-6"/><circle cx="628" cy="919.5358287440146" r="13.164568611468251" fill="#3D6117" fill-opacity="0.7" stroke="#3D6117" stroke-width="1.5" stroke-opacity="0.9" class="fade-6"/><text x="628" y="946.7003973554828" class="t t-value fade-6" text-anchor="middle">rlgp-thesis</text><circle cx="372" cy="950" r="12.890422371924657" fill="#8b949e" fill-opacity="0.08" class="fade-6"/><circle cx="372" cy="950" r="8.890422371924657" fill="#8b949e" fill-opacity="0.7" stroke="#8b949e" stroke-width="1.5" stroke-opacity="0.9" class="fade-6"/><text x="372" y="972.8904223719246" class="t t-value fade-6" text-anchor="middle">urmzd</text><text x="24" y="1076" class="t t-h">OPEN SOURCE IMPACT</text><text x="24" y="1092" class="t t-sub">External repositories contributed to</text><text x="24" y="1131" class="t t-card-title fade-1">getzep/graphiti</text><rect x="304" y="1121" width="400" height="12" rx="3" fill="#58a6ff" fill-opacity="0.7" class="fade-1"/><text x="720" y="1131" class="t t-value fade-1">★ 24,249</text><text x="24" y="1145" class="t t-value fade-1">Python</text><text x="24" y="1187" class="t t-card-title fade-2">googleapis/python-aiplatform</text><rect x="304" y="1177" width="268.4330718804562" height="12" rx="3" fill="#3fb950" fill-opacity="0.7" class="fade-2"/><text x="720" y="1187" class="t t-value fade-2">★ 875</text><text x="24" y="1201" class="t t-value fade-2">Python</text><text x="24" y="1243" class="t t-card-title fade-3">MathisWellmann/gym-rs</text><rect x="304" y="1233" width="192.23247439621062" height="12" rx="3" fill="#d29922" fill-opacity="0.7" class="fade-3"/><text x="720" y="1243" class="t t-value fade-3">★ 127</text><text x="24" y="1257" class="t t-value fade-3">Rust</text></svg>