<svg xmlns="http://www.w3.org/2000/svg" width="808" height="1326" viewBox="0 0 808 1326"><defs><style>
  .t { font-family: -apple-system,BlinkMacSystemFont,Segoe UI,Helvetica,Arial,sans-serif; font-variant-numeric: tabular-lining; }
  .t-h { font-size: 15px; fill: #172033; letter-spacing: 1.6px; font-weight: 800; }
  .t-sub { font-size: 11px; fill: #4b5870; }
  .t-label { font-size: 12px; fill: #4b5870; }
  .t-value { font-size: 11px; fill: #4b5870; }
  .t-subhdr { font-size: 11px; fill: #4b5870; letter-spacing: 1px; font-weight: 800; }
  .t-stat-label { font-size: 10px; fill: #4b5870; font-weight: 800; letter-spacing: 0.8px; }
  .t-stat-value { font-size: 24px; font-weight: 800; }
  .t-card-title { font-size: 12px; fill: #075fce; font-weight: 700; }
  .t-card-detail { font-size: 11px; fill: #4b5870; }
  .t-pill { font-size: 11px; font-weight: 600; }
  .t-bullet { font-size: 12px; fill: #172033; }
  .bg-fill { fill: #f7f9fc; }
  .card-fill { fill: #ffffff; }
  .surface-fill { fill: #ffffff; }
  .surface-stroke { stroke: #c9d5e4; }
  .border-stroke { stroke: #c9d5e4; }
  .muted-fill { fill: #66738a; }
  .secondary-fill { fill: #4b5870; }
  .soft-line { stroke: #c9d5e4; stroke-opacity: 0.45; }

  @keyframes fadeIn {
    from { opacity: 0; transform: translateY(8px); }
    to { opacity: 1; transform: translateY(0); }
  }
  @keyframes scaleIn {
    from { transform: scale(0); opacity: 0; }
    to { transform: scale(1); opacity: 1; }
  }
  @keyframes drawPath {
    from { stroke-dashoffset: var(--path-length); }
    to { stroke-dashoffset: 0; }
  }
  @keyframes radarReveal {
    from { transform: scale(0); opacity: 0; }
    to { transform: scale(1); opacity: 0.6; }
  }
  .fade-1 { animation: fadeIn 0.6s ease-out 0.1s both; }
  .fade-2 { animation: fadeIn 0.6s ease-out 0.25s both; }
  .fade-3 { animation: fadeIn 0.6s ease-out 0.4s both; }
  .fade-4 { animation: fadeIn 0.6s ease-out 0.55s both; }
  .fade-5 { animation: fadeIn 0.6s ease-out 0.7s both; }
  .fade-6 { animation: fadeIn 0.6s ease-out 0.85s both; }
</style></defs><rect width="808" height="1326" rx="12" class="bg-fill"/><path d="M 548 0 L 808 0 L 808 1326 L 388 1326 Z" fill="#45b3ff" opacity="0.05"/><path d="M 0 1046 L 310 1326 L 0 1326 Z" fill="#2dd4bf" opacity="0.05"/><rect x="12" y="12" width="784" height="246" rx="14" class="surface-fill surface-stroke" stroke-width="1" opacity="0.92"/><rect x="12" y="12" width="4" height="246" rx="2" fill="#45b3ff"/><text x="24" y="40" class="t t-h">LANGUAGE VELOCITY</text><text x="24" y="56" class="t t-sub">How language usage has evolved over the past year</text><path key="Lua" d="M 24,218 C 55.66666666666667,218 55.66666666666667,218 87.33333333333334,218 C 119.00000000000001,218 119.00000000000001,218 150.66666666666669,218 C 182.33333333333334,218 182.33333333333334,217.41425818882468 214,217.41425818882468 C 245.66666666666669,217.41425818882468 245.66666666666669,215.364161849711 277.33333333333337,215.364161849711 C 309,215.364161849711 309,218 340.6666666666667,218 C 372.33333333333337,218 372.33333333333337,202.47784200385357 404,202.47784200385357 C 435.6666666666667,202.47784200385357 435.6666666666667,167.91907514450867 467.33333333333337,167.91907514450867 C 499.00000000000006,167.91907514450867 499.00000000000006,66 530.6666666666667,66 C 562.3333333333334,66 562.3333333333334,96.89788053949903 594,96.89788053949903 C 625.6666666666667,96.89788053949903 625.6666666666667,212.14258188824664 657.3333333333334,212.14258188824664 C 689,212.14258188824664 689,203.5028901734104 720.6666666666667,203.5028901734104 C 752.3333333333334,203.5028901734104 752.3333333333334,208.04238921001928 784,208.04238921001928 L 784,208.1888246628131 C 752.3333333333334,208.1888246628131 752.3333333333334,203.64932562620425 720.6666666666667,203.64932562620425 C 689,203.64932562620425 689,212.28901734104045 657.3333333333334,212.28901734104045 C 625.6666666666667,212.28901734104045 625.6666666666667,98.65510597302504 594,98.65510597302504 C 562.3333333333334,98.65510597302504 562.3333333333334,68.19653179190752 530.6666666666667,68.19653179190752 C 499.00000000000006,68.19653179190752 499.00000000000006,168.65125240847783 467.33333333333337,168.65125240847783 C 435.6666666666667,168.65125240847783 435.6666666666667,202.77071290944124 404,202.77071290944124 C 372.33333333333337,202.77071290944124 372.33333333333337,218 340.6666666666667,218 C 309,218 309,215.364161849711 277.33333333333337,215.364161849711 C 245.66666666666669,215.364161849711 245.66666666666669,217.41425818882468 214,217.41425818882468 C 182.33333333333334,217.41425818882468 182.33333333333334,218 150.66666666666669,218 C 119.00000000000001,218 119.00000000000001,218 87.33333333333334,218 C 55.66666666666667,218 55.66666666666667,218 24,218 Z" fill="#000080" fill-opacity="0.88" class="fade-1"/><path key="Python" d="M 24,218 C 55.66666666666667,218 55.66666666666667,218 87.33333333333334,218 C 119.00000000000001,218 119.00000000000001,218 150.66666666666669,218 C 182.33333333333334,218 182.33333333333334,217.41425818882468 214,217.41425818882468 C 245.66666666666669,217.41425818882468 245.66666666666669,215.364161849711 277.33333333333337,215.364161849711 C 309,215.364161849711 309,218 340.6666666666667,218 C 372.33333333333337,218 372.33333333333337,202.77071290944124 404,202.77071290944124 C 435.6666666666667,202.77071290944124 435.6666666666667,168.65125240847783 467.33333333333337,168.65125240847783 C 499.00000000000006,168.65125240847783 499.00000000000006,68.19653179190752 530.6666666666667,68.19653179190752 C 562.3333333333334,68.19653179190752 562.3333333333334,98.65510597302504 594,98.65510597302504 C 625.6666666666667,98.65510597302504 625.6666666666667,212.28901734104045 657.3333333333334,212.28901734104045 C 689,212.28901734104045 689,203.64932562620425 720.6666666666667,203.64932562620425 C 752.3333333333334,203.64932562620425 752.3333333333334,208.1888246628131 784,208.1888246628131 L 784,208.6281310211946 C 752.3333333333334,208.6281310211946 752.3333333333334,204.23506743737957 720.6666666666667,204.23506743737957 C 689,204.23506743737957 689,212.58188824662813 657.3333333333334,212.58188824662813 C 625.6666666666667,212.58188824662813 625.6666666666667,103.9267822736031 594,103.9267822736031 C 562.3333333333334,103.9267822736031 562.3333333333334,74.78612716763004 530.6666666666667,74.78612716763004 C 499.00000000000006,74.78612716763004 499.00000000000006,170.84778420038535 467.33333333333337,170.84778420038535 C 435.6666666666667,170.84778420038535 435.6666666666667,203.5028901734104 404,203.5028901734104 C 372.33333333333337,203.5028901734104 372.33333333333337,218 340.6666666666667,218 C 309,218 309,215.5105973025048 277.33333333333337,215.5105973025048 C 245.66666666666669,215.5105973025048 245.66666666666669,217.41425818882468 214,217.41425818882468 C 182.33333333333334,217.41425818882468 182.33333333333334,218 150.66666666666669,218 C 119.00000000000001,218 119.00000000000001,218 87.33333333333334,218 C 55.66666666666667,218 55.66666666666667,218 24,218 Z" fill="#3572A5" fill-opacity="0.88" class="fade-2"/><path key="TypeScript" d="M 24,218 C 55.66666666666667,218 55.66666666666667,218 87.33333333333334,218 C 119.00000000000001,218 119.00000000000001,218 150.66666666666669,218 C 182.33333333333334,218 182.33333333333334,217.41425818882468 214,217.41425818882468 C 245.66666666666669,217.41425818882468 245.66666666666669,215.5105973025048 277.33333333333337,215.5105973025048 C 309,215.5105973025048 309,218 340.6666666666667,218 C 372.33333333333337,218 372.33333333333337,203.5028901734104 404,203.5028901734104 C 435.6666666666667,203.5028901734104 435.6666666666667,170.84778420038535 467.33333333333337,170.84778420038535 C 499.00000000000006,170.84778420038535 499.00000000000006,74.78612716763004 530.6666666666667,74.78612716763004 C 562.3333333333334,74.78612716763004 562.3333333333334,103.9267822736031 594,103.9267822736031 C 625.6666666666667,103.9267822736031 625.6666666666667,212.58188824662813 657.3333333333334,212.58188824662813 C 689,212.58188824662813 689,204.23506743737957 720.6666666666667,204.23506743737957 C 752.3333333333334,204.23506743737957 752.3333333333334,208.6281310211946 784,208.6281310211946 L 784,210.53179190751445 C 752.3333333333334,210.53179190751445 752.3333333333334,207.16377649325625 720.6666666666667,207.16377649325625 C 689,207.16377649325625 689,213.7533718689788 657.3333333333334,213.7533718689788 C 625.6666666666667,213.7533718689788 625.6666666666667,127.64932562620425 594,127.64932562620425 C 562.3333333333334,127.64932562620425 562.3333333333334,104.65895953757226 530.6666666666667,104.65895953757226 C 499.00000000000006,104.65895953757226 499.00000000000006,180.65895953757226 467.33333333333337,180.65895953757226 C 435.6666666666667,180.65895953757226 435.6666666666667,206.57803468208093 404,206.57803468208093 C 372.33333333333337,206.57803468208093 372.33333333333337,218 340.6666666666667,218 C 309,218 309,216.09633911368016 277.33333333333337,216.09633911368016 C 245.66666666666669,216.09633911368016 245.66666666666669,217.56069364161849 214,217.56069364161849 C 182.33333333333334,217.56069364161849 182.33333333333334,218 150.66666666666669,218 C 119.00000000000001,218 119.00000000000001,218 87.33333333333334,218 C 55.66666666666667,218 55.66666666666667,218 24,218 Z" fill="#3178c6" fill-opacity="0.88" class="fade-3"/><path key="Go" d="M 24,218 C 55.66666666666667,218 55.66666666666667,218 87.33333333333334,218 C 119.00000000000001,218 119.00000000000001,218 150.66666666666669,218 C 182.33333333333334,218 182.33333333333334,217.56069364161849 214,217.56069364161849 C 245.66666666666669,217.56069364161849 245.66666666666669,216.09633911368016 277.33333333333337,216.09633911368016 C 309,216.09633911368016 309,218 340.6666666666667,218 C 372.33333333333337,218 372.33333333333337,206.57803468208093 404,206.57803468208093 C 435.6666666666667,206.57803468208093 435.6666666666667,180.65895953757226 467.33333333333337,180.65895953757226 C 499.00000000000006,180.65895953757226 499.00000000000006,104.65895953757226 530.6666666666667,104.65895953757226 C 562.3333333333334,104.65895953757226 562.3333333333334,127.64932562620425 594,127.64932562620425 C 625.6666666666667,127.64932562620425 625.6666666666667,213.7533718689788 657.3333333333334,213.7533718689788 C 689,213.7533718689788 689,207.16377649325625 720.6666666666667,207.16377649325625 C 752.3333333333334,207.16377649325625 752.3333333333334,210.53179190751445 784,210.53179190751445 L 784,213.3140655105973 C 752.3333333333334,213.3140655105973 752.3333333333334,211.1175337186898 720.6666666666667,211.1175337186898 C 689,211.1175337186898 689,215.364161849711 657.3333333333334,215.364161849711 C 625.6666666666667,215.364161849711 625.6666666666667,160.59730250481695 594,160.59730250481695 C 562.3333333333334,160.59730250481695 562.3333333333334,145.95375722543355 530.6666666666667,145.95375722543355 C 499.00000000000006,145.95375722543355 499.00000000000006,194.27745664739885 467.33333333333337,194.27745664739885 C 435.6666666666667,194.27745664739885 435.6666666666667,210.67822736030828 404,210.67822736030828 C 372.33333333333337,210.67822736030828 372.33333333333337,218 340.6666666666667,218 C 309,218 309,216.82851637764932 277.33333333333337,216.82851637764932 C 245.66666666666669,216.82851637764932 245.66666666666669,217.70712909441232 214,217.70712909441232 C 182.33333333333334,217.70712909441232 182.33333333333334,218 150.66666666666669,218 C 119.00000000000001,218 119.00000000000001,218 87.33333333333334,218 C 55.66666666666667,218 55.66666666666667,218 24,218 Z" fill="#00ADD8" fill-opacity="0.88" class="fade-4"/><path key="Rust" d="M 24,218 C 55.66666666666667,218 55.66666666666667,218 87.33333333333334,218 C 119.00000000000001,218 119.00000000000001,218 150.66666666666669,218 C 182.33333333333334,218 182.33333333333334,217.70712909441232 214,217.70712909441232 C 245.66666666666669,217.70712909441232 245.66666666666669,216.82851637764932 277.33333333333337,216.82851637764932 C 309,216.82851637764932 309,218 340.6666666666667,218 C 372.33333333333337,218 372.33333333333337,210.67822736030828 404,210.67822736030828 C 435.6666666666667,210.67822736030828 435.6666666666667,194.27745664739885 467.33333333333337,194.27745664739885 C 499.00000000000006,194.27745664739885 499.00000000000006,145.95375722543355 530.6666666666667,145.95375722543355 C 562.3333333333334,145.95375722543355 562.3333333333334,160.59730250481695 594,160.59730250481695 C 625.6666666666667,160.59730250481695 625.6666666666667,215.364161849711 657.3333333333334,215.364161849711 C 689,215.364161849711 689,211.1175337186898 720.6666666666667,211.1175337186898 C 752.3333333333334,211.1175337186898 752.3333333333334,213.3140655105973 784,213.3140655105973 L 784,218 C 752.3333333333334,218 752.3333333333334,218 720.6666666666667,218 C 689,218 689,218 657.3333333333334,218 C 625.6666666666667,218 625.6666666666667,218 594,218 C 562.3333333333334,218 562.3333333333334,218 530.6666666666667,218 C 499.00000000000006,218 499.00000000000006,218 467.33333333333337,218 C 435.6666666666667,218 435.6666666666667,218 404,218 C 372.33333333333337,218 372.33333333333337,218 340.6666666666667,218 C 309,218 309,218 277.33333333333337,218 C 245.66666666666669,218 245.66666666666669,218 214,218 C 182.33333333333334,218 182.33333333333334,218 150.66666666666669,218 C 119.00000000000001,218 119.00000000000001,218 87.33333333333334,218 C 55.66666666666667,218 55.66666666666667,218 24,218 Z" fill="#dea584" fill-opacity="0.88" class="fade-5"/><rect x="24" y="224" width="8" height="8" rx="2" fill="#dea584" opacity="0.95"/><text x="36" y="232" class="t t-value">Rust</text><rect x="80" y="224" width="8" height="8" rx="2" fill="#00ADD8" opacity="0.95"/><text x="92" y="232" class="t t-value">Go</text><rect x="122" y="224" width="8" height="8" rx="2" fill="#3178c6" opacity="0.95"/><text x="134" y="232" class="t t-value">TypeScript</text><rect x="220" y="224" width="8" height="8" rx="2" fill="#3572A5" opacity="0.95"/><text x="232" y="232" class="t t-value">Python</text><rect x="290" y="224" width="8" height="8" rx="2" fill="#000080" opacity="0.95"/><text x="302" y="232" class="t t-value">Lua</text><text key="Jul" x="24" y="232" class="t t-value" text-anchor="start" opacity="0">Jul</text><text key="Sep" x="150.66666666666669" y="232" class="t t-value" text-anchor="start" opacity="0">Sep</text><text key="Nov" x="277.33333333333337" y="232" class="t t-value" text-anchor="start" opacity="0">Nov</text><text key="Jan" x="404" y="232" class="t t-value" text-anchor="start" opacity="0">Jan</text><text key="Mar" x="530.6666666666667" y="232" class="t t-value" text-anchor="start" opacity="0">Mar</text><text key="May" x="657.3333333333334" y="232" class="t t-value" text-anchor="start" opacity="0">May</text><text key="Jul" x="784" y="232" class="t t-value" text-anchor="start" opacity="0">Jul</text><rect x="12" y="256" width="784" height="316" rx="14" class="surface-fill surface-stroke" stroke-width="1" opacity="0.92"/><rect x="12" y="256" width="4" height="316" rx="2" fill="#45d483"/><text x="24" y="284" class="t t-h">CONTRIBUTION RHYTHM</text><text x="24" y="300" class="t t-sub">Activity patterns and statistics over the past year</text><circle key="0.25" cx="144" cy="430" r="22.5" fill="none" class="border-stroke" stroke-width="1" stroke-opacity="0.4"/><circle key="0.5" cx="144" cy="430" r="45" fill="none" class="border-stroke" stroke-width="1" stroke-opacity="0.4"/><circle key="0.75" cx="144" cy="430" r="67.5" fill="none" class="border-stroke" stroke-width="1" stroke-opacity="0.4"/><circle key="1" cx="144" cy="430" r="90" fill="none" class="border-stroke" stroke-width="1" stroke-opacity="0.4"/><line key="Sun" x1="144" y1="430" x2="144" y2="340" class="border-stroke" stroke-width="1" stroke-opacity="0.3"/><line key="Mon" x1="144" y1="430" x2="214.36483342212267" y2="373.885917832714" class="border-stroke" stroke-width="1" stroke-opacity="0.3"/><line key="Tue" x1="144" y1="430" x2="231.74351209636413" y2="450.0268840560683" class="border-stroke" stroke-width="1" stroke-opacity="0.3"/><line key="Wed" x1="144" y1="430" x2="183.04953652058023" y2="511.08719811121773" class="border-stroke" stroke-width="1" stroke-opacity="0.3"/><line key="Thu" x1="144" y1="430" x2="104.95046347941977" y2="511.08719811121773" class="border-stroke" stroke-width="1" stroke-opacity="0.3"/><line key="Fri" x1="144" y1="430" x2="56.25648790363587" y2="450.0268840560683" class="border-stroke" stroke-width="1" stroke-opacity="0.3"/><line key="Sat" x1="144" y1="430" x2="73.63516657787731" y2="373.885917832714" class="border-stroke" stroke-width="1" stroke-opacity="0.3"/><polygon points="144,340 166.9342494403084,411.7105463773629 172.42146052768203,436.48701289808065 166.93322931884734,477.62134137308647 129.14462636906282,460.84750119871757 110.79735919663315,437.5782860958886 103.10177189592062,397.38475143455423" fill="#45b3ff" fill-opacity="0.3" stroke="#45b3ff" stroke-width="3" stroke-opacity="0.95" class="fade-2" style="transform-origin: 144px 430px"/><circle key="Sun" cx="144" cy="340" r="3" fill="#45b3ff" stroke="#ffffff" stroke-opacity="0.45" stroke-width="1" class="fade-1"/><circle key="Mon" cx="166.9342494403084" cy="411.7105463773629" r="3" fill="#45b3ff" stroke="#ffffff" stroke-opacity="0.45" stroke-width="1" class="fade-2"/><circle key="Tue" cx="172.42146052768203" cy="436.48701289808065" r="3" fill="#45b3ff" stroke="#ffffff" stroke-opacity="0.45" stroke-width="1" class="fade-3"/><circle key="Wed" cx="166.93322931884734" cy="477.62134137308647" r="3" fill="#45b3ff" stroke="#ffffff" stroke-opacity="0.45" stroke-width="1" class="fade-4"/><circle key="Thu" cx="129.14462636906282" cy="460.84750119871757" r="3" fill="#45b3ff" stroke="#ffffff" stroke-opacity="0.45" stroke-width="1" class="fade-5"/><circle key="Fri" cx="110.79735919663315" cy="437.5782860958886" r="3" fill="#45b3ff" stroke="#ffffff" stroke-opacity="0.45" stroke-width="1" class="fade-6"/><circle key="Sat" cx="103.10177189592062" cy="397.38475143455423" r="3" fill="#45b3ff" stroke="#ffffff" stroke-opacity="0.45" stroke-width="1" class="fade-6"/><text key="Sun" x="144" y="328" class="t t-value" text-anchor="middle">Sun</text><text key="Mon" x="226.87413714161116" y="367.91008100297427" class="t t-value" text-anchor="middle">Mon</text><text key="Tue" x="247.34235869127332" y="457.5872189993693" class="t t-value" text-anchor="middle">Tue</text><text key="Wed" x="189.99167634646116" y="529.5026999976565" class="t t-value" text-anchor="middle">Wed</text><text key="Thu" x="98.00832365353884" y="529.5026999976565" class="t t-value" text-anchor="middle">Thu</text><text key="Fri" x="40.657641308726696" y="457.5872189993693" class="t t-value" text-anchor="middle">Fri</text><text key="Sat" x="61.12586285838883" y="367.91008100297427" class="t t-value" text-anchor="middle">Sat</text><text x="324" y="340" class="t t-stat-label">COMMITS</text><text x="324" y="362" fill="#45b3ff" class="t t-stat-value">3,014</text><text x="324" y="382" class="t t-stat-label">PRS</text><text x="324" y="404" fill="#45d483" class="t t-stat-value">240</text><text x="324" y="424" class="t t-stat-label">REVIEWS</text><text x="324" y="446" fill="#f6b342" class="t t-stat-value">5</text><text x="324" y="466" class="t t-stat-label">REPOS</text><text x="324" y="488" fill="#a88cff" class="t t-stat-value">31</text><text x="324" y="508" class="t t-stat-label">STREAK</text><text x="324" y="530" fill="#2dd4bf" class="t t-stat-value">41d</text><rect x="12" y="570" width="784" height="152" rx="14" class="surface-fill surface-stroke" stroke-width="1" opacity="0.92"/><rect x="12" y="570" width="4" height="152" rx="2" fill="#f6b342"/><text x="24" y="598" class="t t-h">OPEN SOURCE IMPACT</text><text x="24" y="614" class="t t-sub">External repositories contributed to</text><text x="24" y="648" class="t t-card-title fade-1">googleapis/python-aiplatform</text><rect x="280" y="638" width="340" height="12" rx="3" fill="#45b3ff" fill-opacity="0.7" class="fade-1"/><text x="636" y="648" class="t t-value fade-1">★ 900</text><text x="728" y="648" class="t t-value fade-1">Python</text><text x="24" y="694" class="t t-card-title fade-2">MathisWellmann/gym-rs</text><rect x="280" y="684" width="244.01431186120166" height="12" rx="3" fill="#45d483" fill-opacity="0.7" class="fade-2"/><text x="636" y="694" class="t t-value fade-2">★ 131</text><text x="728" y="694" class="t t-value fade-2">Rust</text><rect x="12" y="720" width="784" height="594" rx="14" class="surface-fill surface-stroke" stroke-width="1" opacity="0.92"/><rect x="12" y="720" width="4" height="594" rx="2" fill="#ff6b5f"/><text x="24" y="748" class="t t-h">TECH STACK</text><text x="24" y="764" class="t t-sub">Projects arranged by abstraction layer</text><rect x="24" y="774" width="760" height="124" rx="8" fill="#bc8cff" fill-opacity="0.08" class="fade-1"/><text x="40" y="810" class="t t-subhdr fade-1" fill-opacity="0.9">AI &amp; RESEARCH</text><rect x="40" y="822" width="176" height="52" rx="6" class="card-fill fade-1"/><text x="50" y="842" class="t t-card-title fade-1">glassbox-lm</text><text x="206" y="842" class="t t-value fade-1" text-anchor="end" font-size="9">★ 0</text><circle cx="54" cy="860" r="3" fill="#3572A5" fill-opacity="0.8" class="fade-1"/><text x="62" y="863" class="t muted-fill fade-1" font-size="9">Python</text><rect x="228" y="822" width="176" height="52" rx="6" class="card-fill fade-1"/><text x="238" y="842" class="t t-card-title fade-1">linear-gp</text><text x="394" y="842" class="t t-value fade-1" text-anchor="end" font-size="9">★ 2</text><circle cx="242" cy="860" r="3" fill="#dea584" fill-opacity="0.8" class="fade-1"/><text x="250" y="863" class="t muted-fill fade-1" font-size="9">Rust</text><rect x="416" y="822" width="176" height="52" rx="6" class="card-fill fade-1"/><text x="426" y="842" class="t t-card-title fade-1">gymnasia</text><text x="582" y="842" class="t t-value fade-1" text-anchor="end" font-size="9">★ 1</text><circle cx="430" cy="860" r="3" fill="#dea584" fill-opacity="0.8" class="fade-1"/><text x="438" y="863" class="t muted-fill fade-1" font-size="9">Rust</text><rect x="24" y="906" width="760" height="124" rx="8" fill="#d29922" fill-opacity="0.08" class="fade-2"/><text x="40" y="942" class="t t-subhdr fade-2" fill-opacity="0.9">APPLICATIONS</text><rect x="40" y="954" width="176" height="52" rx="6" class="card-fill fade-2"/><text x="50" y="974" class="t t-card-title fade-2">urmzd.com</text><text x="206" y="974" class="t t-value fade-2" text-anchor="end" font-size="9">★ 1</text><circle cx="54" cy="992" r="3" fill="#3178c6" fill-opacity="0.8" class="fade-2"/><text x="62" y="995" class="t muted-fill fade-2" font-size="9">TypeScript</text><rect x="228" y="954" width="176" height="52" rx="6" class="card-fill fade-2"/><text x="238" y="974" class="t t-card-title fade-2">languide</text><text x="394" y="974" class="t t-value fade-2" text-anchor="end" font-size="9">★ 0</text><circle cx="242" cy="992" r="3" fill="#8b949e" fill-opacity="0.8" class="fade-2"/><text x="250" y="995" class="t muted-fill fade-2" font-size="9">Other</text><rect x="416" y="954" width="176" height="52" rx="6" class="card-fill fade-2"/><text x="426" y="974" class="t t-card-title fade-2">urmzd</text><text x="582" y="974" class="t t-value fade-2" text-anchor="end" font-size="9">★ 0</text><circle cx="430" cy="992" r="3" fill="#8b949e" fill-opacity="0.8" class="fade-2"/><text x="438" y="995" class="t muted-fill fade-2" font-size="9">Other</text><rect x="24" y="1038" width="760" height="124" rx="8" fill="#58a6ff" fill-opacity="0.08" class="fade-3"/><text x="40" y="1074" class="t t-subhdr fade-3" fill-opacity="0.9">LIBRARIES &amp; SDKS</text><rect x="40" y="1086" width="176" height="52" rx="6" class="card-fill fade-3"/><text x="50" y="1106" class="t t-card-title fade-3">saige</text><text x="206" y="1106" class="t t-value fade-3" text-anchor="end" font-size="9">★ 4</text><circle cx="54" cy="1124" r="3" fill="#00ADD8" fill-opacity="0.8" class="fade-3"/><text x="62" y="1127" class="t muted-fill fade-3" font-size="9">Go</text><rect x="24" y="1170" width="760" height="124" rx="8" fill="#3fb950" fill-opacity="0.08" class="fade-4"/><text x="40" y="1206" class="t t-subhdr fade-4" fill-opacity="0.9">INFRASTRUCTURE &amp; DEVOPS</text><rect x="40" y="1218" width="176" height="52" rx="6" class="card-fill fade-4"/><text x="50" y="1238" class="t t-card-title fade-4">incipit</text><text x="206" y="1238" class="t t-value fade-4" text-anchor="end" font-size="9">★ 12</text><circle cx="54" cy="1256" r="3" fill="#00ADD8" fill-opacity="0.8" class="fade-4"/><text x="62" y="1259" class="t muted-fill fade-4" font-size="9">Go</text><rect x="228" y="1218" width="176" height="52" rx="6" class="card-fill fade-4"/><text x="238" y="1238" class="t t-card-title fade-4">zigbee-skill</text><text x="394" y="1238" class="t t-value fade-4" text-anchor="end" font-size="9">★ 0</text><circle cx="242" cy="1256" r="3" fill="#00ADD8" fill-opacity="0.8" class="fade-4"/><text x="250" y="1259" class="t muted-fill fade-4" font-size="9">Go</text><rect x="416" y="1218" width="176" height="52" rx="6" class="card-fill fade-4"/><text x="426" y="1238" class="t t-card-title fade-4">generative-artifact…</text><text x="582" y="1238" class="t t-value fade-4" text-anchor="end" font-size="9">★ 1</text><circle cx="430" cy="1256" r="3" fill="#00ADD8" fill-opacity="0.8" class="fade-4"/><text x="438" y="1259" class="t muted-fill fade-4" font-size="9">Go</text></svg>