<svg xmlns="http://www.w3.org/2000/svg" width="808" height="1400" viewBox="0 0 808 1400"><defs><style>
  .t { font-family: -apple-system,BlinkMacSystemFont,Segoe UI,Helvetica,Arial,sans-serif; font-variant-numeric: tabular-lining; }
  .t-h { font-size: 14px; fill: #c9d1d9; letter-spacing: 2px; font-weight: 600; }
  .t-sub { font-size: 11px; fill: #6e7681; }
  .t-label { font-size: 12px; fill: #8b949e; }
  .t-value { font-size: 11px; fill: #6e7681; }
  .t-subhdr { font-size: 11px; fill: #8b949e; letter-spacing: 1px; font-weight: 600; }
  .t-stat-label { font-size: 10px; fill: #8b949e; font-weight: 600; }
  .t-stat-value { font-size: 22px; font-weight: 700; }
  .t-card-title { font-size: 12px; fill: #58a6ff; font-weight: 700; }
  .t-card-detail { font-size: 11px; fill: #8b949e; }
  .t-pill { font-size: 11px; font-weight: 600; }
  .t-bullet { font-size: 12px; fill: #c9d1d9; }
  .bg-fill { fill: #0d1117; }
  .card-fill { fill: #161b22; }
  .border-stroke { stroke: #30363d; }
  .muted-fill { fill: #6e7681; }
  .secondary-fill { fill: #8b949e; }

  @keyframes fadeIn {
    from { opacity: 0; transform: translateY(8px); }
    to { opacity: 1; transform: translateY(0); }
  }
  @keyframes scaleIn {
    from { transform: scale(0); opacity: 0; }
    to { transform: scale(1); opacity: 1; }
  }
  @keyframes drawPath {
    from { stroke-dashoffset: var(--path-length); }
    to { stroke-dashoffset: 0; }
  }
  @keyframes radarReveal {
    from { transform: scale(0); opacity: 0; }
    to { transform: scale(1); opacity: 0.6; }
  }
  .fade-1 { animation: fadeIn 0.6s ease-out 0.1s both; }
  .fade-2 { animation: fadeIn 0.6s ease-out 0.25s both; }
  .fade-3 { animation: fadeIn 0.6s ease-out 0.4s both; }
  .fade-4 { animation: fadeIn 0.6s ease-out 0.55s both; }
  .fade-5 { animation: fadeIn 0.6s ease-out 0.7s both; }
  .fade-6 { animation: fadeIn 0.6s ease-out 0.85s both; }
</style></defs><rect width="808" height="1400" rx="12" class="bg-fill"/><text x="24" y="40" class="t t-h">LANGUAGE VELOCITY</text><text x="24" y="56" class="t t-sub">How language usage has evolved over the past year</text><path key="Lua" d="M 24,206 C 55.66666666666667,206 55.66666666666667,206 87.33333333333334,206 C 119.00000000000001,206 119.00000000000001,206 150.66666666666669,206 C 182.33333333333334,206 182.33333333333334,205.375 214,205.375 C 245.66666666666669,205.375 245.66666666666669,203.75 277.33333333333337,203.75 C 309,203.75 309,206 340.6666666666667,206 C 372.33333333333337,206 372.33333333333337,191.75 404,191.75 C 435.6666666666667,191.75 435.6666666666667,159.75 467.33333333333337,159.75 C 499.00000000000006,159.75 499.00000000000006,66 530.6666666666667,66 C 562.3333333333334,66 562.3333333333334,94.625 594,94.625 C 625.6666666666667,94.625 625.6666666666667,200.75 657.3333333333334,200.75 C 689,200.75 689,192.625 720.6666666666667,192.625 C 752.3333333333334,192.625 752.3333333333334,201.625 784,201.625 L 784,201.625 C 752.3333333333334,201.625 752.3333333333334,192.75 720.6666666666667,192.75 C 689,192.75 689,200.875 657.3333333333334,200.875 C 625.6666666666667,200.875 625.6666666666667,96.125 594,96.125 C 562.3333333333334,96.125 562.3333333333334,67.875 530.6666666666667,67.875 C 499.00000000000006,67.875 499.00000000000006,160.375 467.33333333333337,160.375 C 435.6666666666667,160.375 435.6666666666667,192 404,192 C 372.33333333333337,192 372.33333333333337,206 340.6666666666667,206 C 309,206 309,203.75 277.33333333333337,203.75 C 245.66666666666669,203.75 245.66666666666669,205.375 214,205.375 C 182.33333333333334,205.375 182.33333333333334,206 150.66666666666669,206 C 119.00000000000001,206 119.00000000000001,206 87.33333333333334,206 C 55.66666666666667,206 55.66666666666667,206 24,206 Z" fill="#000080" fill-opacity="0.75" class="fade-1"/><path key="Java" d="M 24,206 C 55.66666666666667,206 55.66666666666667,206 87.33333333333334,206 C 119.00000000000001,206 119.00000000000001,206 150.66666666666669,206 C 182.33333333333334,206 182.33333333333334,205.375 214,205.375 C 245.66666666666669,205.375 245.66666666666669,203.75 277.33333333333337,203.75 C 309,203.75 309,206 340.6666666666667,206 C 372.33333333333337,206 372.33333333333337,192 404,192 C 435.6666666666667,192 435.6666666666667,160.375 467.33333333333337,160.375 C 499.00000000000006,160.375 499.00000000000006,67.875 530.6666666666667,67.875 C 562.3333333333334,67.875 562.3333333333334,96.125 594,96.125 C 625.6666666666667,96.125 625.6666666666667,200.875 657.3333333333334,200.875 C 689,200.875 689,192.75 720.6666666666667,192.75 C 752.3333333333334,192.75 752.3333333333334,201.625 784,201.625 L 784,201.75 C 752.3333333333334,201.75 752.3333333333334,193 720.6666666666667,193 C 689,193 689,201 657.3333333333334,201 C 625.6666666666667,201 625.6666666666667,97.875 594,97.875 C 562.3333333333334,97.875 562.3333333333334,70 530.6666666666667,70 C 499.00000000000006,70 499.00000000000006,161.125 467.33333333333337,161.125 C 435.6666666666667,161.125 435.6666666666667,192.25 404,192.25 C 372.33333333333337,192.25 372.33333333333337,206 340.6666666666667,206 C 309,206 309,203.75 277.33333333333337,203.75 C 245.66666666666669,203.75 245.66666666666669,205.375 214,205.375 C 182.33333333333334,205.375 182.33333333333334,206 150.66666666666669,206 C 119.00000000000001,206 119.00000000000001,206 87.33333333333334,206 C 55.66666666666667,206 55.66666666666667,206 24,206 Z" fill="#b07219" fill-opacity="0.75" class="fade-2"/><path key="Python" d="M 24,206 C 55.66666666666667,206 55.66666666666667,206 87.33333333333334,206 C 119.00000000000001,206 119.00000000000001,206 150.66666666666669,206 C 182.33333333333334,206 182.33333333333334,205.375 214,205.375 C 245.66666666666669,205.375 245.66666666666669,203.75 277.33333333333337,203.75 C 309,203.75 309,206 340.6666666666667,206 C 372.33333333333337,206 372.33333333333337,192.25 404,192.25 C 435.6666666666667,192.25 435.6666666666667,161.125 467.33333333333337,161.125 C 499.00000000000006,161.125 499.00000000000006,70 530.6666666666667,70 C 562.3333333333334,70 562.3333333333334,97.875 594,97.875 C 625.6666666666667,97.875 625.6666666666667,201 657.3333333333334,201 C 689,201 689,193 720.6666666666667,193 C 752.3333333333334,193 752.3333333333334,201.75 784,201.75 L 784,202 C 752.3333333333334,202 752.3333333333334,193.625 720.6666666666667,193.625 C 689,193.625 689,201.25 657.3333333333334,201.25 C 625.6666666666667,201.25 625.6666666666667,103.375 594,103.375 C 562.3333333333334,103.375 562.3333333333334,76.875 530.6666666666667,76.875 C 499.00000000000006,76.875 499.00000000000006,163.375 467.33333333333337,163.375 C 435.6666666666667,163.375 435.6666666666667,193 404,193 C 372.33333333333337,193 372.33333333333337,206 340.6666666666667,206 C 309,206 309,203.875 277.33333333333337,203.875 C 245.66666666666669,203.875 245.66666666666669,205.375 214,205.375 C 182.33333333333334,205.375 182.33333333333334,206 150.66666666666669,206 C 119.00000000000001,206 119.00000000000001,206 87.33333333333334,206 C 55.66666666666667,206 55.66666666666667,206 24,206 Z" fill="#3572A5" fill-opacity="0.75" class="fade-3"/><path key="TypeScript" d="M 24,206 C 55.66666666666667,206 55.66666666666667,206 87.33333333333334,206 C 119.00000000000001,206 119.00000000000001,206 150.66666666666669,206 C 182.33333333333334,206 182.33333333333334,205.375 214,205.375 C 245.66666666666669,205.375 245.66666666666669,203.875 277.33333333333337,203.875 C 309,203.875 309,206 340.6666666666667,206 C 372.33333333333337,206 372.33333333333337,193 404,193 C 435.6666666666667,193 435.6666666666667,163.375 467.33333333333337,163.375 C 499.00000000000006,163.375 499.00000000000006,76.875 530.6666666666667,76.875 C 562.3333333333334,76.875 562.3333333333334,103.375 594,103.375 C 625.6666666666667,103.375 625.6666666666667,201.25 657.3333333333334,201.25 C 689,201.25 689,193.625 720.6666666666667,193.625 C 752.3333333333334,193.625 752.3333333333334,202 784,202 L 784,202.75 C 752.3333333333334,202.75 752.3333333333334,196 720.6666666666667,196 C 689,196 689,202.125 657.3333333333334,202.125 C 625.6666666666667,202.125 625.6666666666667,123.25 594,123.25 C 562.3333333333334,123.25 562.3333333333334,101.875 530.6666666666667,101.875 C 499.00000000000006,101.875 499.00000000000006,171.625 467.33333333333337,171.625 C 435.6666666666667,171.625 435.6666666666667,195.5 404,195.5 C 372.33333333333337,195.5 372.33333333333337,206 340.6666666666667,206 C 309,206 309,204.25 277.33333333333337,204.25 C 245.66666666666669,204.25 245.66666666666669,205.5 214,205.5 C 182.33333333333334,205.5 182.33333333333334,206 150.66666666666669,206 C 119.00000000000001,206 119.00000000000001,206 87.33333333333334,206 C 55.66666666666667,206 55.66666666666667,206 24,206 Z" fill="#3178c6" fill-opacity="0.75" class="fade-4"/><path key="Go" d="M 24,206 C 55.66666666666667,206 55.66666666666667,206 87.33333333333334,206 C 119.00000000000001,206 119.00000000000001,206 150.66666666666669,206 C 182.33333333333334,206 182.33333333333334,205.5 214,205.5 C 245.66666666666669,205.5 245.66666666666669,204.25 277.33333333333337,204.25 C 309,204.25 309,206 340.6666666666667,206 C 372.33333333333337,206 372.33333333333337,195.5 404,195.5 C 435.6666666666667,195.5 435.6666666666667,171.625 467.33333333333337,171.625 C 499.00000000000006,171.625 499.00000000000006,101.875 530.6666666666667,101.875 C 562.3333333333334,101.875 562.3333333333334,123.25 594,123.25 C 625.6666666666667,123.25 625.6666666666667,202.125 657.3333333333334,202.125 C 689,202.125 689,196 720.6666666666667,196 C 752.3333333333334,196 752.3333333333334,202.75 784,202.75 L 784,203.625 C 752.3333333333334,203.625 752.3333333333334,198.75 720.6666666666667,198.75 C 689,198.75 689,203.125 657.3333333333334,203.125 C 625.6666666666667,203.125 625.6666666666667,145.625 594,145.625 C 562.3333333333334,145.625 562.3333333333334,130 530.6666666666667,130 C 499.00000000000006,130 499.00000000000006,180.875 467.33333333333337,180.875 C 435.6666666666667,180.875 435.6666666666667,198.375 404,198.375 C 372.33333333333337,198.375 372.33333333333337,206 340.6666666666667,206 C 309,206 309,204.75 277.33333333333337,204.75 C 245.66666666666669,204.75 245.66666666666669,205.625 214,205.625 C 182.33333333333334,205.625 182.33333333333334,206 150.66666666666669,206 C 119.00000000000001,206 119.00000000000001,206 87.33333333333334,206 C 55.66666666666667,206 55.66666666666667,206 24,206 Z" fill="#00ADD8" fill-opacity="0.75" class="fade-5"/><path key="Rust" d="M 24,206 C 55.66666666666667,206 55.66666666666667,206 87.33333333333334,206 C 119.00000000000001,206 119.00000000000001,206 150.66666666666669,206 C 182.33333333333334,206 182.33333333333334,205.625 214,205.625 C 245.66666666666669,205.625 245.66666666666669,204.75 277.33333333333337,204.75 C 309,204.75 309,206 340.6666666666667,206 C 372.33333333333337,206 372.33333333333337,198.375 404,198.375 C 435.6666666666667,198.375 435.6666666666667,180.875 467.33333333333337,180.875 C 499.00000000000006,180.875 499.00000000000006,130 530.6666666666667,130 C 562.3333333333334,130 562.3333333333334,145.625 594,145.625 C 625.6666666666667,145.625 625.6666666666667,203.125 657.3333333333334,203.125 C 689,203.125 689,198.75 720.6666666666667,198.75 C 752.3333333333334,198.75 752.3333333333334,203.625 784,203.625 L 784,206 C 752.3333333333334,206 752.3333333333334,206 720.6666666666667,206 C 689,206 689,206 657.3333333333334,206 C 625.6666666666667,206 625.6666666666667,206 594,206 C 562.3333333333334,206 562.3333333333334,206 530.6666666666667,206 C 499.00000000000006,206 499.00000000000006,206 467.33333333333337,206 C 435.6666666666667,206 435.6666666666667,206 404,206 C 372.33333333333337,206 372.33333333333337,206 340.6666666666667,206 C 309,206 309,206 277.33333333333337,206 C 245.66666666666669,206 245.66666666666669,206 214,206 C 182.33333333333334,206 182.33333333333334,206 150.66666666666669,206 C 119.00000000000001,206 119.00000000000001,206 87.33333333333334,206 C 55.66666666666667,206 55.66666666666667,206 24,206 Z" fill="#dea584" fill-opacity="0.75" class="fade-6"/><rect x="24" y="212" width="8" height="8" rx="2" fill="#dea584" opacity="0.85"/><text x="36" y="220" class="t t-value">Rust</text><rect x="80" y="212" width="8" height="8" rx="2" fill="#00ADD8" opacity="0.85"/><text x="92" y="220" class="t t-value">Go</text><rect x="122" y="212" width="8" height="8" rx="2" fill="#3178c6" opacity="0.85"/><text x="134" y="220" class="t t-value">TypeScript</text><rect x="220" y="212" width="8" height="8" rx="2" fill="#3572A5" opacity="0.85"/><text x="232" y="220" class="t t-value">Python</text><rect x="290" y="212" width="8" height="8" rx="2" fill="#b07219" opacity="0.85"/><text x="302" y="220" class="t t-value">Java</text><rect x="346" y="212" width="8" height="8" rx="2" fill="#000080" opacity="0.85"/><text x="358" y="220" class="t t-value">Lua</text><text key="Jul" x="24" y="220" class="t t-value" text-anchor="start" opacity="0">Jul</text><text key="Sep" x="150.66666666666669" y="220" class="t t-value" text-anchor="start" opacity="0">Sep</text><text key="Nov" x="277.33333333333337" y="220" class="t t-value" text-anchor="start" opacity="0">Nov</text><text key="Jan" x="404" y="220" class="t t-value" text-anchor="start" opacity="0">Jan</text><text key="Mar" x="530.6666666666667" y="220" class="t t-value" text-anchor="start" opacity="0">Mar</text><text key="May" x="657.3333333333334" y="220" class="t t-value" text-anchor="start" opacity="0">May</text><text key="Jul" x="784" y="220" class="t t-value" text-anchor="start" opacity="0">Jul</text><text x="24" y="282" class="t t-h">CONTRIBUTION RHYTHM</text><text x="24" y="298" class="t t-sub">Activity patterns and statistics over the past year</text><circle key="0.25" cx="144" cy="428" r="22.5" fill="none" class="border-stroke" stroke-width="1" stroke-opacity="0.4"/><circle key="0.5" cx="144" cy="428" r="45" fill="none" class="border-stroke" stroke-width="1" stroke-opacity="0.4"/><circle key="0.75" cx="144" cy="428" r="67.5" fill="none" class="border-stroke" stroke-width="1" stroke-opacity="0.4"/><circle key="1" cx="144" cy="428" r="90" fill="none" class="border-stroke" stroke-width="1" stroke-opacity="0.4"/><line key="Sun" x1="144" y1="428" x2="144" y2="338" class="border-stroke" stroke-width="1" stroke-opacity="0.3"/><line key="Mon" x1="144" y1="428" x2="214.36483342212267" y2="371.885917832714" class="border-stroke" stroke-width="1" stroke-opacity="0.3"/><line key="Tue" x1="144" y1="428" x2="231.74351209636413" y2="448.0268840560683" class="border-stroke" stroke-width="1" stroke-opacity="0.3"/><line key="Wed" x1="144" y1="428" x2="183.04953652058023" y2="509.08719811121773" class="border-stroke" stroke-width="1" stroke-opacity="0.3"/><line key="Thu" x1="144" y1="428" x2="104.95046347941977" y2="509.08719811121773" class="border-stroke" stroke-width="1" stroke-opacity="0.3"/><line key="Fri" x1="144" y1="428" x2="56.25648790363587" y2="448.0268840560683" class="border-stroke" stroke-width="1" stroke-opacity="0.3"/><line key="Sat" x1="144" y1="428" x2="73.63516657787731" y2="371.885917832714" class="border-stroke" stroke-width="1" stroke-opacity="0.3"/><polygon points="144,338 166.9342494403084,409.7105463773629 172.33292015220638,434.46680413515827 166.49978340388628,474.72128165641305 129.81449732854804,457.45649981840404 112.56816670614606,435.1741108374412 103.10177189592062,395.38475143455423" fill="#58a6ff" fill-opacity="0.2" stroke="#58a6ff" stroke-width="2" stroke-opacity="0.8" class="fade-2" style="transform-origin: 144px 428px"/><circle key="Sun" cx="144" cy="338" r="3" fill="#58a6ff" class="fade-1"/><circle key="Mon" cx="166.9342494403084" cy="409.7105463773629" r="3" fill="#58a6ff" class="fade-2"/><circle key="Tue" cx="172.33292015220638" cy="434.46680413515827" r="3" fill="#58a6ff" class="fade-3"/><circle key="Wed" cx="166.49978340388628" cy="474.72128165641305" r="3" fill="#58a6ff" class="fade-4"/><circle key="Thu" cx="129.81449732854804" cy="457.45649981840404" r="3" fill="#58a6ff" class="fade-5"/><circle key="Fri" cx="112.56816670614606" cy="435.1741108374412" r="3" fill="#58a6ff" class="fade-6"/><circle key="Sat" cx="103.10177189592062" cy="395.38475143455423" r="3" fill="#58a6ff" class="fade-6"/><text key="Sun" x="144" y="326" class="t t-value" text-anchor="middle">Sun</text><text key="Mon" x="226.87413714161116" y="365.91008100297427" class="t t-value" text-anchor="middle">Mon</text><text key="Tue" x="247.34235869127332" y="455.5872189993693" class="t t-value" text-anchor="middle">Tue</text><text key="Wed" x="189.99167634646116" y="527.5026999976565" class="t t-value" text-anchor="middle">Wed</text><text key="Thu" x="98.00832365353884" y="527.5026999976565" class="t t-value" text-anchor="middle">Thu</text><text key="Fri" x="40.657641308726696" y="455.5872189993693" class="t t-value" text-anchor="middle">Fri</text><text key="Sat" x="61.12586285838883" y="365.91008100297427" class="t t-value" text-anchor="middle">Sat</text><text x="324" y="338" class="t t-stat-label">COMMITS</text><text x="324" y="360" fill="#58a6ff" class="t t-stat-value">2,985</text><text x="324" y="380" class="t t-stat-label">PRS</text><text x="324" y="402" fill="#3fb950" class="t t-stat-value">230</text><text x="324" y="422" class="t t-stat-label">REVIEWS</text><text x="324" y="444" fill="#d29922" class="t t-stat-value">5</text><text x="324" y="464" class="t t-stat-label">REPOS</text><text x="324" y="486" fill="#bc8cff" class="t t-stat-value">30</text><text x="324" y="506" class="t t-stat-label">STREAK</text><text x="324" y="528" fill="#39d2c0" class="t t-stat-value">41d</text><text x="24" y="614" class="t t-h">OPEN SOURCE IMPACT</text><text x="24" y="630" class="t t-sub">External repositories contributed to</text><text x="24" y="664" class="t t-card-title fade-1">googleapis/python-aiplatform</text><rect x="280" y="654" width="340" height="12" rx="3" fill="#58a6ff" fill-opacity="0.7" class="fade-1"/><text x="636" y="664" class="t t-value fade-1">★ 899</text><text x="728" y="664" class="t t-value fade-1">Python</text><text x="24" y="710" class="t t-card-title fade-2">MathisWellmann/gym-rs</text><rect x="280" y="700" width="244.05414731738597" height="12" rx="3" fill="#3fb950" fill-opacity="0.7" class="fade-2"/><text x="636" y="710" class="t t-value fade-2">★ 131</text><text x="728" y="710" class="t t-value fade-2">Rust</text><text x="24" y="782" class="t t-h">TECH STACK</text><text x="24" y="798" class="t t-sub">Projects arranged by abstraction layer</text><rect x="24" y="808" width="760" height="124" rx="8" fill="#bc8cff" fill-opacity="0.08" class="fade-1"/><text x="40" y="844" class="t t-subhdr fade-1" fill-opacity="0.9">AI &amp; RESEARCH</text><rect x="40" y="856" width="176" height="52" rx="6" class="card-fill fade-1"/><text x="50" y="876" class="t t-card-title fade-1">glassbox-lm</text><text x="206" y="876" class="t t-value fade-1" text-anchor="end" font-size="9">★ 0</text><circle cx="54" cy="894" r="3" fill="#3572A5" fill-opacity="0.8" class="fade-1"/><text x="62" y="897" class="t muted-fill fade-1" font-size="9">Python</text><rect x="24" y="940" width="760" height="124" rx="8" fill="#d29922" fill-opacity="0.08" class="fade-2"/><text x="40" y="976" class="t t-subhdr fade-2" fill-opacity="0.9">APPLICATIONS</text><rect x="40" y="988" width="176" height="52" rx="6" class="card-fill fade-2"/><text x="50" y="1008" class="t t-card-title fade-2">urmzd.com</text><text x="206" y="1008" class="t t-value fade-2" text-anchor="end" font-size="9">★ 1</text><circle cx="54" cy="1026" r="3" fill="#3178c6" fill-opacity="0.8" class="fade-2"/><text x="62" y="1029" class="t muted-fill fade-2" font-size="9">TypeScript</text><rect x="228" y="988" width="176" height="52" rx="6" class="card-fill fade-2"/><text x="238" y="1008" class="t t-card-title fade-2">languide</text><text x="394" y="1008" class="t t-value fade-2" text-anchor="end" font-size="9">★ 0</text><circle cx="242" cy="1026" r="3" fill="#8b949e" fill-opacity="0.8" class="fade-2"/><text x="250" y="1029" class="t muted-fill fade-2" font-size="9">Other</text><rect x="416" y="988" width="176" height="52" rx="6" class="card-fill fade-2"/><text x="426" y="1008" class="t t-card-title fade-2">urmzd</text><text x="582" y="1008" class="t t-value fade-2" text-anchor="end" font-size="9">★ 0</text><circle cx="430" cy="1026" r="3" fill="#8b949e" fill-opacity="0.8" class="fade-2"/><text x="438" y="1029" class="t muted-fill fade-2" font-size="9">Other</text><rect x="24" y="1072" width="760" height="124" rx="8" fill="#58a6ff" fill-opacity="0.08" class="fade-3"/><text x="40" y="1108" class="t t-subhdr fade-3" fill-opacity="0.9">LIBRARIES &amp; SDKS</text><rect x="40" y="1120" width="176" height="52" rx="6" class="card-fill fade-3"/><text x="50" y="1140" class="t t-card-title fade-3">linear-gp</text><text x="206" y="1140" class="t t-value fade-3" text-anchor="end" font-size="9">★ 2</text><circle cx="54" cy="1158" r="3" fill="#dea584" fill-opacity="0.8" class="fade-3"/><text x="62" y="1161" class="t muted-fill fade-3" font-size="9">Rust</text><rect x="228" y="1120" width="176" height="52" rx="6" class="card-fill fade-3"/><text x="238" y="1140" class="t t-card-title fade-3">saige</text><text x="394" y="1140" class="t t-value fade-3" text-anchor="end" font-size="9">★ 4</text><circle cx="242" cy="1158" r="3" fill="#00ADD8" fill-opacity="0.8" class="fade-3"/><text x="250" y="1161" class="t muted-fill fade-3" font-size="9">Go</text><rect x="416" y="1120" width="176" height="52" rx="6" class="card-fill fade-3"/><text x="426" y="1140" class="t t-card-title fade-3">streamsafe</text><text x="582" y="1140" class="t t-value fade-3" text-anchor="end" font-size="9">★ 0</text><circle cx="430" cy="1158" r="3" fill="#dea584" fill-opacity="0.8" class="fade-3"/><text x="438" y="1161" class="t muted-fill fade-3" font-size="9">Rust</text><rect x="24" y="1204" width="760" height="124" rx="8" fill="#3fb950" fill-opacity="0.08" class="fade-4"/><text x="40" y="1240" class="t t-subhdr fade-4" fill-opacity="0.9">INFRASTRUCTURE &amp; DEVOPS</text><rect x="40" y="1252" width="176" height="52" rx="6" class="card-fill fade-4"/><text x="50" y="1272" class="t t-card-title fade-4">incipit</text><text x="206" y="1272" class="t t-value fade-4" text-anchor="end" font-size="9">★ 12</text><circle cx="54" cy="1290" r="3" fill="#00ADD8" fill-opacity="0.8" class="fade-4"/><text x="62" y="1293" class="t muted-fill fade-4" font-size="9">Go</text><rect x="228" y="1252" width="176" height="52" rx="6" class="card-fill fade-4"/><text x="238" y="1272" class="t t-card-title fade-4">zigbee-skill</text><text x="394" y="1272" class="t t-value fade-4" text-anchor="end" font-size="9">★ 0</text><circle cx="242" cy="1290" r="3" fill="#00ADD8" fill-opacity="0.8" class="fade-4"/><text x="250" y="1293" class="t muted-fill fade-4" font-size="9">Go</text><rect x="416" y="1252" width="176" height="52" rx="6" class="card-fill fade-4"/><text x="426" y="1272" class="t t-card-title fade-4">generative-artifact…</text><text x="582" y="1272" class="t t-value fade-4" text-anchor="end" font-size="9">★ 1</text><circle cx="430" cy="1290" r="3" fill="#dea584" fill-opacity="0.8" class="fade-4"/><text x="438" y="1293" class="t muted-fill fade-4" font-size="9">Rust</text></svg>