<svg xmlns="http://www.w3.org/2000/svg" width="808" height="1862" viewBox="0 0 808 1862"><defs><style>
  .t { font-family: -apple-system,BlinkMacSystemFont,Segoe UI,Helvetica,Arial,sans-serif; font-variant-numeric: tabular-lining; }
  .t-h { font-size: 14px; fill: #c9d1d9; letter-spacing: 2px; font-weight: 600; }
  .t-sub { font-size: 11px; fill: #6e7681; }
  .t-label { font-size: 12px; fill: #8b949e; }
  .t-value { font-size: 11px; fill: #6e7681; }
  .t-subhdr { font-size: 11px; fill: #8b949e; letter-spacing: 1px; font-weight: 600; }
  .t-stat-label { font-size: 10px; fill: #8b949e; font-weight: 600; }
  .t-stat-value { font-size: 22px; font-weight: 700; }
  .t-card-title { font-size: 12px; fill: #58a6ff; font-weight: 700; }
  .t-card-detail { font-size: 11px; fill: #8b949e; }
  .t-pill { font-size: 11px; font-weight: 600; }
  .t-bullet { font-size: 12px; fill: #c9d1d9; }
  .bg-fill { fill: #0d1117; }
  .card-fill { fill: #161b22; }
  .border-stroke { stroke: #30363d; }

  @media (prefers-color-scheme: light) {
    .bg-fill { fill: #ffffff; }
    .card-fill { fill: #f6f8fa; }
    .border-stroke { stroke: #d0d7de; }
    .t-h { fill: #1f2328; }
    .t-sub { fill: #656d76; }
    .t-label { fill: #656d76; }
    .t-value { fill: #656d76; }
    .t-subhdr { fill: #656d76; }
    .t-stat-label { fill: #656d76; }
    .t-card-title { fill: #0969da; }
    .t-card-detail { fill: #656d76; }
    .t-bullet { fill: #1f2328; }
  }

  @keyframes fadeIn {
    from { opacity: 0; transform: translateY(8px); }
    to { opacity: 1; transform: translateY(0); }
  }
  @keyframes scaleIn {
    from { transform: scale(0); opacity: 0; }
    to { transform: scale(1); opacity: 1; }
  }
  @keyframes drawPath {
    from { stroke-dashoffset: var(--path-length); }
    to { stroke-dashoffset: 0; }
  }
  @keyframes radarReveal {
    from { transform: scale(0); opacity: 0; }
    to { transform: scale(1); opacity: 0.6; }
  }
  .fade-1 { animation: fadeIn 0.6s ease-out 0.1s both; }
  .fade-2 { animation: fadeIn 0.6s ease-out 0.25s both; }
  .fade-3 { animation: fadeIn 0.6s ease-out 0.4s both; }
  .fade-4 { animation: fadeIn 0.6s ease-out 0.55s both; }
  .fade-5 { animation: fadeIn 0.6s ease-out 0.7s both; }
  .fade-6 { animation: fadeIn 0.6s ease-out 0.85s both; }
</style></defs><rect width="808" height="1862" rx="12" class="bg-fill" fill="#0d1117"/><text x="24" y="40" class="t t-h">LANGUAGE VELOCITY</text><text x="24" y="56" class="t t-sub">How language usage has evolved over the past year</text><path key="Java" d="M 24,206 C 55.66666666666667,206 55.66666666666667,206 87.33333333333334,206 C 119.00000000000001,206 119.00000000000001,205.66265060240963 150.66666666666669,205.66265060240963 C 182.33333333333334,205.66265060240963 182.33333333333334,205.43775100401606 214,205.43775100401606 C 245.66666666666669,205.43775100401606 245.66666666666669,205.88755020080322 277.33333333333337,205.88755020080322 C 309,205.88755020080322 309,206 340.6666666666667,206 C 372.33333333333337,206 372.33333333333337,201.72690763052208 404,201.72690763052208 C 435.6666666666667,201.72690763052208 435.6666666666667,205.32530120481928 467.33333333333337,205.32530120481928 C 499.00000000000006,205.32530120481928 499.00000000000006,202.73895582329317 530.6666666666667,202.73895582329317 C 562.3333333333334,202.73895582329317 562.3333333333334,205.43775100401606 594,205.43775100401606 C 625.6666666666667,205.43775100401606 625.6666666666667,186.43373493975903 657.3333333333334,186.43373493975903 C 689,186.43373493975903 689,149.43775100401606 720.6666666666667,149.43775100401606 C 752.3333333333334,149.43775100401606 752.3333333333334,66 784,66 L 784,69.71084337349399 C 752.3333333333334,69.71084337349399 752.3333333333334,150.8995983935743 720.6666666666667,150.8995983935743 C 689,150.8995983935743 689,186.99598393574297 657.3333333333334,186.99598393574297 C 625.6666666666667,186.99598393574297 625.6666666666667,205.43775100401606 594,205.43775100401606 C 562.3333333333334,205.43775100401606 562.3333333333334,202.85140562248995 530.6666666666667,202.85140562248995 C 499.00000000000006,202.85140562248995 499.00000000000006,205.32530120481928 467.33333333333337,205.32530120481928 C 435.6666666666667,205.32530120481928 435.6666666666667,201.8393574297189 404,201.8393574297189 C 372.33333333333337,201.8393574297189 372.33333333333337,206 340.6666666666667,206 C 309,206 309,205.88755020080322 277.33333333333337,205.88755020080322 C 245.66666666666669,205.88755020080322 245.66666666666669,205.43775100401606 214,205.43775100401606 C 182.33333333333334,205.43775100401606 182.33333333333334,205.66265060240963 150.66666666666669,205.66265060240963 C 119.00000000000001,205.66265060240963 119.00000000000001,206 87.33333333333334,206 C 55.66666666666667,206 55.66666666666667,206 24,206 Z" fill="#b07219" fill-opacity="0.75" class="fade-1"/><path key="TeX" d="M 24,206 C 55.66666666666667,206 55.66666666666667,206 87.33333333333334,206 C 119.00000000000001,206 119.00000000000001,205.66265060240963 150.66666666666669,205.66265060240963 C 182.33333333333334,205.66265060240963 182.33333333333334,205.43775100401606 214,205.43775100401606 C 245.66666666666669,205.43775100401606 245.66666666666669,205.88755020080322 277.33333333333337,205.88755020080322 C 309,205.88755020080322 309,206 340.6666666666667,206 C 372.33333333333337,206 372.33333333333337,201.8393574297189 404,201.8393574297189 C 435.6666666666667,201.8393574297189 435.6666666666667,205.32530120481928 467.33333333333337,205.32530120481928 C 499.00000000000006,205.32530120481928 499.00000000000006,202.85140562248995 530.6666666666667,202.85140562248995 C 562.3333333333334,202.85140562248995 562.3333333333334,205.43775100401606 594,205.43775100401606 C 625.6666666666667,205.43775100401606 625.6666666666667,186.99598393574297 657.3333333333334,186.99598393574297 C 689,186.99598393574297 689,150.8995983935743 720.6666666666667,150.8995983935743 C 752.3333333333334,150.8995983935743 752.3333333333334,69.71084337349399 784,69.71084337349399 L 784,73.42168674698794 C 752.3333333333334,73.42168674698794 752.3333333333334,152.4738955823293 720.6666666666667,152.4738955823293 C 689,152.4738955823293 689,187.5582329317269 657.3333333333334,187.5582329317269 C 625.6666666666667,187.5582329317269 625.6666666666667,205.43775100401606 594,205.43775100401606 C 562.3333333333334,205.43775100401606 562.3333333333334,202.96385542168676 530.6666666666667,202.96385542168676 C 499.00000000000006,202.96385542168676 499.00000000000006,205.32530120481928 467.33333333333337,205.32530120481928 C 435.6666666666667,205.32530120481928 435.6666666666667,201.95180722891567 404,201.95180722891567 C 372.33333333333337,201.95180722891567 372.33333333333337,206 340.6666666666667,206 C 309,206 309,205.88755020080322 277.33333333333337,205.88755020080322 C 245.66666666666669,205.88755020080322 245.66666666666669,205.43775100401606 214,205.43775100401606 C 182.33333333333334,205.43775100401606 182.33333333333334,205.66265060240963 150.66666666666669,205.66265060240963 C 119.00000000000001,205.66265060240963 119.00000000000001,206 87.33333333333334,206 C 55.66666666666667,206 55.66666666666667,206 24,206 Z" fill="#3D6117" fill-opacity="0.75" class="fade-2"/><path key="Python" d="M 24,206 C 55.66666666666667,206 55.66666666666667,206 87.33333333333334,206 C 119.00000000000001,206 119.00000000000001,205.66265060240963 150.66666666666669,205.66265060240963 C 182.33333333333334,205.66265060240963 182.33333333333334,205.43775100401606 214,205.43775100401606 C 245.66666666666669,205.43775100401606 245.66666666666669,205.88755020080322 277.33333333333337,205.88755020080322 C 309,205.88755020080322 309,206 340.6666666666667,206 C 372.33333333333337,206 372.33333333333337,201.95180722891567 404,201.95180722891567 C 435.6666666666667,201.95180722891567 435.6666666666667,205.32530120481928 467.33333333333337,205.32530120481928 C 499.00000000000006,205.32530120481928 499.00000000000006,202.96385542168676 530.6666666666667,202.96385542168676 C 562.3333333333334,202.96385542168676 562.3333333333334,205.43775100401606 594,205.43775100401606 C 625.6666666666667,205.43775100401606 625.6666666666667,187.5582329317269 657.3333333333334,187.5582329317269 C 689,187.5582329317269 689,152.4738955823293 720.6666666666667,152.4738955823293 C 752.3333333333334,152.4738955823293 752.3333333333334,73.42168674698794 784,73.42168674698794 L 784,82.30522088353413 C 752.3333333333334,82.30522088353413 752.3333333333334,156.0722891566265 720.6666666666667,156.0722891566265 C 689,156.0722891566265 689,188.79518072289156 657.3333333333334,188.79518072289156 C 625.6666666666667,188.79518072289156 625.6666666666667,205.43775100401606 594,205.43775100401606 C 562.3333333333334,205.43775100401606 562.3333333333334,203.18875502008032 530.6666666666667,203.18875502008032 C 499.00000000000006,203.18875502008032 499.00000000000006,205.32530120481928 467.33333333333337,205.32530120481928 C 435.6666666666667,205.32530120481928 435.6666666666667,202.17670682730923 404,202.17670682730923 C 372.33333333333337,202.17670682730923 372.33333333333337,206 340.6666666666667,206 C 309,206 309,205.88755020080322 277.33333333333337,205.88755020080322 C 245.66666666666669,205.88755020080322 245.66666666666669,205.43775100401606 214,205.43775100401606 C 182.33333333333334,205.43775100401606 182.33333333333334,205.66265060240963 150.66666666666669,205.66265060240963 C 119.00000000000001,205.66265060240963 119.00000000000001,206 87.33333333333334,206 C 55.66666666666667,206 55.66666666666667,206 24,206 Z" fill="#3572A5" fill-opacity="0.75" class="fade-3"/><path key="JavaScript" d="M 24,206 C 55.66666666666667,206 55.66666666666667,206 87.33333333333334,206 C 119.00000000000001,206 119.00000000000001,205.66265060240963 150.66666666666669,205.66265060240963 C 182.33333333333334,205.66265060240963 182.33333333333334,205.43775100401606 214,205.43775100401606 C 245.66666666666669,205.43775100401606 245.66666666666669,205.88755020080322 277.33333333333337,205.88755020080322 C 309,205.88755020080322 309,206 340.6666666666667,206 C 372.33333333333337,206 372.33333333333337,202.17670682730923 404,202.17670682730923 C 435.6666666666667,202.17670682730923 435.6666666666667,205.32530120481928 467.33333333333337,205.32530120481928 C 499.00000000000006,205.32530120481928 499.00000000000006,203.18875502008032 530.6666666666667,203.18875502008032 C 562.3333333333334,203.18875502008032 562.3333333333334,205.43775100401606 594,205.43775100401606 C 625.6666666666667,205.43775100401606 625.6666666666667,188.79518072289156 657.3333333333334,188.79518072289156 C 689,188.79518072289156 689,156.0722891566265 720.6666666666667,156.0722891566265 C 752.3333333333334,156.0722891566265 752.3333333333334,82.30522088353413 784,82.30522088353413 L 784,93.55020080321285 C 752.3333333333334,93.55020080321285 752.3333333333334,160.570281124498 720.6666666666667,160.570281124498 C 689,160.570281124498 689,190.36947791164658 657.3333333333334,190.36947791164658 C 625.6666666666667,190.36947791164658 625.6666666666667,205.43775100401606 594,205.43775100401606 C 562.3333333333334,205.43775100401606 562.3333333333334,203.41365461847388 530.6666666666667,203.41365461847388 C 499.00000000000006,203.41365461847388 499.00000000000006,205.43775100401606 467.33333333333337,205.43775100401606 C 435.6666666666667,205.43775100401606 435.6666666666667,202.5140562248996 404,202.5140562248996 C 372.33333333333337,202.5140562248996 372.33333333333337,206 340.6666666666667,206 C 309,206 309,205.88755020080322 277.33333333333337,205.88755020080322 C 245.66666666666669,205.88755020080322 245.66666666666669,205.43775100401606 214,205.43775100401606 C 182.33333333333334,205.43775100401606 182.33333333333334,205.66265060240963 150.66666666666669,205.66265060240963 C 119.00000000000001,205.66265060240963 119.00000000000001,206 87.33333333333334,206 C 55.66666666666667,206 55.66666666666667,206 24,206 Z" fill="#f1e05a" fill-opacity="0.75" class="fade-4"/><path key="Shell" d="M 24,206 C 55.66666666666667,206 55.66666666666667,206 87.33333333333334,206 C 119.00000000000001,206 119.00000000000001,205.66265060240963 150.66666666666669,205.66265060240963 C 182.33333333333334,205.66265060240963 182.33333333333334,205.43775100401606 214,205.43775100401606 C 245.66666666666669,205.43775100401606 245.66666666666669,205.88755020080322 277.33333333333337,205.88755020080322 C 309,205.88755020080322 309,206 340.6666666666667,206 C 372.33333333333337,206 372.33333333333337,202.5140562248996 404,202.5140562248996 C 435.6666666666667,202.5140562248996 435.6666666666667,205.43775100401606 467.33333333333337,205.43775100401606 C 499.00000000000006,205.43775100401606 499.00000000000006,203.41365461847388 530.6666666666667,203.41365461847388 C 562.3333333333334,203.41365461847388 562.3333333333334,205.43775100401606 594,205.43775100401606 C 625.6666666666667,205.43775100401606 625.6666666666667,190.36947791164658 657.3333333333334,190.36947791164658 C 689,190.36947791164658 689,160.570281124498 720.6666666666667,160.570281124498 C 752.3333333333334,160.570281124498 752.3333333333334,93.55020080321285 784,93.55020080321285 L 784,109.7429718875502 C 752.3333333333334,109.7429718875502 752.3333333333334,167.09236947791163 720.6666666666667,167.09236947791163 C 689,167.09236947791163 689,192.61847389558233 657.3333333333334,192.61847389558233 C 625.6666666666667,192.61847389558233 625.6666666666667,205.55020080321285 594,205.55020080321285 C 562.3333333333334,205.55020080321285 562.3333333333334,203.75100401606426 530.6666666666667,203.75100401606426 C 499.00000000000006,203.75100401606426 499.00000000000006,205.55020080321285 467.33333333333337,205.55020080321285 C 435.6666666666667,205.55020080321285 435.6666666666667,202.96385542168676 404,202.96385542168676 C 372.33333333333337,202.96385542168676 372.33333333333337,206 340.6666666666667,206 C 309,206 309,205.88755020080322 277.33333333333337,205.88755020080322 C 245.66666666666669,205.88755020080322 245.66666666666669,205.55020080321285 214,205.55020080321285 C 182.33333333333334,205.55020080321285 182.33333333333334,205.66265060240963 150.66666666666669,205.66265060240963 C 119.00000000000001,205.66265060240963 119.00000000000001,206 87.33333333333334,206 C 55.66666666666667,206 55.66666666666667,206 24,206 Z" fill="#89e051" fill-opacity="0.75" class="fade-5"/><path key="TypeScript" d="M 24,206 C 55.66666666666667,206 55.66666666666667,206 87.33333333333334,206 C 119.00000000000001,206 119.00000000000001,205.66265060240963 150.66666666666669,205.66265060240963 C 182.33333333333334,205.66265060240963 182.33333333333334,205.55020080321285 214,205.55020080321285 C 245.66666666666669,205.55020080321285 245.66666666666669,205.88755020080322 277.33333333333337,205.88755020080322 C 309,205.88755020080322 309,206 340.6666666666667,206 C 372.33333333333337,206 372.33333333333337,202.96385542168676 404,202.96385542168676 C 435.6666666666667,202.96385542168676 435.6666666666667,205.55020080321285 467.33333333333337,205.55020080321285 C 499.00000000000006,205.55020080321285 499.00000000000006,203.75100401606426 530.6666666666667,203.75100401606426 C 562.3333333333334,203.75100401606426 562.3333333333334,205.55020080321285 594,205.55020080321285 C 625.6666666666667,205.55020080321285 625.6666666666667,192.61847389558233 657.3333333333334,192.61847389558233 C 689,192.61847389558233 689,167.09236947791163 720.6666666666667,167.09236947791163 C 752.3333333333334,167.09236947791163 752.3333333333334,109.7429718875502 784,109.7429718875502 L 784,133.58232931726906 C 752.3333333333334,133.58232931726906 752.3333333333334,176.76305220883535 720.6666666666667,176.76305220883535 C 689,176.76305220883535 689,195.87951807228916 657.3333333333334,195.87951807228916 C 625.6666666666667,195.87951807228916 625.6666666666667,205.66265060240963 594,205.66265060240963 C 562.3333333333334,205.66265060240963 562.3333333333334,204.3132530120482 530.6666666666667,204.3132530120482 C 499.00000000000006,204.3132530120482 499.00000000000006,205.66265060240963 467.33333333333337,205.66265060240963 C 435.6666666666667,205.66265060240963 435.6666666666667,203.75100401606426 404,203.75100401606426 C 372.33333333333337,203.75100401606426 372.33333333333337,206 340.6666666666667,206 C 309,206 309,205.88755020080322 277.33333333333337,205.88755020080322 C 245.66666666666669,205.88755020080322 245.66666666666669,205.66265060240963 214,205.66265060240963 C 182.33333333333334,205.66265060240963 182.33333333333334,205.77510040160644 150.66666666666669,205.77510040160644 C 119.00000000000001,205.77510040160644 119.00000000000001,206 87.33333333333334,206 C 55.66666666666667,206 55.66666666666667,206 24,206 Z" fill="#3178c6" fill-opacity="0.75" class="fade-6"/><path key="Go" d="M 24,206 C 55.66666666666667,206 55.66666666666667,206 87.33333333333334,206 C 119.00000000000001,206 119.00000000000001,205.77510040160644 150.66666666666669,205.77510040160644 C 182.33333333333334,205.77510040160644 182.33333333333334,205.66265060240963 214,205.66265060240963 C 245.66666666666669,205.66265060240963 245.66666666666669,205.88755020080322 277.33333333333337,205.88755020080322 C 309,205.88755020080322 309,206 340.6666666666667,206 C 372.33333333333337,206 372.33333333333337,203.75100401606426 404,203.75100401606426 C 435.6666666666667,203.75100401606426 435.6666666666667,205.66265060240963 467.33333333333337,205.66265060240963 C 499.00000000000006,205.66265060240963 499.00000000000006,204.3132530120482 530.6666666666667,204.3132530120482 C 562.3333333333334,204.3132530120482 562.3333333333334,205.66265060240963 594,205.66265060240963 C 625.6666666666667,205.66265060240963 625.6666666666667,195.87951807228916 657.3333333333334,195.87951807228916 C 689,195.87951807228916 689,176.76305220883535 720.6666666666667,176.76305220883535 C 752.3333333333334,176.76305220883535 752.3333333333334,133.58232931726906 784,133.58232931726906 L 784,157.53413654618475 C 752.3333333333334,157.53413654618475 752.3333333333334,186.43373493975903 720.6666666666667,186.43373493975903 C 689,186.43373493975903 689,199.25301204819277 657.3333333333334,199.25301204819277 C 625.6666666666667,199.25301204819277 625.6666666666667,205.77510040160644 594,205.77510040160644 C 562.3333333333334,205.77510040160644 562.3333333333334,204.87550200803213 530.6666666666667,204.87550200803213 C 499.00000000000006,204.87550200803213 499.00000000000006,205.77510040160644 467.33333333333337,205.77510040160644 C 435.6666666666667,205.77510040160644 435.6666666666667,204.53815261044176 404,204.53815261044176 C 372.33333333333337,204.53815261044176 372.33333333333337,206 340.6666666666667,206 C 309,206 309,205.88755020080322 277.33333333333337,205.88755020080322 C 245.66666666666669,205.88755020080322 245.66666666666669,205.77510040160644 214,205.77510040160644 C 182.33333333333334,205.77510040160644 182.33333333333334,205.88755020080322 150.66666666666669,205.88755020080322 C 119.00000000000001,205.88755020080322 119.00000000000001,206 87.33333333333334,206 C 55.66666666666667,206 55.66666666666667,206 24,206 Z" fill="#00ADD8" fill-opacity="0.75" class="fade-6"/><path key="Rust" d="M 24,206 C 55.66666666666667,206 55.66666666666667,206 87.33333333333334,206 C 119.00000000000001,206 119.00000000000001,205.88755020080322 150.66666666666669,205.88755020080322 C 182.33333333333334,205.88755020080322 182.33333333333334,205.77510040160644 214,205.77510040160644 C 245.66666666666669,205.77510040160644 245.66666666666669,205.88755020080322 277.33333333333337,205.88755020080322 C 309,205.88755020080322 309,206 340.6666666666667,206 C 372.33333333333337,206 372.33333333333337,204.53815261044176 404,204.53815261044176 C 435.6666666666667,204.53815261044176 435.6666666666667,205.77510040160644 467.33333333333337,205.77510040160644 C 499.00000000000006,205.77510040160644 499.00000000000006,204.87550200803213 530.6666666666667,204.87550200803213 C 562.3333333333334,204.87550200803213 562.3333333333334,205.77510040160644 594,205.77510040160644 C 625.6666666666667,205.77510040160644 625.6666666666667,199.25301204819277 657.3333333333334,199.25301204819277 C 689,199.25301204819277 689,186.43373493975903 720.6666666666667,186.43373493975903 C 752.3333333333334,186.43373493975903 752.3333333333334,157.53413654618475 784,157.53413654618475 L 784,206 C 752.3333333333334,206 752.3333333333334,206 720.6666666666667,206 C 689,206 689,206 657.3333333333334,206 C 625.6666666666667,206 625.6666666666667,206 594,206 C 562.3333333333334,206 562.3333333333334,206 530.6666666666667,206 C 499.00000000000006,206 499.00000000000006,206 467.33333333333337,206 C 435.6666666666667,206 435.6666666666667,206 404,206 C 372.33333333333337,206 372.33333333333337,206 340.6666666666667,206 C 309,206 309,206 277.33333333333337,206 C 245.66666666666669,206 245.66666666666669,206 214,206 C 182.33333333333334,206 182.33333333333334,206 150.66666666666669,206 C 119.00000000000001,206 119.00000000000001,206 87.33333333333334,206 C 55.66666666666667,206 55.66666666666667,206 24,206 Z" fill="#dea584" fill-opacity="0.75" class="fade-6"/><rect x="24" y="212" width="8" height="8" rx="2" fill="#dea584" opacity="0.85"/><text x="36" y="220" class="t t-value">Rust</text><rect x="80" y="212" width="8" height="8" rx="2" fill="#00ADD8" opacity="0.85"/><text x="92" y="220" class="t t-value">Go</text><rect x="122" y="212" width="8" height="8" rx="2" fill="#3178c6" opacity="0.85"/><text x="134" y="220" class="t t-value">TypeScript</text><rect x="220" y="212" width="8" height="8" rx="2" fill="#89e051" opacity="0.85"/><text x="232" y="220" class="t t-value">Shell</text><rect x="283" y="212" width="8" height="8" rx="2" fill="#f1e05a" opacity="0.85"/><text x="295" y="220" class="t t-value">JavaScript</text><rect x="381" y="212" width="8" height="8" rx="2" fill="#3572A5" opacity="0.85"/><text x="393" y="220" class="t t-value">Python</text><rect x="451" y="212" width="8" height="8" rx="2" fill="#3D6117" opacity="0.85"/><text x="463" y="220" class="t t-value">TeX</text><rect x="500" y="212" width="8" height="8" rx="2" fill="#b07219" opacity="0.85"/><text x="512" y="220" class="t t-value">Java</text><text key="Mar" x="24" y="220" class="t t-value" text-anchor="start" opacity="0">Mar</text><text key="May" x="150.66666666666669" y="220" class="t t-value" text-anchor="start" opacity="0">May</text><text key="Jul" x="277.33333333333337" y="220" class="t t-value" text-anchor="start" opacity="0">Jul</text><text key="Sep" x="404" y="220" class="t t-value" text-anchor="start" opacity="0">Sep</text><text key="Nov" x="530.6666666666667" y="220" class="t t-value" text-anchor="start" opacity="0">Nov</text><text key="Jan" x="657.3333333333334" y="220" class="t t-value" text-anchor="start" opacity="0">Jan</text><text key="Mar" x="784" y="220" class="t t-value" text-anchor="start" opacity="0">Mar</text><text x="24" y="282" class="t t-h">CONTRIBUTION RHYTHM</text><text x="24" y="298" class="t t-sub">Activity patterns and statistics over the past year</text><circle key="0.25" cx="144" cy="428" r="22.5" fill="none" stroke="#30363d" stroke-width="1" stroke-opacity="0.4"/><circle key="0.5" cx="144" cy="428" r="45" fill="none" stroke="#30363d" stroke-width="1" stroke-opacity="0.4"/><circle key="0.75" cx="144" cy="428" r="67.5" fill="none" stroke="#30363d" stroke-width="1" stroke-opacity="0.4"/><circle key="1" cx="144" cy="428" r="90" fill="none" stroke="#30363d" stroke-width="1" stroke-opacity="0.4"/><line key="Sun" x1="144" y1="428" x2="144" y2="338" stroke="#30363d" stroke-width="1" stroke-opacity="0.3"/><line key="Mon" x1="144" y1="428" x2="214.36483342212267" y2="371.885917832714" stroke="#30363d" stroke-width="1" stroke-opacity="0.3"/><line key="Tue" x1="144" y1="428" x2="231.74351209636413" y2="448.0268840560683" stroke="#30363d" stroke-width="1" stroke-opacity="0.3"/><line key="Wed" x1="144" y1="428" x2="183.04953652058023" y2="509.08719811121773" stroke="#30363d" stroke-width="1" stroke-opacity="0.3"/><line key="Thu" x1="144" y1="428" x2="104.95046347941977" y2="509.08719811121773" stroke="#30363d" stroke-width="1" stroke-opacity="0.3"/><line key="Fri" x1="144" y1="428" x2="56.25648790363587" y2="448.0268840560683" stroke="#30363d" stroke-width="1" stroke-opacity="0.3"/><line key="Sat" x1="144" y1="428" x2="73.63516657787731" y2="371.885917832714" stroke="#30363d" stroke-width="1" stroke-opacity="0.3"/><polygon points="144,338 170.2621504268395,407.0566338997688 173.57025447027075,434.74921761889544 164.78542258890727,471.16137474266395 131.27046604762188,454.4331496205072 119.54235962038354,433.58229681562847 82.27840595886246,378.7786712327901" fill="#58a6ff" fill-opacity="0.2" stroke="#58a6ff" stroke-width="2" stroke-opacity="0.8" class="fade-2" style="transform-origin: 144px 428px"/><circle key="Sun" cx="144" cy="338" r="3" fill="#58a6ff" class="fade-1"/><circle key="Mon" cx="170.2621504268395" cy="407.0566338997688" r="3" fill="#58a6ff" class="fade-2"/><circle key="Tue" cx="173.57025447027075" cy="434.74921761889544" r="3" fill="#58a6ff" class="fade-3"/><circle key="Wed" cx="164.78542258890727" cy="471.16137474266395" r="3" fill="#58a6ff" class="fade-4"/><circle key="Thu" cx="131.27046604762188" cy="454.4331496205072" r="3" fill="#58a6ff" class="fade-5"/><circle key="Fri" cx="119.54235962038354" cy="433.58229681562847" r="3" fill="#58a6ff" class="fade-6"/><circle key="Sat" cx="82.27840595886246" cy="378.7786712327901" r="3" fill="#58a6ff" class="fade-6"/><text key="Sun" x="144" y="326" class="t t-value" text-anchor="middle">Sun</text><text key="Mon" x="226.87413714161116" y="365.91008100297427" class="t t-value" text-anchor="middle">Mon</text><text key="Tue" x="247.34235869127332" y="455.5872189993693" class="t t-value" text-anchor="middle">Tue</text><text key="Wed" x="189.99167634646116" y="527.5026999976565" class="t t-value" text-anchor="middle">Wed</text><text key="Thu" x="98.00832365353884" y="527.5026999976565" class="t t-value" text-anchor="middle">Thu</text><text key="Fri" x="40.657641308726696" y="455.5872189993693" class="t t-value" text-anchor="middle">Fri</text><text key="Sat" x="61.12586285838883" y="365.91008100297427" class="t t-value" text-anchor="middle">Sat</text><text x="324" y="338" class="t t-stat-label">COMMITS</text><text x="324" y="360" fill="#58a6ff" class="t t-stat-value">2,101</text><text x="324" y="380" class="t t-stat-label">PRS</text><text x="324" y="402" fill="#3fb950" class="t t-stat-value">78</text><text x="324" y="422" class="t t-stat-label">REVIEWS</text><text x="324" y="444" fill="#d29922" class="t t-stat-value">5</text><text x="324" y="464" class="t t-stat-label">REPOS</text><text x="324" y="486" fill="#bc8cff" class="t t-stat-value">27</text><text x="324" y="506" class="t t-stat-label">STREAK</text><text x="324" y="528" fill="#39d2c0" class="t t-stat-value">20d</text><text x="24" y="614" class="t t-h">PROJECT CONSTELLATION</text><text x="24" y="630" class="t t-sub">Top projects ranked by complexity, grouped by primary language</text><circle cx="29" cy="656" r="5" fill="#00ADD8" fill-opacity="0.8" class="fade-1"/><text x="40" y="660" class="t t-subhdr fade-1">Go</text><line x1="204" y1="656" x2="644" y2="656" stroke="#30363d" stroke-opacity="0.3" stroke-width="1"/><text x="32" y="688" class="t t-card-title fade-1">incipit</text><rect x="204" y="680" width="380" height="14" rx="4" fill="#00ADD8" fill-opacity="0.7" class="fade-1"/><text x="604" y="688" class="t t-value fade-1">★ 11</text><circle cx="36" cy="712" r="3" fill="#6e7681" fill-opacity="0.6" class="fade-1"/><text x="42" y="715" class="t fade-1" font-size="9" fill="#6e7681">TeX</text><circle cx="74" cy="712" r="3" fill="#6e7681" fill-opacity="0.6" class="fade-1"/><text x="80" y="715" class="t fade-1" font-size="9" fill="#6e7681">HTML</text><circle cx="118" cy="712" r="3" fill="#6e7681" fill-opacity="0.6" class="fade-1"/><text x="124" y="715" class="t fade-1" font-size="9" fill="#6e7681">Shell</text><circle cx="168" cy="712" r="3" fill="#6e7681" fill-opacity="0.6" class="fade-1"/><text x="174" y="715" class="t fade-1" font-size="9" fill="#6e7681">Just</text><text x="32" y="748" class="t t-card-title fade-2">zigbee-skill</text><rect x="204" y="740" width="285.83788039004423" height="14" rx="4" fill="#00ADD8" fill-opacity="0.7" class="fade-2"/><text x="604" y="748" class="t t-value fade-2">★ 0</text><circle cx="36" cy="772" r="3" fill="#6e7681" fill-opacity="0.6" class="fade-2"/><text x="42" y="775" class="t fade-2" font-size="9" fill="#6e7681">Just</text><circle cx="80" cy="772" r="3" fill="#6e7681" fill-opacity="0.6" class="fade-2"/><text x="86" y="775" class="t fade-2" font-size="9" fill="#6e7681">Shell</text><text x="32" y="808" class="t t-card-title fade-3">saige</text><rect x="204" y="800" width="191.3230745009375" height="14" rx="4" fill="#00ADD8" fill-opacity="0.7" class="fade-3"/><text x="604" y="808" class="t t-value fade-3">★ 0</text><circle cx="36" cy="832" r="3" fill="#6e7681" fill-opacity="0.6" class="fade-3"/><text x="42" y="835" class="t fade-3" font-size="9" fill="#6e7681">Go Templa…</text><circle cx="116" cy="832" r="3" fill="#6e7681" fill-opacity="0.6" class="fade-3"/><text x="122" y="835" class="t fade-3" font-size="9" fill="#6e7681">Shell</text><circle cx="166" cy="832" r="3" fill="#6e7681" fill-opacity="0.6" class="fade-3"/><text x="172" y="835" class="t fade-3" font-size="9" fill="#6e7681">Just</text><circle cx="210" cy="832" r="3" fill="#6e7681" fill-opacity="0.6" class="fade-3"/><text x="216" y="835" class="t fade-3" font-size="9" fill="#6e7681">Dockerfile</text><circle cx="29" cy="884" r="5" fill="#DA5B0B" fill-opacity="0.8" class="fade-4"/><text x="40" y="888" class="t t-subhdr fade-4">Jupyter Notebook</text><line x1="204" y1="884" x2="644" y2="884" stroke="#30363d" stroke-opacity="0.3" stroke-width="1"/><text x="32" y="916" class="t t-card-title fade-4">lepus-classifier</text><rect x="204" y="908" width="322.05988911012616" height="14" rx="4" fill="#DA5B0B" fill-opacity="0.7" class="fade-4"/><text x="604" y="916" class="t t-value fade-4">★ 2</text><circle cx="36" cy="940" r="3" fill="#3572A5" fill-opacity="0.6" class="fade-4"/><text x="42" y="943" class="t fade-4" font-size="9" fill="#6e7681">Python</text><circle cx="92" cy="940" r="3" fill="#6e7681" fill-opacity="0.6" class="fade-4"/><text x="98" y="943" class="t fade-4" font-size="9" fill="#6e7681">Shell</text><text x="32" y="976" class="t t-card-title fade-5">md-classifier</text><rect x="204" y="968" width="159.07692223390364" height="14" rx="4" fill="#DA5B0B" fill-opacity="0.7" class="fade-5"/><text x="604" y="976" class="t t-value fade-5">★ 2</text><circle cx="36" cy="1000" r="3" fill="#3572A5" fill-opacity="0.6" class="fade-5"/><text x="42" y="1003" class="t fade-5" font-size="9" fill="#6e7681">Python</text><circle cx="92" cy="1000" r="3" fill="#6e7681" fill-opacity="0.6" class="fade-5"/><text x="98" y="1003" class="t fade-5" font-size="9" fill="#6e7681">Shell</text><circle cx="29" cy="1052" r="5" fill="#dea584" fill-opacity="0.8" class="fade-6"/><text x="40" y="1056" class="t t-subhdr fade-6">Rust</text><line x1="204" y1="1052" x2="644" y2="1052" stroke="#30363d" stroke-opacity="0.3" stroke-width="1"/><text x="32" y="1084" class="t t-card-title fade-6">linear-gp</text><rect x="204" y="1076" width="293.5556842234219" height="14" rx="4" fill="#dea584" fill-opacity="0.7" class="fade-6"/><text x="604" y="1084" class="t t-value fade-6">★ 3</text><circle cx="36" cy="1108" r="3" fill="#6e7681" fill-opacity="0.6" class="fade-6"/><text x="42" y="1111" class="t fade-6" font-size="9" fill="#6e7681">Shell</text><circle cx="86" cy="1108" r="3" fill="#6e7681" fill-opacity="0.6" class="fade-6"/><text x="92" y="1111" class="t fade-6" font-size="9" fill="#6e7681">Just</text><text x="32" y="1144" class="t t-card-title fade-6">teasr</text><rect x="204" y="1136" width="166.87959021927202" height="14" rx="4" fill="#dea584" fill-opacity="0.7" class="fade-6"/><text x="604" y="1144" class="t t-value fade-6">★ 0</text><circle cx="36" cy="1168" r="3" fill="#6e7681" fill-opacity="0.6" class="fade-6"/><text x="42" y="1171" class="t fade-6" font-size="9" fill="#6e7681">HTML</text><circle cx="80" cy="1168" r="3" fill="#6e7681" fill-opacity="0.6" class="fade-6"/><text x="86" y="1171" class="t fade-6" font-size="9" fill="#6e7681">Shell</text><circle cx="130" cy="1168" r="3" fill="#6e7681" fill-opacity="0.6" class="fade-6"/><text x="136" y="1171" class="t fade-6" font-size="9" fill="#6e7681">Just</text><text x="32" y="1204" class="t t-card-title fade-6">oag</text><rect x="204" y="1196" width="144.56359438434404" height="14" rx="4" fill="#dea584" fill-opacity="0.7" class="fade-6"/><text x="604" y="1204" class="t t-value fade-6">★ 0</text><circle cx="36" cy="1228" r="3" fill="#6e7681" fill-opacity="0.6" class="fade-6"/><text x="42" y="1231" class="t fade-6" font-size="9" fill="#6e7681">Jinja</text><circle cx="86" cy="1228" r="3" fill="#6e7681" fill-opacity="0.6" class="fade-6"/><text x="92" y="1231" class="t fade-6" font-size="9" fill="#6e7681">Shell</text><circle cx="136" cy="1228" r="3" fill="#6e7681" fill-opacity="0.6" class="fade-6"/><text x="142" y="1231" class="t fade-6" font-size="9" fill="#6e7681">Just</text><circle cx="29" cy="1280" r="5" fill="#3178c6" fill-opacity="0.8" class="fade-6"/><text x="40" y="1284" class="t t-subhdr fade-6">TypeScript</text><line x1="204" y1="1280" x2="644" y2="1280" stroke="#30363d" stroke-opacity="0.3" stroke-width="1"/><text x="32" y="1312" class="t t-card-title fade-6">urmzd.com</text><rect x="204" y="1304" width="281.3565749384055" height="14" rx="4" fill="#3178c6" fill-opacity="0.7" class="fade-6"/><text x="604" y="1312" class="t t-value fade-6">★ 1</text><circle cx="36" cy="1336" r="3" fill="#6e7681" fill-opacity="0.6" class="fade-6"/><text x="42" y="1339" class="t fade-6" font-size="9" fill="#6e7681">MDX</text><circle cx="74" cy="1336" r="3" fill="#6e7681" fill-opacity="0.6" class="fade-6"/><text x="80" y="1339" class="t fade-6" font-size="9" fill="#6e7681">Astro</text><circle cx="124" cy="1336" r="3" fill="#6e7681" fill-opacity="0.6" class="fade-6"/><text x="130" y="1339" class="t fade-6" font-size="9" fill="#6e7681">CSS</text><circle cx="162" cy="1336" r="3" fill="#6e7681" fill-opacity="0.6" class="fade-6"/><text x="168" y="1339" class="t fade-6" font-size="9" fill="#6e7681">HTML</text><circle cx="206" cy="1336" r="3" fill="#6e7681" fill-opacity="0.6" class="fade-6"/><text x="212" y="1339" class="t fade-6" font-size="9" fill="#6e7681">JavaScript</text><text x="32" y="1372" class="t t-card-title fade-6">zoro</text><rect x="204" y="1364" width="176.53627536758432" height="14" rx="4" fill="#3178c6" fill-opacity="0.7" class="fade-6"/><text x="604" y="1372" class="t t-value fade-6">★ 0</text><circle cx="36" cy="1396" r="3" fill="#00ADD8" fill-opacity="0.6" class="fade-6"/><text x="42" y="1399" class="t fade-6" font-size="9" fill="#6e7681">Go</text><circle cx="68" cy="1396" r="3" fill="#6e7681" fill-opacity="0.6" class="fade-6"/><text x="74" y="1399" class="t fade-6" font-size="9" fill="#6e7681">CSS</text><circle cx="106" cy="1396" r="3" fill="#3572A5" fill-opacity="0.6" class="fade-6"/><text x="112" y="1399" class="t fade-6" font-size="9" fill="#6e7681">Python</text><circle cx="162" cy="1396" r="3" fill="#6e7681" fill-opacity="0.6" class="fade-6"/><text x="168" y="1399" class="t fade-6" font-size="9" fill="#6e7681">Just</text><circle cx="206" cy="1396" r="3" fill="#6e7681" fill-opacity="0.6" class="fade-6"/><text x="212" y="1399" class="t fade-6" font-size="9" fill="#6e7681">Shell</text><circle cx="29" cy="1448" r="5" fill="#3572A5" fill-opacity="0.8" class="fade-6"/><text x="40" y="1452" class="t t-subhdr fade-6">Python</text><line x1="204" y1="1448" x2="644" y2="1448" stroke="#30363d" stroke-opacity="0.3" stroke-width="1"/><text x="32" y="1480" class="t t-card-title fade-6">exp-agi-models</text><rect x="204" y="1472" width="258.79916197476973" height="14" rx="4" fill="#3572A5" fill-opacity="0.7" class="fade-6"/><text x="604" y="1480" class="t t-value fade-6">★ 0</text><circle cx="36" cy="1504" r="3" fill="#6e7681" fill-opacity="0.6" class="fade-6"/><text x="42" y="1507" class="t fade-6" font-size="9" fill="#6e7681">Shell</text><text x="32" y="1540" class="t t-card-title fade-6">fighter-iq</text><rect x="204" y="1532" width="109.2827443092796" height="14" rx="4" fill="#3572A5" fill-opacity="0.7" class="fade-6"/><text x="604" y="1540" class="t t-value fade-6">★ 0</text><circle cx="36" cy="1564" r="3" fill="#6e7681" fill-opacity="0.6" class="fade-6"/><text x="42" y="1567" class="t fade-6" font-size="9" fill="#6e7681">Just</text><text x="24" y="1640" class="t t-h">OPEN SOURCE IMPACT</text><text x="24" y="1656" class="t t-sub">External repositories contributed to</text><text x="24" y="1690" class="t t-card-title fade-1">getzep/graphiti</text><rect x="280" y="1680" width="340" height="12" rx="3" fill="#58a6ff" fill-opacity="0.7" class="fade-1"/><text x="636" y="1690" class="t t-value fade-1">★ 24,340</text><text x="728" y="1690" class="t t-value fade-1">Python</text><text x="24" y="1736" class="t t-card-title fade-2">googleapis/python-aiplatform</text><rect x="280" y="1726" width="228.1602649891173" height="12" rx="3" fill="#3fb950" fill-opacity="0.7" class="fade-2"/><text x="636" y="1736" class="t t-value fade-2">★ 877</text><text x="728" y="1736" class="t t-value fade-2">Python</text><text x="24" y="1782" class="t t-card-title fade-3">MathisWellmann/gym-rs</text><rect x="280" y="1772" width="163.07297732832407" height="12" rx="3" fill="#d29922" fill-opacity="0.7" class="fade-3"/><text x="636" y="1782" class="t t-value fade-3">★ 126</text><text x="728" y="1782" class="t t-value fade-3">Rust</text></svg>