<svg xmlns="http://www.w3.org/2000/svg" width="808" height="1736" viewBox="0 0 808 1736"><defs><style>
  .t { font-family: -apple-system,BlinkMacSystemFont,Segoe UI,Helvetica,Arial,sans-serif; font-variant-numeric: tabular-lining; }
  .t-h { font-size: 14px; fill: #c9d1d9; letter-spacing: 2px; font-weight: 600; }
  .t-sub { font-size: 11px; fill: #6e7681; }
  .t-label { font-size: 12px; fill: #8b949e; }
  .t-value { font-size: 11px; fill: #6e7681; }
  .t-subhdr { font-size: 11px; fill: #8b949e; letter-spacing: 1px; font-weight: 600; }
  .t-stat-label { font-size: 10px; fill: #8b949e; font-weight: 600; }
  .t-stat-value { font-size: 22px; font-weight: 700; }
  .t-card-title { font-size: 12px; fill: #58a6ff; font-weight: 700; }
  .t-card-detail { font-size: 11px; fill: #8b949e; }
  .t-pill { font-size: 11px; font-weight: 600; }
  .t-bullet { font-size: 12px; fill: #c9d1d9; }
  .bg-fill { fill: #0d1117; }
  .card-fill { fill: #161b22; }
  .border-stroke { stroke: #30363d; }

  @media (prefers-color-scheme: light) {
    .bg-fill { fill: #ffffff; }
    .card-fill { fill: #f6f8fa; }
    .border-stroke { stroke: #d0d7de; }
    .t-h { fill: #1f2328; }
    .t-sub { fill: #656d76; }
    .t-label { fill: #656d76; }
    .t-value { fill: #656d76; }
    .t-subhdr { fill: #656d76; }
    .t-stat-label { fill: #656d76; }
    .t-card-title { fill: #0969da; }
    .t-card-detail { fill: #656d76; }
    .t-bullet { fill: #1f2328; }
  }

  @keyframes fadeIn {
    from { opacity: 0; transform: translateY(8px); }
    to { opacity: 1; transform: translateY(0); }
  }
  @keyframes scaleIn {
    from { transform: scale(0); opacity: 0; }
    to { transform: scale(1); opacity: 1; }
  }
  @keyframes drawPath {
    from { stroke-dashoffset: var(--path-length); }
    to { stroke-dashoffset: 0; }
  }
  @keyframes radarReveal {
    from { transform: scale(0); opacity: 0; }
    to { transform: scale(1); opacity: 0.6; }
  }
  .fade-1 { animation: fadeIn 0.6s ease-out 0.1s both; }
  .fade-2 { animation: fadeIn 0.6s ease-out 0.25s both; }
  .fade-3 { animation: fadeIn 0.6s ease-out 0.4s both; }
  .fade-4 { animation: fadeIn 0.6s ease-out 0.55s both; }
  .fade-5 { animation: fadeIn 0.6s ease-out 0.7s both; }
  .fade-6 { animation: fadeIn 0.6s ease-out 0.85s both; }
</style></defs><rect width="808" height="1736" rx="12" class="bg-fill" fill="#0d1117"/><text x="24" y="40" class="t t-h">LANGUAGE VELOCITY</text><text x="24" y="56" class="t t-sub">How language usage has evolved over the past year</text><path key="Lua" d="M 24,206 C 55.66666666666667,206 55.66666666666667,205.76006855184232 87.33333333333334,205.76006855184232 C 119.00000000000001,205.76006855184232 119.00000000000001,205.52013710368468 150.66666666666669,205.52013710368468 C 182.33333333333334,205.52013710368468 182.33333333333334,205.76006855184232 214,205.76006855184232 C 245.66666666666669,205.76006855184232 245.66666666666669,206 277.33333333333337,206 C 309,206 309,206 340.6666666666667,206 C 372.33333333333337,206 372.33333333333337,205.40017137960584 404,205.40017137960584 C 435.6666666666667,205.40017137960584 435.6666666666667,203.84061696658097 467.33333333333337,203.84061696658097 C 499.00000000000006,203.84061696658097 499.00000000000006,206 530.6666666666667,206 C 562.3333333333334,206 562.3333333333334,192.20394173093402 594,192.20394173093402 C 625.6666666666667,192.20394173093402 625.6666666666667,159.33333333333334 657.3333333333334,159.33333333333334 C 689,159.33333333333334 689,66 720.6666666666667,66 C 752.3333333333334,66 752.3333333333334,160.77292202227935 784,160.77292202227935 L 784,161.01285347043702 C 752.3333333333334,161.01285347043702 752.3333333333334,66.83976006855184 720.6666666666667,66.83976006855184 C 689,66.83976006855184 689,159.573264781491 657.3333333333334,159.573264781491 C 625.6666666666667,159.573264781491 625.6666666666667,192.32390745501286 594,192.32390745501286 C 562.3333333333334,192.32390745501286 562.3333333333334,206 530.6666666666667,206 C 499.00000000000006,206 499.00000000000006,203.84061696658097 467.33333333333337,203.84061696658097 C 435.6666666666667,203.84061696658097 435.6666666666667,205.40017137960584 404,205.40017137960584 C 372.33333333333337,205.40017137960584 372.33333333333337,206 340.6666666666667,206 C 309,206 309,206 277.33333333333337,206 C 245.66666666666669,206 245.66666666666669,205.76006855184232 214,205.76006855184232 C 182.33333333333334,205.76006855184232 182.33333333333334,205.52013710368468 150.66666666666669,205.52013710368468 C 119.00000000000001,205.52013710368468 119.00000000000001,205.76006855184232 87.33333333333334,205.76006855184232 C 55.66666666666667,205.76006855184232 55.66666666666667,206 24,206 Z" fill="#000080" fill-opacity="0.75" class="fade-1"/><path key="Java" d="M 24,206 C 55.66666666666667,206 55.66666666666667,205.76006855184232 87.33333333333334,205.76006855184232 C 119.00000000000001,205.76006855184232 119.00000000000001,205.52013710368468 150.66666666666669,205.52013710368468 C 182.33333333333334,205.52013710368468 182.33333333333334,205.76006855184232 214,205.76006855184232 C 245.66666666666669,205.76006855184232 245.66666666666669,206 277.33333333333337,206 C 309,206 309,206 340.6666666666667,206 C 372.33333333333337,206 372.33333333333337,205.40017137960584 404,205.40017137960584 C 435.6666666666667,205.40017137960584 435.6666666666667,203.84061696658097 467.33333333333337,203.84061696658097 C 499.00000000000006,203.84061696658097 499.00000000000006,206 530.6666666666667,206 C 562.3333333333334,206 562.3333333333334,192.32390745501286 594,192.32390745501286 C 625.6666666666667,192.32390745501286 625.6666666666667,159.573264781491 657.3333333333334,159.573264781491 C 689,159.573264781491 689,66.83976006855184 720.6666666666667,66.83976006855184 C 752.3333333333334,66.83976006855184 752.3333333333334,161.01285347043702 784,161.01285347043702 L 784,161.9725792630677 C 752.3333333333334,161.9725792630677 752.3333333333334,69.71893744644387 720.6666666666667,69.71893744644387 C 689,69.71893744644387 689,160.53299057412167 657.3333333333334,160.53299057412167 C 625.6666666666667,160.53299057412167 625.6666666666667,192.56383890317053 594,192.56383890317053 C 562.3333333333334,192.56383890317053 562.3333333333334,206 530.6666666666667,206 C 499.00000000000006,206 499.00000000000006,203.84061696658097 467.33333333333337,203.84061696658097 C 435.6666666666667,203.84061696658097 435.6666666666667,205.40017137960584 404,205.40017137960584 C 372.33333333333337,205.40017137960584 372.33333333333337,206 340.6666666666667,206 C 309,206 309,206 277.33333333333337,206 C 245.66666666666669,206 245.66666666666669,205.76006855184232 214,205.76006855184232 C 182.33333333333334,205.76006855184232 182.33333333333334,205.52013710368468 150.66666666666669,205.52013710368468 C 119.00000000000001,205.52013710368468 119.00000000000001,205.76006855184232 87.33333333333334,205.76006855184232 C 55.66666666666667,205.76006855184232 55.66666666666667,206 24,206 Z" fill="#b07219" fill-opacity="0.75" class="fade-2"/><path key="Python" d="M 24,206 C 55.66666666666667,206 55.66666666666667,205.76006855184232 87.33333333333334,205.76006855184232 C 119.00000000000001,205.76006855184232 119.00000000000001,205.52013710368468 150.66666666666669,205.52013710368468 C 182.33333333333334,205.52013710368468 182.33333333333334,205.76006855184232 214,205.76006855184232 C 245.66666666666669,205.76006855184232 245.66666666666669,206 277.33333333333337,206 C 309,206 309,206 340.6666666666667,206 C 372.33333333333337,206 372.33333333333337,205.40017137960584 404,205.40017137960584 C 435.6666666666667,205.40017137960584 435.6666666666667,203.84061696658097 467.33333333333337,203.84061696658097 C 499.00000000000006,203.84061696658097 499.00000000000006,206 530.6666666666667,206 C 562.3333333333334,206 562.3333333333334,192.56383890317053 594,192.56383890317053 C 625.6666666666667,192.56383890317053 625.6666666666667,160.53299057412167 657.3333333333334,160.53299057412167 C 689,160.53299057412167 689,69.71893744644387 720.6666666666667,69.71893744644387 C 752.3333333333334,69.71893744644387 752.3333333333334,161.9725792630677 784,161.9725792630677 L 784,169.65038560411313 C 752.3333333333334,169.65038560411313 752.3333333333334,93.59211653813196 720.6666666666667,93.59211653813196 C 689,93.59211653813196 689,168.45072836332477 657.3333333333334,168.45072836332477 C 625.6666666666667,168.45072836332477 625.6666666666667,194.96315338474722 594,194.96315338474722 C 562.3333333333334,194.96315338474722 562.3333333333334,206 530.6666666666667,206 C 499.00000000000006,206 499.00000000000006,204.20051413881748 467.33333333333337,204.20051413881748 C 435.6666666666667,204.20051413881748 435.6666666666667,205.52013710368468 404,205.52013710368468 C 372.33333333333337,205.52013710368468 372.33333333333337,206 340.6666666666667,206 C 309,206 309,206 277.33333333333337,206 C 245.66666666666669,206 245.66666666666669,205.76006855184232 214,205.76006855184232 C 182.33333333333334,205.76006855184232 182.33333333333334,205.64010282776349 150.66666666666669,205.64010282776349 C 119.00000000000001,205.64010282776349 119.00000000000001,205.76006855184232 87.33333333333334,205.76006855184232 C 55.66666666666667,205.76006855184232 55.66666666666667,206 24,206 Z" fill="#3572A5" fill-opacity="0.75" class="fade-3"/><path key="TypeScript" d="M 24,206 C 55.66666666666667,206 55.66666666666667,205.76006855184232 87.33333333333334,205.76006855184232 C 119.00000000000001,205.76006855184232 119.00000000000001,205.64010282776349 150.66666666666669,205.64010282776349 C 182.33333333333334,205.64010282776349 182.33333333333334,205.76006855184232 214,205.76006855184232 C 245.66666666666669,205.76006855184232 245.66666666666669,206 277.33333333333337,206 C 309,206 309,206 340.6666666666667,206 C 372.33333333333337,206 372.33333333333337,205.52013710368468 404,205.52013710368468 C 435.6666666666667,205.52013710368468 435.6666666666667,204.20051413881748 467.33333333333337,204.20051413881748 C 499.00000000000006,204.20051413881748 499.00000000000006,206 530.6666666666667,206 C 562.3333333333334,206 562.3333333333334,194.96315338474722 594,194.96315338474722 C 625.6666666666667,194.96315338474722 625.6666666666667,168.45072836332477 657.3333333333334,168.45072836332477 C 689,168.45072836332477 689,93.59211653813196 720.6666666666667,93.59211653813196 C 752.3333333333334,93.59211653813196 752.3333333333334,169.65038560411313 784,169.65038560411313 L 784,178.52784918594688 C 752.3333333333334,178.52784918594688 752.3333333333334,121.06426735218508 720.6666666666667,121.06426735218508 C 689,121.06426735218508 689,177.5681233933162 657.3333333333334,177.5681233933162 C 625.6666666666667,177.5681233933162 625.6666666666667,197.60239931448157 594,197.60239931448157 C 562.3333333333334,197.60239931448157 562.3333333333334,206 530.6666666666667,206 C 499.00000000000006,206 499.00000000000006,204.6803770351328 467.33333333333337,204.6803770351328 C 435.6666666666667,204.6803770351328 435.6666666666667,205.64010282776349 404,205.64010282776349 C 372.33333333333337,205.64010282776349 372.33333333333337,206 340.6666666666667,206 C 309,206 309,206 277.33333333333337,206 C 245.66666666666669,206 245.66666666666669,205.76006855184232 214,205.76006855184232 C 182.33333333333334,205.76006855184232 182.33333333333334,205.76006855184232 150.66666666666669,205.76006855184232 C 119.00000000000001,205.76006855184232 119.00000000000001,205.76006855184232 87.33333333333334,205.76006855184232 C 55.66666666666667,205.76006855184232 55.66666666666667,206 24,206 Z" fill="#3178c6" fill-opacity="0.75" class="fade-4"/><path key="Go" d="M 24,206 C 55.66666666666667,206 55.66666666666667,205.76006855184232 87.33333333333334,205.76006855184232 C 119.00000000000001,205.76006855184232 119.00000000000001,205.76006855184232 150.66666666666669,205.76006855184232 C 182.33333333333334,205.76006855184232 182.33333333333334,205.76006855184232 214,205.76006855184232 C 245.66666666666669,205.76006855184232 245.66666666666669,206 277.33333333333337,206 C 309,206 309,206 340.6666666666667,206 C 372.33333333333337,206 372.33333333333337,205.64010282776349 404,205.64010282776349 C 435.6666666666667,205.64010282776349 435.6666666666667,204.6803770351328 467.33333333333337,204.6803770351328 C 499.00000000000006,204.6803770351328 499.00000000000006,206 530.6666666666667,206 C 562.3333333333334,206 562.3333333333334,197.60239931448157 594,197.60239931448157 C 625.6666666666667,197.60239931448157 625.6666666666667,177.5681233933162 657.3333333333334,177.5681233933162 C 689,177.5681233933162 689,121.06426735218508 720.6666666666667,121.06426735218508 C 752.3333333333334,121.06426735218508 752.3333333333334,178.52784918594688 784,178.52784918594688 L 784,188.84490145672666 C 752.3333333333334,188.84490145672666 752.3333333333334,152.85518423307627 720.6666666666667,152.85518423307627 C 689,152.85518423307627 689,188.24507283633247 657.3333333333334,188.24507283633247 C 625.6666666666667,188.24507283633247 625.6666666666667,200.72150814053128 594,200.72150814053128 C 562.3333333333334,200.72150814053128 562.3333333333334,206 530.6666666666667,206 C 499.00000000000006,206 499.00000000000006,205.16023993144816 467.33333333333337,205.16023993144816 C 435.6666666666667,205.16023993144816 435.6666666666667,205.76006855184232 404,205.76006855184232 C 372.33333333333337,205.76006855184232 372.33333333333337,206 340.6666666666667,206 C 309,206 309,206 277.33333333333337,206 C 245.66666666666669,206 245.66666666666669,205.88003427592116 214,205.88003427592116 C 182.33333333333334,205.88003427592116 182.33333333333334,205.88003427592116 150.66666666666669,205.88003427592116 C 119.00000000000001,205.88003427592116 119.00000000000001,205.88003427592116 87.33333333333334,205.88003427592116 C 55.66666666666667,205.88003427592116 55.66666666666667,206 24,206 Z" fill="#00ADD8" fill-opacity="0.75" class="fade-5"/><path key="Rust" d="M 24,206 C 55.66666666666667,206 55.66666666666667,205.88003427592116 87.33333333333334,205.88003427592116 C 119.00000000000001,205.88003427592116 119.00000000000001,205.88003427592116 150.66666666666669,205.88003427592116 C 182.33333333333334,205.88003427592116 182.33333333333334,205.88003427592116 214,205.88003427592116 C 245.66666666666669,205.88003427592116 245.66666666666669,206 277.33333333333337,206 C 309,206 309,206 340.6666666666667,206 C 372.33333333333337,206 372.33333333333337,205.76006855184232 404,205.76006855184232 C 435.6666666666667,205.76006855184232 435.6666666666667,205.16023993144816 467.33333333333337,205.16023993144816 C 499.00000000000006,205.16023993144816 499.00000000000006,206 530.6666666666667,206 C 562.3333333333334,206 562.3333333333334,200.72150814053128 594,200.72150814053128 C 625.6666666666667,200.72150814053128 625.6666666666667,188.24507283633247 657.3333333333334,188.24507283633247 C 689,188.24507283633247 689,152.85518423307627 720.6666666666667,152.85518423307627 C 752.3333333333334,152.85518423307627 752.3333333333334,188.84490145672666 784,188.84490145672666 L 784,206 C 752.3333333333334,206 752.3333333333334,206 720.6666666666667,206 C 689,206 689,206 657.3333333333334,206 C 625.6666666666667,206 625.6666666666667,206 594,206 C 562.3333333333334,206 562.3333333333334,206 530.6666666666667,206 C 499.00000000000006,206 499.00000000000006,206 467.33333333333337,206 C 435.6666666666667,206 435.6666666666667,206 404,206 C 372.33333333333337,206 372.33333333333337,206 340.6666666666667,206 C 309,206 309,206 277.33333333333337,206 C 245.66666666666669,206 245.66666666666669,206 214,206 C 182.33333333333334,206 182.33333333333334,206 150.66666666666669,206 C 119.00000000000001,206 119.00000000000001,206 87.33333333333334,206 C 55.66666666666667,206 55.66666666666667,206 24,206 Z" fill="#dea584" fill-opacity="0.75" class="fade-6"/><rect x="24" y="212" width="8" height="8" rx="2" fill="#dea584" opacity="0.85"/><text x="36" y="220" class="t t-value">Rust</text><rect x="80" y="212" width="8" height="8" rx="2" fill="#00ADD8" opacity="0.85"/><text x="92" y="220" class="t t-value">Go</text><rect x="122" y="212" width="8" height="8" rx="2" fill="#3178c6" opacity="0.85"/><text x="134" y="220" class="t t-value">TypeScript</text><rect x="220" y="212" width="8" height="8" rx="2" fill="#3572A5" opacity="0.85"/><text x="232" y="220" class="t t-value">Python</text><rect x="290" y="212" width="8" height="8" rx="2" fill="#b07219" opacity="0.85"/><text x="302" y="220" class="t t-value">Java</text><rect x="346" y="212" width="8" height="8" rx="2" fill="#000080" opacity="0.85"/><text x="358" y="220" class="t t-value">Lua</text><text key="Apr" x="24" y="220" class="t t-value" text-anchor="start" opacity="0">Apr</text><text key="Jun" x="150.66666666666669" y="220" class="t t-value" text-anchor="start" opacity="0">Jun</text><text key="Aug" x="277.33333333333337" y="220" class="t t-value" text-anchor="start" opacity="0">Aug</text><text key="Oct" x="404" y="220" class="t t-value" text-anchor="start" opacity="0">Oct</text><text key="Dec" x="530.6666666666667" y="220" class="t t-value" text-anchor="start" opacity="0">Dec</text><text key="Feb" x="657.3333333333334" y="220" class="t t-value" text-anchor="start" opacity="0">Feb</text><text key="Apr" x="784" y="220" class="t t-value" text-anchor="start" opacity="0">Apr</text><text x="24" y="282" class="t t-h">CONTRIBUTION RHYTHM</text><text x="24" y="298" class="t t-sub">Activity patterns and statistics over the past year</text><circle key="0.25" cx="144" cy="428" r="22.5" fill="none" stroke="#30363d" stroke-width="1" stroke-opacity="0.4"/><circle key="0.5" cx="144" cy="428" r="45" fill="none" stroke="#30363d" stroke-width="1" stroke-opacity="0.4"/><circle key="0.75" cx="144" cy="428" r="67.5" fill="none" stroke="#30363d" stroke-width="1" stroke-opacity="0.4"/><circle key="1" cx="144" cy="428" r="90" fill="none" stroke="#30363d" stroke-width="1" stroke-opacity="0.4"/><line key="Sun" x1="144" y1="428" x2="144" y2="338" stroke="#30363d" stroke-width="1" stroke-opacity="0.3"/><line key="Mon" x1="144" y1="428" x2="214.36483342212267" y2="371.885917832714" stroke="#30363d" stroke-width="1" stroke-opacity="0.3"/><line key="Tue" x1="144" y1="428" x2="231.74351209636413" y2="448.0268840560683" stroke="#30363d" stroke-width="1" stroke-opacity="0.3"/><line key="Wed" x1="144" y1="428" x2="183.04953652058023" y2="509.08719811121773" stroke="#30363d" stroke-width="1" stroke-opacity="0.3"/><line key="Thu" x1="144" y1="428" x2="104.95046347941977" y2="509.08719811121773" stroke="#30363d" stroke-width="1" stroke-opacity="0.3"/><line key="Fri" x1="144" y1="428" x2="56.25648790363587" y2="448.0268840560683" stroke="#30363d" stroke-width="1" stroke-opacity="0.3"/><line key="Sat" x1="144" y1="428" x2="73.63516657787731" y2="371.885917832714" stroke="#30363d" stroke-width="1" stroke-opacity="0.3"/><polygon points="144,338 167.97257083484732,408.88251269611084 171.59382173513245,434.2981097445291 161.12793463937174,463.5665227577479 128.2724625324008,460.65856806686287 105.5138802115258,436.78420569631686 93.33731993607167,387.5978608395541" fill="#58a6ff" fill-opacity="0.2" stroke="#58a6ff" stroke-width="2" stroke-opacity="0.8" class="fade-2" style="transform-origin: 144px 428px"/><circle key="Sun" cx="144" cy="338" r="3" fill="#58a6ff" class="fade-1"/><circle key="Mon" cx="167.97257083484732" cy="408.88251269611084" r="3" fill="#58a6ff" class="fade-2"/><circle key="Tue" cx="171.59382173513245" cy="434.2981097445291" r="3" fill="#58a6ff" class="fade-3"/><circle key="Wed" cx="161.12793463937174" cy="463.5665227577479" r="3" fill="#58a6ff" class="fade-4"/><circle key="Thu" cx="128.2724625324008" cy="460.65856806686287" r="3" fill="#58a6ff" class="fade-5"/><circle key="Fri" cx="105.5138802115258" cy="436.78420569631686" r="3" fill="#58a6ff" class="fade-6"/><circle key="Sat" cx="93.33731993607167" cy="387.5978608395541" r="3" fill="#58a6ff" class="fade-6"/><text key="Sun" x="144" y="326" class="t t-value" text-anchor="middle">Sun</text><text key="Mon" x="226.87413714161116" y="365.91008100297427" class="t t-value" text-anchor="middle">Mon</text><text key="Tue" x="247.34235869127332" y="455.5872189993693" class="t t-value" text-anchor="middle">Tue</text><text key="Wed" x="189.99167634646116" y="527.5026999976565" class="t t-value" text-anchor="middle">Wed</text><text key="Thu" x="98.00832365353884" y="527.5026999976565" class="t t-value" text-anchor="middle">Thu</text><text key="Fri" x="40.657641308726696" y="455.5872189993693" class="t t-value" text-anchor="middle">Fri</text><text key="Sat" x="61.12586285838883" y="365.91008100297427" class="t t-value" text-anchor="middle">Sat</text><text x="324" y="338" class="t t-stat-label">COMMITS</text><text x="324" y="360" fill="#58a6ff" class="t t-stat-value">2,275</text><text x="324" y="380" class="t t-stat-label">PRS</text><text x="324" y="402" fill="#3fb950" class="t t-stat-value">142</text><text x="324" y="422" class="t t-stat-label">REVIEWS</text><text x="324" y="444" fill="#d29922" class="t t-stat-value">5</text><text x="324" y="464" class="t t-stat-label">REPOS</text><text x="324" y="486" fill="#bc8cff" class="t t-stat-value">29</text><text x="324" y="506" class="t t-stat-label">STREAK</text><text x="324" y="528" fill="#39d2c0" class="t t-stat-value">24d</text><text x="24" y="614" class="t t-h">PROJECT CONSTELLATION</text><text x="24" y="630" class="t t-sub">Top projects ranked by complexity, grouped by primary language</text><circle cx="29" cy="656" r="5" fill="#00ADD8" fill-opacity="0.8" class="fade-1"/><text x="40" y="660" class="t t-subhdr fade-1">Go</text><line x1="204" y1="656" x2="644" y2="656" stroke="#30363d" stroke-opacity="0.3" stroke-width="1"/><text x="32" y="688" class="t t-card-title fade-1">incipit</text><rect x="204" y="680" width="380" height="14" rx="4" fill="#00ADD8" fill-opacity="0.7" class="fade-1"/><text x="604" y="688" class="t t-value fade-1">★ 11</text><text x="32" y="730" class="t t-card-title fade-2">zigbee-skill</text><rect x="204" y="722" width="301.143390420497" height="14" rx="4" fill="#00ADD8" fill-opacity="0.7" class="fade-2"/><text x="604" y="730" class="t t-value fade-2">★ 0</text><text x="32" y="772" class="t t-card-title fade-3">saige</text><rect x="204" y="764" width="165.38723785551363" height="14" rx="4" fill="#00ADD8" fill-opacity="0.7" class="fade-3"/><text x="604" y="772" class="t t-value fade-3">★ 0</text><circle cx="36" cy="796" r="3" fill="#6e7681" fill-opacity="0.6" class="fade-3"/><text x="42" y="799" class="t fade-3" font-size="9" fill="#6e7681">Go Templa…</text><circle cx="29" cy="848" r="5" fill="#3572A5" fill-opacity="0.8" class="fade-4"/><text x="40" y="852" class="t t-subhdr fade-4">Python</text><line x1="204" y1="848" x2="644" y2="848" stroke="#30363d" stroke-opacity="0.3" stroke-width="1"/><text x="32" y="880" class="t t-card-title fade-4">lepus-classifier</text><rect x="204" y="872" width="339.3049472404734" height="14" rx="4" fill="#3572A5" fill-opacity="0.7" class="fade-4"/><text x="604" y="880" class="t t-value fade-4">★ 2</text><text x="32" y="922" class="t t-card-title fade-5">experimental-transforme…</text><rect x="204" y="914" width="252.30932710906504" height="14" rx="4" fill="#3572A5" fill-opacity="0.7" class="fade-5"/><text x="604" y="922" class="t t-value fade-5">★ 0</text><text x="32" y="964" class="t t-card-title fade-6">generative-artifact-pro…</text><rect x="204" y="956" width="180.19085812204065" height="14" rx="4" fill="#3572A5" fill-opacity="0.7" class="fade-6"/><text x="604" y="964" class="t t-value fade-6">★ 0</text><circle cx="36" cy="988" r="3" fill="#dea584" fill-opacity="0.6" class="fade-6"/><text x="42" y="991" class="t fade-6" font-size="9" fill="#6e7681">Rust</text><circle cx="80" cy="988" r="3" fill="#00ADD8" fill-opacity="0.6" class="fade-6"/><text x="86" y="991" class="t fade-6" font-size="9" fill="#6e7681">Go</text><circle cx="29" cy="1040" r="5" fill="#dea584" fill-opacity="0.8" class="fade-6"/><text x="40" y="1044" class="t t-subhdr fade-6">Rust</text><line x1="204" y1="1040" x2="644" y2="1040" stroke="#30363d" stroke-opacity="0.3" stroke-width="1"/><text x="32" y="1072" class="t t-card-title fade-6">linear-gp</text><rect x="204" y="1064" width="287.849938127468" height="14" rx="4" fill="#dea584" fill-opacity="0.7" class="fade-6"/><text x="604" y="1072" class="t t-value fade-6">★ 3</text><text x="32" y="1114" class="t t-card-title fade-6">teasr</text><rect x="204" y="1106" width="154.87567393471795" height="14" rx="4" fill="#dea584" fill-opacity="0.7" class="fade-6"/><text x="604" y="1114" class="t t-value fade-6">★ 0</text><text x="32" y="1156" class="t t-card-title fade-6">oag</text><rect x="204" y="1148" width="131.34884655811663" height="14" rx="4" fill="#dea584" fill-opacity="0.7" class="fade-6"/><text x="604" y="1156" class="t t-value fade-6">★ 0</text><circle cx="36" cy="1180" r="3" fill="#6e7681" fill-opacity="0.6" class="fade-6"/><text x="42" y="1183" class="t fade-6" font-size="9" fill="#6e7681">Jinja</text><circle cx="29" cy="1232" r="5" fill="#3178c6" fill-opacity="0.8" class="fade-6"/><text x="40" y="1236" class="t t-subhdr fade-6">TypeScript</text><line x1="204" y1="1232" x2="644" y2="1232" stroke="#30363d" stroke-opacity="0.3" stroke-width="1"/><text x="32" y="1264" class="t t-card-title fade-6">urmzd.com</text><rect x="204" y="1256" width="256.0171868966274" height="14" rx="4" fill="#3178c6" fill-opacity="0.7" class="fade-6"/><text x="604" y="1264" class="t t-value fade-6">★ 1</text><circle cx="36" cy="1288" r="3" fill="#6e7681" fill-opacity="0.6" class="fade-6"/><text x="42" y="1291" class="t fade-6" font-size="9" fill="#6e7681">MDX</text><circle cx="74" cy="1288" r="3" fill="#6e7681" fill-opacity="0.6" class="fade-6"/><text x="80" y="1291" class="t fade-6" font-size="9" fill="#6e7681">Astro</text><circle cx="124" cy="1288" r="3" fill="#6e7681" fill-opacity="0.6" class="fade-6"/><text x="130" y="1291" class="t fade-6" font-size="9" fill="#6e7681">JavaScript</text><text x="32" y="1324" class="t t-card-title fade-6">github-insights</text><rect x="204" y="1316" width="117.88450683650763" height="14" rx="4" fill="#3178c6" fill-opacity="0.7" class="fade-6"/><text x="604" y="1324" class="t t-value fade-6">★ 0</text><circle cx="29" cy="1382" r="5" fill="#000080" fill-opacity="0.8" class="fade-6"/><text x="40" y="1386" class="t t-subhdr fade-6">Lua</text><line x1="204" y1="1382" x2="644" y2="1382" stroke="#30363d" stroke-opacity="0.3" stroke-width="1"/><text x="32" y="1414" class="t t-card-title fade-6">dotfiles</text><rect x="204" y="1406" width="172.55060995631942" height="14" rx="4" fill="#000080" fill-opacity="0.7" class="fade-6"/><text x="604" y="1414" class="t t-value fade-6">★ 2</text><circle cx="36" cy="1438" r="3" fill="#6e7681" fill-opacity="0.6" class="fade-6"/><text x="42" y="1441" class="t fade-6" font-size="9" fill="#6e7681">Go Templa…</text><circle cx="116" cy="1438" r="3" fill="#6e7681" fill-opacity="0.6" class="fade-6"/><text x="122" y="1441" class="t fade-6" font-size="9" fill="#6e7681">Ruby</text><text x="24" y="1514" class="t t-h">OPEN SOURCE IMPACT</text><text x="24" y="1530" class="t t-sub">External repositories contributed to</text><text x="24" y="1564" class="t t-card-title fade-1">getzep/graphiti</text><rect x="280" y="1554" width="340" height="12" rx="3" fill="#58a6ff" fill-opacity="0.7" class="fade-1"/><text x="636" y="1564" class="t t-value fade-1">★ 24,520</text><text x="728" y="1564" class="t t-value fade-1">Python</text><text x="24" y="1610" class="t t-card-title fade-2">googleapis/python-aiplatform</text><rect x="280" y="1600" width="227.91723313026114" height="12" rx="3" fill="#3fb950" fill-opacity="0.7" class="fade-2"/><text x="636" y="1610" class="t t-value fade-2">★ 875</text><text x="728" y="1610" class="t t-value fade-2">Python</text><text x="24" y="1656" class="t t-card-title fade-3">MathisWellmann/gym-rs</text><rect x="280" y="1646" width="163.21794246604526" height="12" rx="3" fill="#d29922" fill-opacity="0.7" class="fade-3"/><text x="636" y="1656" class="t t-value fade-3">★ 127</text><text x="728" y="1656" class="t t-value fade-3">Rust</text></svg>