<svg xmlns="http://www.w3.org/2000/svg" width="808" height="1286" viewBox="0 0 808 1286"><defs><style>
  .t { font-family: -apple-system,BlinkMacSystemFont,Segoe UI,Helvetica,Arial,sans-serif; font-variant-numeric: tabular-lining; }
  .t-h { font-size: 14px; fill: #c9d1d9; letter-spacing: 2px; font-weight: 600; }
  .t-sub { font-size: 11px; fill: #6e7681; }
  .t-label { font-size: 12px; fill: #8b949e; }
  .t-value { font-size: 11px; fill: #6e7681; }
  .t-subhdr { font-size: 11px; fill: #8b949e; letter-spacing: 1px; font-weight: 600; }
  .t-stat-label { font-size: 10px; fill: #8b949e; font-weight: 600; }
  .t-stat-value { font-size: 22px; font-weight: 700; }
  .t-card-title { font-size: 12px; fill: #58a6ff; font-weight: 700; }
  .t-card-detail { font-size: 11px; fill: #8b949e; }
  .t-pill { font-size: 11px; font-weight: 600; }
  .t-bullet { font-size: 12px; fill: #c9d1d9; }
  .bg-fill { fill: #0d1117; }
  .card-fill { fill: #161b22; }
  .border-stroke { stroke: #30363d; }

  @media (prefers-color-scheme: light) {
    .bg-fill { fill: #ffffff; }
    .card-fill { fill: #f6f8fa; }
    .border-stroke { stroke: #d0d7de; }
    .t-h { fill: #1f2328; }
    .t-sub { fill: #656d76; }
    .t-label { fill: #656d76; }
    .t-value { fill: #656d76; }
    .t-subhdr { fill: #656d76; }
    .t-stat-label { fill: #656d76; }
    .t-card-title { fill: #0969da; }
    .t-card-detail { fill: #656d76; }
    .t-bullet { fill: #1f2328; }
  }

  @keyframes fadeIn {
    from { opacity: 0; transform: translateY(8px); }
    to { opacity: 1; transform: translateY(0); }
  }
  @keyframes scaleIn {
    from { transform: scale(0); opacity: 0; }
    to { transform: scale(1); opacity: 1; }
  }
  @keyframes drawPath {
    from { stroke-dashoffset: var(--path-length); }
    to { stroke-dashoffset: 0; }
  }
  @keyframes radarReveal {
    from { transform: scale(0); opacity: 0; }
    to { transform: scale(1); opacity: 0.6; }
  }
  .fade-1 { animation: fadeIn 0.6s ease-out 0.1s both; }
  .fade-2 { animation: fadeIn 0.6s ease-out 0.25s both; }
  .fade-3 { animation: fadeIn 0.6s ease-out 0.4s both; }
  .fade-4 { animation: fadeIn 0.6s ease-out 0.55s both; }
  .fade-5 { animation: fadeIn 0.6s ease-out 0.7s both; }
  .fade-6 { animation: fadeIn 0.6s ease-out 0.85s both; }
</style></defs><rect width="808" height="1286" rx="12" class="bg-fill" fill="#0d1117"/><text x="24" y="40" class="t t-h">LANGUAGE VELOCITY</text><text x="24" y="56" class="t t-sub">How language usage has evolved over the past year</text><path d="M 24,206 C 55.66666666666667,206 55.66666666666667,206 87.33333333333334,206 C 119.00000000000001,206 119.00000000000001,205.14503816793894 150.66666666666669,205.14503816793894 C 182.33333333333334,205.14503816793894 182.33333333333334,204.7175572519084 214,204.7175572519084 C 245.66666666666669,204.7175572519084 245.66666666666669,205.57251908396947 277.33333333333337,205.57251908396947 C 309,205.57251908396947 309,206 340.6666666666667,206 C 372.33333333333337,206 372.33333333333337,197.23664122137404 404,197.23664122137404 C 435.6666666666667,197.23664122137404 435.6666666666667,204.29007633587787 467.33333333333337,204.29007633587787 C 499.00000000000006,204.29007633587787 499.00000000000006,199.58778625954199 530.6666666666667,199.58778625954199 C 562.3333333333334,199.58778625954199 562.3333333333334,204.7175572519084 594,204.7175572519084 C 625.6666666666667,204.7175572519084 625.6666666666667,168.8091603053435 657.3333333333334,168.8091603053435 C 689,168.8091603053435 689,105.32824427480915 720.6666666666667,105.32824427480915 C 752.3333333333334,105.32824427480915 752.3333333333334,66 784,66 L 784,67.06870229007635 C 752.3333333333334,67.06870229007635 752.3333333333334,106.18320610687023 720.6666666666667,106.18320610687023 C 689,106.18320610687023 689,169.0229007633588 657.3333333333334,169.0229007633588 C 625.6666666666667,169.0229007633588 625.6666666666667,204.7175572519084 594,204.7175572519084 C 562.3333333333334,204.7175572519084 562.3333333333334,199.58778625954199 530.6666666666667,199.58778625954199 C 499.00000000000006,199.58778625954199 499.00000000000006,204.29007633587787 467.33333333333337,204.29007633587787 C 435.6666666666667,204.29007633587787 435.6666666666667,197.23664122137404 404,197.23664122137404 C 372.33333333333337,197.23664122137404 372.33333333333337,206 340.6666666666667,206 C 309,206 309,205.57251908396947 277.33333333333337,205.57251908396947 C 245.66666666666669,205.57251908396947 245.66666666666669,204.7175572519084 214,204.7175572519084 C 182.33333333333334,204.7175572519084 182.33333333333334,205.14503816793894 150.66666666666669,205.14503816793894 C 119.00000000000001,205.14503816793894 119.00000000000001,206 87.33333333333334,206 C 55.66666666666667,206 55.66666666666667,206 24,206 Z" fill="#DA5B0B" fill-opacity="0.75" class="fade-1"/><path d="M 24,206 C 55.66666666666667,206 55.66666666666667,206 87.33333333333334,206 C 119.00000000000001,206 119.00000000000001,205.14503816793894 150.66666666666669,205.14503816793894 C 182.33333333333334,205.14503816793894 182.33333333333334,204.7175572519084 214,204.7175572519084 C 245.66666666666669,204.7175572519084 245.66666666666669,205.57251908396947 277.33333333333337,205.57251908396947 C 309,205.57251908396947 309,206 340.6666666666667,206 C 372.33333333333337,206 372.33333333333337,197.23664122137404 404,197.23664122137404 C 435.6666666666667,197.23664122137404 435.6666666666667,204.29007633587787 467.33333333333337,204.29007633587787 C 499.00000000000006,204.29007633587787 499.00000000000006,199.58778625954199 530.6666666666667,199.58778625954199 C 562.3333333333334,199.58778625954199 562.3333333333334,204.7175572519084 594,204.7175572519084 C 625.6666666666667,204.7175572519084 625.6666666666667,169.0229007633588 657.3333333333334,169.0229007633588 C 689,169.0229007633588 689,106.18320610687023 720.6666666666667,106.18320610687023 C 752.3333333333334,106.18320610687023 752.3333333333334,67.06870229007635 784,67.06870229007635 L 784,72.41221374045801 C 752.3333333333334,72.41221374045801 752.3333333333334,110.03053435114504 720.6666666666667,110.03053435114504 C 689,110.03053435114504 689,170.51908396946564 657.3333333333334,170.51908396946564 C 625.6666666666667,170.51908396946564 625.6666666666667,204.7175572519084 594,204.7175572519084 C 562.3333333333334,204.7175572519084 562.3333333333334,199.80152671755724 530.6666666666667,199.80152671755724 C 499.00000000000006,199.80152671755724 499.00000000000006,204.29007633587787 467.33333333333337,204.29007633587787 C 435.6666666666667,204.29007633587787 435.6666666666667,197.66412213740458 404,197.66412213740458 C 372.33333333333337,197.66412213740458 372.33333333333337,206 340.6666666666667,206 C 309,206 309,205.57251908396947 277.33333333333337,205.57251908396947 C 245.66666666666669,205.57251908396947 245.66666666666669,204.7175572519084 214,204.7175572519084 C 182.33333333333334,204.7175572519084 182.33333333333334,205.14503816793894 150.66666666666669,205.14503816793894 C 119.00000000000001,205.14503816793894 119.00000000000001,206 87.33333333333334,206 C 55.66666666666667,206 55.66666666666667,206 24,206 Z" fill="#b07219" fill-opacity="0.75" class="fade-2"/><path d="M 24,206 C 55.66666666666667,206 55.66666666666667,206 87.33333333333334,206 C 119.00000000000001,206 119.00000000000001,205.14503816793894 150.66666666666669,205.14503816793894 C 182.33333333333334,205.14503816793894 182.33333333333334,204.7175572519084 214,204.7175572519084 C 245.66666666666669,204.7175572519084 245.66666666666669,205.57251908396947 277.33333333333337,205.57251908396947 C 309,205.57251908396947 309,206 340.6666666666667,206 C 372.33333333333337,206 372.33333333333337,197.66412213740458 404,197.66412213740458 C 435.6666666666667,197.66412213740458 435.6666666666667,204.29007633587787 467.33333333333337,204.29007633587787 C 499.00000000000006,204.29007633587787 499.00000000000006,199.80152671755724 530.6666666666667,199.80152671755724 C 562.3333333333334,199.80152671755724 562.3333333333334,204.7175572519084 594,204.7175572519084 C 625.6666666666667,204.7175572519084 625.6666666666667,170.51908396946564 657.3333333333334,170.51908396946564 C 689,170.51908396946564 689,110.03053435114504 720.6666666666667,110.03053435114504 C 752.3333333333334,110.03053435114504 752.3333333333334,72.41221374045801 784,72.41221374045801 L 784,86.30534351145039 C 752.3333333333334,86.30534351145039 752.3333333333334,120.07633587786259 720.6666666666667,120.07633587786259 C 689,120.07633587786259 689,174.15267175572518 657.3333333333334,174.15267175572518 C 625.6666666666667,174.15267175572518 625.6666666666667,204.93129770992365 594,204.93129770992365 C 562.3333333333334,204.93129770992365 562.3333333333334,200.44274809160305 530.6666666666667,200.44274809160305 C 499.00000000000006,200.44274809160305 499.00000000000006,204.50381679389312 467.33333333333337,204.50381679389312 C 435.6666666666667,204.50381679389312 435.6666666666667,198.51908396946564 404,198.51908396946564 C 372.33333333333337,198.51908396946564 372.33333333333337,206 340.6666666666667,206 C 309,206 309,205.57251908396947 277.33333333333337,205.57251908396947 C 245.66666666666669,205.57251908396947 245.66666666666669,204.93129770992365 214,204.93129770992365 C 182.33333333333334,204.93129770992365 182.33333333333334,205.14503816793894 150.66666666666669,205.14503816793894 C 119.00000000000001,205.14503816793894 119.00000000000001,206 87.33333333333334,206 C 55.66666666666667,206 55.66666666666667,206 24,206 Z" fill="#3572A5" fill-opacity="0.75" class="fade-3"/><path d="M 24,206 C 55.66666666666667,206 55.66666666666667,206 87.33333333333334,206 C 119.00000000000001,206 119.00000000000001,205.14503816793894 150.66666666666669,205.14503816793894 C 182.33333333333334,205.14503816793894 182.33333333333334,204.93129770992365 214,204.93129770992365 C 245.66666666666669,204.93129770992365 245.66666666666669,205.57251908396947 277.33333333333337,205.57251908396947 C 309,205.57251908396947 309,206 340.6666666666667,206 C 372.33333333333337,206 372.33333333333337,198.51908396946564 404,198.51908396946564 C 435.6666666666667,198.51908396946564 435.6666666666667,204.50381679389312 467.33333333333337,204.50381679389312 C 499.00000000000006,204.50381679389312 499.00000000000006,200.44274809160305 530.6666666666667,200.44274809160305 C 562.3333333333334,200.44274809160305 562.3333333333334,204.93129770992365 594,204.93129770992365 C 625.6666666666667,204.93129770992365 625.6666666666667,174.15267175572518 657.3333333333334,174.15267175572518 C 689,174.15267175572518 689,120.07633587786259 720.6666666666667,120.07633587786259 C 752.3333333333334,120.07633587786259 752.3333333333334,86.30534351145039 784,86.30534351145039 L 784,105.7557251908397 C 752.3333333333334,105.7557251908397 752.3333333333334,133.96946564885496 720.6666666666667,133.96946564885496 C 689,133.96946564885496 689,179.2824427480916 657.3333333333334,179.2824427480916 C 625.6666666666667,179.2824427480916 625.6666666666667,205.14503816793894 594,205.14503816793894 C 562.3333333333334,205.14503816793894 562.3333333333334,201.29770992366412 530.6666666666667,201.29770992366412 C 499.00000000000006,201.29770992366412 499.00000000000006,204.7175572519084 467.33333333333337,204.7175572519084 C 435.6666666666667,204.7175572519084 435.6666666666667,199.80152671755724 404,199.80152671755724 C 372.33333333333337,199.80152671755724 372.33333333333337,206 340.6666666666667,206 C 309,206 309,205.57251908396947 277.33333333333337,205.57251908396947 C 245.66666666666669,205.57251908396947 245.66666666666669,205.14503816793894 214,205.14503816793894 C 182.33333333333334,205.14503816793894 182.33333333333334,205.3587786259542 150.66666666666669,205.3587786259542 C 119.00000000000001,205.3587786259542 119.00000000000001,206 87.33333333333334,206 C 55.66666666666667,206 55.66666666666667,206 24,206 Z" fill="#89e051" fill-opacity="0.75" class="fade-4"/><path d="M 24,206 C 55.66666666666667,206 55.66666666666667,206 87.33333333333334,206 C 119.00000000000001,206 119.00000000000001,205.3587786259542 150.66666666666669,205.3587786259542 C 182.33333333333334,205.3587786259542 182.33333333333334,205.14503816793894 214,205.14503816793894 C 245.66666666666669,205.14503816793894 245.66666666666669,205.57251908396947 277.33333333333337,205.57251908396947 C 309,205.57251908396947 309,206 340.6666666666667,206 C 372.33333333333337,206 372.33333333333337,199.80152671755724 404,199.80152671755724 C 435.6666666666667,199.80152671755724 435.6666666666667,204.7175572519084 467.33333333333337,204.7175572519084 C 499.00000000000006,204.7175572519084 499.00000000000006,201.29770992366412 530.6666666666667,201.29770992366412 C 562.3333333333334,201.29770992366412 562.3333333333334,205.14503816793894 594,205.14503816793894 C 625.6666666666667,205.14503816793894 625.6666666666667,179.2824427480916 657.3333333333334,179.2824427480916 C 689,179.2824427480916 689,133.96946564885496 720.6666666666667,133.96946564885496 C 752.3333333333334,133.96946564885496 752.3333333333334,105.7557251908397 784,105.7557251908397 L 784,125.63358778625954 C 752.3333333333334,125.63358778625954 752.3333333333334,148.29007633587787 720.6666666666667,148.29007633587787 C 689,148.29007633587787 689,184.62595419847327 657.3333333333334,184.62595419847327 C 625.6666666666667,184.62595419847327 625.6666666666667,205.3587786259542 594,205.3587786259542 C 562.3333333333334,205.3587786259542 562.3333333333334,202.15267175572518 530.6666666666667,202.15267175572518 C 499.00000000000006,202.15267175572518 499.00000000000006,204.93129770992365 467.33333333333337,204.93129770992365 C 435.6666666666667,204.93129770992365 435.6666666666667,201.08396946564886 404,201.08396946564886 C 372.33333333333337,201.08396946564886 372.33333333333337,206 340.6666666666667,206 C 309,206 309,205.57251908396947 277.33333333333337,205.57251908396947 C 245.66666666666669,205.57251908396947 245.66666666666669,205.3587786259542 214,205.3587786259542 C 182.33333333333334,205.3587786259542 182.33333333333334,205.57251908396947 150.66666666666669,205.57251908396947 C 119.00000000000001,205.57251908396947 119.00000000000001,206 87.33333333333334,206 C 55.66666666666667,206 55.66666666666667,206 24,206 Z" fill="#00ADD8" fill-opacity="0.75" class="fade-5"/><path d="M 24,206 C 55.66666666666667,206 55.66666666666667,206 87.33333333333334,206 C 119.00000000000001,206 119.00000000000001,205.57251908396947 150.66666666666669,205.57251908396947 C 182.33333333333334,205.57251908396947 182.33333333333334,205.3587786259542 214,205.3587786259542 C 245.66666666666669,205.3587786259542 245.66666666666669,205.57251908396947 277.33333333333337,205.57251908396947 C 309,205.57251908396947 309,206 340.6666666666667,206 C 372.33333333333337,206 372.33333333333337,201.08396946564886 404,201.08396946564886 C 435.6666666666667,201.08396946564886 435.6666666666667,204.93129770992365 467.33333333333337,204.93129770992365 C 499.00000000000006,204.93129770992365 499.00000000000006,202.15267175572518 530.6666666666667,202.15267175572518 C 562.3333333333334,202.15267175572518 562.3333333333334,205.3587786259542 594,205.3587786259542 C 625.6666666666667,205.3587786259542 625.6666666666667,184.62595419847327 657.3333333333334,184.62595419847327 C 689,184.62595419847327 689,148.29007633587787 720.6666666666667,148.29007633587787 C 752.3333333333334,148.29007633587787 752.3333333333334,125.63358778625954 784,125.63358778625954 L 784,157.26717557251908 C 752.3333333333334,157.26717557251908 752.3333333333334,170.94656488549617 720.6666666666667,170.94656488549617 C 689,170.94656488549617 689,192.9618320610687 657.3333333333334,192.9618320610687 C 625.6666666666667,192.9618320610687 625.6666666666667,205.57251908396947 594,205.57251908396947 C 562.3333333333334,205.57251908396947 562.3333333333334,203.64885496183206 530.6666666666667,203.64885496183206 C 499.00000000000006,203.64885496183206 499.00000000000006,205.3587786259542 467.33333333333337,205.3587786259542 C 435.6666666666667,205.3587786259542 435.6666666666667,203.00763358778627 404,203.00763358778627 C 372.33333333333337,203.00763358778627 372.33333333333337,206 340.6666666666667,206 C 309,206 309,205.78625954198472 277.33333333333337,205.78625954198472 C 245.66666666666669,205.78625954198472 245.66666666666669,205.57251908396947 214,205.57251908396947 C 182.33333333333334,205.57251908396947 182.33333333333334,205.78625954198472 150.66666666666669,205.78625954198472 C 119.00000000000001,205.78625954198472 119.00000000000001,206 87.33333333333334,206 C 55.66666666666667,206 55.66666666666667,206 24,206 Z" fill="#3178c6" fill-opacity="0.75" class="fade-6"/><path d="M 24,206 C 55.66666666666667,206 55.66666666666667,206 87.33333333333334,206 C 119.00000000000001,206 119.00000000000001,205.78625954198472 150.66666666666669,205.78625954198472 C 182.33333333333334,205.78625954198472 182.33333333333334,205.57251908396947 214,205.57251908396947 C 245.66666666666669,205.57251908396947 245.66666666666669,205.78625954198472 277.33333333333337,205.78625954198472 C 309,205.78625954198472 309,206 340.6666666666667,206 C 372.33333333333337,206 372.33333333333337,203.00763358778627 404,203.00763358778627 C 435.6666666666667,203.00763358778627 435.6666666666667,205.3587786259542 467.33333333333337,205.3587786259542 C 499.00000000000006,205.3587786259542 499.00000000000006,203.64885496183206 530.6666666666667,203.64885496183206 C 562.3333333333334,203.64885496183206 562.3333333333334,205.57251908396947 594,205.57251908396947 C 625.6666666666667,205.57251908396947 625.6666666666667,192.9618320610687 657.3333333333334,192.9618320610687 C 689,192.9618320610687 689,170.94656488549617 720.6666666666667,170.94656488549617 C 752.3333333333334,170.94656488549617 752.3333333333334,157.26717557251908 784,157.26717557251908 L 784,206 C 752.3333333333334,206 752.3333333333334,206 720.6666666666667,206 C 689,206 689,206 657.3333333333334,206 C 625.6666666666667,206 625.6666666666667,206 594,206 C 562.3333333333334,206 562.3333333333334,206 530.6666666666667,206 C 499.00000000000006,206 499.00000000000006,206 467.33333333333337,206 C 435.6666666666667,206 435.6666666666667,206 404,206 C 372.33333333333337,206 372.33333333333337,206 340.6666666666667,206 C 309,206 309,206 277.33333333333337,206 C 245.66666666666669,206 245.66666666666669,206 214,206 C 182.33333333333334,206 182.33333333333334,206 150.66666666666669,206 C 119.00000000000001,206 119.00000000000001,206 87.33333333333334,206 C 55.66666666666667,206 55.66666666666667,206 24,206 Z" fill="#dea584" fill-opacity="0.75" class="fade-6"/><rect x="24" y="212" width="8" height="8" rx="2" fill="#dea584" opacity="0.85"/><text x="36" y="220" class="t t-value">Rust</text><rect x="80" y="212" width="8" height="8" rx="2" fill="#3178c6" opacity="0.85"/><text x="92" y="220" class="t t-value">TypeScript</text><rect x="178" y="212" width="8" height="8" rx="2" fill="#00ADD8" opacity="0.85"/><text x="190" y="220" class="t t-value">Go</text><rect x="220" y="212" width="8" height="8" rx="2" fill="#89e051" opacity="0.85"/><text x="232" y="220" class="t t-value">Shell</text><rect x="283" y="212" width="8" height="8" rx="2" fill="#3572A5" opacity="0.85"/><text x="295" y="220" class="t t-value">Python</text><rect x="353" y="212" width="8" height="8" rx="2" fill="#b07219" opacity="0.85"/><text x="365" y="220" class="t t-value">Java</text><rect x="409" y="212" width="8" height="8" rx="2" fill="#DA5B0B" opacity="0.85"/><text x="421" y="220" class="t t-value">Jupyter Notebook</text><text x="24" y="220" class="t t-value" text-anchor="start" opacity="0">Mar</text><text x="150.66666666666669" y="220" class="t t-value" text-anchor="start" opacity="0">May</text><text x="277.33333333333337" y="220" class="t t-value" text-anchor="start" opacity="0">Jul</text><text x="404" y="220" class="t t-value" text-anchor="start" opacity="0">Sep</text><text x="530.6666666666667" y="220" class="t t-value" text-anchor="start" opacity="0">Nov</text><text x="657.3333333333334" y="220" class="t t-value" text-anchor="start" opacity="0">Jan</text><text x="784" y="220" class="t t-value" text-anchor="start" opacity="0">Mar</text><text x="24" y="282" class="t t-h">CONTRIBUTION RHYTHM</text><text x="24" y="298" class="t t-sub">Activity patterns and statistics over the past year</text><circle cx="144" cy="428" r="22.5" fill="none" stroke="#30363d" stroke-width="1" stroke-opacity="0.4"/><circle cx="144" cy="428" r="45" fill="none" stroke="#30363d" stroke-width="1" stroke-opacity="0.4"/><circle cx="144" cy="428" r="67.5" fill="none" stroke="#30363d" stroke-width="1" stroke-opacity="0.4"/><circle cx="144" cy="428" r="90" fill="none" stroke="#30363d" stroke-width="1" stroke-opacity="0.4"/><line x1="144" y1="428" x2="144" y2="338" stroke="#30363d" stroke-width="1" stroke-opacity="0.3"/><line x1="144" y1="428" x2="214.36483342212267" y2="371.885917832714" stroke="#30363d" stroke-width="1" stroke-opacity="0.3"/><line x1="144" y1="428" x2="231.74351209636413" y2="448.0268840560683" stroke="#30363d" stroke-width="1" stroke-opacity="0.3"/><line x1="144" y1="428" x2="183.04953652058023" y2="509.08719811121773" stroke="#30363d" stroke-width="1" stroke-opacity="0.3"/><line x1="144" y1="428" x2="104.95046347941977" y2="509.08719811121773" stroke="#30363d" stroke-width="1" stroke-opacity="0.3"/><line x1="144" y1="428" x2="56.25648790363587" y2="448.0268840560683" stroke="#30363d" stroke-width="1" stroke-opacity="0.3"/><line x1="144" y1="428" x2="73.63516657787731" y2="371.885917832714" stroke="#30363d" stroke-width="1" stroke-opacity="0.3"/><polygon points="144,353.73991031390136 164.1943916547796,411.89551005064436 183.54360074298023,437.0255688234747 156.34525706143904,453.6351904342639 133.23073320172338,450.36261293201744 118.22780250084372,433.8823358998766 73.63516657787731,371.885917832714" fill="#58a6ff" fill-opacity="0.2" stroke="#58a6ff" stroke-width="2" stroke-opacity="0.8" class="fade-2" style="transform-origin: 144px 428px"/><circle cx="144" cy="353.73991031390136" r="3" fill="#58a6ff" class="fade-1"/><circle cx="164.1943916547796" cy="411.89551005064436" r="3" fill="#58a6ff" class="fade-2"/><circle cx="183.54360074298023" cy="437.0255688234747" r="3" fill="#58a6ff" class="fade-3"/><circle cx="156.34525706143904" cy="453.6351904342639" r="3" fill="#58a6ff" class="fade-4"/><circle cx="133.23073320172338" cy="450.36261293201744" r="3" fill="#58a6ff" class="fade-5"/><circle cx="118.22780250084372" cy="433.8823358998766" r="3" fill="#58a6ff" class="fade-6"/><circle cx="73.63516657787731" cy="371.885917832714" r="3" fill="#58a6ff" class="fade-6"/><text x="144" y="326" class="t t-value" text-anchor="middle">Sun</text><text x="226.87413714161116" y="365.91008100297427" class="t t-value" text-anchor="middle">Mon</text><text x="247.34235869127332" y="455.5872189993693" class="t t-value" text-anchor="middle">Tue</text><text x="189.99167634646116" y="527.5026999976565" class="t t-value" text-anchor="middle">Wed</text><text x="98.00832365353884" y="527.5026999976565" class="t t-value" text-anchor="middle">Thu</text><text x="40.657641308726696" y="455.5872189993693" class="t t-value" text-anchor="middle">Fri</text><text x="61.12586285838883" y="365.91008100297427" class="t t-value" text-anchor="middle">Sat</text><text x="324" y="338" class="t t-stat-label">COMMITS</text><text x="324" y="360" fill="#58a6ff" class="t t-stat-value">1,428</text><text x="324" y="380" class="t t-stat-label">PRS</text><text x="324" y="402" fill="#3fb950" class="t t-stat-value">4</text><text x="324" y="422" class="t t-stat-label">REVIEWS</text><text x="324" y="444" fill="#d29922" class="t t-stat-value">5</text><text x="324" y="464" class="t t-stat-label">REPOS</text><text x="324" y="486" fill="#bc8cff" class="t t-stat-value">24</text><text x="324" y="506" class="t t-stat-label">STREAK</text><text x="324" y="528" fill="#39d2c0" class="t t-stat-value">15d</text><text x="24" y="614" class="t t-h">PROJECT CONSTELLATION</text><text x="24" y="630" class="t t-sub">Projects mapped by language ecosystem and complexity</text><line x1="86.66666666666666" y1="670" x2="540.0000000000001" y2="719.359946150668" stroke="#30363d" stroke-width="1" stroke-opacity="0.15" stroke-dasharray="4 4"/><line x1="86.66666666666666" y1="670" x2="101.77777777777777" y2="739.1858347852406" stroke="#30363d" stroke-width="1" stroke-opacity="0.15" stroke-dasharray="4 4"/><line x1="86.66666666666666" y1="670" x2="691.1111111111112" y2="753.1153510744225" stroke="#30363d" stroke-width="1" stroke-opacity="0.15" stroke-dasharray="4 4"/><line x1="86.66666666666666" y1="670" x2="701.1851851851852" y2="792.4850186292689" stroke="#30363d" stroke-width="1" stroke-opacity="0.15" stroke-dasharray="4 4"/><line x1="86.66666666666666" y1="670" x2="630.6666666666667" y2="815.6780615530614" stroke="#30363d" stroke-width="1" stroke-opacity="0.15" stroke-dasharray="4 4"/><line x1="86.66666666666666" y1="670" x2="711.2592592592594" y2="820.3328785456803" stroke="#30363d" stroke-width="1" stroke-opacity="0.15" stroke-dasharray="4 4"/><line x1="86.66666666666666" y1="670" x2="546.0444444444445" y2="844.0356808777433" stroke="#30363d" stroke-width="1" stroke-opacity="0.15" stroke-dasharray="4 4"/><line x1="86.66666666666666" y1="670" x2="116.88888888888889" y2="857.697053280067" stroke="#30363d" stroke-width="1" stroke-opacity="0.15" stroke-dasharray="4 4"/><line x1="86.66666666666666" y1="670" x2="474.51851851851853" y2="862.2834310115362" stroke="#30363d" stroke-width="1" stroke-opacity="0.15" stroke-dasharray="4 4"/><line x1="86.66666666666666" y1="670" x2="558.1333333333334" y2="873.8974131110787" stroke="#30363d" stroke-width="1" stroke-opacity="0.15" stroke-dasharray="4 4"/><line x1="86.66666666666666" y1="670" x2="570.2222222222223" y2="907.7170608410596" stroke="#30363d" stroke-width="1" stroke-opacity="0.15" stroke-dasharray="4 4"/><line x1="313.33333333333337" y1="712.3644564790168" x2="464.44444444444446" y2="759.2072450039805" stroke="#30363d" stroke-width="1" stroke-opacity="0.15" stroke-dasharray="4 4"/><line x1="313.33333333333337" y1="712.3644564790168" x2="711.2592592592594" y2="820.3328785456803" stroke="#30363d" stroke-width="1" stroke-opacity="0.15" stroke-dasharray="4 4"/><line x1="313.33333333333337" y1="712.3644564790168" x2="343.55555555555554" y2="833.0487577235892" stroke="#30363d" stroke-width="1" stroke-opacity="0.15" stroke-dasharray="4 4"/><line x1="313.33333333333337" y1="712.3644564790168" x2="474.51851851851853" y2="862.2834310115362" stroke="#30363d" stroke-width="1" stroke-opacity="0.15" stroke-dasharray="4 4"/><line x1="540.0000000000001" y1="719.359946150668" x2="101.77777777777777" y2="739.1858347852406" stroke="#30363d" stroke-width="1" stroke-opacity="0.15" stroke-dasharray="4 4"/><line x1="540.0000000000001" y1="719.359946150668" x2="701.1851851851852" y2="792.4850186292689" stroke="#30363d" stroke-width="1" stroke-opacity="0.15" stroke-dasharray="4 4"/><line x1="540.0000000000001" y1="719.359946150668" x2="630.6666666666667" y2="815.6780615530614" stroke="#30363d" stroke-width="1" stroke-opacity="0.15" stroke-dasharray="4 4"/><line x1="540.0000000000001" y1="719.359946150668" x2="711.2592592592594" y2="820.3328785456803" stroke="#30363d" stroke-width="1" stroke-opacity="0.15" stroke-dasharray="4 4"/><line x1="540.0000000000001" y1="719.359946150668" x2="546.0444444444445" y2="844.0356808777433" stroke="#30363d" stroke-width="1" stroke-opacity="0.15" stroke-dasharray="4 4"/><line x1="540.0000000000001" y1="719.359946150668" x2="552.088888888889" y2="858.359033500748" stroke="#30363d" stroke-width="1" stroke-opacity="0.15" stroke-dasharray="4 4"/><line x1="540.0000000000001" y1="719.359946150668" x2="474.51851851851853" y2="862.2834310115362" stroke="#30363d" stroke-width="1" stroke-opacity="0.15" stroke-dasharray="4 4"/><line x1="540.0000000000001" y1="719.359946150668" x2="558.1333333333334" y2="873.8974131110787" stroke="#30363d" stroke-width="1" stroke-opacity="0.15" stroke-dasharray="4 4"/><line x1="540.0000000000001" y1="719.359946150668" x2="564.1777777777779" y2="888.4581848005724" stroke="#30363d" stroke-width="1" stroke-opacity="0.15" stroke-dasharray="4 4"/><line x1="540.0000000000001" y1="719.359946150668" x2="570.2222222222223" y2="907.7170608410596" stroke="#30363d" stroke-width="1" stroke-opacity="0.15" stroke-dasharray="4 4"/><line x1="101.77777777777777" y1="739.1858347852406" x2="701.1851851851852" y2="792.4850186292689" stroke="#30363d" stroke-width="1" stroke-opacity="0.15" stroke-dasharray="4 4"/><line x1="101.77777777777777" y1="739.1858347852406" x2="630.6666666666667" y2="815.6780615530614" stroke="#30363d" stroke-width="1" stroke-opacity="0.15" stroke-dasharray="4 4"/><line x1="101.77777777777777" y1="739.1858347852406" x2="711.2592592592594" y2="820.3328785456803" stroke="#30363d" stroke-width="1" stroke-opacity="0.15" stroke-dasharray="4 4"/><line x1="101.77777777777777" y1="739.1858347852406" x2="546.0444444444445" y2="844.0356808777433" stroke="#30363d" stroke-width="1" stroke-opacity="0.15" stroke-dasharray="4 4"/><line x1="101.77777777777777" y1="739.1858347852406" x2="116.88888888888889" y2="857.697053280067" stroke="#30363d" stroke-width="1" stroke-opacity="0.15" stroke-dasharray="4 4"/><line x1="101.77777777777777" y1="739.1858347852406" x2="558.1333333333334" y2="873.8974131110787" stroke="#30363d" stroke-width="1" stroke-opacity="0.15" stroke-dasharray="4 4"/><line x1="101.77777777777777" y1="739.1858347852406" x2="570.2222222222223" y2="907.7170608410596" stroke="#30363d" stroke-width="1" stroke-opacity="0.15" stroke-dasharray="4 4"/><line x1="691.1111111111112" y1="753.1153510744225" x2="701.1851851851852" y2="792.4850186292689" stroke="#30363d" stroke-width="1" stroke-opacity="0.15" stroke-dasharray="4 4"/><line x1="691.1111111111112" y1="753.1153510744225" x2="711.2592592592594" y2="820.3328785456803" stroke="#30363d" stroke-width="1" stroke-opacity="0.15" stroke-dasharray="4 4"/><line x1="691.1111111111112" y1="753.1153510744225" x2="252.88888888888889" y2="907.0243558000094" stroke="#30363d" stroke-width="1" stroke-opacity="0.15" stroke-dasharray="4 4"/><line x1="464.44444444444446" y1="759.2072450039805" x2="711.2592592592594" y2="820.3328785456803" stroke="#30363d" stroke-width="1" stroke-opacity="0.15" stroke-dasharray="4 4"/><line x1="464.44444444444446" y1="759.2072450039805" x2="343.55555555555554" y2="833.0487577235892" stroke="#30363d" stroke-width="1" stroke-opacity="0.15" stroke-dasharray="4 4"/><line x1="464.44444444444446" y1="759.2072450039805" x2="474.51851851851853" y2="862.2834310115362" stroke="#30363d" stroke-width="1" stroke-opacity="0.15" stroke-dasharray="4 4"/><line x1="701.1851851851852" y1="792.4850186292689" x2="630.6666666666667" y2="815.6780615530614" stroke="#30363d" stroke-width="1" stroke-opacity="0.15" stroke-dasharray="4 4"/><line x1="701.1851851851852" y1="792.4850186292689" x2="711.2592592592594" y2="820.3328785456803" stroke="#30363d" stroke-width="1" stroke-opacity="0.15" stroke-dasharray="4 4"/><line x1="701.1851851851852" y1="792.4850186292689" x2="546.0444444444445" y2="844.0356808777433" stroke="#30363d" stroke-width="1" stroke-opacity="0.15" stroke-dasharray="4 4"/><line x1="701.1851851851852" y1="792.4850186292689" x2="116.88888888888889" y2="857.697053280067" stroke="#30363d" stroke-width="1" stroke-opacity="0.15" stroke-dasharray="4 4"/><line x1="701.1851851851852" y1="792.4850186292689" x2="474.51851851851853" y2="862.2834310115362" stroke="#30363d" stroke-width="1" stroke-opacity="0.15" stroke-dasharray="4 4"/><line x1="701.1851851851852" y1="792.4850186292689" x2="558.1333333333334" y2="873.8974131110787" stroke="#30363d" stroke-width="1" stroke-opacity="0.15" stroke-dasharray="4 4"/><line x1="701.1851851851852" y1="792.4850186292689" x2="721.3333333333334" y2="891.5362531684647" stroke="#30363d" stroke-width="1" stroke-opacity="0.15" stroke-dasharray="4 4"/><line x1="701.1851851851852" y1="792.4850186292689" x2="252.88888888888889" y2="907.0243558000094" stroke="#30363d" stroke-width="1" stroke-opacity="0.15" stroke-dasharray="4 4"/><line x1="701.1851851851852" y1="792.4850186292689" x2="570.2222222222223" y2="907.7170608410596" stroke="#30363d" stroke-width="1" stroke-opacity="0.15" stroke-dasharray="4 4"/><line x1="630.6666666666667" y1="815.6780615530614" x2="711.2592592592594" y2="820.3328785456803" stroke="#30363d" stroke-width="1" stroke-opacity="0.15" stroke-dasharray="4 4"/><line x1="630.6666666666667" y1="815.6780615530614" x2="546.0444444444445" y2="844.0356808777433" stroke="#30363d" stroke-width="1" stroke-opacity="0.15" stroke-dasharray="4 4"/><line x1="630.6666666666667" y1="815.6780615530614" x2="558.1333333333334" y2="873.8974131110787" stroke="#30363d" stroke-width="1" stroke-opacity="0.15" stroke-dasharray="4 4"/><line x1="630.6666666666667" y1="815.6780615530614" x2="192.44444444444446" y2="883.4249005910065" stroke="#30363d" stroke-width="1" stroke-opacity="0.15" stroke-dasharray="4 4"/><line x1="630.6666666666667" y1="815.6780615530614" x2="570.2222222222223" y2="907.7170608410596" stroke="#30363d" stroke-width="1" stroke-opacity="0.15" stroke-dasharray="4 4"/><line x1="711.2592592592594" y1="820.3328785456803" x2="343.55555555555554" y2="833.0487577235892" stroke="#30363d" stroke-width="1" stroke-opacity="0.15" stroke-dasharray="4 4"/><line x1="711.2592592592594" y1="820.3328785456803" x2="546.0444444444445" y2="844.0356808777433" stroke="#30363d" stroke-width="1" stroke-opacity="0.15" stroke-dasharray="4 4"/><line x1="711.2592592592594" y1="820.3328785456803" x2="116.88888888888889" y2="857.697053280067" stroke="#30363d" stroke-width="1" stroke-opacity="0.15" stroke-dasharray="4 4"/><line x1="711.2592592592594" y1="820.3328785456803" x2="474.51851851851853" y2="862.2834310115362" stroke="#30363d" stroke-width="1" stroke-opacity="0.15" stroke-dasharray="4 4"/><line x1="711.2592592592594" y1="820.3328785456803" x2="558.1333333333334" y2="873.8974131110787" stroke="#30363d" stroke-width="1" stroke-opacity="0.15" stroke-dasharray="4 4"/><line x1="711.2592592592594" y1="820.3328785456803" x2="484.59259259259255" y2="886.3633106844934" stroke="#30363d" stroke-width="1" stroke-opacity="0.15" stroke-dasharray="4 4"/><line x1="711.2592592592594" y1="820.3328785456803" x2="721.3333333333334" y2="891.5362531684647" stroke="#30363d" stroke-width="1" stroke-opacity="0.15" stroke-dasharray="4 4"/><line x1="711.2592592592594" y1="820.3328785456803" x2="252.88888888888889" y2="907.0243558000094" stroke="#30363d" stroke-width="1" stroke-opacity="0.15" stroke-dasharray="4 4"/><line x1="711.2592592592594" y1="820.3328785456803" x2="570.2222222222223" y2="907.7170608410596" stroke="#30363d" stroke-width="1" stroke-opacity="0.15" stroke-dasharray="4 4"/><line x1="343.55555555555554" y1="833.0487577235892" x2="474.51851851851853" y2="862.2834310115362" stroke="#30363d" stroke-width="1" stroke-opacity="0.15" stroke-dasharray="4 4"/><line x1="546.0444444444445" y1="844.0356808777433" x2="552.088888888889" y2="858.359033500748" stroke="#30363d" stroke-width="1" stroke-opacity="0.15" stroke-dasharray="4 4"/><line x1="546.0444444444445" y1="844.0356808777433" x2="558.1333333333334" y2="873.8974131110787" stroke="#30363d" stroke-width="1" stroke-opacity="0.15" stroke-dasharray="4 4"/><line x1="546.0444444444445" y1="844.0356808777433" x2="564.1777777777779" y2="888.4581848005724" stroke="#30363d" stroke-width="1" stroke-opacity="0.15" stroke-dasharray="4 4"/><line x1="546.0444444444445" y1="844.0356808777433" x2="570.2222222222223" y2="907.7170608410596" stroke="#30363d" stroke-width="1" stroke-opacity="0.15" stroke-dasharray="4 4"/><line x1="552.088888888889" y1="858.359033500748" x2="558.1333333333334" y2="873.8974131110787" stroke="#30363d" stroke-width="1" stroke-opacity="0.15" stroke-dasharray="4 4"/><line x1="552.088888888889" y1="858.359033500748" x2="564.1777777777779" y2="888.4581848005724" stroke="#30363d" stroke-width="1" stroke-opacity="0.15" stroke-dasharray="4 4"/><line x1="552.088888888889" y1="858.359033500748" x2="570.2222222222223" y2="907.7170608410596" stroke="#30363d" stroke-width="1" stroke-opacity="0.15" stroke-dasharray="4 4"/><line x1="558.1333333333334" y1="873.8974131110787" x2="564.1777777777779" y2="888.4581848005724" stroke="#30363d" stroke-width="1" stroke-opacity="0.15" stroke-dasharray="4 4"/><line x1="558.1333333333334" y1="873.8974131110787" x2="570.2222222222223" y2="907.7170608410596" stroke="#30363d" stroke-width="1" stroke-opacity="0.15" stroke-dasharray="4 4"/><line x1="564.1777777777779" y1="888.4581848005724" x2="570.2222222222223" y2="907.7170608410596" stroke="#30363d" stroke-width="1" stroke-opacity="0.15" stroke-dasharray="4 4"/><circle cx="86.66666666666666" cy="670" r="26" fill="#00ADD8" fill-opacity="0.08" class="fade-1"/><circle cx="86.66666666666666" cy="670" r="22" fill="#00ADD8" fill-opacity="0.7" stroke="#00ADD8" stroke-width="1.5" stroke-opacity="0.9" class="fade-1"/><text x="86.66666666666666" y="706" class="t t-value fade-1" text-anchor="middle">incipit</text><circle cx="313.33333333333337" cy="712.3644564790168" r="26" fill="#DA5B0B" fill-opacity="0.08" class="fade-2"/><circle cx="313.33333333333337" cy="712.3644564790168" r="22" fill="#DA5B0B" fill-opacity="0.7" stroke="#DA5B0B" stroke-width="1.5" stroke-opacity="0.9" class="fade-2"/><text x="313.33333333333337" y="748.3644564790168" class="t t-value fade-2" text-anchor="middle">lepus-classifier</text><circle cx="540.0000000000001" cy="719.359946150668" r="26" fill="#dea584" fill-opacity="0.08" class="fade-3"/><circle cx="540.0000000000001" cy="719.359946150668" r="22" fill="#dea584" fill-opacity="0.7" stroke="#dea584" stroke-width="1.5" stroke-opacity="0.9" class="fade-3"/><text x="540.0000000000001" y="755.359946150668" class="t t-value fade-3" text-anchor="middle">linear-gp</text><circle cx="101.77777777777777" cy="739.1858347852406" r="26" fill="#00ADD8" fill-opacity="0.08" class="fade-4"/><circle cx="101.77777777777777" cy="739.1858347852406" r="22" fill="#00ADD8" fill-opacity="0.7" stroke="#00ADD8" stroke-width="1.5" stroke-opacity="0.9" class="fade-4"/><text x="101.77777777777777" y="775.1858347852406" class="t t-value fade-4" text-anchor="middle">zigbee-rest</text><circle cx="691.1111111111112" cy="753.1153510744225" r="26" fill="#3178c6" fill-opacity="0.08" class="fade-5"/><circle cx="691.1111111111112" cy="753.1153510744225" r="22" fill="#3178c6" fill-opacity="0.7" stroke="#3178c6" stroke-width="1.5" stroke-opacity="0.9" class="fade-5"/><text x="691.1111111111112" y="789.1153510744225" class="t t-value fade-5" text-anchor="middle">urmzd.com</text><circle cx="464.44444444444446" cy="759.2072450039805" r="26" fill="#3572A5" fill-opacity="0.08" class="fade-6"/><circle cx="464.44444444444446" cy="759.2072450039805" r="22" fill="#3572A5" fill-opacity="0.7" stroke="#3572A5" stroke-width="1.5" stroke-opacity="0.9" class="fade-6"/><text x="464.44444444444446" y="795.2072450039805" class="t t-value fade-6" text-anchor="middle">exp-agi-models</text><circle cx="701.1851851851852" cy="792.4850186292689" r="22.32055238935067" fill="#3178c6" fill-opacity="0.08" class="fade-6"/><circle cx="701.1851851851852" cy="792.4850186292689" r="18.32055238935067" fill="#3178c6" fill-opacity="0.7" stroke="#3178c6" stroke-width="1.5" stroke-opacity="0.9" class="fade-6"/><text x="701.1851851851852" y="824.8055710186196" class="t t-value fade-6" text-anchor="middle">resume-generator-…</text><circle cx="630.6666666666667" cy="815.6780615530614" r="21.644993857961033" fill="#89e051" fill-opacity="0.08" class="fade-6"/><circle cx="630.6666666666667" cy="815.6780615530614" r="17.644993857961033" fill="#89e051" fill-opacity="0.7" stroke="#89e051" stroke-width="1.5" stroke-opacity="0.9" class="fade-6"/><text x="630.6666666666667" y="847.3230554110224" class="t t-value fade-6" text-anchor="middle">dotfiles</text><circle cx="711.2592592592594" cy="820.3328785456803" r="15.061182065019677" fill="#3178c6" fill-opacity="0.08" class="fade-6"/><circle cx="711.2592592592594" cy="820.3328785456803" r="11.061182065019677" fill="#3178c6" fill-opacity="0.7" stroke="#3178c6" stroke-width="1.5" stroke-opacity="0.9" class="fade-6"/><text x="711.2592592592594" y="845.3940606107" class="t t-value fade-6" text-anchor="middle">zoro</text><circle cx="343.55555555555554" cy="833.0487577235892" r="25.36863924926572" fill="#DA5B0B" fill-opacity="0.08" class="fade-6"/><circle cx="343.55555555555554" cy="833.0487577235892" r="21.36863924926572" fill="#DA5B0B" fill-opacity="0.7" stroke="#DA5B0B" stroke-width="1.5" stroke-opacity="0.9" class="fade-6"/><text x="343.55555555555554" y="868.4173969728549" class="t t-value fade-6" text-anchor="middle">md-classifier</text><circle cx="546.0444444444445" cy="844.0356808777433" r="20.751279260918498" fill="#dea584" fill-opacity="0.08" class="fade-6"/><circle cx="546.0444444444445" cy="844.0356808777433" r="16.751279260918498" fill="#dea584" fill-opacity="0.7" stroke="#dea584" stroke-width="1.5" stroke-opacity="0.9" class="fade-6"/><text x="546.0444444444445" y="874.7869601386618" class="t t-value fade-6" text-anchor="middle">oag</text><circle cx="116.88888888888889" cy="857.697053280067" r="14.600690044643535" fill="#00ADD8" fill-opacity="0.08" class="fade-6"/><circle cx="116.88888888888889" cy="857.697053280067" r="10.600690044643535" fill="#00ADD8" fill-opacity="0.7" stroke="#00ADD8" stroke-width="1.5" stroke-opacity="0.9" class="fade-6"/><text x="116.88888888888889" y="882.2977433247106" class="t t-value fade-6" text-anchor="middle">saige</text><circle cx="552.088888888889" cy="858.359033500748" r="26" fill="#dea584" fill-opacity="0.08" class="fade-6"/><circle cx="552.088888888889" cy="858.359033500748" r="22" fill="#dea584" fill-opacity="0.7" stroke="#dea584" stroke-width="1.5" stroke-opacity="0.9" class="fade-6"/><text x="552.088888888889" y="894.359033500748" class="t t-value fade-6" text-anchor="middle">teasr</text><circle cx="474.51851851851853" cy="862.2834310115362" r="25.46688344753587" fill="#3572A5" fill-opacity="0.08" class="fade-6"/><circle cx="474.51851851851853" cy="862.2834310115362" r="21.46688344753587" fill="#3572A5" fill-opacity="0.7" stroke="#3572A5" stroke-width="1.5" stroke-opacity="0.9" class="fade-6"/><text x="474.51851851851853" y="897.7503144590721" class="t t-value fade-6" text-anchor="middle">languide</text><circle cx="162.22222222222223" cy="869.2203090246834" r="24.861890796612347" fill="#b07219" fill-opacity="0.08" class="fade-6"/><circle cx="162.22222222222223" cy="869.2203090246834" r="20.861890796612347" fill="#b07219" fill-opacity="0.7" stroke="#b07219" stroke-width="1.5" stroke-opacity="0.9" class="fade-6"/><text x="162.22222222222223" y="904.0821998212957" class="t t-value fade-6" text-anchor="middle">flappy-bird</text><circle cx="558.1333333333334" cy="873.8974131110787" r="16.61899194361315" fill="#dea584" fill-opacity="0.08" class="fade-6"/><circle cx="558.1333333333334" cy="873.8974131110787" r="12.61899194361315" fill="#dea584" fill-opacity="0.7" stroke="#dea584" stroke-width="1.5" stroke-opacity="0.9" class="fade-6"/><text x="558.1333333333334" y="900.5164050546919" class="t t-value fade-6" text-anchor="middle">sr</text><circle cx="192.44444444444446" cy="883.4249005910065" r="14.637905107315877" fill="#b07219" fill-opacity="0.08" class="fade-6"/><circle cx="192.44444444444446" cy="883.4249005910065" r="10.637905107315877" fill="#b07219" fill-opacity="0.7" stroke="#b07219" stroke-width="1.5" stroke-opacity="0.9" class="fade-6"/><text x="192.44444444444446" y="908.0628056983223" class="t t-value fade-6" text-anchor="middle">barter-trader</text><circle cx="484.59259259259255" cy="886.3633106844934" r="14.425254648846348" fill="#3572A5" fill-opacity="0.08" class="fade-6"/><circle cx="484.59259259259255" cy="886.3633106844934" r="10.425254648846348" fill="#3572A5" fill-opacity="0.7" stroke="#3572A5" stroke-width="1.5" stroke-opacity="0.9" class="fade-6"/><text x="484.59259259259255" y="910.7885653333398" class="t t-value fade-6" text-anchor="middle">chess-cli</text><circle cx="564.1777777777779" cy="888.4581848005724" r="12.007080296528892" fill="#dea584" fill-opacity="0.08" class="fade-6"/><circle cx="564.1777777777779" cy="888.4581848005724" r="8.007080296528892" fill="#dea584" fill-opacity="0.7" stroke="#dea584" stroke-width="1.5" stroke-opacity="0.9" class="fade-6"/><text x="564.1777777777779" y="910.4652650971013" class="t t-value fade-6" text-anchor="middle">embed-src</text><circle cx="721.3333333333334" cy="891.5362531684647" r="25.32306360794312" fill="#3178c6" fill-opacity="0.08" class="fade-6"/><circle cx="721.3333333333334" cy="891.5362531684647" r="21.32306360794312" fill="#3178c6" fill-opacity="0.7" stroke="#3178c6" stroke-width="1.5" stroke-opacity="0.9" class="fade-6"/><text x="721.3333333333334" y="926.8593167764078" class="t t-value fade-6" text-anchor="middle">github-insights</text><circle cx="252.88888888888889" cy="907.0243558000094" r="12.127871907170075" fill="#f1e05a" fill-opacity="0.08" class="fade-6"/><circle cx="252.88888888888889" cy="907.0243558000094" r="8.127871907170075" fill="#f1e05a" fill-opacity="0.7" stroke="#f1e05a" stroke-width="1.5" stroke-opacity="0.9" class="fade-6"/><text x="252.88888888888889" y="929.1522277071795" class="t t-value fade-6" text-anchor="middle">cypress-name-too-…</text><circle cx="570.2222222222223" cy="907.7170608410596" r="10" fill="#dea584" fill-opacity="0.08" class="fade-6"/><circle cx="570.2222222222223" cy="907.7170608410596" r="6" fill="#dea584" fill-opacity="0.7" stroke="#dea584" stroke-width="1.5" stroke-opacity="0.9" class="fade-6"/><text x="570.2222222222223" y="927.7170608410596" class="t t-value fade-6" text-anchor="middle">gitit</text><circle cx="494.66666666666663" cy="916.1440411186737" r="10" fill="#3572A5" fill-opacity="0.08" class="fade-6"/><circle cx="494.66666666666663" cy="916.1440411186737" r="6" fill="#3572A5" fill-opacity="0.7" stroke="#3572A5" stroke-width="1.5" stroke-opacity="0.9" class="fade-6"/><text x="494.66666666666663" y="936.1440411186737" class="t t-value fade-6" text-anchor="middle">lightning-kfold</text><circle cx="404" cy="950" r="11.769290460954931" fill="#8b949e" fill-opacity="0.08" class="fade-6"/><circle cx="404" cy="950" r="7.769290460954932" fill="#8b949e" fill-opacity="0.7" stroke="#8b949e" stroke-width="1.5" stroke-opacity="0.9" class="fade-6"/><text x="404" y="971.769290460955" class="t t-value fade-6" text-anchor="middle">urmzd</text><text x="24" y="1076" class="t t-h">OPEN SOURCE IMPACT</text><text x="24" y="1092" class="t t-sub">External repositories contributed to</text><text x="24" y="1124" class="t t-card-title fade-1">getzep/graphiti</text><rect x="304" y="1114" width="400" height="12" rx="3" fill="#58a6ff" fill-opacity="0.7" class="fade-1"/><text x="720" y="1124" class="t t-value fade-1">★ 24,090</text><text x="784" y="1124" class="t t-value fade-1">Python</text><text x="24" y="1166" class="t t-card-title fade-2">googleapis/python-aiplatform</text><rect x="304" y="1156" width="268.51747019016074" height="12" rx="3" fill="#3fb950" fill-opacity="0.7" class="fade-2"/><text x="720" y="1166" class="t t-value fade-2">★ 873</text><text x="784" y="1166" class="t t-value fade-2">Python</text><text x="24" y="1208" class="t t-card-title fade-3">MathisWellmann/gym-rs</text><rect x="304" y="1198" width="192.3578075991304" height="12" rx="3" fill="#d29922" fill-opacity="0.7" class="fade-3"/><text x="720" y="1208" class="t t-value fade-3">★ 127</text><text x="784" y="1208" class="t t-value fade-3">Rust</text></svg>