<svg xmlns="http://www.w3.org/2000/svg" width="808" height="1286" viewBox="0 0 808 1286"><defs><style>
  .t { font-family: -apple-system,BlinkMacSystemFont,Segoe UI,Helvetica,Arial,sans-serif; font-variant-numeric: tabular-lining; }
  .t-h { font-size: 14px; fill: #c9d1d9; letter-spacing: 2px; font-weight: 600; }
  .t-sub { font-size: 11px; fill: #6e7681; }
  .t-label { font-size: 12px; fill: #8b949e; }
  .t-value { font-size: 11px; fill: #6e7681; }
  .t-subhdr { font-size: 11px; fill: #8b949e; letter-spacing: 1px; font-weight: 600; }
  .t-stat-label { font-size: 10px; fill: #8b949e; font-weight: 600; }
  .t-stat-value { font-size: 22px; font-weight: 700; }
  .t-card-title { font-size: 12px; fill: #58a6ff; font-weight: 700; }
  .t-card-detail { font-size: 11px; fill: #8b949e; }
  .t-pill { font-size: 11px; font-weight: 600; }
  .t-bullet { font-size: 12px; fill: #c9d1d9; }
  .bg-fill { fill: #0d1117; }
  .card-fill { fill: #161b22; }
  .border-stroke { stroke: #30363d; }

  @media (prefers-color-scheme: light) {
    .bg-fill { fill: #ffffff; }
    .card-fill { fill: #f6f8fa; }
    .border-stroke { stroke: #d0d7de; }
    .t-h { fill: #1f2328; }
    .t-sub { fill: #656d76; }
    .t-label { fill: #656d76; }
    .t-value { fill: #656d76; }
    .t-subhdr { fill: #656d76; }
    .t-stat-label { fill: #656d76; }
    .t-card-title { fill: #0969da; }
    .t-card-detail { fill: #656d76; }
    .t-bullet { fill: #1f2328; }
  }

  @keyframes fadeIn {
    from { opacity: 0; transform: translateY(8px); }
    to { opacity: 1; transform: translateY(0); }
  }
  @keyframes scaleIn {
    from { transform: scale(0); opacity: 0; }
    to { transform: scale(1); opacity: 1; }
  }
  @keyframes drawPath {
    from { stroke-dashoffset: var(--path-length); }
    to { stroke-dashoffset: 0; }
  }
  @keyframes radarReveal {
    from { transform: scale(0); opacity: 0; }
    to { transform: scale(1); opacity: 0.6; }
  }
  .fade-1 { animation: fadeIn 0.6s ease-out 0.1s both; }
  .fade-2 { animation: fadeIn 0.6s ease-out 0.25s both; }
  .fade-3 { animation: fadeIn 0.6s ease-out 0.4s both; }
  .fade-4 { animation: fadeIn 0.6s ease-out 0.55s both; }
  .fade-5 { animation: fadeIn 0.6s ease-out 0.7s both; }
  .fade-6 { animation: fadeIn 0.6s ease-out 0.85s both; }
</style></defs><rect width="808" height="1286" rx="12" class="bg-fill" fill="#0d1117"/><text x="24" y="40" class="t t-h">LANGUAGE VELOCITY</text><text x="24" y="56" class="t t-sub">How language usage has evolved over the past year</text><path d="M 24,206 C 55.66666666666667,206 55.66666666666667,206 87.33333333333334,206 C 119.00000000000001,206 119.00000000000001,205.4756554307116 150.66666666666669,205.4756554307116 C 182.33333333333334,205.4756554307116 182.33333333333334,204.95131086142322 214,204.95131086142322 C 245.66666666666669,204.95131086142322 245.66666666666669,205.65043695380774 277.33333333333337,205.65043695380774 C 309,205.65043695380774 309,206 340.6666666666667,206 C 372.33333333333337,206 372.33333333333337,199.0087390761548 404,199.0087390761548 C 435.6666666666667,199.0087390761548 435.6666666666667,204.7765293383271 467.33333333333337,204.7765293383271 C 499.00000000000006,204.7765293383271 499.00000000000006,200.58177278401996 530.6666666666667,200.58177278401996 C 562.3333333333334,200.58177278401996 562.3333333333334,204.95131086142322 594,204.95131086142322 C 625.6666666666667,204.95131086142322 625.6666666666667,175.41323345817727 657.3333333333334,175.41323345817727 C 689,175.41323345817727 689,123.85268414481898 720.6666666666667,123.85268414481898 C 752.3333333333334,123.85268414481898 752.3333333333334,66 784,66 L 784,66.69912609238452 C 752.3333333333334,66.69912609238452 752.3333333333334,124.20224719101124 720.6666666666667,124.20224719101124 C 689,124.20224719101124 689,175.5880149812734 657.3333333333334,175.5880149812734 C 625.6666666666667,175.5880149812734 625.6666666666667,204.95131086142322 594,204.95131086142322 C 562.3333333333334,204.95131086142322 562.3333333333334,200.58177278401996 530.6666666666667,200.58177278401996 C 499.00000000000006,200.58177278401996 499.00000000000006,204.7765293383271 467.33333333333337,204.7765293383271 C 435.6666666666667,204.7765293383271 435.6666666666667,199.0087390761548 404,199.0087390761548 C 372.33333333333337,199.0087390761548 372.33333333333337,206 340.6666666666667,206 C 309,206 309,205.65043695380774 277.33333333333337,205.65043695380774 C 245.66666666666669,205.65043695380774 245.66666666666669,204.95131086142322 214,204.95131086142322 C 182.33333333333334,204.95131086142322 182.33333333333334,205.4756554307116 150.66666666666669,205.4756554307116 C 119.00000000000001,205.4756554307116 119.00000000000001,206 87.33333333333334,206 C 55.66666666666667,206 55.66666666666667,206 24,206 Z" fill="#3D6117" fill-opacity="0.75" class="fade-1"/><path d="M 24,206 C 55.66666666666667,206 55.66666666666667,206 87.33333333333334,206 C 119.00000000000001,206 119.00000000000001,205.4756554307116 150.66666666666669,205.4756554307116 C 182.33333333333334,205.4756554307116 182.33333333333334,204.95131086142322 214,204.95131086142322 C 245.66666666666669,204.95131086142322 245.66666666666669,205.65043695380774 277.33333333333337,205.65043695380774 C 309,205.65043695380774 309,206 340.6666666666667,206 C 372.33333333333337,206 372.33333333333337,199.0087390761548 404,199.0087390761548 C 435.6666666666667,199.0087390761548 435.6666666666667,204.7765293383271 467.33333333333337,204.7765293383271 C 499.00000000000006,204.7765293383271 499.00000000000006,200.58177278401996 530.6666666666667,200.58177278401996 C 562.3333333333334,200.58177278401996 562.3333333333334,204.95131086142322 594,204.95131086142322 C 625.6666666666667,204.95131086142322 625.6666666666667,175.5880149812734 657.3333333333334,175.5880149812734 C 689,175.5880149812734 689,124.20224719101124 720.6666666666667,124.20224719101124 C 752.3333333333334,124.20224719101124 752.3333333333334,66.69912609238452 784,66.69912609238452 L 784,67.7478152309613 C 752.3333333333334,67.7478152309613 752.3333333333334,124.72659176029963 720.6666666666667,124.72659176029963 C 689,124.72659176029963 689,175.76279650436953 657.3333333333334,175.76279650436953 C 625.6666666666667,175.76279650436953 625.6666666666667,204.95131086142322 594,204.95131086142322 C 562.3333333333334,204.95131086142322 562.3333333333334,200.58177278401996 530.6666666666667,200.58177278401996 C 499.00000000000006,200.58177278401996 499.00000000000006,204.7765293383271 467.33333333333337,204.7765293383271 C 435.6666666666667,204.7765293383271 435.6666666666667,199.0087390761548 404,199.0087390761548 C 372.33333333333337,199.0087390761548 372.33333333333337,206 340.6666666666667,206 C 309,206 309,205.65043695380774 277.33333333333337,205.65043695380774 C 245.66666666666669,205.65043695380774 245.66666666666669,204.95131086142322 214,204.95131086142322 C 182.33333333333334,204.95131086142322 182.33333333333334,205.4756554307116 150.66666666666669,205.4756554307116 C 119.00000000000001,205.4756554307116 119.00000000000001,206 87.33333333333334,206 C 55.66666666666667,206 55.66666666666667,206 24,206 Z" fill="#DA5B0B" fill-opacity="0.75" class="fade-2"/><path d="M 24,206 C 55.66666666666667,206 55.66666666666667,206 87.33333333333334,206 C 119.00000000000001,206 119.00000000000001,205.4756554307116 150.66666666666669,205.4756554307116 C 182.33333333333334,205.4756554307116 182.33333333333334,204.95131086142322 214,204.95131086142322 C 245.66666666666669,204.95131086142322 245.66666666666669,205.65043695380774 277.33333333333337,205.65043695380774 C 309,205.65043695380774 309,206 340.6666666666667,206 C 372.33333333333337,206 372.33333333333337,199.0087390761548 404,199.0087390761548 C 435.6666666666667,199.0087390761548 435.6666666666667,204.7765293383271 467.33333333333337,204.7765293383271 C 499.00000000000006,204.7765293383271 499.00000000000006,200.58177278401996 530.6666666666667,200.58177278401996 C 562.3333333333334,200.58177278401996 562.3333333333334,204.95131086142322 594,204.95131086142322 C 625.6666666666667,204.95131086142322 625.6666666666667,175.76279650436953 657.3333333333334,175.76279650436953 C 689,175.76279650436953 689,124.72659176029963 720.6666666666667,124.72659176029963 C 752.3333333333334,124.72659176029963 752.3333333333334,67.7478152309613 784,67.7478152309613 L 784,72.64169787765294 C 752.3333333333334,72.64169787765294 752.3333333333334,127.5230961298377 720.6666666666667,127.5230961298377 C 689,127.5230961298377 689,176.8114856429463 657.3333333333334,176.8114856429463 C 625.6666666666667,176.8114856429463 625.6666666666667,204.95131086142322 594,204.95131086142322 C 562.3333333333334,204.95131086142322 562.3333333333334,200.75655430711612 530.6666666666667,200.75655430711612 C 499.00000000000006,200.75655430711612 499.00000000000006,204.7765293383271 467.33333333333337,204.7765293383271 C 435.6666666666667,204.7765293383271 435.6666666666667,199.18352059925093 404,199.18352059925093 C 372.33333333333337,199.18352059925093 372.33333333333337,206 340.6666666666667,206 C 309,206 309,205.65043695380774 277.33333333333337,205.65043695380774 C 245.66666666666669,205.65043695380774 245.66666666666669,204.95131086142322 214,204.95131086142322 C 182.33333333333334,204.95131086142322 182.33333333333334,205.4756554307116 150.66666666666669,205.4756554307116 C 119.00000000000001,205.4756554307116 119.00000000000001,206 87.33333333333334,206 C 55.66666666666667,206 55.66666666666667,206 24,206 Z" fill="#b07219" fill-opacity="0.75" class="fade-3"/><path d="M 24,206 C 55.66666666666667,206 55.66666666666667,206 87.33333333333334,206 C 119.00000000000001,206 119.00000000000001,205.4756554307116 150.66666666666669,205.4756554307116 C 182.33333333333334,205.4756554307116 182.33333333333334,204.95131086142322 214,204.95131086142322 C 245.66666666666669,204.95131086142322 245.66666666666669,205.65043695380774 277.33333333333337,205.65043695380774 C 309,205.65043695380774 309,206 340.6666666666667,206 C 372.33333333333337,206 372.33333333333337,199.18352059925093 404,199.18352059925093 C 435.6666666666667,199.18352059925093 435.6666666666667,204.7765293383271 467.33333333333337,204.7765293383271 C 499.00000000000006,204.7765293383271 499.00000000000006,200.75655430711612 530.6666666666667,200.75655430711612 C 562.3333333333334,200.75655430711612 562.3333333333334,204.95131086142322 594,204.95131086142322 C 625.6666666666667,204.95131086142322 625.6666666666667,176.8114856429463 657.3333333333334,176.8114856429463 C 689,176.8114856429463 689,127.5230961298377 720.6666666666667,127.5230961298377 C 752.3333333333334,127.5230961298377 752.3333333333334,72.64169787765294 784,72.64169787765294 L 784,85.57553058676655 C 752.3333333333334,85.57553058676655 752.3333333333334,135.0387016229713 720.6666666666667,135.0387016229713 C 689,135.0387016229713 689,179.6079900124844 657.3333333333334,179.6079900124844 C 625.6666666666667,179.6079900124844 625.6666666666667,205.12609238451935 594,205.12609238451935 C 562.3333333333334,205.12609238451935 562.3333333333334,201.2808988764045 530.6666666666667,201.2808988764045 C 499.00000000000006,201.2808988764045 499.00000000000006,204.95131086142322 467.33333333333337,204.95131086142322 C 435.6666666666667,204.95131086142322 435.6666666666667,199.88264669163544 404,199.88264669163544 C 372.33333333333337,199.88264669163544 372.33333333333337,206 340.6666666666667,206 C 309,206 309,205.65043695380774 277.33333333333337,205.65043695380774 C 245.66666666666669,205.65043695380774 245.66666666666669,205.12609238451935 214,205.12609238451935 C 182.33333333333334,205.12609238451935 182.33333333333334,205.4756554307116 150.66666666666669,205.4756554307116 C 119.00000000000001,205.4756554307116 119.00000000000001,206 87.33333333333334,206 C 55.66666666666667,206 55.66666666666667,206 24,206 Z" fill="#3572A5" fill-opacity="0.75" class="fade-4"/><path d="M 24,206 C 55.66666666666667,206 55.66666666666667,206 87.33333333333334,206 C 119.00000000000001,206 119.00000000000001,205.4756554307116 150.66666666666669,205.4756554307116 C 182.33333333333334,205.4756554307116 182.33333333333334,205.12609238451935 214,205.12609238451935 C 245.66666666666669,205.12609238451935 245.66666666666669,205.65043695380774 277.33333333333337,205.65043695380774 C 309,205.65043695380774 309,206 340.6666666666667,206 C 372.33333333333337,206 372.33333333333337,199.88264669163544 404,199.88264669163544 C 435.6666666666667,199.88264669163544 435.6666666666667,204.95131086142322 467.33333333333337,204.95131086142322 C 499.00000000000006,204.95131086142322 499.00000000000006,201.2808988764045 530.6666666666667,201.2808988764045 C 562.3333333333334,201.2808988764045 562.3333333333334,205.12609238451935 594,205.12609238451935 C 625.6666666666667,205.12609238451935 625.6666666666667,179.6079900124844 657.3333333333334,179.6079900124844 C 689,179.6079900124844 689,135.0387016229713 720.6666666666667,135.0387016229713 C 752.3333333333334,135.0387016229713 752.3333333333334,85.57553058676655 784,85.57553058676655 L 784,104.45193508114856 C 752.3333333333334,104.45193508114856 752.3333333333334,146.22471910112358 720.6666666666667,146.22471910112358 C 689,146.22471910112358 689,183.8027465667915 657.3333333333334,183.8027465667915 C 625.6666666666667,183.8027465667915 625.6666666666667,205.30087390761548 594,205.30087390761548 C 562.3333333333334,205.30087390761548 562.3333333333334,201.98002496878902 530.6666666666667,201.98002496878902 C 499.00000000000006,201.98002496878902 499.00000000000006,205.12609238451935 467.33333333333337,205.12609238451935 C 435.6666666666667,205.12609238451935 435.6666666666667,200.75655430711612 404,200.75655430711612 C 372.33333333333337,200.75655430711612 372.33333333333337,206 340.6666666666667,206 C 309,206 309,205.65043695380774 277.33333333333337,205.65043695380774 C 245.66666666666669,205.65043695380774 245.66666666666669,205.30087390761548 214,205.30087390761548 C 182.33333333333334,205.30087390761548 182.33333333333334,205.4756554307116 150.66666666666669,205.4756554307116 C 119.00000000000001,205.4756554307116 119.00000000000001,206 87.33333333333334,206 C 55.66666666666667,206 55.66666666666667,206 24,206 Z" fill="#89e051" fill-opacity="0.75" class="fade-5"/><path d="M 24,206 C 55.66666666666667,206 55.66666666666667,206 87.33333333333334,206 C 119.00000000000001,206 119.00000000000001,205.4756554307116 150.66666666666669,205.4756554307116 C 182.33333333333334,205.4756554307116 182.33333333333334,205.30087390761548 214,205.30087390761548 C 245.66666666666669,205.30087390761548 245.66666666666669,205.65043695380774 277.33333333333337,205.65043695380774 C 309,205.65043695380774 309,206 340.6666666666667,206 C 372.33333333333337,206 372.33333333333337,200.75655430711612 404,200.75655430711612 C 435.6666666666667,200.75655430711612 435.6666666666667,205.12609238451935 467.33333333333337,205.12609238451935 C 499.00000000000006,205.12609238451935 499.00000000000006,201.98002496878902 530.6666666666667,201.98002496878902 C 562.3333333333334,201.98002496878902 562.3333333333334,205.30087390761548 594,205.30087390761548 C 625.6666666666667,205.30087390761548 625.6666666666667,183.8027465667915 657.3333333333334,183.8027465667915 C 689,183.8027465667915 689,146.22471910112358 720.6666666666667,146.22471910112358 C 752.3333333333334,146.22471910112358 752.3333333333334,104.45193508114856 784,104.45193508114856 L 784,127.5230961298377 C 752.3333333333334,127.5230961298377 752.3333333333334,159.85767790262173 720.6666666666667,159.85767790262173 C 689,159.85767790262173 689,188.87141073657926 657.3333333333334,188.87141073657926 C 625.6666666666667,188.87141073657926 625.6666666666667,205.4756554307116 594,205.4756554307116 C 562.3333333333334,205.4756554307116 562.3333333333334,202.85393258426967 530.6666666666667,202.85393258426967 C 499.00000000000006,202.85393258426967 499.00000000000006,205.30087390761548 467.33333333333337,205.30087390761548 C 435.6666666666667,205.30087390761548 435.6666666666667,201.98002496878902 404,201.98002496878902 C 372.33333333333337,201.98002496878902 372.33333333333337,206 340.6666666666667,206 C 309,206 309,205.65043695380774 277.33333333333337,205.65043695380774 C 245.66666666666669,205.65043695380774 245.66666666666669,205.4756554307116 214,205.4756554307116 C 182.33333333333334,205.4756554307116 182.33333333333334,205.65043695380774 150.66666666666669,205.65043695380774 C 119.00000000000001,205.65043695380774 119.00000000000001,206 87.33333333333334,206 C 55.66666666666667,206 55.66666666666667,206 24,206 Z" fill="#00ADD8" fill-opacity="0.75" class="fade-6"/><path d="M 24,206 C 55.66666666666667,206 55.66666666666667,206 87.33333333333334,206 C 119.00000000000001,206 119.00000000000001,205.65043695380774 150.66666666666669,205.65043695380774 C 182.33333333333334,205.65043695380774 182.33333333333334,205.4756554307116 214,205.4756554307116 C 245.66666666666669,205.4756554307116 245.66666666666669,205.65043695380774 277.33333333333337,205.65043695380774 C 309,205.65043695380774 309,206 340.6666666666667,206 C 372.33333333333337,206 372.33333333333337,201.98002496878902 404,201.98002496878902 C 435.6666666666667,201.98002496878902 435.6666666666667,205.30087390761548 467.33333333333337,205.30087390761548 C 499.00000000000006,205.30087390761548 499.00000000000006,202.85393258426967 530.6666666666667,202.85393258426967 C 562.3333333333334,202.85393258426967 562.3333333333334,205.4756554307116 594,205.4756554307116 C 625.6666666666667,205.4756554307116 625.6666666666667,188.87141073657926 657.3333333333334,188.87141073657926 C 689,188.87141073657926 689,159.85767790262173 720.6666666666667,159.85767790262173 C 752.3333333333334,159.85767790262173 752.3333333333334,127.5230961298377 784,127.5230961298377 L 784,157.93508114856428 C 752.3333333333334,157.93508114856428 752.3333333333334,177.68539325842696 720.6666666666667,177.68539325842696 C 689,177.68539325842696 689,195.5131086142322 657.3333333333334,195.5131086142322 C 625.6666666666667,195.5131086142322 625.6666666666667,205.65043695380774 594,205.65043695380774 C 562.3333333333334,205.65043695380774 562.3333333333334,204.07740324594258 530.6666666666667,204.07740324594258 C 499.00000000000006,204.07740324594258 499.00000000000006,205.65043695380774 467.33333333333337,205.65043695380774 C 435.6666666666667,205.65043695380774 435.6666666666667,203.5530586766542 404,203.5530586766542 C 372.33333333333337,203.5530586766542 372.33333333333337,206 340.6666666666667,206 C 309,206 309,205.82521847690387 277.33333333333337,205.82521847690387 C 245.66666666666669,205.82521847690387 245.66666666666669,205.65043695380774 214,205.65043695380774 C 182.33333333333334,205.65043695380774 182.33333333333334,205.82521847690387 150.66666666666669,205.82521847690387 C 119.00000000000001,205.82521847690387 119.00000000000001,206 87.33333333333334,206 C 55.66666666666667,206 55.66666666666667,206 24,206 Z" fill="#3178c6" fill-opacity="0.75" class="fade-6"/><path d="M 24,206 C 55.66666666666667,206 55.66666666666667,206 87.33333333333334,206 C 119.00000000000001,206 119.00000000000001,205.82521847690387 150.66666666666669,205.82521847690387 C 182.33333333333334,205.82521847690387 182.33333333333334,205.65043695380774 214,205.65043695380774 C 245.66666666666669,205.65043695380774 245.66666666666669,205.82521847690387 277.33333333333337,205.82521847690387 C 309,205.82521847690387 309,206 340.6666666666667,206 C 372.33333333333337,206 372.33333333333337,203.5530586766542 404,203.5530586766542 C 435.6666666666667,203.5530586766542 435.6666666666667,205.65043695380774 467.33333333333337,205.65043695380774 C 499.00000000000006,205.65043695380774 499.00000000000006,204.07740324594258 530.6666666666667,204.07740324594258 C 562.3333333333334,204.07740324594258 562.3333333333334,205.65043695380774 594,205.65043695380774 C 625.6666666666667,205.65043695380774 625.6666666666667,195.5131086142322 657.3333333333334,195.5131086142322 C 689,195.5131086142322 689,177.68539325842696 720.6666666666667,177.68539325842696 C 752.3333333333334,177.68539325842696 752.3333333333334,157.93508114856428 784,157.93508114856428 L 784,206 C 752.3333333333334,206 752.3333333333334,206 720.6666666666667,206 C 689,206 689,206 657.3333333333334,206 C 625.6666666666667,206 625.6666666666667,206 594,206 C 562.3333333333334,206 562.3333333333334,206 530.6666666666667,206 C 499.00000000000006,206 499.00000000000006,206 467.33333333333337,206 C 435.6666666666667,206 435.6666666666667,206 404,206 C 372.33333333333337,206 372.33333333333337,206 340.6666666666667,206 C 309,206 309,206 277.33333333333337,206 C 245.66666666666669,206 245.66666666666669,206 214,206 C 182.33333333333334,206 182.33333333333334,206 150.66666666666669,206 C 119.00000000000001,206 119.00000000000001,206 87.33333333333334,206 C 55.66666666666667,206 55.66666666666667,206 24,206 Z" fill="#dea584" fill-opacity="0.75" class="fade-6"/><rect x="24" y="212" width="8" height="8" rx="2" fill="#dea584" opacity="0.85"/><text x="36" y="220" class="t t-value">Rust</text><rect x="80" y="212" width="8" height="8" rx="2" fill="#3178c6" opacity="0.85"/><text x="92" y="220" class="t t-value">TypeScript</text><rect x="178" y="212" width="8" height="8" rx="2" fill="#00ADD8" opacity="0.85"/><text x="190" y="220" class="t t-value">Go</text><rect x="220" y="212" width="8" height="8" rx="2" fill="#89e051" opacity="0.85"/><text x="232" y="220" class="t t-value">Shell</text><rect x="283" y="212" width="8" height="8" rx="2" fill="#3572A5" opacity="0.85"/><text x="295" y="220" class="t t-value">Python</text><rect x="353" y="212" width="8" height="8" rx="2" fill="#b07219" opacity="0.85"/><text x="365" y="220" class="t t-value">Java</text><rect x="409" y="212" width="8" height="8" rx="2" fill="#DA5B0B" opacity="0.85"/><text x="421" y="220" class="t t-value">Jupyter Notebook</text><rect x="549" y="212" width="8" height="8" rx="2" fill="#3D6117" opacity="0.85"/><text x="561" y="220" class="t t-value">TeX</text><text x="24" y="220" class="t t-value" text-anchor="start" opacity="0">Mar</text><text x="150.66666666666669" y="220" class="t t-value" text-anchor="start" opacity="0">May</text><text x="277.33333333333337" y="220" class="t t-value" text-anchor="start" opacity="0">Jul</text><text x="404" y="220" class="t t-value" text-anchor="start" opacity="0">Sep</text><text x="530.6666666666667" y="220" class="t t-value" text-anchor="start" opacity="0">Nov</text><text x="657.3333333333334" y="220" class="t t-value" text-anchor="start" opacity="0">Jan</text><text x="784" y="220" class="t t-value" text-anchor="start" opacity="0">Mar</text><text x="24" y="282" class="t t-h">CONTRIBUTION RHYTHM</text><text x="24" y="298" class="t t-sub">Activity patterns and statistics over the past year</text><circle cx="144" cy="428" r="22.5" fill="none" stroke="#30363d" stroke-width="1" stroke-opacity="0.4"/><circle cx="144" cy="428" r="45" fill="none" stroke="#30363d" stroke-width="1" stroke-opacity="0.4"/><circle cx="144" cy="428" r="67.5" fill="none" stroke="#30363d" stroke-width="1" stroke-opacity="0.4"/><circle cx="144" cy="428" r="90" fill="none" stroke="#30363d" stroke-width="1" stroke-opacity="0.4"/><line x1="144" y1="428" x2="144" y2="338" stroke="#30363d" stroke-width="1" stroke-opacity="0.3"/><line x1="144" y1="428" x2="214.36483342212267" y2="371.885917832714" stroke="#30363d" stroke-width="1" stroke-opacity="0.3"/><line x1="144" y1="428" x2="231.74351209636413" y2="448.0268840560683" stroke="#30363d" stroke-width="1" stroke-opacity="0.3"/><line x1="144" y1="428" x2="183.04953652058023" y2="509.08719811121773" stroke="#30363d" stroke-width="1" stroke-opacity="0.3"/><line x1="144" y1="428" x2="104.95046347941977" y2="509.08719811121773" stroke="#30363d" stroke-width="1" stroke-opacity="0.3"/><line x1="144" y1="428" x2="56.25648790363587" y2="448.0268840560683" stroke="#30363d" stroke-width="1" stroke-opacity="0.3"/><line x1="144" y1="428" x2="73.63516657787731" y2="371.885917832714" stroke="#30363d" stroke-width="1" stroke-opacity="0.3"/><polygon points="144,349.1448598130841 177.3739747305862,401.3851432711237 185.20664937235793,437.40514882072364 165.53198742723583,472.71163260338176 132.68658287721507,451.4925527238107 117.14392503592593,434.1297238582826 73.63516657787731,371.885917832714" fill="#58a6ff" fill-opacity="0.2" stroke="#58a6ff" stroke-width="2" stroke-opacity="0.8" class="fade-2" style="transform-origin: 144px 428px"/><circle cx="144" cy="349.1448598130841" r="3" fill="#58a6ff" class="fade-1"/><circle cx="177.3739747305862" cy="401.3851432711237" r="3" fill="#58a6ff" class="fade-2"/><circle cx="185.20664937235793" cy="437.40514882072364" r="3" fill="#58a6ff" class="fade-3"/><circle cx="165.53198742723583" cy="472.71163260338176" r="3" fill="#58a6ff" class="fade-4"/><circle cx="132.68658287721507" cy="451.4925527238107" r="3" fill="#58a6ff" class="fade-5"/><circle cx="117.14392503592593" cy="434.1297238582826" r="3" fill="#58a6ff" class="fade-6"/><circle cx="73.63516657787731" cy="371.885917832714" r="3" fill="#58a6ff" class="fade-6"/><text x="144" y="326" class="t t-value" text-anchor="middle">Sun</text><text x="226.87413714161116" y="365.91008100297427" class="t t-value" text-anchor="middle">Mon</text><text x="247.34235869127332" y="455.5872189993693" class="t t-value" text-anchor="middle">Tue</text><text x="189.99167634646116" y="527.5026999976565" class="t t-value" text-anchor="middle">Wed</text><text x="98.00832365353884" y="527.5026999976565" class="t t-value" text-anchor="middle">Thu</text><text x="40.657641308726696" y="455.5872189993693" class="t t-value" text-anchor="middle">Fri</text><text x="61.12586285838883" y="365.91008100297427" class="t t-value" text-anchor="middle">Sat</text><text x="324" y="338" class="t t-stat-label">COMMITS</text><text x="324" y="360" fill="#58a6ff" class="t t-stat-value">1,574</text><text x="324" y="380" class="t t-stat-label">PRS</text><text x="324" y="402" fill="#3fb950" class="t t-stat-value">4</text><text x="324" y="422" class="t t-stat-label">REVIEWS</text><text x="324" y="444" fill="#d29922" class="t t-stat-value">5</text><text x="324" y="464" class="t t-stat-label">REPOS</text><text x="324" y="486" fill="#bc8cff" class="t t-stat-value">25</text><text x="324" y="506" class="t t-stat-label">STREAK</text><text x="324" y="528" fill="#39d2c0" class="t t-stat-value">15d</text><text x="24" y="614" class="t t-h">PROJECT CONSTELLATION</text><text x="24" y="630" class="t t-sub">Projects mapped by language ecosystem and complexity</text><line x1="84.4" y1="670" x2="492.4" y2="733.8205317122204" stroke="#30363d" stroke-width="1" stroke-opacity="0.15" stroke-dasharray="4 4"/><line x1="84.4" y1="670" x2="98" y2="739.2286517817354" stroke="#30363d" stroke-width="1" stroke-opacity="0.15" stroke-dasharray="4 4"/><line x1="84.4" y1="670" x2="696.4" y2="743.8262525643465" stroke="#30363d" stroke-width="1" stroke-opacity="0.15" stroke-dasharray="4 4"/><line x1="84.4" y1="670" x2="111.6" y2="809.7382399542041" stroke="#30363d" stroke-width="1" stroke-opacity="0.15" stroke-dasharray="4 4"/><line x1="84.4" y1="670" x2="574" y2="815.882807906323" stroke="#30363d" stroke-width="1" stroke-opacity="0.15" stroke-dasharray="4 4"/><line x1="84.4" y1="670" x2="710" y2="820.4203251767813" stroke="#30363d" stroke-width="1" stroke-opacity="0.15" stroke-dasharray="4 4"/><line x1="84.4" y1="670" x2="496.93333333333334" y2="828.6764423268316" stroke="#30363d" stroke-width="1" stroke-opacity="0.15" stroke-dasharray="4 4"/><line x1="84.4" y1="670" x2="501.46666666666664" y2="844.13779644805" stroke="#30363d" stroke-width="1" stroke-opacity="0.15" stroke-dasharray="4 4"/><line x1="84.4" y1="670" x2="506" y2="864.4119581970228" stroke="#30363d" stroke-width="1" stroke-opacity="0.15" stroke-dasharray="4 4"/><line x1="84.4" y1="670" x2="433.46666666666664" y2="867.1537493020328" stroke="#30363d" stroke-width="1" stroke-opacity="0.15" stroke-dasharray="4 4"/><line x1="84.4" y1="670" x2="510.53333333333336" y2="874.258370085861" stroke="#30363d" stroke-width="1" stroke-opacity="0.15" stroke-dasharray="4 4"/><line x1="84.4" y1="670" x2="515.0666666666666" y2="907.8641766573594" stroke="#30363d" stroke-width="1" stroke-opacity="0.15" stroke-dasharray="4 4"/><line x1="84.4" y1="670" x2="642" y2="919.4965258714792" stroke="#30363d" stroke-width="1" stroke-opacity="0.15" stroke-dasharray="4 4"/><line x1="288.4" y1="712.3906745450442" x2="424.4" y2="759.2624526387299" stroke="#30363d" stroke-width="1" stroke-opacity="0.15" stroke-dasharray="4 4"/><line x1="288.4" y1="712.3906745450442" x2="710" y2="820.4203251767813" stroke="#30363d" stroke-width="1" stroke-opacity="0.15" stroke-dasharray="4 4"/><line x1="288.4" y1="712.3906745450442" x2="315.6" y2="833.1496636114725" stroke="#30363d" stroke-width="1" stroke-opacity="0.15" stroke-dasharray="4 4"/><line x1="288.4" y1="712.3906745450442" x2="433.46666666666664" y2="867.1537493020328" stroke="#30363d" stroke-width="1" stroke-opacity="0.15" stroke-dasharray="4 4"/><line x1="492.4" y1="733.8205317122204" x2="98" y2="739.2286517817354" stroke="#30363d" stroke-width="1" stroke-opacity="0.15" stroke-dasharray="4 4"/><line x1="492.4" y1="733.8205317122204" x2="111.6" y2="809.7382399542041" stroke="#30363d" stroke-width="1" stroke-opacity="0.15" stroke-dasharray="4 4"/><line x1="492.4" y1="733.8205317122204" x2="574" y2="815.882807906323" stroke="#30363d" stroke-width="1" stroke-opacity="0.15" stroke-dasharray="4 4"/><line x1="492.4" y1="733.8205317122204" x2="710" y2="820.4203251767813" stroke="#30363d" stroke-width="1" stroke-opacity="0.15" stroke-dasharray="4 4"/><line x1="492.4" y1="733.8205317122204" x2="496.93333333333334" y2="828.6764423268316" stroke="#30363d" stroke-width="1" stroke-opacity="0.15" stroke-dasharray="4 4"/><line x1="492.4" y1="733.8205317122204" x2="501.46666666666664" y2="844.13779644805" stroke="#30363d" stroke-width="1" stroke-opacity="0.15" stroke-dasharray="4 4"/><line x1="492.4" y1="733.8205317122204" x2="506" y2="864.4119581970228" stroke="#30363d" stroke-width="1" stroke-opacity="0.15" stroke-dasharray="4 4"/><line x1="492.4" y1="733.8205317122204" x2="510.53333333333336" y2="874.258370085861" stroke="#30363d" stroke-width="1" stroke-opacity="0.15" stroke-dasharray="4 4"/><line x1="492.4" y1="733.8205317122204" x2="515.0666666666666" y2="907.8641766573594" stroke="#30363d" stroke-width="1" stroke-opacity="0.15" stroke-dasharray="4 4"/><line x1="492.4" y1="733.8205317122204" x2="519.6" y2="908.0849732906884" stroke="#30363d" stroke-width="1" stroke-opacity="0.15" stroke-dasharray="4 4"/><line x1="98" y1="739.2286517817354" x2="111.6" y2="809.7382399542041" stroke="#30363d" stroke-width="1" stroke-opacity="0.15" stroke-dasharray="4 4"/><line x1="98" y1="739.2286517817354" x2="574" y2="815.882807906323" stroke="#30363d" stroke-width="1" stroke-opacity="0.15" stroke-dasharray="4 4"/><line x1="98" y1="739.2286517817354" x2="710" y2="820.4203251767813" stroke="#30363d" stroke-width="1" stroke-opacity="0.15" stroke-dasharray="4 4"/><line x1="98" y1="739.2286517817354" x2="496.93333333333334" y2="828.6764423268316" stroke="#30363d" stroke-width="1" stroke-opacity="0.15" stroke-dasharray="4 4"/><line x1="98" y1="739.2286517817354" x2="501.46666666666664" y2="844.13779644805" stroke="#30363d" stroke-width="1" stroke-opacity="0.15" stroke-dasharray="4 4"/><line x1="98" y1="739.2286517817354" x2="506" y2="864.4119581970228" stroke="#30363d" stroke-width="1" stroke-opacity="0.15" stroke-dasharray="4 4"/><line x1="98" y1="739.2286517817354" x2="510.53333333333336" y2="874.258370085861" stroke="#30363d" stroke-width="1" stroke-opacity="0.15" stroke-dasharray="4 4"/><line x1="98" y1="739.2286517817354" x2="515.0666666666666" y2="907.8641766573594" stroke="#30363d" stroke-width="1" stroke-opacity="0.15" stroke-dasharray="4 4"/><line x1="696.4" y1="743.8262525643465" x2="710" y2="820.4203251767813" stroke="#30363d" stroke-width="1" stroke-opacity="0.15" stroke-dasharray="4 4"/><line x1="696.4" y1="743.8262525643465" x2="496.93333333333334" y2="828.6764423268316" stroke="#30363d" stroke-width="1" stroke-opacity="0.15" stroke-dasharray="4 4"/><line x1="696.4" y1="743.8262525643465" x2="234" y2="907.1710429223517" stroke="#30363d" stroke-width="1" stroke-opacity="0.15" stroke-dasharray="4 4"/><line x1="424.4" y1="759.2624526387299" x2="710" y2="820.4203251767813" stroke="#30363d" stroke-width="1" stroke-opacity="0.15" stroke-dasharray="4 4"/><line x1="424.4" y1="759.2624526387299" x2="315.6" y2="833.1496636114725" stroke="#30363d" stroke-width="1" stroke-opacity="0.15" stroke-dasharray="4 4"/><line x1="424.4" y1="759.2624526387299" x2="433.46666666666664" y2="867.1537493020328" stroke="#30363d" stroke-width="1" stroke-opacity="0.15" stroke-dasharray="4 4"/><line x1="111.6" y1="809.7382399542041" x2="574" y2="815.882807906323" stroke="#30363d" stroke-width="1" stroke-opacity="0.15" stroke-dasharray="4 4"/><line x1="111.6" y1="809.7382399542041" x2="710" y2="820.4203251767813" stroke="#30363d" stroke-width="1" stroke-opacity="0.15" stroke-dasharray="4 4"/><line x1="111.6" y1="809.7382399542041" x2="496.93333333333334" y2="828.6764423268316" stroke="#30363d" stroke-width="1" stroke-opacity="0.15" stroke-dasharray="4 4"/><line x1="111.6" y1="809.7382399542041" x2="501.46666666666664" y2="844.13779644805" stroke="#30363d" stroke-width="1" stroke-opacity="0.15" stroke-dasharray="4 4"/><line x1="111.6" y1="809.7382399542041" x2="506" y2="864.4119581970228" stroke="#30363d" stroke-width="1" stroke-opacity="0.15" stroke-dasharray="4 4"/><line x1="111.6" y1="809.7382399542041" x2="510.53333333333336" y2="874.258370085861" stroke="#30363d" stroke-width="1" stroke-opacity="0.15" stroke-dasharray="4 4"/><line x1="111.6" y1="809.7382399542041" x2="515.0666666666666" y2="907.8641766573594" stroke="#30363d" stroke-width="1" stroke-opacity="0.15" stroke-dasharray="4 4"/><line x1="574" y1="815.882807906323" x2="710" y2="820.4203251767813" stroke="#30363d" stroke-width="1" stroke-opacity="0.15" stroke-dasharray="4 4"/><line x1="574" y1="815.882807906323" x2="496.93333333333334" y2="828.6764423268316" stroke="#30363d" stroke-width="1" stroke-opacity="0.15" stroke-dasharray="4 4"/><line x1="574" y1="815.882807906323" x2="501.46666666666664" y2="844.13779644805" stroke="#30363d" stroke-width="1" stroke-opacity="0.15" stroke-dasharray="4 4"/><line x1="574" y1="815.882807906323" x2="506" y2="864.4119581970228" stroke="#30363d" stroke-width="1" stroke-opacity="0.15" stroke-dasharray="4 4"/><line x1="574" y1="815.882807906323" x2="510.53333333333336" y2="874.258370085861" stroke="#30363d" stroke-width="1" stroke-opacity="0.15" stroke-dasharray="4 4"/><line x1="574" y1="815.882807906323" x2="179.6" y2="883.5569827325155" stroke="#30363d" stroke-width="1" stroke-opacity="0.15" stroke-dasharray="4 4"/><line x1="574" y1="815.882807906323" x2="515.0666666666666" y2="907.8641766573594" stroke="#30363d" stroke-width="1" stroke-opacity="0.15" stroke-dasharray="4 4"/><line x1="710" y1="820.4203251767813" x2="496.93333333333334" y2="828.6764423268316" stroke="#30363d" stroke-width="1" stroke-opacity="0.15" stroke-dasharray="4 4"/><line x1="710" y1="820.4203251767813" x2="315.6" y2="833.1496636114725" stroke="#30363d" stroke-width="1" stroke-opacity="0.15" stroke-dasharray="4 4"/><line x1="710" y1="820.4203251767813" x2="501.46666666666664" y2="844.13779644805" stroke="#30363d" stroke-width="1" stroke-opacity="0.15" stroke-dasharray="4 4"/><line x1="710" y1="820.4203251767813" x2="506" y2="864.4119581970228" stroke="#30363d" stroke-width="1" stroke-opacity="0.15" stroke-dasharray="4 4"/><line x1="710" y1="820.4203251767813" x2="433.46666666666664" y2="867.1537493020328" stroke="#30363d" stroke-width="1" stroke-opacity="0.15" stroke-dasharray="4 4"/><line x1="710" y1="820.4203251767813" x2="510.53333333333336" y2="874.258370085861" stroke="#30363d" stroke-width="1" stroke-opacity="0.15" stroke-dasharray="4 4"/><line x1="710" y1="820.4203251767813" x2="442.53333333333336" y2="886.4972113181125" stroke="#30363d" stroke-width="1" stroke-opacity="0.15" stroke-dasharray="4 4"/><line x1="710" y1="820.4203251767813" x2="723.6" y2="889.0377700484428" stroke="#30363d" stroke-width="1" stroke-opacity="0.15" stroke-dasharray="4 4"/><line x1="710" y1="820.4203251767813" x2="234" y2="907.1710429223517" stroke="#30363d" stroke-width="1" stroke-opacity="0.15" stroke-dasharray="4 4"/><line x1="710" y1="820.4203251767813" x2="515.0666666666666" y2="907.8641766573594" stroke="#30363d" stroke-width="1" stroke-opacity="0.15" stroke-dasharray="4 4"/><line x1="496.93333333333334" y1="828.6764423268316" x2="501.46666666666664" y2="844.13779644805" stroke="#30363d" stroke-width="1" stroke-opacity="0.15" stroke-dasharray="4 4"/><line x1="496.93333333333334" y1="828.6764423268316" x2="506" y2="864.4119581970228" stroke="#30363d" stroke-width="1" stroke-opacity="0.15" stroke-dasharray="4 4"/><line x1="496.93333333333334" y1="828.6764423268316" x2="510.53333333333336" y2="874.258370085861" stroke="#30363d" stroke-width="1" stroke-opacity="0.15" stroke-dasharray="4 4"/><line x1="496.93333333333334" y1="828.6764423268316" x2="515.0666666666666" y2="907.8641766573594" stroke="#30363d" stroke-width="1" stroke-opacity="0.15" stroke-dasharray="4 4"/><line x1="496.93333333333334" y1="828.6764423268316" x2="519.6" y2="908.0849732906884" stroke="#30363d" stroke-width="1" stroke-opacity="0.15" stroke-dasharray="4 4"/><line x1="315.6" y1="833.1496636114725" x2="433.46666666666664" y2="867.1537493020328" stroke="#30363d" stroke-width="1" stroke-opacity="0.15" stroke-dasharray="4 4"/><line x1="501.46666666666664" y1="844.13779644805" x2="506" y2="864.4119581970228" stroke="#30363d" stroke-width="1" stroke-opacity="0.15" stroke-dasharray="4 4"/><line x1="501.46666666666664" y1="844.13779644805" x2="510.53333333333336" y2="874.258370085861" stroke="#30363d" stroke-width="1" stroke-opacity="0.15" stroke-dasharray="4 4"/><line x1="501.46666666666664" y1="844.13779644805" x2="515.0666666666666" y2="907.8641766573594" stroke="#30363d" stroke-width="1" stroke-opacity="0.15" stroke-dasharray="4 4"/><line x1="501.46666666666664" y1="844.13779644805" x2="519.6" y2="908.0849732906884" stroke="#30363d" stroke-width="1" stroke-opacity="0.15" stroke-dasharray="4 4"/><line x1="506" y1="864.4119581970228" x2="510.53333333333336" y2="874.258370085861" stroke="#30363d" stroke-width="1" stroke-opacity="0.15" stroke-dasharray="4 4"/><line x1="506" y1="864.4119581970228" x2="515.0666666666666" y2="907.8641766573594" stroke="#30363d" stroke-width="1" stroke-opacity="0.15" stroke-dasharray="4 4"/><line x1="506" y1="864.4119581970228" x2="519.6" y2="908.0849732906884" stroke="#30363d" stroke-width="1" stroke-opacity="0.15" stroke-dasharray="4 4"/><line x1="433.46666666666664" y1="867.1537493020328" x2="642" y2="919.4965258714792" stroke="#30363d" stroke-width="1" stroke-opacity="0.15" stroke-dasharray="4 4"/><line x1="510.53333333333336" y1="874.258370085861" x2="515.0666666666666" y2="907.8641766573594" stroke="#30363d" stroke-width="1" stroke-opacity="0.15" stroke-dasharray="4 4"/><line x1="510.53333333333336" y1="874.258370085861" x2="519.6" y2="908.0849732906884" stroke="#30363d" stroke-width="1" stroke-opacity="0.15" stroke-dasharray="4 4"/><line x1="515.0666666666666" y1="907.8641766573594" x2="519.6" y2="908.0849732906884" stroke="#30363d" stroke-width="1" stroke-opacity="0.15" stroke-dasharray="4 4"/><circle cx="84.4" cy="670" r="26" fill="#00ADD8" fill-opacity="0.08" class="fade-1"/><circle cx="84.4" cy="670" r="22" fill="#00ADD8" fill-opacity="0.7" stroke="#00ADD8" stroke-width="1.5" stroke-opacity="0.9" class="fade-1"/><text x="84.4" y="706" class="t t-value fade-1" text-anchor="middle">incipit</text><circle cx="288.4" cy="712.3906745450442" r="26" fill="#DA5B0B" fill-opacity="0.08" class="fade-2"/><circle cx="288.4" cy="712.3906745450442" r="22" fill="#DA5B0B" fill-opacity="0.7" stroke="#DA5B0B" stroke-width="1.5" stroke-opacity="0.9" class="fade-2"/><text x="288.4" y="748.3906745450442" class="t t-value fade-2" text-anchor="middle">lepus-classifier</text><circle cx="492.4" cy="733.8205317122204" r="26" fill="#dea584" fill-opacity="0.08" class="fade-3"/><circle cx="492.4" cy="733.8205317122204" r="22" fill="#dea584" fill-opacity="0.7" stroke="#dea584" stroke-width="1.5" stroke-opacity="0.9" class="fade-3"/><text x="492.4" y="769.8205317122204" class="t t-value fade-3" text-anchor="middle">linear-gp</text><circle cx="98" cy="739.2286517817354" r="26" fill="#00ADD8" fill-opacity="0.08" class="fade-4"/><circle cx="98" cy="739.2286517817354" r="22" fill="#00ADD8" fill-opacity="0.7" stroke="#00ADD8" stroke-width="1.5" stroke-opacity="0.9" class="fade-4"/><text x="98" y="775.2286517817354" class="t t-value fade-4" text-anchor="middle">zigbee-rest</text><circle cx="696.4" cy="743.8262525643465" r="26" fill="#3178c6" fill-opacity="0.08" class="fade-5"/><circle cx="696.4" cy="743.8262525643465" r="22" fill="#3178c6" fill-opacity="0.7" stroke="#3178c6" stroke-width="1.5" stroke-opacity="0.9" class="fade-5"/><text x="696.4" y="779.8262525643465" class="t t-value fade-5" text-anchor="middle">urmzd.com</text><circle cx="424.4" cy="759.2624526387299" r="26" fill="#3572A5" fill-opacity="0.08" class="fade-6"/><circle cx="424.4" cy="759.2624526387299" r="22" fill="#3572A5" fill-opacity="0.7" stroke="#3572A5" stroke-width="1.5" stroke-opacity="0.9" class="fade-6"/><text x="424.4" y="795.2624526387299" class="t t-value fade-6" text-anchor="middle">exp-agi-models</text><circle cx="111.6" cy="809.7382399542041" r="24.337779161117126" fill="#00ADD8" fill-opacity="0.08" class="fade-6"/><circle cx="111.6" cy="809.7382399542041" r="20.337779161117126" fill="#00ADD8" fill-opacity="0.7" stroke="#00ADD8" stroke-width="1.5" stroke-opacity="0.9" class="fade-6"/><text x="111.6" y="844.0760191153213" class="t t-value fade-6" text-anchor="middle">saige</text><circle cx="574" cy="815.882807906323" r="21.58437749908454" fill="#89e051" fill-opacity="0.08" class="fade-6"/><circle cx="574" cy="815.882807906323" r="17.58437749908454" fill="#89e051" fill-opacity="0.7" stroke="#89e051" stroke-width="1.5" stroke-opacity="0.9" class="fade-6"/><text x="574" y="847.4671854054076" class="t t-value fade-6" text-anchor="middle">dotfiles</text><circle cx="710" cy="820.4203251767813" r="15.0746024947576" fill="#3178c6" fill-opacity="0.08" class="fade-6"/><circle cx="710" cy="820.4203251767813" r="11.0746024947576" fill="#3178c6" fill-opacity="0.7" stroke="#3178c6" stroke-width="1.5" stroke-opacity="0.9" class="fade-6"/><text x="710" y="845.4949276715389" class="t t-value fade-6" text-anchor="middle">zoro</text><circle cx="496.93333333333334" cy="828.6764423268316" r="26" fill="#dea584" fill-opacity="0.08" class="fade-6"/><circle cx="496.93333333333334" cy="828.6764423268316" r="22" fill="#dea584" fill-opacity="0.7" stroke="#dea584" stroke-width="1.5" stroke-opacity="0.9" class="fade-6"/><text x="496.93333333333334" y="864.6764423268316" class="t t-value fade-6" text-anchor="middle">teasr</text><circle cx="315.6" cy="833.1496636114725" r="25.36863924926572" fill="#DA5B0B" fill-opacity="0.08" class="fade-6"/><circle cx="315.6" cy="833.1496636114725" r="21.36863924926572" fill="#DA5B0B" fill-opacity="0.7" stroke="#DA5B0B" stroke-width="1.5" stroke-opacity="0.9" class="fade-6"/><text x="315.6" y="868.5183028607382" class="t t-value fade-6" text-anchor="middle">md-classifier</text><circle cx="501.46666666666664" cy="844.13779644805" r="20.75488750216347" fill="#dea584" fill-opacity="0.08" class="fade-6"/><circle cx="501.46666666666664" cy="844.13779644805" r="16.75488750216347" fill="#dea584" fill-opacity="0.7" stroke="#dea584" stroke-width="1.5" stroke-opacity="0.9" class="fade-6"/><text x="501.46666666666664" y="874.8926839502135" class="t t-value fade-6" text-anchor="middle">oag</text><circle cx="506" cy="864.4119581970228" r="18.067897481607673" fill="#dea584" fill-opacity="0.08" class="fade-6"/><circle cx="506" cy="864.4119581970228" r="14.067897481607675" fill="#dea584" fill-opacity="0.7" stroke="#dea584" stroke-width="1.5" stroke-opacity="0.9" class="fade-6"/><text x="506" y="892.4798556786305" class="t t-value fade-6" text-anchor="middle">sr</text><circle cx="433.46666666666664" cy="867.1537493020328" r="24.287843736263678" fill="#3572A5" fill-opacity="0.08" class="fade-6"/><circle cx="433.46666666666664" cy="867.1537493020328" r="20.287843736263678" fill="#3572A5" fill-opacity="0.7" stroke="#3572A5" stroke-width="1.5" stroke-opacity="0.9" class="fade-6"/><text x="433.46666666666664" y="901.4415930382964" class="t t-value fade-6" text-anchor="middle">languide</text><circle cx="152.4" cy="869.3436003790438" r="24.861890796612347" fill="#b07219" fill-opacity="0.08" class="fade-6"/><circle cx="152.4" cy="869.3436003790438" r="20.861890796612347" fill="#b07219" fill-opacity="0.7" stroke="#b07219" stroke-width="1.5" stroke-opacity="0.9" class="fade-6"/><text x="152.4" y="904.2054911756561" class="t t-value fade-6" text-anchor="middle">flappy-bird</text><circle cx="510.53333333333336" cy="874.258370085861" r="12.127871907170075" fill="#dea584" fill-opacity="0.08" class="fade-6"/><circle cx="510.53333333333336" cy="874.258370085861" r="8.127871907170075" fill="#dea584" fill-opacity="0.7" stroke="#dea584" stroke-width="1.5" stroke-opacity="0.9" class="fade-6"/><text x="510.53333333333336" y="896.386241993031" class="t t-value fade-6" text-anchor="middle">embed-src</text><circle cx="179.6" cy="883.5569827325155" r="14.637905107315877" fill="#b07219" fill-opacity="0.08" class="fade-6"/><circle cx="179.6" cy="883.5569827325155" r="10.637905107315877" fill="#b07219" fill-opacity="0.7" stroke="#b07219" stroke-width="1.5" stroke-opacity="0.9" class="fade-6"/><text x="179.6" y="908.1948878398314" class="t t-value fade-6" text-anchor="middle">barter-trader</text><circle cx="442.53333333333336" cy="886.4972113181125" r="14.425254648846348" fill="#3572A5" fill-opacity="0.08" class="fade-6"/><circle cx="442.53333333333336" cy="886.4972113181125" r="10.425254648846348" fill="#3572A5" fill-opacity="0.7" stroke="#3572A5" stroke-width="1.5" stroke-opacity="0.9" class="fade-6"/><text x="442.53333333333336" y="910.9224659669588" class="t t-value fade-6" text-anchor="middle">chess-cli</text><circle cx="723.6" cy="889.0377700484428" r="25.877793160799357" fill="#3178c6" fill-opacity="0.08" class="fade-6"/><circle cx="723.6" cy="889.0377700484428" r="21.877793160799357" fill="#3178c6" fill-opacity="0.7" stroke="#3178c6" stroke-width="1.5" stroke-opacity="0.9" class="fade-6"/><text x="723.6" y="924.9155632092421" class="t t-value fade-6" text-anchor="middle">github-insights</text><circle cx="234" cy="907.1710429223517" r="12.127871907170075" fill="#f1e05a" fill-opacity="0.08" class="fade-6"/><circle cx="234" cy="907.1710429223517" r="8.127871907170075" fill="#f1e05a" fill-opacity="0.7" stroke="#f1e05a" stroke-width="1.5" stroke-opacity="0.9" class="fade-6"/><text x="234" y="929.2989148295218" class="t t-value fade-6" text-anchor="middle">cypress-name-too-…</text><circle cx="515.0666666666666" cy="907.8641766573594" r="10" fill="#dea584" fill-opacity="0.08" class="fade-6"/><circle cx="515.0666666666666" cy="907.8641766573594" r="6" fill="#dea584" fill-opacity="0.7" stroke="#dea584" stroke-width="1.5" stroke-opacity="0.9" class="fade-6"/><text x="515.0666666666666" y="927.8641766573594" class="t t-value fade-6" text-anchor="middle">gitit</text><circle cx="519.6" cy="908.0849732906884" r="10" fill="#dea584" fill-opacity="0.08" class="fade-6"/><circle cx="519.6" cy="908.0849732906884" r="6" fill="#dea584" fill-opacity="0.7" stroke="#dea584" stroke-width="1.5" stroke-opacity="0.9" class="fade-6"/><text x="519.6" y="928.0849732906884" class="t t-value fade-6" text-anchor="middle">llmem</text><circle cx="451.6" cy="916.2963721352545" r="10" fill="#3572A5" fill-opacity="0.08" class="fade-6"/><circle cx="451.6" cy="916.2963721352545" r="6" fill="#3572A5" fill-opacity="0.7" stroke="#3572A5" stroke-width="1.5" stroke-opacity="0.9" class="fade-6"/><text x="451.6" y="936.2963721352545" class="t t-value fade-6" text-anchor="middle">lightning-kfold</text><circle cx="642" cy="919.4965258714792" r="17.1230319671155" fill="#3D6117" fill-opacity="0.08" class="fade-6"/><circle cx="642" cy="919.4965258714792" r="13.123031967115503" fill="#3D6117" fill-opacity="0.7" stroke="#3D6117" stroke-width="1.5" stroke-opacity="0.9" class="fade-6"/><text x="642" y="946.6195578385947" class="t t-value fade-6" text-anchor="middle">rlgp-thesis</text><circle cx="370" cy="950" r="12.579908644663078" fill="#8b949e" fill-opacity="0.08" class="fade-6"/><circle cx="370" cy="950" r="8.579908644663078" fill="#8b949e" fill-opacity="0.7" stroke="#8b949e" stroke-width="1.5" stroke-opacity="0.9" class="fade-6"/><text x="370" y="972.5799086446631" class="t t-value fade-6" text-anchor="middle">urmzd</text><text x="24" y="1076" class="t t-h">OPEN SOURCE IMPACT</text><text x="24" y="1092" class="t t-sub">External repositories contributed to</text><text x="24" y="1124" class="t t-card-title fade-1">getzep/graphiti</text><rect x="304" y="1114" width="400" height="12" rx="3" fill="#58a6ff" fill-opacity="0.7" class="fade-1"/><text x="720" y="1124" class="t t-value fade-1">★ 24,212</text><text x="784" y="1124" class="t t-value fade-1">Python</text><text x="24" y="1166" class="t t-card-title fade-2">googleapis/python-aiplatform</text><rect x="304" y="1156" width="268.3831042633319" height="12" rx="3" fill="#3fb950" fill-opacity="0.7" class="fade-2"/><text x="720" y="1166" class="t t-value fade-2">★ 873</text><text x="784" y="1166" class="t t-value fade-2">Python</text><text x="24" y="1208" class="t t-card-title fade-3">MathisWellmann/gym-rs</text><rect x="304" y="1198" width="192.26155190640952" height="12" rx="3" fill="#d29922" fill-opacity="0.7" class="fade-3"/><text x="720" y="1208" class="t t-value fade-3">★ 127</text><text x="784" y="1208" class="t t-value fade-3">Rust</text></svg>