<svg xmlns="http://www.w3.org/2000/svg" width="808" height="1754" viewBox="0 0 808 1754"><defs><style>
  .t { font-family: -apple-system,BlinkMacSystemFont,Segoe UI,Helvetica,Arial,sans-serif; font-variant-numeric: tabular-lining; }
  .t-h { font-size: 14px; fill: #c9d1d9; letter-spacing: 2px; font-weight: 600; }
  .t-sub { font-size: 11px; fill: #6e7681; }
  .t-label { font-size: 12px; fill: #8b949e; }
  .t-value { font-size: 11px; fill: #6e7681; }
  .t-subhdr { font-size: 11px; fill: #8b949e; letter-spacing: 1px; font-weight: 600; }
  .t-stat-label { font-size: 10px; fill: #8b949e; font-weight: 600; }
  .t-stat-value { font-size: 22px; font-weight: 700; }
  .t-card-title { font-size: 12px; fill: #58a6ff; font-weight: 700; }
  .t-card-detail { font-size: 11px; fill: #8b949e; }
  .t-pill { font-size: 11px; font-weight: 600; }
  .t-bullet { font-size: 12px; fill: #c9d1d9; }
  .bg-fill { fill: #0d1117; }
  .card-fill { fill: #161b22; }
  .border-stroke { stroke: #30363d; }

  @media (prefers-color-scheme: light) {
    .bg-fill { fill: #ffffff; }
    .card-fill { fill: #f6f8fa; }
    .border-stroke { stroke: #d0d7de; }
    .t-h { fill: #1f2328; }
    .t-sub { fill: #656d76; }
    .t-label { fill: #656d76; }
    .t-value { fill: #656d76; }
    .t-subhdr { fill: #656d76; }
    .t-stat-label { fill: #656d76; }
    .t-card-title { fill: #0969da; }
    .t-card-detail { fill: #656d76; }
    .t-bullet { fill: #1f2328; }
  }

  @keyframes fadeIn {
    from { opacity: 0; transform: translateY(8px); }
    to { opacity: 1; transform: translateY(0); }
  }
  @keyframes scaleIn {
    from { transform: scale(0); opacity: 0; }
    to { transform: scale(1); opacity: 1; }
  }
  @keyframes drawPath {
    from { stroke-dashoffset: var(--path-length); }
    to { stroke-dashoffset: 0; }
  }
  @keyframes radarReveal {
    from { transform: scale(0); opacity: 0; }
    to { transform: scale(1); opacity: 0.6; }
  }
  .fade-1 { animation: fadeIn 0.6s ease-out 0.1s both; }
  .fade-2 { animation: fadeIn 0.6s ease-out 0.25s both; }
  .fade-3 { animation: fadeIn 0.6s ease-out 0.4s both; }
  .fade-4 { animation: fadeIn 0.6s ease-out 0.55s both; }
  .fade-5 { animation: fadeIn 0.6s ease-out 0.7s both; }
  .fade-6 { animation: fadeIn 0.6s ease-out 0.85s both; }
</style></defs><rect width="808" height="1754" rx="12" class="bg-fill" fill="#0d1117"/><text x="24" y="40" class="t t-h">LANGUAGE VELOCITY</text><text x="24" y="56" class="t t-sub">How language usage has evolved over the past year</text><path key="Lua" d="M 24,206 C 55.66666666666667,206 55.66666666666667,205.73659454374413 87.33333333333334,205.73659454374413 C 119.00000000000001,205.73659454374413 119.00000000000001,205.73659454374413 150.66666666666669,205.73659454374413 C 182.33333333333334,205.73659454374413 182.33333333333334,205.73659454374413 214,205.73659454374413 C 245.66666666666669,205.73659454374413 245.66666666666669,206 277.33333333333337,206 C 309,206 309,206 340.6666666666667,206 C 372.33333333333337,206 372.33333333333337,205.47318908748824 404,205.47318908748824 C 435.6666666666667,205.47318908748824 435.6666666666667,203.76105362182503 467.33333333333337,203.76105362182503 C 499.00000000000006,203.76105362182503 499.00000000000006,206 530.6666666666667,206 C 562.3333333333334,206 562.3333333333334,192.17121354656632 594,192.17121354656632 C 625.6666666666667,192.17121354656632 625.6666666666667,159.11382878645344 657.3333333333334,159.11382878645344 C 689,159.11382878645344 689,66 720.6666666666667,66 C 752.3333333333334,66 752.3333333333334,167.6745061147695 784,167.6745061147695 L 784,167.9379115710254 C 752.3333333333334,167.9379115710254 752.3333333333334,66.79021636876763 720.6666666666667,66.79021636876763 C 689,66.79021636876763 689,159.3772342427093 657.3333333333334,159.3772342427093 C 625.6666666666667,159.3772342427093 625.6666666666667,192.30291627469427 594,192.30291627469427 C 562.3333333333334,192.30291627469427 562.3333333333334,206 530.6666666666667,206 C 499.00000000000006,206 499.00000000000006,203.76105362182503 467.33333333333337,203.76105362182503 C 435.6666666666667,203.76105362182503 435.6666666666667,205.47318908748824 404,205.47318908748824 C 372.33333333333337,205.47318908748824 372.33333333333337,206 340.6666666666667,206 C 309,206 309,206 277.33333333333337,206 C 245.66666666666669,206 245.66666666666669,205.73659454374413 214,205.73659454374413 C 182.33333333333334,205.73659454374413 182.33333333333334,205.73659454374413 150.66666666666669,205.73659454374413 C 119.00000000000001,205.73659454374413 119.00000000000001,205.73659454374413 87.33333333333334,205.73659454374413 C 55.66666666666667,205.73659454374413 55.66666666666667,206 24,206 Z" fill="#000080" fill-opacity="0.75" class="fade-1"/><path key="Java" d="M 24,206 C 55.66666666666667,206 55.66666666666667,205.73659454374413 87.33333333333334,205.73659454374413 C 119.00000000000001,205.73659454374413 119.00000000000001,205.73659454374413 150.66666666666669,205.73659454374413 C 182.33333333333334,205.73659454374413 182.33333333333334,205.73659454374413 214,205.73659454374413 C 245.66666666666669,205.73659454374413 245.66666666666669,206 277.33333333333337,206 C 309,206 309,206 340.6666666666667,206 C 372.33333333333337,206 372.33333333333337,205.47318908748824 404,205.47318908748824 C 435.6666666666667,205.47318908748824 435.6666666666667,203.76105362182503 467.33333333333337,203.76105362182503 C 499.00000000000006,203.76105362182503 499.00000000000006,206 530.6666666666667,206 C 562.3333333333334,206 562.3333333333334,192.30291627469427 594,192.30291627469427 C 625.6666666666667,192.30291627469427 625.6666666666667,159.3772342427093 657.3333333333334,159.3772342427093 C 689,159.3772342427093 689,66.79021636876763 720.6666666666667,66.79021636876763 C 752.3333333333334,66.79021636876763 752.3333333333334,167.9379115710254 784,167.9379115710254 L 784,168.85983066792096 C 752.3333333333334,168.85983066792096 752.3333333333334,69.95108184383821 720.6666666666667,69.95108184383821 C 689,69.95108184383821 689,160.43085606773283 657.3333333333334,160.43085606773283 C 625.6666666666667,160.43085606773283 625.6666666666667,192.56632173095014 594,192.56632173095014 C 562.3333333333334,192.56632173095014 562.3333333333334,206 530.6666666666667,206 C 499.00000000000006,206 499.00000000000006,203.76105362182503 467.33333333333337,203.76105362182503 C 435.6666666666667,203.76105362182503 435.6666666666667,205.47318908748824 404,205.47318908748824 C 372.33333333333337,205.47318908748824 372.33333333333337,206 340.6666666666667,206 C 309,206 309,206 277.33333333333337,206 C 245.66666666666669,206 245.66666666666669,205.73659454374413 214,205.73659454374413 C 182.33333333333334,205.73659454374413 182.33333333333334,205.73659454374413 150.66666666666669,205.73659454374413 C 119.00000000000001,205.73659454374413 119.00000000000001,205.73659454374413 87.33333333333334,205.73659454374413 C 55.66666666666667,205.73659454374413 55.66666666666667,206 24,206 Z" fill="#b07219" fill-opacity="0.75" class="fade-2"/><path key="JavaScript" d="M 24,206 C 55.66666666666667,206 55.66666666666667,205.73659454374413 87.33333333333334,205.73659454374413 C 119.00000000000001,205.73659454374413 119.00000000000001,205.73659454374413 150.66666666666669,205.73659454374413 C 182.33333333333334,205.73659454374413 182.33333333333334,205.73659454374413 214,205.73659454374413 C 245.66666666666669,205.73659454374413 245.66666666666669,206 277.33333333333337,206 C 309,206 309,206 340.6666666666667,206 C 372.33333333333337,206 372.33333333333337,205.47318908748824 404,205.47318908748824 C 435.6666666666667,205.47318908748824 435.6666666666667,203.76105362182503 467.33333333333337,203.76105362182503 C 499.00000000000006,203.76105362182503 499.00000000000006,206 530.6666666666667,206 C 562.3333333333334,206 562.3333333333334,192.56632173095014 594,192.56632173095014 C 625.6666666666667,192.56632173095014 625.6666666666667,160.43085606773283 657.3333333333334,160.43085606773283 C 689,160.43085606773283 689,69.95108184383821 720.6666666666667,69.95108184383821 C 752.3333333333334,69.95108184383821 752.3333333333334,168.85983066792096 784,168.85983066792096 L 784,172.02069614299154 C 752.3333333333334,172.02069614299154 752.3333333333334,81.67262464722484 720.6666666666667,81.67262464722484 C 689,81.67262464722484 689,164.38193791157101 657.3333333333334,164.38193791157101 C 625.6666666666667,164.38193791157101 625.6666666666667,193.7516462841016 594,193.7516462841016 C 562.3333333333334,193.7516462841016 562.3333333333334,206 530.6666666666667,206 C 499.00000000000006,206 499.00000000000006,204.0244590780809 467.33333333333337,204.0244590780809 C 435.6666666666667,204.0244590780809 435.6666666666667,205.47318908748824 404,205.47318908748824 C 372.33333333333337,205.47318908748824 372.33333333333337,206 340.6666666666667,206 C 309,206 309,206 277.33333333333337,206 C 245.66666666666669,206 245.66666666666669,205.73659454374413 214,205.73659454374413 C 182.33333333333334,205.73659454374413 182.33333333333334,205.73659454374413 150.66666666666669,205.73659454374413 C 119.00000000000001,205.73659454374413 119.00000000000001,205.73659454374413 87.33333333333334,205.73659454374413 C 55.66666666666667,205.73659454374413 55.66666666666667,206 24,206 Z" fill="#f1e05a" fill-opacity="0.75" class="fade-3"/><path key="Python" d="M 24,206 C 55.66666666666667,206 55.66666666666667,205.73659454374413 87.33333333333334,205.73659454374413 C 119.00000000000001,205.73659454374413 119.00000000000001,205.73659454374413 150.66666666666669,205.73659454374413 C 182.33333333333334,205.73659454374413 182.33333333333334,205.73659454374413 214,205.73659454374413 C 245.66666666666669,205.73659454374413 245.66666666666669,206 277.33333333333337,206 C 309,206 309,206 340.6666666666667,206 C 372.33333333333337,206 372.33333333333337,205.47318908748824 404,205.47318908748824 C 435.6666666666667,205.47318908748824 435.6666666666667,204.0244590780809 467.33333333333337,204.0244590780809 C 499.00000000000006,204.0244590780809 499.00000000000006,206 530.6666666666667,206 C 562.3333333333334,206 562.3333333333334,193.7516462841016 594,193.7516462841016 C 625.6666666666667,193.7516462841016 625.6666666666667,164.38193791157101 657.3333333333334,164.38193791157101 C 689,164.38193791157101 689,81.67262464722484 720.6666666666667,81.67262464722484 C 752.3333333333334,81.67262464722484 752.3333333333334,172.02069614299154 784,172.02069614299154 L 784,175.44496707431796 C 752.3333333333334,175.44496707431796 752.3333333333334,94.31608654750706 720.6666666666667,94.31608654750706 C 689,94.31608654750706 689,168.5964252116651 657.3333333333334,168.5964252116651 C 625.6666666666667,168.5964252116651 625.6666666666667,194.93697083725306 594,194.93697083725306 C 562.3333333333334,194.93697083725306 562.3333333333334,206 530.6666666666667,206 C 499.00000000000006,206 499.00000000000006,204.2878645343368 467.33333333333337,204.2878645343368 C 435.6666666666667,204.2878645343368 435.6666666666667,205.47318908748824 404,205.47318908748824 C 372.33333333333337,205.47318908748824 372.33333333333337,206 340.6666666666667,206 C 309,206 309,206 277.33333333333337,206 C 245.66666666666669,206 245.66666666666669,205.73659454374413 214,205.73659454374413 C 182.33333333333334,205.73659454374413 182.33333333333334,205.73659454374413 150.66666666666669,205.73659454374413 C 119.00000000000001,205.73659454374413 119.00000000000001,205.73659454374413 87.33333333333334,205.73659454374413 C 55.66666666666667,205.73659454374413 55.66666666666667,206 24,206 Z" fill="#3572A5" fill-opacity="0.75" class="fade-4"/><path key="TypeScript" d="M 24,206 C 55.66666666666667,206 55.66666666666667,205.73659454374413 87.33333333333334,205.73659454374413 C 119.00000000000001,205.73659454374413 119.00000000000001,205.73659454374413 150.66666666666669,205.73659454374413 C 182.33333333333334,205.73659454374413 182.33333333333334,205.73659454374413 214,205.73659454374413 C 245.66666666666669,205.73659454374413 245.66666666666669,206 277.33333333333337,206 C 309,206 309,206 340.6666666666667,206 C 372.33333333333337,206 372.33333333333337,205.47318908748824 404,205.47318908748824 C 435.6666666666667,205.47318908748824 435.6666666666667,204.2878645343368 467.33333333333337,204.2878645343368 C 499.00000000000006,204.2878645343368 499.00000000000006,206 530.6666666666667,206 C 562.3333333333334,206 562.3333333333334,194.93697083725306 594,194.93697083725306 C 625.6666666666667,194.93697083725306 625.6666666666667,168.5964252116651 657.3333333333334,168.5964252116651 C 689,168.5964252116651 689,94.31608654750706 720.6666666666667,94.31608654750706 C 752.3333333333334,94.31608654750706 752.3333333333334,175.44496707431796 784,175.44496707431796 L 784,180.58137347130761 C 752.3333333333334,180.58137347130761 752.3333333333334,113.28127939793038 720.6666666666667,113.28127939793038 C 689,113.28127939793038 689,174.91815616180622 657.3333333333334,174.91815616180622 C 625.6666666666667,174.91815616180622 625.6666666666667,196.7808090310442 594,196.7808090310442 C 562.3333333333334,196.7808090310442 562.3333333333334,206 530.6666666666667,206 C 499.00000000000006,206 499.00000000000006,204.55126999059266 467.33333333333337,204.55126999059266 C 435.6666666666667,204.55126999059266 435.6666666666667,205.60489181561618 404,205.60489181561618 C 372.33333333333337,205.60489181561618 372.33333333333337,206 340.6666666666667,206 C 309,206 309,206 277.33333333333337,206 C 245.66666666666669,206 245.66666666666669,205.73659454374413 214,205.73659454374413 C 182.33333333333334,205.73659454374413 182.33333333333334,205.73659454374413 150.66666666666669,205.73659454374413 C 119.00000000000001,205.73659454374413 119.00000000000001,205.73659454374413 87.33333333333334,205.73659454374413 C 55.66666666666667,205.73659454374413 55.66666666666667,206 24,206 Z" fill="#3178c6" fill-opacity="0.75" class="fade-5"/><path key="Go" d="M 24,206 C 55.66666666666667,206 55.66666666666667,205.73659454374413 87.33333333333334,205.73659454374413 C 119.00000000000001,205.73659454374413 119.00000000000001,205.73659454374413 150.66666666666669,205.73659454374413 C 182.33333333333334,205.73659454374413 182.33333333333334,205.73659454374413 214,205.73659454374413 C 245.66666666666669,205.73659454374413 245.66666666666669,206 277.33333333333337,206 C 309,206 309,206 340.6666666666667,206 C 372.33333333333337,206 372.33333333333337,205.60489181561618 404,205.60489181561618 C 435.6666666666667,205.60489181561618 435.6666666666667,204.55126999059266 467.33333333333337,204.55126999059266 C 499.00000000000006,204.55126999059266 499.00000000000006,206 530.6666666666667,206 C 562.3333333333334,206 562.3333333333334,196.7808090310442 594,196.7808090310442 C 625.6666666666667,196.7808090310442 625.6666666666667,174.91815616180622 657.3333333333334,174.91815616180622 C 689,174.91815616180622 689,113.28127939793038 720.6666666666667,113.28127939793038 C 752.3333333333334,113.28127939793038 752.3333333333334,180.58137347130761 784,180.58137347130761 L 784,190.0639698965193 C 752.3333333333334,190.0639698965193 752.3333333333334,147.7873941674506 720.6666666666667,147.7873941674506 C 689,147.7873941674506 689,186.5079962370649 657.3333333333334,186.5079962370649 C 625.6666666666667,186.5079962370649 625.6666666666667,200.20507996237066 594,200.20507996237066 C 562.3333333333334,200.20507996237066 562.3333333333334,206 530.6666666666667,206 C 499.00000000000006,206 499.00000000000006,205.07808090310442 467.33333333333337,205.07808090310442 C 435.6666666666667,205.07808090310442 435.6666666666667,205.73659454374413 404,205.73659454374413 C 372.33333333333337,205.73659454374413 372.33333333333337,206 340.6666666666667,206 C 309,206 309,206 277.33333333333337,206 C 245.66666666666669,206 245.66666666666669,205.86829727187205 214,205.86829727187205 C 182.33333333333334,205.86829727187205 182.33333333333334,205.86829727187205 150.66666666666669,205.86829727187205 C 119.00000000000001,205.86829727187205 119.00000000000001,205.86829727187205 87.33333333333334,205.86829727187205 C 55.66666666666667,205.86829727187205 55.66666666666667,206 24,206 Z" fill="#00ADD8" fill-opacity="0.75" class="fade-6"/><path key="Rust" d="M 24,206 C 55.66666666666667,206 55.66666666666667,205.86829727187205 87.33333333333334,205.86829727187205 C 119.00000000000001,205.86829727187205 119.00000000000001,205.86829727187205 150.66666666666669,205.86829727187205 C 182.33333333333334,205.86829727187205 182.33333333333334,205.86829727187205 214,205.86829727187205 C 245.66666666666669,205.86829727187205 245.66666666666669,206 277.33333333333337,206 C 309,206 309,206 340.6666666666667,206 C 372.33333333333337,206 372.33333333333337,205.73659454374413 404,205.73659454374413 C 435.6666666666667,205.73659454374413 435.6666666666667,205.07808090310442 467.33333333333337,205.07808090310442 C 499.00000000000006,205.07808090310442 499.00000000000006,206 530.6666666666667,206 C 562.3333333333334,206 562.3333333333334,200.20507996237066 594,200.20507996237066 C 625.6666666666667,200.20507996237066 625.6666666666667,186.5079962370649 657.3333333333334,186.5079962370649 C 689,186.5079962370649 689,147.7873941674506 720.6666666666667,147.7873941674506 C 752.3333333333334,147.7873941674506 752.3333333333334,190.0639698965193 784,190.0639698965193 L 784,206 C 752.3333333333334,206 752.3333333333334,206 720.6666666666667,206 C 689,206 689,206 657.3333333333334,206 C 625.6666666666667,206 625.6666666666667,206 594,206 C 562.3333333333334,206 562.3333333333334,206 530.6666666666667,206 C 499.00000000000006,206 499.00000000000006,206 467.33333333333337,206 C 435.6666666666667,206 435.6666666666667,206 404,206 C 372.33333333333337,206 372.33333333333337,206 340.6666666666667,206 C 309,206 309,206 277.33333333333337,206 C 245.66666666666669,206 245.66666666666669,206 214,206 C 182.33333333333334,206 182.33333333333334,206 150.66666666666669,206 C 119.00000000000001,206 119.00000000000001,206 87.33333333333334,206 C 55.66666666666667,206 55.66666666666667,206 24,206 Z" fill="#dea584" fill-opacity="0.75" class="fade-6"/><rect x="24" y="212" width="8" height="8" rx="2" fill="#dea584" opacity="0.85"/><text x="36" y="220" class="t t-value">Rust</text><rect x="80" y="212" width="8" height="8" rx="2" fill="#00ADD8" opacity="0.85"/><text x="92" y="220" class="t t-value">Go</text><rect x="122" y="212" width="8" height="8" rx="2" fill="#3178c6" opacity="0.85"/><text x="134" y="220" class="t t-value">TypeScript</text><rect x="220" y="212" width="8" height="8" rx="2" fill="#3572A5" opacity="0.85"/><text x="232" y="220" class="t t-value">Python</text><rect x="290" y="212" width="8" height="8" rx="2" fill="#f1e05a" opacity="0.85"/><text x="302" y="220" class="t t-value">JavaScript</text><rect x="388" y="212" width="8" height="8" rx="2" fill="#b07219" opacity="0.85"/><text x="400" y="220" class="t t-value">Java</text><rect x="444" y="212" width="8" height="8" rx="2" fill="#000080" opacity="0.85"/><text x="456" y="220" class="t t-value">Lua</text><text key="Apr" x="24" y="220" class="t t-value" text-anchor="start" opacity="0">Apr</text><text key="Jun" x="150.66666666666669" y="220" class="t t-value" text-anchor="start" opacity="0">Jun</text><text key="Aug" x="277.33333333333337" y="220" class="t t-value" text-anchor="start" opacity="0">Aug</text><text key="Oct" x="404" y="220" class="t t-value" text-anchor="start" opacity="0">Oct</text><text key="Dec" x="530.6666666666667" y="220" class="t t-value" text-anchor="start" opacity="0">Dec</text><text key="Feb" x="657.3333333333334" y="220" class="t t-value" text-anchor="start" opacity="0">Feb</text><text key="Apr" x="784" y="220" class="t t-value" text-anchor="start" opacity="0">Apr</text><text x="24" y="282" class="t t-h">CONTRIBUTION RHYTHM</text><text x="24" y="298" class="t t-sub">Activity patterns and statistics over the past year</text><circle key="0.25" cx="144" cy="428" r="22.5" fill="none" stroke="#30363d" stroke-width="1" stroke-opacity="0.4"/><circle key="0.5" cx="144" cy="428" r="45" fill="none" stroke="#30363d" stroke-width="1" stroke-opacity="0.4"/><circle key="0.75" cx="144" cy="428" r="67.5" fill="none" stroke="#30363d" stroke-width="1" stroke-opacity="0.4"/><circle key="1" cx="144" cy="428" r="90" fill="none" stroke="#30363d" stroke-width="1" stroke-opacity="0.4"/><line key="Sun" x1="144" y1="428" x2="144" y2="338" stroke="#30363d" stroke-width="1" stroke-opacity="0.3"/><line key="Mon" x1="144" y1="428" x2="214.36483342212267" y2="371.885917832714" stroke="#30363d" stroke-width="1" stroke-opacity="0.3"/><line key="Tue" x1="144" y1="428" x2="231.74351209636413" y2="448.0268840560683" stroke="#30363d" stroke-width="1" stroke-opacity="0.3"/><line key="Wed" x1="144" y1="428" x2="183.04953652058023" y2="509.08719811121773" stroke="#30363d" stroke-width="1" stroke-opacity="0.3"/><line key="Thu" x1="144" y1="428" x2="104.95046347941977" y2="509.08719811121773" stroke="#30363d" stroke-width="1" stroke-opacity="0.3"/><line key="Fri" x1="144" y1="428" x2="56.25648790363587" y2="448.0268840560683" stroke="#30363d" stroke-width="1" stroke-opacity="0.3"/><line key="Sat" x1="144" y1="428" x2="73.63516657787731" y2="371.885917832714" stroke="#30363d" stroke-width="1" stroke-opacity="0.3"/><polygon points="144,338 170.6566163424299,406.74205782926435 174.68331404596782,435.0032662036558 163.04563284285967,467.54866410945897 126.51155726378923,464.31512553447175 101.20485146220278,437.7677133893094 87.77288617649398,383.160372992092" fill="#58a6ff" fill-opacity="0.2" stroke="#58a6ff" stroke-width="2" stroke-opacity="0.8" class="fade-2" style="transform-origin: 144px 428px"/><circle key="Sun" cx="144" cy="338" r="3" fill="#58a6ff" class="fade-1"/><circle key="Mon" cx="170.6566163424299" cy="406.74205782926435" r="3" fill="#58a6ff" class="fade-2"/><circle key="Tue" cx="174.68331404596782" cy="435.0032662036558" r="3" fill="#58a6ff" class="fade-3"/><circle key="Wed" cx="163.04563284285967" cy="467.54866410945897" r="3" fill="#58a6ff" class="fade-4"/><circle key="Thu" cx="126.51155726378923" cy="464.31512553447175" r="3" fill="#58a6ff" class="fade-5"/><circle key="Fri" cx="101.20485146220278" cy="437.7677133893094" r="3" fill="#58a6ff" class="fade-6"/><circle key="Sat" cx="87.77288617649398" cy="383.160372992092" r="3" fill="#58a6ff" class="fade-6"/><text key="Sun" x="144" y="326" class="t t-value" text-anchor="middle">Sun</text><text key="Mon" x="226.87413714161116" y="365.91008100297427" class="t t-value" text-anchor="middle">Mon</text><text key="Tue" x="247.34235869127332" y="455.5872189993693" class="t t-value" text-anchor="middle">Tue</text><text key="Wed" x="189.99167634646116" y="527.5026999976565" class="t t-value" text-anchor="middle">Wed</text><text key="Thu" x="98.00832365353884" y="527.5026999976565" class="t t-value" text-anchor="middle">Thu</text><text key="Fri" x="40.657641308726696" y="455.5872189993693" class="t t-value" text-anchor="middle">Fri</text><text key="Sat" x="61.12586285838883" y="365.91008100297427" class="t t-value" text-anchor="middle">Sat</text><text x="324" y="338" class="t t-stat-label">COMMITS</text><text x="324" y="360" fill="#58a6ff" class="t t-stat-value">2,280</text><text x="324" y="380" class="t t-stat-label">PRS</text><text x="324" y="402" fill="#3fb950" class="t t-stat-value">145</text><text x="324" y="422" class="t t-stat-label">REVIEWS</text><text x="324" y="444" fill="#d29922" class="t t-stat-value">5</text><text x="324" y="464" class="t t-stat-label">REPOS</text><text x="324" y="486" fill="#bc8cff" class="t t-stat-value">31</text><text x="324" y="506" class="t t-stat-label">STREAK</text><text x="324" y="528" fill="#39d2c0" class="t t-stat-value">24d</text><text x="24" y="614" class="t t-h">PROJECT CONSTELLATION</text><text x="24" y="630" class="t t-sub">Top projects ranked by complexity, grouped by primary language</text><circle cx="29" cy="656" r="5" fill="#00ADD8" fill-opacity="0.8" class="fade-1"/><text x="40" y="660" class="t t-subhdr fade-1">Go</text><line x1="204" y1="656" x2="644" y2="656" stroke="#30363d" stroke-opacity="0.3" stroke-width="1"/><text x="32" y="688" class="t t-card-title fade-1">incipit</text><rect x="204" y="680" width="380" height="14" rx="4" fill="#00ADD8" fill-opacity="0.7" class="fade-1"/><text x="604" y="688" class="t t-value fade-1">★ 11</text><text x="32" y="730" class="t t-card-title fade-2">zigbee-skill</text><rect x="204" y="722" width="318.18073488526096" height="14" rx="4" fill="#00ADD8" fill-opacity="0.7" class="fade-2"/><text x="604" y="730" class="t t-value fade-2">★ 0</text><text x="32" y="772" class="t t-card-title fade-3">saige</text><rect x="204" y="764" width="217.73310582163643" height="14" rx="4" fill="#00ADD8" fill-opacity="0.7" class="fade-3"/><text x="604" y="772" class="t t-value fade-3">★ 0</text><circle cx="36" cy="796" r="3" fill="#6e7681" fill-opacity="0.6" class="fade-3"/><text x="42" y="799" class="t fade-3" font-size="9" fill="#6e7681">Go Templa…</text><circle cx="29" cy="848" r="5" fill="#3572A5" fill-opacity="0.8" class="fade-4"/><text x="40" y="852" class="t t-subhdr fade-4">Python</text><line x1="204" y1="848" x2="644" y2="848" stroke="#30363d" stroke-opacity="0.3" stroke-width="1"/><text x="32" y="880" class="t t-card-title fade-4">lepus-classifier</text><rect x="204" y="872" width="358.5013016969418" height="14" rx="4" fill="#3572A5" fill-opacity="0.7" class="fade-4"/><text x="604" y="880" class="t t-value fade-4">★ 2</text><text x="32" y="922" class="t t-card-title fade-5">exp-agi-models</text><rect x="204" y="914" width="288.08255726097957" height="14" rx="4" fill="#3572A5" fill-opacity="0.7" class="fade-5"/><text x="604" y="922" class="t t-value fade-5">★ 0</text><text x="32" y="964" class="t t-card-title fade-6">generative-artifact-pro…</text><rect x="204" y="956" width="233.37424863001374" height="14" rx="4" fill="#3572A5" fill-opacity="0.7" class="fade-6"/><text x="604" y="964" class="t t-value fade-6">★ 0</text><circle cx="36" cy="988" r="3" fill="#dea584" fill-opacity="0.6" class="fade-6"/><text x="42" y="991" class="t fade-6" font-size="9" fill="#6e7681">Rust</text><circle cx="80" cy="988" r="3" fill="#00ADD8" fill-opacity="0.6" class="fade-6"/><text x="86" y="991" class="t fade-6" font-size="9" fill="#6e7681">Go</text><circle cx="29" cy="1040" r="5" fill="#dea584" fill-opacity="0.8" class="fade-6"/><text x="40" y="1044" class="t t-subhdr fade-6">Rust</text><line x1="204" y1="1040" x2="644" y2="1040" stroke="#30363d" stroke-opacity="0.3" stroke-width="1"/><text x="32" y="1072" class="t t-card-title fade-6">linear-gp</text><rect x="204" y="1064" width="304.1226016980268" height="14" rx="4" fill="#dea584" fill-opacity="0.7" class="fade-6"/><text x="604" y="1072" class="t t-value fade-6">★ 3</text><text x="32" y="1114" class="t t-card-title fade-6">teasr</text><rect x="204" y="1106" width="185.0693608803299" height="14" rx="4" fill="#dea584" fill-opacity="0.7" class="fade-6"/><text x="604" y="1114" class="t t-value fade-6">★ 0</text><text x="32" y="1156" class="t t-card-title fade-6">oag</text><rect x="204" y="1148" width="138.7673792030208" height="14" rx="4" fill="#dea584" fill-opacity="0.7" class="fade-6"/><text x="604" y="1156" class="t t-value fade-6">★ 0</text><circle cx="36" cy="1180" r="3" fill="#6e7681" fill-opacity="0.6" class="fade-6"/><text x="42" y="1183" class="t fade-6" font-size="9" fill="#6e7681">Jinja</text><circle cx="29" cy="1232" r="5" fill="#8b949e" fill-opacity="0.8" class="fade-6"/><text x="40" y="1236" class="t t-subhdr fade-6">Other</text><line x1="204" y1="1232" x2="644" y2="1232" stroke="#30363d" stroke-opacity="0.3" stroke-width="1"/><text x="32" y="1264" class="t t-card-title fade-6">urmzd.com</text><rect x="204" y="1256" width="270.49729388339995" height="14" rx="4" fill="#3178c6" fill-opacity="0.7" class="fade-6"/><text x="604" y="1264" class="t t-value fade-6">★ 1</text><circle cx="36" cy="1288" r="3" fill="#6e7681" fill-opacity="0.6" class="fade-6"/><text x="42" y="1291" class="t fade-6" font-size="9" fill="#6e7681">MDX</text><circle cx="74" cy="1288" r="3" fill="#6e7681" fill-opacity="0.6" class="fade-6"/><text x="80" y="1291" class="t fade-6" font-size="9" fill="#6e7681">Astro</text><circle cx="124" cy="1288" r="3" fill="#6e7681" fill-opacity="0.6" class="fade-6"/><text x="130" y="1291" class="t fade-6" font-size="9" fill="#6e7681">JavaScript</text><circle cx="29" cy="1340" r="5" fill="#000080" fill-opacity="0.8" class="fade-6"/><text x="40" y="1344" class="t t-subhdr fade-6">Lua</text><line x1="204" y1="1340" x2="644" y2="1340" stroke="#30363d" stroke-opacity="0.3" stroke-width="1"/><text x="32" y="1372" class="t t-card-title fade-6">dotfiles</text><rect x="204" y="1364" width="182.3127507601604" height="14" rx="4" fill="#000080" fill-opacity="0.7" class="fade-6"/><text x="604" y="1372" class="t t-value fade-6">★ 2</text><circle cx="36" cy="1396" r="3" fill="#6e7681" fill-opacity="0.6" class="fade-6"/><text x="42" y="1399" class="t fade-6" font-size="9" fill="#6e7681">Go Templa…</text><circle cx="116" cy="1396" r="3" fill="#6e7681" fill-opacity="0.6" class="fade-6"/><text x="122" y="1399" class="t fade-6" font-size="9" fill="#6e7681">Ruby</text><text x="32" y="1432" class="t t-card-title fade-6">lazyspeak.nvim</text><rect x="204" y="1424" width="114.45117571219856" height="14" rx="4" fill="#000080" fill-opacity="0.7" class="fade-6"/><text x="604" y="1432" class="t t-value fade-6">★ 1</text><circle cx="36" cy="1456" r="3" fill="#dea584" fill-opacity="0.6" class="fade-6"/><text x="42" y="1459" class="t fade-6" font-size="9" fill="#6e7681">Rust</text><circle cx="80" cy="1456" r="3" fill="#6e7681" fill-opacity="0.6" class="fade-6"/><text x="86" y="1459" class="t fade-6" font-size="9" fill="#6e7681">Vim Script</text><text x="24" y="1532" class="t t-h">OPEN SOURCE IMPACT</text><text x="24" y="1548" class="t t-sub">External repositories contributed to</text><text x="24" y="1582" class="t t-card-title fade-1">getzep/graphiti</text><rect x="280" y="1572" width="340" height="12" rx="3" fill="#58a6ff" fill-opacity="0.7" class="fade-1"/><text x="636" y="1582" class="t t-value fade-1">★ 24,518</text><text x="728" y="1582" class="t t-value fade-1">Python</text><text x="24" y="1628" class="t t-card-title fade-2">googleapis/python-aiplatform</text><rect x="280" y="1618" width="227.9190724434271" height="12" rx="3" fill="#3fb950" fill-opacity="0.7" class="fade-2"/><text x="636" y="1628" class="t t-value fade-2">★ 875</text><text x="728" y="1628" class="t t-value fade-2">Python</text><text x="24" y="1674" class="t t-card-title fade-3">MathisWellmann/gym-rs</text><rect x="280" y="1664" width="163.21925964994736" height="12" rx="3" fill="#d29922" fill-opacity="0.7" class="fade-3"/><text x="636" y="1674" class="t t-value fade-3">★ 127</text><text x="728" y="1674" class="t t-value fade-3">Rust</text></svg>