<svg xmlns="http://www.w3.org/2000/svg" width="808" height="1286" viewBox="0 0 808 1286"><defs><style>
  .t { font-family: -apple-system,BlinkMacSystemFont,Segoe UI,Helvetica,Arial,sans-serif; font-variant-numeric: tabular-lining; }
  .t-h { font-size: 14px; fill: #c9d1d9; letter-spacing: 2px; font-weight: 600; }
  .t-sub { font-size: 11px; fill: #6e7681; }
  .t-label { font-size: 12px; fill: #8b949e; }
  .t-value { font-size: 11px; fill: #6e7681; }
  .t-subhdr { font-size: 11px; fill: #8b949e; letter-spacing: 1px; font-weight: 600; }
  .t-stat-label { font-size: 10px; fill: #8b949e; font-weight: 600; }
  .t-stat-value { font-size: 22px; font-weight: 700; }
  .t-card-title { font-size: 12px; fill: #58a6ff; font-weight: 700; }
  .t-card-detail { font-size: 11px; fill: #8b949e; }
  .t-pill { font-size: 11px; font-weight: 600; }
  .t-bullet { font-size: 12px; fill: #c9d1d9; }
  .bg-fill { fill: #0d1117; }
  .card-fill { fill: #161b22; }
  .border-stroke { stroke: #30363d; }

  @media (prefers-color-scheme: light) {
    .bg-fill { fill: #ffffff; }
    .card-fill { fill: #f6f8fa; }
    .border-stroke { stroke: #d0d7de; }
    .t-h { fill: #1f2328; }
    .t-sub { fill: #656d76; }
    .t-label { fill: #656d76; }
    .t-value { fill: #656d76; }
    .t-subhdr { fill: #656d76; }
    .t-stat-label { fill: #656d76; }
    .t-card-title { fill: #0969da; }
    .t-card-detail { fill: #656d76; }
    .t-bullet { fill: #1f2328; }
  }

  @keyframes fadeIn {
    from { opacity: 0; transform: translateY(8px); }
    to { opacity: 1; transform: translateY(0); }
  }
  @keyframes scaleIn {
    from { transform: scale(0); opacity: 0; }
    to { transform: scale(1); opacity: 1; }
  }
  @keyframes drawPath {
    from { stroke-dashoffset: var(--path-length); }
    to { stroke-dashoffset: 0; }
  }
  @keyframes radarReveal {
    from { transform: scale(0); opacity: 0; }
    to { transform: scale(1); opacity: 0.6; }
  }
  .fade-1 { animation: fadeIn 0.6s ease-out 0.1s both; }
  .fade-2 { animation: fadeIn 0.6s ease-out 0.25s both; }
  .fade-3 { animation: fadeIn 0.6s ease-out 0.4s both; }
  .fade-4 { animation: fadeIn 0.6s ease-out 0.55s both; }
  .fade-5 { animation: fadeIn 0.6s ease-out 0.7s both; }
  .fade-6 { animation: fadeIn 0.6s ease-out 0.85s both; }
</style></defs><rect width="808" height="1286" rx="12" class="bg-fill" fill="#0d1117"/><text x="24" y="40" class="t t-h">LANGUAGE VELOCITY</text><text x="24" y="56" class="t t-sub">How language usage has evolved over the past year</text><path d="M 24,206 C 55.66666666666667,206 55.66666666666667,206 87.33333333333334,206 C 119.00000000000001,206 119.00000000000001,205.375 150.66666666666669,205.375 C 182.33333333333334,205.375 182.33333333333334,204.75 214,204.75 C 245.66666666666669,204.75 245.66666666666669,205.58333333333334 277.33333333333337,205.58333333333334 C 309,205.58333333333334 309,206 340.6666666666667,206 C 372.33333333333337,206 372.33333333333337,198.08333333333334 404,198.08333333333334 C 435.6666666666667,198.08333333333334 435.6666666666667,204.33333333333334 467.33333333333337,204.33333333333334 C 499.00000000000006,204.33333333333334 499.00000000000006,199.75 530.6666666666667,199.75 C 562.3333333333334,199.75 562.3333333333334,204.75 594,204.75 C 625.6666666666667,204.75 625.6666666666667,169.54166666666666 657.3333333333334,169.54166666666666 C 689,169.54166666666666 689,107.45833333333333 720.6666666666667,107.45833333333333 C 752.3333333333334,107.45833333333333 752.3333333333334,66 784,66 L 784,67.04166666666666 C 752.3333333333334,67.04166666666666 752.3333333333334,108.29166666666667 720.6666666666667,108.29166666666667 C 689,108.29166666666667 689,169.75 657.3333333333334,169.75 C 625.6666666666667,169.75 625.6666666666667,204.75 594,204.75 C 562.3333333333334,204.75 562.3333333333334,199.75 530.6666666666667,199.75 C 499.00000000000006,199.75 499.00000000000006,204.33333333333334 467.33333333333337,204.33333333333334 C 435.6666666666667,204.33333333333334 435.6666666666667,198.08333333333334 404,198.08333333333334 C 372.33333333333337,198.08333333333334 372.33333333333337,206 340.6666666666667,206 C 309,206 309,205.58333333333334 277.33333333333337,205.58333333333334 C 245.66666666666669,205.58333333333334 245.66666666666669,204.75 214,204.75 C 182.33333333333334,204.75 182.33333333333334,205.375 150.66666666666669,205.375 C 119.00000000000001,205.375 119.00000000000001,206 87.33333333333334,206 C 55.66666666666667,206 55.66666666666667,206 24,206 Z" fill="#DA5B0B" fill-opacity="0.75" class="fade-1"/><path d="M 24,206 C 55.66666666666667,206 55.66666666666667,206 87.33333333333334,206 C 119.00000000000001,206 119.00000000000001,205.375 150.66666666666669,205.375 C 182.33333333333334,205.375 182.33333333333334,204.75 214,204.75 C 245.66666666666669,204.75 245.66666666666669,205.58333333333334 277.33333333333337,205.58333333333334 C 309,205.58333333333334 309,206 340.6666666666667,206 C 372.33333333333337,206 372.33333333333337,198.08333333333334 404,198.08333333333334 C 435.6666666666667,198.08333333333334 435.6666666666667,204.33333333333334 467.33333333333337,204.33333333333334 C 499.00000000000006,204.33333333333334 499.00000000000006,199.75 530.6666666666667,199.75 C 562.3333333333334,199.75 562.3333333333334,204.75 594,204.75 C 625.6666666666667,204.75 625.6666666666667,169.75 657.3333333333334,169.75 C 689,169.75 689,108.29166666666667 720.6666666666667,108.29166666666667 C 752.3333333333334,108.29166666666667 752.3333333333334,67.04166666666666 784,67.04166666666666 L 784,72.25 C 752.3333333333334,72.25 752.3333333333334,112.04166666666667 720.6666666666667,112.04166666666667 C 689,112.04166666666667 689,171.20833333333334 657.3333333333334,171.20833333333334 C 625.6666666666667,171.20833333333334 625.6666666666667,204.75 594,204.75 C 562.3333333333334,204.75 562.3333333333334,199.95833333333334 530.6666666666667,199.95833333333334 C 499.00000000000006,199.95833333333334 499.00000000000006,204.33333333333334 467.33333333333337,204.33333333333334 C 435.6666666666667,204.33333333333334 435.6666666666667,198.29166666666666 404,198.29166666666666 C 372.33333333333337,198.29166666666666 372.33333333333337,206 340.6666666666667,206 C 309,206 309,205.58333333333334 277.33333333333337,205.58333333333334 C 245.66666666666669,205.58333333333334 245.66666666666669,204.75 214,204.75 C 182.33333333333334,204.75 182.33333333333334,205.375 150.66666666666669,205.375 C 119.00000000000001,205.375 119.00000000000001,206 87.33333333333334,206 C 55.66666666666667,206 55.66666666666667,206 24,206 Z" fill="#b07219" fill-opacity="0.75" class="fade-2"/><path d="M 24,206 C 55.66666666666667,206 55.66666666666667,206 87.33333333333334,206 C 119.00000000000001,206 119.00000000000001,205.375 150.66666666666669,205.375 C 182.33333333333334,205.375 182.33333333333334,204.75 214,204.75 C 245.66666666666669,204.75 245.66666666666669,205.58333333333334 277.33333333333337,205.58333333333334 C 309,205.58333333333334 309,206 340.6666666666667,206 C 372.33333333333337,206 372.33333333333337,198.29166666666666 404,198.29166666666666 C 435.6666666666667,198.29166666666666 435.6666666666667,204.33333333333334 467.33333333333337,204.33333333333334 C 499.00000000000006,204.33333333333334 499.00000000000006,199.95833333333334 530.6666666666667,199.95833333333334 C 562.3333333333334,199.95833333333334 562.3333333333334,204.75 594,204.75 C 625.6666666666667,204.75 625.6666666666667,171.20833333333334 657.3333333333334,171.20833333333334 C 689,171.20833333333334 689,112.04166666666667 720.6666666666667,112.04166666666667 C 752.3333333333334,112.04166666666667 752.3333333333334,72.25 784,72.25 L 784,86 C 752.3333333333334,86 752.3333333333334,121.625 720.6666666666667,121.625 C 689,121.625 689,174.75 657.3333333333334,174.75 C 625.6666666666667,174.75 625.6666666666667,204.95833333333334 594,204.95833333333334 C 562.3333333333334,204.95833333333334 562.3333333333334,200.58333333333334 530.6666666666667,200.58333333333334 C 499.00000000000006,200.58333333333334 499.00000000000006,204.54166666666666 467.33333333333337,204.54166666666666 C 435.6666666666667,204.54166666666666 435.6666666666667,199.125 404,199.125 C 372.33333333333337,199.125 372.33333333333337,206 340.6666666666667,206 C 309,206 309,205.58333333333334 277.33333333333337,205.58333333333334 C 245.66666666666669,205.58333333333334 245.66666666666669,204.95833333333334 214,204.95833333333334 C 182.33333333333334,204.95833333333334 182.33333333333334,205.375 150.66666666666669,205.375 C 119.00000000000001,205.375 119.00000000000001,206 87.33333333333334,206 C 55.66666666666667,206 55.66666666666667,206 24,206 Z" fill="#3572A5" fill-opacity="0.75" class="fade-3"/><path d="M 24,206 C 55.66666666666667,206 55.66666666666667,206 87.33333333333334,206 C 119.00000000000001,206 119.00000000000001,205.375 150.66666666666669,205.375 C 182.33333333333334,205.375 182.33333333333334,204.95833333333334 214,204.95833333333334 C 245.66666666666669,204.95833333333334 245.66666666666669,205.58333333333334 277.33333333333337,205.58333333333334 C 309,205.58333333333334 309,206 340.6666666666667,206 C 372.33333333333337,206 372.33333333333337,199.125 404,199.125 C 435.6666666666667,199.125 435.6666666666667,204.54166666666666 467.33333333333337,204.54166666666666 C 499.00000000000006,204.54166666666666 499.00000000000006,200.58333333333334 530.6666666666667,200.58333333333334 C 562.3333333333334,200.58333333333334 562.3333333333334,204.95833333333334 594,204.95833333333334 C 625.6666666666667,204.95833333333334 625.6666666666667,174.75 657.3333333333334,174.75 C 689,174.75 689,121.625 720.6666666666667,121.625 C 752.3333333333334,121.625 752.3333333333334,86 784,86 L 784,105.16666666666667 C 752.3333333333334,105.16666666666667 752.3333333333334,135.16666666666669 720.6666666666667,135.16666666666669 C 689,135.16666666666669 689,179.75 657.3333333333334,179.75 C 625.6666666666667,179.75 625.6666666666667,205.16666666666666 594,205.16666666666666 C 562.3333333333334,205.16666666666666 562.3333333333334,201.41666666666666 530.6666666666667,201.41666666666666 C 499.00000000000006,201.41666666666666 499.00000000000006,204.75 467.33333333333337,204.75 C 435.6666666666667,204.75 435.6666666666667,200.16666666666666 404,200.16666666666666 C 372.33333333333337,200.16666666666666 372.33333333333337,206 340.6666666666667,206 C 309,206 309,205.58333333333334 277.33333333333337,205.58333333333334 C 245.66666666666669,205.58333333333334 245.66666666666669,205.16666666666666 214,205.16666666666666 C 182.33333333333334,205.16666666666666 182.33333333333334,205.375 150.66666666666669,205.375 C 119.00000000000001,205.375 119.00000000000001,206 87.33333333333334,206 C 55.66666666666667,206 55.66666666666667,206 24,206 Z" fill="#89e051" fill-opacity="0.75" class="fade-4"/><path d="M 24,206 C 55.66666666666667,206 55.66666666666667,206 87.33333333333334,206 C 119.00000000000001,206 119.00000000000001,205.375 150.66666666666669,205.375 C 182.33333333333334,205.375 182.33333333333334,205.16666666666666 214,205.16666666666666 C 245.66666666666669,205.16666666666666 245.66666666666669,205.58333333333334 277.33333333333337,205.58333333333334 C 309,205.58333333333334 309,206 340.6666666666667,206 C 372.33333333333337,206 372.33333333333337,200.16666666666666 404,200.16666666666666 C 435.6666666666667,200.16666666666666 435.6666666666667,204.75 467.33333333333337,204.75 C 499.00000000000006,204.75 499.00000000000006,201.41666666666666 530.6666666666667,201.41666666666666 C 562.3333333333334,201.41666666666666 562.3333333333334,205.16666666666666 594,205.16666666666666 C 625.6666666666667,205.16666666666666 625.6666666666667,179.75 657.3333333333334,179.75 C 689,179.75 689,135.16666666666669 720.6666666666667,135.16666666666669 C 752.3333333333334,135.16666666666669 752.3333333333334,105.16666666666667 784,105.16666666666667 L 784,127.66666666666667 C 752.3333333333334,127.66666666666667 752.3333333333334,151 720.6666666666667,151 C 689,151 689,185.58333333333334 657.3333333333334,185.58333333333334 C 625.6666666666667,185.58333333333334 625.6666666666667,205.375 594,205.375 C 562.3333333333334,205.375 562.3333333333334,202.45833333333334 530.6666666666667,202.45833333333334 C 499.00000000000006,202.45833333333334 499.00000000000006,204.95833333333334 467.33333333333337,204.95833333333334 C 435.6666666666667,204.95833333333334 435.6666666666667,201.41666666666666 404,201.41666666666666 C 372.33333333333337,201.41666666666666 372.33333333333337,206 340.6666666666667,206 C 309,206 309,205.58333333333334 277.33333333333337,205.58333333333334 C 245.66666666666669,205.58333333333334 245.66666666666669,205.375 214,205.375 C 182.33333333333334,205.375 182.33333333333334,205.58333333333334 150.66666666666669,205.58333333333334 C 119.00000000000001,205.58333333333334 119.00000000000001,206 87.33333333333334,206 C 55.66666666666667,206 55.66666666666667,206 24,206 Z" fill="#00ADD8" fill-opacity="0.75" class="fade-5"/><path d="M 24,206 C 55.66666666666667,206 55.66666666666667,206 87.33333333333334,206 C 119.00000000000001,206 119.00000000000001,205.58333333333334 150.66666666666669,205.58333333333334 C 182.33333333333334,205.58333333333334 182.33333333333334,205.375 214,205.375 C 245.66666666666669,205.375 245.66666666666669,205.58333333333334 277.33333333333337,205.58333333333334 C 309,205.58333333333334 309,206 340.6666666666667,206 C 372.33333333333337,206 372.33333333333337,201.41666666666666 404,201.41666666666666 C 435.6666666666667,201.41666666666666 435.6666666666667,204.95833333333334 467.33333333333337,204.95833333333334 C 499.00000000000006,204.95833333333334 499.00000000000006,202.45833333333334 530.6666666666667,202.45833333333334 C 562.3333333333334,202.45833333333334 562.3333333333334,205.375 594,205.375 C 625.6666666666667,205.375 625.6666666666667,185.58333333333334 657.3333333333334,185.58333333333334 C 689,185.58333333333334 689,151 720.6666666666667,151 C 752.3333333333334,151 752.3333333333334,127.66666666666667 784,127.66666666666667 L 784,157.04166666666669 C 752.3333333333334,157.04166666666669 752.3333333333334,171.625 720.6666666666667,171.625 C 689,171.625 689,193.29166666666666 657.3333333333334,193.29166666666666 C 625.6666666666667,193.29166666666666 625.6666666666667,205.58333333333334 594,205.58333333333334 C 562.3333333333334,205.58333333333334 562.3333333333334,203.70833333333334 530.6666666666667,203.70833333333334 C 499.00000000000006,203.70833333333334 499.00000000000006,205.375 467.33333333333337,205.375 C 435.6666666666667,205.375 435.6666666666667,203.08333333333334 404,203.08333333333334 C 372.33333333333337,203.08333333333334 372.33333333333337,206 340.6666666666667,206 C 309,206 309,205.79166666666666 277.33333333333337,205.79166666666666 C 245.66666666666669,205.79166666666666 245.66666666666669,205.58333333333334 214,205.58333333333334 C 182.33333333333334,205.58333333333334 182.33333333333334,205.79166666666666 150.66666666666669,205.79166666666666 C 119.00000000000001,205.79166666666666 119.00000000000001,206 87.33333333333334,206 C 55.66666666666667,206 55.66666666666667,206 24,206 Z" fill="#3178c6" fill-opacity="0.75" class="fade-6"/><path d="M 24,206 C 55.66666666666667,206 55.66666666666667,206 87.33333333333334,206 C 119.00000000000001,206 119.00000000000001,205.79166666666666 150.66666666666669,205.79166666666666 C 182.33333333333334,205.79166666666666 182.33333333333334,205.58333333333334 214,205.58333333333334 C 245.66666666666669,205.58333333333334 245.66666666666669,205.79166666666666 277.33333333333337,205.79166666666666 C 309,205.79166666666666 309,206 340.6666666666667,206 C 372.33333333333337,206 372.33333333333337,203.08333333333334 404,203.08333333333334 C 435.6666666666667,203.08333333333334 435.6666666666667,205.375 467.33333333333337,205.375 C 499.00000000000006,205.375 499.00000000000006,203.70833333333334 530.6666666666667,203.70833333333334 C 562.3333333333334,203.70833333333334 562.3333333333334,205.58333333333334 594,205.58333333333334 C 625.6666666666667,205.58333333333334 625.6666666666667,193.29166666666666 657.3333333333334,193.29166666666666 C 689,193.29166666666666 689,171.625 720.6666666666667,171.625 C 752.3333333333334,171.625 752.3333333333334,157.04166666666669 784,157.04166666666669 L 784,206 C 752.3333333333334,206 752.3333333333334,206 720.6666666666667,206 C 689,206 689,206 657.3333333333334,206 C 625.6666666666667,206 625.6666666666667,206 594,206 C 562.3333333333334,206 562.3333333333334,206 530.6666666666667,206 C 499.00000000000006,206 499.00000000000006,206 467.33333333333337,206 C 435.6666666666667,206 435.6666666666667,206 404,206 C 372.33333333333337,206 372.33333333333337,206 340.6666666666667,206 C 309,206 309,206 277.33333333333337,206 C 245.66666666666669,206 245.66666666666669,206 214,206 C 182.33333333333334,206 182.33333333333334,206 150.66666666666669,206 C 119.00000000000001,206 119.00000000000001,206 87.33333333333334,206 C 55.66666666666667,206 55.66666666666667,206 24,206 Z" fill="#dea584" fill-opacity="0.75" class="fade-6"/><rect x="24" y="212" width="8" height="8" rx="2" fill="#dea584" opacity="0.85"/><text x="36" y="220" class="t t-value">Rust</text><rect x="80" y="212" width="8" height="8" rx="2" fill="#3178c6" opacity="0.85"/><text x="92" y="220" class="t t-value">TypeScript</text><rect x="178" y="212" width="8" height="8" rx="2" fill="#00ADD8" opacity="0.85"/><text x="190" y="220" class="t t-value">Go</text><rect x="220" y="212" width="8" height="8" rx="2" fill="#89e051" opacity="0.85"/><text x="232" y="220" class="t t-value">Shell</text><rect x="283" y="212" width="8" height="8" rx="2" fill="#3572A5" opacity="0.85"/><text x="295" y="220" class="t t-value">Python</text><rect x="353" y="212" width="8" height="8" rx="2" fill="#b07219" opacity="0.85"/><text x="365" y="220" class="t t-value">Java</text><rect x="409" y="212" width="8" height="8" rx="2" fill="#DA5B0B" opacity="0.85"/><text x="421" y="220" class="t t-value">Jupyter Notebook</text><text x="24" y="220" class="t t-value" text-anchor="start" opacity="0">Mar</text><text x="150.66666666666669" y="220" class="t t-value" text-anchor="start" opacity="0">May</text><text x="277.33333333333337" y="220" class="t t-value" text-anchor="start" opacity="0">Jul</text><text x="404" y="220" class="t t-value" text-anchor="start" opacity="0">Sep</text><text x="530.6666666666667" y="220" class="t t-value" text-anchor="start" opacity="0">Nov</text><text x="657.3333333333334" y="220" class="t t-value" text-anchor="start" opacity="0">Jan</text><text x="784" y="220" class="t t-value" text-anchor="start" opacity="0">Mar</text><text x="24" y="282" class="t t-h">CONTRIBUTION RHYTHM</text><text x="24" y="298" class="t t-sub">Activity patterns and statistics over the past year</text><circle cx="144" cy="428" r="22.5" fill="none" stroke="#30363d" stroke-width="1" stroke-opacity="0.4"/><circle cx="144" cy="428" r="45" fill="none" stroke="#30363d" stroke-width="1" stroke-opacity="0.4"/><circle cx="144" cy="428" r="67.5" fill="none" stroke="#30363d" stroke-width="1" stroke-opacity="0.4"/><circle cx="144" cy="428" r="90" fill="none" stroke="#30363d" stroke-width="1" stroke-opacity="0.4"/><line x1="144" y1="428" x2="144" y2="338" stroke="#30363d" stroke-width="1" stroke-opacity="0.3"/><line x1="144" y1="428" x2="214.36483342212267" y2="371.885917832714" stroke="#30363d" stroke-width="1" stroke-opacity="0.3"/><line x1="144" y1="428" x2="231.74351209636413" y2="448.0268840560683" stroke="#30363d" stroke-width="1" stroke-opacity="0.3"/><line x1="144" y1="428" x2="183.04953652058023" y2="509.08719811121773" stroke="#30363d" stroke-width="1" stroke-opacity="0.3"/><line x1="144" y1="428" x2="104.95046347941977" y2="509.08719811121773" stroke="#30363d" stroke-width="1" stroke-opacity="0.3"/><line x1="144" y1="428" x2="56.25648790363587" y2="448.0268840560683" stroke="#30363d" stroke-width="1" stroke-opacity="0.3"/><line x1="144" y1="428" x2="73.63516657787731" y2="371.885917832714" stroke="#30363d" stroke-width="1" stroke-opacity="0.3"/><polygon points="144,349.1448598130841 169.8113991758721,407.4160960274208 185.20664937235793,437.40514882072364 156.8644501154248,454.71330591981706 132.77782011207626,451.30309665345743 117.14392503592593,434.1297238582826 73.63516657787731,371.885917832714" fill="#58a6ff" fill-opacity="0.2" stroke="#58a6ff" stroke-width="2" stroke-opacity="0.8" class="fade-2" style="transform-origin: 144px 428px"/><circle cx="144" cy="349.1448598130841" r="3" fill="#58a6ff" class="fade-1"/><circle cx="169.8113991758721" cy="407.4160960274208" r="3" fill="#58a6ff" class="fade-2"/><circle cx="185.20664937235793" cy="437.40514882072364" r="3" fill="#58a6ff" class="fade-3"/><circle cx="156.8644501154248" cy="454.71330591981706" r="3" fill="#58a6ff" class="fade-4"/><circle cx="132.77782011207626" cy="451.30309665345743" r="3" fill="#58a6ff" class="fade-5"/><circle cx="117.14392503592593" cy="434.1297238582826" r="3" fill="#58a6ff" class="fade-6"/><circle cx="73.63516657787731" cy="371.885917832714" r="3" fill="#58a6ff" class="fade-6"/><text x="144" y="326" class="t t-value" text-anchor="middle">Sun</text><text x="226.87413714161116" y="365.91008100297427" class="t t-value" text-anchor="middle">Mon</text><text x="247.34235869127332" y="455.5872189993693" class="t t-value" text-anchor="middle">Tue</text><text x="189.99167634646116" y="527.5026999976565" class="t t-value" text-anchor="middle">Wed</text><text x="98.00832365353884" y="527.5026999976565" class="t t-value" text-anchor="middle">Thu</text><text x="40.657641308726696" y="455.5872189993693" class="t t-value" text-anchor="middle">Fri</text><text x="61.12586285838883" y="365.91008100297427" class="t t-value" text-anchor="middle">Sat</text><text x="324" y="338" class="t t-stat-label">COMMITS</text><text x="324" y="360" fill="#58a6ff" class="t t-stat-value">1,447</text><text x="324" y="380" class="t t-stat-label">PRS</text><text x="324" y="402" fill="#3fb950" class="t t-stat-value">4</text><text x="324" y="422" class="t t-stat-label">REVIEWS</text><text x="324" y="444" fill="#d29922" class="t t-stat-value">5</text><text x="324" y="464" class="t t-stat-label">REPOS</text><text x="324" y="486" fill="#bc8cff" class="t t-stat-value">23</text><text x="324" y="506" class="t t-stat-label">STREAK</text><text x="324" y="528" fill="#39d2c0" class="t t-stat-value">15d</text><text x="24" y="614" class="t t-h">PROJECT CONSTELLATION</text><text x="24" y="630" class="t t-sub">Projects mapped by language ecosystem and complexity</text><line x1="86.66666666666666" y1="670" x2="540.0000000000001" y2="719.3673331755572" stroke="#30363d" stroke-width="1" stroke-opacity="0.15" stroke-dasharray="4 4"/><line x1="86.66666666666666" y1="670" x2="101.77777777777777" y2="739.1961888784557" stroke="#30363d" stroke-width="1" stroke-opacity="0.15" stroke-dasharray="4 4"/><line x1="86.66666666666666" y1="670" x2="691.1111111111112" y2="753.1222026399307" stroke="#30363d" stroke-width="1" stroke-opacity="0.15" stroke-dasharray="4 4"/><line x1="86.66666666666666" y1="670" x2="630.6666666666667" y2="815.6998631867833" stroke="#30363d" stroke-width="1" stroke-opacity="0.15" stroke-dasharray="4 4"/><line x1="86.66666666666666" y1="670" x2="706.2222222222223" y2="820.3553768019" stroke="#30363d" stroke-width="1" stroke-opacity="0.15" stroke-dasharray="4 4"/><line x1="86.66666666666666" y1="670" x2="116.88888888888889" y2="820.5369597295822" stroke="#30363d" stroke-width="1" stroke-opacity="0.15" stroke-dasharray="4 4"/><line x1="86.66666666666666" y1="670" x2="546.0444444444445" y2="828.8115540648859" stroke="#30363d" stroke-width="1" stroke-opacity="0.15" stroke-dasharray="4 4"/><line x1="86.66666666666666" y1="670" x2="552.088888888889" y2="844.0617264066896" stroke="#30363d" stroke-width="1" stroke-opacity="0.15" stroke-dasharray="4 4"/><line x1="86.66666666666666" y1="670" x2="474.51851851851853" y2="862.3122074305043" stroke="#30363d" stroke-width="1" stroke-opacity="0.15" stroke-dasharray="4 4"/><line x1="86.66666666666666" y1="670" x2="558.1333333333334" y2="873.925134051658" stroke="#30363d" stroke-width="1" stroke-opacity="0.15" stroke-dasharray="4 4"/><line x1="86.66666666666666" y1="670" x2="564.1777777777779" y2="874.1821437339158" stroke="#30363d" stroke-width="1" stroke-opacity="0.15" stroke-dasharray="4 4"/><line x1="86.66666666666666" y1="670" x2="570.2222222222223" y2="907.7526366871043" stroke="#30363d" stroke-width="1" stroke-opacity="0.15" stroke-dasharray="4 4"/><line x1="313.33333333333337" y1="712.3707965850913" x2="464.44444444444446" y2="759.2205954265505" stroke="#30363d" stroke-width="1" stroke-opacity="0.15" stroke-dasharray="4 4"/><line x1="313.33333333333337" y1="712.3707965850913" x2="706.2222222222223" y2="820.3553768019" stroke="#30363d" stroke-width="1" stroke-opacity="0.15" stroke-dasharray="4 4"/><line x1="313.33333333333337" y1="712.3707965850913" x2="343.55555555555554" y2="833.0731589907176" stroke="#30363d" stroke-width="1" stroke-opacity="0.15" stroke-dasharray="4 4"/><line x1="313.33333333333337" y1="712.3707965850913" x2="474.51851851851853" y2="862.3122074305043" stroke="#30363d" stroke-width="1" stroke-opacity="0.15" stroke-dasharray="4 4"/><line x1="540.0000000000001" y1="719.3673331755572" x2="101.77777777777777" y2="739.1961888784557" stroke="#30363d" stroke-width="1" stroke-opacity="0.15" stroke-dasharray="4 4"/><line x1="540.0000000000001" y1="719.3673331755572" x2="630.6666666666667" y2="815.6998631867833" stroke="#30363d" stroke-width="1" stroke-opacity="0.15" stroke-dasharray="4 4"/><line x1="540.0000000000001" y1="719.3673331755572" x2="706.2222222222223" y2="820.3553768019" stroke="#30363d" stroke-width="1" stroke-opacity="0.15" stroke-dasharray="4 4"/><line x1="540.0000000000001" y1="719.3673331755572" x2="116.88888888888889" y2="820.5369597295822" stroke="#30363d" stroke-width="1" stroke-opacity="0.15" stroke-dasharray="4 4"/><line x1="540.0000000000001" y1="719.3673331755572" x2="546.0444444444445" y2="828.8115540648859" stroke="#30363d" stroke-width="1" stroke-opacity="0.15" stroke-dasharray="4 4"/><line x1="540.0000000000001" y1="719.3673331755572" x2="552.088888888889" y2="844.0617264066896" stroke="#30363d" stroke-width="1" stroke-opacity="0.15" stroke-dasharray="4 4"/><line x1="540.0000000000001" y1="719.3673331755572" x2="474.51851851851853" y2="862.3122074305043" stroke="#30363d" stroke-width="1" stroke-opacity="0.15" stroke-dasharray="4 4"/><line x1="540.0000000000001" y1="719.3673331755572" x2="558.1333333333334" y2="873.925134051658" stroke="#30363d" stroke-width="1" stroke-opacity="0.15" stroke-dasharray="4 4"/><line x1="540.0000000000001" y1="719.3673331755572" x2="564.1777777777779" y2="874.1821437339158" stroke="#30363d" stroke-width="1" stroke-opacity="0.15" stroke-dasharray="4 4"/><line x1="540.0000000000001" y1="719.3673331755572" x2="570.2222222222223" y2="907.7526366871043" stroke="#30363d" stroke-width="1" stroke-opacity="0.15" stroke-dasharray="4 4"/><line x1="101.77777777777777" y1="739.1961888784557" x2="630.6666666666667" y2="815.6998631867833" stroke="#30363d" stroke-width="1" stroke-opacity="0.15" stroke-dasharray="4 4"/><line x1="101.77777777777777" y1="739.1961888784557" x2="706.2222222222223" y2="820.3553768019" stroke="#30363d" stroke-width="1" stroke-opacity="0.15" stroke-dasharray="4 4"/><line x1="101.77777777777777" y1="739.1961888784557" x2="116.88888888888889" y2="820.5369597295822" stroke="#30363d" stroke-width="1" stroke-opacity="0.15" stroke-dasharray="4 4"/><line x1="101.77777777777777" y1="739.1961888784557" x2="546.0444444444445" y2="828.8115540648859" stroke="#30363d" stroke-width="1" stroke-opacity="0.15" stroke-dasharray="4 4"/><line x1="101.77777777777777" y1="739.1961888784557" x2="552.088888888889" y2="844.0617264066896" stroke="#30363d" stroke-width="1" stroke-opacity="0.15" stroke-dasharray="4 4"/><line x1="101.77777777777777" y1="739.1961888784557" x2="558.1333333333334" y2="873.925134051658" stroke="#30363d" stroke-width="1" stroke-opacity="0.15" stroke-dasharray="4 4"/><line x1="101.77777777777777" y1="739.1961888784557" x2="564.1777777777779" y2="874.1821437339158" stroke="#30363d" stroke-width="1" stroke-opacity="0.15" stroke-dasharray="4 4"/><line x1="101.77777777777777" y1="739.1961888784557" x2="570.2222222222223" y2="907.7526366871043" stroke="#30363d" stroke-width="1" stroke-opacity="0.15" stroke-dasharray="4 4"/><line x1="691.1111111111112" y1="753.1222026399307" x2="706.2222222222223" y2="820.3553768019" stroke="#30363d" stroke-width="1" stroke-opacity="0.15" stroke-dasharray="4 4"/><line x1="691.1111111111112" y1="753.1222026399307" x2="546.0444444444445" y2="828.8115540648859" stroke="#30363d" stroke-width="1" stroke-opacity="0.15" stroke-dasharray="4 4"/><line x1="691.1111111111112" y1="753.1222026399307" x2="252.88888888888889" y2="907.059827978409" stroke="#30363d" stroke-width="1" stroke-opacity="0.15" stroke-dasharray="4 4"/><line x1="464.44444444444446" y1="759.2205954265505" x2="706.2222222222223" y2="820.3553768019" stroke="#30363d" stroke-width="1" stroke-opacity="0.15" stroke-dasharray="4 4"/><line x1="464.44444444444446" y1="759.2205954265505" x2="343.55555555555554" y2="833.0731589907176" stroke="#30363d" stroke-width="1" stroke-opacity="0.15" stroke-dasharray="4 4"/><line x1="464.44444444444446" y1="759.2205954265505" x2="474.51851851851853" y2="862.3122074305043" stroke="#30363d" stroke-width="1" stroke-opacity="0.15" stroke-dasharray="4 4"/><line x1="630.6666666666667" y1="815.6998631867833" x2="706.2222222222223" y2="820.3553768019" stroke="#30363d" stroke-width="1" stroke-opacity="0.15" stroke-dasharray="4 4"/><line x1="630.6666666666667" y1="815.6998631867833" x2="116.88888888888889" y2="820.5369597295822" stroke="#30363d" stroke-width="1" stroke-opacity="0.15" stroke-dasharray="4 4"/><line x1="630.6666666666667" y1="815.6998631867833" x2="546.0444444444445" y2="828.8115540648859" stroke="#30363d" stroke-width="1" stroke-opacity="0.15" stroke-dasharray="4 4"/><line x1="630.6666666666667" y1="815.6998631867833" x2="552.088888888889" y2="844.0617264066896" stroke="#30363d" stroke-width="1" stroke-opacity="0.15" stroke-dasharray="4 4"/><line x1="630.6666666666667" y1="815.6998631867833" x2="558.1333333333334" y2="873.925134051658" stroke="#30363d" stroke-width="1" stroke-opacity="0.15" stroke-dasharray="4 4"/><line x1="630.6666666666667" y1="815.6998631867833" x2="564.1777777777779" y2="874.1821437339158" stroke="#30363d" stroke-width="1" stroke-opacity="0.15" stroke-dasharray="4 4"/><line x1="630.6666666666667" y1="815.6998631867833" x2="192.44444444444446" y2="883.4568409632232" stroke="#30363d" stroke-width="1" stroke-opacity="0.15" stroke-dasharray="4 4"/><line x1="630.6666666666667" y1="815.6998631867833" x2="570.2222222222223" y2="907.7526366871043" stroke="#30363d" stroke-width="1" stroke-opacity="0.15" stroke-dasharray="4 4"/><line x1="706.2222222222223" y1="820.3553768019" x2="116.88888888888889" y2="820.5369597295822" stroke="#30363d" stroke-width="1" stroke-opacity="0.15" stroke-dasharray="4 4"/><line x1="706.2222222222223" y1="820.3553768019" x2="546.0444444444445" y2="828.8115540648859" stroke="#30363d" stroke-width="1" stroke-opacity="0.15" stroke-dasharray="4 4"/><line x1="706.2222222222223" y1="820.3553768019" x2="343.55555555555554" y2="833.0731589907176" stroke="#30363d" stroke-width="1" stroke-opacity="0.15" stroke-dasharray="4 4"/><line x1="706.2222222222223" y1="820.3553768019" x2="552.088888888889" y2="844.0617264066896" stroke="#30363d" stroke-width="1" stroke-opacity="0.15" stroke-dasharray="4 4"/><line x1="706.2222222222223" y1="820.3553768019" x2="474.51851851851853" y2="862.3122074305043" stroke="#30363d" stroke-width="1" stroke-opacity="0.15" stroke-dasharray="4 4"/><line x1="706.2222222222223" y1="820.3553768019" x2="558.1333333333334" y2="873.925134051658" stroke="#30363d" stroke-width="1" stroke-opacity="0.15" stroke-dasharray="4 4"/><line x1="706.2222222222223" y1="820.3553768019" x2="564.1777777777779" y2="874.1821437339158" stroke="#30363d" stroke-width="1" stroke-opacity="0.15" stroke-dasharray="4 4"/><line x1="706.2222222222223" y1="820.3553768019" x2="484.59259259259255" y2="886.3956908081723" stroke="#30363d" stroke-width="1" stroke-opacity="0.15" stroke-dasharray="4 4"/><line x1="706.2222222222223" y1="820.3553768019" x2="721.3333333333334" y2="891.5694074553642" stroke="#30363d" stroke-width="1" stroke-opacity="0.15" stroke-dasharray="4 4"/><line x1="706.2222222222223" y1="820.3553768019" x2="252.88888888888889" y2="907.059827978409" stroke="#30363d" stroke-width="1" stroke-opacity="0.15" stroke-dasharray="4 4"/><line x1="706.2222222222223" y1="820.3553768019" x2="570.2222222222223" y2="907.7526366871043" stroke="#30363d" stroke-width="1" stroke-opacity="0.15" stroke-dasharray="4 4"/><line x1="116.88888888888889" y1="820.5369597295822" x2="546.0444444444445" y2="828.8115540648859" stroke="#30363d" stroke-width="1" stroke-opacity="0.15" stroke-dasharray="4 4"/><line x1="116.88888888888889" y1="820.5369597295822" x2="552.088888888889" y2="844.0617264066896" stroke="#30363d" stroke-width="1" stroke-opacity="0.15" stroke-dasharray="4 4"/><line x1="116.88888888888889" y1="820.5369597295822" x2="558.1333333333334" y2="873.925134051658" stroke="#30363d" stroke-width="1" stroke-opacity="0.15" stroke-dasharray="4 4"/><line x1="116.88888888888889" y1="820.5369597295822" x2="564.1777777777779" y2="874.1821437339158" stroke="#30363d" stroke-width="1" stroke-opacity="0.15" stroke-dasharray="4 4"/><line x1="116.88888888888889" y1="820.5369597295822" x2="570.2222222222223" y2="907.7526366871043" stroke="#30363d" stroke-width="1" stroke-opacity="0.15" stroke-dasharray="4 4"/><line x1="546.0444444444445" y1="828.8115540648859" x2="552.088888888889" y2="844.0617264066896" stroke="#30363d" stroke-width="1" stroke-opacity="0.15" stroke-dasharray="4 4"/><line x1="546.0444444444445" y1="828.8115540648859" x2="558.1333333333334" y2="873.925134051658" stroke="#30363d" stroke-width="1" stroke-opacity="0.15" stroke-dasharray="4 4"/><line x1="546.0444444444445" y1="828.8115540648859" x2="564.1777777777779" y2="874.1821437339158" stroke="#30363d" stroke-width="1" stroke-opacity="0.15" stroke-dasharray="4 4"/><line x1="546.0444444444445" y1="828.8115540648859" x2="570.2222222222223" y2="907.7526366871043" stroke="#30363d" stroke-width="1" stroke-opacity="0.15" stroke-dasharray="4 4"/><line x1="343.55555555555554" y1="833.0731589907176" x2="474.51851851851853" y2="862.3122074305043" stroke="#30363d" stroke-width="1" stroke-opacity="0.15" stroke-dasharray="4 4"/><line x1="552.088888888889" y1="844.0617264066896" x2="558.1333333333334" y2="873.925134051658" stroke="#30363d" stroke-width="1" stroke-opacity="0.15" stroke-dasharray="4 4"/><line x1="552.088888888889" y1="844.0617264066896" x2="564.1777777777779" y2="874.1821437339158" stroke="#30363d" stroke-width="1" stroke-opacity="0.15" stroke-dasharray="4 4"/><line x1="552.088888888889" y1="844.0617264066896" x2="570.2222222222223" y2="907.7526366871043" stroke="#30363d" stroke-width="1" stroke-opacity="0.15" stroke-dasharray="4 4"/><line x1="558.1333333333334" y1="873.925134051658" x2="564.1777777777779" y2="874.1821437339158" stroke="#30363d" stroke-width="1" stroke-opacity="0.15" stroke-dasharray="4 4"/><line x1="558.1333333333334" y1="873.925134051658" x2="570.2222222222223" y2="907.7526366871043" stroke="#30363d" stroke-width="1" stroke-opacity="0.15" stroke-dasharray="4 4"/><line x1="564.1777777777779" y1="874.1821437339158" x2="570.2222222222223" y2="907.7526366871043" stroke="#30363d" stroke-width="1" stroke-opacity="0.15" stroke-dasharray="4 4"/><circle cx="86.66666666666666" cy="670" r="26" fill="#00ADD8" fill-opacity="0.08" class="fade-1"/><circle cx="86.66666666666666" cy="670" r="22" fill="#00ADD8" fill-opacity="0.7" stroke="#00ADD8" stroke-width="1.5" stroke-opacity="0.9" class="fade-1"/><text x="86.66666666666666" y="706" class="t t-value fade-1" text-anchor="middle">incipit</text><circle cx="313.33333333333337" cy="712.3707965850913" r="26" fill="#DA5B0B" fill-opacity="0.08" class="fade-2"/><circle cx="313.33333333333337" cy="712.3707965850913" r="22" fill="#DA5B0B" fill-opacity="0.7" stroke="#DA5B0B" stroke-width="1.5" stroke-opacity="0.9" class="fade-2"/><text x="313.33333333333337" y="748.3707965850913" class="t t-value fade-2" text-anchor="middle">lepus-classifier</text><circle cx="540.0000000000001" cy="719.3673331755572" r="26" fill="#dea584" fill-opacity="0.08" class="fade-3"/><circle cx="540.0000000000001" cy="719.3673331755572" r="22" fill="#dea584" fill-opacity="0.7" stroke="#dea584" stroke-width="1.5" stroke-opacity="0.9" class="fade-3"/><text x="540.0000000000001" y="755.3673331755572" class="t t-value fade-3" text-anchor="middle">linear-gp</text><circle cx="101.77777777777777" cy="739.1961888784557" r="26" fill="#00ADD8" fill-opacity="0.08" class="fade-4"/><circle cx="101.77777777777777" cy="739.1961888784557" r="22" fill="#00ADD8" fill-opacity="0.7" stroke="#00ADD8" stroke-width="1.5" stroke-opacity="0.9" class="fade-4"/><text x="101.77777777777777" y="775.1961888784557" class="t t-value fade-4" text-anchor="middle">zigbee-rest</text><circle cx="691.1111111111112" cy="753.1222026399307" r="26" fill="#3178c6" fill-opacity="0.08" class="fade-5"/><circle cx="691.1111111111112" cy="753.1222026399307" r="22" fill="#3178c6" fill-opacity="0.7" stroke="#3178c6" stroke-width="1.5" stroke-opacity="0.9" class="fade-5"/><text x="691.1111111111112" y="789.1222026399307" class="t t-value fade-5" text-anchor="middle">urmzd.com</text><circle cx="464.44444444444446" cy="759.2205954265505" r="26" fill="#3572A5" fill-opacity="0.08" class="fade-6"/><circle cx="464.44444444444446" cy="759.2205954265505" r="22" fill="#3572A5" fill-opacity="0.7" stroke="#3572A5" stroke-width="1.5" stroke-opacity="0.9" class="fade-6"/><text x="464.44444444444446" y="795.2205954265505" class="t t-value fade-6" text-anchor="middle">exp-agi-models</text><circle cx="630.6666666666667" cy="815.6998631867833" r="21.644993857961033" fill="#89e051" fill-opacity="0.08" class="fade-6"/><circle cx="630.6666666666667" cy="815.6998631867833" r="17.644993857961033" fill="#89e051" fill-opacity="0.7" stroke="#89e051" stroke-width="1.5" stroke-opacity="0.9" class="fade-6"/><text x="630.6666666666667" y="847.3448570447443" class="t t-value fade-6" text-anchor="middle">dotfiles</text><circle cx="706.2222222222223" cy="820.3553768019" r="15.061182065019677" fill="#3178c6" fill-opacity="0.08" class="fade-6"/><circle cx="706.2222222222223" cy="820.3553768019" r="11.061182065019677" fill="#3178c6" fill-opacity="0.7" stroke="#3178c6" stroke-width="1.5" stroke-opacity="0.9" class="fade-6"/><text x="706.2222222222223" y="845.4165588669197" class="t t-value fade-6" text-anchor="middle">zoro</text><circle cx="116.88888888888889" cy="820.5369597295822" r="14.600690044643535" fill="#00ADD8" fill-opacity="0.08" class="fade-6"/><circle cx="116.88888888888889" cy="820.5369597295822" r="10.600690044643535" fill="#00ADD8" fill-opacity="0.7" stroke="#00ADD8" stroke-width="1.5" stroke-opacity="0.9" class="fade-6"/><text x="116.88888888888889" y="845.1376497742258" class="t t-value fade-6" text-anchor="middle">saige</text><circle cx="546.0444444444445" cy="828.8115540648859" r="26" fill="#dea584" fill-opacity="0.08" class="fade-6"/><circle cx="546.0444444444445" cy="828.8115540648859" r="22" fill="#dea584" fill-opacity="0.7" stroke="#dea584" stroke-width="1.5" stroke-opacity="0.9" class="fade-6"/><text x="546.0444444444445" y="864.8115540648859" class="t t-value fade-6" text-anchor="middle">teasr</text><circle cx="343.55555555555554" cy="833.0731589907176" r="25.36863924926572" fill="#DA5B0B" fill-opacity="0.08" class="fade-6"/><circle cx="343.55555555555554" cy="833.0731589907176" r="21.36863924926572" fill="#DA5B0B" fill-opacity="0.7" stroke="#DA5B0B" stroke-width="1.5" stroke-opacity="0.9" class="fade-6"/><text x="343.55555555555554" y="868.4417982399833" class="t t-value fade-6" text-anchor="middle">md-classifier</text><circle cx="552.088888888889" cy="844.0617264066896" r="20.751279260918498" fill="#dea584" fill-opacity="0.08" class="fade-6"/><circle cx="552.088888888889" cy="844.0617264066896" r="16.751279260918498" fill="#dea584" fill-opacity="0.7" stroke="#dea584" stroke-width="1.5" stroke-opacity="0.9" class="fade-6"/><text x="552.088888888889" y="874.8130056676081" class="t t-value fade-6" text-anchor="middle">oag</text><circle cx="474.51851851851853" cy="862.3122074305043" r="25.46688344753587" fill="#3572A5" fill-opacity="0.08" class="fade-6"/><circle cx="474.51851851851853" cy="862.3122074305043" r="21.46688344753587" fill="#3572A5" fill-opacity="0.7" stroke="#3572A5" stroke-width="1.5" stroke-opacity="0.9" class="fade-6"/><text x="474.51851851851853" y="897.7790908780402" class="t t-value fade-6" text-anchor="middle">languide</text><circle cx="162.22222222222223" cy="869.2501235908645" r="24.861890796612347" fill="#b07219" fill-opacity="0.08" class="fade-6"/><circle cx="162.22222222222223" cy="869.2501235908645" r="20.861890796612347" fill="#b07219" fill-opacity="0.7" stroke="#b07219" stroke-width="1.5" stroke-opacity="0.9" class="fade-6"/><text x="162.22222222222223" y="904.1120143874768" class="t t-value fade-6" text-anchor="middle">flappy-bird</text><circle cx="558.1333333333334" cy="873.925134051658" r="16.623678554924" fill="#dea584" fill-opacity="0.08" class="fade-6"/><circle cx="558.1333333333334" cy="873.925134051658" r="12.623678554923998" fill="#dea584" fill-opacity="0.7" stroke="#dea584" stroke-width="1.5" stroke-opacity="0.9" class="fade-6"/><text x="558.1333333333334" y="900.548812606582" class="t t-value fade-6" text-anchor="middle">sr</text><circle cx="564.1777777777779" cy="874.1821437339158" r="12.034215715337913" fill="#dea584" fill-opacity="0.08" class="fade-6"/><circle cx="564.1777777777779" cy="874.1821437339158" r="8.034215715337913" fill="#dea584" fill-opacity="0.7" stroke="#dea584" stroke-width="1.5" stroke-opacity="0.9" class="fade-6"/><text x="564.1777777777779" y="896.2163594492538" class="t t-value fade-6" text-anchor="middle">embed-src</text><circle cx="192.44444444444446" cy="883.4568409632232" r="14.637905107315877" fill="#b07219" fill-opacity="0.08" class="fade-6"/><circle cx="192.44444444444446" cy="883.4568409632232" r="10.637905107315877" fill="#b07219" fill-opacity="0.7" stroke="#b07219" stroke-width="1.5" stroke-opacity="0.9" class="fade-6"/><text x="192.44444444444446" y="908.094746070539" class="t t-value fade-6" text-anchor="middle">barter-trader</text><circle cx="484.59259259259255" cy="886.3956908081723" r="14.425254648846348" fill="#3572A5" fill-opacity="0.08" class="fade-6"/><circle cx="484.59259259259255" cy="886.3956908081723" r="10.425254648846348" fill="#3572A5" fill-opacity="0.7" stroke="#3572A5" stroke-width="1.5" stroke-opacity="0.9" class="fade-6"/><text x="484.59259259259255" y="910.8209454570186" class="t t-value fade-6" text-anchor="middle">chess-cli</text><circle cx="721.3333333333334" cy="891.5694074553642" r="25.32306360794312" fill="#3178c6" fill-opacity="0.08" class="fade-6"/><circle cx="721.3333333333334" cy="891.5694074553642" r="21.32306360794312" fill="#3178c6" fill-opacity="0.7" stroke="#3178c6" stroke-width="1.5" stroke-opacity="0.9" class="fade-6"/><text x="721.3333333333334" y="926.8924710633073" class="t t-value fade-6" text-anchor="middle">github-insights</text><circle cx="252.88888888888889" cy="907.059827978409" r="12.127871907170075" fill="#f1e05a" fill-opacity="0.08" class="fade-6"/><circle cx="252.88888888888889" cy="907.059827978409" r="8.127871907170075" fill="#f1e05a" fill-opacity="0.7" stroke="#f1e05a" stroke-width="1.5" stroke-opacity="0.9" class="fade-6"/><text x="252.88888888888889" y="929.187699885579" class="t t-value fade-6" text-anchor="middle">cypress-name-too-…</text><circle cx="570.2222222222223" cy="907.7526366871043" r="10" fill="#dea584" fill-opacity="0.08" class="fade-6"/><circle cx="570.2222222222223" cy="907.7526366871043" r="6" fill="#dea584" fill-opacity="0.7" stroke="#dea584" stroke-width="1.5" stroke-opacity="0.9" class="fade-6"/><text x="570.2222222222223" y="927.7526366871043" class="t t-value fade-6" text-anchor="middle">gitit</text><circle cx="494.66666666666663" cy="916.1808781150621" r="10" fill="#3572A5" fill-opacity="0.08" class="fade-6"/><circle cx="494.66666666666663" cy="916.1808781150621" r="6" fill="#3572A5" fill-opacity="0.7" stroke="#3572A5" stroke-width="1.5" stroke-opacity="0.9" class="fade-6"/><text x="494.66666666666663" y="936.1808781150621" class="t t-value fade-6" text-anchor="middle">lightning-kfold</text><circle cx="404" cy="950" r="11.979773675207134" fill="#8b949e" fill-opacity="0.08" class="fade-6"/><circle cx="404" cy="950" r="7.979773675207134" fill="#8b949e" fill-opacity="0.7" stroke="#8b949e" stroke-width="1.5" stroke-opacity="0.9" class="fade-6"/><text x="404" y="971.9797736752072" class="t t-value fade-6" text-anchor="middle">urmzd</text><text x="24" y="1076" class="t t-h">OPEN SOURCE IMPACT</text><text x="24" y="1092" class="t t-sub">External repositories contributed to</text><text x="24" y="1124" class="t t-card-title fade-1">getzep/graphiti</text><rect x="304" y="1114" width="400" height="12" rx="3" fill="#58a6ff" fill-opacity="0.7" class="fade-1"/><text x="720" y="1124" class="t t-value fade-1">★ 24,106</text><text x="784" y="1124" class="t t-value fade-1">Python</text><text x="24" y="1166" class="t t-card-title fade-2">googleapis/python-aiplatform</text><rect x="304" y="1156" width="268.4998020322188" height="12" rx="3" fill="#3fb950" fill-opacity="0.7" class="fade-2"/><text x="720" y="1166" class="t t-value fade-2">★ 873</text><text x="784" y="1166" class="t t-value fade-2">Python</text><text x="24" y="1208" class="t t-card-title fade-3">MathisWellmann/gym-rs</text><rect x="304" y="1198" width="192.34515066428136" height="12" rx="3" fill="#d29922" fill-opacity="0.7" class="fade-3"/><text x="720" y="1208" class="t t-value fade-3">★ 127</text><text x="784" y="1208" class="t t-value fade-3">Rust</text></svg>