<svg xmlns="http://www.w3.org/2000/svg" width="808" height="1446" viewBox="0 0 808 1446"><defs><style>
  .t { font-family: -apple-system,BlinkMacSystemFont,Segoe UI,Helvetica,Arial,sans-serif; font-variant-numeric: tabular-lining; }
  .t-h { font-size: 14px; fill: #c9d1d9; letter-spacing: 2px; font-weight: 600; }
  .t-sub { font-size: 11px; fill: #6e7681; }
  .t-label { font-size: 12px; fill: #8b949e; }
  .t-value { font-size: 11px; fill: #6e7681; }
  .t-subhdr { font-size: 11px; fill: #8b949e; letter-spacing: 1px; font-weight: 600; }
  .t-stat-label { font-size: 10px; fill: #8b949e; font-weight: 600; }
  .t-stat-value { font-size: 22px; font-weight: 700; }
  .t-card-title { font-size: 12px; fill: #58a6ff; font-weight: 700; }
  .t-card-detail { font-size: 11px; fill: #8b949e; }
  .t-pill { font-size: 11px; font-weight: 600; }
  .t-bullet { font-size: 12px; fill: #c9d1d9; }
  .bg-fill { fill: #0d1117; }
  .card-fill { fill: #161b22; }
  .border-stroke { stroke: #30363d; }
  .muted-fill { fill: #6e7681; }
  .secondary-fill { fill: #8b949e; }

  @keyframes fadeIn {
    from { opacity: 0; transform: translateY(8px); }
    to { opacity: 1; transform: translateY(0); }
  }
  @keyframes scaleIn {
    from { transform: scale(0); opacity: 0; }
    to { transform: scale(1); opacity: 1; }
  }
  @keyframes drawPath {
    from { stroke-dashoffset: var(--path-length); }
    to { stroke-dashoffset: 0; }
  }
  @keyframes radarReveal {
    from { transform: scale(0); opacity: 0; }
    to { transform: scale(1); opacity: 0.6; }
  }
  .fade-1 { animation: fadeIn 0.6s ease-out 0.1s both; }
  .fade-2 { animation: fadeIn 0.6s ease-out 0.25s both; }
  .fade-3 { animation: fadeIn 0.6s ease-out 0.4s both; }
  .fade-4 { animation: fadeIn 0.6s ease-out 0.55s both; }
  .fade-5 { animation: fadeIn 0.6s ease-out 0.7s both; }
  .fade-6 { animation: fadeIn 0.6s ease-out 0.85s both; }
</style></defs><rect width="808" height="1446" rx="12" class="bg-fill"/><text x="24" y="40" class="t t-h">LANGUAGE VELOCITY</text><text x="24" y="56" class="t t-sub">How language usage has evolved over the past year</text><path key="Lua" d="M 24,206 C 55.66666666666667,206 55.66666666666667,206 87.33333333333334,206 C 119.00000000000001,206 119.00000000000001,206 150.66666666666669,206 C 182.33333333333334,206 182.33333333333334,205.37888198757764 214,205.37888198757764 C 245.66666666666669,205.37888198757764 245.66666666666669,203.63975155279502 277.33333333333337,203.63975155279502 C 309,203.63975155279502 309,206 340.6666666666667,206 C 372.33333333333337,206 372.33333333333337,191.71428571428572 404,191.71428571428572 C 435.6666666666667,191.71428571428572 435.6666666666667,159.7888198757764 467.33333333333337,159.7888198757764 C 499.00000000000006,159.7888198757764 499.00000000000006,66 530.6666666666667,66 C 562.3333333333334,66 562.3333333333334,94.57142857142857 594,94.57142857142857 C 625.6666666666667,94.57142857142857 625.6666666666667,200.6583850931677 657.3333333333334,200.6583850931677 C 689,200.6583850931677 689,192.583850931677 720.6666666666667,192.583850931677 C 752.3333333333334,192.583850931677 752.3333333333334,205.37888198757764 784,205.37888198757764 L 784,205.37888198757764 C 752.3333333333334,205.37888198757764 752.3333333333334,192.70807453416148 720.6666666666667,192.70807453416148 C 689,192.70807453416148 689,200.7826086956522 657.3333333333334,200.7826086956522 C 625.6666666666667,200.7826086956522 625.6666666666667,96.06211180124224 594,96.06211180124224 C 562.3333333333334,96.06211180124224 562.3333333333334,67.86335403726707 530.6666666666667,67.86335403726707 C 499.00000000000006,67.86335403726707 499.00000000000006,160.40993788819875 467.33333333333337,160.40993788819875 C 435.6666666666667,160.40993788819875 435.6666666666667,191.96273291925465 404,191.96273291925465 C 372.33333333333337,191.96273291925465 372.33333333333337,206 340.6666666666667,206 C 309,206 309,203.63975155279502 277.33333333333337,203.63975155279502 C 245.66666666666669,203.63975155279502 245.66666666666669,205.37888198757764 214,205.37888198757764 C 182.33333333333334,205.37888198757764 182.33333333333334,206 150.66666666666669,206 C 119.00000000000001,206 119.00000000000001,206 87.33333333333334,206 C 55.66666666666667,206 55.66666666666667,206 24,206 Z" fill="#000080" fill-opacity="0.75" class="fade-1"/><path key="Java" d="M 24,206 C 55.66666666666667,206 55.66666666666667,206 87.33333333333334,206 C 119.00000000000001,206 119.00000000000001,206 150.66666666666669,206 C 182.33333333333334,206 182.33333333333334,205.37888198757764 214,205.37888198757764 C 245.66666666666669,205.37888198757764 245.66666666666669,203.63975155279502 277.33333333333337,203.63975155279502 C 309,203.63975155279502 309,206 340.6666666666667,206 C 372.33333333333337,206 372.33333333333337,191.96273291925465 404,191.96273291925465 C 435.6666666666667,191.96273291925465 435.6666666666667,160.40993788819875 467.33333333333337,160.40993788819875 C 499.00000000000006,160.40993788819875 499.00000000000006,67.86335403726707 530.6666666666667,67.86335403726707 C 562.3333333333334,67.86335403726707 562.3333333333334,96.06211180124224 594,96.06211180124224 C 625.6666666666667,96.06211180124224 625.6666666666667,200.7826086956522 657.3333333333334,200.7826086956522 C 689,200.7826086956522 689,192.70807453416148 720.6666666666667,192.70807453416148 C 752.3333333333334,192.70807453416148 752.3333333333334,205.37888198757764 784,205.37888198757764 L 784,205.37888198757764 C 752.3333333333334,205.37888198757764 752.3333333333334,192.95652173913044 720.6666666666667,192.95652173913044 C 689,192.95652173913044 689,200.90683229813664 657.3333333333334,200.90683229813664 C 625.6666666666667,200.90683229813664 625.6666666666667,97.80124223602483 594,97.80124223602483 C 562.3333333333334,97.80124223602483 562.3333333333334,70.09937888198758 530.6666666666667,70.09937888198758 C 499.00000000000006,70.09937888198758 499.00000000000006,161.1552795031056 467.33333333333337,161.1552795031056 C 435.6666666666667,161.1552795031056 435.6666666666667,192.2111801242236 404,192.2111801242236 C 372.33333333333337,192.2111801242236 372.33333333333337,206 340.6666666666667,206 C 309,206 309,203.63975155279502 277.33333333333337,203.63975155279502 C 245.66666666666669,203.63975155279502 245.66666666666669,205.37888198757764 214,205.37888198757764 C 182.33333333333334,205.37888198757764 182.33333333333334,206 150.66666666666669,206 C 119.00000000000001,206 119.00000000000001,206 87.33333333333334,206 C 55.66666666666667,206 55.66666666666667,206 24,206 Z" fill="#b07219" fill-opacity="0.75" class="fade-2"/><path key="Python" d="M 24,206 C 55.66666666666667,206 55.66666666666667,206 87.33333333333334,206 C 119.00000000000001,206 119.00000000000001,206 150.66666666666669,206 C 182.33333333333334,206 182.33333333333334,205.37888198757764 214,205.37888198757764 C 245.66666666666669,205.37888198757764 245.66666666666669,203.63975155279502 277.33333333333337,203.63975155279502 C 309,203.63975155279502 309,206 340.6666666666667,206 C 372.33333333333337,206 372.33333333333337,192.2111801242236 404,192.2111801242236 C 435.6666666666667,192.2111801242236 435.6666666666667,161.1552795031056 467.33333333333337,161.1552795031056 C 499.00000000000006,161.1552795031056 499.00000000000006,70.09937888198758 530.6666666666667,70.09937888198758 C 562.3333333333334,70.09937888198758 562.3333333333334,97.80124223602483 594,97.80124223602483 C 625.6666666666667,97.80124223602483 625.6666666666667,200.90683229813664 657.3333333333334,200.90683229813664 C 689,200.90683229813664 689,192.95652173913044 720.6666666666667,192.95652173913044 C 752.3333333333334,192.95652173913044 752.3333333333334,205.37888198757764 784,205.37888198757764 L 784,205.37888198757764 C 752.3333333333334,205.37888198757764 752.3333333333334,193.5776397515528 720.6666666666667,193.5776397515528 C 689,193.5776397515528 689,201.1552795031056 657.3333333333334,201.1552795031056 C 625.6666666666667,201.1552795031056 625.6666666666667,103.26708074534162 594,103.26708074534162 C 562.3333333333334,103.26708074534162 562.3333333333334,76.93167701863354 530.6666666666667,76.93167701863354 C 499.00000000000006,76.93167701863354 499.00000000000006,163.3913043478261 467.33333333333337,163.3913043478261 C 435.6666666666667,163.3913043478261 435.6666666666667,192.95652173913044 404,192.95652173913044 C 372.33333333333337,192.95652173913044 372.33333333333337,206 340.6666666666667,206 C 309,206 309,203.7639751552795 277.33333333333337,203.7639751552795 C 245.66666666666669,203.7639751552795 245.66666666666669,205.37888198757764 214,205.37888198757764 C 182.33333333333334,205.37888198757764 182.33333333333334,206 150.66666666666669,206 C 119.00000000000001,206 119.00000000000001,206 87.33333333333334,206 C 55.66666666666667,206 55.66666666666667,206 24,206 Z" fill="#3572A5" fill-opacity="0.75" class="fade-3"/><path key="TypeScript" d="M 24,206 C 55.66666666666667,206 55.66666666666667,206 87.33333333333334,206 C 119.00000000000001,206 119.00000000000001,206 150.66666666666669,206 C 182.33333333333334,206 182.33333333333334,205.37888198757764 214,205.37888198757764 C 245.66666666666669,205.37888198757764 245.66666666666669,203.7639751552795 277.33333333333337,203.7639751552795 C 309,203.7639751552795 309,206 340.6666666666667,206 C 372.33333333333337,206 372.33333333333337,192.95652173913044 404,192.95652173913044 C 435.6666666666667,192.95652173913044 435.6666666666667,163.3913043478261 467.33333333333337,163.3913043478261 C 499.00000000000006,163.3913043478261 499.00000000000006,76.93167701863354 530.6666666666667,76.93167701863354 C 562.3333333333334,76.93167701863354 562.3333333333334,103.26708074534162 594,103.26708074534162 C 625.6666666666667,103.26708074534162 625.6666666666667,201.1552795031056 657.3333333333334,201.1552795031056 C 689,201.1552795031056 689,193.5776397515528 720.6666666666667,193.5776397515528 C 752.3333333333334,193.5776397515528 752.3333333333334,205.37888198757764 784,205.37888198757764 L 784,205.50310559006212 C 752.3333333333334,205.50310559006212 752.3333333333334,195.93788819875778 720.6666666666667,195.93788819875778 C 689,195.93788819875778 689,202.14906832298138 657.3333333333334,202.14906832298138 C 625.6666666666667,202.14906832298138 625.6666666666667,123.2670807453416 594,123.2670807453416 C 562.3333333333334,123.2670807453416 562.3333333333334,102.02484472049689 530.6666666666667,102.02484472049689 C 499.00000000000006,102.02484472049689 499.00000000000006,171.71428571428572 467.33333333333337,171.71428571428572 C 435.6666666666667,171.71428571428572 435.6666666666667,195.44099378881987 404,195.44099378881987 C 372.33333333333337,195.44099378881987 372.33333333333337,206 340.6666666666667,206 C 309,206 309,204.13664596273293 277.33333333333337,204.13664596273293 C 245.66666666666669,204.13664596273293 245.66666666666669,205.50310559006212 214,205.50310559006212 C 182.33333333333334,205.50310559006212 182.33333333333334,206 150.66666666666669,206 C 119.00000000000001,206 119.00000000000001,206 87.33333333333334,206 C 55.66666666666667,206 55.66666666666667,206 24,206 Z" fill="#3178c6" fill-opacity="0.75" class="fade-4"/><path key="Go" d="M 24,206 C 55.66666666666667,206 55.66666666666667,206 87.33333333333334,206 C 119.00000000000001,206 119.00000000000001,206 150.66666666666669,206 C 182.33333333333334,206 182.33333333333334,205.50310559006212 214,205.50310559006212 C 245.66666666666669,205.50310559006212 245.66666666666669,204.13664596273293 277.33333333333337,204.13664596273293 C 309,204.13664596273293 309,206 340.6666666666667,206 C 372.33333333333337,206 372.33333333333337,195.44099378881987 404,195.44099378881987 C 435.6666666666667,195.44099378881987 435.6666666666667,171.71428571428572 467.33333333333337,171.71428571428572 C 499.00000000000006,171.71428571428572 499.00000000000006,102.02484472049689 530.6666666666667,102.02484472049689 C 562.3333333333334,102.02484472049689 562.3333333333334,123.2670807453416 594,123.2670807453416 C 625.6666666666667,123.2670807453416 625.6666666666667,202.14906832298138 657.3333333333334,202.14906832298138 C 689,202.14906832298138 689,195.93788819875778 720.6666666666667,195.93788819875778 C 752.3333333333334,195.93788819875778 752.3333333333334,205.50310559006212 784,205.50310559006212 L 784,205.6273291925466 C 752.3333333333334,205.6273291925466 752.3333333333334,198.67080745341616 720.6666666666667,198.67080745341616 C 689,198.67080745341616 689,203.14285714285714 657.3333333333334,203.14285714285714 C 625.6666666666667,203.14285714285714 625.6666666666667,145.37888198757764 594,145.37888198757764 C 562.3333333333334,145.37888198757764 562.3333333333334,129.85093167701865 530.6666666666667,129.85093167701865 C 499.00000000000006,129.85093167701865 499.00000000000006,180.90683229813664 467.33333333333337,180.90683229813664 C 435.6666666666667,180.90683229813664 435.6666666666667,198.29813664596273 404,198.29813664596273 C 372.33333333333337,198.29813664596273 372.33333333333337,206 340.6666666666667,206 C 309,206 309,204.6335403726708 277.33333333333337,204.6335403726708 C 245.66666666666669,204.6335403726708 245.66666666666669,205.6273291925466 214,205.6273291925466 C 182.33333333333334,205.6273291925466 182.33333333333334,206 150.66666666666669,206 C 119.00000000000001,206 119.00000000000001,206 87.33333333333334,206 C 55.66666666666667,206 55.66666666666667,206 24,206 Z" fill="#00ADD8" fill-opacity="0.75" class="fade-5"/><path key="Rust" d="M 24,206 C 55.66666666666667,206 55.66666666666667,206 87.33333333333334,206 C 119.00000000000001,206 119.00000000000001,206 150.66666666666669,206 C 182.33333333333334,206 182.33333333333334,205.6273291925466 214,205.6273291925466 C 245.66666666666669,205.6273291925466 245.66666666666669,204.6335403726708 277.33333333333337,204.6335403726708 C 309,204.6335403726708 309,206 340.6666666666667,206 C 372.33333333333337,206 372.33333333333337,198.29813664596273 404,198.29813664596273 C 435.6666666666667,198.29813664596273 435.6666666666667,180.90683229813664 467.33333333333337,180.90683229813664 C 499.00000000000006,180.90683229813664 499.00000000000006,129.85093167701865 530.6666666666667,129.85093167701865 C 562.3333333333334,129.85093167701865 562.3333333333334,145.37888198757764 594,145.37888198757764 C 625.6666666666667,145.37888198757764 625.6666666666667,203.14285714285714 657.3333333333334,203.14285714285714 C 689,203.14285714285714 689,198.67080745341616 720.6666666666667,198.67080745341616 C 752.3333333333334,198.67080745341616 752.3333333333334,205.6273291925466 784,205.6273291925466 L 784,206 C 752.3333333333334,206 752.3333333333334,206 720.6666666666667,206 C 689,206 689,206 657.3333333333334,206 C 625.6666666666667,206 625.6666666666667,206 594,206 C 562.3333333333334,206 562.3333333333334,206 530.6666666666667,206 C 499.00000000000006,206 499.00000000000006,206 467.33333333333337,206 C 435.6666666666667,206 435.6666666666667,206 404,206 C 372.33333333333337,206 372.33333333333337,206 340.6666666666667,206 C 309,206 309,206 277.33333333333337,206 C 245.66666666666669,206 245.66666666666669,206 214,206 C 182.33333333333334,206 182.33333333333334,206 150.66666666666669,206 C 119.00000000000001,206 119.00000000000001,206 87.33333333333334,206 C 55.66666666666667,206 55.66666666666667,206 24,206 Z" fill="#dea584" fill-opacity="0.75" class="fade-6"/><rect x="24" y="212" width="8" height="8" rx="2" fill="#dea584" opacity="0.85"/><text x="36" y="220" class="t t-value">Rust</text><rect x="80" y="212" width="8" height="8" rx="2" fill="#00ADD8" opacity="0.85"/><text x="92" y="220" class="t t-value">Go</text><rect x="122" y="212" width="8" height="8" rx="2" fill="#3178c6" opacity="0.85"/><text x="134" y="220" class="t t-value">TypeScript</text><rect x="220" y="212" width="8" height="8" rx="2" fill="#3572A5" opacity="0.85"/><text x="232" y="220" class="t t-value">Python</text><rect x="290" y="212" width="8" height="8" rx="2" fill="#b07219" opacity="0.85"/><text x="302" y="220" class="t t-value">Java</text><rect x="346" y="212" width="8" height="8" rx="2" fill="#000080" opacity="0.85"/><text x="358" y="220" class="t t-value">Lua</text><text key="Jul" x="24" y="220" class="t t-value" text-anchor="start" opacity="0">Jul</text><text key="Sep" x="150.66666666666669" y="220" class="t t-value" text-anchor="start" opacity="0">Sep</text><text key="Nov" x="277.33333333333337" y="220" class="t t-value" text-anchor="start" opacity="0">Nov</text><text key="Jan" x="404" y="220" class="t t-value" text-anchor="start" opacity="0">Jan</text><text key="Mar" x="530.6666666666667" y="220" class="t t-value" text-anchor="start" opacity="0">Mar</text><text key="May" x="657.3333333333334" y="220" class="t t-value" text-anchor="start" opacity="0">May</text><text key="Jul" x="784" y="220" class="t t-value" text-anchor="start" opacity="0">Jul</text><text x="24" y="282" class="t t-h">CONTRIBUTION RHYTHM</text><text x="24" y="298" class="t t-sub">Activity patterns and statistics over the past year</text><circle key="0.25" cx="144" cy="428" r="22.5" fill="none" class="border-stroke" stroke-width="1" stroke-opacity="0.4"/><circle key="0.5" cx="144" cy="428" r="45" fill="none" class="border-stroke" stroke-width="1" stroke-opacity="0.4"/><circle key="0.75" cx="144" cy="428" r="67.5" fill="none" class="border-stroke" stroke-width="1" stroke-opacity="0.4"/><circle key="1" cx="144" cy="428" r="90" fill="none" class="border-stroke" stroke-width="1" stroke-opacity="0.4"/><line key="Sun" x1="144" y1="428" x2="144" y2="338" class="border-stroke" stroke-width="1" stroke-opacity="0.3"/><line key="Mon" x1="144" y1="428" x2="214.36483342212267" y2="371.885917832714" class="border-stroke" stroke-width="1" stroke-opacity="0.3"/><line key="Tue" x1="144" y1="428" x2="231.74351209636413" y2="448.0268840560683" class="border-stroke" stroke-width="1" stroke-opacity="0.3"/><line key="Wed" x1="144" y1="428" x2="183.04953652058023" y2="509.08719811121773" class="border-stroke" stroke-width="1" stroke-opacity="0.3"/><line key="Thu" x1="144" y1="428" x2="104.95046347941977" y2="509.08719811121773" class="border-stroke" stroke-width="1" stroke-opacity="0.3"/><line key="Fri" x1="144" y1="428" x2="56.25648790363587" y2="448.0268840560683" class="border-stroke" stroke-width="1" stroke-opacity="0.3"/><line key="Sat" x1="144" y1="428" x2="73.63516657787731" y2="371.885917832714" class="border-stroke" stroke-width="1" stroke-opacity="0.3"/><polygon points="144,338 166.29521462618217,410.220159636198 171.89021827482816,434.3657603205464 166.42097505571155,474.5576344351997 130.01151819898487,457.04738176537063 112.74524745709734,435.13369331159646 104.16682991946435,396.23410686594605" fill="#58a6ff" fill-opacity="0.2" stroke="#58a6ff" stroke-width="2" stroke-opacity="0.8" class="fade-2" style="transform-origin: 144px 428px"/><circle key="Sun" cx="144" cy="338" r="3" fill="#58a6ff" class="fade-1"/><circle key="Mon" cx="166.29521462618217" cy="410.220159636198" r="3" fill="#58a6ff" class="fade-2"/><circle key="Tue" cx="171.89021827482816" cy="434.3657603205464" r="3" fill="#58a6ff" class="fade-3"/><circle key="Wed" cx="166.42097505571155" cy="474.5576344351997" r="3" fill="#58a6ff" class="fade-4"/><circle key="Thu" cx="130.01151819898487" cy="457.04738176537063" r="3" fill="#58a6ff" class="fade-5"/><circle key="Fri" cx="112.74524745709734" cy="435.13369331159646" r="3" fill="#58a6ff" class="fade-6"/><circle key="Sat" cx="104.16682991946435" cy="396.23410686594605" r="3" fill="#58a6ff" class="fade-6"/><text key="Sun" x="144" y="326" class="t t-value" text-anchor="middle">Sun</text><text key="Mon" x="226.87413714161116" y="365.91008100297427" class="t t-value" text-anchor="middle">Mon</text><text key="Tue" x="247.34235869127332" y="455.5872189993693" class="t t-value" text-anchor="middle">Tue</text><text key="Wed" x="189.99167634646116" y="527.5026999976565" class="t t-value" text-anchor="middle">Wed</text><text key="Thu" x="98.00832365353884" y="527.5026999976565" class="t t-value" text-anchor="middle">Thu</text><text key="Fri" x="40.657641308726696" y="455.5872189993693" class="t t-value" text-anchor="middle">Fri</text><text key="Sat" x="61.12586285838883" y="365.91008100297427" class="t t-value" text-anchor="middle">Sat</text><text x="324" y="338" class="t t-stat-label">COMMITS</text><text x="324" y="360" fill="#58a6ff" class="t t-stat-value">2,958</text><text x="324" y="380" class="t t-stat-label">PRS</text><text x="324" y="402" fill="#3fb950" class="t t-stat-value">223</text><text x="324" y="422" class="t t-stat-label">REVIEWS</text><text x="324" y="444" fill="#d29922" class="t t-stat-value">5</text><text x="324" y="464" class="t t-stat-label">REPOS</text><text x="324" y="486" fill="#bc8cff" class="t t-stat-value">29</text><text x="324" y="506" class="t t-stat-label">STREAK</text><text x="324" y="528" fill="#39d2c0" class="t t-stat-value">41d</text><text x="24" y="614" class="t t-h">OPEN SOURCE IMPACT</text><text x="24" y="630" class="t t-sub">External repositories contributed to</text><text x="24" y="664" class="t t-card-title fade-1">getzep/graphiti</text><rect x="280" y="654" width="340" height="12" rx="3" fill="#58a6ff" fill-opacity="0.7" class="fade-1"/><text x="636" y="664" class="t t-value fade-1">★ 28,344</text><text x="728" y="664" class="t t-value fade-1">Python</text><text x="24" y="710" class="t t-card-title fade-2">googleapis/python-aiplatform</text><rect x="280" y="700" width="225.55499257821765" height="12" rx="3" fill="#3fb950" fill-opacity="0.7" class="fade-2"/><text x="636" y="710" class="t t-value fade-2">★ 898</text><text x="728" y="710" class="t t-value fade-2">Python</text><text x="24" y="756" class="t t-card-title fade-3">MathisWellmann/gym-rs</text><rect x="280" y="746" width="161.93126294374792" height="12" rx="3" fill="#d29922" fill-opacity="0.7" class="fade-3"/><text x="636" y="756" class="t t-value fade-3">★ 131</text><text x="728" y="756" class="t t-value fade-3">Rust</text><text x="24" y="828" class="t t-h">TECH STACK</text><text x="24" y="844" class="t t-sub">Projects arranged by abstraction layer</text><rect x="24" y="854" width="760" height="124" rx="8" fill="#bc8cff" fill-opacity="0.08" class="fade-1"/><text x="40" y="890" class="t t-subhdr fade-1" fill-opacity="0.9">AI &amp; RESEARCH</text><rect x="40" y="902" width="176" height="52" rx="6" class="card-fill fade-1"/><text x="50" y="922" class="t t-card-title fade-1">linear-gp</text><text x="206" y="922" class="t t-value fade-1" text-anchor="end" font-size="9">★ 2</text><circle cx="54" cy="940" r="3" fill="#dea584" fill-opacity="0.8" class="fade-1"/><text x="62" y="943" class="t muted-fill fade-1" font-size="9">Rust</text><rect x="228" y="902" width="176" height="52" rx="6" class="card-fill fade-1"/><text x="238" y="922" class="t t-card-title fade-1">experimental-transf…</text><text x="394" y="922" class="t t-value fade-1" text-anchor="end" font-size="9">★ 0</text><circle cx="242" cy="940" r="3" fill="#3572A5" fill-opacity="0.8" class="fade-1"/><text x="250" y="943" class="t muted-fill fade-1" font-size="9">Python</text><rect x="24" y="986" width="760" height="124" rx="8" fill="#d29922" fill-opacity="0.08" class="fade-2"/><text x="40" y="1022" class="t t-subhdr fade-2" fill-opacity="0.9">APPLICATIONS</text><rect x="40" y="1034" width="176" height="52" rx="6" class="card-fill fade-2"/><text x="50" y="1054" class="t t-card-title fade-2">urmzd.com</text><text x="206" y="1054" class="t t-value fade-2" text-anchor="end" font-size="9">★ 1</text><circle cx="54" cy="1072" r="3" fill="#3178c6" fill-opacity="0.8" class="fade-2"/><text x="62" y="1075" class="t muted-fill fade-2" font-size="9">TypeScript</text><rect x="228" y="1034" width="176" height="52" rx="6" class="card-fill fade-2"/><text x="238" y="1054" class="t t-card-title fade-2">languide</text><text x="394" y="1054" class="t t-value fade-2" text-anchor="end" font-size="9">★ 0</text><circle cx="242" cy="1072" r="3" fill="#8b949e" fill-opacity="0.8" class="fade-2"/><text x="250" y="1075" class="t muted-fill fade-2" font-size="9">Other</text><rect x="24" y="1118" width="760" height="124" rx="8" fill="#58a6ff" fill-opacity="0.08" class="fade-3"/><text x="40" y="1154" class="t t-subhdr fade-3" fill-opacity="0.9">LIBRARIES &amp; SDKS</text><rect x="40" y="1166" width="176" height="52" rx="6" class="card-fill fade-3"/><text x="50" y="1186" class="t t-card-title fade-3">zigbee-skill</text><text x="206" y="1186" class="t t-value fade-3" text-anchor="end" font-size="9">★ 0</text><circle cx="54" cy="1204" r="3" fill="#00ADD8" fill-opacity="0.8" class="fade-3"/><text x="62" y="1207" class="t muted-fill fade-3" font-size="9">Go</text><rect x="228" y="1166" width="176" height="52" rx="6" class="card-fill fade-3"/><text x="238" y="1186" class="t t-card-title fade-3">saige</text><text x="394" y="1186" class="t t-value fade-3" text-anchor="end" font-size="9">★ 3</text><circle cx="242" cy="1204" r="3" fill="#00ADD8" fill-opacity="0.8" class="fade-3"/><text x="250" y="1207" class="t muted-fill fade-3" font-size="9">Go</text><rect x="416" y="1166" width="176" height="52" rx="6" class="card-fill fade-3"/><text x="426" y="1186" class="t t-card-title fade-3">streamsafe</text><text x="582" y="1186" class="t t-value fade-3" text-anchor="end" font-size="9">★ 0</text><circle cx="430" cy="1204" r="3" fill="#dea584" fill-opacity="0.8" class="fade-3"/><text x="438" y="1207" class="t muted-fill fade-3" font-size="9">Rust</text><rect x="24" y="1250" width="760" height="124" rx="8" fill="#3fb950" fill-opacity="0.08" class="fade-4"/><text x="40" y="1286" class="t t-subhdr fade-4" fill-opacity="0.9">INFRASTRUCTURE &amp; DEVOPS</text><rect x="40" y="1298" width="176" height="52" rx="6" class="card-fill fade-4"/><text x="50" y="1318" class="t t-card-title fade-4">incipit</text><text x="206" y="1318" class="t t-value fade-4" text-anchor="end" font-size="9">★ 12</text><circle cx="54" cy="1336" r="3" fill="#00ADD8" fill-opacity="0.8" class="fade-4"/><text x="62" y="1339" class="t muted-fill fade-4" font-size="9">Go</text><rect x="228" y="1298" width="176" height="52" rx="6" class="card-fill fade-4"/><text x="238" y="1318" class="t t-card-title fade-4">generative-artifact…</text><text x="394" y="1318" class="t t-value fade-4" text-anchor="end" font-size="9">★ 1</text><circle cx="242" cy="1336" r="3" fill="#dea584" fill-opacity="0.8" class="fade-4"/><text x="250" y="1339" class="t muted-fill fade-4" font-size="9">Rust</text><rect x="416" y="1298" width="176" height="52" rx="6" class="card-fill fade-4"/><text x="426" y="1318" class="t t-card-title fade-4">teasr</text><text x="582" y="1318" class="t t-value fade-4" text-anchor="end" font-size="9">★ 2</text><circle cx="430" cy="1336" r="3" fill="#dea584" fill-opacity="0.8" class="fade-4"/><text x="438" y="1339" class="t muted-fill fade-4" font-size="9">Rust</text></svg>