<svg xmlns="http://www.w3.org/2000/svg" width="808" height="1243" viewBox="0 0 808 1243"><defs><style>
  .t { font-family: -apple-system,BlinkMacSystemFont,Segoe UI,Helvetica,Arial,sans-serif; }
  .t-h { font-size: 13px; fill: #c9d1d9; letter-spacing: 1.5px; font-weight: 600; }
  .t-sub { font-size: 11px; fill: #6e7681; }
  .t-label { font-size: 12px; fill: #8b949e; }
  .t-value { font-size: 11px; fill: #6e7681; }
  .t-subhdr { font-size: 11px; fill: #8b949e; letter-spacing: 1px; font-weight: 600; }
  .t-stat-label { font-size: 10px; fill: #8b949e; font-weight: 600; }
  .t-stat-value { font-size: 22px; font-weight: 700; }
  .t-card-title { font-size: 12px; fill: #58a6ff; font-weight: 700; }
  .t-card-detail { font-size: 11px; fill: #8b949e; }
  .t-pill { font-size: 11px; font-weight: 600; }
  .t-bullet { font-size: 12px; fill: #c9d1d9; }
</style></defs><rect width="808" height="1243" rx="12" fill="#0d1117"/><text x="24" y="40" class="t t-h">AT A GLANCE</text><text x="24" y="56" class="t t-sub">Contribution activity over the past year</text><rect x="24" y="66" width="140" height="72" rx="8" fill="#161b22" stroke="#30363d" stroke-width="1"/><circle cx="38" cy="82" r="4" fill="#58a6ff"/><text x="48" y="86" class="t t-stat-label">COMMITS</text><text x="94" y="118" fill="#58a6ff" class="t t-stat-value" text-anchor="middle">1,101</text><rect x="179" y="66" width="140" height="72" rx="8" fill="#161b22" stroke="#30363d" stroke-width="1"/><circle cx="193" cy="82" r="4" fill="#3fb950"/><text x="203" y="86" class="t t-stat-label">PRS</text><text x="249" y="118" fill="#3fb950" class="t t-stat-value" text-anchor="middle">3</text><rect x="334" y="66" width="140" height="72" rx="8" fill="#161b22" stroke="#30363d" stroke-width="1"/><circle cx="348" cy="82" r="4" fill="#d29922"/><text x="358" y="86" class="t t-stat-label">REVIEWS</text><text x="404" y="118" fill="#d29922" class="t t-stat-value" text-anchor="middle">5</text><rect x="489" y="66" width="140" height="72" rx="8" fill="#161b22" stroke="#30363d" stroke-width="1"/><circle cx="503" cy="82" r="4" fill="#bc8cff"/><text x="513" y="86" class="t t-stat-label">REPOS</text><text x="559" y="118" fill="#bc8cff" class="t t-stat-value" text-anchor="middle">25</text><text x="24" y="184" class="t t-h">LANGUAGES</text><text x="24" y="200" class="t t-sub">By bytes of code across all public repos</text><circle cx="114" cy="300" r="70" fill="none" stroke="#00ADD8" stroke-width="28" stroke-dasharray="123.1504320207199 316.6725394818511" stroke-dashoffset="0" transform="rotate(-90 114 300)" opacity="0.85"/><circle cx="114" cy="300" r="70" fill="none" stroke="#dea584" stroke-width="28" stroke-dasharray="110.39556584714532 329.4274056554257" stroke-dashoffset="-123.1504320207199" transform="rotate(-90 114 300)" opacity="0.85"/><circle cx="114" cy="300" r="70" fill="none" stroke="#3178c6" stroke-width="28" stroke-dasharray="104.23804424610933 335.5849272564617" stroke-dashoffset="-233.54599786786522" transform="rotate(-90 114 300)" opacity="0.85"/><circle cx="114" cy="300" r="70" fill="none" stroke="#3D6117" stroke-width="28" stroke-dasharray="20.231856689118267 419.59111481345275" stroke-dashoffset="-337.7840421139746" transform="rotate(-90 114 300)" opacity="0.85"/><circle cx="114" cy="300" r="70" fill="none" stroke="#3572A5" stroke-width="28" stroke-dasharray="16.713272917097697 423.1096985854733" stroke-dashoffset="-358.01589880309285" transform="rotate(-90 114 300)" opacity="0.85"/><circle cx="114" cy="300" r="70" fill="none" stroke="#89e051" stroke-width="28" stroke-dasharray="16.27344994559513 423.5495215569759" stroke-dashoffset="-374.72917172019055" transform="rotate(-90 114 300)" opacity="0.85"/><circle cx="114" cy="300" r="70" fill="none" stroke="#a52a22" stroke-width="28" stroke-dasharray="7.916813487046279 431.90615801552474" stroke-dashoffset="-391.0026216657857" transform="rotate(-90 114 300)" opacity="0.85"/><circle cx="114" cy="300" r="70" fill="none" stroke="#b07219" stroke-width="28" stroke-dasharray="6.597344572538565 433.22562693003243" stroke-dashoffset="-398.91943515283197" transform="rotate(-90 114 300)" opacity="0.85"/><circle cx="114" cy="300" r="70" fill="none" stroke="#000080" stroke-width="28" stroke-dasharray="6.157521601035993 433.66544990153506" stroke-dashoffset="-405.51677972537055" transform="rotate(-90 114 300)" opacity="0.85"/><circle cx="114" cy="300" r="70" fill="none" stroke="#e34c26" stroke-width="28" stroke-dasharray="5.717698629533424 434.1052728730376" stroke-dashoffset="-411.6743013264065" transform="rotate(-90 114 300)" opacity="0.85"/><text x="114" y="305" class="t" fill="#c9d1d9" font-size="14" font-weight="700" text-anchor="middle">10</text><text x="114" y="320" class="t" fill="#6e7681" font-size="10" text-anchor="middle">languages</text><rect x="244" y="220" width="12" height="12" rx="2" fill="#00ADD8" opacity="0.85"/><text x="264" y="230" class="t t-label">Go</text><text x="444" y="230" class="t t-value" text-anchor="end">28.0%</text><rect x="244" y="244" width="12" height="12" rx="2" fill="#dea584" opacity="0.85"/><text x="264" y="254" class="t t-label">Rust</text><text x="444" y="254" class="t t-value" text-anchor="end">25.1%</text><rect x="244" y="268" width="12" height="12" rx="2" fill="#3178c6" opacity="0.85"/><text x="264" y="278" class="t t-label">TypeScript</text><text x="444" y="278" class="t t-value" text-anchor="end">23.7%</text><rect x="244" y="292" width="12" height="12" rx="2" fill="#3D6117" opacity="0.85"/><text x="264" y="302" class="t t-label">TeX</text><text x="444" y="302" class="t t-value" text-anchor="end">4.6%</text><rect x="244" y="316" width="12" height="12" rx="2" fill="#3572A5" opacity="0.85"/><text x="264" y="326" class="t t-label">Python</text><text x="444" y="326" class="t t-value" text-anchor="end">3.8%</text><rect x="244" y="340" width="12" height="12" rx="2" fill="#89e051" opacity="0.85"/><text x="264" y="350" class="t t-label">Shell</text><text x="444" y="350" class="t t-value" text-anchor="end">3.7%</text><rect x="244" y="364" width="12" height="12" rx="2" fill="#a52a22" opacity="0.85"/><text x="264" y="374" class="t t-label">Jinja</text><text x="444" y="374" class="t t-value" text-anchor="end">1.8%</text><rect x="244" y="388" width="12" height="12" rx="2" fill="#b07219" opacity="0.85"/><text x="264" y="398" class="t t-label">Java</text><text x="444" y="398" class="t t-value" text-anchor="end">1.5%</text><rect x="244" y="412" width="12" height="12" rx="2" fill="#000080" opacity="0.85"/><text x="264" y="422" class="t t-label">Lua</text><text x="444" y="422" class="t t-value" text-anchor="end">1.4%</text><rect x="244" y="436" width="12" height="12" rx="2" fill="#e34c26" opacity="0.85"/><text x="264" y="446" class="t t-label">HTML</text><text x="444" y="446" class="t t-value" text-anchor="end">1.3%</text><text x="24" y="516" class="t t-h">SIGNATURE PROJECTS</text><text x="24" y="532" class="t t-sub">Top projects by technical complexity</text><rect x="24" y="542" width="760" height="52" rx="6" fill="#161b22" stroke="#30363d" stroke-width="1"/><rect x="24" y="542" width="4" height="52" rx="2" fill="#58a6ff"/><text x="40" y="560" class="t t-card-title">resume-generator</text><text x="768" y="560" class="t t-value" text-anchor="end">★ 10</text><text x="40" y="576" class="t t-card-detail">A data-driven CLI tool that converts YAML/JSON/TOML resume data into polished PDFs, DOCX,…</text><rect x="24" y="604" width="760" height="52" rx="6" fill="#161b22" stroke="#30363d" stroke-width="1"/><rect x="24" y="604" width="4" height="52" rx="2" fill="#3fb950"/><text x="40" y="622" class="t t-card-title">lepus-classifier</text><text x="768" y="622" class="t t-value" text-anchor="end">★ 2</text><text x="40" y="638" class="t t-card-detail">A CNN research project exploring optimal image classification architectures for small dat…</text><rect x="24" y="666" width="760" height="52" rx="6" fill="#161b22" stroke="#30363d" stroke-width="1"/><rect x="24" y="666" width="4" height="52" rx="2" fill="#d29922"/><text x="40" y="684" class="t t-card-title">linear-gp</text><text x="768" y="684" class="t t-value" text-anchor="end">★ 2</text><text x="40" y="700" class="t t-card-detail">A production-grade Rust framework for Linear Genetic Programming research, featuring modu…</text><rect x="24" y="728" width="760" height="52" rx="6" fill="#161b22" stroke="#30363d" stroke-width="1"/><rect x="24" y="728" width="4" height="52" rx="2" fill="#f85149"/><text x="40" y="746" class="t t-card-title">homai</text><text x="768" y="746" class="t t-value" text-anchor="end">★ 0</text><text x="40" y="762" class="t t-card-detail">Local-first, privacy-focused smart home control system. Manage Zigbee devices through a R…</text><rect x="24" y="790" width="760" height="52" rx="6" fill="#161b22" stroke="#30363d" stroke-width="1"/><rect x="24" y="790" width="4" height="52" rx="2" fill="#bc8cff"/><text x="40" y="808" class="t t-card-title">urmzd.com</text><text x="768" y="808" class="t t-value" text-anchor="end">★ 0</text><text x="40" y="824" class="t t-card-detail">Personal website and blog built with Astro, TypeScript, and MDX—featuring fast static sit…</text><text x="24" y="888" class="t t-h">CONTRIBUTION CALENDAR</text><text x="24" y="904" class="t t-sub">1,204 contributions in the last year</text><text x="54" y="925" class="t t-value">Mar</text><text x="93" y="925" class="t t-value">Apr</text><text x="145" y="925" class="t t-value">May</text><text x="197" y="925" class="t t-value">Jun</text><text x="262" y="925" class="t t-value">Jul</text><text x="314" y="925" class="t t-value">Aug</text><text x="379" y="925" class="t t-value">Sep</text><text x="431" y="925" class="t t-value">Oct</text><text x="483" y="925" class="t t-value">Nov</text><text x="548" y="925" class="t t-value">Dec</text><text x="600" y="925" class="t t-value">Jan</text><text x="652" y="925" class="t t-value">Feb</text><text x="704" y="925" class="t t-value">Mar</text><text x="24" y="953" class="t t-value">Mon</text><text x="24" y="979" class="t t-value">Wed</text><text x="24" y="1005" class="t t-value">Fri</text><rect x="54" y="930" width="11" height="11" rx="2" fill="#ebedf0"/><rect x="54" y="943" width="11" height="11" rx="2" fill="#ebedf0"/><rect x="54" y="956" width="11" height="11" rx="2" fill="#ebedf0"/><rect x="54" y="969" width="11" height="11" rx="2" fill="#ebedf0"/><rect x="54" y="982" width="11" height="11" rx="2" fill="#ebedf0"/><rect x="54" y="995" width="11" height="11" rx="2" fill="#ebedf0"/><rect x="54" y="1008" width="11" height="11" rx="2" fill="#ebedf0"/><rect x="67" y="930" width="11" height="11" rx="2" fill="#ebedf0"/><rect x="67" y="943" width="11" height="11" rx="2" fill="#ebedf0"/><rect x="67" y="956" width="11" height="11" rx="2" fill="#ebedf0"/><rect x="67" y="969" width="11" height="11" rx="2" fill="#ebedf0"/><rect x="67" y="982" width="11" height="11" rx="2" fill="#ebedf0"/><rect x="67" y="995" width="11" height="11" rx="2" fill="#ebedf0"/><rect x="67" y="1008" width="11" height="11" rx="2" fill="#ebedf0"/><rect x="80" y="930" width="11" height="11" rx="2" fill="#ebedf0"/><rect x="80" y="943" width="11" height="11" rx="2" fill="#ebedf0"/><rect x="80" y="956" width="11" height="11" rx="2" fill="#ebedf0"/><rect x="80" y="969" width="11" height="11" rx="2" fill="#ebedf0"/><rect x="80" y="982" width="11" height="11" rx="2" fill="#ebedf0"/><rect x="80" y="995" width="11" height="11" rx="2" fill="#ebedf0"/><rect x="80" y="1008" width="11" height="11" rx="2" fill="#ebedf0"/><rect x="93" y="930" width="11" height="11" rx="2" fill="#ebedf0"/><rect x="93" y="943" width="11" height="11" rx="2" fill="#ebedf0"/><rect x="93" y="956" width="11" height="11" rx="2" fill="#ebedf0"/><rect x="93" y="969" width="11" height="11" rx="2" fill="#ebedf0"/><rect x="93" y="982" width="11" height="11" rx="2" fill="#ebedf0"/><rect x="93" y="995" width="11" height="11" rx="2" fill="#ebedf0"/><rect x="93" y="1008" width="11" height="11" rx="2" fill="#ebedf0"/><rect x="106" y="930" width="11" height="11" rx="2" fill="#ebedf0"/><rect x="106" y="943" width="11" height="11" rx="2" fill="#ebedf0"/><rect x="106" y="956" width="11" height="11" rx="2" fill="#ebedf0"/><rect x="106" y="969" width="11" height="11" rx="2" fill="#ebedf0"/><rect x="106" y="982" width="11" height="11" rx="2" fill="#ebedf0"/><rect x="106" y="995" width="11" height="11" rx="2" fill="#ebedf0"/><rect x="106" y="1008" width="11" height="11" rx="2" fill="#ebedf0"/><rect x="119" y="930" width="11" height="11" rx="2" fill="#ebedf0"/><rect x="119" y="943" width="11" height="11" rx="2" fill="#ebedf0"/><rect x="119" y="956" width="11" height="11" rx="2" fill="#ebedf0"/><rect x="119" y="969" width="11" height="11" rx="2" fill="#ebedf0"/><rect x="119" y="982" width="11" height="11" rx="2" fill="#ebedf0"/><rect x="119" y="995" width="11" height="11" rx="2" fill="#ebedf0"/><rect x="119" y="1008" width="11" height="11" rx="2" fill="#ebedf0"/><rect x="132" y="930" width="11" height="11" rx="2" fill="#ebedf0"/><rect x="132" y="943" width="11" height="11" rx="2" fill="#ebedf0"/><rect x="132" y="956" width="11" height="11" rx="2" fill="#ebedf0"/><rect x="132" y="969" width="11" height="11" rx="2" fill="#ebedf0"/><rect x="132" y="982" width="11" height="11" rx="2" fill="#ebedf0"/><rect x="132" y="995" width="11" height="11" rx="2" fill="#ebedf0"/><rect x="132" y="1008" width="11" height="11" rx="2" fill="#ebedf0"/><rect x="145" y="930" width="11" height="11" rx="2" fill="#ebedf0"/><rect x="145" y="943" width="11" height="11" rx="2" fill="#ebedf0"/><rect x="145" y="956" width="11" height="11" rx="2" fill="#ebedf0"/><rect x="145" y="969" width="11" height="11" rx="2" fill="#ebedf0"/><rect x="145" y="982" width="11" height="11" rx="2" fill="#ebedf0"/><rect x="145" y="995" width="11" height="11" rx="2" fill="#ebedf0"/><rect x="145" y="1008" width="11" height="11" rx="2" fill="#ebedf0"/><rect x="158" y="930" width="11" height="11" rx="2" fill="#ebedf0"/><rect x="158" y="943" width="11" height="11" rx="2" fill="#ebedf0"/><rect x="158" y="956" width="11" height="11" rx="2" fill="#ebedf0"/><rect x="158" y="969" width="11" height="11" rx="2" fill="#ebedf0"/><rect x="158" y="982" width="11" height="11" rx="2" fill="#9be9a8"/><rect x="158" y="995" width="11" height="11" rx="2" fill="#ebedf0"/><rect x="158" y="1008" width="11" height="11" rx="2" fill="#ebedf0"/><rect x="171" y="930" width="11" height="11" rx="2" fill="#9be9a8"/><rect x="171" y="943" width="11" height="11" rx="2" fill="#ebedf0"/><rect x="171" y="956" width="11" height="11" rx="2" fill="#ebedf0"/><rect x="171" y="969" width="11" height="11" rx="2" fill="#ebedf0"/><rect x="171" y="982" width="11" height="11" rx="2" fill="#ebedf0"/><rect x="171" y="995" width="11" height="11" rx="2" fill="#ebedf0"/><rect x="171" y="1008" width="11" height="11" rx="2" fill="#ebedf0"/><rect x="184" y="930" width="11" height="11" rx="2" fill="#ebedf0"/><rect x="184" y="943" width="11" height="11" rx="2" fill="#ebedf0"/><rect x="184" y="956" width="11" height="11" rx="2" fill="#ebedf0"/><rect x="184" y="969" width="11" height="11" rx="2" fill="#ebedf0"/><rect x="184" y="982" width="11" height="11" rx="2" fill="#ebedf0"/><rect x="184" y="995" width="11" height="11" rx="2" fill="#ebedf0"/><rect x="184" y="1008" width="11" height="11" rx="2" fill="#ebedf0"/><rect x="197" y="930" width="11" height="11" rx="2" fill="#ebedf0"/><rect x="197" y="943" width="11" height="11" rx="2" fill="#ebedf0"/><rect x="197" y="956" width="11" height="11" rx="2" fill="#ebedf0"/><rect x="197" y="969" width="11" height="11" rx="2" fill="#ebedf0"/><rect x="197" y="982" width="11" height="11" rx="2" fill="#ebedf0"/><rect x="197" y="995" width="11" height="11" rx="2" fill="#ebedf0"/><rect x="197" y="1008" width="11" height="11" rx="2" fill="#ebedf0"/><rect x="210" y="930" width="11" height="11" rx="2" fill="#ebedf0"/><rect x="210" y="943" width="11" height="11" rx="2" fill="#ebedf0"/><rect x="210" y="956" width="11" height="11" rx="2" fill="#ebedf0"/><rect x="210" y="969" width="11" height="11" rx="2" fill="#ebedf0"/><rect x="210" y="982" width="11" height="11" rx="2" fill="#ebedf0"/><rect x="210" y="995" width="11" height="11" rx="2" fill="#ebedf0"/><rect x="210" y="1008" width="11" height="11" rx="2" fill="#ebedf0"/><rect x="223" y="930" width="11" height="11" rx="2" fill="#ebedf0"/><rect x="223" y="943" width="11" height="11" rx="2" fill="#ebedf0"/><rect x="223" y="956" width="11" height="11" rx="2" fill="#ebedf0"/><rect x="223" y="969" width="11" height="11" rx="2" fill="#ebedf0"/><rect x="223" y="982" width="11" height="11" rx="2" fill="#ebedf0"/><rect x="223" y="995" width="11" height="11" rx="2" fill="#ebedf0"/><rect x="223" y="1008" width="11" height="11" rx="2" fill="#ebedf0"/><rect x="236" y="930" width="11" height="11" rx="2" fill="#ebedf0"/><rect x="236" y="943" width="11" height="11" rx="2" fill="#ebedf0"/><rect x="236" y="956" width="11" height="11" rx="2" fill="#ebedf0"/><rect x="236" y="969" width="11" height="11" rx="2" fill="#ebedf0"/><rect x="236" y="982" width="11" height="11" rx="2" fill="#ebedf0"/><rect x="236" y="995" width="11" height="11" rx="2" fill="#ebedf0"/><rect x="236" y="1008" width="11" height="11" rx="2" fill="#9be9a8"/><rect x="249" y="930" width="11" height="11" rx="2" fill="#ebedf0"/><rect x="249" y="943" width="11" height="11" rx="2" fill="#ebedf0"/><rect x="249" y="956" width="11" height="11" rx="2" fill="#ebedf0"/><rect x="249" y="969" width="11" height="11" rx="2" fill="#9be9a8"/><rect x="249" y="982" width="11" height="11" rx="2" fill="#ebedf0"/><rect x="249" y="995" width="11" height="11" rx="2" fill="#ebedf0"/><rect x="249" y="1008" width="11" height="11" rx="2" fill="#ebedf0"/><rect x="262" y="930" width="11" height="11" rx="2" fill="#ebedf0"/><rect x="262" y="943" width="11" height="11" rx="2" fill="#ebedf0"/><rect x="262" y="956" width="11" height="11" rx="2" fill="#ebedf0"/><rect x="262" y="969" width="11" height="11" rx="2" fill="#ebedf0"/><rect x="262" y="982" width="11" height="11" rx="2" fill="#9be9a8"/><rect x="262" y="995" width="11" height="11" rx="2" fill="#ebedf0"/><rect x="262" y="1008" width="11" height="11" rx="2" fill="#ebedf0"/><rect x="275" y="930" width="11" height="11" rx="2" fill="#ebedf0"/><rect x="275" y="943" width="11" height="11" rx="2" fill="#ebedf0"/><rect x="275" y="956" width="11" height="11" rx="2" fill="#ebedf0"/><rect x="275" y="969" width="11" height="11" rx="2" fill="#ebedf0"/><rect x="275" y="982" width="11" height="11" rx="2" fill="#ebedf0"/><rect x="275" y="995" width="11" height="11" rx="2" fill="#ebedf0"/><rect x="275" y="1008" width="11" height="11" rx="2" fill="#ebedf0"/><rect x="288" y="930" width="11" height="11" rx="2" fill="#ebedf0"/><rect x="288" y="943" width="11" height="11" rx="2" fill="#ebedf0"/><rect x="288" y="956" width="11" height="11" rx="2" fill="#ebedf0"/><rect x="288" y="969" width="11" height="11" rx="2" fill="#ebedf0"/><rect x="288" y="982" width="11" height="11" rx="2" fill="#ebedf0"/><rect x="288" y="995" width="11" height="11" rx="2" fill="#ebedf0"/><rect x="288" y="1008" width="11" height="11" rx="2" fill="#ebedf0"/><rect x="301" y="930" width="11" height="11" rx="2" fill="#ebedf0"/><rect x="301" y="943" width="11" height="11" rx="2" fill="#9be9a8"/><rect x="301" y="956" width="11" height="11" rx="2" fill="#ebedf0"/><rect x="301" y="969" width="11" height="11" rx="2" fill="#ebedf0"/><rect x="301" y="982" width="11" height="11" rx="2" fill="#ebedf0"/><rect x="301" y="995" width="11" height="11" rx="2" fill="#ebedf0"/><rect x="301" y="1008" width="11" height="11" rx="2" fill="#ebedf0"/><rect x="314" y="930" width="11" height="11" rx="2" fill="#ebedf0"/><rect x="314" y="943" width="11" height="11" rx="2" fill="#ebedf0"/><rect x="314" y="956" width="11" height="11" rx="2" fill="#ebedf0"/><rect x="314" y="969" width="11" height="11" rx="2" fill="#ebedf0"/><rect x="314" y="982" width="11" height="11" rx="2" fill="#ebedf0"/><rect x="314" y="995" width="11" height="11" rx="2" fill="#ebedf0"/><rect x="314" y="1008" width="11" height="11" rx="2" fill="#ebedf0"/><rect x="327" y="930" width="11" height="11" rx="2" fill="#ebedf0"/><rect x="327" y="943" width="11" height="11" rx="2" fill="#ebedf0"/><rect x="327" y="956" width="11" height="11" rx="2" fill="#ebedf0"/><rect x="327" y="969" width="11" height="11" rx="2" fill="#ebedf0"/><rect x="327" y="982" width="11" height="11" rx="2" fill="#ebedf0"/><rect x="327" y="995" width="11" height="11" rx="2" fill="#ebedf0"/><rect x="327" y="1008" width="11" height="11" rx="2" fill="#ebedf0"/><rect x="340" y="930" width="11" height="11" rx="2" fill="#ebedf0"/><rect x="340" y="943" width="11" height="11" rx="2" fill="#ebedf0"/><rect x="340" y="956" width="11" height="11" rx="2" fill="#ebedf0"/><rect x="340" y="969" width="11" height="11" rx="2" fill="#ebedf0"/><rect x="340" y="982" width="11" height="11" rx="2" fill="#ebedf0"/><rect x="340" y="995" width="11" height="11" rx="2" fill="#ebedf0"/><rect x="340" y="1008" width="11" height="11" rx="2" fill="#ebedf0"/><rect x="353" y="930" width="11" height="11" rx="2" fill="#ebedf0"/><rect x="353" y="943" width="11" height="11" rx="2" fill="#ebedf0"/><rect x="353" y="956" width="11" height="11" rx="2" fill="#ebedf0"/><rect x="353" y="969" width="11" height="11" rx="2" fill="#ebedf0"/><rect x="353" y="982" width="11" height="11" rx="2" fill="#ebedf0"/><rect x="353" y="995" width="11" height="11" rx="2" fill="#ebedf0"/><rect x="353" y="1008" width="11" height="11" rx="2" fill="#ebedf0"/><rect x="366" y="930" width="11" height="11" rx="2" fill="#ebedf0"/><rect x="366" y="943" width="11" height="11" rx="2" fill="#ebedf0"/><rect x="366" y="956" width="11" height="11" rx="2" fill="#ebedf0"/><rect x="366" y="969" width="11" height="11" rx="2" fill="#ebedf0"/><rect x="366" y="982" width="11" height="11" rx="2" fill="#ebedf0"/><rect x="366" y="995" width="11" height="11" rx="2" fill="#ebedf0"/><rect x="366" y="1008" width="11" height="11" rx="2" fill="#ebedf0"/><rect x="379" y="930" width="11" height="11" rx="2" fill="#ebedf0"/><rect x="379" y="943" width="11" height="11" rx="2" fill="#ebedf0"/><rect x="379" y="956" width="11" height="11" rx="2" fill="#ebedf0"/><rect x="379" y="969" width="11" height="11" rx="2" fill="#ebedf0"/><rect x="379" y="982" width="11" height="11" rx="2" fill="#9be9a8"/><rect x="379" y="995" width="11" height="11" rx="2" fill="#9be9a8"/><rect x="379" y="1008" width="11" height="11" rx="2" fill="#9be9a8"/><rect x="392" y="930" width="11" height="11" rx="2" fill="#9be9a8"/><rect x="392" y="943" width="11" height="11" rx="2" fill="#9be9a8"/><rect x="392" y="956" width="11" height="11" rx="2" fill="#ebedf0"/><rect x="392" y="969" width="11" height="11" rx="2" fill="#ebedf0"/><rect x="392" y="982" width="11" height="11" rx="2" fill="#ebedf0"/><rect x="392" y="995" width="11" height="11" rx="2" fill="#ebedf0"/><rect x="392" y="1008" width="11" height="11" rx="2" fill="#ebedf0"/><rect x="405" y="930" width="11" height="11" rx="2" fill="#ebedf0"/><rect x="405" y="943" width="11" height="11" rx="2" fill="#ebedf0"/><rect x="405" y="956" width="11" height="11" rx="2" fill="#ebedf0"/><rect x="405" y="969" width="11" height="11" rx="2" fill="#ebedf0"/><rect x="405" y="982" width="11" height="11" rx="2" fill="#ebedf0"/><rect x="405" y="995" width="11" height="11" rx="2" fill="#ebedf0"/><rect x="405" y="1008" width="11" height="11" rx="2" fill="#ebedf0"/><rect x="418" y="930" width="11" height="11" rx="2" fill="#ebedf0"/><rect x="418" y="943" width="11" height="11" rx="2" fill="#ebedf0"/><rect x="418" y="956" width="11" height="11" rx="2" fill="#ebedf0"/><rect x="418" y="969" width="11" height="11" rx="2" fill="#ebedf0"/><rect x="418" y="982" width="11" height="11" rx="2" fill="#ebedf0"/><rect x="418" y="995" width="11" height="11" rx="2" fill="#ebedf0"/><rect x="418" y="1008" width="11" height="11" rx="2" fill="#ebedf0"/><rect x="431" y="930" width="11" height="11" rx="2" fill="#ebedf0"/><rect x="431" y="943" width="11" height="11" rx="2" fill="#ebedf0"/><rect x="431" y="956" width="11" height="11" rx="2" fill="#ebedf0"/><rect x="431" y="969" width="11" height="11" rx="2" fill="#ebedf0"/><rect x="431" y="982" width="11" height="11" rx="2" fill="#ebedf0"/><rect x="431" y="995" width="11" height="11" rx="2" fill="#ebedf0"/><rect x="431" y="1008" width="11" height="11" rx="2" fill="#ebedf0"/><rect x="444" y="930" width="11" height="11" rx="2" fill="#ebedf0"/><rect x="444" y="943" width="11" height="11" rx="2" fill="#ebedf0"/><rect x="444" y="956" width="11" height="11" rx="2" fill="#ebedf0"/><rect x="444" y="969" width="11" height="11" rx="2" fill="#ebedf0"/><rect x="444" y="982" width="11" height="11" rx="2" fill="#ebedf0"/><rect x="444" y="995" width="11" height="11" rx="2" fill="#ebedf0"/><rect x="444" y="1008" width="11" height="11" rx="2" fill="#ebedf0"/><rect x="457" y="930" width="11" height="11" rx="2" fill="#ebedf0"/><rect x="457" y="943" width="11" height="11" rx="2" fill="#ebedf0"/><rect x="457" y="956" width="11" height="11" rx="2" fill="#ebedf0"/><rect x="457" y="969" width="11" height="11" rx="2" fill="#ebedf0"/><rect x="457" y="982" width="11" height="11" rx="2" fill="#ebedf0"/><rect x="457" y="995" width="11" height="11" rx="2" fill="#ebedf0"/><rect x="457" y="1008" width="11" height="11" rx="2" fill="#9be9a8"/><rect x="470" y="930" width="11" height="11" rx="2" fill="#ebedf0"/><rect x="470" y="943" width="11" height="11" rx="2" fill="#ebedf0"/><rect x="470" y="956" width="11" height="11" rx="2" fill="#ebedf0"/><rect x="470" y="969" width="11" height="11" rx="2" fill="#ebedf0"/><rect x="470" y="982" width="11" height="11" rx="2" fill="#ebedf0"/><rect x="470" y="995" width="11" height="11" rx="2" fill="#ebedf0"/><rect x="470" y="1008" width="11" height="11" rx="2" fill="#ebedf0"/><rect x="483" y="930" width="11" height="11" rx="2" fill="#ebedf0"/><rect x="483" y="943" width="11" height="11" rx="2" fill="#ebedf0"/><rect x="483" y="956" width="11" height="11" rx="2" fill="#ebedf0"/><rect x="483" y="969" width="11" height="11" rx="2" fill="#ebedf0"/><rect x="483" y="982" width="11" height="11" rx="2" fill="#ebedf0"/><rect x="483" y="995" width="11" height="11" rx="2" fill="#9be9a8"/><rect x="483" y="1008" width="11" height="11" rx="2" fill="#9be9a8"/><rect x="496" y="930" width="11" height="11" rx="2" fill="#9be9a8"/><rect x="496" y="943" width="11" height="11" rx="2" fill="#9be9a8"/><rect x="496" y="956" width="11" height="11" rx="2" fill="#ebedf0"/><rect x="496" y="969" width="11" height="11" rx="2" fill="#9be9a8"/><rect x="496" y="982" width="11" height="11" rx="2" fill="#ebedf0"/><rect x="496" y="995" width="11" height="11" rx="2" fill="#ebedf0"/><rect x="496" y="1008" width="11" height="11" rx="2" fill="#ebedf0"/><rect x="509" y="930" width="11" height="11" rx="2" fill="#ebedf0"/><rect x="509" y="943" width="11" height="11" rx="2" fill="#ebedf0"/><rect x="509" y="956" width="11" height="11" rx="2" fill="#ebedf0"/><rect x="509" y="969" width="11" height="11" rx="2" fill="#ebedf0"/><rect x="509" y="982" width="11" height="11" rx="2" fill="#ebedf0"/><rect x="509" y="995" width="11" height="11" rx="2" fill="#ebedf0"/><rect x="509" y="1008" width="11" height="11" rx="2" fill="#ebedf0"/><rect x="522" y="930" width="11" height="11" rx="2" fill="#ebedf0"/><rect x="522" y="943" width="11" height="11" rx="2" fill="#9be9a8"/><rect x="522" y="956" width="11" height="11" rx="2" fill="#9be9a8"/><rect x="522" y="969" width="11" height="11" rx="2" fill="#9be9a8"/><rect x="522" y="982" width="11" height="11" rx="2" fill="#9be9a8"/><rect x="522" y="995" width="11" height="11" rx="2" fill="#9be9a8"/><rect x="522" y="1008" width="11" height="11" rx="2" fill="#ebedf0"/><rect x="535" y="930" width="11" height="11" rx="2" fill="#ebedf0"/><rect x="535" y="943" width="11" height="11" rx="2" fill="#ebedf0"/><rect x="535" y="956" width="11" height="11" rx="2" fill="#ebedf0"/><rect x="535" y="969" width="11" height="11" rx="2" fill="#9be9a8"/><rect x="535" y="982" width="11" height="11" rx="2" fill="#ebedf0"/><rect x="535" y="995" width="11" height="11" rx="2" fill="#ebedf0"/><rect x="535" y="1008" width="11" height="11" rx="2" fill="#ebedf0"/><rect x="548" y="930" width="11" height="11" rx="2" fill="#ebedf0"/><rect x="548" y="943" width="11" height="11" rx="2" fill="#9be9a8"/><rect x="548" y="956" width="11" height="11" rx="2" fill="#ebedf0"/><rect x="548" y="969" width="11" height="11" rx="2" fill="#ebedf0"/><rect x="548" y="982" width="11" height="11" rx="2" fill="#9be9a8"/><rect x="548" y="995" width="11" height="11" rx="2" fill="#ebedf0"/><rect x="548" y="1008" width="11" height="11" rx="2" fill="#ebedf0"/><rect x="561" y="930" width="11" height="11" rx="2" fill="#ebedf0"/><rect x="561" y="943" width="11" height="11" rx="2" fill="#ebedf0"/><rect x="561" y="956" width="11" height="11" rx="2" fill="#ebedf0"/><rect x="561" y="969" width="11" height="11" rx="2" fill="#9be9a8"/><rect x="561" y="982" width="11" height="11" rx="2" fill="#ebedf0"/><rect x="561" y="995" width="11" height="11" rx="2" fill="#ebedf0"/><rect x="561" y="1008" width="11" height="11" rx="2" fill="#ebedf0"/><rect x="574" y="930" width="11" height="11" rx="2" fill="#ebedf0"/><rect x="574" y="943" width="11" height="11" rx="2" fill="#ebedf0"/><rect x="574" y="956" width="11" height="11" rx="2" fill="#ebedf0"/><rect x="574" y="969" width="11" height="11" rx="2" fill="#ebedf0"/><rect x="574" y="982" width="11" height="11" rx="2" fill="#ebedf0"/><rect x="574" y="995" width="11" height="11" rx="2" fill="#ebedf0"/><rect x="574" y="1008" width="11" height="11" rx="2" fill="#ebedf0"/><rect x="587" y="930" width="11" height="11" rx="2" fill="#ebedf0"/><rect x="587" y="943" width="11" height="11" rx="2" fill="#ebedf0"/><rect x="587" y="956" width="11" height="11" rx="2" fill="#ebedf0"/><rect x="587" y="969" width="11" height="11" rx="2" fill="#ebedf0"/><rect x="587" y="982" width="11" height="11" rx="2" fill="#ebedf0"/><rect x="587" y="995" width="11" height="11" rx="2" fill="#ebedf0"/><rect x="587" y="1008" width="11" height="11" rx="2" fill="#ebedf0"/><rect x="600" y="930" width="11" height="11" rx="2" fill="#ebedf0"/><rect x="600" y="943" width="11" height="11" rx="2" fill="#ebedf0"/><rect x="600" y="956" width="11" height="11" rx="2" fill="#9be9a8"/><rect x="600" y="969" width="11" height="11" rx="2" fill="#9be9a8"/><rect x="600" y="982" width="11" height="11" rx="2" fill="#9be9a8"/><rect x="600" y="995" width="11" height="11" rx="2" fill="#9be9a8"/><rect x="600" y="1008" width="11" height="11" rx="2" fill="#ebedf0"/><rect x="613" y="930" width="11" height="11" rx="2" fill="#ebedf0"/><rect x="613" y="943" width="11" height="11" rx="2" fill="#ebedf0"/><rect x="613" y="956" width="11" height="11" rx="2" fill="#9be9a8"/><rect x="613" y="969" width="11" height="11" rx="2" fill="#9be9a8"/><rect x="613" y="982" width="11" height="11" rx="2" fill="#9be9a8"/><rect x="613" y="995" width="11" height="11" rx="2" fill="#ebedf0"/><rect x="613" y="1008" width="11" height="11" rx="2" fill="#9be9a8"/><rect x="626" y="930" width="11" height="11" rx="2" fill="#ebedf0"/><rect x="626" y="943" width="11" height="11" rx="2" fill="#9be9a8"/><rect x="626" y="956" width="11" height="11" rx="2" fill="#9be9a8"/><rect x="626" y="969" width="11" height="11" rx="2" fill="#9be9a8"/><rect x="626" y="982" width="11" height="11" rx="2" fill="#9be9a8"/><rect x="626" y="995" width="11" height="11" rx="2" fill="#9be9a8"/><rect x="626" y="1008" width="11" height="11" rx="2" fill="#9be9a8"/><rect x="639" y="930" width="11" height="11" rx="2" fill="#ebedf0"/><rect x="639" y="943" width="11" height="11" rx="2" fill="#9be9a8"/><rect x="639" y="956" width="11" height="11" rx="2" fill="#9be9a8"/><rect x="639" y="969" width="11" height="11" rx="2" fill="#9be9a8"/><rect x="639" y="982" width="11" height="11" rx="2" fill="#9be9a8"/><rect x="639" y="995" width="11" height="11" rx="2" fill="#ebedf0"/><rect x="639" y="1008" width="11" height="11" rx="2" fill="#216e39"/><rect x="652" y="930" width="11" height="11" rx="2" fill="#9be9a8"/><rect x="652" y="943" width="11" height="11" rx="2" fill="#9be9a8"/><rect x="652" y="956" width="11" height="11" rx="2" fill="#9be9a8"/><rect x="652" y="969" width="11" height="11" rx="2" fill="#9be9a8"/><rect x="652" y="982" width="11" height="11" rx="2" fill="#9be9a8"/><rect x="652" y="995" width="11" height="11" rx="2" fill="#9be9a8"/><rect x="652" y="1008" width="11" height="11" rx="2" fill="#9be9a8"/><rect x="665" y="930" width="11" height="11" rx="2" fill="#216e39"/><rect x="665" y="943" width="11" height="11" rx="2" fill="#9be9a8"/><rect x="665" y="956" width="11" height="11" rx="2" fill="#40c463"/><rect x="665" y="969" width="11" height="11" rx="2" fill="#216e39"/><rect x="665" y="982" width="11" height="11" rx="2" fill="#9be9a8"/><rect x="665" y="995" width="11" height="11" rx="2" fill="#40c463"/><rect x="665" y="1008" width="11" height="11" rx="2" fill="#9be9a8"/><rect x="678" y="930" width="11" height="11" rx="2" fill="#ebedf0"/><rect x="678" y="943" width="11" height="11" rx="2" fill="#ebedf0"/><rect x="678" y="956" width="11" height="11" rx="2" fill="#9be9a8"/><rect x="678" y="969" width="11" height="11" rx="2" fill="#9be9a8"/><rect x="678" y="982" width="11" height="11" rx="2" fill="#ebedf0"/><rect x="678" y="995" width="11" height="11" rx="2" fill="#ebedf0"/><rect x="678" y="1008" width="11" height="11" rx="2" fill="#40c463"/><rect x="691" y="930" width="11" height="11" rx="2" fill="#9be9a8"/><rect x="691" y="943" width="11" height="11" rx="2" fill="#9be9a8"/><rect x="691" y="956" width="11" height="11" rx="2" fill="#30a14e"/><rect x="691" y="969" width="11" height="11" rx="2" fill="#9be9a8"/><rect x="691" y="982" width="11" height="11" rx="2" fill="#40c463"/><rect x="691" y="995" width="11" height="11" rx="2" fill="#9be9a8"/><rect x="691" y="1008" width="11" height="11" rx="2" fill="#9be9a8"/><rect x="704" y="930" width="11" height="11" rx="2" fill="#40c463"/><rect x="704" y="943" width="11" height="11" rx="2" fill="#9be9a8"/><rect x="704" y="956" width="11" height="11" rx="2" fill="#30a14e"/><rect x="704" y="969" width="11" height="11" rx="2" fill="#9be9a8"/><rect x="704" y="982" width="11" height="11" rx="2" fill="#ebedf0"/><rect x="704" y="995" width="11" height="11" rx="2" fill="#9be9a8"/><rect x="704" y="1008" width="11" height="11" rx="2" fill="#9be9a8"/><rect x="717" y="930" width="11" height="11" rx="2" fill="#9be9a8"/><rect x="717" y="943" width="11" height="11" rx="2" fill="#40c463"/><rect x="717" y="956" width="11" height="11" rx="2" fill="#40c463"/><rect x="717" y="969" width="11" height="11" rx="2" fill="#ebedf0"/><rect x="717" y="982" width="11" height="11" rx="2" fill="#9be9a8"/><rect x="717" y="995" width="11" height="11" rx="2" fill="#9be9a8"/><rect x="717" y="1008" width="11" height="11" rx="2" fill="#216e39"/><rect x="730" y="930" width="11" height="11" rx="2" fill="#216e39"/><rect x="730" y="943" width="11" height="11" rx="2" fill="#9be9a8"/><text x="24" y="1067" class="t t-h">OPEN SOURCE CONTRIBUTIONS</text><text x="24" y="1083" class="t t-sub">External repositories contributed to (all time)</text><rect x="24" y="1093" width="760" height="44" rx="6" fill="#161b22" stroke="#30363d" stroke-width="1"/><rect x="24" y="1093" width="4" height="44" rx="2" fill="#58a6ff"/><text x="40" y="1111" class="t t-card-title">MathisWellmann/gym-rs</text><text x="40" y="1127" class="t t-card-detail">★ 127 · Rust</text><rect x="24" y="1145" width="760" height="44" rx="6" fill="#161b22" stroke="#30363d" stroke-width="1"/><rect x="24" y="1145" width="4" height="44" rx="2" fill="#3fb950"/><text x="40" y="1163" class="t t-card-title">getzep/graphiti</text><text x="40" y="1179" class="t t-card-detail">★ 23,787 · Python</text></svg>