<svg xmlns="http://www.w3.org/2000/svg" width="808" height="1811" viewBox="0 0 808 1811"><defs><style>
  .t { font-family: -apple-system,BlinkMacSystemFont,Segoe UI,Helvetica,Arial,sans-serif; }
  .t-h { font-size: 13px; fill: #c9d1d9; letter-spacing: 1.5px; font-weight: 600; }
  .t-sub { font-size: 11px; fill: #6e7681; }
  .t-label { font-size: 12px; fill: #8b949e; }
  .t-value { font-size: 11px; fill: #6e7681; }
  .t-subhdr { font-size: 11px; fill: #8b949e; letter-spacing: 1px; font-weight: 600; }
  .t-stat-label { font-size: 10px; fill: #8b949e; font-weight: 600; }
  .t-stat-value { font-size: 22px; font-weight: 700; }
  .t-card-title { font-size: 12px; fill: #58a6ff; font-weight: 700; }
  .t-card-detail { font-size: 11px; fill: #8b949e; }
  .t-pill { font-size: 11px; font-weight: 600; }
  .t-bullet { font-size: 12px; fill: #c9d1d9; }
</style></defs><rect width="808" height="1811" rx="12" fill="#0d1117"/><text x="24" y="40" class="t t-h">AT A GLANCE</text><text x="24" y="56" class="t t-sub">Contribution activity over the past year</text><rect x="24" y="66" width="140" height="72" rx="8" fill="#161b22" stroke="#30363d" stroke-width="1"/><circle cx="38" cy="82" r="4" fill="#58a6ff"/><text x="48" y="86" class="t t-stat-label">COMMITS</text><text x="94" y="118" fill="#58a6ff" class="t t-stat-value" text-anchor="middle">1,135</text><rect x="179" y="66" width="140" height="72" rx="8" fill="#161b22" stroke="#30363d" stroke-width="1"/><circle cx="193" cy="82" r="4" fill="#3fb950"/><text x="203" y="86" class="t t-stat-label">PRS</text><text x="249" y="118" fill="#3fb950" class="t t-stat-value" text-anchor="middle">4</text><rect x="334" y="66" width="140" height="72" rx="8" fill="#161b22" stroke="#30363d" stroke-width="1"/><circle cx="348" cy="82" r="4" fill="#d29922"/><text x="358" y="86" class="t t-stat-label">REVIEWS</text><text x="404" y="118" fill="#d29922" class="t t-stat-value" text-anchor="middle">5</text><rect x="489" y="66" width="140" height="72" rx="8" fill="#161b22" stroke="#30363d" stroke-width="1"/><circle cx="503" cy="82" r="4" fill="#bc8cff"/><text x="513" y="86" class="t t-stat-label">REPOS</text><text x="559" y="118" fill="#bc8cff" class="t t-stat-value" text-anchor="middle">26</text><text x="24" y="184" class="t t-h">LANGUAGES</text><text x="24" y="200" class="t t-sub">By bytes of code across all public repos</text><circle cx="114" cy="300" r="70" fill="none" stroke="#00ADD8" stroke-width="28" stroke-dasharray="108.63627396113505 331.186697541436" stroke-dashoffset="0" transform="rotate(-90 114 300)" opacity="0.85"/><circle cx="114" cy="300" r="70" fill="none" stroke="#3178c6" stroke-width="28" stroke-dasharray="100.2796375025862 339.54333399998484" stroke-dashoffset="-108.63627396113505" transform="rotate(-90 114 300)" opacity="0.85"/><circle cx="114" cy="300" r="70" fill="none" stroke="#dea584" stroke-width="28" stroke-dasharray="99.83981453108362 339.9831569714874" stroke-dashoffset="-208.91591146372124" transform="rotate(-90 114 300)" opacity="0.85"/><circle cx="114" cy="300" r="70" fill="none" stroke="#b07219" stroke-width="28" stroke-dasharray="31.667253948185117 408.1557175543859" stroke-dashoffset="-308.75572599480483" transform="rotate(-90 114 300)" opacity="0.85"/><circle cx="114" cy="300" r="70" fill="none" stroke="#3D6117" stroke-width="28" stroke-dasharray="17.59291886010284 422.2300526424682" stroke-dashoffset="-340.42297994298997" transform="rotate(-90 114 300)" opacity="0.85"/><circle cx="114" cy="300" r="70" fill="none" stroke="#3572A5" stroke-width="28" stroke-dasharray="16.713272917097697 423.1096985854733" stroke-dashoffset="-358.0158988030928" transform="rotate(-90 114 300)" opacity="0.85"/><circle cx="114" cy="300" r="70" fill="none" stroke="#89e051" stroke-width="28" stroke-dasharray="14.953981031087416 424.8689904714836" stroke-dashoffset="-374.7291717201905" transform="rotate(-90 114 300)" opacity="0.85"/><circle cx="114" cy="300" r="70" fill="none" stroke="#f1e05a" stroke-width="28" stroke-dasharray="13.634512116579701 426.18845938599134" stroke-dashoffset="-389.68315275127793" transform="rotate(-90 114 300)" opacity="0.85"/><circle cx="114" cy="300" r="70" fill="none" stroke="#a52a22" stroke-width="28" stroke-dasharray="7.037167544041137 432.78580395852987" stroke-dashoffset="-403.3176648678576" transform="rotate(-90 114 300)" opacity="0.85"/><circle cx="114" cy="300" r="70" fill="none" stroke="#e34c26" stroke-width="28" stroke-dasharray="5.277875658030853 434.5450958445402" stroke-dashoffset="-410.35483241189877" transform="rotate(-90 114 300)" opacity="0.85"/><text x="114" y="305" class="t" fill="#c9d1d9" font-size="14" font-weight="700" text-anchor="middle">10</text><text x="114" y="320" class="t" fill="#6e7681" font-size="10" text-anchor="middle">languages</text><rect x="244" y="220" width="12" height="12" rx="2" fill="#00ADD8" opacity="0.85"/><text x="264" y="230" class="t t-label">Go</text><text x="444" y="230" class="t t-value" text-anchor="end">24.7%</text><rect x="244" y="244" width="12" height="12" rx="2" fill="#3178c6" opacity="0.85"/><text x="264" y="254" class="t t-label">TypeScript</text><text x="444" y="254" class="t t-value" text-anchor="end">22.8%</text><rect x="244" y="268" width="12" height="12" rx="2" fill="#dea584" opacity="0.85"/><text x="264" y="278" class="t t-label">Rust</text><text x="444" y="278" class="t t-value" text-anchor="end">22.7%</text><rect x="244" y="292" width="12" height="12" rx="2" fill="#b07219" opacity="0.85"/><text x="264" y="302" class="t t-label">Java</text><text x="444" y="302" class="t t-value" text-anchor="end">7.2%</text><rect x="244" y="316" width="12" height="12" rx="2" fill="#3D6117" opacity="0.85"/><text x="264" y="326" class="t t-label">TeX</text><text x="444" y="326" class="t t-value" text-anchor="end">4.0%</text><rect x="244" y="340" width="12" height="12" rx="2" fill="#3572A5" opacity="0.85"/><text x="264" y="350" class="t t-label">Python</text><text x="444" y="350" class="t t-value" text-anchor="end">3.8%</text><rect x="244" y="364" width="12" height="12" rx="2" fill="#89e051" opacity="0.85"/><text x="264" y="374" class="t t-label">Shell</text><text x="444" y="374" class="t t-value" text-anchor="end">3.4%</text><rect x="244" y="388" width="12" height="12" rx="2" fill="#f1e05a" opacity="0.85"/><text x="264" y="398" class="t t-label">JavaScript</text><text x="444" y="398" class="t t-value" text-anchor="end">3.1%</text><rect x="244" y="412" width="12" height="12" rx="2" fill="#a52a22" opacity="0.85"/><text x="264" y="422" class="t t-label">Jinja</text><text x="444" y="422" class="t t-value" text-anchor="end">1.6%</text><rect x="244" y="436" width="12" height="12" rx="2" fill="#e34c26" opacity="0.85"/><text x="264" y="446" class="t t-label">HTML</text><text x="444" y="446" class="t t-value" text-anchor="end">1.2%</text><text x="24" y="516" class="t t-h">EXPERTISE</text><text x="24" y="532" class="t t-sub">Curated from dependencies, topics, and languages via AI analysis</text><text x="24" y="556" class="t t-subhdr">MACHINE LEARNING &amp; AI</text><rect x="24" y="568" width="700" height="18" rx="4" fill="#58a6ff" fill-opacity="0.15"/><rect x="24" y="568" width="630" height="18" rx="4" fill="#58a6ff" fill-opacity="0.85"/><text x="734" y="581" class="t t-value">90%</text><text x="24" y="602" class="t t-card-detail">PyTorch · PyTorch Lightning · TensorFlow · Transformers · Scikit-learn · Retrieval-Augmented Generatio…</text><text x="24" y="630" class="t t-subhdr">BACKEND &amp; APIS</text><rect x="24" y="642" width="700" height="18" rx="4" fill="#3fb950" fill-opacity="0.15"/><rect x="24" y="642" width="595" height="18" rx="4" fill="#3fb950" fill-opacity="0.85"/><text x="734" y="655" class="t t-value">85%</text><text x="24" y="676" class="t t-card-detail">Go · Rust · FastAPI · OpenAPI · SurrealDB · Graph-enhanced Retrieval</text><text x="24" y="704" class="t t-subhdr">WEB DEVELOPMENT &amp; FRONTEND</text><rect x="24" y="716" width="700" height="18" rx="4" fill="#d29922" fill-opacity="0.15"/><rect x="24" y="716" width="560" height="18" rx="4" fill="#d29922" fill-opacity="0.85"/><text x="734" y="729" class="t t-value">80%</text><text x="24" y="750" class="t t-card-detail">TypeScript · React · Tailwind CSS · Astro · MDX</text><text x="24" y="778" class="t t-subhdr">DEVOPS &amp; AUTOMATION</text><rect x="24" y="790" width="700" height="18" rx="4" fill="#f85149" fill-opacity="0.15"/><rect x="24" y="790" width="525" height="18" rx="4" fill="#f85149" fill-opacity="0.85"/><text x="734" y="803" class="t t-value">75%</text><text x="24" y="824" class="t t-card-detail">GitHub Actions · CI/CD · Chezmoi · Nix · Docker</text><text x="24" y="852" class="t t-subhdr">DESKTOP &amp; CROSS-PLATFORM APPS</text><rect x="24" y="864" width="700" height="18" rx="4" fill="#bc8cff" fill-opacity="0.15"/><rect x="24" y="864" width="489.99999999999994" height="18" rx="4" fill="#bc8cff" fill-opacity="0.85"/><text x="734" y="877" class="t t-value">70%</text><text x="24" y="898" class="t t-card-detail">JavaFX · Wails · Rust · Go</text><text x="24" y="926" class="t t-subhdr">DATA SCIENCE &amp; DOCUMENT PROCESSING</text><rect x="24" y="938" width="700" height="18" rx="4" fill="#39d2c0" fill-opacity="0.15"/><rect x="24" y="938" width="455" height="18" rx="4" fill="#39d2c0" fill-opacity="0.85"/><text x="734" y="951" class="t t-value">65%</text><text x="24" y="972" class="t t-card-detail">Pandas · NumPy · Matplotlib · DOCX · PDF Generation</text><text x="24" y="1032" class="t t-h">SIGNATURE PROJECTS</text><text x="24" y="1048" class="t t-sub">Top projects by technical complexity</text><rect x="24" y="1058" width="760" height="52" rx="6" fill="#161b22" stroke="#30363d" stroke-width="1"/><rect x="24" y="1058" width="4" height="52" rx="2" fill="#58a6ff"/><text x="40" y="1076" class="t t-card-title">resume-generator</text><text x="768" y="1076" class="t t-value" text-anchor="end">★ 10</text><text x="40" y="1092" class="t t-card-detail">A data-driven CLI tool that converts YAML/JSON/TOML resume data into polished PDFs, DOCX,…</text><rect x="24" y="1120" width="760" height="52" rx="6" fill="#161b22" stroke="#30363d" stroke-width="1"/><rect x="24" y="1120" width="4" height="52" rx="2" fill="#3fb950"/><text x="40" y="1138" class="t t-card-title">lepus-classifier</text><text x="768" y="1138" class="t t-value" text-anchor="end">★ 2</text><text x="40" y="1154" class="t t-card-detail">A CNN research project exploring optimal image classification architectures for small dat…</text><rect x="24" y="1182" width="760" height="52" rx="6" fill="#161b22" stroke="#30363d" stroke-width="1"/><rect x="24" y="1182" width="4" height="52" rx="2" fill="#d29922"/><text x="40" y="1200" class="t t-card-title">linear-gp</text><text x="768" y="1200" class="t t-value" text-anchor="end">★ 2</text><text x="40" y="1216" class="t t-card-detail">A production-grade Rust framework for Linear Genetic Programming research, featuring modu…</text><rect x="24" y="1244" width="760" height="52" rx="6" fill="#161b22" stroke="#30363d" stroke-width="1"/><rect x="24" y="1244" width="4" height="52" rx="2" fill="#f85149"/><text x="40" y="1262" class="t t-card-title">zigbee-rest</text><text x="768" y="1262" class="t t-value" text-anchor="end">★ 0</text><text x="40" y="1278" class="t t-card-detail">Local-first, privacy-focused smart home control system. Manage Zigbee devices through a R…</text><rect x="24" y="1306" width="760" height="52" rx="6" fill="#161b22" stroke="#30363d" stroke-width="1"/><rect x="24" y="1306" width="4" height="52" rx="2" fill="#bc8cff"/><text x="40" y="1324" class="t t-card-title">urmzd.com</text><text x="768" y="1324" class="t t-value" text-anchor="end">★ 0</text><text x="40" y="1340" class="t t-card-detail">Personal website and blog built with Astro, TypeScript, and MDX—featuring fast static sit…</text><text x="24" y="1404" class="t t-h">CONTRIBUTION CALENDAR</text><text x="24" y="1420" class="t t-sub">1,238 contributions in the last year</text><text x="54" y="1441" class="t t-value">Mar</text><text x="93" y="1441" class="t t-value">Apr</text><text x="145" y="1441" class="t t-value">May</text><text x="197" y="1441" class="t t-value">Jun</text><text x="262" y="1441" class="t t-value">Jul</text><text x="314" y="1441" class="t t-value">Aug</text><text x="379" y="1441" class="t t-value">Sep</text><text x="431" y="1441" class="t t-value">Oct</text><text x="483" y="1441" class="t t-value">Nov</text><text x="548" y="1441" class="t t-value">Dec</text><text x="600" y="1441" class="t t-value">Jan</text><text x="652" y="1441" class="t t-value">Feb</text><text x="704" y="1441" class="t t-value">Mar</text><text x="24" y="1469" class="t t-value">Mon</text><text x="24" y="1495" class="t t-value">Wed</text><text x="24" y="1521" class="t t-value">Fri</text><rect x="54" y="1446" width="11" height="11" rx="2" fill="#ebedf0"/><rect x="54" y="1459" width="11" height="11" rx="2" fill="#ebedf0"/><rect x="54" y="1472" width="11" height="11" rx="2" fill="#ebedf0"/><rect x="54" y="1485" width="11" height="11" rx="2" fill="#ebedf0"/><rect x="54" y="1498" width="11" height="11" rx="2" fill="#ebedf0"/><rect x="67" y="1446" width="11" height="11" rx="2" fill="#ebedf0"/><rect x="67" y="1459" width="11" height="11" rx="2" fill="#ebedf0"/><rect x="67" y="1472" width="11" height="11" rx="2" fill="#ebedf0"/><rect x="67" y="1485" width="11" height="11" rx="2" fill="#ebedf0"/><rect x="67" y="1498" width="11" height="11" rx="2" fill="#ebedf0"/><rect x="67" y="1511" width="11" height="11" rx="2" fill="#ebedf0"/><rect x="67" y="1524" width="11" height="11" rx="2" fill="#ebedf0"/><rect x="80" y="1446" width="11" height="11" rx="2" fill="#ebedf0"/><rect x="80" y="1459" width="11" height="11" rx="2" fill="#ebedf0"/><rect x="80" y="1472" width="11" height="11" rx="2" fill="#ebedf0"/><rect x="80" y="1485" width="11" height="11" rx="2" fill="#ebedf0"/><rect x="80" y="1498" width="11" height="11" rx="2" fill="#ebedf0"/><rect x="80" y="1511" width="11" height="11" rx="2" fill="#ebedf0"/><rect x="80" y="1524" width="11" height="11" rx="2" fill="#ebedf0"/><rect x="93" y="1446" width="11" height="11" rx="2" fill="#ebedf0"/><rect x="93" y="1459" width="11" height="11" rx="2" fill="#ebedf0"/><rect x="93" y="1472" width="11" height="11" rx="2" fill="#ebedf0"/><rect x="93" y="1485" width="11" height="11" rx="2" fill="#ebedf0"/><rect x="93" y="1498" width="11" height="11" rx="2" fill="#ebedf0"/><rect x="93" y="1511" width="11" height="11" rx="2" fill="#ebedf0"/><rect x="93" y="1524" width="11" height="11" rx="2" fill="#ebedf0"/><rect x="106" y="1446" width="11" height="11" rx="2" fill="#ebedf0"/><rect x="106" y="1459" width="11" height="11" rx="2" fill="#ebedf0"/><rect x="106" y="1472" width="11" height="11" rx="2" fill="#ebedf0"/><rect x="106" y="1485" width="11" height="11" rx="2" fill="#ebedf0"/><rect x="106" y="1498" width="11" height="11" rx="2" fill="#ebedf0"/><rect x="106" y="1511" width="11" height="11" rx="2" fill="#ebedf0"/><rect x="106" y="1524" width="11" height="11" rx="2" fill="#ebedf0"/><rect x="119" y="1446" width="11" height="11" rx="2" fill="#ebedf0"/><rect x="119" y="1459" width="11" height="11" rx="2" fill="#ebedf0"/><rect x="119" y="1472" width="11" height="11" rx="2" fill="#ebedf0"/><rect x="119" y="1485" width="11" height="11" rx="2" fill="#ebedf0"/><rect x="119" y="1498" width="11" height="11" rx="2" fill="#ebedf0"/><rect x="119" y="1511" width="11" height="11" rx="2" fill="#ebedf0"/><rect x="119" y="1524" width="11" height="11" rx="2" fill="#ebedf0"/><rect x="132" y="1446" width="11" height="11" rx="2" fill="#ebedf0"/><rect x="132" y="1459" width="11" height="11" rx="2" fill="#ebedf0"/><rect x="132" y="1472" width="11" height="11" rx="2" fill="#ebedf0"/><rect x="132" y="1485" width="11" height="11" rx="2" fill="#ebedf0"/><rect x="132" y="1498" width="11" height="11" rx="2" fill="#ebedf0"/><rect x="132" y="1511" width="11" height="11" rx="2" fill="#ebedf0"/><rect x="132" y="1524" width="11" height="11" rx="2" fill="#ebedf0"/><rect x="145" y="1446" width="11" height="11" rx="2" fill="#ebedf0"/><rect x="145" y="1459" width="11" height="11" rx="2" fill="#ebedf0"/><rect x="145" y="1472" width="11" height="11" rx="2" fill="#ebedf0"/><rect x="145" y="1485" width="11" height="11" rx="2" fill="#ebedf0"/><rect x="145" y="1498" width="11" height="11" rx="2" fill="#ebedf0"/><rect x="145" y="1511" width="11" height="11" rx="2" fill="#ebedf0"/><rect x="145" y="1524" width="11" height="11" rx="2" fill="#ebedf0"/><rect x="158" y="1446" width="11" height="11" rx="2" fill="#ebedf0"/><rect x="158" y="1459" width="11" height="11" rx="2" fill="#ebedf0"/><rect x="158" y="1472" width="11" height="11" rx="2" fill="#ebedf0"/><rect x="158" y="1485" width="11" height="11" rx="2" fill="#ebedf0"/><rect x="158" y="1498" width="11" height="11" rx="2" fill="#9be9a8"/><rect x="158" y="1511" width="11" height="11" rx="2" fill="#ebedf0"/><rect x="158" y="1524" width="11" height="11" rx="2" fill="#ebedf0"/><rect x="171" y="1446" width="11" height="11" rx="2" fill="#9be9a8"/><rect x="171" y="1459" width="11" height="11" rx="2" fill="#ebedf0"/><rect x="171" y="1472" width="11" height="11" rx="2" fill="#ebedf0"/><rect x="171" y="1485" width="11" height="11" rx="2" fill="#ebedf0"/><rect x="171" y="1498" width="11" height="11" rx="2" fill="#ebedf0"/><rect x="171" y="1511" width="11" height="11" rx="2" fill="#ebedf0"/><rect x="171" y="1524" width="11" height="11" rx="2" fill="#ebedf0"/><rect x="184" y="1446" width="11" height="11" rx="2" fill="#ebedf0"/><rect x="184" y="1459" width="11" height="11" rx="2" fill="#ebedf0"/><rect x="184" y="1472" width="11" height="11" rx="2" fill="#ebedf0"/><rect x="184" y="1485" width="11" height="11" rx="2" fill="#ebedf0"/><rect x="184" y="1498" width="11" height="11" rx="2" fill="#ebedf0"/><rect x="184" y="1511" width="11" height="11" rx="2" fill="#ebedf0"/><rect x="184" y="1524" width="11" height="11" rx="2" fill="#ebedf0"/><rect x="197" y="1446" width="11" height="11" rx="2" fill="#ebedf0"/><rect x="197" y="1459" width="11" height="11" rx="2" fill="#ebedf0"/><rect x="197" y="1472" width="11" height="11" rx="2" fill="#ebedf0"/><rect x="197" y="1485" width="11" height="11" rx="2" fill="#ebedf0"/><rect x="197" y="1498" width="11" height="11" rx="2" fill="#ebedf0"/><rect x="197" y="1511" width="11" height="11" rx="2" fill="#ebedf0"/><rect x="197" y="1524" width="11" height="11" rx="2" fill="#ebedf0"/><rect x="210" y="1446" width="11" height="11" rx="2" fill="#ebedf0"/><rect x="210" y="1459" width="11" height="11" rx="2" fill="#ebedf0"/><rect x="210" y="1472" width="11" height="11" rx="2" fill="#ebedf0"/><rect x="210" y="1485" width="11" height="11" rx="2" fill="#ebedf0"/><rect x="210" y="1498" width="11" height="11" rx="2" fill="#ebedf0"/><rect x="210" y="1511" width="11" height="11" rx="2" fill="#ebedf0"/><rect x="210" y="1524" width="11" height="11" rx="2" fill="#ebedf0"/><rect x="223" y="1446" width="11" height="11" rx="2" fill="#ebedf0"/><rect x="223" y="1459" width="11" height="11" rx="2" fill="#ebedf0"/><rect x="223" y="1472" width="11" height="11" rx="2" fill="#ebedf0"/><rect x="223" y="1485" width="11" height="11" rx="2" fill="#ebedf0"/><rect x="223" y="1498" width="11" height="11" rx="2" fill="#ebedf0"/><rect x="223" y="1511" width="11" height="11" rx="2" fill="#ebedf0"/><rect x="223" y="1524" width="11" height="11" rx="2" fill="#ebedf0"/><rect x="236" y="1446" width="11" height="11" rx="2" fill="#ebedf0"/><rect x="236" y="1459" width="11" height="11" rx="2" fill="#ebedf0"/><rect x="236" y="1472" width="11" height="11" rx="2" fill="#ebedf0"/><rect x="236" y="1485" width="11" height="11" rx="2" fill="#ebedf0"/><rect x="236" y="1498" width="11" height="11" rx="2" fill="#ebedf0"/><rect x="236" y="1511" width="11" height="11" rx="2" fill="#ebedf0"/><rect x="236" y="1524" width="11" height="11" rx="2" fill="#9be9a8"/><rect x="249" y="1446" width="11" height="11" rx="2" fill="#ebedf0"/><rect x="249" y="1459" width="11" height="11" rx="2" fill="#ebedf0"/><rect x="249" y="1472" width="11" height="11" rx="2" fill="#ebedf0"/><rect x="249" y="1485" width="11" height="11" rx="2" fill="#9be9a8"/><rect x="249" y="1498" width="11" height="11" rx="2" fill="#ebedf0"/><rect x="249" y="1511" width="11" height="11" rx="2" fill="#ebedf0"/><rect x="249" y="1524" width="11" height="11" rx="2" fill="#ebedf0"/><rect x="262" y="1446" width="11" height="11" rx="2" fill="#ebedf0"/><rect x="262" y="1459" width="11" height="11" rx="2" fill="#ebedf0"/><rect x="262" y="1472" width="11" height="11" rx="2" fill="#ebedf0"/><rect x="262" y="1485" width="11" height="11" rx="2" fill="#ebedf0"/><rect x="262" y="1498" width="11" height="11" rx="2" fill="#9be9a8"/><rect x="262" y="1511" width="11" height="11" rx="2" fill="#ebedf0"/><rect x="262" y="1524" width="11" height="11" rx="2" fill="#ebedf0"/><rect x="275" y="1446" width="11" height="11" rx="2" fill="#ebedf0"/><rect x="275" y="1459" width="11" height="11" rx="2" fill="#ebedf0"/><rect x="275" y="1472" width="11" height="11" rx="2" fill="#ebedf0"/><rect x="275" y="1485" width="11" height="11" rx="2" fill="#ebedf0"/><rect x="275" y="1498" width="11" height="11" rx="2" fill="#ebedf0"/><rect x="275" y="1511" width="11" height="11" rx="2" fill="#ebedf0"/><rect x="275" y="1524" width="11" height="11" rx="2" fill="#ebedf0"/><rect x="288" y="1446" width="11" height="11" rx="2" fill="#ebedf0"/><rect x="288" y="1459" width="11" height="11" rx="2" fill="#ebedf0"/><rect x="288" y="1472" width="11" height="11" rx="2" fill="#ebedf0"/><rect x="288" y="1485" width="11" height="11" rx="2" fill="#ebedf0"/><rect x="288" y="1498" width="11" height="11" rx="2" fill="#ebedf0"/><rect x="288" y="1511" width="11" height="11" rx="2" fill="#ebedf0"/><rect x="288" y="1524" width="11" height="11" rx="2" fill="#ebedf0"/><rect x="301" y="1446" width="11" height="11" rx="2" fill="#ebedf0"/><rect x="301" y="1459" width="11" height="11" rx="2" fill="#9be9a8"/><rect x="301" y="1472" width="11" height="11" rx="2" fill="#ebedf0"/><rect x="301" y="1485" width="11" height="11" rx="2" fill="#ebedf0"/><rect x="301" y="1498" width="11" height="11" rx="2" fill="#ebedf0"/><rect x="301" y="1511" width="11" height="11" rx="2" fill="#ebedf0"/><rect x="301" y="1524" width="11" height="11" rx="2" fill="#ebedf0"/><rect x="314" y="1446" width="11" height="11" rx="2" fill="#ebedf0"/><rect x="314" y="1459" width="11" height="11" rx="2" fill="#ebedf0"/><rect x="314" y="1472" width="11" height="11" rx="2" fill="#ebedf0"/><rect x="314" y="1485" width="11" height="11" rx="2" fill="#ebedf0"/><rect x="314" y="1498" width="11" height="11" rx="2" fill="#ebedf0"/><rect x="314" y="1511" width="11" height="11" rx="2" fill="#ebedf0"/><rect x="314" y="1524" width="11" height="11" rx="2" fill="#ebedf0"/><rect x="327" y="1446" width="11" height="11" rx="2" fill="#ebedf0"/><rect x="327" y="1459" width="11" height="11" rx="2" fill="#ebedf0"/><rect x="327" y="1472" width="11" height="11" rx="2" fill="#ebedf0"/><rect x="327" y="1485" width="11" height="11" rx="2" fill="#ebedf0"/><rect x="327" y="1498" width="11" height="11" rx="2" fill="#ebedf0"/><rect x="327" y="1511" width="11" height="11" rx="2" fill="#ebedf0"/><rect x="327" y="1524" width="11" height="11" rx="2" fill="#ebedf0"/><rect x="340" y="1446" width="11" height="11" rx="2" fill="#ebedf0"/><rect x="340" y="1459" width="11" height="11" rx="2" fill="#ebedf0"/><rect x="340" y="1472" width="11" height="11" rx="2" fill="#ebedf0"/><rect x="340" y="1485" width="11" height="11" rx="2" fill="#ebedf0"/><rect x="340" y="1498" width="11" height="11" rx="2" fill="#ebedf0"/><rect x="340" y="1511" width="11" height="11" rx="2" fill="#ebedf0"/><rect x="340" y="1524" width="11" height="11" rx="2" fill="#ebedf0"/><rect x="353" y="1446" width="11" height="11" rx="2" fill="#ebedf0"/><rect x="353" y="1459" width="11" height="11" rx="2" fill="#ebedf0"/><rect x="353" y="1472" width="11" height="11" rx="2" fill="#ebedf0"/><rect x="353" y="1485" width="11" height="11" rx="2" fill="#ebedf0"/><rect x="353" y="1498" width="11" height="11" rx="2" fill="#ebedf0"/><rect x="353" y="1511" width="11" height="11" rx="2" fill="#ebedf0"/><rect x="353" y="1524" width="11" height="11" rx="2" fill="#ebedf0"/><rect x="366" y="1446" width="11" height="11" rx="2" fill="#ebedf0"/><rect x="366" y="1459" width="11" height="11" rx="2" fill="#ebedf0"/><rect x="366" y="1472" width="11" height="11" rx="2" fill="#ebedf0"/><rect x="366" y="1485" width="11" height="11" rx="2" fill="#ebedf0"/><rect x="366" y="1498" width="11" height="11" rx="2" fill="#ebedf0"/><rect x="366" y="1511" width="11" height="11" rx="2" fill="#ebedf0"/><rect x="366" y="1524" width="11" height="11" rx="2" fill="#ebedf0"/><rect x="379" y="1446" width="11" height="11" rx="2" fill="#ebedf0"/><rect x="379" y="1459" width="11" height="11" rx="2" fill="#ebedf0"/><rect x="379" y="1472" width="11" height="11" rx="2" fill="#ebedf0"/><rect x="379" y="1485" width="11" height="11" rx="2" fill="#ebedf0"/><rect x="379" y="1498" width="11" height="11" rx="2" fill="#9be9a8"/><rect x="379" y="1511" width="11" height="11" rx="2" fill="#9be9a8"/><rect x="379" y="1524" width="11" height="11" rx="2" fill="#9be9a8"/><rect x="392" y="1446" width="11" height="11" rx="2" fill="#9be9a8"/><rect x="392" y="1459" width="11" height="11" rx="2" fill="#9be9a8"/><rect x="392" y="1472" width="11" height="11" rx="2" fill="#ebedf0"/><rect x="392" y="1485" width="11" height="11" rx="2" fill="#ebedf0"/><rect x="392" y="1498" width="11" height="11" rx="2" fill="#ebedf0"/><rect x="392" y="1511" width="11" height="11" rx="2" fill="#ebedf0"/><rect x="392" y="1524" width="11" height="11" rx="2" fill="#ebedf0"/><rect x="405" y="1446" width="11" height="11" rx="2" fill="#ebedf0"/><rect x="405" y="1459" width="11" height="11" rx="2" fill="#ebedf0"/><rect x="405" y="1472" width="11" height="11" rx="2" fill="#ebedf0"/><rect x="405" y="1485" width="11" height="11" rx="2" fill="#ebedf0"/><rect x="405" y="1498" width="11" height="11" rx="2" fill="#ebedf0"/><rect x="405" y="1511" width="11" height="11" rx="2" fill="#ebedf0"/><rect x="405" y="1524" width="11" height="11" rx="2" fill="#ebedf0"/><rect x="418" y="1446" width="11" height="11" rx="2" fill="#ebedf0"/><rect x="418" y="1459" width="11" height="11" rx="2" fill="#ebedf0"/><rect x="418" y="1472" width="11" height="11" rx="2" fill="#ebedf0"/><rect x="418" y="1485" width="11" height="11" rx="2" fill="#ebedf0"/><rect x="418" y="1498" width="11" height="11" rx="2" fill="#ebedf0"/><rect x="418" y="1511" width="11" height="11" rx="2" fill="#ebedf0"/><rect x="418" y="1524" width="11" height="11" rx="2" fill="#ebedf0"/><rect x="431" y="1446" width="11" height="11" rx="2" fill="#ebedf0"/><rect x="431" y="1459" width="11" height="11" rx="2" fill="#ebedf0"/><rect x="431" y="1472" width="11" height="11" rx="2" fill="#ebedf0"/><rect x="431" y="1485" width="11" height="11" rx="2" fill="#ebedf0"/><rect x="431" y="1498" width="11" height="11" rx="2" fill="#ebedf0"/><rect x="431" y="1511" width="11" height="11" rx="2" fill="#ebedf0"/><rect x="431" y="1524" width="11" height="11" rx="2" fill="#ebedf0"/><rect x="444" y="1446" width="11" height="11" rx="2" fill="#ebedf0"/><rect x="444" y="1459" width="11" height="11" rx="2" fill="#ebedf0"/><rect x="444" y="1472" width="11" height="11" rx="2" fill="#ebedf0"/><rect x="444" y="1485" width="11" height="11" rx="2" fill="#ebedf0"/><rect x="444" y="1498" width="11" height="11" rx="2" fill="#ebedf0"/><rect x="444" y="1511" width="11" height="11" rx="2" fill="#ebedf0"/><rect x="444" y="1524" width="11" height="11" rx="2" fill="#ebedf0"/><rect x="457" y="1446" width="11" height="11" rx="2" fill="#ebedf0"/><rect x="457" y="1459" width="11" height="11" rx="2" fill="#ebedf0"/><rect x="457" y="1472" width="11" height="11" rx="2" fill="#ebedf0"/><rect x="457" y="1485" width="11" height="11" rx="2" fill="#ebedf0"/><rect x="457" y="1498" width="11" height="11" rx="2" fill="#ebedf0"/><rect x="457" y="1511" width="11" height="11" rx="2" fill="#ebedf0"/><rect x="457" y="1524" width="11" height="11" rx="2" fill="#9be9a8"/><rect x="470" y="1446" width="11" height="11" rx="2" fill="#ebedf0"/><rect x="470" y="1459" width="11" height="11" rx="2" fill="#ebedf0"/><rect x="470" y="1472" width="11" height="11" rx="2" fill="#ebedf0"/><rect x="470" y="1485" width="11" height="11" rx="2" fill="#ebedf0"/><rect x="470" y="1498" width="11" height="11" rx="2" fill="#ebedf0"/><rect x="470" y="1511" width="11" height="11" rx="2" fill="#ebedf0"/><rect x="470" y="1524" width="11" height="11" rx="2" fill="#ebedf0"/><rect x="483" y="1446" width="11" height="11" rx="2" fill="#ebedf0"/><rect x="483" y="1459" width="11" height="11" rx="2" fill="#ebedf0"/><rect x="483" y="1472" width="11" height="11" rx="2" fill="#ebedf0"/><rect x="483" y="1485" width="11" height="11" rx="2" fill="#ebedf0"/><rect x="483" y="1498" width="11" height="11" rx="2" fill="#ebedf0"/><rect x="483" y="1511" width="11" height="11" rx="2" fill="#9be9a8"/><rect x="483" y="1524" width="11" height="11" rx="2" fill="#9be9a8"/><rect x="496" y="1446" width="11" height="11" rx="2" fill="#9be9a8"/><rect x="496" y="1459" width="11" height="11" rx="2" fill="#9be9a8"/><rect x="496" y="1472" width="11" height="11" rx="2" fill="#ebedf0"/><rect x="496" y="1485" width="11" height="11" rx="2" fill="#9be9a8"/><rect x="496" y="1498" width="11" height="11" rx="2" fill="#ebedf0"/><rect x="496" y="1511" width="11" height="11" rx="2" fill="#ebedf0"/><rect x="496" y="1524" width="11" height="11" rx="2" fill="#ebedf0"/><rect x="509" y="1446" width="11" height="11" rx="2" fill="#ebedf0"/><rect x="509" y="1459" width="11" height="11" rx="2" fill="#ebedf0"/><rect x="509" y="1472" width="11" height="11" rx="2" fill="#ebedf0"/><rect x="509" y="1485" width="11" height="11" rx="2" fill="#ebedf0"/><rect x="509" y="1498" width="11" height="11" rx="2" fill="#ebedf0"/><rect x="509" y="1511" width="11" height="11" rx="2" fill="#ebedf0"/><rect x="509" y="1524" width="11" height="11" rx="2" fill="#ebedf0"/><rect x="522" y="1446" width="11" height="11" rx="2" fill="#ebedf0"/><rect x="522" y="1459" width="11" height="11" rx="2" fill="#9be9a8"/><rect x="522" y="1472" width="11" height="11" rx="2" fill="#9be9a8"/><rect x="522" y="1485" width="11" height="11" rx="2" fill="#9be9a8"/><rect x="522" y="1498" width="11" height="11" rx="2" fill="#9be9a8"/><rect x="522" y="1511" width="11" height="11" rx="2" fill="#9be9a8"/><rect x="522" y="1524" width="11" height="11" rx="2" fill="#ebedf0"/><rect x="535" y="1446" width="11" height="11" rx="2" fill="#ebedf0"/><rect x="535" y="1459" width="11" height="11" rx="2" fill="#ebedf0"/><rect x="535" y="1472" width="11" height="11" rx="2" fill="#ebedf0"/><rect x="535" y="1485" width="11" height="11" rx="2" fill="#9be9a8"/><rect x="535" y="1498" width="11" height="11" rx="2" fill="#ebedf0"/><rect x="535" y="1511" width="11" height="11" rx="2" fill="#ebedf0"/><rect x="535" y="1524" width="11" height="11" rx="2" fill="#ebedf0"/><rect x="548" y="1446" width="11" height="11" rx="2" fill="#ebedf0"/><rect x="548" y="1459" width="11" height="11" rx="2" fill="#9be9a8"/><rect x="548" y="1472" width="11" height="11" rx="2" fill="#ebedf0"/><rect x="548" y="1485" width="11" height="11" rx="2" fill="#ebedf0"/><rect x="548" y="1498" width="11" height="11" rx="2" fill="#9be9a8"/><rect x="548" y="1511" width="11" height="11" rx="2" fill="#ebedf0"/><rect x="548" y="1524" width="11" height="11" rx="2" fill="#ebedf0"/><rect x="561" y="1446" width="11" height="11" rx="2" fill="#ebedf0"/><rect x="561" y="1459" width="11" height="11" rx="2" fill="#ebedf0"/><rect x="561" y="1472" width="11" height="11" rx="2" fill="#ebedf0"/><rect x="561" y="1485" width="11" height="11" rx="2" fill="#9be9a8"/><rect x="561" y="1498" width="11" height="11" rx="2" fill="#ebedf0"/><rect x="561" y="1511" width="11" height="11" rx="2" fill="#ebedf0"/><rect x="561" y="1524" width="11" height="11" rx="2" fill="#ebedf0"/><rect x="574" y="1446" width="11" height="11" rx="2" fill="#ebedf0"/><rect x="574" y="1459" width="11" height="11" rx="2" fill="#ebedf0"/><rect x="574" y="1472" width="11" height="11" rx="2" fill="#ebedf0"/><rect x="574" y="1485" width="11" height="11" rx="2" fill="#ebedf0"/><rect x="574" y="1498" width="11" height="11" rx="2" fill="#ebedf0"/><rect x="574" y="1511" width="11" height="11" rx="2" fill="#ebedf0"/><rect x="574" y="1524" width="11" height="11" rx="2" fill="#ebedf0"/><rect x="587" y="1446" width="11" height="11" rx="2" fill="#ebedf0"/><rect x="587" y="1459" width="11" height="11" rx="2" fill="#ebedf0"/><rect x="587" y="1472" width="11" height="11" rx="2" fill="#ebedf0"/><rect x="587" y="1485" width="11" height="11" rx="2" fill="#ebedf0"/><rect x="587" y="1498" width="11" height="11" rx="2" fill="#ebedf0"/><rect x="587" y="1511" width="11" height="11" rx="2" fill="#ebedf0"/><rect x="587" y="1524" width="11" height="11" rx="2" fill="#ebedf0"/><rect x="600" y="1446" width="11" height="11" rx="2" fill="#ebedf0"/><rect x="600" y="1459" width="11" height="11" rx="2" fill="#ebedf0"/><rect x="600" y="1472" width="11" height="11" rx="2" fill="#9be9a8"/><rect x="600" y="1485" width="11" height="11" rx="2" fill="#9be9a8"/><rect x="600" y="1498" width="11" height="11" rx="2" fill="#9be9a8"/><rect x="600" y="1511" width="11" height="11" rx="2" fill="#9be9a8"/><rect x="600" y="1524" width="11" height="11" rx="2" fill="#ebedf0"/><rect x="613" y="1446" width="11" height="11" rx="2" fill="#ebedf0"/><rect x="613" y="1459" width="11" height="11" rx="2" fill="#ebedf0"/><rect x="613" y="1472" width="11" height="11" rx="2" fill="#9be9a8"/><rect x="613" y="1485" width="11" height="11" rx="2" fill="#9be9a8"/><rect x="613" y="1498" width="11" height="11" rx="2" fill="#9be9a8"/><rect x="613" y="1511" width="11" height="11" rx="2" fill="#ebedf0"/><rect x="613" y="1524" width="11" height="11" rx="2" fill="#9be9a8"/><rect x="626" y="1446" width="11" height="11" rx="2" fill="#ebedf0"/><rect x="626" y="1459" width="11" height="11" rx="2" fill="#9be9a8"/><rect x="626" y="1472" width="11" height="11" rx="2" fill="#9be9a8"/><rect x="626" y="1485" width="11" height="11" rx="2" fill="#9be9a8"/><rect x="626" y="1498" width="11" height="11" rx="2" fill="#9be9a8"/><rect x="626" y="1511" width="11" height="11" rx="2" fill="#9be9a8"/><rect x="626" y="1524" width="11" height="11" rx="2" fill="#9be9a8"/><rect x="639" y="1446" width="11" height="11" rx="2" fill="#ebedf0"/><rect x="639" y="1459" width="11" height="11" rx="2" fill="#9be9a8"/><rect x="639" y="1472" width="11" height="11" rx="2" fill="#9be9a8"/><rect x="639" y="1485" width="11" height="11" rx="2" fill="#9be9a8"/><rect x="639" y="1498" width="11" height="11" rx="2" fill="#9be9a8"/><rect x="639" y="1511" width="11" height="11" rx="2" fill="#ebedf0"/><rect x="639" y="1524" width="11" height="11" rx="2" fill="#216e39"/><rect x="652" y="1446" width="11" height="11" rx="2" fill="#9be9a8"/><rect x="652" y="1459" width="11" height="11" rx="2" fill="#9be9a8"/><rect x="652" y="1472" width="11" height="11" rx="2" fill="#9be9a8"/><rect x="652" y="1485" width="11" height="11" rx="2" fill="#9be9a8"/><rect x="652" y="1498" width="11" height="11" rx="2" fill="#9be9a8"/><rect x="652" y="1511" width="11" height="11" rx="2" fill="#9be9a8"/><rect x="652" y="1524" width="11" height="11" rx="2" fill="#9be9a8"/><rect x="665" y="1446" width="11" height="11" rx="2" fill="#216e39"/><rect x="665" y="1459" width="11" height="11" rx="2" fill="#9be9a8"/><rect x="665" y="1472" width="11" height="11" rx="2" fill="#40c463"/><rect x="665" y="1485" width="11" height="11" rx="2" fill="#216e39"/><rect x="665" y="1498" width="11" height="11" rx="2" fill="#9be9a8"/><rect x="665" y="1511" width="11" height="11" rx="2" fill="#40c463"/><rect x="665" y="1524" width="11" height="11" rx="2" fill="#9be9a8"/><rect x="678" y="1446" width="11" height="11" rx="2" fill="#ebedf0"/><rect x="678" y="1459" width="11" height="11" rx="2" fill="#ebedf0"/><rect x="678" y="1472" width="11" height="11" rx="2" fill="#9be9a8"/><rect x="678" y="1485" width="11" height="11" rx="2" fill="#9be9a8"/><rect x="678" y="1498" width="11" height="11" rx="2" fill="#ebedf0"/><rect x="678" y="1511" width="11" height="11" rx="2" fill="#ebedf0"/><rect x="678" y="1524" width="11" height="11" rx="2" fill="#40c463"/><rect x="691" y="1446" width="11" height="11" rx="2" fill="#9be9a8"/><rect x="691" y="1459" width="11" height="11" rx="2" fill="#9be9a8"/><rect x="691" y="1472" width="11" height="11" rx="2" fill="#30a14e"/><rect x="691" y="1485" width="11" height="11" rx="2" fill="#9be9a8"/><rect x="691" y="1498" width="11" height="11" rx="2" fill="#40c463"/><rect x="691" y="1511" width="11" height="11" rx="2" fill="#9be9a8"/><rect x="691" y="1524" width="11" height="11" rx="2" fill="#9be9a8"/><rect x="704" y="1446" width="11" height="11" rx="2" fill="#40c463"/><rect x="704" y="1459" width="11" height="11" rx="2" fill="#9be9a8"/><rect x="704" y="1472" width="11" height="11" rx="2" fill="#30a14e"/><rect x="704" y="1485" width="11" height="11" rx="2" fill="#9be9a8"/><rect x="704" y="1498" width="11" height="11" rx="2" fill="#ebedf0"/><rect x="704" y="1511" width="11" height="11" rx="2" fill="#9be9a8"/><rect x="704" y="1524" width="11" height="11" rx="2" fill="#9be9a8"/><rect x="717" y="1446" width="11" height="11" rx="2" fill="#9be9a8"/><rect x="717" y="1459" width="11" height="11" rx="2" fill="#40c463"/><rect x="717" y="1472" width="11" height="11" rx="2" fill="#40c463"/><rect x="717" y="1485" width="11" height="11" rx="2" fill="#ebedf0"/><rect x="717" y="1498" width="11" height="11" rx="2" fill="#9be9a8"/><rect x="717" y="1511" width="11" height="11" rx="2" fill="#9be9a8"/><rect x="717" y="1524" width="11" height="11" rx="2" fill="#216e39"/><rect x="730" y="1446" width="11" height="11" rx="2" fill="#216e39"/><rect x="730" y="1459" width="11" height="11" rx="2" fill="#40c463"/><rect x="730" y="1472" width="11" height="11" rx="2" fill="#9be9a8"/><rect x="730" y="1485" width="11" height="11" rx="2" fill="#ebedf0"/><text x="24" y="1583" class="t t-h">OPEN SOURCE CONTRIBUTIONS</text><text x="24" y="1599" class="t t-sub">External repositories contributed to (all time)</text><rect x="24" y="1609" width="760" height="44" rx="6" fill="#161b22" stroke="#30363d" stroke-width="1"/><rect x="24" y="1609" width="4" height="44" rx="2" fill="#58a6ff"/><text x="40" y="1627" class="t t-card-title">googleapis/python-aiplatform</text><text x="40" y="1643" class="t t-card-detail">★ 871 · Python</text><rect x="24" y="1661" width="760" height="44" rx="6" fill="#161b22" stroke="#30363d" stroke-width="1"/><rect x="24" y="1661" width="4" height="44" rx="2" fill="#3fb950"/><text x="40" y="1679" class="t t-card-title">MathisWellmann/gym-rs</text><text x="40" y="1695" class="t t-card-detail">★ 127 · Rust</text><rect x="24" y="1713" width="760" height="44" rx="6" fill="#161b22" stroke="#30363d" stroke-width="1"/><rect x="24" y="1713" width="4" height="44" rx="2" fill="#d29922"/><text x="40" y="1731" class="t t-card-title">getzep/graphiti</text><text x="40" y="1747" class="t t-card-detail">★ 23,882 · Python</text></svg>