<svg xmlns="http://www.w3.org/2000/svg" width="808" height="1446" viewBox="0 0 808 1446"><defs><style>
  .t { font-family: -apple-system,BlinkMacSystemFont,Segoe UI,Helvetica,Arial,sans-serif; font-variant-numeric: tabular-lining; }
  .t-h { font-size: 14px; fill: #c9d1d9; letter-spacing: 2px; font-weight: 600; }
  .t-sub { font-size: 11px; fill: #6e7681; }
  .t-label { font-size: 12px; fill: #8b949e; }
  .t-value { font-size: 11px; fill: #6e7681; }
  .t-subhdr { font-size: 11px; fill: #8b949e; letter-spacing: 1px; font-weight: 600; }
  .t-stat-label { font-size: 10px; fill: #8b949e; font-weight: 600; }
  .t-stat-value { font-size: 22px; font-weight: 700; }
  .t-card-title { font-size: 12px; fill: #58a6ff; font-weight: 700; }
  .t-card-detail { font-size: 11px; fill: #8b949e; }
  .t-pill { font-size: 11px; font-weight: 600; }
  .t-bullet { font-size: 12px; fill: #c9d1d9; }
  .bg-fill { fill: #0d1117; }
  .card-fill { fill: #161b22; }
  .border-stroke { stroke: #30363d; }
  .muted-fill { fill: #6e7681; }
  .secondary-fill { fill: #8b949e; }

  @keyframes fadeIn {
    from { opacity: 0; transform: translateY(8px); }
    to { opacity: 1; transform: translateY(0); }
  }
  @keyframes scaleIn {
    from { transform: scale(0); opacity: 0; }
    to { transform: scale(1); opacity: 1; }
  }
  @keyframes drawPath {
    from { stroke-dashoffset: var(--path-length); }
    to { stroke-dashoffset: 0; }
  }
  @keyframes radarReveal {
    from { transform: scale(0); opacity: 0; }
    to { transform: scale(1); opacity: 0.6; }
  }
  .fade-1 { animation: fadeIn 0.6s ease-out 0.1s both; }
  .fade-2 { animation: fadeIn 0.6s ease-out 0.25s both; }
  .fade-3 { animation: fadeIn 0.6s ease-out 0.4s both; }
  .fade-4 { animation: fadeIn 0.6s ease-out 0.55s both; }
  .fade-5 { animation: fadeIn 0.6s ease-out 0.7s both; }
  .fade-6 { animation: fadeIn 0.6s ease-out 0.85s both; }
</style></defs><rect width="808" height="1446" rx="12" class="bg-fill"/><text x="24" y="40" class="t t-h">LANGUAGE VELOCITY</text><text x="24" y="56" class="t t-sub">How language usage has evolved over the past year</text><path key="Lua" d="M 24,205.8793103448276 C 58.54545454545455,205.8793103448276 58.54545454545455,205.8793103448276 93.0909090909091,205.8793103448276 C 127.63636363636364,205.8793103448276 127.63636363636364,206 162.1818181818182,206 C 196.72727272727275,206 196.72727272727275,206 231.27272727272728,206 C 265.8181818181818,206 265.8181818181818,205.39655172413794 300.3636363636364,205.39655172413794 C 334.90909090909093,205.39655172413794 334.90909090909093,203.58620689655172 369.4545454545455,203.58620689655172 C 404,203.58620689655172 404,206 438.54545454545456,206 C 473.0909090909091,206 473.0909090909091,191.8793103448276 507.6363636363636,191.8793103448276 C 542.1818181818182,191.8793103448276 542.1818181818182,159.89655172413794 576.7272727272727,159.89655172413794 C 611.2727272727273,159.89655172413794 611.2727272727273,66 645.8181818181819,66 C 680.3636363636365,66 680.3636363636365,94.48275862068965 714.909090909091,94.48275862068965 C 749.4545454545455,94.48275862068965 749.4545454545455,203.58620689655172 784,203.58620689655172 L 784,203.58620689655172 C 749.4545454545455,203.58620689655172 749.4545454545455,96.05172413793103 714.909090909091,96.05172413793103 C 680.3636363636365,96.05172413793103 680.3636363636365,67.93103448275863 645.8181818181819,67.93103448275863 C 611.2727272727273,67.93103448275863 611.2727272727273,160.5 576.7272727272727,160.5 C 542.1818181818182,160.5 542.1818181818182,192.1206896551724 507.6363636363636,192.1206896551724 C 473.0909090909091,192.1206896551724 473.0909090909091,206 438.54545454545456,206 C 404,206 404,203.58620689655172 369.4545454545455,203.58620689655172 C 334.90909090909093,203.58620689655172 334.90909090909093,205.39655172413794 300.3636363636364,205.39655172413794 C 265.8181818181818,205.39655172413794 265.8181818181818,206 231.27272727272728,206 C 196.72727272727275,206 196.72727272727275,206 162.1818181818182,206 C 127.63636363636364,206 127.63636363636364,205.8793103448276 93.0909090909091,205.8793103448276 C 58.54545454545455,205.8793103448276 58.54545454545455,205.8793103448276 24,205.8793103448276 Z" fill="#000080" fill-opacity="0.75" class="fade-1"/><path key="Java" d="M 24,205.8793103448276 C 58.54545454545455,205.8793103448276 58.54545454545455,205.8793103448276 93.0909090909091,205.8793103448276 C 127.63636363636364,205.8793103448276 127.63636363636364,206 162.1818181818182,206 C 196.72727272727275,206 196.72727272727275,206 231.27272727272728,206 C 265.8181818181818,206 265.8181818181818,205.39655172413794 300.3636363636364,205.39655172413794 C 334.90909090909093,205.39655172413794 334.90909090909093,203.58620689655172 369.4545454545455,203.58620689655172 C 404,203.58620689655172 404,206 438.54545454545456,206 C 473.0909090909091,206 473.0909090909091,192.1206896551724 507.6363636363636,192.1206896551724 C 542.1818181818182,192.1206896551724 542.1818181818182,160.5 576.7272727272727,160.5 C 611.2727272727273,160.5 611.2727272727273,67.93103448275863 645.8181818181819,67.93103448275863 C 680.3636363636365,67.93103448275863 680.3636363636365,96.05172413793103 714.909090909091,96.05172413793103 C 749.4545454545455,96.05172413793103 749.4545454545455,203.58620689655172 784,203.58620689655172 L 784,203.58620689655172 C 749.4545454545455,203.58620689655172 749.4545454545455,97.86206896551724 714.909090909091,97.86206896551724 C 680.3636363636365,97.86206896551724 680.3636363636365,70.22413793103448 645.8181818181819,70.22413793103448 C 611.2727272727273,70.22413793103448 611.2727272727273,161.22413793103448 576.7272727272727,161.22413793103448 C 542.1818181818182,161.22413793103448 542.1818181818182,192.36206896551724 507.6363636363636,192.36206896551724 C 473.0909090909091,192.36206896551724 473.0909090909091,206 438.54545454545456,206 C 404,206 404,203.58620689655172 369.4545454545455,203.58620689655172 C 334.90909090909093,203.58620689655172 334.90909090909093,205.39655172413794 300.3636363636364,205.39655172413794 C 265.8181818181818,205.39655172413794 265.8181818181818,206 231.27272727272728,206 C 196.72727272727275,206 196.72727272727275,206 162.1818181818182,206 C 127.63636363636364,206 127.63636363636364,205.8793103448276 93.0909090909091,205.8793103448276 C 58.54545454545455,205.8793103448276 58.54545454545455,205.8793103448276 24,205.8793103448276 Z" fill="#b07219" fill-opacity="0.75" class="fade-2"/><path key="Python" d="M 24,205.8793103448276 C 58.54545454545455,205.8793103448276 58.54545454545455,205.8793103448276 93.0909090909091,205.8793103448276 C 127.63636363636364,205.8793103448276 127.63636363636364,206 162.1818181818182,206 C 196.72727272727275,206 196.72727272727275,206 231.27272727272728,206 C 265.8181818181818,206 265.8181818181818,205.39655172413794 300.3636363636364,205.39655172413794 C 334.90909090909093,205.39655172413794 334.90909090909093,203.58620689655172 369.4545454545455,203.58620689655172 C 404,203.58620689655172 404,206 438.54545454545456,206 C 473.0909090909091,206 473.0909090909091,192.36206896551724 507.6363636363636,192.36206896551724 C 542.1818181818182,192.36206896551724 542.1818181818182,161.22413793103448 576.7272727272727,161.22413793103448 C 611.2727272727273,161.22413793103448 611.2727272727273,70.22413793103448 645.8181818181819,70.22413793103448 C 680.3636363636365,70.22413793103448 680.3636363636365,97.86206896551724 714.909090909091,97.86206896551724 C 749.4545454545455,97.86206896551724 749.4545454545455,203.58620689655172 784,203.58620689655172 L 784,203.70689655172413 C 749.4545454545455,203.70689655172413 749.4545454545455,102.93103448275862 714.909090909091,102.93103448275862 C 680.3636363636365,102.93103448275862 680.3636363636365,76.5 645.8181818181819,76.5 C 611.2727272727273,76.5 611.2727272727273,163.27586206896552 576.7272727272727,163.27586206896552 C 542.1818181818182,163.27586206896552 542.1818181818182,192.9655172413793 507.6363636363636,192.9655172413793 C 473.0909090909091,192.9655172413793 473.0909090909091,206 438.54545454545456,206 C 404,206 404,203.70689655172413 369.4545454545455,203.70689655172413 C 334.90909090909093,203.70689655172413 334.90909090909093,205.39655172413794 300.3636363636364,205.39655172413794 C 265.8181818181818,205.39655172413794 265.8181818181818,206 231.27272727272728,206 C 196.72727272727275,206 196.72727272727275,206 162.1818181818182,206 C 127.63636363636364,206 127.63636363636364,205.8793103448276 93.0909090909091,205.8793103448276 C 58.54545454545455,205.8793103448276 58.54545454545455,205.8793103448276 24,205.8793103448276 Z" fill="#3572A5" fill-opacity="0.75" class="fade-3"/><path key="TypeScript" d="M 24,205.8793103448276 C 58.54545454545455,205.8793103448276 58.54545454545455,205.8793103448276 93.0909090909091,205.8793103448276 C 127.63636363636364,205.8793103448276 127.63636363636364,206 162.1818181818182,206 C 196.72727272727275,206 196.72727272727275,206 231.27272727272728,206 C 265.8181818181818,206 265.8181818181818,205.39655172413794 300.3636363636364,205.39655172413794 C 334.90909090909093,205.39655172413794 334.90909090909093,203.70689655172413 369.4545454545455,203.70689655172413 C 404,203.70689655172413 404,206 438.54545454545456,206 C 473.0909090909091,206 473.0909090909091,192.9655172413793 507.6363636363636,192.9655172413793 C 542.1818181818182,192.9655172413793 542.1818181818182,163.27586206896552 576.7272727272727,163.27586206896552 C 611.2727272727273,163.27586206896552 611.2727272727273,76.5 645.8181818181819,76.5 C 680.3636363636365,76.5 680.3636363636365,102.93103448275862 714.909090909091,102.93103448275862 C 749.4545454545455,102.93103448275862 749.4545454545455,203.70689655172413 784,203.70689655172413 L 784,204.18965517241378 C 749.4545454545455,204.18965517241378 749.4545454545455,122.96551724137932 714.909090909091,122.96551724137932 C 680.3636363636365,122.96551724137932 680.3636363636365,101.60344827586206 645.8181818181819,101.60344827586206 C 611.2727272727273,101.60344827586206 611.2727272727273,171.60344827586206 576.7272727272727,171.60344827586206 C 542.1818181818182,171.60344827586206 542.1818181818182,195.5 507.6363636363636,195.5 C 473.0909090909091,195.5 473.0909090909091,206 438.54545454545456,206 C 404,206 404,204.18965517241378 369.4545454545455,204.18965517241378 C 334.90909090909093,204.18965517241378 334.90909090909093,205.51724137931035 300.3636363636364,205.51724137931035 C 265.8181818181818,205.51724137931035 265.8181818181818,206 231.27272727272728,206 C 196.72727272727275,206 196.72727272727275,206 162.1818181818182,206 C 127.63636363636364,206 127.63636363636364,205.8793103448276 93.0909090909091,205.8793103448276 C 58.54545454545455,205.8793103448276 58.54545454545455,205.8793103448276 24,205.8793103448276 Z" fill="#3178c6" fill-opacity="0.75" class="fade-4"/><path key="Go" d="M 24,205.8793103448276 C 58.54545454545455,205.8793103448276 58.54545454545455,205.8793103448276 93.0909090909091,205.8793103448276 C 127.63636363636364,205.8793103448276 127.63636363636364,206 162.1818181818182,206 C 196.72727272727275,206 196.72727272727275,206 231.27272727272728,206 C 265.8181818181818,206 265.8181818181818,205.51724137931035 300.3636363636364,205.51724137931035 C 334.90909090909093,205.51724137931035 334.90909090909093,204.18965517241378 369.4545454545455,204.18965517241378 C 404,204.18965517241378 404,206 438.54545454545456,206 C 473.0909090909091,206 473.0909090909091,195.5 507.6363636363636,195.5 C 542.1818181818182,195.5 542.1818181818182,171.60344827586206 576.7272727272727,171.60344827586206 C 611.2727272727273,171.60344827586206 611.2727272727273,101.60344827586206 645.8181818181819,101.60344827586206 C 680.3636363636365,101.60344827586206 680.3636363636365,122.96551724137932 714.909090909091,122.96551724137932 C 749.4545454545455,122.96551724137932 749.4545454545455,204.18965517241378 784,204.18965517241378 L 784,204.67241379310346 C 749.4545454545455,204.67241379310346 749.4545454545455,144.81034482758622 714.909090909091,144.81034482758622 C 680.3636363636365,144.81034482758622 680.3636363636365,129.1206896551724 645.8181818181819,129.1206896551724 C 611.2727272727273,129.1206896551724 611.2727272727273,180.6551724137931 576.7272727272727,180.6551724137931 C 542.1818181818182,180.6551724137931 542.1818181818182,198.27586206896552 507.6363636363636,198.27586206896552 C 473.0909090909091,198.27586206896552 473.0909090909091,206 438.54545454545456,206 C 404,206 404,204.67241379310346 369.4545454545455,204.67241379310346 C 334.90909090909093,204.67241379310346 334.90909090909093,205.63793103448276 300.3636363636364,205.63793103448276 C 265.8181818181818,205.63793103448276 265.8181818181818,206 231.27272727272728,206 C 196.72727272727275,206 196.72727272727275,206 162.1818181818182,206 C 127.63636363636364,206 127.63636363636364,205.8793103448276 93.0909090909091,205.8793103448276 C 58.54545454545455,205.8793103448276 58.54545454545455,205.8793103448276 24,205.8793103448276 Z" fill="#00ADD8" fill-opacity="0.75" class="fade-5"/><path key="Rust" d="M 24,205.8793103448276 C 58.54545454545455,205.8793103448276 58.54545454545455,205.8793103448276 93.0909090909091,205.8793103448276 C 127.63636363636364,205.8793103448276 127.63636363636364,206 162.1818181818182,206 C 196.72727272727275,206 196.72727272727275,206 231.27272727272728,206 C 265.8181818181818,206 265.8181818181818,205.63793103448276 300.3636363636364,205.63793103448276 C 334.90909090909093,205.63793103448276 334.90909090909093,204.67241379310346 369.4545454545455,204.67241379310346 C 404,204.67241379310346 404,206 438.54545454545456,206 C 473.0909090909091,206 473.0909090909091,198.27586206896552 507.6363636363636,198.27586206896552 C 542.1818181818182,198.27586206896552 542.1818181818182,180.6551724137931 576.7272727272727,180.6551724137931 C 611.2727272727273,180.6551724137931 611.2727272727273,129.1206896551724 645.8181818181819,129.1206896551724 C 680.3636363636365,129.1206896551724 680.3636363636365,144.81034482758622 714.909090909091,144.81034482758622 C 749.4545454545455,144.81034482758622 749.4545454545455,204.67241379310346 784,204.67241379310346 L 784,206 C 749.4545454545455,206 749.4545454545455,206 714.909090909091,206 C 680.3636363636365,206 680.3636363636365,206 645.8181818181819,206 C 611.2727272727273,206 611.2727272727273,206 576.7272727272727,206 C 542.1818181818182,206 542.1818181818182,206 507.6363636363636,206 C 473.0909090909091,206 473.0909090909091,206 438.54545454545456,206 C 404,206 404,206 369.4545454545455,206 C 334.90909090909093,206 334.90909090909093,206 300.3636363636364,206 C 265.8181818181818,206 265.8181818181818,206 231.27272727272728,206 C 196.72727272727275,206 196.72727272727275,206 162.1818181818182,206 C 127.63636363636364,206 127.63636363636364,206 93.0909090909091,206 C 58.54545454545455,206 58.54545454545455,206 24,206 Z" fill="#dea584" fill-opacity="0.75" class="fade-6"/><rect x="24" y="212" width="8" height="8" rx="2" fill="#dea584" opacity="0.85"/><text x="36" y="220" class="t t-value">Rust</text><rect x="80" y="212" width="8" height="8" rx="2" fill="#00ADD8" opacity="0.85"/><text x="92" y="220" class="t t-value">Go</text><rect x="122" y="212" width="8" height="8" rx="2" fill="#3178c6" opacity="0.85"/><text x="134" y="220" class="t t-value">TypeScript</text><rect x="220" y="212" width="8" height="8" rx="2" fill="#3572A5" opacity="0.85"/><text x="232" y="220" class="t t-value">Python</text><rect x="290" y="212" width="8" height="8" rx="2" fill="#b07219" opacity="0.85"/><text x="302" y="220" class="t t-value">Java</text><rect x="346" y="212" width="8" height="8" rx="2" fill="#000080" opacity="0.85"/><text x="358" y="220" class="t t-value">Lua</text><text key="Jun" x="24" y="220" class="t t-value" text-anchor="start" opacity="0">Jun</text><text key="Aug" x="162.1818181818182" y="220" class="t t-value" text-anchor="start" opacity="0">Aug</text><text key="Oct" x="300.3636363636364" y="220" class="t t-value" text-anchor="start" opacity="0">Oct</text><text key="Dec" x="438.54545454545456" y="220" class="t t-value" text-anchor="start" opacity="0">Dec</text><text key="Feb" x="576.7272727272727" y="220" class="t t-value" text-anchor="start" opacity="0">Feb</text><text key="Apr" x="714.909090909091" y="220" class="t t-value" text-anchor="start" opacity="0">Apr</text><text x="24" y="282" class="t t-h">CONTRIBUTION RHYTHM</text><text x="24" y="298" class="t t-sub">Activity patterns and statistics over the past year</text><circle key="0.25" cx="144" cy="428" r="22.5" fill="none" class="border-stroke" stroke-width="1" stroke-opacity="0.4"/><circle key="0.5" cx="144" cy="428" r="45" fill="none" class="border-stroke" stroke-width="1" stroke-opacity="0.4"/><circle key="0.75" cx="144" cy="428" r="67.5" fill="none" class="border-stroke" stroke-width="1" stroke-opacity="0.4"/><circle key="1" cx="144" cy="428" r="90" fill="none" class="border-stroke" stroke-width="1" stroke-opacity="0.4"/><line key="Sun" x1="144" y1="428" x2="144" y2="338" class="border-stroke" stroke-width="1" stroke-opacity="0.3"/><line key="Mon" x1="144" y1="428" x2="214.36483342212267" y2="371.885917832714" class="border-stroke" stroke-width="1" stroke-opacity="0.3"/><line key="Tue" x1="144" y1="428" x2="231.74351209636413" y2="448.0268840560683" class="border-stroke" stroke-width="1" stroke-opacity="0.3"/><line key="Wed" x1="144" y1="428" x2="183.04953652058023" y2="509.08719811121773" class="border-stroke" stroke-width="1" stroke-opacity="0.3"/><line key="Thu" x1="144" y1="428" x2="104.95046347941977" y2="509.08719811121773" class="border-stroke" stroke-width="1" stroke-opacity="0.3"/><line key="Fri" x1="144" y1="428" x2="56.25648790363587" y2="448.0268840560683" class="border-stroke" stroke-width="1" stroke-opacity="0.3"/><line key="Sat" x1="144" y1="428" x2="73.63516657787731" y2="371.885917832714" class="border-stroke" stroke-width="1" stroke-opacity="0.3"/><polygon points="144,338 166.63588292097916,409.94848573666144 167.1197190603118,433.2769250052497 167.14046608626978,476.05167295479566 129.82646452215977,457.4316496848124 112.5237559781297,435.18424729630385 103.34476291166246,395.5785303033459" fill="#58a6ff" fill-opacity="0.2" stroke="#58a6ff" stroke-width="2" stroke-opacity="0.8" class="fade-2" style="transform-origin: 144px 428px"/><circle key="Sun" cx="144" cy="338" r="3" fill="#58a6ff" class="fade-1"/><circle key="Mon" cx="166.63588292097916" cy="409.94848573666144" r="3" fill="#58a6ff" class="fade-2"/><circle key="Tue" cx="167.1197190603118" cy="433.2769250052497" r="3" fill="#58a6ff" class="fade-3"/><circle key="Wed" cx="167.14046608626978" cy="476.05167295479566" r="3" fill="#58a6ff" class="fade-4"/><circle key="Thu" cx="129.82646452215977" cy="457.4316496848124" r="3" fill="#58a6ff" class="fade-5"/><circle key="Fri" cx="112.5237559781297" cy="435.18424729630385" r="3" fill="#58a6ff" class="fade-6"/><circle key="Sat" cx="103.34476291166246" cy="395.5785303033459" r="3" fill="#58a6ff" class="fade-6"/><text key="Sun" x="144" y="326" class="t t-value" text-anchor="middle">Sun</text><text key="Mon" x="226.87413714161116" y="365.91008100297427" class="t t-value" text-anchor="middle">Mon</text><text key="Tue" x="247.34235869127332" y="455.5872189993693" class="t t-value" text-anchor="middle">Tue</text><text key="Wed" x="189.99167634646116" y="527.5026999976565" class="t t-value" text-anchor="middle">Wed</text><text key="Thu" x="98.00832365353884" y="527.5026999976565" class="t t-value" text-anchor="middle">Thu</text><text key="Fri" x="40.657641308726696" y="455.5872189993693" class="t t-value" text-anchor="middle">Fri</text><text key="Sat" x="61.12586285838883" y="365.91008100297427" class="t t-value" text-anchor="middle">Sat</text><text x="324" y="338" class="t t-stat-label">COMMITS</text><text x="324" y="360" fill="#58a6ff" class="t t-stat-value">2,891</text><text x="324" y="380" class="t t-stat-label">PRS</text><text x="324" y="402" fill="#3fb950" class="t t-stat-value">191</text><text x="324" y="422" class="t t-stat-label">REVIEWS</text><text x="324" y="444" fill="#d29922" class="t t-stat-value">5</text><text x="324" y="464" class="t t-stat-label">REPOS</text><text x="324" y="486" fill="#bc8cff" class="t t-stat-value">29</text><text x="324" y="506" class="t t-stat-label">STREAK</text><text x="324" y="528" fill="#39d2c0" class="t t-stat-value">41d</text><text x="24" y="614" class="t t-h">OPEN SOURCE IMPACT</text><text x="24" y="630" class="t t-sub">External repositories contributed to</text><text x="24" y="664" class="t t-card-title fade-1">getzep/graphiti</text><rect x="280" y="654" width="340" height="12" rx="3" fill="#58a6ff" fill-opacity="0.7" class="fade-1"/><text x="636" y="664" class="t t-value fade-1">★ 26,763</text><text x="728" y="664" class="t t-value fade-1">Python</text><text x="24" y="710" class="t t-card-title fade-2">googleapis/python-aiplatform</text><rect x="280" y="700" width="226.7133045959548" height="12" rx="3" fill="#3fb950" fill-opacity="0.7" class="fade-2"/><text x="636" y="710" class="t t-value fade-2">★ 895</text><text x="728" y="710" class="t t-value fade-2">Python</text><text x="24" y="756" class="t t-card-title fade-3">MathisWellmann/gym-rs</text><rect x="280" y="746" width="162.8428747983967" height="12" rx="3" fill="#d29922" fill-opacity="0.7" class="fade-3"/><text x="636" y="756" class="t t-value fade-3">★ 131</text><text x="728" y="756" class="t t-value fade-3">Rust</text><text x="24" y="828" class="t t-h">TECH STACK</text><text x="24" y="844" class="t t-sub">Projects arranged by abstraction layer</text><rect x="24" y="854" width="760" height="124" rx="8" fill="#bc8cff" fill-opacity="0.08" class="fade-1"/><text x="40" y="890" class="t t-subhdr fade-1" fill-opacity="0.9">AI &amp; RESEARCH</text><rect x="40" y="902" width="176" height="52" rx="6" class="card-fill fade-1"/><text x="50" y="922" class="t t-card-title fade-1">linear-gp</text><text x="206" y="922" class="t t-value fade-1" text-anchor="end" font-size="9">★ 2</text><circle cx="54" cy="940" r="3" fill="#dea584" fill-opacity="0.8" class="fade-1"/><text x="62" y="943" class="t muted-fill fade-1" font-size="9">Rust</text><rect x="228" y="902" width="176" height="52" rx="6" class="card-fill fade-1"/><text x="238" y="922" class="t t-card-title fade-1">experimental-transf…</text><text x="394" y="922" class="t t-value fade-1" text-anchor="end" font-size="9">★ 0</text><circle cx="242" cy="940" r="3" fill="#3572A5" fill-opacity="0.8" class="fade-1"/><text x="250" y="943" class="t muted-fill fade-1" font-size="9">Python</text><rect x="24" y="986" width="760" height="124" rx="8" fill="#d29922" fill-opacity="0.08" class="fade-2"/><text x="40" y="1022" class="t t-subhdr fade-2" fill-opacity="0.9">APPLICATIONS</text><rect x="40" y="1034" width="176" height="52" rx="6" class="card-fill fade-2"/><text x="50" y="1054" class="t t-card-title fade-2">urmzd.com</text><text x="206" y="1054" class="t t-value fade-2" text-anchor="end" font-size="9">★ 1</text><circle cx="54" cy="1072" r="3" fill="#3178c6" fill-opacity="0.8" class="fade-2"/><text x="62" y="1075" class="t muted-fill fade-2" font-size="9">TypeScript</text><rect x="228" y="1034" width="176" height="52" rx="6" class="card-fill fade-2"/><text x="238" y="1054" class="t t-card-title fade-2">languide</text><text x="394" y="1054" class="t t-value fade-2" text-anchor="end" font-size="9">★ 0</text><circle cx="242" cy="1072" r="3" fill="#8b949e" fill-opacity="0.8" class="fade-2"/><text x="250" y="1075" class="t muted-fill fade-2" font-size="9">Other</text><rect x="416" y="1034" width="176" height="52" rx="6" class="card-fill fade-2"/><text x="426" y="1054" class="t t-card-title fade-2">urmzd</text><text x="582" y="1054" class="t t-value fade-2" text-anchor="end" font-size="9">★ 0</text><circle cx="430" cy="1072" r="3" fill="#8b949e" fill-opacity="0.8" class="fade-2"/><text x="438" y="1075" class="t muted-fill fade-2" font-size="9">Other</text><rect x="24" y="1118" width="760" height="124" rx="8" fill="#58a6ff" fill-opacity="0.08" class="fade-3"/><text x="40" y="1154" class="t t-subhdr fade-3" fill-opacity="0.9">LIBRARIES &amp; SDKS</text><rect x="40" y="1166" width="176" height="52" rx="6" class="card-fill fade-3"/><text x="50" y="1186" class="t t-card-title fade-3">zigbee-skill</text><text x="206" y="1186" class="t t-value fade-3" text-anchor="end" font-size="9">★ 0</text><circle cx="54" cy="1204" r="3" fill="#00ADD8" fill-opacity="0.8" class="fade-3"/><text x="62" y="1207" class="t muted-fill fade-3" font-size="9">Go</text><rect x="228" y="1166" width="176" height="52" rx="6" class="card-fill fade-3"/><text x="238" y="1186" class="t t-card-title fade-3">saige</text><text x="394" y="1186" class="t t-value fade-3" text-anchor="end" font-size="9">★ 2</text><circle cx="242" cy="1204" r="3" fill="#00ADD8" fill-opacity="0.8" class="fade-3"/><text x="250" y="1207" class="t muted-fill fade-3" font-size="9">Go</text><rect x="416" y="1166" width="176" height="52" rx="6" class="card-fill fade-3"/><text x="426" y="1186" class="t t-card-title fade-3">streamsafe</text><text x="582" y="1186" class="t t-value fade-3" text-anchor="end" font-size="9">★ 0</text><circle cx="430" cy="1204" r="3" fill="#dea584" fill-opacity="0.8" class="fade-3"/><text x="438" y="1207" class="t muted-fill fade-3" font-size="9">Rust</text><rect x="24" y="1250" width="760" height="124" rx="8" fill="#3fb950" fill-opacity="0.08" class="fade-4"/><text x="40" y="1286" class="t t-subhdr fade-4" fill-opacity="0.9">INFRASTRUCTURE &amp; DEVOPS</text><rect x="40" y="1298" width="176" height="52" rx="6" class="card-fill fade-4"/><text x="50" y="1318" class="t t-card-title fade-4">incipit</text><text x="206" y="1318" class="t t-value fade-4" text-anchor="end" font-size="9">★ 12</text><circle cx="54" cy="1336" r="3" fill="#00ADD8" fill-opacity="0.8" class="fade-4"/><text x="62" y="1339" class="t muted-fill fade-4" font-size="9">Go</text><rect x="228" y="1298" width="176" height="52" rx="6" class="card-fill fade-4"/><text x="238" y="1318" class="t t-card-title fade-4">generative-artifact…</text><text x="394" y="1318" class="t t-value fade-4" text-anchor="end" font-size="9">★ 1</text><circle cx="242" cy="1336" r="3" fill="#dea584" fill-opacity="0.8" class="fade-4"/><text x="250" y="1339" class="t muted-fill fade-4" font-size="9">Rust</text><rect x="416" y="1298" width="176" height="52" rx="6" class="card-fill fade-4"/><text x="426" y="1318" class="t t-card-title fade-4">dotfiles</text><text x="582" y="1318" class="t t-value fade-4" text-anchor="end" font-size="9">★ 2</text><circle cx="430" cy="1336" r="3" fill="#000080" fill-opacity="0.8" class="fade-4"/><text x="438" y="1339" class="t muted-fill fade-4" font-size="9">Lua</text></svg>