<svg xmlns="http://www.w3.org/2000/svg" width="808" height="1326" viewBox="0 0 808 1326"><defs><style>
  .t { font-family: -apple-system,BlinkMacSystemFont,Segoe UI,Helvetica,Arial,sans-serif; font-variant-numeric: tabular-lining; }
  .t-h { font-size: 15px; fill: #eef6ff; letter-spacing: 1.6px; font-weight: 800; }
  .t-sub { font-size: 11px; fill: #b7c3d7; }
  .t-label { font-size: 12px; fill: #b7c3d7; }
  .t-value { font-size: 11px; fill: #b7c3d7; }
  .t-subhdr { font-size: 11px; fill: #b7c3d7; letter-spacing: 1px; font-weight: 800; }
  .t-stat-label { font-size: 10px; fill: #b7c3d7; font-weight: 800; letter-spacing: 0.8px; }
  .t-stat-value { font-size: 24px; font-weight: 800; }
  .t-card-title { font-size: 12px; fill: #45b3ff; font-weight: 700; }
  .t-card-detail { font-size: 11px; fill: #b7c3d7; }
  .t-pill { font-size: 11px; font-weight: 600; }
  .t-bullet { font-size: 12px; fill: #eef6ff; }
  .bg-fill { fill: #090d14; }
  .card-fill { fill: #111827; }
  .surface-fill { fill: #111827; }
  .surface-stroke { stroke: #2f3b4f; }
  .border-stroke { stroke: #2f3b4f; }
  .muted-fill { fill: #7f8ca3; }
  .secondary-fill { fill: #b7c3d7; }
  .soft-line { stroke: #2f3b4f; stroke-opacity: 0.45; }

  @keyframes fadeIn {
    from { opacity: 0; transform: translateY(8px); }
    to { opacity: 1; transform: translateY(0); }
  }
  @keyframes scaleIn {
    from { transform: scale(0); opacity: 0; }
    to { transform: scale(1); opacity: 1; }
  }
  @keyframes drawPath {
    from { stroke-dashoffset: var(--path-length); }
    to { stroke-dashoffset: 0; }
  }
  @keyframes radarReveal {
    from { transform: scale(0); opacity: 0; }
    to { transform: scale(1); opacity: 0.6; }
  }
  .fade-1 { animation: fadeIn 0.6s ease-out 0.1s both; }
  .fade-2 { animation: fadeIn 0.6s ease-out 0.25s both; }
  .fade-3 { animation: fadeIn 0.6s ease-out 0.4s both; }
  .fade-4 { animation: fadeIn 0.6s ease-out 0.55s both; }
  .fade-5 { animation: fadeIn 0.6s ease-out 0.7s both; }
  .fade-6 { animation: fadeIn 0.6s ease-out 0.85s both; }
</style></defs><rect width="808" height="1326" rx="12" class="bg-fill"/><path d="M 548 0 L 808 0 L 808 1326 L 388 1326 Z" fill="#45b3ff" opacity="0.05"/><path d="M 0 1046 L 310 1326 L 0 1326 Z" fill="#2dd4bf" opacity="0.05"/><rect x="12" y="12" width="784" height="246" rx="14" class="surface-fill surface-stroke" stroke-width="1" opacity="0.92"/><rect x="12" y="12" width="4" height="246" rx="2" fill="#45b3ff"/><text x="24" y="40" class="t t-h">LANGUAGE VELOCITY</text><text x="24" y="56" class="t t-sub">How language usage has evolved over the past year</text><path key="Lua" d="M 24,218 C 55.66666666666667,218 55.66666666666667,218 87.33333333333334,218 C 119.00000000000001,218 119.00000000000001,218 150.66666666666669,218 C 182.33333333333334,218 182.33333333333334,217.42150333016176 214,217.42150333016176 C 245.66666666666669,217.42150333016176 245.66666666666669,215.39676498572788 277.33333333333337,215.39676498572788 C 309,215.39676498572788 309,218 340.6666666666667,218 C 372.33333333333337,218 372.33333333333337,202.81446241674595 404,202.81446241674595 C 435.6666666666667,202.81446241674595 435.6666666666667,167.96003805899144 467.33333333333337,167.96003805899144 C 499.00000000000006,167.96003805899144 499.00000000000006,66 530.6666666666667,66 C 562.3333333333334,66 562.3333333333334,85.9581351094196 594,85.9581351094196 C 625.6666666666667,85.9581351094196 625.6666666666667,212.07040913415796 657.3333333333334,212.07040913415796 C 689,212.07040913415796 689,203.24833491912463 720.6666666666667,203.24833491912463 C 752.3333333333334,203.24833491912463 752.3333333333334,206.5746907706946 784,206.5746907706946 L 784,206.71931493815413 C 752.3333333333334,206.71931493815413 752.3333333333334,203.3929590865842 720.6666666666667,203.3929590865842 C 689,203.3929590865842 689,212.2150333016175 657.3333333333334,212.2150333016175 C 625.6666666666667,212.2150333016175 625.6666666666667,87.8382492863939 594,87.8382492863939 C 562.3333333333334,87.8382492863939 562.3333333333334,68.16936251189344 530.6666666666667,68.16936251189344 C 499.00000000000006,68.16936251189344 499.00000000000006,168.68315889628923 467.33333333333337,168.68315889628923 C 435.6666666666667,168.68315889628923 435.6666666666667,202.95908658420552 404,202.95908658420552 C 372.33333333333337,202.95908658420552 372.33333333333337,218 340.6666666666667,218 C 309,218 309,215.39676498572788 277.33333333333337,215.39676498572788 C 245.66666666666669,215.39676498572788 245.66666666666669,217.42150333016176 214,217.42150333016176 C 182.33333333333334,217.42150333016176 182.33333333333334,218 150.66666666666669,218 C 119.00000000000001,218 119.00000000000001,218 87.33333333333334,218 C 55.66666666666667,218 55.66666666666667,218 24,218 Z" fill="#000080" fill-opacity="0.88" class="fade-1"/><path key="Python" d="M 24,218 C 55.66666666666667,218 55.66666666666667,218 87.33333333333334,218 C 119.00000000000001,218 119.00000000000001,218 150.66666666666669,218 C 182.33333333333334,218 182.33333333333334,217.42150333016176 214,217.42150333016176 C 245.66666666666669,217.42150333016176 245.66666666666669,215.39676498572788 277.33333333333337,215.39676498572788 C 309,215.39676498572788 309,218 340.6666666666667,218 C 372.33333333333337,218 372.33333333333337,202.95908658420552 404,202.95908658420552 C 435.6666666666667,202.95908658420552 435.6666666666667,168.68315889628923 467.33333333333337,168.68315889628923 C 499.00000000000006,168.68315889628923 499.00000000000006,68.16936251189344 530.6666666666667,68.16936251189344 C 562.3333333333334,68.16936251189344 562.3333333333334,87.8382492863939 594,87.8382492863939 C 625.6666666666667,87.8382492863939 625.6666666666667,212.2150333016175 657.3333333333334,212.2150333016175 C 689,212.2150333016175 689,203.3929590865842 720.6666666666667,203.3929590865842 C 752.3333333333334,203.3929590865842 752.3333333333334,206.71931493815413 784,206.71931493815413 L 784,207.15318744053283 C 752.3333333333334,207.15318744053283 752.3333333333334,203.97145575642244 720.6666666666667,203.97145575642244 C 689,203.97145575642244 689,212.50428163653663 657.3333333333334,212.50428163653663 C 625.6666666666667,212.50428163653663 625.6666666666667,93.33396764985729 594,93.33396764985729 C 562.3333333333334,93.33396764985729 562.3333333333334,74.53282588011419 530.6666666666667,74.53282588011419 C 499.00000000000006,74.53282588011419 499.00000000000006,170.70789724072313 467.33333333333337,170.70789724072313 C 435.6666666666667,170.70789724072313 435.6666666666667,203.53758325404377 404,203.53758325404377 C 372.33333333333337,203.53758325404377 372.33333333333337,218 340.6666666666667,218 C 309,218 309,215.54138915318745 277.33333333333337,215.54138915318745 C 245.66666666666669,215.54138915318745 245.66666666666669,217.42150333016176 214,217.42150333016176 C 182.33333333333334,217.42150333016176 182.33333333333334,218 150.66666666666669,218 C 119.00000000000001,218 119.00000000000001,218 87.33333333333334,218 C 55.66666666666667,218 55.66666666666667,218 24,218 Z" fill="#3572A5" fill-opacity="0.88" class="fade-2"/><path key="TypeScript" d="M 24,218 C 55.66666666666667,218 55.66666666666667,218 87.33333333333334,218 C 119.00000000000001,218 119.00000000000001,218 150.66666666666669,218 C 182.33333333333334,218 182.33333333333334,217.42150333016176 214,217.42150333016176 C 245.66666666666669,217.42150333016176 245.66666666666669,215.54138915318745 277.33333333333337,215.54138915318745 C 309,215.54138915318745 309,218 340.6666666666667,218 C 372.33333333333337,218 372.33333333333337,203.53758325404377 404,203.53758325404377 C 435.6666666666667,203.53758325404377 435.6666666666667,170.70789724072313 467.33333333333337,170.70789724072313 C 499.00000000000006,170.70789724072313 499.00000000000006,74.53282588011419 530.6666666666667,74.53282588011419 C 562.3333333333334,74.53282588011419 562.3333333333334,93.33396764985729 594,93.33396764985729 C 625.6666666666667,93.33396764985729 625.6666666666667,212.50428163653663 657.3333333333334,212.50428163653663 C 689,212.50428163653663 689,203.97145575642244 720.6666666666667,203.97145575642244 C 752.3333333333334,203.97145575642244 752.3333333333334,207.15318744053283 784,207.15318744053283 L 784,209.32254995242627 C 752.3333333333334,209.32254995242627 752.3333333333334,206.71931493815413 720.6666666666667,206.71931493815413 C 689,206.71931493815413 689,213.66127497621312 657.3333333333334,213.66127497621312 C 625.6666666666667,213.66127497621312 625.6666666666667,118.209324452902 594,118.209324452902 C 562.3333333333334,118.209324452902 562.3333333333334,103.16841103710752 530.6666666666667,103.16841103710752 C 499.00000000000006,103.16841103710752 499.00000000000006,180.10846812559467 467.33333333333337,180.10846812559467 C 435.6666666666667,180.10846812559467 435.6666666666667,206.43006660323502 404,206.43006660323502 C 372.33333333333337,206.43006660323502 372.33333333333337,218 340.6666666666667,218 C 309,218 309,215.97526165556613 277.33333333333337,215.97526165556613 C 245.66666666666669,215.97526165556613 245.66666666666669,217.56612749762132 214,217.56612749762132 C 182.33333333333334,217.56612749762132 182.33333333333334,218 150.66666666666669,218 C 119.00000000000001,218 119.00000000000001,218 87.33333333333334,218 C 55.66666666666667,218 55.66666666666667,218 24,218 Z" fill="#3178c6" fill-opacity="0.88" class="fade-3"/><path key="Go" d="M 24,218 C 55.66666666666667,218 55.66666666666667,218 87.33333333333334,218 C 119.00000000000001,218 119.00000000000001,218 150.66666666666669,218 C 182.33333333333334,218 182.33333333333334,217.56612749762132 214,217.56612749762132 C 245.66666666666669,217.56612749762132 245.66666666666669,215.97526165556613 277.33333333333337,215.97526165556613 C 309,215.97526165556613 309,218 340.6666666666667,218 C 372.33333333333337,218 372.33333333333337,206.43006660323502 404,206.43006660323502 C 435.6666666666667,206.43006660323502 435.6666666666667,180.10846812559467 467.33333333333337,180.10846812559467 C 499.00000000000006,180.10846812559467 499.00000000000006,103.16841103710752 530.6666666666667,103.16841103710752 C 562.3333333333334,103.16841103710752 562.3333333333334,118.209324452902 594,118.209324452902 C 625.6666666666667,118.209324452902 625.6666666666667,213.66127497621312 657.3333333333334,213.66127497621312 C 689,213.66127497621312 689,206.71931493815413 720.6666666666667,206.71931493815413 C 752.3333333333334,206.71931493815413 752.3333333333334,209.32254995242627 784,209.32254995242627 L 784,212.35965746907706 C 752.3333333333334,212.35965746907706 752.3333333333334,210.62416745956233 720.6666666666667,210.62416745956233 C 689,210.62416745956233 689,215.10751665080875 657.3333333333334,215.10751665080875 C 625.6666666666667,215.10751665080875 625.6666666666667,152.48525214081826 594,152.48525214081826 C 562.3333333333334,152.48525214081826 562.3333333333334,142.65080875356801 530.6666666666667,142.65080875356801 C 499.00000000000006,142.65080875356801 499.00000000000006,193.12464319695528 467.33333333333337,193.12464319695528 C 435.6666666666667,193.12464319695528 435.6666666666667,210.3349191246432 404,210.3349191246432 C 372.33333333333337,210.3349191246432 372.33333333333337,218 340.6666666666667,218 C 309,218 309,216.69838249286394 277.33333333333337,216.69838249286394 C 245.66666666666669,216.69838249286394 245.66666666666669,217.71075166508086 214,217.71075166508086 C 182.33333333333334,217.71075166508086 182.33333333333334,218 150.66666666666669,218 C 119.00000000000001,218 119.00000000000001,218 87.33333333333334,218 C 55.66666666666667,218 55.66666666666667,218 24,218 Z" fill="#00ADD8" fill-opacity="0.88" class="fade-4"/><path key="Rust" d="M 24,218 C 55.66666666666667,218 55.66666666666667,218 87.33333333333334,218 C 119.00000000000001,218 119.00000000000001,218 150.66666666666669,218 C 182.33333333333334,218 182.33333333333334,217.71075166508086 214,217.71075166508086 C 245.66666666666669,217.71075166508086 245.66666666666669,216.69838249286394 277.33333333333337,216.69838249286394 C 309,216.69838249286394 309,218 340.6666666666667,218 C 372.33333333333337,218 372.33333333333337,210.3349191246432 404,210.3349191246432 C 435.6666666666667,210.3349191246432 435.6666666666667,193.12464319695528 467.33333333333337,193.12464319695528 C 499.00000000000006,193.12464319695528 499.00000000000006,142.65080875356801 530.6666666666667,142.65080875356801 C 562.3333333333334,142.65080875356801 562.3333333333334,152.48525214081826 594,152.48525214081826 C 625.6666666666667,152.48525214081826 625.6666666666667,215.10751665080875 657.3333333333334,215.10751665080875 C 689,215.10751665080875 689,210.62416745956233 720.6666666666667,210.62416745956233 C 752.3333333333334,210.62416745956233 752.3333333333334,212.35965746907706 784,212.35965746907706 L 784,218 C 752.3333333333334,218 752.3333333333334,218 720.6666666666667,218 C 689,218 689,218 657.3333333333334,218 C 625.6666666666667,218 625.6666666666667,218 594,218 C 562.3333333333334,218 562.3333333333334,218 530.6666666666667,218 C 499.00000000000006,218 499.00000000000006,218 467.33333333333337,218 C 435.6666666666667,218 435.6666666666667,218 404,218 C 372.33333333333337,218 372.33333333333337,218 340.6666666666667,218 C 309,218 309,218 277.33333333333337,218 C 245.66666666666669,218 245.66666666666669,218 214,218 C 182.33333333333334,218 182.33333333333334,218 150.66666666666669,218 C 119.00000000000001,218 119.00000000000001,218 87.33333333333334,218 C 55.66666666666667,218 55.66666666666667,218 24,218 Z" fill="#dea584" fill-opacity="0.88" class="fade-5"/><rect x="24" y="224" width="8" height="8" rx="2" fill="#dea584" opacity="0.95"/><text x="36" y="232" class="t t-value">Rust</text><rect x="80" y="224" width="8" height="8" rx="2" fill="#00ADD8" opacity="0.95"/><text x="92" y="232" class="t t-value">Go</text><rect x="122" y="224" width="8" height="8" rx="2" fill="#3178c6" opacity="0.95"/><text x="134" y="232" class="t t-value">TypeScript</text><rect x="220" y="224" width="8" height="8" rx="2" fill="#3572A5" opacity="0.95"/><text x="232" y="232" class="t t-value">Python</text><rect x="290" y="224" width="8" height="8" rx="2" fill="#000080" opacity="0.95"/><text x="302" y="232" class="t t-value">Lua</text><text key="Jul" x="24" y="232" class="t t-value" text-anchor="start" opacity="0">Jul</text><text key="Sep" x="150.66666666666669" y="232" class="t t-value" text-anchor="start" opacity="0">Sep</text><text key="Nov" x="277.33333333333337" y="232" class="t t-value" text-anchor="start" opacity="0">Nov</text><text key="Jan" x="404" y="232" class="t t-value" text-anchor="start" opacity="0">Jan</text><text key="Mar" x="530.6666666666667" y="232" class="t t-value" text-anchor="start" opacity="0">Mar</text><text key="May" x="657.3333333333334" y="232" class="t t-value" text-anchor="start" opacity="0">May</text><text key="Jul" x="784" y="232" class="t t-value" text-anchor="start" opacity="0">Jul</text><rect x="12" y="256" width="784" height="316" rx="14" class="surface-fill surface-stroke" stroke-width="1" opacity="0.92"/><rect x="12" y="256" width="4" height="316" rx="2" fill="#45d483"/><text x="24" y="284" class="t t-h">CONTRIBUTION RHYTHM</text><text x="24" y="300" class="t t-sub">Activity patterns and statistics over the past year</text><circle key="0.25" cx="144" cy="430" r="22.5" fill="none" class="border-stroke" stroke-width="1" stroke-opacity="0.4"/><circle key="0.5" cx="144" cy="430" r="45" fill="none" class="border-stroke" stroke-width="1" stroke-opacity="0.4"/><circle key="0.75" cx="144" cy="430" r="67.5" fill="none" class="border-stroke" stroke-width="1" stroke-opacity="0.4"/><circle key="1" cx="144" cy="430" r="90" fill="none" class="border-stroke" stroke-width="1" stroke-opacity="0.4"/><line key="Sun" x1="144" y1="430" x2="144" y2="340" class="border-stroke" stroke-width="1" stroke-opacity="0.3"/><line key="Mon" x1="144" y1="430" x2="214.36483342212267" y2="373.885917832714" class="border-stroke" stroke-width="1" stroke-opacity="0.3"/><line key="Tue" x1="144" y1="430" x2="231.74351209636413" y2="450.0268840560683" class="border-stroke" stroke-width="1" stroke-opacity="0.3"/><line key="Wed" x1="144" y1="430" x2="183.04953652058023" y2="511.08719811121773" class="border-stroke" stroke-width="1" stroke-opacity="0.3"/><line key="Thu" x1="144" y1="430" x2="104.95046347941977" y2="511.08719811121773" class="border-stroke" stroke-width="1" stroke-opacity="0.3"/><line key="Fri" x1="144" y1="430" x2="56.25648790363587" y2="450.0268840560683" class="border-stroke" stroke-width="1" stroke-opacity="0.3"/><line key="Sat" x1="144" y1="430" x2="73.63516657787731" y2="373.885917832714" class="border-stroke" stroke-width="1" stroke-opacity="0.3"/><polygon points="144,340 166.81547179120435,411.8052683917174 172.1086810902666,436.41562303256717 167.8023465062154,479.4260818087851 129.51326834046634,460.0820082574235 110.59424223010869,437.62464621803576 104.05579563281643,398.1455599770908" fill="#45b3ff" fill-opacity="0.3" stroke="#45b3ff" stroke-width="3" stroke-opacity="0.95" class="fade-2" style="transform-origin: 144px 430px"/><circle key="Sun" cx="144" cy="340" r="3" fill="#45b3ff" stroke="#ffffff" stroke-opacity="0.45" stroke-width="1" class="fade-1"/><circle key="Mon" cx="166.81547179120435" cy="411.8052683917174" r="3" fill="#45b3ff" stroke="#ffffff" stroke-opacity="0.45" stroke-width="1" class="fade-2"/><circle key="Tue" cx="172.1086810902666" cy="436.41562303256717" r="3" fill="#45b3ff" stroke="#ffffff" stroke-opacity="0.45" stroke-width="1" class="fade-3"/><circle key="Wed" cx="167.8023465062154" cy="479.4260818087851" r="3" fill="#45b3ff" stroke="#ffffff" stroke-opacity="0.45" stroke-width="1" class="fade-4"/><circle key="Thu" cx="129.51326834046634" cy="460.0820082574235" r="3" fill="#45b3ff" stroke="#ffffff" stroke-opacity="0.45" stroke-width="1" class="fade-5"/><circle key="Fri" cx="110.59424223010869" cy="437.62464621803576" r="3" fill="#45b3ff" stroke="#ffffff" stroke-opacity="0.45" stroke-width="1" class="fade-6"/><circle key="Sat" cx="104.05579563281643" cy="398.1455599770908" r="3" fill="#45b3ff" stroke="#ffffff" stroke-opacity="0.45" stroke-width="1" class="fade-6"/><text key="Sun" x="144" y="328" class="t t-value" text-anchor="middle">Sun</text><text key="Mon" x="226.87413714161116" y="367.91008100297427" class="t t-value" text-anchor="middle">Mon</text><text key="Tue" x="247.34235869127332" y="457.5872189993693" class="t t-value" text-anchor="middle">Tue</text><text key="Wed" x="189.99167634646116" y="529.5026999976565" class="t t-value" text-anchor="middle">Wed</text><text key="Thu" x="98.00832365353884" y="529.5026999976565" class="t t-value" text-anchor="middle">Thu</text><text key="Fri" x="40.657641308726696" y="457.5872189993693" class="t t-value" text-anchor="middle">Fri</text><text key="Sat" x="61.12586285838883" y="367.91008100297427" class="t t-value" text-anchor="middle">Sat</text><text x="324" y="340" class="t t-stat-label">COMMITS</text><text x="324" y="362" fill="#45b3ff" class="t t-stat-value">3,133</text><text x="324" y="382" class="t t-stat-label">PRS</text><text x="324" y="404" fill="#45d483" class="t t-stat-value">244</text><text x="324" y="424" class="t t-stat-label">REVIEWS</text><text x="324" y="446" fill="#f6b342" class="t t-stat-value">5</text><text x="324" y="466" class="t t-stat-label">REPOS</text><text x="324" y="488" fill="#a88cff" class="t t-stat-value">31</text><text x="324" y="508" class="t t-stat-label">STREAK</text><text x="324" y="530" fill="#2dd4bf" class="t t-stat-value">41d</text><rect x="12" y="570" width="784" height="152" rx="14" class="surface-fill surface-stroke" stroke-width="1" opacity="0.92"/><rect x="12" y="570" width="4" height="152" rx="2" fill="#f6b342"/><text x="24" y="598" class="t t-h">OPEN SOURCE IMPACT</text><text x="24" y="614" class="t t-sub">External repositories contributed to</text><text x="24" y="648" class="t t-card-title fade-1">googleapis/python-aiplatform</text><rect x="280" y="638" width="340" height="12" rx="3" fill="#45b3ff" fill-opacity="0.7" class="fade-1"/><text x="636" y="648" class="t t-value fade-1">★ 900</text><text x="728" y="648" class="t t-value fade-1">Python</text><text x="24" y="694" class="t t-card-title fade-2">MathisWellmann/gym-rs</text><rect x="280" y="684" width="244.01431186120166" height="12" rx="3" fill="#45d483" fill-opacity="0.7" class="fade-2"/><text x="636" y="694" class="t t-value fade-2">★ 131</text><text x="728" y="694" class="t t-value fade-2">Rust</text><rect x="12" y="720" width="784" height="594" rx="14" class="surface-fill surface-stroke" stroke-width="1" opacity="0.92"/><rect x="12" y="720" width="4" height="594" rx="2" fill="#ff6b5f"/><text x="24" y="748" class="t t-h">TECH STACK</text><text x="24" y="764" class="t t-sub">Projects arranged by abstraction layer</text><rect x="24" y="774" width="760" height="124" rx="8" fill="#bc8cff" fill-opacity="0.08" class="fade-1"/><text x="40" y="810" class="t t-subhdr fade-1" fill-opacity="0.9">AI &amp; RESEARCH</text><rect x="40" y="822" width="176" height="52" rx="6" class="card-fill fade-1"/><text x="50" y="842" class="t t-card-title fade-1">glassbox-lm</text><text x="206" y="842" class="t t-value fade-1" text-anchor="end" font-size="9">★ 0</text><circle cx="54" cy="860" r="3" fill="#3572A5" fill-opacity="0.8" class="fade-1"/><text x="62" y="863" class="t muted-fill fade-1" font-size="9">Python</text><rect x="228" y="822" width="176" height="52" rx="6" class="card-fill fade-1"/><text x="238" y="842" class="t t-card-title fade-1">linear-gp</text><text x="394" y="842" class="t t-value fade-1" text-anchor="end" font-size="9">★ 2</text><circle cx="242" cy="860" r="3" fill="#dea584" fill-opacity="0.8" class="fade-1"/><text x="250" y="863" class="t muted-fill fade-1" font-size="9">Rust</text><rect x="416" y="822" width="176" height="52" rx="6" class="card-fill fade-1"/><text x="426" y="842" class="t t-card-title fade-1">gymnasia</text><text x="582" y="842" class="t t-value fade-1" text-anchor="end" font-size="9">★ 1</text><circle cx="430" cy="860" r="3" fill="#dea584" fill-opacity="0.8" class="fade-1"/><text x="438" y="863" class="t muted-fill fade-1" font-size="9">Rust</text><rect x="24" y="906" width="760" height="124" rx="8" fill="#d29922" fill-opacity="0.08" class="fade-2"/><text x="40" y="942" class="t t-subhdr fade-2" fill-opacity="0.9">APPLICATIONS</text><rect x="40" y="954" width="176" height="52" rx="6" class="card-fill fade-2"/><text x="50" y="974" class="t t-card-title fade-2">urmzd.com</text><text x="206" y="974" class="t t-value fade-2" text-anchor="end" font-size="9">★ 1</text><circle cx="54" cy="992" r="3" fill="#3178c6" fill-opacity="0.8" class="fade-2"/><text x="62" y="995" class="t muted-fill fade-2" font-size="9">TypeScript</text><rect x="228" y="954" width="176" height="52" rx="6" class="card-fill fade-2"/><text x="238" y="974" class="t t-card-title fade-2">languide</text><text x="394" y="974" class="t t-value fade-2" text-anchor="end" font-size="9">★ 0</text><circle cx="242" cy="992" r="3" fill="#8b949e" fill-opacity="0.8" class="fade-2"/><text x="250" y="995" class="t muted-fill fade-2" font-size="9">Other</text><rect x="416" y="954" width="176" height="52" rx="6" class="card-fill fade-2"/><text x="426" y="974" class="t t-card-title fade-2">urmzd</text><text x="582" y="974" class="t t-value fade-2" text-anchor="end" font-size="9">★ 0</text><circle cx="430" cy="992" r="3" fill="#8b949e" fill-opacity="0.8" class="fade-2"/><text x="438" y="995" class="t muted-fill fade-2" font-size="9">Other</text><rect x="24" y="1038" width="760" height="124" rx="8" fill="#58a6ff" fill-opacity="0.08" class="fade-3"/><text x="40" y="1074" class="t t-subhdr fade-3" fill-opacity="0.9">LIBRARIES &amp; SDKS</text><rect x="40" y="1086" width="176" height="52" rx="6" class="card-fill fade-3"/><text x="50" y="1106" class="t t-card-title fade-3">saige</text><text x="206" y="1106" class="t t-value fade-3" text-anchor="end" font-size="9">★ 4</text><circle cx="54" cy="1124" r="3" fill="#00ADD8" fill-opacity="0.8" class="fade-3"/><text x="62" y="1127" class="t muted-fill fade-3" font-size="9">Go</text><rect x="24" y="1170" width="760" height="124" rx="8" fill="#3fb950" fill-opacity="0.08" class="fade-4"/><text x="40" y="1206" class="t t-subhdr fade-4" fill-opacity="0.9">INFRASTRUCTURE &amp; DEVOPS</text><rect x="40" y="1218" width="176" height="52" rx="6" class="card-fill fade-4"/><text x="50" y="1238" class="t t-card-title fade-4">incipit</text><text x="206" y="1238" class="t t-value fade-4" text-anchor="end" font-size="9">★ 12</text><circle cx="54" cy="1256" r="3" fill="#00ADD8" fill-opacity="0.8" class="fade-4"/><text x="62" y="1259" class="t muted-fill fade-4" font-size="9">Go</text><rect x="228" y="1218" width="176" height="52" rx="6" class="card-fill fade-4"/><text x="238" y="1238" class="t t-card-title fade-4">zigbee-skill</text><text x="394" y="1238" class="t t-value fade-4" text-anchor="end" font-size="9">★ 0</text><circle cx="242" cy="1256" r="3" fill="#00ADD8" fill-opacity="0.8" class="fade-4"/><text x="250" y="1259" class="t muted-fill fade-4" font-size="9">Go</text><rect x="416" y="1218" width="176" height="52" rx="6" class="card-fill fade-4"/><text x="426" y="1238" class="t t-card-title fade-4">generative-artifact…</text><text x="582" y="1238" class="t t-value fade-4" text-anchor="end" font-size="9">★ 1</text><circle cx="430" cy="1256" r="3" fill="#00ADD8" fill-opacity="0.8" class="fade-4"/><text x="438" y="1259" class="t muted-fill fade-4" font-size="9">Go</text></svg>