<svg xmlns="http://www.w3.org/2000/svg" width="808" height="1326" viewBox="0 0 808 1326"><defs><style>
  .t { font-family: -apple-system,BlinkMacSystemFont,Segoe UI,Helvetica,Arial,sans-serif; font-variant-numeric: tabular-lining; }
  .t-h { font-size: 15px; fill: #eef6ff; letter-spacing: 1.6px; font-weight: 800; }
  .t-sub { font-size: 11px; fill: #b7c3d7; }
  .t-label { font-size: 12px; fill: #b7c3d7; }
  .t-value { font-size: 11px; fill: #b7c3d7; }
  .t-subhdr { font-size: 11px; fill: #b7c3d7; letter-spacing: 1px; font-weight: 800; }
  .t-stat-label { font-size: 10px; fill: #b7c3d7; font-weight: 800; letter-spacing: 0.8px; }
  .t-stat-value { font-size: 24px; font-weight: 800; }
  .t-card-title { font-size: 12px; fill: #45b3ff; font-weight: 700; }
  .t-card-detail { font-size: 11px; fill: #b7c3d7; }
  .t-pill { font-size: 11px; font-weight: 600; }
  .t-bullet { font-size: 12px; fill: #eef6ff; }
  .bg-fill { fill: #090d14; }
  .card-fill { fill: #111827; }
  .surface-fill { fill: #111827; }
  .surface-stroke { stroke: #2f3b4f; }
  .border-stroke { stroke: #2f3b4f; }
  .muted-fill { fill: #7f8ca3; }
  .secondary-fill { fill: #b7c3d7; }
  .soft-line { stroke: #2f3b4f; stroke-opacity: 0.45; }

  @keyframes fadeIn {
    from { opacity: 0; transform: translateY(8px); }
    to { opacity: 1; transform: translateY(0); }
  }
  @keyframes scaleIn {
    from { transform: scale(0); opacity: 0; }
    to { transform: scale(1); opacity: 1; }
  }
  @keyframes drawPath {
    from { stroke-dashoffset: var(--path-length); }
    to { stroke-dashoffset: 0; }
  }
  @keyframes radarReveal {
    from { transform: scale(0); opacity: 0; }
    to { transform: scale(1); opacity: 0.6; }
  }
  .fade-1 { animation: fadeIn 0.6s ease-out 0.1s both; }
  .fade-2 { animation: fadeIn 0.6s ease-out 0.25s both; }
  .fade-3 { animation: fadeIn 0.6s ease-out 0.4s both; }
  .fade-4 { animation: fadeIn 0.6s ease-out 0.55s both; }
  .fade-5 { animation: fadeIn 0.6s ease-out 0.7s both; }
  .fade-6 { animation: fadeIn 0.6s ease-out 0.85s both; }
</style></defs><rect width="808" height="1326" rx="12" class="bg-fill"/><path d="M 548 0 L 808 0 L 808 1326 L 388 1326 Z" fill="#45b3ff" opacity="0.05"/><path d="M 0 1046 L 310 1326 L 0 1326 Z" fill="#2dd4bf" opacity="0.05"/><rect x="12" y="12" width="784" height="246" rx="14" class="surface-fill surface-stroke" stroke-width="1" opacity="0.92"/><rect x="12" y="12" width="4" height="246" rx="2" fill="#45b3ff"/><text x="24" y="40" class="t t-h">LANGUAGE VELOCITY</text><text x="24" y="56" class="t t-sub">How language usage has evolved over the past year</text><path key="Lua" d="M 24,217.44877606527652 C 55.66666666666667,217.44877606527652 55.66666666666667,215.51949229374432 87.33333333333334,215.51949229374432 C 119.00000000000001,215.51949229374432 119.00000000000001,218 150.66666666666669,218 C 182.33333333333334,218 182.33333333333334,202.7035358114234 214,202.7035358114234 C 245.66666666666669,202.7035358114234 245.66666666666669,167.42520398912058 277.33333333333337,167.42520398912058 C 309,167.42520398912058 309,66 340.6666666666667,66 C 372.33333333333337,66 372.33333333333337,87.3599274705349 404,87.3599274705349 C 435.6666666666667,87.3599274705349 435.6666666666667,212.21214868540343 467.33333333333337,212.21214868540343 C 499.00000000000006,212.21214868540343 499.00000000000006,201.32547597461468 530.6666666666667,201.32547597461468 C 562.3333333333334,201.32547597461468 562.3333333333334,195.53762466001814 594,195.53762466001814 C 625.6666666666667,195.53762466001814 625.6666666666667,217.44877606527652 657.3333333333334,217.44877606527652 C 689,217.44877606527652 689,203.25475974614687 720.6666666666667,203.25475974614687 C 752.3333333333334,203.25475974614687 752.3333333333334,179.27651858567543 784,179.27651858567543 L 784,179.8277425203989 C 752.3333333333334,179.8277425203989 752.3333333333334,203.39256572982774 720.6666666666667,203.39256572982774 C 689,203.39256572982774 689,217.44877606527652 657.3333333333334,217.44877606527652 C 625.6666666666667,217.44877606527652 625.6666666666667,195.81323662737987 594,195.81323662737987 C 562.3333333333334,195.81323662737987 562.3333333333334,201.60108794197643 530.6666666666667,201.60108794197643 C 499.00000000000006,201.60108794197643 499.00000000000006,212.34995466908433 467.33333333333337,212.34995466908433 C 435.6666666666667,212.34995466908433 435.6666666666667,89.01359927470534 404,89.01359927470534 C 372.33333333333337,89.01359927470534 372.33333333333337,67.92928377153217 340.6666666666667,67.92928377153217 C 309,67.92928377153217 309,168.11423390752492 277.33333333333337,168.11423390752492 C 245.66666666666669,168.11423390752492 245.66666666666669,202.84134179510426 214,202.84134179510426 C 182.33333333333334,202.84134179510426 182.33333333333334,218 150.66666666666669,218 C 119.00000000000001,218 119.00000000000001,215.51949229374432 87.33333333333334,215.51949229374432 C 55.66666666666667,215.51949229374432 55.66666666666667,217.44877606527652 24,217.44877606527652 Z" fill="#000080" fill-opacity="0.88" class="fade-1"/><path key="Python" d="M 24,217.44877606527652 C 55.66666666666667,217.44877606527652 55.66666666666667,215.51949229374432 87.33333333333334,215.51949229374432 C 119.00000000000001,215.51949229374432 119.00000000000001,218 150.66666666666669,218 C 182.33333333333334,218 182.33333333333334,202.84134179510426 214,202.84134179510426 C 245.66666666666669,202.84134179510426 245.66666666666669,168.11423390752492 277.33333333333337,168.11423390752492 C 309,168.11423390752492 309,67.92928377153217 340.6666666666667,67.92928377153217 C 372.33333333333337,67.92928377153217 372.33333333333337,89.01359927470534 404,89.01359927470534 C 435.6666666666667,89.01359927470534 435.6666666666667,212.34995466908433 467.33333333333337,212.34995466908433 C 499.00000000000006,212.34995466908433 499.00000000000006,201.60108794197643 530.6666666666667,201.60108794197643 C 562.3333333333334,201.60108794197643 562.3333333333334,195.81323662737987 594,195.81323662737987 C 625.6666666666667,195.81323662737987 625.6666666666667,217.44877606527652 657.3333333333334,217.44877606527652 C 689,217.44877606527652 689,203.39256572982774 720.6666666666667,203.39256572982774 C 752.3333333333334,203.39256572982774 752.3333333333334,179.8277425203989 784,179.8277425203989 L 784,183.961922030825 C 752.3333333333334,183.961922030825 752.3333333333334,204.90843155031732 720.6666666666667,204.90843155031732 C 689,204.90843155031732 689,217.44877606527652 657.3333333333334,217.44877606527652 C 625.6666666666667,217.44877606527652 625.6666666666667,198.15593834995468 594,198.15593834995468 C 562.3333333333334,198.15593834995468 562.3333333333334,203.39256572982774 530.6666666666667,203.39256572982774 C 499.00000000000006,203.39256572982774 499.00000000000006,212.9011786038078 467.33333333333337,212.9011786038078 C 435.6666666666667,212.9011786038078 435.6666666666667,102.93200362647325 404,102.93200362647325 C 372.33333333333337,102.93200362647325 372.33333333333337,84.05258386219401 340.6666666666667,84.05258386219401 C 309,84.05258386219401 309,173.48866727107887 277.33333333333337,173.48866727107887 C 245.66666666666669,173.48866727107887 245.66666666666669,204.4950135992747 214,204.4950135992747 C 182.33333333333334,204.4950135992747 182.33333333333334,218 150.66666666666669,218 C 119.00000000000001,218 119.00000000000001,215.79510426110608 87.33333333333334,215.79510426110608 C 55.66666666666667,215.79510426110608 55.66666666666667,217.44877606527652 24,217.44877606527652 Z" fill="#3572A5" fill-opacity="0.88" class="fade-2"/><path key="TypeScript" d="M 24,217.44877606527652 C 55.66666666666667,217.44877606527652 55.66666666666667,215.79510426110608 87.33333333333334,215.79510426110608 C 119.00000000000001,215.79510426110608 119.00000000000001,218 150.66666666666669,218 C 182.33333333333334,218 182.33333333333334,204.4950135992747 214,204.4950135992747 C 245.66666666666669,204.4950135992747 245.66666666666669,173.48866727107887 277.33333333333337,173.48866727107887 C 309,173.48866727107887 309,84.05258386219401 340.6666666666667,84.05258386219401 C 372.33333333333337,84.05258386219401 372.33333333333337,102.93200362647325 404,102.93200362647325 C 435.6666666666667,102.93200362647325 435.6666666666667,212.9011786038078 467.33333333333337,212.9011786038078 C 499.00000000000006,212.9011786038078 499.00000000000006,203.39256572982774 530.6666666666667,203.39256572982774 C 562.3333333333334,203.39256572982774 562.3333333333334,198.15593834995468 594,198.15593834995468 C 625.6666666666667,198.15593834995468 625.6666666666667,217.44877606527652 657.3333333333334,217.44877606527652 C 689,217.44877606527652 689,204.90843155031732 720.6666666666667,204.90843155031732 C 752.3333333333334,204.90843155031732 752.3333333333334,183.961922030825 784,183.961922030825 L 784,190.1631912964642 C 752.3333333333334,190.1631912964642 752.3333333333334,207.2511332728921 720.6666666666667,207.2511332728921 C 689,207.2511332728921 689,217.58658204895738 657.3333333333334,217.58658204895738 C 625.6666666666667,217.58658204895738 625.6666666666667,201.7388939256573 594,201.7388939256573 C 562.3333333333334,201.7388939256573 562.3333333333334,206.01087941976428 530.6666666666667,206.01087941976428 C 499.00000000000006,206.01087941976428 499.00000000000006,213.86582048957388 467.33333333333337,213.86582048957388 C 435.6666666666667,213.86582048957388 435.6666666666667,123.87851314596554 404,123.87851314596554 C 372.33333333333337,123.87851314596554 372.33333333333337,108.3064369900272 340.6666666666667,108.3064369900272 C 309,108.3064369900272 309,181.61922030825022 277.33333333333337,181.61922030825022 C 245.66666666666669,181.61922030825022 245.66666666666669,206.97552130553038 214,206.97552130553038 C 182.33333333333334,206.97552130553038 182.33333333333334,218 150.66666666666669,218 C 119.00000000000001,218 119.00000000000001,216.2085222121487 87.33333333333334,216.2085222121487 C 55.66666666666667,216.2085222121487 55.66666666666667,217.58658204895738 24,217.58658204895738 Z" fill="#3178c6" fill-opacity="0.88" class="fade-3"/><path key="Go" d="M 24,217.58658204895738 C 55.66666666666667,217.58658204895738 55.66666666666667,216.2085222121487 87.33333333333334,216.2085222121487 C 119.00000000000001,216.2085222121487 119.00000000000001,218 150.66666666666669,218 C 182.33333333333334,218 182.33333333333334,206.97552130553038 214,206.97552130553038 C 245.66666666666669,206.97552130553038 245.66666666666669,181.61922030825022 277.33333333333337,181.61922030825022 C 309,181.61922030825022 309,108.3064369900272 340.6666666666667,108.3064369900272 C 372.33333333333337,108.3064369900272 372.33333333333337,123.87851314596554 404,123.87851314596554 C 435.6666666666667,123.87851314596554 435.6666666666667,213.86582048957388 467.33333333333337,213.86582048957388 C 499.00000000000006,213.86582048957388 499.00000000000006,206.01087941976428 530.6666666666667,206.01087941976428 C 562.3333333333334,206.01087941976428 562.3333333333334,201.7388939256573 594,201.7388939256573 C 625.6666666666667,201.7388939256573 625.6666666666667,217.58658204895738 657.3333333333334,217.58658204895738 C 689,217.58658204895738 689,207.2511332728921 720.6666666666667,207.2511332728921 C 752.3333333333334,207.2511332728921 752.3333333333334,190.1631912964642 784,190.1631912964642 L 784,199.12058023572075 C 752.3333333333334,199.12058023572075 752.3333333333334,210.69628286491388 720.6666666666667,210.69628286491388 C 689,210.69628286491388 689,217.72438803263825 657.3333333333334,217.72438803263825 C 625.6666666666667,217.72438803263825 625.6666666666667,206.97552130553038 594,206.97552130553038 C 562.3333333333334,206.97552130553038 562.3333333333334,209.86944696282865 530.6666666666667,209.86944696282865 C 499.00000000000006,209.86944696282865 499.00000000000006,215.2438803263826 467.33333333333337,215.2438803263826 C 435.6666666666667,215.2438803263826 435.6666666666667,154.19582955575703 404,154.19582955575703 C 372.33333333333337,154.19582955575703 372.33333333333337,143.72257479601086 340.6666666666667,143.72257479601086 C 309,143.72257479601086 309,193.33272892112421 277.33333333333337,193.33272892112421 C 245.66666666666669,193.33272892112421 245.66666666666669,210.558476881233 214,210.558476881233 C 182.33333333333334,210.558476881233 182.33333333333334,218 150.66666666666669,218 C 119.00000000000001,218 119.00000000000001,216.75974614687217 87.33333333333334,216.75974614687217 C 55.66666666666667,216.75974614687217 55.66666666666667,217.72438803263825 24,217.72438803263825 Z" fill="#00ADD8" fill-opacity="0.88" class="fade-4"/><path key="Rust" d="M 24,217.72438803263825 C 55.66666666666667,217.72438803263825 55.66666666666667,216.75974614687217 87.33333333333334,216.75974614687217 C 119.00000000000001,216.75974614687217 119.00000000000001,218 150.66666666666669,218 C 182.33333333333334,218 182.33333333333334,210.558476881233 214,210.558476881233 C 245.66666666666669,210.558476881233 245.66666666666669,193.33272892112421 277.33333333333337,193.33272892112421 C 309,193.33272892112421 309,143.72257479601086 340.6666666666667,143.72257479601086 C 372.33333333333337,143.72257479601086 372.33333333333337,154.19582955575703 404,154.19582955575703 C 435.6666666666667,154.19582955575703 435.6666666666667,215.2438803263826 467.33333333333337,215.2438803263826 C 499.00000000000006,215.2438803263826 499.00000000000006,209.86944696282865 530.6666666666667,209.86944696282865 C 562.3333333333334,209.86944696282865 562.3333333333334,206.97552130553038 594,206.97552130553038 C 625.6666666666667,206.97552130553038 625.6666666666667,217.72438803263825 657.3333333333334,217.72438803263825 C 689,217.72438803263825 689,210.69628286491388 720.6666666666667,210.69628286491388 C 752.3333333333334,210.69628286491388 752.3333333333334,199.12058023572075 784,199.12058023572075 L 784,218 C 752.3333333333334,218 752.3333333333334,218 720.6666666666667,218 C 689,218 689,218 657.3333333333334,218 C 625.6666666666667,218 625.6666666666667,218 594,218 C 562.3333333333334,218 562.3333333333334,218 530.6666666666667,218 C 499.00000000000006,218 499.00000000000006,218 467.33333333333337,218 C 435.6666666666667,218 435.6666666666667,218 404,218 C 372.33333333333337,218 372.33333333333337,218 340.6666666666667,218 C 309,218 309,218 277.33333333333337,218 C 245.66666666666669,218 245.66666666666669,218 214,218 C 182.33333333333334,218 182.33333333333334,218 150.66666666666669,218 C 119.00000000000001,218 119.00000000000001,218 87.33333333333334,218 C 55.66666666666667,218 55.66666666666667,218 24,218 Z" fill="#dea584" fill-opacity="0.88" class="fade-5"/><rect x="24" y="224" width="8" height="8" rx="2" fill="#dea584" opacity="0.95"/><text x="36" y="232" class="t t-value">Rust</text><rect x="80" y="224" width="8" height="8" rx="2" fill="#00ADD8" opacity="0.95"/><text x="92" y="232" class="t t-value">Go</text><rect x="122" y="224" width="8" height="8" rx="2" fill="#3178c6" opacity="0.95"/><text x="134" y="232" class="t t-value">TypeScript</text><rect x="220" y="224" width="8" height="8" rx="2" fill="#3572A5" opacity="0.95"/><text x="232" y="232" class="t t-value">Python</text><rect x="290" y="224" width="8" height="8" rx="2" fill="#000080" opacity="0.95"/><text x="302" y="232" class="t t-value">Lua</text><text key="Oct" x="24" y="232" class="t t-value" text-anchor="start" opacity="0">Oct</text><text key="Dec" x="150.66666666666669" y="232" class="t t-value" text-anchor="start" opacity="0">Dec</text><text key="Feb" x="277.33333333333337" y="232" class="t t-value" text-anchor="start" opacity="0">Feb</text><text key="Apr" x="404" y="232" class="t t-value" text-anchor="start" opacity="0">Apr</text><text key="Jun" x="530.6666666666667" y="232" class="t t-value" text-anchor="start" opacity="0">Jun</text><text key="Aug" x="657.3333333333334" y="232" class="t t-value" text-anchor="start" opacity="0">Aug</text><text key="Oct" x="784" y="232" class="t t-value" text-anchor="start" opacity="0">Oct</text><rect x="12" y="256" width="784" height="316" rx="14" class="surface-fill surface-stroke" stroke-width="1" opacity="0.92"/><rect x="12" y="256" width="4" height="316" rx="2" fill="#45d483"/><text x="24" y="284" class="t t-h">CONTRIBUTION RHYTHM</text><text x="24" y="300" class="t t-sub">Activity patterns and statistics over the past year</text><circle key="0.25" cx="144" cy="430" r="22.5" fill="none" class="border-stroke" stroke-width="1" stroke-opacity="0.4"/><circle key="0.5" cx="144" cy="430" r="45" fill="none" class="border-stroke" stroke-width="1" stroke-opacity="0.4"/><circle key="0.75" cx="144" cy="430" r="67.5" fill="none" class="border-stroke" stroke-width="1" stroke-opacity="0.4"/><circle key="1" cx="144" cy="430" r="90" fill="none" class="border-stroke" stroke-width="1" stroke-opacity="0.4"/><line key="Sun" x1="144" y1="430" x2="144" y2="340" class="border-stroke" stroke-width="1" stroke-opacity="0.3"/><line key="Mon" x1="144" y1="430" x2="214.36483342212267" y2="373.885917832714" class="border-stroke" stroke-width="1" stroke-opacity="0.3"/><line key="Tue" x1="144" y1="430" x2="231.74351209636413" y2="450.0268840560683" class="border-stroke" stroke-width="1" stroke-opacity="0.3"/><line key="Wed" x1="144" y1="430" x2="183.04953652058023" y2="511.08719811121773" class="border-stroke" stroke-width="1" stroke-opacity="0.3"/><line key="Thu" x1="144" y1="430" x2="104.95046347941977" y2="511.08719811121773" class="border-stroke" stroke-width="1" stroke-opacity="0.3"/><line key="Fri" x1="144" y1="430" x2="56.25648790363587" y2="450.0268840560683" class="border-stroke" stroke-width="1" stroke-opacity="0.3"/><line key="Sat" x1="144" y1="430" x2="73.63516657787731" y2="373.885917832714" class="border-stroke" stroke-width="1" stroke-opacity="0.3"/><polygon points="144,340 168.51736356171523,410.448054993977 173.5790410986872,436.7512231094934 165.46363897603322,474.56970558203693 129.4074467183546,460.3017491199585 91.7971962005081,441.9149493121034 101.15590717590266,395.8329761019748" fill="#45b3ff" fill-opacity="0.3" stroke="#45b3ff" stroke-width="3" stroke-opacity="0.95" class="fade-2" style="transform-origin: 144px 430px"/><circle key="Sun" cx="144" cy="340" r="3" fill="#45b3ff" stroke="#ffffff" stroke-opacity="0.45" stroke-width="1" class="fade-1"/><circle key="Mon" cx="168.51736356171523" cy="410.448054993977" r="3" fill="#45b3ff" stroke="#ffffff" stroke-opacity="0.45" stroke-width="1" class="fade-2"/><circle key="Tue" cx="173.5790410986872" cy="436.7512231094934" r="3" fill="#45b3ff" stroke="#ffffff" stroke-opacity="0.45" stroke-width="1" class="fade-3"/><circle key="Wed" cx="165.46363897603322" cy="474.56970558203693" r="3" fill="#45b3ff" stroke="#ffffff" stroke-opacity="0.45" stroke-width="1" class="fade-4"/><circle key="Thu" cx="129.4074467183546" cy="460.3017491199585" r="3" fill="#45b3ff" stroke="#ffffff" stroke-opacity="0.45" stroke-width="1" class="fade-5"/><circle key="Fri" cx="91.7971962005081" cy="441.9149493121034" r="3" fill="#45b3ff" stroke="#ffffff" stroke-opacity="0.45" stroke-width="1" class="fade-6"/><circle key="Sat" cx="101.15590717590266" cy="395.8329761019748" r="3" fill="#45b3ff" stroke="#ffffff" stroke-opacity="0.45" stroke-width="1" class="fade-6"/><text key="Sun" x="144" y="328" class="t t-value" text-anchor="middle">Sun</text><text key="Mon" x="226.87413714161116" y="367.91008100297427" class="t t-value" text-anchor="middle">Mon</text><text key="Tue" x="247.34235869127332" y="457.5872189993693" class="t t-value" text-anchor="middle">Tue</text><text key="Wed" x="189.99167634646116" y="529.5026999976565" class="t t-value" text-anchor="middle">Wed</text><text key="Thu" x="98.00832365353884" y="529.5026999976565" class="t t-value" text-anchor="middle">Thu</text><text key="Fri" x="40.657641308726696" y="457.5872189993693" class="t t-value" text-anchor="middle">Fri</text><text key="Sat" x="61.12586285838883" y="367.91008100297427" class="t t-value" text-anchor="middle">Sat</text><text x="324" y="340" class="t t-stat-label">COMMITS</text><text x="324" y="362" fill="#45b3ff" class="t t-stat-value">3,582</text><text x="324" y="382" class="t t-stat-label">PRS</text><text x="324" y="404" fill="#45d483" class="t t-stat-value">376</text><text x="324" y="424" class="t t-stat-label">REVIEWS</text><text x="324" y="446" fill="#f6b342" class="t t-stat-value">5</text><text x="324" y="466" class="t t-stat-label">REPOS</text><text x="324" y="488" fill="#a88cff" class="t t-stat-value">34</text><text x="324" y="508" class="t t-stat-label">STREAK</text><text x="324" y="530" fill="#2dd4bf" class="t t-stat-value">41d</text><rect x="12" y="570" width="784" height="152" rx="14" class="surface-fill surface-stroke" stroke-width="1" opacity="0.92"/><rect x="12" y="570" width="4" height="152" rx="2" fill="#f6b342"/><text x="24" y="598" class="t t-h">OPEN SOURCE IMPACT</text><text x="24" y="614" class="t t-sub">External repositories contributed to</text><text x="24" y="648" class="t t-card-title fade-1">googleapis/python-aiplatform</text><rect x="280" y="638" width="340" height="12" rx="3" fill="#45b3ff" fill-opacity="0.7" class="fade-1"/><text x="636" y="648" class="t t-value fade-1">★ 907</text><text x="728" y="648" class="t t-value fade-1">Python</text><text x="24" y="694" class="t t-card-title fade-2">MathisWellmann/gym-rs</text><rect x="280" y="684" width="244.48770876802348" height="12" rx="3" fill="#45d483" fill-opacity="0.7" class="fade-2"/><text x="636" y="694" class="t t-value fade-2">★ 133</text><text x="728" y="694" class="t t-value fade-2">Rust</text><rect x="12" y="720" width="784" height="594" rx="14" class="surface-fill surface-stroke" stroke-width="1" opacity="0.92"/><rect x="12" y="720" width="4" height="594" rx="2" fill="#ff6b5f"/><text x="24" y="748" class="t t-h">TECH STACK</text><text x="24" y="764" class="t t-sub">Projects arranged by abstraction layer</text><rect x="24" y="774" width="760" height="124" rx="8" fill="#bc8cff" fill-opacity="0.08" class="fade-1"/><text x="40" y="810" class="t t-subhdr fade-1" fill-opacity="0.9">AI &amp; RESEARCH</text><rect x="40" y="822" width="176" height="52" rx="6" class="card-fill fade-1"/><text x="50" y="842" class="t t-card-title fade-1">supersource</text><text x="206" y="842" class="t t-value fade-1" text-anchor="end" font-size="9">★ 1</text><circle cx="54" cy="860" r="3" fill="#3572A5" fill-opacity="0.8" class="fade-1"/><text x="62" y="863" class="t muted-fill fade-1" font-size="9">Python</text><rect x="228" y="822" width="176" height="52" rx="6" class="card-fill fade-1"/><text x="238" y="842" class="t t-card-title fade-1">linear-gp</text><text x="394" y="842" class="t t-value fade-1" text-anchor="end" font-size="9">★ 2</text><circle cx="242" cy="860" r="3" fill="#dea584" fill-opacity="0.8" class="fade-1"/><text x="250" y="863" class="t muted-fill fade-1" font-size="9">Rust</text><rect x="416" y="822" width="176" height="52" rx="6" class="card-fill fade-1"/><text x="426" y="842" class="t t-card-title fade-1">gymnasia</text><text x="582" y="842" class="t t-value fade-1" text-anchor="end" font-size="9">★ 2</text><circle cx="430" cy="860" r="3" fill="#dea584" fill-opacity="0.8" class="fade-1"/><text x="438" y="863" class="t muted-fill fade-1" font-size="9">Rust</text><rect x="24" y="906" width="760" height="124" rx="8" fill="#d29922" fill-opacity="0.08" class="fade-2"/><text x="40" y="942" class="t t-subhdr fade-2" fill-opacity="0.9">APPLICATIONS</text><rect x="40" y="954" width="176" height="52" rx="6" class="card-fill fade-2"/><text x="50" y="974" class="t t-card-title fade-2">urmzd.com</text><text x="206" y="974" class="t t-value fade-2" text-anchor="end" font-size="9">★ 1</text><circle cx="54" cy="992" r="3" fill="#3178c6" fill-opacity="0.8" class="fade-2"/><text x="62" y="995" class="t muted-fill fade-2" font-size="9">TypeScript</text><rect x="228" y="954" width="176" height="52" rx="6" class="card-fill fade-2"/><text x="238" y="974" class="t t-card-title fade-2">dotfiles</text><text x="394" y="974" class="t t-value fade-2" text-anchor="end" font-size="9">★ 4</text><circle cx="242" cy="992" r="3" fill="#dea584" fill-opacity="0.8" class="fade-2"/><text x="250" y="995" class="t muted-fill fade-2" font-size="9">Rust</text><rect x="416" y="954" width="176" height="52" rx="6" class="card-fill fade-2"/><text x="426" y="974" class="t t-card-title fade-2">whiteboardy</text><text x="582" y="974" class="t t-value fade-2" text-anchor="end" font-size="9">★ 0</text><circle cx="430" cy="992" r="3" fill="#00ADD8" fill-opacity="0.8" class="fade-2"/><text x="438" y="995" class="t muted-fill fade-2" font-size="9">Go</text><rect x="24" y="1038" width="760" height="124" rx="8" fill="#58a6ff" fill-opacity="0.08" class="fade-3"/><text x="40" y="1074" class="t t-subhdr fade-3" fill-opacity="0.9">LIBRARIES &amp; SDKS</text><rect x="40" y="1086" width="176" height="52" rx="6" class="card-fill fade-3"/><text x="50" y="1106" class="t t-card-title fade-3">lazyspeak.nvim</text><text x="206" y="1106" class="t t-value fade-3" text-anchor="end" font-size="9">★ 1</text><circle cx="54" cy="1124" r="3" fill="#000080" fill-opacity="0.8" class="fade-3"/><text x="62" y="1127" class="t muted-fill fade-3" font-size="9">Lua</text><rect x="24" y="1170" width="760" height="124" rx="8" fill="#3fb950" fill-opacity="0.08" class="fade-4"/><text x="40" y="1206" class="t t-subhdr fade-4" fill-opacity="0.9">INFRASTRUCTURE &amp; DEVOPS</text><rect x="40" y="1218" width="176" height="52" rx="6" class="card-fill fade-4"/><text x="50" y="1238" class="t t-card-title fade-4">incipit</text><text x="206" y="1238" class="t t-value fade-4" text-anchor="end" font-size="9">★ 12</text><circle cx="54" cy="1256" r="3" fill="#00ADD8" fill-opacity="0.8" class="fade-4"/><text x="62" y="1259" class="t muted-fill fade-4" font-size="9">Go</text><rect x="228" y="1218" width="176" height="52" rx="6" class="card-fill fade-4"/><text x="238" y="1238" class="t t-card-title fade-4">zigbee-skill</text><text x="394" y="1238" class="t t-value fade-4" text-anchor="end" font-size="9">★ 0</text><circle cx="242" cy="1256" r="3" fill="#00ADD8" fill-opacity="0.8" class="fade-4"/><text x="250" y="1259" class="t muted-fill fade-4" font-size="9">Go</text><rect x="416" y="1218" width="176" height="52" rx="6" class="card-fill fade-4"/><text x="426" y="1238" class="t t-card-title fade-4">vitrum</text><text x="582" y="1238" class="t t-value fade-4" text-anchor="end" font-size="9">★ 0</text><circle cx="430" cy="1256" r="3" fill="#3572A5" fill-opacity="0.8" class="fade-4"/><text x="438" y="1259" class="t muted-fill fade-4" font-size="9">Python</text></svg>