<svg xmlns="http://www.w3.org/2000/svg" width="808" height="1286" viewBox="0 0 808 1286"><defs><style>
  .t { font-family: -apple-system,BlinkMacSystemFont,Segoe UI,Helvetica,Arial,sans-serif; font-variant-numeric: tabular-lining; }
  .t-h { font-size: 14px; fill: #c9d1d9; letter-spacing: 2px; font-weight: 600; }
  .t-sub { font-size: 11px; fill: #6e7681; }
  .t-label { font-size: 12px; fill: #8b949e; }
  .t-value { font-size: 11px; fill: #6e7681; }
  .t-subhdr { font-size: 11px; fill: #8b949e; letter-spacing: 1px; font-weight: 600; }
  .t-stat-label { font-size: 10px; fill: #8b949e; font-weight: 600; }
  .t-stat-value { font-size: 22px; font-weight: 700; }
  .t-card-title { font-size: 12px; fill: #58a6ff; font-weight: 700; }
  .t-card-detail { font-size: 11px; fill: #8b949e; }
  .t-pill { font-size: 11px; font-weight: 600; }
  .t-bullet { font-size: 12px; fill: #c9d1d9; }
  .bg-fill { fill: #0d1117; }
  .card-fill { fill: #161b22; }
  .border-stroke { stroke: #30363d; }

  @media (prefers-color-scheme: light) {
    .bg-fill { fill: #ffffff; }
    .card-fill { fill: #f6f8fa; }
    .border-stroke { stroke: #d0d7de; }
    .t-h { fill: #1f2328; }
    .t-sub { fill: #656d76; }
    .t-label { fill: #656d76; }
    .t-value { fill: #656d76; }
    .t-subhdr { fill: #656d76; }
    .t-stat-label { fill: #656d76; }
    .t-card-title { fill: #0969da; }
    .t-card-detail { fill: #656d76; }
    .t-bullet { fill: #1f2328; }
  }

  @keyframes fadeIn {
    from { opacity: 0; transform: translateY(8px); }
    to { opacity: 1; transform: translateY(0); }
  }
  @keyframes scaleIn {
    from { transform: scale(0); opacity: 0; }
    to { transform: scale(1); opacity: 1; }
  }
  @keyframes drawPath {
    from { stroke-dashoffset: var(--path-length); }
    to { stroke-dashoffset: 0; }
  }
  @keyframes radarReveal {
    from { transform: scale(0); opacity: 0; }
    to { transform: scale(1); opacity: 0.6; }
  }
  .fade-1 { animation: fadeIn 0.6s ease-out 0.1s both; }
  .fade-2 { animation: fadeIn 0.6s ease-out 0.25s both; }
  .fade-3 { animation: fadeIn 0.6s ease-out 0.4s both; }
  .fade-4 { animation: fadeIn 0.6s ease-out 0.55s both; }
  .fade-5 { animation: fadeIn 0.6s ease-out 0.7s both; }
  .fade-6 { animation: fadeIn 0.6s ease-out 0.85s both; }
</style></defs><rect width="808" height="1286" rx="12" class="bg-fill" fill="#0d1117"/><text x="24" y="40" class="t t-h">LANGUAGE VELOCITY</text><text x="24" y="56" class="t t-sub">How language usage has evolved over the past year</text><path d="M 24,206 C 55.66666666666667,206 55.66666666666667,206 87.33333333333334,206 C 119.00000000000001,206 119.00000000000001,205.41176470588235 150.66666666666669,205.41176470588235 C 182.33333333333334,205.41176470588235 182.33333333333334,204.8235294117647 214,204.8235294117647 C 245.66666666666669,204.8235294117647 245.66666666666669,205.6078431372549 277.33333333333337,205.6078431372549 C 309,205.6078431372549 309,206 340.6666666666667,206 C 372.33333333333337,206 372.33333333333337,198.35294117647058 404,198.35294117647058 C 435.6666666666667,198.35294117647058 435.6666666666667,204.62745098039215 467.33333333333337,204.62745098039215 C 499.00000000000006,204.62745098039215 499.00000000000006,200.11764705882354 530.6666666666667,200.11764705882354 C 562.3333333333334,200.11764705882354 562.3333333333334,204.8235294117647 594,204.8235294117647 C 625.6666666666667,204.8235294117647 625.6666666666667,171.88235294117646 657.3333333333334,171.88235294117646 C 689,171.88235294117646 689,113.45098039215686 720.6666666666667,113.45098039215686 C 752.3333333333334,113.45098039215686 752.3333333333334,66 784,66 L 784,66.98039215686273 C 752.3333333333334,66.98039215686273 752.3333333333334,114.23529411764706 720.6666666666667,114.23529411764706 C 689,114.23529411764706 689,172.078431372549 657.3333333333334,172.078431372549 C 625.6666666666667,172.078431372549 625.6666666666667,204.8235294117647 594,204.8235294117647 C 562.3333333333334,204.8235294117647 562.3333333333334,200.11764705882354 530.6666666666667,200.11764705882354 C 499.00000000000006,200.11764705882354 499.00000000000006,204.62745098039215 467.33333333333337,204.62745098039215 C 435.6666666666667,204.62745098039215 435.6666666666667,198.35294117647058 404,198.35294117647058 C 372.33333333333337,198.35294117647058 372.33333333333337,206 340.6666666666667,206 C 309,206 309,205.6078431372549 277.33333333333337,205.6078431372549 C 245.66666666666669,205.6078431372549 245.66666666666669,204.8235294117647 214,204.8235294117647 C 182.33333333333334,204.8235294117647 182.33333333333334,205.41176470588235 150.66666666666669,205.41176470588235 C 119.00000000000001,205.41176470588235 119.00000000000001,206 87.33333333333334,206 C 55.66666666666667,206 55.66666666666667,206 24,206 Z" fill="#DA5B0B" fill-opacity="0.75" class="fade-1"/><path d="M 24,206 C 55.66666666666667,206 55.66666666666667,206 87.33333333333334,206 C 119.00000000000001,206 119.00000000000001,205.41176470588235 150.66666666666669,205.41176470588235 C 182.33333333333334,205.41176470588235 182.33333333333334,204.8235294117647 214,204.8235294117647 C 245.66666666666669,204.8235294117647 245.66666666666669,205.6078431372549 277.33333333333337,205.6078431372549 C 309,205.6078431372549 309,206 340.6666666666667,206 C 372.33333333333337,206 372.33333333333337,198.35294117647058 404,198.35294117647058 C 435.6666666666667,198.35294117647058 435.6666666666667,204.62745098039215 467.33333333333337,204.62745098039215 C 499.00000000000006,204.62745098039215 499.00000000000006,200.11764705882354 530.6666666666667,200.11764705882354 C 562.3333333333334,200.11764705882354 562.3333333333334,204.8235294117647 594,204.8235294117647 C 625.6666666666667,204.8235294117647 625.6666666666667,172.078431372549 657.3333333333334,172.078431372549 C 689,172.078431372549 689,114.23529411764706 720.6666666666667,114.23529411764706 C 752.3333333333334,114.23529411764706 752.3333333333334,66.98039215686273 784,66.98039215686273 L 784,72.078431372549 C 752.3333333333334,72.078431372549 752.3333333333334,117.5686274509804 720.6666666666667,117.5686274509804 C 689,117.5686274509804 689,173.2549019607843 657.3333333333334,173.2549019607843 C 625.6666666666667,173.2549019607843 625.6666666666667,204.8235294117647 594,204.8235294117647 C 562.3333333333334,204.8235294117647 562.3333333333334,200.31372549019608 530.6666666666667,200.31372549019608 C 499.00000000000006,200.31372549019608 499.00000000000006,204.62745098039215 467.33333333333337,204.62745098039215 C 435.6666666666667,204.62745098039215 435.6666666666667,198.54901960784315 404,198.54901960784315 C 372.33333333333337,198.54901960784315 372.33333333333337,206 340.6666666666667,206 C 309,206 309,205.6078431372549 277.33333333333337,205.6078431372549 C 245.66666666666669,205.6078431372549 245.66666666666669,204.8235294117647 214,204.8235294117647 C 182.33333333333334,204.8235294117647 182.33333333333334,205.41176470588235 150.66666666666669,205.41176470588235 C 119.00000000000001,205.41176470588235 119.00000000000001,206 87.33333333333334,206 C 55.66666666666667,206 55.66666666666667,206 24,206 Z" fill="#b07219" fill-opacity="0.75" class="fade-2"/><path d="M 24,206 C 55.66666666666667,206 55.66666666666667,206 87.33333333333334,206 C 119.00000000000001,206 119.00000000000001,205.41176470588235 150.66666666666669,205.41176470588235 C 182.33333333333334,205.41176470588235 182.33333333333334,204.8235294117647 214,204.8235294117647 C 245.66666666666669,204.8235294117647 245.66666666666669,205.6078431372549 277.33333333333337,205.6078431372549 C 309,205.6078431372549 309,206 340.6666666666667,206 C 372.33333333333337,206 372.33333333333337,198.54901960784315 404,198.54901960784315 C 435.6666666666667,198.54901960784315 435.6666666666667,204.62745098039215 467.33333333333337,204.62745098039215 C 499.00000000000006,204.62745098039215 499.00000000000006,200.31372549019608 530.6666666666667,200.31372549019608 C 562.3333333333334,200.31372549019608 562.3333333333334,204.8235294117647 594,204.8235294117647 C 625.6666666666667,204.8235294117647 625.6666666666667,173.2549019607843 657.3333333333334,173.2549019607843 C 689,173.2549019607843 689,117.5686274509804 720.6666666666667,117.5686274509804 C 752.3333333333334,117.5686274509804 752.3333333333334,72.078431372549 784,72.078431372549 L 784,85.41176470588235 C 752.3333333333334,85.41176470588235 752.3333333333334,126.3921568627451 720.6666666666667,126.3921568627451 C 689,126.3921568627451 689,176.58823529411765 657.3333333333334,176.58823529411765 C 625.6666666666667,176.58823529411765 625.6666666666667,205.01960784313727 594,205.01960784313727 C 562.3333333333334,205.01960784313727 562.3333333333334,200.90196078431373 530.6666666666667,200.90196078431373 C 499.00000000000006,200.90196078431373 499.00000000000006,204.8235294117647 467.33333333333337,204.8235294117647 C 435.6666666666667,204.8235294117647 435.6666666666667,199.33333333333334 404,199.33333333333334 C 372.33333333333337,199.33333333333334 372.33333333333337,206 340.6666666666667,206 C 309,206 309,205.6078431372549 277.33333333333337,205.6078431372549 C 245.66666666666669,205.6078431372549 245.66666666666669,205.01960784313727 214,205.01960784313727 C 182.33333333333334,205.01960784313727 182.33333333333334,205.41176470588235 150.66666666666669,205.41176470588235 C 119.00000000000001,205.41176470588235 119.00000000000001,206 87.33333333333334,206 C 55.66666666666667,206 55.66666666666667,206 24,206 Z" fill="#3572A5" fill-opacity="0.75" class="fade-3"/><path d="M 24,206 C 55.66666666666667,206 55.66666666666667,206 87.33333333333334,206 C 119.00000000000001,206 119.00000000000001,205.41176470588235 150.66666666666669,205.41176470588235 C 182.33333333333334,205.41176470588235 182.33333333333334,205.01960784313727 214,205.01960784313727 C 245.66666666666669,205.01960784313727 245.66666666666669,205.6078431372549 277.33333333333337,205.6078431372549 C 309,205.6078431372549 309,206 340.6666666666667,206 C 372.33333333333337,206 372.33333333333337,199.33333333333334 404,199.33333333333334 C 435.6666666666667,199.33333333333334 435.6666666666667,204.8235294117647 467.33333333333337,204.8235294117647 C 499.00000000000006,204.8235294117647 499.00000000000006,200.90196078431373 530.6666666666667,200.90196078431373 C 562.3333333333334,200.90196078431373 562.3333333333334,205.01960784313727 594,205.01960784313727 C 625.6666666666667,205.01960784313727 625.6666666666667,176.58823529411765 657.3333333333334,176.58823529411765 C 689,176.58823529411765 689,126.3921568627451 720.6666666666667,126.3921568627451 C 752.3333333333334,126.3921568627451 752.3333333333334,85.41176470588235 784,85.41176470588235 L 784,104.62745098039215 C 752.3333333333334,104.62745098039215 752.3333333333334,138.94117647058823 720.6666666666667,138.94117647058823 C 689,138.94117647058823 689,181.2941176470588 657.3333333333334,181.2941176470588 C 625.6666666666667,181.2941176470588 625.6666666666667,205.2156862745098 594,205.2156862745098 C 562.3333333333334,205.2156862745098 562.3333333333334,201.68627450980392 530.6666666666667,201.68627450980392 C 499.00000000000006,201.68627450980392 499.00000000000006,205.01960784313727 467.33333333333337,205.01960784313727 C 435.6666666666667,205.01960784313727 435.6666666666667,200.31372549019608 404,200.31372549019608 C 372.33333333333337,200.31372549019608 372.33333333333337,206 340.6666666666667,206 C 309,206 309,205.6078431372549 277.33333333333337,205.6078431372549 C 245.66666666666669,205.6078431372549 245.66666666666669,205.2156862745098 214,205.2156862745098 C 182.33333333333334,205.2156862745098 182.33333333333334,205.41176470588235 150.66666666666669,205.41176470588235 C 119.00000000000001,205.41176470588235 119.00000000000001,206 87.33333333333334,206 C 55.66666666666667,206 55.66666666666667,206 24,206 Z" fill="#89e051" fill-opacity="0.75" class="fade-4"/><path d="M 24,206 C 55.66666666666667,206 55.66666666666667,206 87.33333333333334,206 C 119.00000000000001,206 119.00000000000001,205.41176470588235 150.66666666666669,205.41176470588235 C 182.33333333333334,205.41176470588235 182.33333333333334,205.2156862745098 214,205.2156862745098 C 245.66666666666669,205.2156862745098 245.66666666666669,205.6078431372549 277.33333333333337,205.6078431372549 C 309,205.6078431372549 309,206 340.6666666666667,206 C 372.33333333333337,206 372.33333333333337,200.31372549019608 404,200.31372549019608 C 435.6666666666667,200.31372549019608 435.6666666666667,205.01960784313727 467.33333333333337,205.01960784313727 C 499.00000000000006,205.01960784313727 499.00000000000006,201.68627450980392 530.6666666666667,201.68627450980392 C 562.3333333333334,201.68627450980392 562.3333333333334,205.2156862745098 594,205.2156862745098 C 625.6666666666667,205.2156862745098 625.6666666666667,181.2941176470588 657.3333333333334,181.2941176470588 C 689,181.2941176470588 689,138.94117647058823 720.6666666666667,138.94117647058823 C 752.3333333333334,138.94117647058823 752.3333333333334,104.62745098039215 784,104.62745098039215 L 784,128.15686274509804 C 752.3333333333334,128.15686274509804 752.3333333333334,154.4313725490196 720.6666666666667,154.4313725490196 C 689,154.4313725490196 689,186.98039215686273 657.3333333333334,186.98039215686273 C 625.6666666666667,186.98039215686273 625.6666666666667,205.41176470588235 594,205.41176470588235 C 562.3333333333334,205.41176470588235 562.3333333333334,202.66666666666666 530.6666666666667,202.66666666666666 C 499.00000000000006,202.66666666666666 499.00000000000006,205.2156862745098 467.33333333333337,205.2156862745098 C 435.6666666666667,205.2156862745098 435.6666666666667,201.68627450980392 404,201.68627450980392 C 372.33333333333337,201.68627450980392 372.33333333333337,206 340.6666666666667,206 C 309,206 309,205.6078431372549 277.33333333333337,205.6078431372549 C 245.66666666666669,205.6078431372549 245.66666666666669,205.41176470588235 214,205.41176470588235 C 182.33333333333334,205.41176470588235 182.33333333333334,205.6078431372549 150.66666666666669,205.6078431372549 C 119.00000000000001,205.6078431372549 119.00000000000001,206 87.33333333333334,206 C 55.66666666666667,206 55.66666666666667,206 24,206 Z" fill="#00ADD8" fill-opacity="0.75" class="fade-5"/><path d="M 24,206 C 55.66666666666667,206 55.66666666666667,206 87.33333333333334,206 C 119.00000000000001,206 119.00000000000001,205.6078431372549 150.66666666666669,205.6078431372549 C 182.33333333333334,205.6078431372549 182.33333333333334,205.41176470588235 214,205.41176470588235 C 245.66666666666669,205.41176470588235 245.66666666666669,205.6078431372549 277.33333333333337,205.6078431372549 C 309,205.6078431372549 309,206 340.6666666666667,206 C 372.33333333333337,206 372.33333333333337,201.68627450980392 404,201.68627450980392 C 435.6666666666667,201.68627450980392 435.6666666666667,205.2156862745098 467.33333333333337,205.2156862745098 C 499.00000000000006,205.2156862745098 499.00000000000006,202.66666666666666 530.6666666666667,202.66666666666666 C 562.3333333333334,202.66666666666666 562.3333333333334,205.41176470588235 594,205.41176470588235 C 625.6666666666667,205.41176470588235 625.6666666666667,186.98039215686273 657.3333333333334,186.98039215686273 C 689,186.98039215686273 689,154.4313725490196 720.6666666666667,154.4313725490196 C 752.3333333333334,154.4313725490196 752.3333333333334,128.15686274509804 784,128.15686274509804 L 784,156.58823529411765 C 752.3333333333334,156.58823529411765 752.3333333333334,173.2549019607843 720.6666666666667,173.2549019607843 C 689,173.2549019607843 689,193.84313725490196 657.3333333333334,193.84313725490196 C 625.6666666666667,193.84313725490196 625.6666666666667,205.6078431372549 594,205.6078431372549 C 562.3333333333334,205.6078431372549 562.3333333333334,203.84313725490196 530.6666666666667,203.84313725490196 C 499.00000000000006,203.84313725490196 499.00000000000006,205.41176470588235 467.33333333333337,205.41176470588235 C 435.6666666666667,205.41176470588235 435.6666666666667,203.2549019607843 404,203.2549019607843 C 372.33333333333337,203.2549019607843 372.33333333333337,206 340.6666666666667,206 C 309,206 309,205.80392156862746 277.33333333333337,205.80392156862746 C 245.66666666666669,205.80392156862746 245.66666666666669,205.6078431372549 214,205.6078431372549 C 182.33333333333334,205.6078431372549 182.33333333333334,205.80392156862746 150.66666666666669,205.80392156862746 C 119.00000000000001,205.80392156862746 119.00000000000001,206 87.33333333333334,206 C 55.66666666666667,206 55.66666666666667,206 24,206 Z" fill="#3178c6" fill-opacity="0.75" class="fade-6"/><path d="M 24,206 C 55.66666666666667,206 55.66666666666667,206 87.33333333333334,206 C 119.00000000000001,206 119.00000000000001,205.80392156862746 150.66666666666669,205.80392156862746 C 182.33333333333334,205.80392156862746 182.33333333333334,205.6078431372549 214,205.6078431372549 C 245.66666666666669,205.6078431372549 245.66666666666669,205.80392156862746 277.33333333333337,205.80392156862746 C 309,205.80392156862746 309,206 340.6666666666667,206 C 372.33333333333337,206 372.33333333333337,203.2549019607843 404,203.2549019607843 C 435.6666666666667,203.2549019607843 435.6666666666667,205.41176470588235 467.33333333333337,205.41176470588235 C 499.00000000000006,205.41176470588235 499.00000000000006,203.84313725490196 530.6666666666667,203.84313725490196 C 562.3333333333334,203.84313725490196 562.3333333333334,205.6078431372549 594,205.6078431372549 C 625.6666666666667,205.6078431372549 625.6666666666667,193.84313725490196 657.3333333333334,193.84313725490196 C 689,193.84313725490196 689,173.2549019607843 720.6666666666667,173.2549019607843 C 752.3333333333334,173.2549019607843 752.3333333333334,156.58823529411765 784,156.58823529411765 L 784,206 C 752.3333333333334,206 752.3333333333334,206 720.6666666666667,206 C 689,206 689,206 657.3333333333334,206 C 625.6666666666667,206 625.6666666666667,206 594,206 C 562.3333333333334,206 562.3333333333334,206 530.6666666666667,206 C 499.00000000000006,206 499.00000000000006,206 467.33333333333337,206 C 435.6666666666667,206 435.6666666666667,206 404,206 C 372.33333333333337,206 372.33333333333337,206 340.6666666666667,206 C 309,206 309,206 277.33333333333337,206 C 245.66666666666669,206 245.66666666666669,206 214,206 C 182.33333333333334,206 182.33333333333334,206 150.66666666666669,206 C 119.00000000000001,206 119.00000000000001,206 87.33333333333334,206 C 55.66666666666667,206 55.66666666666667,206 24,206 Z" fill="#dea584" fill-opacity="0.75" class="fade-6"/><rect x="24" y="212" width="8" height="8" rx="2" fill="#dea584" opacity="0.85"/><text x="36" y="220" class="t t-value">Rust</text><rect x="80" y="212" width="8" height="8" rx="2" fill="#3178c6" opacity="0.85"/><text x="92" y="220" class="t t-value">TypeScript</text><rect x="178" y="212" width="8" height="8" rx="2" fill="#00ADD8" opacity="0.85"/><text x="190" y="220" class="t t-value">Go</text><rect x="220" y="212" width="8" height="8" rx="2" fill="#89e051" opacity="0.85"/><text x="232" y="220" class="t t-value">Shell</text><rect x="283" y="212" width="8" height="8" rx="2" fill="#3572A5" opacity="0.85"/><text x="295" y="220" class="t t-value">Python</text><rect x="353" y="212" width="8" height="8" rx="2" fill="#b07219" opacity="0.85"/><text x="365" y="220" class="t t-value">Java</text><rect x="409" y="212" width="8" height="8" rx="2" fill="#DA5B0B" opacity="0.85"/><text x="421" y="220" class="t t-value">Jupyter Notebook</text><text x="24" y="220" class="t t-value" text-anchor="start" opacity="0">Mar</text><text x="150.66666666666669" y="220" class="t t-value" text-anchor="start" opacity="0">May</text><text x="277.33333333333337" y="220" class="t t-value" text-anchor="start" opacity="0">Jul</text><text x="404" y="220" class="t t-value" text-anchor="start" opacity="0">Sep</text><text x="530.6666666666667" y="220" class="t t-value" text-anchor="start" opacity="0">Nov</text><text x="657.3333333333334" y="220" class="t t-value" text-anchor="start" opacity="0">Jan</text><text x="784" y="220" class="t t-value" text-anchor="start" opacity="0">Mar</text><text x="24" y="282" class="t t-h">CONTRIBUTION RHYTHM</text><text x="24" y="298" class="t t-sub">Activity patterns and statistics over the past year</text><circle cx="144" cy="428" r="22.5" fill="none" stroke="#30363d" stroke-width="1" stroke-opacity="0.4"/><circle cx="144" cy="428" r="45" fill="none" stroke="#30363d" stroke-width="1" stroke-opacity="0.4"/><circle cx="144" cy="428" r="67.5" fill="none" stroke="#30363d" stroke-width="1" stroke-opacity="0.4"/><circle cx="144" cy="428" r="90" fill="none" stroke="#30363d" stroke-width="1" stroke-opacity="0.4"/><line x1="144" y1="428" x2="144" y2="338" stroke="#30363d" stroke-width="1" stroke-opacity="0.3"/><line x1="144" y1="428" x2="214.36483342212267" y2="371.885917832714" stroke="#30363d" stroke-width="1" stroke-opacity="0.3"/><line x1="144" y1="428" x2="231.74351209636413" y2="448.0268840560683" stroke="#30363d" stroke-width="1" stroke-opacity="0.3"/><line x1="144" y1="428" x2="183.04953652058023" y2="509.08719811121773" stroke="#30363d" stroke-width="1" stroke-opacity="0.3"/><line x1="144" y1="428" x2="104.95046347941977" y2="509.08719811121773" stroke="#30363d" stroke-width="1" stroke-opacity="0.3"/><line x1="144" y1="428" x2="56.25648790363587" y2="448.0268840560683" stroke="#30363d" stroke-width="1" stroke-opacity="0.3"/><line x1="144" y1="428" x2="73.63516657787731" y2="371.885917832714" stroke="#30363d" stroke-width="1" stroke-opacity="0.3"/><polygon points="144,349.1448598130841 177.3739747305862,401.3851432711237 185.20664937235793,437.40514882072364 156.8644501154248,454.71330591981706 132.77782011207626,451.30309665345743 117.14392503592593,434.1297238582826 73.63516657787731,371.885917832714" fill="#58a6ff" fill-opacity="0.2" stroke="#58a6ff" stroke-width="2" stroke-opacity="0.8" class="fade-2" style="transform-origin: 144px 428px"/><circle cx="144" cy="349.1448598130841" r="3" fill="#58a6ff" class="fade-1"/><circle cx="177.3739747305862" cy="401.3851432711237" r="3" fill="#58a6ff" class="fade-2"/><circle cx="185.20664937235793" cy="437.40514882072364" r="3" fill="#58a6ff" class="fade-3"/><circle cx="156.8644501154248" cy="454.71330591981706" r="3" fill="#58a6ff" class="fade-4"/><circle cx="132.77782011207626" cy="451.30309665345743" r="3" fill="#58a6ff" class="fade-5"/><circle cx="117.14392503592593" cy="434.1297238582826" r="3" fill="#58a6ff" class="fade-6"/><circle cx="73.63516657787731" cy="371.885917832714" r="3" fill="#58a6ff" class="fade-6"/><text x="144" y="326" class="t t-value" text-anchor="middle">Sun</text><text x="226.87413714161116" y="365.91008100297427" class="t t-value" text-anchor="middle">Mon</text><text x="247.34235869127332" y="455.5872189993693" class="t t-value" text-anchor="middle">Tue</text><text x="189.99167634646116" y="527.5026999976565" class="t t-value" text-anchor="middle">Wed</text><text x="98.00832365353884" y="527.5026999976565" class="t t-value" text-anchor="middle">Thu</text><text x="40.657641308726696" y="455.5872189993693" class="t t-value" text-anchor="middle">Fri</text><text x="61.12586285838883" y="365.91008100297427" class="t t-value" text-anchor="middle">Sat</text><text x="324" y="338" class="t t-stat-label">COMMITS</text><text x="324" y="360" fill="#58a6ff" class="t t-stat-value">1,489</text><text x="324" y="380" class="t t-stat-label">PRS</text><text x="324" y="402" fill="#3fb950" class="t t-stat-value">4</text><text x="324" y="422" class="t t-stat-label">REVIEWS</text><text x="324" y="444" fill="#d29922" class="t t-stat-value">5</text><text x="324" y="464" class="t t-stat-label">REPOS</text><text x="324" y="486" fill="#bc8cff" class="t t-stat-value">23</text><text x="324" y="506" class="t t-stat-label">STREAK</text><text x="324" y="528" fill="#39d2c0" class="t t-stat-value">15d</text><text x="24" y="614" class="t t-h">PROJECT CONSTELLATION</text><text x="24" y="630" class="t t-sub">Projects mapped by language ecosystem and complexity</text><line x1="86.66666666666666" y1="670" x2="540.0000000000001" y2="719.376693248407" stroke="#30363d" stroke-width="1" stroke-opacity="0.15" stroke-dasharray="4 4"/><line x1="86.66666666666666" y1="670" x2="101.77777777777777" y2="739.2093085129827" stroke="#30363d" stroke-width="1" stroke-opacity="0.15" stroke-dasharray="4 4"/><line x1="86.66666666666666" y1="670" x2="691.1111111111112" y2="753.1379626541365" stroke="#30363d" stroke-width="1" stroke-opacity="0.15" stroke-dasharray="4 4"/><line x1="86.66666666666666" y1="670" x2="116.88888888888889" y2="809.7019896217427" stroke="#30363d" stroke-width="1" stroke-opacity="0.15" stroke-dasharray="4 4"/><line x1="86.66666666666666" y1="670" x2="630.6666666666667" y2="815.6688115824719" stroke="#30363d" stroke-width="1" stroke-opacity="0.15" stroke-dasharray="4 4"/><line x1="86.66666666666666" y1="670" x2="706.2222222222223" y2="820.3838842619896" stroke="#30363d" stroke-width="1" stroke-opacity="0.15" stroke-dasharray="4 4"/><line x1="86.66666666666666" y1="670" x2="546.0444444444445" y2="828.6376945594757" stroke="#30363d" stroke-width="1" stroke-opacity="0.15" stroke-dasharray="4 4"/><line x1="86.66666666666666" y1="670" x2="552.088888888889" y2="844.09472860338" stroke="#30363d" stroke-width="1" stroke-opacity="0.15" stroke-dasharray="4 4"/><line x1="86.66666666666666" y1="670" x2="474.51851851851853" y2="862.3486699281858" stroke="#30363d" stroke-width="1" stroke-opacity="0.15" stroke-dasharray="4 4"/><line x1="86.66666666666666" y1="670" x2="558.1333333333334" y2="872.9467411734007" stroke="#30363d" stroke-width="1" stroke-opacity="0.15" stroke-dasharray="4 4"/><line x1="86.66666666666666" y1="670" x2="564.1777777777779" y2="874.2208567778874" stroke="#30363d" stroke-width="1" stroke-opacity="0.15" stroke-dasharray="4 4"/><line x1="86.66666666666666" y1="670" x2="570.2222222222223" y2="907.7977147145464" stroke="#30363d" stroke-width="1" stroke-opacity="0.15" stroke-dasharray="4 4"/><line x1="313.33333333333337" y1="712.3788301108508" x2="464.44444444444446" y2="759.2375116992996" stroke="#30363d" stroke-width="1" stroke-opacity="0.15" stroke-dasharray="4 4"/><line x1="313.33333333333337" y1="712.3788301108508" x2="706.2222222222223" y2="820.3838842619896" stroke="#30363d" stroke-width="1" stroke-opacity="0.15" stroke-dasharray="4 4"/><line x1="313.33333333333337" y1="712.3788301108508" x2="343.55555555555554" y2="833.1040777491318" stroke="#30363d" stroke-width="1" stroke-opacity="0.15" stroke-dasharray="4 4"/><line x1="313.33333333333337" y1="712.3788301108508" x2="474.51851851851853" y2="862.3486699281858" stroke="#30363d" stroke-width="1" stroke-opacity="0.15" stroke-dasharray="4 4"/><line x1="540.0000000000001" y1="719.376693248407" x2="101.77777777777777" y2="739.2093085129827" stroke="#30363d" stroke-width="1" stroke-opacity="0.15" stroke-dasharray="4 4"/><line x1="540.0000000000001" y1="719.376693248407" x2="116.88888888888889" y2="809.7019896217427" stroke="#30363d" stroke-width="1" stroke-opacity="0.15" stroke-dasharray="4 4"/><line x1="540.0000000000001" y1="719.376693248407" x2="630.6666666666667" y2="815.6688115824719" stroke="#30363d" stroke-width="1" stroke-opacity="0.15" stroke-dasharray="4 4"/><line x1="540.0000000000001" y1="719.376693248407" x2="706.2222222222223" y2="820.3838842619896" stroke="#30363d" stroke-width="1" stroke-opacity="0.15" stroke-dasharray="4 4"/><line x1="540.0000000000001" y1="719.376693248407" x2="546.0444444444445" y2="828.6376945594757" stroke="#30363d" stroke-width="1" stroke-opacity="0.15" stroke-dasharray="4 4"/><line x1="540.0000000000001" y1="719.376693248407" x2="552.088888888889" y2="844.09472860338" stroke="#30363d" stroke-width="1" stroke-opacity="0.15" stroke-dasharray="4 4"/><line x1="540.0000000000001" y1="719.376693248407" x2="474.51851851851853" y2="862.3486699281858" stroke="#30363d" stroke-width="1" stroke-opacity="0.15" stroke-dasharray="4 4"/><line x1="540.0000000000001" y1="719.376693248407" x2="558.1333333333334" y2="872.9467411734007" stroke="#30363d" stroke-width="1" stroke-opacity="0.15" stroke-dasharray="4 4"/><line x1="540.0000000000001" y1="719.376693248407" x2="564.1777777777779" y2="874.2208567778874" stroke="#30363d" stroke-width="1" stroke-opacity="0.15" stroke-dasharray="4 4"/><line x1="540.0000000000001" y1="719.376693248407" x2="570.2222222222223" y2="907.7977147145464" stroke="#30363d" stroke-width="1" stroke-opacity="0.15" stroke-dasharray="4 4"/><line x1="101.77777777777777" y1="739.2093085129827" x2="116.88888888888889" y2="809.7019896217427" stroke="#30363d" stroke-width="1" stroke-opacity="0.15" stroke-dasharray="4 4"/><line x1="101.77777777777777" y1="739.2093085129827" x2="630.6666666666667" y2="815.6688115824719" stroke="#30363d" stroke-width="1" stroke-opacity="0.15" stroke-dasharray="4 4"/><line x1="101.77777777777777" y1="739.2093085129827" x2="706.2222222222223" y2="820.3838842619896" stroke="#30363d" stroke-width="1" stroke-opacity="0.15" stroke-dasharray="4 4"/><line x1="101.77777777777777" y1="739.2093085129827" x2="546.0444444444445" y2="828.6376945594757" stroke="#30363d" stroke-width="1" stroke-opacity="0.15" stroke-dasharray="4 4"/><line x1="101.77777777777777" y1="739.2093085129827" x2="552.088888888889" y2="844.09472860338" stroke="#30363d" stroke-width="1" stroke-opacity="0.15" stroke-dasharray="4 4"/><line x1="101.77777777777777" y1="739.2093085129827" x2="558.1333333333334" y2="872.9467411734007" stroke="#30363d" stroke-width="1" stroke-opacity="0.15" stroke-dasharray="4 4"/><line x1="101.77777777777777" y1="739.2093085129827" x2="564.1777777777779" y2="874.2208567778874" stroke="#30363d" stroke-width="1" stroke-opacity="0.15" stroke-dasharray="4 4"/><line x1="101.77777777777777" y1="739.2093085129827" x2="570.2222222222223" y2="907.7977147145464" stroke="#30363d" stroke-width="1" stroke-opacity="0.15" stroke-dasharray="4 4"/><line x1="691.1111111111112" y1="753.1379626541365" x2="706.2222222222223" y2="820.3838842619896" stroke="#30363d" stroke-width="1" stroke-opacity="0.15" stroke-dasharray="4 4"/><line x1="691.1111111111112" y1="753.1379626541365" x2="546.0444444444445" y2="828.6376945594757" stroke="#30363d" stroke-width="1" stroke-opacity="0.15" stroke-dasharray="4 4"/><line x1="691.1111111111112" y1="753.1379626541365" x2="252.88888888888889" y2="907.1047746489483" stroke="#30363d" stroke-width="1" stroke-opacity="0.15" stroke-dasharray="4 4"/><line x1="464.44444444444446" y1="759.2375116992996" x2="706.2222222222223" y2="820.3838842619896" stroke="#30363d" stroke-width="1" stroke-opacity="0.15" stroke-dasharray="4 4"/><line x1="464.44444444444446" y1="759.2375116992996" x2="343.55555555555554" y2="833.1040777491318" stroke="#30363d" stroke-width="1" stroke-opacity="0.15" stroke-dasharray="4 4"/><line x1="464.44444444444446" y1="759.2375116992996" x2="474.51851851851853" y2="862.3486699281858" stroke="#30363d" stroke-width="1" stroke-opacity="0.15" stroke-dasharray="4 4"/><line x1="116.88888888888889" y1="809.7019896217427" x2="630.6666666666667" y2="815.6688115824719" stroke="#30363d" stroke-width="1" stroke-opacity="0.15" stroke-dasharray="4 4"/><line x1="116.88888888888889" y1="809.7019896217427" x2="706.2222222222223" y2="820.3838842619896" stroke="#30363d" stroke-width="1" stroke-opacity="0.15" stroke-dasharray="4 4"/><line x1="116.88888888888889" y1="809.7019896217427" x2="546.0444444444445" y2="828.6376945594757" stroke="#30363d" stroke-width="1" stroke-opacity="0.15" stroke-dasharray="4 4"/><line x1="116.88888888888889" y1="809.7019896217427" x2="552.088888888889" y2="844.09472860338" stroke="#30363d" stroke-width="1" stroke-opacity="0.15" stroke-dasharray="4 4"/><line x1="116.88888888888889" y1="809.7019896217427" x2="558.1333333333334" y2="872.9467411734007" stroke="#30363d" stroke-width="1" stroke-opacity="0.15" stroke-dasharray="4 4"/><line x1="116.88888888888889" y1="809.7019896217427" x2="564.1777777777779" y2="874.2208567778874" stroke="#30363d" stroke-width="1" stroke-opacity="0.15" stroke-dasharray="4 4"/><line x1="116.88888888888889" y1="809.7019896217427" x2="570.2222222222223" y2="907.7977147145464" stroke="#30363d" stroke-width="1" stroke-opacity="0.15" stroke-dasharray="4 4"/><line x1="630.6666666666667" y1="815.6688115824719" x2="706.2222222222223" y2="820.3838842619896" stroke="#30363d" stroke-width="1" stroke-opacity="0.15" stroke-dasharray="4 4"/><line x1="630.6666666666667" y1="815.6688115824719" x2="546.0444444444445" y2="828.6376945594757" stroke="#30363d" stroke-width="1" stroke-opacity="0.15" stroke-dasharray="4 4"/><line x1="630.6666666666667" y1="815.6688115824719" x2="552.088888888889" y2="844.09472860338" stroke="#30363d" stroke-width="1" stroke-opacity="0.15" stroke-dasharray="4 4"/><line x1="630.6666666666667" y1="815.6688115824719" x2="558.1333333333334" y2="872.9467411734007" stroke="#30363d" stroke-width="1" stroke-opacity="0.15" stroke-dasharray="4 4"/><line x1="630.6666666666667" y1="815.6688115824719" x2="564.1777777777779" y2="874.2208567778874" stroke="#30363d" stroke-width="1" stroke-opacity="0.15" stroke-dasharray="4 4"/><line x1="630.6666666666667" y1="815.6688115824719" x2="192.44444444444446" y2="883.4973124947642" stroke="#30363d" stroke-width="1" stroke-opacity="0.15" stroke-dasharray="4 4"/><line x1="630.6666666666667" y1="815.6688115824719" x2="570.2222222222223" y2="907.7977147145464" stroke="#30363d" stroke-width="1" stroke-opacity="0.15" stroke-dasharray="4 4"/><line x1="706.2222222222223" y1="820.3838842619896" x2="546.0444444444445" y2="828.6376945594757" stroke="#30363d" stroke-width="1" stroke-opacity="0.15" stroke-dasharray="4 4"/><line x1="706.2222222222223" y1="820.3838842619896" x2="343.55555555555554" y2="833.1040777491318" stroke="#30363d" stroke-width="1" stroke-opacity="0.15" stroke-dasharray="4 4"/><line x1="706.2222222222223" y1="820.3838842619896" x2="552.088888888889" y2="844.09472860338" stroke="#30363d" stroke-width="1" stroke-opacity="0.15" stroke-dasharray="4 4"/><line x1="706.2222222222223" y1="820.3838842619896" x2="474.51851851851853" y2="862.3486699281858" stroke="#30363d" stroke-width="1" stroke-opacity="0.15" stroke-dasharray="4 4"/><line x1="706.2222222222223" y1="820.3838842619896" x2="558.1333333333334" y2="872.9467411734007" stroke="#30363d" stroke-width="1" stroke-opacity="0.15" stroke-dasharray="4 4"/><line x1="706.2222222222223" y1="820.3838842619896" x2="564.1777777777779" y2="874.2208567778874" stroke="#30363d" stroke-width="1" stroke-opacity="0.15" stroke-dasharray="4 4"/><line x1="706.2222222222223" y1="820.3838842619896" x2="484.59259259259255" y2="886.4367195472203" stroke="#30363d" stroke-width="1" stroke-opacity="0.15" stroke-dasharray="4 4"/><line x1="706.2222222222223" y1="820.3838842619896" x2="721.3333333333334" y2="889.0603918117224" stroke="#30363d" stroke-width="1" stroke-opacity="0.15" stroke-dasharray="4 4"/><line x1="706.2222222222223" y1="820.3838842619896" x2="252.88888888888889" y2="907.1047746489483" stroke="#30363d" stroke-width="1" stroke-opacity="0.15" stroke-dasharray="4 4"/><line x1="706.2222222222223" y1="820.3838842619896" x2="570.2222222222223" y2="907.7977147145464" stroke="#30363d" stroke-width="1" stroke-opacity="0.15" stroke-dasharray="4 4"/><line x1="546.0444444444445" y1="828.6376945594757" x2="552.088888888889" y2="844.09472860338" stroke="#30363d" stroke-width="1" stroke-opacity="0.15" stroke-dasharray="4 4"/><line x1="546.0444444444445" y1="828.6376945594757" x2="558.1333333333334" y2="872.9467411734007" stroke="#30363d" stroke-width="1" stroke-opacity="0.15" stroke-dasharray="4 4"/><line x1="546.0444444444445" y1="828.6376945594757" x2="564.1777777777779" y2="874.2208567778874" stroke="#30363d" stroke-width="1" stroke-opacity="0.15" stroke-dasharray="4 4"/><line x1="546.0444444444445" y1="828.6376945594757" x2="570.2222222222223" y2="907.7977147145464" stroke="#30363d" stroke-width="1" stroke-opacity="0.15" stroke-dasharray="4 4"/><line x1="343.55555555555554" y1="833.1040777491318" x2="474.51851851851853" y2="862.3486699281858" stroke="#30363d" stroke-width="1" stroke-opacity="0.15" stroke-dasharray="4 4"/><line x1="552.088888888889" y1="844.09472860338" x2="558.1333333333334" y2="872.9467411734007" stroke="#30363d" stroke-width="1" stroke-opacity="0.15" stroke-dasharray="4 4"/><line x1="552.088888888889" y1="844.09472860338" x2="564.1777777777779" y2="874.2208567778874" stroke="#30363d" stroke-width="1" stroke-opacity="0.15" stroke-dasharray="4 4"/><line x1="552.088888888889" y1="844.09472860338" x2="570.2222222222223" y2="907.7977147145464" stroke="#30363d" stroke-width="1" stroke-opacity="0.15" stroke-dasharray="4 4"/><line x1="558.1333333333334" y1="872.9467411734007" x2="564.1777777777779" y2="874.2208567778874" stroke="#30363d" stroke-width="1" stroke-opacity="0.15" stroke-dasharray="4 4"/><line x1="558.1333333333334" y1="872.9467411734007" x2="570.2222222222223" y2="907.7977147145464" stroke="#30363d" stroke-width="1" stroke-opacity="0.15" stroke-dasharray="4 4"/><line x1="564.1777777777779" y1="874.2208567778874" x2="570.2222222222223" y2="907.7977147145464" stroke="#30363d" stroke-width="1" stroke-opacity="0.15" stroke-dasharray="4 4"/><circle cx="86.66666666666666" cy="670" r="26" fill="#00ADD8" fill-opacity="0.08" class="fade-1"/><circle cx="86.66666666666666" cy="670" r="22" fill="#00ADD8" fill-opacity="0.7" stroke="#00ADD8" stroke-width="1.5" stroke-opacity="0.9" class="fade-1"/><text x="86.66666666666666" y="706" class="t t-value fade-1" text-anchor="middle">incipit</text><circle cx="313.33333333333337" cy="712.3788301108508" r="26" fill="#DA5B0B" fill-opacity="0.08" class="fade-2"/><circle cx="313.33333333333337" cy="712.3788301108508" r="22" fill="#DA5B0B" fill-opacity="0.7" stroke="#DA5B0B" stroke-width="1.5" stroke-opacity="0.9" class="fade-2"/><text x="313.33333333333337" y="748.3788301108508" class="t t-value fade-2" text-anchor="middle">lepus-classifier</text><circle cx="540.0000000000001" cy="719.376693248407" r="26" fill="#dea584" fill-opacity="0.08" class="fade-3"/><circle cx="540.0000000000001" cy="719.376693248407" r="22" fill="#dea584" fill-opacity="0.7" stroke="#dea584" stroke-width="1.5" stroke-opacity="0.9" class="fade-3"/><text x="540.0000000000001" y="755.376693248407" class="t t-value fade-3" text-anchor="middle">linear-gp</text><circle cx="101.77777777777777" cy="739.2093085129827" r="26" fill="#00ADD8" fill-opacity="0.08" class="fade-4"/><circle cx="101.77777777777777" cy="739.2093085129827" r="22" fill="#00ADD8" fill-opacity="0.7" stroke="#00ADD8" stroke-width="1.5" stroke-opacity="0.9" class="fade-4"/><text x="101.77777777777777" y="775.2093085129827" class="t t-value fade-4" text-anchor="middle">zigbee-rest</text><circle cx="691.1111111111112" cy="753.1379626541365" r="26" fill="#3178c6" fill-opacity="0.08" class="fade-5"/><circle cx="691.1111111111112" cy="753.1379626541365" r="22" fill="#3178c6" fill-opacity="0.7" stroke="#3178c6" stroke-width="1.5" stroke-opacity="0.9" class="fade-5"/><text x="691.1111111111112" y="789.1379626541365" class="t t-value fade-5" text-anchor="middle">urmzd.com</text><circle cx="464.44444444444446" cy="759.2375116992996" r="26" fill="#3572A5" fill-opacity="0.08" class="fade-6"/><circle cx="464.44444444444446" cy="759.2375116992996" r="22" fill="#3572A5" fill-opacity="0.7" stroke="#3572A5" stroke-width="1.5" stroke-opacity="0.9" class="fade-6"/><text x="464.44444444444446" y="795.2375116992996" class="t t-value fade-6" text-anchor="middle">exp-agi-models</text><circle cx="116.88888888888889" cy="809.7019896217427" r="24.33699101850862" fill="#00ADD8" fill-opacity="0.08" class="fade-6"/><circle cx="116.88888888888889" cy="809.7019896217427" r="20.33699101850862" fill="#00ADD8" fill-opacity="0.7" stroke="#00ADD8" stroke-width="1.5" stroke-opacity="0.9" class="fade-6"/><text x="116.88888888888889" y="844.0389806402512" class="t t-value fade-6" text-anchor="middle">saige</text><circle cx="630.6666666666667" cy="815.6688115824719" r="21.675715564635794" fill="#89e051" fill-opacity="0.08" class="fade-6"/><circle cx="630.6666666666667" cy="815.6688115824719" r="17.675715564635794" fill="#89e051" fill-opacity="0.7" stroke="#89e051" stroke-width="1.5" stroke-opacity="0.9" class="fade-6"/><text x="630.6666666666667" y="847.3445271471077" class="t t-value fade-6" text-anchor="middle">dotfiles</text><circle cx="706.2222222222223" cy="820.3838842619896" r="15.061182065019677" fill="#3178c6" fill-opacity="0.08" class="fade-6"/><circle cx="706.2222222222223" cy="820.3838842619896" r="11.061182065019677" fill="#3178c6" fill-opacity="0.7" stroke="#3178c6" stroke-width="1.5" stroke-opacity="0.9" class="fade-6"/><text x="706.2222222222223" y="845.4450663270093" class="t t-value fade-6" text-anchor="middle">zoro</text><circle cx="546.0444444444445" cy="828.6376945594757" r="26" fill="#dea584" fill-opacity="0.08" class="fade-6"/><circle cx="546.0444444444445" cy="828.6376945594757" r="22" fill="#dea584" fill-opacity="0.7" stroke="#dea584" stroke-width="1.5" stroke-opacity="0.9" class="fade-6"/><text x="546.0444444444445" y="864.6376945594757" class="t t-value fade-6" text-anchor="middle">teasr</text><circle cx="343.55555555555554" cy="833.1040777491318" r="25.36863924926572" fill="#DA5B0B" fill-opacity="0.08" class="fade-6"/><circle cx="343.55555555555554" cy="833.1040777491318" r="21.36863924926572" fill="#DA5B0B" fill-opacity="0.7" stroke="#DA5B0B" stroke-width="1.5" stroke-opacity="0.9" class="fade-6"/><text x="343.55555555555554" y="868.4727169983975" class="t t-value fade-6" text-anchor="middle">md-classifier</text><circle cx="552.088888888889" cy="844.09472860338" r="20.751279260918498" fill="#dea584" fill-opacity="0.08" class="fade-6"/><circle cx="552.088888888889" cy="844.09472860338" r="16.751279260918498" fill="#dea584" fill-opacity="0.7" stroke="#dea584" stroke-width="1.5" stroke-opacity="0.9" class="fade-6"/><text x="552.088888888889" y="874.8460078642985" class="t t-value fade-6" text-anchor="middle">oag</text><circle cx="474.51851851851853" cy="862.3486699281858" r="25.46688344753587" fill="#3572A5" fill-opacity="0.08" class="fade-6"/><circle cx="474.51851851851853" cy="862.3486699281858" r="21.46688344753587" fill="#3572A5" fill-opacity="0.7" stroke="#3572A5" stroke-width="1.5" stroke-opacity="0.9" class="fade-6"/><text x="474.51851851851853" y="897.8155533757217" class="t t-value fade-6" text-anchor="middle">languide</text><circle cx="162.22222222222223" cy="869.2879015211715" r="24.861890796612347" fill="#b07219" fill-opacity="0.08" class="fade-6"/><circle cx="162.22222222222223" cy="869.2879015211715" r="20.861890796612347" fill="#b07219" fill-opacity="0.7" stroke="#b07219" stroke-width="1.5" stroke-opacity="0.9" class="fade-6"/><text x="162.22222222222223" y="904.1497923177839" class="t t-value fade-6" text-anchor="middle">flappy-bird</text><circle cx="558.1333333333334" cy="872.9467411734007" r="18.06118206501968" fill="#dea584" fill-opacity="0.08" class="fade-6"/><circle cx="558.1333333333334" cy="872.9467411734007" r="14.061182065019677" fill="#dea584" fill-opacity="0.7" stroke="#dea584" stroke-width="1.5" stroke-opacity="0.9" class="fade-6"/><text x="558.1333333333334" y="901.0079232384204" class="t t-value fade-6" text-anchor="middle">sr</text><circle cx="564.1777777777779" cy="874.2208567778874" r="12.034215715337913" fill="#dea584" fill-opacity="0.08" class="fade-6"/><circle cx="564.1777777777779" cy="874.2208567778874" r="8.034215715337913" fill="#dea584" fill-opacity="0.7" stroke="#dea584" stroke-width="1.5" stroke-opacity="0.9" class="fade-6"/><text x="564.1777777777779" y="896.2550724932254" class="t t-value fade-6" text-anchor="middle">embed-src</text><circle cx="192.44444444444446" cy="883.4973124947642" r="14.637905107315877" fill="#b07219" fill-opacity="0.08" class="fade-6"/><circle cx="192.44444444444446" cy="883.4973124947642" r="10.637905107315877" fill="#b07219" fill-opacity="0.7" stroke="#b07219" stroke-width="1.5" stroke-opacity="0.9" class="fade-6"/><text x="192.44444444444446" y="908.13521760208" class="t t-value fade-6" text-anchor="middle">barter-trader</text><circle cx="484.59259259259255" cy="886.4367195472203" r="14.425254648846348" fill="#3572A5" fill-opacity="0.08" class="fade-6"/><circle cx="484.59259259259255" cy="886.4367195472203" r="10.425254648846348" fill="#3572A5" fill-opacity="0.7" stroke="#3572A5" stroke-width="1.5" stroke-opacity="0.9" class="fade-6"/><text x="484.59259259259255" y="910.8619741960666" class="t t-value fade-6" text-anchor="middle">chess-cli</text><circle cx="721.3333333333334" cy="889.0603918117224" r="25.86119772205163" fill="#3178c6" fill-opacity="0.08" class="fade-6"/><circle cx="721.3333333333334" cy="889.0603918117224" r="21.86119772205163" fill="#3178c6" fill-opacity="0.7" stroke="#3178c6" stroke-width="1.5" stroke-opacity="0.9" class="fade-6"/><text x="721.3333333333334" y="924.9215895337741" class="t t-value fade-6" text-anchor="middle">github-insights</text><circle cx="252.88888888888889" cy="907.1047746489483" r="12.127871907170075" fill="#f1e05a" fill-opacity="0.08" class="fade-6"/><circle cx="252.88888888888889" cy="907.1047746489483" r="8.127871907170075" fill="#f1e05a" fill-opacity="0.7" stroke="#f1e05a" stroke-width="1.5" stroke-opacity="0.9" class="fade-6"/><text x="252.88888888888889" y="929.2326465561183" class="t t-value fade-6" text-anchor="middle">cypress-name-too-…</text><circle cx="570.2222222222223" cy="907.7977147145464" r="10" fill="#dea584" fill-opacity="0.08" class="fade-6"/><circle cx="570.2222222222223" cy="907.7977147145464" r="6" fill="#dea584" fill-opacity="0.7" stroke="#dea584" stroke-width="1.5" stroke-opacity="0.9" class="fade-6"/><text x="570.2222222222223" y="927.7977147145464" class="t t-value fade-6" text-anchor="middle">gitit</text><circle cx="494.66666666666663" cy="916.2275541415997" r="10" fill="#3572A5" fill-opacity="0.08" class="fade-6"/><circle cx="494.66666666666663" cy="916.2275541415997" r="6" fill="#3572A5" fill-opacity="0.7" stroke="#3572A5" stroke-width="1.5" stroke-opacity="0.9" class="fade-6"/><text x="494.66666666666663" y="936.2275541415997" class="t t-value fade-6" text-anchor="middle">lightning-kfold</text><circle cx="404" cy="950" r="12.23248328671123" fill="#8b949e" fill-opacity="0.08" class="fade-6"/><circle cx="404" cy="950" r="8.23248328671123" fill="#8b949e" fill-opacity="0.7" stroke="#8b949e" stroke-width="1.5" stroke-opacity="0.9" class="fade-6"/><text x="404" y="972.2324832867113" class="t t-value fade-6" text-anchor="middle">urmzd</text><text x="24" y="1076" class="t t-h">OPEN SOURCE IMPACT</text><text x="24" y="1092" class="t t-sub">External repositories contributed to</text><text x="24" y="1124" class="t t-card-title fade-1">getzep/graphiti</text><rect x="304" y="1114" width="400" height="12" rx="3" fill="#58a6ff" fill-opacity="0.7" class="fade-1"/><text x="720" y="1124" class="t t-value fade-1">★ 24,153</text><text x="784" y="1124" class="t t-value fade-1">Python</text><text x="24" y="1166" class="t t-card-title fade-2">googleapis/python-aiplatform</text><rect x="304" y="1156" width="268.4479829676796" height="12" rx="3" fill="#3fb950" fill-opacity="0.7" class="fade-2"/><text x="720" y="1166" class="t t-value fade-2">★ 873</text><text x="784" y="1166" class="t t-value fade-2">Python</text><text x="24" y="1208" class="t t-card-title fade-3">MathisWellmann/gym-rs</text><rect x="304" y="1198" width="192.30802905115303" height="12" rx="3" fill="#d29922" fill-opacity="0.7" class="fade-3"/><text x="720" y="1208" class="t t-value fade-3">★ 127</text><text x="784" y="1208" class="t t-value fade-3">Rust</text></svg>