<svg xmlns="http://www.w3.org/2000/svg" width="808" height="1862" viewBox="0 0 808 1862"><defs><style>
  .t { font-family: -apple-system,BlinkMacSystemFont,Segoe UI,Helvetica,Arial,sans-serif; font-variant-numeric: tabular-lining; }
  .t-h { font-size: 14px; fill: #c9d1d9; letter-spacing: 2px; font-weight: 600; }
  .t-sub { font-size: 11px; fill: #6e7681; }
  .t-label { font-size: 12px; fill: #8b949e; }
  .t-value { font-size: 11px; fill: #6e7681; }
  .t-subhdr { font-size: 11px; fill: #8b949e; letter-spacing: 1px; font-weight: 600; }
  .t-stat-label { font-size: 10px; fill: #8b949e; font-weight: 600; }
  .t-stat-value { font-size: 22px; font-weight: 700; }
  .t-card-title { font-size: 12px; fill: #58a6ff; font-weight: 700; }
  .t-card-detail { font-size: 11px; fill: #8b949e; }
  .t-pill { font-size: 11px; font-weight: 600; }
  .t-bullet { font-size: 12px; fill: #c9d1d9; }
  .bg-fill { fill: #0d1117; }
  .card-fill { fill: #161b22; }
  .border-stroke { stroke: #30363d; }

  @media (prefers-color-scheme: light) {
    .bg-fill { fill: #ffffff; }
    .card-fill { fill: #f6f8fa; }
    .border-stroke { stroke: #d0d7de; }
    .t-h { fill: #1f2328; }
    .t-sub { fill: #656d76; }
    .t-label { fill: #656d76; }
    .t-value { fill: #656d76; }
    .t-subhdr { fill: #656d76; }
    .t-stat-label { fill: #656d76; }
    .t-card-title { fill: #0969da; }
    .t-card-detail { fill: #656d76; }
    .t-bullet { fill: #1f2328; }
  }

  @keyframes fadeIn {
    from { opacity: 0; transform: translateY(8px); }
    to { opacity: 1; transform: translateY(0); }
  }
  @keyframes scaleIn {
    from { transform: scale(0); opacity: 0; }
    to { transform: scale(1); opacity: 1; }
  }
  @keyframes drawPath {
    from { stroke-dashoffset: var(--path-length); }
    to { stroke-dashoffset: 0; }
  }
  @keyframes radarReveal {
    from { transform: scale(0); opacity: 0; }
    to { transform: scale(1); opacity: 0.6; }
  }
  .fade-1 { animation: fadeIn 0.6s ease-out 0.1s both; }
  .fade-2 { animation: fadeIn 0.6s ease-out 0.25s both; }
  .fade-3 { animation: fadeIn 0.6s ease-out 0.4s both; }
  .fade-4 { animation: fadeIn 0.6s ease-out 0.55s both; }
  .fade-5 { animation: fadeIn 0.6s ease-out 0.7s both; }
  .fade-6 { animation: fadeIn 0.6s ease-out 0.85s both; }
</style></defs><rect width="808" height="1862" rx="12" class="bg-fill" fill="#0d1117"/><text x="24" y="40" class="t t-h">LANGUAGE VELOCITY</text><text x="24" y="56" class="t t-sub">How language usage has evolved over the past year</text><path key="TeX" d="M 24,206 C 55.66666666666667,206 55.66666666666667,205.77653631284917 87.33333333333334,205.77653631284917 C 119.00000000000001,205.77653631284917 119.00000000000001,205.77653631284917 150.66666666666669,205.77653631284917 C 182.33333333333334,205.77653631284917 182.33333333333334,205.77653631284917 214,205.77653631284917 C 245.66666666666669,205.77653631284917 245.66666666666669,206 277.33333333333337,206 C 309,206 309,206 340.6666666666667,206 C 372.33333333333337,206 372.33333333333337,205.4413407821229 404,205.4413407821229 C 435.6666666666667,205.4413407821229 435.6666666666667,203.54189944134077 467.33333333333337,203.54189944134077 C 499.00000000000006,203.54189944134077 499.00000000000006,206 530.6666666666667,206 C 562.3333333333334,206 562.3333333333334,192.25698324022346 594,192.25698324022346 C 625.6666666666667,192.25698324022346 625.6666666666667,159.18435754189943 657.3333333333334,159.18435754189943 C 689,159.18435754189943 689,66 720.6666666666667,66 C 752.3333333333334,66 752.3333333333334,176.83798882681563 784,176.83798882681563 L 784,177.62011173184356 C 752.3333333333334,177.62011173184356 752.3333333333334,69.79888268156424 720.6666666666667,69.79888268156424 C 689,69.79888268156424 689,160.41340782122904 657.3333333333334,160.41340782122904 C 625.6666666666667,160.41340782122904 625.6666666666667,192.59217877094972 594,192.59217877094972 C 562.3333333333334,192.59217877094972 562.3333333333334,206 530.6666666666667,206 C 499.00000000000006,206 499.00000000000006,203.6536312849162 467.33333333333337,203.6536312849162 C 435.6666666666667,203.6536312849162 435.6666666666667,205.4413407821229 404,205.4413407821229 C 372.33333333333337,205.4413407821229 372.33333333333337,206 340.6666666666667,206 C 309,206 309,206 277.33333333333337,206 C 245.66666666666669,206 245.66666666666669,205.77653631284917 214,205.77653631284917 C 182.33333333333334,205.77653631284917 182.33333333333334,205.77653631284917 150.66666666666669,205.77653631284917 C 119.00000000000001,205.77653631284917 119.00000000000001,205.77653631284917 87.33333333333334,205.77653631284917 C 55.66666666666667,205.77653631284917 55.66666666666667,206 24,206 Z" fill="#3D6117" fill-opacity="0.75" class="fade-1"/><path key="Shell" d="M 24,206 C 55.66666666666667,206 55.66666666666667,205.77653631284917 87.33333333333334,205.77653631284917 C 119.00000000000001,205.77653631284917 119.00000000000001,205.77653631284917 150.66666666666669,205.77653631284917 C 182.33333333333334,205.77653631284917 182.33333333333334,205.77653631284917 214,205.77653631284917 C 245.66666666666669,205.77653631284917 245.66666666666669,206 277.33333333333337,206 C 309,206 309,206 340.6666666666667,206 C 372.33333333333337,206 372.33333333333337,205.4413407821229 404,205.4413407821229 C 435.6666666666667,205.4413407821229 435.6666666666667,203.6536312849162 467.33333333333337,203.6536312849162 C 499.00000000000006,203.6536312849162 499.00000000000006,206 530.6666666666667,206 C 562.3333333333334,206 562.3333333333334,192.59217877094972 594,192.59217877094972 C 625.6666666666667,192.59217877094972 625.6666666666667,160.41340782122904 657.3333333333334,160.41340782122904 C 689,160.41340782122904 689,69.79888268156424 720.6666666666667,69.79888268156424 C 752.3333333333334,69.79888268156424 752.3333333333334,177.62011173184356 784,177.62011173184356 L 784,178.73743016759778 C 752.3333333333334,178.73743016759778 752.3333333333334,75.3854748603352 720.6666666666667,75.3854748603352 C 689,75.3854748603352 689,162.31284916201116 657.3333333333334,162.31284916201116 C 625.6666666666667,162.31284916201116 625.6666666666667,193.15083798882682 594,193.15083798882682 C 562.3333333333334,193.15083798882682 562.3333333333334,206 530.6666666666667,206 C 499.00000000000006,206 499.00000000000006,203.76536312849163 467.33333333333337,203.76536312849163 C 435.6666666666667,203.76536312849163 435.6666666666667,205.4413407821229 404,205.4413407821229 C 372.33333333333337,205.4413407821229 372.33333333333337,206 340.6666666666667,206 C 309,206 309,206 277.33333333333337,206 C 245.66666666666669,206 245.66666666666669,205.77653631284917 214,205.77653631284917 C 182.33333333333334,205.77653631284917 182.33333333333334,205.77653631284917 150.66666666666669,205.77653631284917 C 119.00000000000001,205.77653631284917 119.00000000000001,205.77653631284917 87.33333333333334,205.77653631284917 C 55.66666666666667,205.77653631284917 55.66666666666667,206 24,206 Z" fill="#89e051" fill-opacity="0.75" class="fade-2"/><path key="Python" d="M 24,206 C 55.66666666666667,206 55.66666666666667,205.77653631284917 87.33333333333334,205.77653631284917 C 119.00000000000001,205.77653631284917 119.00000000000001,205.77653631284917 150.66666666666669,205.77653631284917 C 182.33333333333334,205.77653631284917 182.33333333333334,205.77653631284917 214,205.77653631284917 C 245.66666666666669,205.77653631284917 245.66666666666669,206 277.33333333333337,206 C 309,206 309,206 340.6666666666667,206 C 372.33333333333337,206 372.33333333333337,205.4413407821229 404,205.4413407821229 C 435.6666666666667,205.4413407821229 435.6666666666667,203.76536312849163 467.33333333333337,203.76536312849163 C 499.00000000000006,203.76536312849163 499.00000000000006,206 530.6666666666667,206 C 562.3333333333334,206 562.3333333333334,193.15083798882682 594,193.15083798882682 C 625.6666666666667,193.15083798882682 625.6666666666667,162.31284916201116 657.3333333333334,162.31284916201116 C 689,162.31284916201116 689,75.3854748603352 720.6666666666667,75.3854748603352 C 752.3333333333334,75.3854748603352 752.3333333333334,178.73743016759778 784,178.73743016759778 L 784,180.52513966480447 C 752.3333333333334,180.52513966480447 752.3333333333334,83.98882681564247 720.6666666666667,83.98882681564247 C 689,83.98882681564247 689,165.21787709497207 657.3333333333334,165.21787709497207 C 625.6666666666667,165.21787709497207 625.6666666666667,194.04469273743018 594,194.04469273743018 C 562.3333333333334,194.04469273743018 562.3333333333334,206 530.6666666666667,206 C 499.00000000000006,206 499.00000000000006,203.87709497206703 467.33333333333337,203.87709497206703 C 435.6666666666667,203.87709497206703 435.6666666666667,205.4413407821229 404,205.4413407821229 C 372.33333333333337,205.4413407821229 372.33333333333337,206 340.6666666666667,206 C 309,206 309,206 277.33333333333337,206 C 245.66666666666669,206 245.66666666666669,205.77653631284917 214,205.77653631284917 C 182.33333333333334,205.77653631284917 182.33333333333334,205.77653631284917 150.66666666666669,205.77653631284917 C 119.00000000000001,205.77653631284917 119.00000000000001,205.77653631284917 87.33333333333334,205.77653631284917 C 55.66666666666667,205.77653631284917 55.66666666666667,206 24,206 Z" fill="#3572A5" fill-opacity="0.75" class="fade-3"/><path key="JavaScript" d="M 24,206 C 55.66666666666667,206 55.66666666666667,205.77653631284917 87.33333333333334,205.77653631284917 C 119.00000000000001,205.77653631284917 119.00000000000001,205.77653631284917 150.66666666666669,205.77653631284917 C 182.33333333333334,205.77653631284917 182.33333333333334,205.77653631284917 214,205.77653631284917 C 245.66666666666669,205.77653631284917 245.66666666666669,206 277.33333333333337,206 C 309,206 309,206 340.6666666666667,206 C 372.33333333333337,206 372.33333333333337,205.4413407821229 404,205.4413407821229 C 435.6666666666667,205.4413407821229 435.6666666666667,203.87709497206703 467.33333333333337,203.87709497206703 C 499.00000000000006,203.87709497206703 499.00000000000006,206 530.6666666666667,206 C 562.3333333333334,206 562.3333333333334,194.04469273743018 594,194.04469273743018 C 625.6666666666667,194.04469273743018 625.6666666666667,165.21787709497207 657.3333333333334,165.21787709497207 C 689,165.21787709497207 689,83.98882681564247 720.6666666666667,83.98882681564247 C 752.3333333333334,83.98882681564247 752.3333333333334,180.52513966480447 784,180.52513966480447 L 784,182.64804469273741 C 752.3333333333334,182.64804469273741 752.3333333333334,94.04469273743017 720.6666666666667,94.04469273743017 C 689,94.04469273743017 689,168.56983240223462 657.3333333333334,168.56983240223462 C 625.6666666666667,168.56983240223462 625.6666666666667,195.05027932960894 594,195.05027932960894 C 562.3333333333334,195.05027932960894 562.3333333333334,206 530.6666666666667,206 C 499.00000000000006,206 499.00000000000006,204.10055865921788 467.33333333333337,204.10055865921788 C 435.6666666666667,204.10055865921788 435.6666666666667,205.4413407821229 404,205.4413407821229 C 372.33333333333337,205.4413407821229 372.33333333333337,206 340.6666666666667,206 C 309,206 309,206 277.33333333333337,206 C 245.66666666666669,206 245.66666666666669,205.77653631284917 214,205.77653631284917 C 182.33333333333334,205.77653631284917 182.33333333333334,205.77653631284917 150.66666666666669,205.77653631284917 C 119.00000000000001,205.77653631284917 119.00000000000001,205.77653631284917 87.33333333333334,205.77653631284917 C 55.66666666666667,205.77653631284917 55.66666666666667,206 24,206 Z" fill="#f1e05a" fill-opacity="0.75" class="fade-4"/><path key="HTML" d="M 24,206 C 55.66666666666667,206 55.66666666666667,205.77653631284917 87.33333333333334,205.77653631284917 C 119.00000000000001,205.77653631284917 119.00000000000001,205.77653631284917 150.66666666666669,205.77653631284917 C 182.33333333333334,205.77653631284917 182.33333333333334,205.77653631284917 214,205.77653631284917 C 245.66666666666669,205.77653631284917 245.66666666666669,206 277.33333333333337,206 C 309,206 309,206 340.6666666666667,206 C 372.33333333333337,206 372.33333333333337,205.4413407821229 404,205.4413407821229 C 435.6666666666667,205.4413407821229 435.6666666666667,204.10055865921788 467.33333333333337,204.10055865921788 C 499.00000000000006,204.10055865921788 499.00000000000006,206 530.6666666666667,206 C 562.3333333333334,206 562.3333333333334,195.05027932960894 594,195.05027932960894 C 625.6666666666667,195.05027932960894 625.6666666666667,168.56983240223462 657.3333333333334,168.56983240223462 C 689,168.56983240223462 689,94.04469273743017 720.6666666666667,94.04469273743017 C 752.3333333333334,94.04469273743017 752.3333333333334,182.64804469273741 784,182.64804469273741 L 784,186 C 752.3333333333334,186 752.3333333333334,110.1340782122905 720.6666666666667,110.1340782122905 C 689,110.1340782122905 689,173.93296089385476 657.3333333333334,173.93296089385476 C 625.6666666666667,173.93296089385476 625.6666666666667,196.6145251396648 594,196.6145251396648 C 562.3333333333334,196.6145251396648 562.3333333333334,206 530.6666666666667,206 C 499.00000000000006,206 499.00000000000006,204.3240223463687 467.33333333333337,204.3240223463687 C 435.6666666666667,204.3240223463687 435.6666666666667,205.55307262569832 404,205.55307262569832 C 372.33333333333337,205.55307262569832 372.33333333333337,206 340.6666666666667,206 C 309,206 309,206 277.33333333333337,206 C 245.66666666666669,206 245.66666666666669,205.77653631284917 214,205.77653631284917 C 182.33333333333334,205.77653631284917 182.33333333333334,205.77653631284917 150.66666666666669,205.77653631284917 C 119.00000000000001,205.77653631284917 119.00000000000001,205.77653631284917 87.33333333333334,205.77653631284917 C 55.66666666666667,205.77653631284917 55.66666666666667,206 24,206 Z" fill="#e34c26" fill-opacity="0.75" class="fade-5"/><path key="TypeScript" d="M 24,206 C 55.66666666666667,206 55.66666666666667,205.77653631284917 87.33333333333334,205.77653631284917 C 119.00000000000001,205.77653631284917 119.00000000000001,205.77653631284917 150.66666666666669,205.77653631284917 C 182.33333333333334,205.77653631284917 182.33333333333334,205.77653631284917 214,205.77653631284917 C 245.66666666666669,205.77653631284917 245.66666666666669,206 277.33333333333337,206 C 309,206 309,206 340.6666666666667,206 C 372.33333333333337,206 372.33333333333337,205.55307262569832 404,205.55307262569832 C 435.6666666666667,205.55307262569832 435.6666666666667,204.3240223463687 467.33333333333337,204.3240223463687 C 499.00000000000006,204.3240223463687 499.00000000000006,206 530.6666666666667,206 C 562.3333333333334,206 562.3333333333334,196.6145251396648 594,196.6145251396648 C 625.6666666666667,196.6145251396648 625.6666666666667,173.93296089385476 657.3333333333334,173.93296089385476 C 689,173.93296089385476 689,110.1340782122905 720.6666666666667,110.1340782122905 C 752.3333333333334,110.1340782122905 752.3333333333334,186 784,186 L 784,189.46368715083798 C 752.3333333333334,189.46368715083798 752.3333333333334,126.78212290502793 720.6666666666667,126.78212290502793 C 689,126.78212290502793 689,179.5195530726257 657.3333333333334,179.5195530726257 C 625.6666666666667,179.5195530726257 625.6666666666667,198.2905027932961 594,198.2905027932961 C 562.3333333333334,198.2905027932961 562.3333333333334,206 530.6666666666667,206 C 499.00000000000006,206 499.00000000000006,204.65921787709496 467.33333333333337,204.65921787709496 C 435.6666666666667,204.65921787709496 435.6666666666667,205.66480446927375 404,205.66480446927375 C 372.33333333333337,205.66480446927375 372.33333333333337,206 340.6666666666667,206 C 309,206 309,206 277.33333333333337,206 C 245.66666666666669,206 245.66666666666669,205.77653631284917 214,205.77653631284917 C 182.33333333333334,205.77653631284917 182.33333333333334,205.77653631284917 150.66666666666669,205.77653631284917 C 119.00000000000001,205.77653631284917 119.00000000000001,205.77653631284917 87.33333333333334,205.77653631284917 C 55.66666666666667,205.77653631284917 55.66666666666667,206 24,206 Z" fill="#3178c6" fill-opacity="0.75" class="fade-6"/><path key="Go" d="M 24,206 C 55.66666666666667,206 55.66666666666667,205.77653631284917 87.33333333333334,205.77653631284917 C 119.00000000000001,205.77653631284917 119.00000000000001,205.77653631284917 150.66666666666669,205.77653631284917 C 182.33333333333334,205.77653631284917 182.33333333333334,205.77653631284917 214,205.77653631284917 C 245.66666666666669,205.77653631284917 245.66666666666669,206 277.33333333333337,206 C 309,206 309,206 340.6666666666667,206 C 372.33333333333337,206 372.33333333333337,205.66480446927375 404,205.66480446927375 C 435.6666666666667,205.66480446927375 435.6666666666667,204.65921787709496 467.33333333333337,204.65921787709496 C 499.00000000000006,204.65921787709496 499.00000000000006,206 530.6666666666667,206 C 562.3333333333334,206 562.3333333333334,198.2905027932961 594,198.2905027932961 C 625.6666666666667,198.2905027932961 625.6666666666667,179.5195530726257 657.3333333333334,179.5195530726257 C 689,179.5195530726257 689,126.78212290502793 720.6666666666667,126.78212290502793 C 752.3333333333334,126.78212290502793 752.3333333333334,189.46368715083798 784,189.46368715083798 L 784,195.72067039106145 C 752.3333333333334,195.72067039106145 752.3333333333334,156.83798882681563 720.6666666666667,156.83798882681563 C 689,156.83798882681563 689,189.5754189944134 657.3333333333334,189.5754189944134 C 625.6666666666667,189.5754189944134 625.6666666666667,201.19553072625698 594,201.19553072625698 C 562.3333333333334,201.19553072625698 562.3333333333334,206 530.6666666666667,206 C 499.00000000000006,206 499.00000000000006,205.21787709497207 467.33333333333337,205.21787709497207 C 435.6666666666667,205.21787709497207 435.6666666666667,205.77653631284917 404,205.77653631284917 C 372.33333333333337,205.77653631284917 372.33333333333337,206 340.6666666666667,206 C 309,206 309,206 277.33333333333337,206 C 245.66666666666669,206 245.66666666666669,205.88826815642457 214,205.88826815642457 C 182.33333333333334,205.88826815642457 182.33333333333334,205.88826815642457 150.66666666666669,205.88826815642457 C 119.00000000000001,205.88826815642457 119.00000000000001,205.88826815642457 87.33333333333334,205.88826815642457 C 55.66666666666667,205.88826815642457 55.66666666666667,206 24,206 Z" fill="#00ADD8" fill-opacity="0.75" class="fade-6"/><path key="Rust" d="M 24,206 C 55.66666666666667,206 55.66666666666667,205.88826815642457 87.33333333333334,205.88826815642457 C 119.00000000000001,205.88826815642457 119.00000000000001,205.88826815642457 150.66666666666669,205.88826815642457 C 182.33333333333334,205.88826815642457 182.33333333333334,205.88826815642457 214,205.88826815642457 C 245.66666666666669,205.88826815642457 245.66666666666669,206 277.33333333333337,206 C 309,206 309,206 340.6666666666667,206 C 372.33333333333337,206 372.33333333333337,205.77653631284917 404,205.77653631284917 C 435.6666666666667,205.77653631284917 435.6666666666667,205.21787709497207 467.33333333333337,205.21787709497207 C 499.00000000000006,205.21787709497207 499.00000000000006,206 530.6666666666667,206 C 562.3333333333334,206 562.3333333333334,201.19553072625698 594,201.19553072625698 C 625.6666666666667,201.19553072625698 625.6666666666667,189.5754189944134 657.3333333333334,189.5754189944134 C 689,189.5754189944134 689,156.83798882681563 720.6666666666667,156.83798882681563 C 752.3333333333334,156.83798882681563 752.3333333333334,195.72067039106145 784,195.72067039106145 L 784,206 C 752.3333333333334,206 752.3333333333334,206 720.6666666666667,206 C 689,206 689,206 657.3333333333334,206 C 625.6666666666667,206 625.6666666666667,206 594,206 C 562.3333333333334,206 562.3333333333334,206 530.6666666666667,206 C 499.00000000000006,206 499.00000000000006,206 467.33333333333337,206 C 435.6666666666667,206 435.6666666666667,206 404,206 C 372.33333333333337,206 372.33333333333337,206 340.6666666666667,206 C 309,206 309,206 277.33333333333337,206 C 245.66666666666669,206 245.66666666666669,206 214,206 C 182.33333333333334,206 182.33333333333334,206 150.66666666666669,206 C 119.00000000000001,206 119.00000000000001,206 87.33333333333334,206 C 55.66666666666667,206 55.66666666666667,206 24,206 Z" fill="#dea584" fill-opacity="0.75" class="fade-6"/><rect x="24" y="212" width="8" height="8" rx="2" fill="#dea584" opacity="0.85"/><text x="36" y="220" class="t t-value">Rust</text><rect x="80" y="212" width="8" height="8" rx="2" fill="#00ADD8" opacity="0.85"/><text x="92" y="220" class="t t-value">Go</text><rect x="122" y="212" width="8" height="8" rx="2" fill="#3178c6" opacity="0.85"/><text x="134" y="220" class="t t-value">TypeScript</text><rect x="220" y="212" width="8" height="8" rx="2" fill="#e34c26" opacity="0.85"/><text x="232" y="220" class="t t-value">HTML</text><rect x="276" y="212" width="8" height="8" rx="2" fill="#f1e05a" opacity="0.85"/><text x="288" y="220" class="t t-value">JavaScript</text><rect x="374" y="212" width="8" height="8" rx="2" fill="#3572A5" opacity="0.85"/><text x="386" y="220" class="t t-value">Python</text><rect x="444" y="212" width="8" height="8" rx="2" fill="#89e051" opacity="0.85"/><text x="456" y="220" class="t t-value">Shell</text><rect x="507" y="212" width="8" height="8" rx="2" fill="#3D6117" opacity="0.85"/><text x="519" y="220" class="t t-value">TeX</text><text key="Apr" x="24" y="220" class="t t-value" text-anchor="start" opacity="0">Apr</text><text key="Jun" x="150.66666666666669" y="220" class="t t-value" text-anchor="start" opacity="0">Jun</text><text key="Aug" x="277.33333333333337" y="220" class="t t-value" text-anchor="start" opacity="0">Aug</text><text key="Oct" x="404" y="220" class="t t-value" text-anchor="start" opacity="0">Oct</text><text key="Dec" x="530.6666666666667" y="220" class="t t-value" text-anchor="start" opacity="0">Dec</text><text key="Feb" x="657.3333333333334" y="220" class="t t-value" text-anchor="start" opacity="0">Feb</text><text key="Apr" x="784" y="220" class="t t-value" text-anchor="start" opacity="0">Apr</text><text x="24" y="282" class="t t-h">CONTRIBUTION RHYTHM</text><text x="24" y="298" class="t t-sub">Activity patterns and statistics over the past year</text><circle key="0.25" cx="144" cy="428" r="22.5" fill="none" stroke="#30363d" stroke-width="1" stroke-opacity="0.4"/><circle key="0.5" cx="144" cy="428" r="45" fill="none" stroke="#30363d" stroke-width="1" stroke-opacity="0.4"/><circle key="0.75" cx="144" cy="428" r="67.5" fill="none" stroke="#30363d" stroke-width="1" stroke-opacity="0.4"/><circle key="1" cx="144" cy="428" r="90" fill="none" stroke="#30363d" stroke-width="1" stroke-opacity="0.4"/><line key="Sun" x1="144" y1="428" x2="144" y2="338" stroke="#30363d" stroke-width="1" stroke-opacity="0.3"/><line key="Mon" x1="144" y1="428" x2="214.36483342212267" y2="371.885917832714" stroke="#30363d" stroke-width="1" stroke-opacity="0.3"/><line key="Tue" x1="144" y1="428" x2="231.74351209636413" y2="448.0268840560683" stroke="#30363d" stroke-width="1" stroke-opacity="0.3"/><line key="Wed" x1="144" y1="428" x2="183.04953652058023" y2="509.08719811121773" stroke="#30363d" stroke-width="1" stroke-opacity="0.3"/><line key="Thu" x1="144" y1="428" x2="104.95046347941977" y2="509.08719811121773" stroke="#30363d" stroke-width="1" stroke-opacity="0.3"/><line key="Fri" x1="144" y1="428" x2="56.25648790363587" y2="448.0268840560683" stroke="#30363d" stroke-width="1" stroke-opacity="0.3"/><line key="Sat" x1="144" y1="428" x2="73.63516657787731" y2="371.885917832714" stroke="#30363d" stroke-width="1" stroke-opacity="0.3"/><polygon points="144,338 174.22628496567705,403.8953420950963 178.79221001386264,435.9410948952758 165.59609150181655,472.84474608585606 124.16962667128796,469.178194519088 96.2370099371096,438.9015907992163 81.95657296518921,378.5220179846713" fill="#58a6ff" fill-opacity="0.2" stroke="#58a6ff" stroke-width="2" stroke-opacity="0.8" class="fade-2" style="transform-origin: 144px 428px"/><circle key="Sun" cx="144" cy="338" r="3" fill="#58a6ff" class="fade-1"/><circle key="Mon" cx="174.22628496567705" cy="403.8953420950963" r="3" fill="#58a6ff" class="fade-2"/><circle key="Tue" cx="178.79221001386264" cy="435.9410948952758" r="3" fill="#58a6ff" class="fade-3"/><circle key="Wed" cx="165.59609150181655" cy="472.84474608585606" r="3" fill="#58a6ff" class="fade-4"/><circle key="Thu" cx="124.16962667128796" cy="469.178194519088" r="3" fill="#58a6ff" class="fade-5"/><circle key="Fri" cx="96.2370099371096" cy="438.9015907992163" r="3" fill="#58a6ff" class="fade-6"/><circle key="Sat" cx="81.95657296518921" cy="378.5220179846713" r="3" fill="#58a6ff" class="fade-6"/><text key="Sun" x="144" y="326" class="t t-value" text-anchor="middle">Sun</text><text key="Mon" x="226.87413714161116" y="365.91008100297427" class="t t-value" text-anchor="middle">Mon</text><text key="Tue" x="247.34235869127332" y="455.5872189993693" class="t t-value" text-anchor="middle">Tue</text><text key="Wed" x="189.99167634646116" y="527.5026999976565" class="t t-value" text-anchor="middle">Wed</text><text key="Thu" x="98.00832365353884" y="527.5026999976565" class="t t-value" text-anchor="middle">Thu</text><text key="Fri" x="40.657641308726696" y="455.5872189993693" class="t t-value" text-anchor="middle">Fri</text><text key="Sat" x="61.12586285838883" y="365.91008100297427" class="t t-value" text-anchor="middle">Sat</text><text x="324" y="338" class="t t-stat-label">COMMITS</text><text x="324" y="360" fill="#58a6ff" class="t t-stat-value">2,195</text><text x="324" y="380" class="t t-stat-label">PRS</text><text x="324" y="402" fill="#3fb950" class="t t-stat-value">108</text><text x="324" y="422" class="t t-stat-label">REVIEWS</text><text x="324" y="444" fill="#d29922" class="t t-stat-value">5</text><text x="324" y="464" class="t t-stat-label">REPOS</text><text x="324" y="486" fill="#bc8cff" class="t t-stat-value">29</text><text x="324" y="506" class="t t-stat-label">STREAK</text><text x="324" y="528" fill="#39d2c0" class="t t-stat-value">22d</text><text x="24" y="614" class="t t-h">PROJECT CONSTELLATION</text><text x="24" y="630" class="t t-sub">Top projects ranked by complexity, grouped by primary language</text><circle cx="29" cy="656" r="5" fill="#00ADD8" fill-opacity="0.8" class="fade-1"/><text x="40" y="660" class="t t-subhdr fade-1">Go</text><line x1="204" y1="656" x2="644" y2="656" stroke="#30363d" stroke-opacity="0.3" stroke-width="1"/><text x="32" y="688" class="t t-card-title fade-1">incipit</text><rect x="204" y="680" width="380" height="14" rx="4" fill="#00ADD8" fill-opacity="0.7" class="fade-1"/><text x="604" y="688" class="t t-value fade-1">★ 11</text><circle cx="36" cy="712" r="3" fill="#6e7681" fill-opacity="0.6" class="fade-1"/><text x="42" y="715" class="t fade-1" font-size="9" fill="#6e7681">TeX</text><circle cx="74" cy="712" r="3" fill="#e34c26" fill-opacity="0.6" class="fade-1"/><text x="80" y="715" class="t fade-1" font-size="9" fill="#6e7681">HTML</text><circle cx="118" cy="712" r="3" fill="#89e051" fill-opacity="0.6" class="fade-1"/><text x="124" y="715" class="t fade-1" font-size="9" fill="#6e7681">Shell</text><circle cx="168" cy="712" r="3" fill="#6e7681" fill-opacity="0.6" class="fade-1"/><text x="174" y="715" class="t fade-1" font-size="9" fill="#6e7681">Just</text><text x="32" y="748" class="t t-card-title fade-2">zigbee-skill</text><rect x="204" y="740" width="285.83788039004423" height="14" rx="4" fill="#00ADD8" fill-opacity="0.7" class="fade-2"/><text x="604" y="748" class="t t-value fade-2">★ 0</text><circle cx="36" cy="772" r="3" fill="#6e7681" fill-opacity="0.6" class="fade-2"/><text x="42" y="775" class="t fade-2" font-size="9" fill="#6e7681">Just</text><circle cx="80" cy="772" r="3" fill="#89e051" fill-opacity="0.6" class="fade-2"/><text x="86" y="775" class="t fade-2" font-size="9" fill="#6e7681">Shell</text><text x="32" y="808" class="t t-card-title fade-3">saige</text><rect x="204" y="800" width="191.34570735675388" height="14" rx="4" fill="#00ADD8" fill-opacity="0.7" class="fade-3"/><text x="604" y="808" class="t t-value fade-3">★ 0</text><circle cx="36" cy="832" r="3" fill="#6e7681" fill-opacity="0.6" class="fade-3"/><text x="42" y="835" class="t fade-3" font-size="9" fill="#6e7681">Go Templa…</text><circle cx="116" cy="832" r="3" fill="#89e051" fill-opacity="0.6" class="fade-3"/><text x="122" y="835" class="t fade-3" font-size="9" fill="#6e7681">Shell</text><circle cx="166" cy="832" r="3" fill="#6e7681" fill-opacity="0.6" class="fade-3"/><text x="172" y="835" class="t fade-3" font-size="9" fill="#6e7681">Just</text><circle cx="210" cy="832" r="3" fill="#6e7681" fill-opacity="0.6" class="fade-3"/><text x="216" y="835" class="t fade-3" font-size="9" fill="#6e7681">Dockerfile</text><circle cx="29" cy="884" r="5" fill="#DA5B0B" fill-opacity="0.8" class="fade-4"/><text x="40" y="888" class="t t-subhdr fade-4">Jupyter Notebook</text><line x1="204" y1="884" x2="644" y2="884" stroke="#30363d" stroke-opacity="0.3" stroke-width="1"/><text x="32" y="916" class="t t-card-title fade-4">lepus-classifier</text><rect x="204" y="908" width="322.05988911012616" height="14" rx="4" fill="#DA5B0B" fill-opacity="0.7" class="fade-4"/><text x="604" y="916" class="t t-value fade-4">★ 2</text><circle cx="36" cy="940" r="3" fill="#3572A5" fill-opacity="0.6" class="fade-4"/><text x="42" y="943" class="t fade-4" font-size="9" fill="#6e7681">Python</text><circle cx="92" cy="940" r="3" fill="#89e051" fill-opacity="0.6" class="fade-4"/><text x="98" y="943" class="t fade-4" font-size="9" fill="#6e7681">Shell</text><text x="32" y="976" class="t t-card-title fade-5">md-classifier</text><rect x="204" y="968" width="159.07692223390364" height="14" rx="4" fill="#DA5B0B" fill-opacity="0.7" class="fade-5"/><text x="604" y="976" class="t t-value fade-5">★ 2</text><circle cx="36" cy="1000" r="3" fill="#3572A5" fill-opacity="0.6" class="fade-5"/><text x="42" y="1003" class="t fade-5" font-size="9" fill="#6e7681">Python</text><circle cx="92" cy="1000" r="3" fill="#89e051" fill-opacity="0.6" class="fade-5"/><text x="98" y="1003" class="t fade-5" font-size="9" fill="#6e7681">Shell</text><circle cx="29" cy="1052" r="5" fill="#dea584" fill-opacity="0.8" class="fade-6"/><text x="40" y="1056" class="t t-subhdr fade-6">Rust</text><line x1="204" y1="1052" x2="644" y2="1052" stroke="#30363d" stroke-opacity="0.3" stroke-width="1"/><text x="32" y="1084" class="t t-card-title fade-6">linear-gp</text><rect x="204" y="1076" width="292.5221171411416" height="14" rx="4" fill="#dea584" fill-opacity="0.7" class="fade-6"/><text x="604" y="1084" class="t t-value fade-6">★ 3</text><circle cx="36" cy="1108" r="3" fill="#89e051" fill-opacity="0.6" class="fade-6"/><text x="42" y="1111" class="t fade-6" font-size="9" fill="#6e7681">Shell</text><circle cx="86" cy="1108" r="3" fill="#6e7681" fill-opacity="0.6" class="fade-6"/><text x="92" y="1111" class="t fade-6" font-size="9" fill="#6e7681">Just</text><text x="32" y="1144" class="t t-card-title fade-6">teasr</text><rect x="204" y="1136" width="166.2571866843222" height="14" rx="4" fill="#dea584" fill-opacity="0.7" class="fade-6"/><text x="604" y="1144" class="t t-value fade-6">★ 0</text><circle cx="36" cy="1168" r="3" fill="#e34c26" fill-opacity="0.6" class="fade-6"/><text x="42" y="1171" class="t fade-6" font-size="9" fill="#6e7681">HTML</text><circle cx="80" cy="1168" r="3" fill="#89e051" fill-opacity="0.6" class="fade-6"/><text x="86" y="1171" class="t fade-6" font-size="9" fill="#6e7681">Shell</text><circle cx="130" cy="1168" r="3" fill="#6e7681" fill-opacity="0.6" class="fade-6"/><text x="136" y="1171" class="t fade-6" font-size="9" fill="#6e7681">Just</text><text x="32" y="1204" class="t t-card-title fade-6">oag</text><rect x="204" y="1196" width="143.97514013311874" height="14" rx="4" fill="#dea584" fill-opacity="0.7" class="fade-6"/><text x="604" y="1204" class="t t-value fade-6">★ 0</text><circle cx="36" cy="1228" r="3" fill="#6e7681" fill-opacity="0.6" class="fade-6"/><text x="42" y="1231" class="t fade-6" font-size="9" fill="#6e7681">Jinja</text><circle cx="86" cy="1228" r="3" fill="#89e051" fill-opacity="0.6" class="fade-6"/><text x="92" y="1231" class="t fade-6" font-size="9" fill="#6e7681">Shell</text><circle cx="136" cy="1228" r="3" fill="#6e7681" fill-opacity="0.6" class="fade-6"/><text x="142" y="1231" class="t fade-6" font-size="9" fill="#6e7681">Just</text><circle cx="29" cy="1280" r="5" fill="#8b949e" fill-opacity="0.8" class="fade-6"/><text x="40" y="1284" class="t t-subhdr fade-6">Other</text><line x1="204" y1="1280" x2="644" y2="1280" stroke="#30363d" stroke-opacity="0.3" stroke-width="1"/><text x="32" y="1312" class="t t-card-title fade-6">urmzd.com</text><rect x="204" y="1304" width="281.6281692082018" height="14" rx="4" fill="#3178c6" fill-opacity="0.7" class="fade-6"/><text x="604" y="1312" class="t t-value fade-6">★ 1</text><circle cx="36" cy="1336" r="3" fill="#6e7681" fill-opacity="0.6" class="fade-6"/><text x="42" y="1339" class="t fade-6" font-size="9" fill="#6e7681">MDX</text><circle cx="74" cy="1336" r="3" fill="#6e7681" fill-opacity="0.6" class="fade-6"/><text x="80" y="1339" class="t fade-6" font-size="9" fill="#6e7681">Astro</text><circle cx="124" cy="1336" r="3" fill="#6e7681" fill-opacity="0.6" class="fade-6"/><text x="130" y="1339" class="t fade-6" font-size="9" fill="#6e7681">CSS</text><circle cx="162" cy="1336" r="3" fill="#e34c26" fill-opacity="0.6" class="fade-6"/><text x="168" y="1339" class="t fade-6" font-size="9" fill="#6e7681">HTML</text><circle cx="206" cy="1336" r="3" fill="#6e7681" fill-opacity="0.6" class="fade-6"/><text x="212" y="1339" class="t fade-6" font-size="9" fill="#6e7681">JavaScript</text><text x="32" y="1372" class="t t-card-title fade-6">generative-artifact-pro…</text><rect x="204" y="1364" width="209.6519155695506" height="14" rx="4" fill="#e34c26" fill-opacity="0.7" class="fade-6"/><text x="604" y="1372" class="t t-value fade-6">★ 0</text><circle cx="36" cy="1396" r="3" fill="#3572A5" fill-opacity="0.6" class="fade-6"/><text x="42" y="1399" class="t fade-6" font-size="9" fill="#6e7681">Python</text><circle cx="92" cy="1396" r="3" fill="#dea584" fill-opacity="0.6" class="fade-6"/><text x="98" y="1399" class="t fade-6" font-size="9" fill="#6e7681">Rust</text><circle cx="136" cy="1396" r="3" fill="#00ADD8" fill-opacity="0.6" class="fade-6"/><text x="142" y="1399" class="t fade-6" font-size="9" fill="#6e7681">Go</text><circle cx="168" cy="1396" r="3" fill="#89e051" fill-opacity="0.6" class="fade-6"/><text x="174" y="1399" class="t fade-6" font-size="9" fill="#6e7681">Shell</text><circle cx="218" cy="1396" r="3" fill="#6e7681" fill-opacity="0.6" class="fade-6"/><text x="224" y="1399" class="t fade-6" font-size="9" fill="#6e7681">Just</text><text x="32" y="1432" class="t t-card-title fade-6">dotfiles</text><rect x="204" y="1424" width="163.78078410106986" height="14" rx="4" fill="#89e051" fill-opacity="0.7" class="fade-6"/><text x="604" y="1432" class="t t-value fade-6">★ 2</text><circle cx="36" cy="1456" r="3" fill="#6e7681" fill-opacity="0.6" class="fade-6"/><text x="42" y="1459" class="t fade-6" font-size="9" fill="#6e7681">Lua</text><circle cx="74" cy="1456" r="3" fill="#6e7681" fill-opacity="0.6" class="fade-6"/><text x="80" y="1459" class="t fade-6" font-size="9" fill="#6e7681">Go Templa…</text><circle cx="154" cy="1456" r="3" fill="#6e7681" fill-opacity="0.6" class="fade-6"/><text x="160" y="1459" class="t fade-6" font-size="9" fill="#6e7681">Nix</text><circle cx="192" cy="1456" r="3" fill="#6e7681" fill-opacity="0.6" class="fade-6"/><text x="198" y="1459" class="t fade-6" font-size="9" fill="#6e7681">Ruby</text><circle cx="29" cy="1508" r="5" fill="#3572A5" fill-opacity="0.8" class="fade-6"/><text x="40" y="1512" class="t t-subhdr fade-6">Python</text><line x1="204" y1="1508" x2="644" y2="1508" stroke="#30363d" stroke-opacity="0.3" stroke-width="1"/><text x="32" y="1540" class="t t-card-title fade-6">exp-agi-models</text><rect x="204" y="1532" width="258.79916197476973" height="14" rx="4" fill="#3572A5" fill-opacity="0.7" class="fade-6"/><text x="604" y="1540" class="t t-value fade-6">★ 0</text><circle cx="36" cy="1564" r="3" fill="#89e051" fill-opacity="0.6" class="fade-6"/><text x="42" y="1567" class="t fade-6" font-size="9" fill="#6e7681">Shell</text><text x="24" y="1640" class="t t-h">OPEN SOURCE IMPACT</text><text x="24" y="1656" class="t t-sub">External repositories contributed to</text><text x="24" y="1690" class="t t-card-title fade-1">getzep/graphiti</text><rect x="280" y="1680" width="340" height="12" rx="3" fill="#58a6ff" fill-opacity="0.7" class="fade-1"/><text x="636" y="1690" class="t t-value fade-1">★ 24,477</text><text x="728" y="1690" class="t t-value fade-1">Python</text><text x="24" y="1736" class="t t-card-title fade-2">googleapis/python-aiplatform</text><rect x="280" y="1726" width="227.99520358337114" height="12" rx="3" fill="#3fb950" fill-opacity="0.7" class="fade-2"/><text x="636" y="1736" class="t t-value fade-2">★ 876</text><text x="728" y="1736" class="t t-value fade-2">Python</text><text x="24" y="1782" class="t t-card-title fade-3">MathisWellmann/gym-rs</text><rect x="280" y="1772" width="163.24629031745172" height="12" rx="3" fill="#d29922" fill-opacity="0.7" class="fade-3"/><text x="636" y="1782" class="t t-value fade-3">★ 127</text><text x="728" y="1782" class="t t-value fade-3">Rust</text></svg>