<svg xmlns="http://www.w3.org/2000/svg" width="808" height="1862" viewBox="0 0 808 1862"><defs><style>
  .t { font-family: -apple-system,BlinkMacSystemFont,Segoe UI,Helvetica,Arial,sans-serif; font-variant-numeric: tabular-lining; }
  .t-h { font-size: 14px; fill: #c9d1d9; letter-spacing: 2px; font-weight: 600; }
  .t-sub { font-size: 11px; fill: #6e7681; }
  .t-label { font-size: 12px; fill: #8b949e; }
  .t-value { font-size: 11px; fill: #6e7681; }
  .t-subhdr { font-size: 11px; fill: #8b949e; letter-spacing: 1px; font-weight: 600; }
  .t-stat-label { font-size: 10px; fill: #8b949e; font-weight: 600; }
  .t-stat-value { font-size: 22px; font-weight: 700; }
  .t-card-title { font-size: 12px; fill: #58a6ff; font-weight: 700; }
  .t-card-detail { font-size: 11px; fill: #8b949e; }
  .t-pill { font-size: 11px; font-weight: 600; }
  .t-bullet { font-size: 12px; fill: #c9d1d9; }
  .bg-fill { fill: #0d1117; }
  .card-fill { fill: #161b22; }
  .border-stroke { stroke: #30363d; }

  @media (prefers-color-scheme: light) {
    .bg-fill { fill: #ffffff; }
    .card-fill { fill: #f6f8fa; }
    .border-stroke { stroke: #d0d7de; }
    .t-h { fill: #1f2328; }
    .t-sub { fill: #656d76; }
    .t-label { fill: #656d76; }
    .t-value { fill: #656d76; }
    .t-subhdr { fill: #656d76; }
    .t-stat-label { fill: #656d76; }
    .t-card-title { fill: #0969da; }
    .t-card-detail { fill: #656d76; }
    .t-bullet { fill: #1f2328; }
  }

  @keyframes fadeIn {
    from { opacity: 0; transform: translateY(8px); }
    to { opacity: 1; transform: translateY(0); }
  }
  @keyframes scaleIn {
    from { transform: scale(0); opacity: 0; }
    to { transform: scale(1); opacity: 1; }
  }
  @keyframes drawPath {
    from { stroke-dashoffset: var(--path-length); }
    to { stroke-dashoffset: 0; }
  }
  @keyframes radarReveal {
    from { transform: scale(0); opacity: 0; }
    to { transform: scale(1); opacity: 0.6; }
  }
  .fade-1 { animation: fadeIn 0.6s ease-out 0.1s both; }
  .fade-2 { animation: fadeIn 0.6s ease-out 0.25s both; }
  .fade-3 { animation: fadeIn 0.6s ease-out 0.4s both; }
  .fade-4 { animation: fadeIn 0.6s ease-out 0.55s both; }
  .fade-5 { animation: fadeIn 0.6s ease-out 0.7s both; }
  .fade-6 { animation: fadeIn 0.6s ease-out 0.85s both; }
</style></defs><rect width="808" height="1862" rx="12" class="bg-fill" fill="#0d1117"/><text x="24" y="40" class="t t-h">LANGUAGE VELOCITY</text><text x="24" y="56" class="t t-sub">How language usage has evolved over the past year</text><path key="TeX" d="M 24,206 C 55.66666666666667,206 55.66666666666667,206 87.33333333333334,206 C 119.00000000000001,206 119.00000000000001,205.65174129353233 150.66666666666669,205.65174129353233 C 182.33333333333334,205.65174129353233 182.33333333333334,205.41956882255388 214,205.41956882255388 C 245.66666666666669,205.41956882255388 245.66666666666669,205.88391376451077 277.33333333333337,205.88391376451077 C 309,205.88391376451077 309,206 340.6666666666667,206 C 372.33333333333337,206 372.33333333333337,201.4726368159204 404,201.4726368159204 C 435.6666666666667,201.4726368159204 435.6666666666667,205.18739635157544 467.33333333333337,205.18739635157544 C 499.00000000000006,205.18739635157544 499.00000000000006,202.6334991708126 530.6666666666667,202.6334991708126 C 562.3333333333334,202.6334991708126 562.3333333333334,205.41956882255388 594,205.41956882255388 C 625.6666666666667,205.41956882255388 625.6666666666667,186.38142620232173 657.3333333333334,186.38142620232173 C 689,186.38142620232173 689,148.65339966832505 720.6666666666667,148.65339966832505 C 752.3333333333334,148.65339966832505 752.3333333333334,66 784,66 L 784,67.044776119403 C 752.3333333333334,67.044776119403 752.3333333333334,149.11774461028193 720.6666666666667,149.11774461028193 C 689,149.11774461028193 689,186.49751243781094 657.3333333333334,186.49751243781094 C 625.6666666666667,186.49751243781094 625.6666666666667,205.41956882255388 594,205.41956882255388 C 562.3333333333334,205.41956882255388 562.3333333333334,202.6334991708126 530.6666666666667,202.6334991708126 C 499.00000000000006,202.6334991708126 499.00000000000006,205.18739635157544 467.33333333333337,205.18739635157544 C 435.6666666666667,205.18739635157544 435.6666666666667,201.4726368159204 404,201.4726368159204 C 372.33333333333337,201.4726368159204 372.33333333333337,206 340.6666666666667,206 C 309,206 309,205.88391376451077 277.33333333333337,205.88391376451077 C 245.66666666666669,205.88391376451077 245.66666666666669,205.41956882255388 214,205.41956882255388 C 182.33333333333334,205.41956882255388 182.33333333333334,205.65174129353233 150.66666666666669,205.65174129353233 C 119.00000000000001,205.65174129353233 119.00000000000001,206 87.33333333333334,206 C 55.66666666666667,206 55.66666666666667,206 24,206 Z" fill="#3D6117" fill-opacity="0.75" class="fade-1"/><path key="Java" d="M 24,206 C 55.66666666666667,206 55.66666666666667,206 87.33333333333334,206 C 119.00000000000001,206 119.00000000000001,205.65174129353233 150.66666666666669,205.65174129353233 C 182.33333333333334,205.65174129353233 182.33333333333334,205.41956882255388 214,205.41956882255388 C 245.66666666666669,205.41956882255388 245.66666666666669,205.88391376451077 277.33333333333337,205.88391376451077 C 309,205.88391376451077 309,206 340.6666666666667,206 C 372.33333333333337,206 372.33333333333337,201.4726368159204 404,201.4726368159204 C 435.6666666666667,201.4726368159204 435.6666666666667,205.18739635157544 467.33333333333337,205.18739635157544 C 499.00000000000006,205.18739635157544 499.00000000000006,202.6334991708126 530.6666666666667,202.6334991708126 C 562.3333333333334,202.6334991708126 562.3333333333334,205.41956882255388 594,205.41956882255388 C 625.6666666666667,205.41956882255388 625.6666666666667,186.49751243781094 657.3333333333334,186.49751243781094 C 689,186.49751243781094 689,149.11774461028193 720.6666666666667,149.11774461028193 C 752.3333333333334,149.11774461028193 752.3333333333334,67.044776119403 784,67.044776119403 L 784,70.87562189054725 C 752.3333333333334,70.87562189054725 752.3333333333334,150.62686567164178 720.6666666666667,150.62686567164178 C 689,150.62686567164178 689,187.07794361525706 657.3333333333334,187.07794361525706 C 625.6666666666667,187.07794361525706 625.6666666666667,205.41956882255388 594,205.41956882255388 C 562.3333333333334,205.41956882255388 562.3333333333334,202.74958540630183 530.6666666666667,202.74958540630183 C 499.00000000000006,202.74958540630183 499.00000000000006,205.18739635157544 467.33333333333337,205.18739635157544 C 435.6666666666667,205.18739635157544 435.6666666666667,201.58872305140963 404,201.58872305140963 C 372.33333333333337,201.58872305140963 372.33333333333337,206 340.6666666666667,206 C 309,206 309,205.88391376451077 277.33333333333337,205.88391376451077 C 245.66666666666669,205.88391376451077 245.66666666666669,205.41956882255388 214,205.41956882255388 C 182.33333333333334,205.41956882255388 182.33333333333334,205.65174129353233 150.66666666666669,205.65174129353233 C 119.00000000000001,205.65174129353233 119.00000000000001,206 87.33333333333334,206 C 55.66666666666667,206 55.66666666666667,206 24,206 Z" fill="#b07219" fill-opacity="0.75" class="fade-2"/><path key="JavaScript" d="M 24,206 C 55.66666666666667,206 55.66666666666667,206 87.33333333333334,206 C 119.00000000000001,206 119.00000000000001,205.65174129353233 150.66666666666669,205.65174129353233 C 182.33333333333334,205.65174129353233 182.33333333333334,205.41956882255388 214,205.41956882255388 C 245.66666666666669,205.41956882255388 245.66666666666669,205.88391376451077 277.33333333333337,205.88391376451077 C 309,205.88391376451077 309,206 340.6666666666667,206 C 372.33333333333337,206 372.33333333333337,201.58872305140963 404,201.58872305140963 C 435.6666666666667,201.58872305140963 435.6666666666667,205.18739635157544 467.33333333333337,205.18739635157544 C 499.00000000000006,205.18739635157544 499.00000000000006,202.74958540630183 530.6666666666667,202.74958540630183 C 562.3333333333334,202.74958540630183 562.3333333333334,205.41956882255388 594,205.41956882255388 C 625.6666666666667,205.41956882255388 625.6666666666667,187.07794361525706 657.3333333333334,187.07794361525706 C 689,187.07794361525706 689,150.62686567164178 720.6666666666667,150.62686567164178 C 752.3333333333334,150.62686567164178 752.3333333333334,70.87562189054725 784,70.87562189054725 L 784,82.25207296849088 C 752.3333333333334,82.25207296849088 752.3333333333334,155.27031509121062 720.6666666666667,155.27031509121062 C 689,155.27031509121062 689,188.70315091210614 657.3333333333334,188.70315091210614 C 625.6666666666667,188.70315091210614 625.6666666666667,205.41956882255388 594,205.41956882255388 C 562.3333333333334,205.41956882255388 562.3333333333334,202.98175787728027 530.6666666666667,202.98175787728027 C 499.00000000000006,202.98175787728027 499.00000000000006,205.30348258706468 467.33333333333337,205.30348258706468 C 435.6666666666667,205.30348258706468 435.6666666666667,201.93698175787728 404,201.93698175787728 C 372.33333333333337,201.93698175787728 372.33333333333337,206 340.6666666666667,206 C 309,206 309,205.88391376451077 277.33333333333337,205.88391376451077 C 245.66666666666669,205.88391376451077 245.66666666666669,205.41956882255388 214,205.41956882255388 C 182.33333333333334,205.41956882255388 182.33333333333334,205.65174129353233 150.66666666666669,205.65174129353233 C 119.00000000000001,205.65174129353233 119.00000000000001,206 87.33333333333334,206 C 55.66666666666667,206 55.66666666666667,206 24,206 Z" fill="#f1e05a" fill-opacity="0.75" class="fade-3"/><path key="Python" d="M 24,206 C 55.66666666666667,206 55.66666666666667,206 87.33333333333334,206 C 119.00000000000001,206 119.00000000000001,205.65174129353233 150.66666666666669,205.65174129353233 C 182.33333333333334,205.65174129353233 182.33333333333334,205.41956882255388 214,205.41956882255388 C 245.66666666666669,205.41956882255388 245.66666666666669,205.88391376451077 277.33333333333337,205.88391376451077 C 309,205.88391376451077 309,206 340.6666666666667,206 C 372.33333333333337,206 372.33333333333337,201.93698175787728 404,201.93698175787728 C 435.6666666666667,201.93698175787728 435.6666666666667,205.30348258706468 467.33333333333337,205.30348258706468 C 499.00000000000006,205.30348258706468 499.00000000000006,202.98175787728027 530.6666666666667,202.98175787728027 C 562.3333333333334,202.98175787728027 562.3333333333334,205.41956882255388 594,205.41956882255388 C 625.6666666666667,205.41956882255388 625.6666666666667,188.70315091210614 657.3333333333334,188.70315091210614 C 689,188.70315091210614 689,155.27031509121062 720.6666666666667,155.27031509121062 C 752.3333333333334,155.27031509121062 752.3333333333334,82.25207296849088 784,82.25207296849088 L 784,93.74461028192373 C 752.3333333333334,93.74461028192373 752.3333333333334,160.02985074626866 720.6666666666667,160.02985074626866 C 689,160.02985074626866 689,190.32835820895522 657.3333333333334,190.32835820895522 C 625.6666666666667,190.32835820895522 625.6666666666667,205.41956882255388 594,205.41956882255388 C 562.3333333333334,205.41956882255388 562.3333333333334,203.2139303482587 530.6666666666667,203.2139303482587 C 499.00000000000006,203.2139303482587 499.00000000000006,205.41956882255388 467.33333333333337,205.41956882255388 C 435.6666666666667,205.41956882255388 435.6666666666667,202.28524046434495 404,202.28524046434495 C 372.33333333333337,202.28524046434495 372.33333333333337,206 340.6666666666667,206 C 309,206 309,205.88391376451077 277.33333333333337,205.88391376451077 C 245.66666666666669,205.88391376451077 245.66666666666669,205.41956882255388 214,205.41956882255388 C 182.33333333333334,205.41956882255388 182.33333333333334,205.65174129353233 150.66666666666669,205.65174129353233 C 119.00000000000001,205.65174129353233 119.00000000000001,206 87.33333333333334,206 C 55.66666666666667,206 55.66666666666667,206 24,206 Z" fill="#3572A5" fill-opacity="0.75" class="fade-4"/><path key="Shell" d="M 24,206 C 55.66666666666667,206 55.66666666666667,206 87.33333333333334,206 C 119.00000000000001,206 119.00000000000001,205.65174129353233 150.66666666666669,205.65174129353233 C 182.33333333333334,205.65174129353233 182.33333333333334,205.41956882255388 214,205.41956882255388 C 245.66666666666669,205.41956882255388 245.66666666666669,205.88391376451077 277.33333333333337,205.88391376451077 C 309,205.88391376451077 309,206 340.6666666666667,206 C 372.33333333333337,206 372.33333333333337,202.28524046434495 404,202.28524046434495 C 435.6666666666667,202.28524046434495 435.6666666666667,205.41956882255388 467.33333333333337,205.41956882255388 C 499.00000000000006,205.41956882255388 499.00000000000006,203.2139303482587 530.6666666666667,203.2139303482587 C 562.3333333333334,203.2139303482587 562.3333333333334,205.41956882255388 594,205.41956882255388 C 625.6666666666667,205.41956882255388 625.6666666666667,190.32835820895522 657.3333333333334,190.32835820895522 C 689,190.32835820895522 689,160.02985074626866 720.6666666666667,160.02985074626866 C 752.3333333333334,160.02985074626866 752.3333333333334,93.74461028192373 784,93.74461028192373 L 784,110.34494195688225 C 752.3333333333334,110.34494195688225 752.3333333333334,166.87893864013267 720.6666666666667,166.87893864013267 C 689,166.87893864013267 689,192.65008291873963 657.3333333333334,192.65008291873963 C 625.6666666666667,192.65008291873963 625.6666666666667,205.53565505804312 594,205.53565505804312 C 562.3333333333334,205.53565505804312 562.3333333333334,203.6782752902156 530.6666666666667,203.6782752902156 C 499.00000000000006,203.6782752902156 499.00000000000006,205.53565505804312 467.33333333333337,205.53565505804312 C 435.6666666666667,205.53565505804312 435.6666666666667,202.86567164179104 404,202.86567164179104 C 372.33333333333337,202.86567164179104 372.33333333333337,206 340.6666666666667,206 C 309,206 309,205.88391376451077 277.33333333333337,205.88391376451077 C 245.66666666666669,205.88391376451077 245.66666666666669,205.53565505804312 214,205.53565505804312 C 182.33333333333334,205.53565505804312 182.33333333333334,205.65174129353233 150.66666666666669,205.65174129353233 C 119.00000000000001,205.65174129353233 119.00000000000001,206 87.33333333333334,206 C 55.66666666666667,206 55.66666666666667,206 24,206 Z" fill="#89e051" fill-opacity="0.75" class="fade-5"/><path key="Go" d="M 24,206 C 55.66666666666667,206 55.66666666666667,206 87.33333333333334,206 C 119.00000000000001,206 119.00000000000001,205.65174129353233 150.66666666666669,205.65174129353233 C 182.33333333333334,205.65174129353233 182.33333333333334,205.53565505804312 214,205.53565505804312 C 245.66666666666669,205.53565505804312 245.66666666666669,205.88391376451077 277.33333333333337,205.88391376451077 C 309,205.88391376451077 309,206 340.6666666666667,206 C 372.33333333333337,206 372.33333333333337,202.86567164179104 404,202.86567164179104 C 435.6666666666667,202.86567164179104 435.6666666666667,205.53565505804312 467.33333333333337,205.53565505804312 C 499.00000000000006,205.53565505804312 499.00000000000006,203.6782752902156 530.6666666666667,203.6782752902156 C 562.3333333333334,203.6782752902156 562.3333333333334,205.53565505804312 594,205.53565505804312 C 625.6666666666667,205.53565505804312 625.6666666666667,192.65008291873963 657.3333333333334,192.65008291873963 C 689,192.65008291873963 689,166.87893864013267 720.6666666666667,166.87893864013267 C 752.3333333333334,166.87893864013267 752.3333333333334,110.34494195688225 784,110.34494195688225 L 784,134.49087893864015 C 752.3333333333334,134.49087893864015 752.3333333333334,176.7462686567164 720.6666666666667,176.7462686567164 C 689,176.7462686567164 689,196.01658374792703 657.3333333333334,196.01658374792703 C 625.6666666666667,196.01658374792703 625.6666666666667,205.65174129353233 594,205.65174129353233 C 562.3333333333334,205.65174129353233 562.3333333333334,204.25870646766168 530.6666666666667,204.25870646766168 C 499.00000000000006,204.25870646766168 499.00000000000006,205.65174129353233 467.33333333333337,205.65174129353233 C 435.6666666666667,205.65174129353233 435.6666666666667,203.6782752902156 404,203.6782752902156 C 372.33333333333337,203.6782752902156 372.33333333333337,206 340.6666666666667,206 C 309,206 309,205.88391376451077 277.33333333333337,205.88391376451077 C 245.66666666666669,205.88391376451077 245.66666666666669,205.65174129353233 214,205.65174129353233 C 182.33333333333334,205.65174129353233 182.33333333333334,205.76782752902156 150.66666666666669,205.76782752902156 C 119.00000000000001,205.76782752902156 119.00000000000001,206 87.33333333333334,206 C 55.66666666666667,206 55.66666666666667,206 24,206 Z" fill="#00ADD8" fill-opacity="0.75" class="fade-6"/><path key="TypeScript" d="M 24,206 C 55.66666666666667,206 55.66666666666667,206 87.33333333333334,206 C 119.00000000000001,206 119.00000000000001,205.76782752902156 150.66666666666669,205.76782752902156 C 182.33333333333334,205.76782752902156 182.33333333333334,205.65174129353233 214,205.65174129353233 C 245.66666666666669,205.65174129353233 245.66666666666669,205.88391376451077 277.33333333333337,205.88391376451077 C 309,205.88391376451077 309,206 340.6666666666667,206 C 372.33333333333337,206 372.33333333333337,203.6782752902156 404,203.6782752902156 C 435.6666666666667,203.6782752902156 435.6666666666667,205.65174129353233 467.33333333333337,205.65174129353233 C 499.00000000000006,205.65174129353233 499.00000000000006,204.25870646766168 530.6666666666667,204.25870646766168 C 562.3333333333334,204.25870646766168 562.3333333333334,205.65174129353233 594,205.65174129353233 C 625.6666666666667,205.65174129353233 625.6666666666667,196.01658374792703 657.3333333333334,196.01658374792703 C 689,196.01658374792703 689,176.7462686567164 720.6666666666667,176.7462686567164 C 752.3333333333334,176.7462686567164 752.3333333333334,134.49087893864015 784,134.49087893864015 L 784,158.86898839137643 C 752.3333333333334,158.86898839137643 752.3333333333334,186.72968490878938 720.6666666666667,186.72968490878938 C 689,186.72968490878938 689,199.38308457711443 657.3333333333334,199.38308457711443 C 625.6666666666667,199.38308457711443 625.6666666666667,205.76782752902156 594,205.76782752902156 C 562.3333333333334,205.76782752902156 562.3333333333334,204.8391376451078 530.6666666666667,204.8391376451078 C 499.00000000000006,204.8391376451078 499.00000000000006,205.76782752902156 467.33333333333337,205.76782752902156 C 435.6666666666667,205.76782752902156 435.6666666666667,204.49087893864012 404,204.49087893864012 C 372.33333333333337,204.49087893864012 372.33333333333337,206 340.6666666666667,206 C 309,206 309,205.88391376451077 277.33333333333337,205.88391376451077 C 245.66666666666669,205.88391376451077 245.66666666666669,205.76782752902156 214,205.76782752902156 C 182.33333333333334,205.76782752902156 182.33333333333334,205.88391376451077 150.66666666666669,205.88391376451077 C 119.00000000000001,205.88391376451077 119.00000000000001,206 87.33333333333334,206 C 55.66666666666667,206 55.66666666666667,206 24,206 Z" fill="#3178c6" fill-opacity="0.75" class="fade-6"/><path key="Rust" d="M 24,206 C 55.66666666666667,206 55.66666666666667,206 87.33333333333334,206 C 119.00000000000001,206 119.00000000000001,205.88391376451077 150.66666666666669,205.88391376451077 C 182.33333333333334,205.88391376451077 182.33333333333334,205.76782752902156 214,205.76782752902156 C 245.66666666666669,205.76782752902156 245.66666666666669,205.88391376451077 277.33333333333337,205.88391376451077 C 309,205.88391376451077 309,206 340.6666666666667,206 C 372.33333333333337,206 372.33333333333337,204.49087893864012 404,204.49087893864012 C 435.6666666666667,204.49087893864012 435.6666666666667,205.76782752902156 467.33333333333337,205.76782752902156 C 499.00000000000006,205.76782752902156 499.00000000000006,204.8391376451078 530.6666666666667,204.8391376451078 C 562.3333333333334,204.8391376451078 562.3333333333334,205.76782752902156 594,205.76782752902156 C 625.6666666666667,205.76782752902156 625.6666666666667,199.38308457711443 657.3333333333334,199.38308457711443 C 689,199.38308457711443 689,186.72968490878938 720.6666666666667,186.72968490878938 C 752.3333333333334,186.72968490878938 752.3333333333334,158.86898839137643 784,158.86898839137643 L 784,206 C 752.3333333333334,206 752.3333333333334,206 720.6666666666667,206 C 689,206 689,206 657.3333333333334,206 C 625.6666666666667,206 625.6666666666667,206 594,206 C 562.3333333333334,206 562.3333333333334,206 530.6666666666667,206 C 499.00000000000006,206 499.00000000000006,206 467.33333333333337,206 C 435.6666666666667,206 435.6666666666667,206 404,206 C 372.33333333333337,206 372.33333333333337,206 340.6666666666667,206 C 309,206 309,206 277.33333333333337,206 C 245.66666666666669,206 245.66666666666669,206 214,206 C 182.33333333333334,206 182.33333333333334,206 150.66666666666669,206 C 119.00000000000001,206 119.00000000000001,206 87.33333333333334,206 C 55.66666666666667,206 55.66666666666667,206 24,206 Z" fill="#dea584" fill-opacity="0.75" class="fade-6"/><rect x="24" y="212" width="8" height="8" rx="2" fill="#dea584" opacity="0.85"/><text x="36" y="220" class="t t-value">Rust</text><rect x="80" y="212" width="8" height="8" rx="2" fill="#3178c6" opacity="0.85"/><text x="92" y="220" class="t t-value">TypeScript</text><rect x="178" y="212" width="8" height="8" rx="2" fill="#00ADD8" opacity="0.85"/><text x="190" y="220" class="t t-value">Go</text><rect x="220" y="212" width="8" height="8" rx="2" fill="#89e051" opacity="0.85"/><text x="232" y="220" class="t t-value">Shell</text><rect x="283" y="212" width="8" height="8" rx="2" fill="#3572A5" opacity="0.85"/><text x="295" y="220" class="t t-value">Python</text><rect x="353" y="212" width="8" height="8" rx="2" fill="#f1e05a" opacity="0.85"/><text x="365" y="220" class="t t-value">JavaScript</text><rect x="451" y="212" width="8" height="8" rx="2" fill="#b07219" opacity="0.85"/><text x="463" y="220" class="t t-value">Java</text><rect x="507" y="212" width="8" height="8" rx="2" fill="#3D6117" opacity="0.85"/><text x="519" y="220" class="t t-value">TeX</text><text key="Mar" x="24" y="220" class="t t-value" text-anchor="start" opacity="0">Mar</text><text key="May" x="150.66666666666669" y="220" class="t t-value" text-anchor="start" opacity="0">May</text><text key="Jul" x="277.33333333333337" y="220" class="t t-value" text-anchor="start" opacity="0">Jul</text><text key="Sep" x="404" y="220" class="t t-value" text-anchor="start" opacity="0">Sep</text><text key="Nov" x="530.6666666666667" y="220" class="t t-value" text-anchor="start" opacity="0">Nov</text><text key="Jan" x="657.3333333333334" y="220" class="t t-value" text-anchor="start" opacity="0">Jan</text><text key="Mar" x="784" y="220" class="t t-value" text-anchor="start" opacity="0">Mar</text><text x="24" y="282" class="t t-h">CONTRIBUTION RHYTHM</text><text x="24" y="298" class="t t-sub">Activity patterns and statistics over the past year</text><circle key="0.25" cx="144" cy="428" r="22.5" fill="none" stroke="#30363d" stroke-width="1" stroke-opacity="0.4"/><circle key="0.5" cx="144" cy="428" r="45" fill="none" stroke="#30363d" stroke-width="1" stroke-opacity="0.4"/><circle key="0.75" cx="144" cy="428" r="67.5" fill="none" stroke="#30363d" stroke-width="1" stroke-opacity="0.4"/><circle key="1" cx="144" cy="428" r="90" fill="none" stroke="#30363d" stroke-width="1" stroke-opacity="0.4"/><line key="Sun" x1="144" y1="428" x2="144" y2="338" stroke="#30363d" stroke-width="1" stroke-opacity="0.3"/><line key="Mon" x1="144" y1="428" x2="214.36483342212267" y2="371.885917832714" stroke="#30363d" stroke-width="1" stroke-opacity="0.3"/><line key="Tue" x1="144" y1="428" x2="231.74351209636413" y2="448.0268840560683" stroke="#30363d" stroke-width="1" stroke-opacity="0.3"/><line key="Wed" x1="144" y1="428" x2="183.04953652058023" y2="509.08719811121773" stroke="#30363d" stroke-width="1" stroke-opacity="0.3"/><line key="Thu" x1="144" y1="428" x2="104.95046347941977" y2="509.08719811121773" stroke="#30363d" stroke-width="1" stroke-opacity="0.3"/><line key="Fri" x1="144" y1="428" x2="56.25648790363587" y2="448.0268840560683" stroke="#30363d" stroke-width="1" stroke-opacity="0.3"/><line key="Sat" x1="144" y1="428" x2="73.63516657787731" y2="371.885917832714" stroke="#30363d" stroke-width="1" stroke-opacity="0.3"/><polygon points="144,338 172.79148229932727,405.0395590398077 178.29241848903771,435.827020741179 167.501372438074,476.801102716476 129.38329275192962,458.3519053480521 116.30846957692728,434.32041111494266 73.89338615006858,372.0918410700251" fill="#58a6ff" fill-opacity="0.2" stroke="#58a6ff" stroke-width="2" stroke-opacity="0.8" class="fade-2" style="transform-origin: 144px 428px"/><circle key="Sun" cx="144" cy="338" r="3" fill="#58a6ff" class="fade-1"/><circle key="Mon" cx="172.79148229932727" cy="405.0395590398077" r="3" fill="#58a6ff" class="fade-2"/><circle key="Tue" cx="178.29241848903771" cy="435.827020741179" r="3" fill="#58a6ff" class="fade-3"/><circle key="Wed" cx="167.501372438074" cy="476.801102716476" r="3" fill="#58a6ff" class="fade-4"/><circle key="Thu" cx="129.38329275192962" cy="458.3519053480521" r="3" fill="#58a6ff" class="fade-5"/><circle key="Fri" cx="116.30846957692728" cy="434.32041111494266" r="3" fill="#58a6ff" class="fade-6"/><circle key="Sat" cx="73.89338615006858" cy="372.0918410700251" r="3" fill="#58a6ff" class="fade-6"/><text key="Sun" x="144" y="326" class="t t-value" text-anchor="middle">Sun</text><text key="Mon" x="226.87413714161116" y="365.91008100297427" class="t t-value" text-anchor="middle">Mon</text><text key="Tue" x="247.34235869127332" y="455.5872189993693" class="t t-value" text-anchor="middle">Tue</text><text key="Wed" x="189.99167634646116" y="527.5026999976565" class="t t-value" text-anchor="middle">Wed</text><text key="Thu" x="98.00832365353884" y="527.5026999976565" class="t t-value" text-anchor="middle">Thu</text><text key="Fri" x="40.657641308726696" y="455.5872189993693" class="t t-value" text-anchor="middle">Fri</text><text key="Sat" x="61.12586285838883" y="365.91008100297427" class="t t-value" text-anchor="middle">Sat</text><text x="324" y="338" class="t t-stat-label">COMMITS</text><text x="324" y="360" fill="#58a6ff" class="t t-stat-value">2,009</text><text x="324" y="380" class="t t-stat-label">PRS</text><text x="324" y="402" fill="#3fb950" class="t t-stat-value">60</text><text x="324" y="422" class="t t-stat-label">REVIEWS</text><text x="324" y="444" fill="#d29922" class="t t-stat-value">5</text><text x="324" y="464" class="t t-stat-label">REPOS</text><text x="324" y="486" fill="#bc8cff" class="t t-stat-value">27</text><text x="324" y="506" class="t t-stat-label">STREAK</text><text x="324" y="528" fill="#39d2c0" class="t t-stat-value">20d</text><text x="24" y="614" class="t t-h">PROJECT CONSTELLATION</text><text x="24" y="630" class="t t-sub">Top projects ranked by complexity, grouped by primary language</text><circle cx="29" cy="656" r="5" fill="#00ADD8" fill-opacity="0.8" class="fade-1"/><text x="40" y="660" class="t t-subhdr fade-1">Go</text><line x1="204" y1="656" x2="644" y2="656" stroke="#30363d" stroke-opacity="0.3" stroke-width="1"/><text x="32" y="688" class="t t-card-title fade-1">incipit</text><rect x="204" y="680" width="380" height="14" rx="4" fill="#00ADD8" fill-opacity="0.7" class="fade-1"/><text x="604" y="688" class="t t-value fade-1">★ 11</text><circle cx="36" cy="712" r="3" fill="#6e7681" fill-opacity="0.6" class="fade-1"/><text x="42" y="715" class="t fade-1" font-size="9" fill="#6e7681">TeX</text><circle cx="74" cy="712" r="3" fill="#6e7681" fill-opacity="0.6" class="fade-1"/><text x="80" y="715" class="t fade-1" font-size="9" fill="#6e7681">HTML</text><circle cx="118" cy="712" r="3" fill="#6e7681" fill-opacity="0.6" class="fade-1"/><text x="124" y="715" class="t fade-1" font-size="9" fill="#6e7681">Shell</text><circle cx="168" cy="712" r="3" fill="#6e7681" fill-opacity="0.6" class="fade-1"/><text x="174" y="715" class="t fade-1" font-size="9" fill="#6e7681">Just</text><text x="32" y="748" class="t t-card-title fade-2">zigbee-skill</text><rect x="204" y="740" width="285.83788039004423" height="14" rx="4" fill="#00ADD8" fill-opacity="0.7" class="fade-2"/><text x="604" y="748" class="t t-value fade-2">★ 0</text><circle cx="36" cy="772" r="3" fill="#6e7681" fill-opacity="0.6" class="fade-2"/><text x="42" y="775" class="t fade-2" font-size="9" fill="#6e7681">Just</text><circle cx="80" cy="772" r="3" fill="#6e7681" fill-opacity="0.6" class="fade-2"/><text x="86" y="775" class="t fade-2" font-size="9" fill="#6e7681">Shell</text><text x="32" y="808" class="t t-card-title fade-3">saige</text><rect x="204" y="800" width="191.13446736913457" height="14" rx="4" fill="#00ADD8" fill-opacity="0.7" class="fade-3"/><text x="604" y="808" class="t t-value fade-3">★ 0</text><circle cx="36" cy="832" r="3" fill="#6e7681" fill-opacity="0.6" class="fade-3"/><text x="42" y="835" class="t fade-3" font-size="9" fill="#6e7681">Go Templa…</text><circle cx="116" cy="832" r="3" fill="#6e7681" fill-opacity="0.6" class="fade-3"/><text x="122" y="835" class="t fade-3" font-size="9" fill="#6e7681">Shell</text><circle cx="166" cy="832" r="3" fill="#6e7681" fill-opacity="0.6" class="fade-3"/><text x="172" y="835" class="t fade-3" font-size="9" fill="#6e7681">Just</text><circle cx="210" cy="832" r="3" fill="#6e7681" fill-opacity="0.6" class="fade-3"/><text x="216" y="835" class="t fade-3" font-size="9" fill="#6e7681">Dockerfile</text><circle cx="29" cy="884" r="5" fill="#DA5B0B" fill-opacity="0.8" class="fade-4"/><text x="40" y="888" class="t t-subhdr fade-4">Jupyter Notebook</text><line x1="204" y1="884" x2="644" y2="884" stroke="#30363d" stroke-opacity="0.3" stroke-width="1"/><text x="32" y="916" class="t t-card-title fade-4">lepus-classifier</text><rect x="204" y="908" width="322.05988911012616" height="14" rx="4" fill="#DA5B0B" fill-opacity="0.7" class="fade-4"/><text x="604" y="916" class="t t-value fade-4">★ 2</text><circle cx="36" cy="940" r="3" fill="#3572A5" fill-opacity="0.6" class="fade-4"/><text x="42" y="943" class="t fade-4" font-size="9" fill="#6e7681">Python</text><circle cx="92" cy="940" r="3" fill="#6e7681" fill-opacity="0.6" class="fade-4"/><text x="98" y="943" class="t fade-4" font-size="9" fill="#6e7681">Shell</text><text x="32" y="976" class="t t-card-title fade-5">md-classifier</text><rect x="204" y="968" width="159.07692223390364" height="14" rx="4" fill="#DA5B0B" fill-opacity="0.7" class="fade-5"/><text x="604" y="976" class="t t-value fade-5">★ 2</text><circle cx="36" cy="1000" r="3" fill="#3572A5" fill-opacity="0.6" class="fade-5"/><text x="42" y="1003" class="t fade-5" font-size="9" fill="#6e7681">Python</text><circle cx="92" cy="1000" r="3" fill="#6e7681" fill-opacity="0.6" class="fade-5"/><text x="98" y="1003" class="t fade-5" font-size="9" fill="#6e7681">Shell</text><circle cx="29" cy="1052" r="5" fill="#dea584" fill-opacity="0.8" class="fade-6"/><text x="40" y="1056" class="t t-subhdr fade-6">Rust</text><line x1="204" y1="1052" x2="644" y2="1052" stroke="#30363d" stroke-opacity="0.3" stroke-width="1"/><text x="32" y="1084" class="t t-card-title fade-6">linear-gp</text><rect x="204" y="1076" width="293.559456366058" height="14" rx="4" fill="#dea584" fill-opacity="0.7" class="fade-6"/><text x="604" y="1084" class="t t-value fade-6">★ 3</text><circle cx="36" cy="1108" r="3" fill="#6e7681" fill-opacity="0.6" class="fade-6"/><text x="42" y="1111" class="t fade-6" font-size="9" fill="#6e7681">Shell</text><circle cx="86" cy="1108" r="3" fill="#6e7681" fill-opacity="0.6" class="fade-6"/><text x="92" y="1111" class="t fade-6" font-size="9" fill="#6e7681">Just</text><text x="32" y="1144" class="t t-card-title fade-6">teasr</text><rect x="204" y="1136" width="166.4231609603088" height="14" rx="4" fill="#dea584" fill-opacity="0.7" class="fade-6"/><text x="604" y="1144" class="t t-value fade-6">★ 0</text><circle cx="36" cy="1168" r="3" fill="#6e7681" fill-opacity="0.6" class="fade-6"/><text x="42" y="1171" class="t fade-6" font-size="9" fill="#6e7681">HTML</text><circle cx="80" cy="1168" r="3" fill="#6e7681" fill-opacity="0.6" class="fade-6"/><text x="86" y="1171" class="t fade-6" font-size="9" fill="#6e7681">Shell</text><circle cx="130" cy="1168" r="3" fill="#6e7681" fill-opacity="0.6" class="fade-6"/><text x="136" y="1171" class="t fade-6" font-size="9" fill="#6e7681">Just</text><text x="32" y="1204" class="t t-card-title fade-6">oag</text><rect x="204" y="1196" width="144.43911367735407" height="14" rx="4" fill="#dea584" fill-opacity="0.7" class="fade-6"/><text x="604" y="1204" class="t t-value fade-6">★ 0</text><circle cx="36" cy="1228" r="3" fill="#6e7681" fill-opacity="0.6" class="fade-6"/><text x="42" y="1231" class="t fade-6" font-size="9" fill="#6e7681">Jinja</text><circle cx="86" cy="1228" r="3" fill="#6e7681" fill-opacity="0.6" class="fade-6"/><text x="92" y="1231" class="t fade-6" font-size="9" fill="#6e7681">Shell</text><circle cx="136" cy="1228" r="3" fill="#6e7681" fill-opacity="0.6" class="fade-6"/><text x="142" y="1231" class="t fade-6" font-size="9" fill="#6e7681">Just</text><circle cx="29" cy="1280" r="5" fill="#3178c6" fill-opacity="0.8" class="fade-6"/><text x="40" y="1284" class="t t-subhdr fade-6">TypeScript</text><line x1="204" y1="1280" x2="644" y2="1280" stroke="#30363d" stroke-opacity="0.3" stroke-width="1"/><text x="32" y="1312" class="t t-card-title fade-6">urmzd.com</text><rect x="204" y="1304" width="281.3565749384055" height="14" rx="4" fill="#3178c6" fill-opacity="0.7" class="fade-6"/><text x="604" y="1312" class="t t-value fade-6">★ 1</text><circle cx="36" cy="1336" r="3" fill="#6e7681" fill-opacity="0.6" class="fade-6"/><text x="42" y="1339" class="t fade-6" font-size="9" fill="#6e7681">MDX</text><circle cx="74" cy="1336" r="3" fill="#6e7681" fill-opacity="0.6" class="fade-6"/><text x="80" y="1339" class="t fade-6" font-size="9" fill="#6e7681">Astro</text><circle cx="124" cy="1336" r="3" fill="#6e7681" fill-opacity="0.6" class="fade-6"/><text x="130" y="1339" class="t fade-6" font-size="9" fill="#6e7681">CSS</text><circle cx="162" cy="1336" r="3" fill="#6e7681" fill-opacity="0.6" class="fade-6"/><text x="168" y="1339" class="t fade-6" font-size="9" fill="#6e7681">HTML</text><circle cx="206" cy="1336" r="3" fill="#6e7681" fill-opacity="0.6" class="fade-6"/><text x="212" y="1339" class="t fade-6" font-size="9" fill="#6e7681">JavaScript</text><text x="32" y="1372" class="t t-card-title fade-6">zoro</text><rect x="204" y="1364" width="176.41179466059435" height="14" rx="4" fill="#3178c6" fill-opacity="0.7" class="fade-6"/><text x="604" y="1372" class="t t-value fade-6">★ 0</text><circle cx="36" cy="1396" r="3" fill="#00ADD8" fill-opacity="0.6" class="fade-6"/><text x="42" y="1399" class="t fade-6" font-size="9" fill="#6e7681">Go</text><circle cx="68" cy="1396" r="3" fill="#6e7681" fill-opacity="0.6" class="fade-6"/><text x="74" y="1399" class="t fade-6" font-size="9" fill="#6e7681">CSS</text><circle cx="106" cy="1396" r="3" fill="#3572A5" fill-opacity="0.6" class="fade-6"/><text x="112" y="1399" class="t fade-6" font-size="9" fill="#6e7681">Python</text><circle cx="162" cy="1396" r="3" fill="#6e7681" fill-opacity="0.6" class="fade-6"/><text x="168" y="1399" class="t fade-6" font-size="9" fill="#6e7681">Just</text><circle cx="206" cy="1396" r="3" fill="#6e7681" fill-opacity="0.6" class="fade-6"/><text x="212" y="1399" class="t fade-6" font-size="9" fill="#6e7681">Shell</text><circle cx="29" cy="1448" r="5" fill="#3572A5" fill-opacity="0.8" class="fade-6"/><text x="40" y="1452" class="t t-subhdr fade-6">Python</text><line x1="204" y1="1448" x2="644" y2="1448" stroke="#30363d" stroke-opacity="0.3" stroke-width="1"/><text x="32" y="1480" class="t t-card-title fade-6">exp-agi-models</text><rect x="204" y="1472" width="258.79916197476973" height="14" rx="4" fill="#3572A5" fill-opacity="0.7" class="fade-6"/><text x="604" y="1480" class="t t-value fade-6">★ 0</text><circle cx="36" cy="1504" r="3" fill="#6e7681" fill-opacity="0.6" class="fade-6"/><text x="42" y="1507" class="t fade-6" font-size="9" fill="#6e7681">Shell</text><text x="32" y="1540" class="t t-card-title fade-6">languide</text><rect x="204" y="1532" width="132.50405437686183" height="14" rx="4" fill="#3572A5" fill-opacity="0.7" class="fade-6"/><text x="604" y="1540" class="t t-value fade-6">★ 0</text><circle cx="36" cy="1564" r="3" fill="#6e7681" fill-opacity="0.6" class="fade-6"/><text x="42" y="1567" class="t fade-6" font-size="9" fill="#6e7681">TeX</text><circle cx="74" cy="1564" r="3" fill="#6e7681" fill-opacity="0.6" class="fade-6"/><text x="80" y="1567" class="t fade-6" font-size="9" fill="#6e7681">Shell</text><circle cx="124" cy="1564" r="3" fill="#6e7681" fill-opacity="0.6" class="fade-6"/><text x="130" y="1567" class="t fade-6" font-size="9" fill="#6e7681">Just</text><text x="24" y="1640" class="t t-h">OPEN SOURCE IMPACT</text><text x="24" y="1656" class="t t-sub">External repositories contributed to</text><text x="24" y="1690" class="t t-card-title fade-1">getzep/graphiti</text><rect x="280" y="1680" width="340" height="12" rx="3" fill="#58a6ff" fill-opacity="0.7" class="fade-1"/><text x="636" y="1690" class="t t-value fade-1">★ 24,327</text><text x="728" y="1690" class="t t-value fade-1">Python</text><text x="24" y="1736" class="t t-card-title fade-2">googleapis/python-aiplatform</text><rect x="280" y="1726" width="228.13396868723308" height="12" rx="3" fill="#3fb950" fill-opacity="0.7" class="fade-2"/><text x="636" y="1736" class="t t-value fade-2">★ 876</text><text x="728" y="1736" class="t t-value fade-2">Python</text><text x="24" y="1782" class="t t-card-title fade-3">MathisWellmann/gym-rs</text><rect x="280" y="1772" width="163.08160330111068" height="12" rx="3" fill="#d29922" fill-opacity="0.7" class="fade-3"/><text x="636" y="1782" class="t t-value fade-3">★ 126</text><text x="728" y="1782" class="t t-value fade-3">Rust</text></svg>