<svg xmlns="http://www.w3.org/2000/svg" width="808" height="1286" viewBox="0 0 808 1286"><defs><style>
  .t { font-family: -apple-system,BlinkMacSystemFont,Segoe UI,Helvetica,Arial,sans-serif; font-variant-numeric: tabular-lining; }
  .t-h { font-size: 14px; fill: #c9d1d9; letter-spacing: 2px; font-weight: 600; }
  .t-sub { font-size: 11px; fill: #6e7681; }
  .t-label { font-size: 12px; fill: #8b949e; }
  .t-value { font-size: 11px; fill: #6e7681; }
  .t-subhdr { font-size: 11px; fill: #8b949e; letter-spacing: 1px; font-weight: 600; }
  .t-stat-label { font-size: 10px; fill: #8b949e; font-weight: 600; }
  .t-stat-value { font-size: 22px; font-weight: 700; }
  .t-card-title { font-size: 12px; fill: #58a6ff; font-weight: 700; }
  .t-card-detail { font-size: 11px; fill: #8b949e; }
  .t-pill { font-size: 11px; font-weight: 600; }
  .t-bullet { font-size: 12px; fill: #c9d1d9; }
  .bg-fill { fill: #0d1117; }
  .card-fill { fill: #161b22; }
  .border-stroke { stroke: #30363d; }

  @media (prefers-color-scheme: light) {
    .bg-fill { fill: #ffffff; }
    .card-fill { fill: #f6f8fa; }
    .border-stroke { stroke: #d0d7de; }
    .t-h { fill: #1f2328; }
    .t-sub { fill: #656d76; }
    .t-label { fill: #656d76; }
    .t-value { fill: #656d76; }
    .t-subhdr { fill: #656d76; }
    .t-stat-label { fill: #656d76; }
    .t-card-title { fill: #0969da; }
    .t-card-detail { fill: #656d76; }
    .t-bullet { fill: #1f2328; }
  }

  @keyframes fadeIn {
    from { opacity: 0; transform: translateY(8px); }
    to { opacity: 1; transform: translateY(0); }
  }
  @keyframes scaleIn {
    from { transform: scale(0); opacity: 0; }
    to { transform: scale(1); opacity: 1; }
  }
  @keyframes drawPath {
    from { stroke-dashoffset: var(--path-length); }
    to { stroke-dashoffset: 0; }
  }
  @keyframes radarReveal {
    from { transform: scale(0); opacity: 0; }
    to { transform: scale(1); opacity: 0.6; }
  }
  .fade-1 { animation: fadeIn 0.6s ease-out 0.1s both; }
  .fade-2 { animation: fadeIn 0.6s ease-out 0.25s both; }
  .fade-3 { animation: fadeIn 0.6s ease-out 0.4s both; }
  .fade-4 { animation: fadeIn 0.6s ease-out 0.55s both; }
  .fade-5 { animation: fadeIn 0.6s ease-out 0.7s both; }
  .fade-6 { animation: fadeIn 0.6s ease-out 0.85s both; }
</style></defs><rect width="808" height="1286" rx="12" class="bg-fill" fill="#0d1117"/><text x="24" y="40" class="t t-h">LANGUAGE VELOCITY</text><text x="24" y="56" class="t t-sub">How language usage has evolved over the past year</text><path d="M 24,206 C 55.66666666666667,206 55.66666666666667,206 87.33333333333334,206 C 119.00000000000001,206 119.00000000000001,205.46222791293215 150.66666666666669,205.46222791293215 C 182.33333333333334,205.46222791293215 182.33333333333334,204.92445582586427 214,204.92445582586427 C 245.66666666666669,204.92445582586427 245.66666666666669,205.6414852752881 277.33333333333337,205.6414852752881 C 309,205.6414852752881 309,206 340.6666666666667,206 C 372.33333333333337,206 372.33333333333337,198.82970550576184 404,198.82970550576184 C 435.6666666666667,198.82970550576184 435.6666666666667,204.74519846350833 467.33333333333337,204.74519846350833 C 499.00000000000006,204.74519846350833 499.00000000000006,200.44302176696544 530.6666666666667,200.44302176696544 C 562.3333333333334,200.44302176696544 562.3333333333334,204.92445582586427 594,204.92445582586427 C 625.6666666666667,204.92445582586427 625.6666666666667,174.809218950064 657.3333333333334,174.809218950064 C 689,174.809218950064 689,121.74903969270167 720.6666666666667,121.74903969270167 C 752.3333333333334,121.74903969270167 752.3333333333334,66 784,66 L 784,66.71702944942382 C 752.3333333333334,66.71702944942382 752.3333333333334,122.10755441741357 720.6666666666667,122.10755441741357 C 689,122.10755441741357 689,174.98847631241998 657.3333333333334,174.98847631241998 C 625.6666666666667,174.98847631241998 625.6666666666667,204.92445582586427 594,204.92445582586427 C 562.3333333333334,204.92445582586427 562.3333333333334,200.44302176696544 530.6666666666667,200.44302176696544 C 499.00000000000006,200.44302176696544 499.00000000000006,204.74519846350833 467.33333333333337,204.74519846350833 C 435.6666666666667,204.74519846350833 435.6666666666667,198.82970550576184 404,198.82970550576184 C 372.33333333333337,198.82970550576184 372.33333333333337,206 340.6666666666667,206 C 309,206 309,205.6414852752881 277.33333333333337,205.6414852752881 C 245.66666666666669,205.6414852752881 245.66666666666669,204.92445582586427 214,204.92445582586427 C 182.33333333333334,204.92445582586427 182.33333333333334,205.46222791293215 150.66666666666669,205.46222791293215 C 119.00000000000001,205.46222791293215 119.00000000000001,206 87.33333333333334,206 C 55.66666666666667,206 55.66666666666667,206 24,206 Z" fill="#3D6117" fill-opacity="0.75" class="fade-1"/><path d="M 24,206 C 55.66666666666667,206 55.66666666666667,206 87.33333333333334,206 C 119.00000000000001,206 119.00000000000001,205.46222791293215 150.66666666666669,205.46222791293215 C 182.33333333333334,205.46222791293215 182.33333333333334,204.92445582586427 214,204.92445582586427 C 245.66666666666669,204.92445582586427 245.66666666666669,205.6414852752881 277.33333333333337,205.6414852752881 C 309,205.6414852752881 309,206 340.6666666666667,206 C 372.33333333333337,206 372.33333333333337,198.82970550576184 404,198.82970550576184 C 435.6666666666667,198.82970550576184 435.6666666666667,204.74519846350833 467.33333333333337,204.74519846350833 C 499.00000000000006,204.74519846350833 499.00000000000006,200.44302176696544 530.6666666666667,200.44302176696544 C 562.3333333333334,200.44302176696544 562.3333333333334,204.92445582586427 594,204.92445582586427 C 625.6666666666667,204.92445582586427 625.6666666666667,174.98847631241998 657.3333333333334,174.98847631241998 C 689,174.98847631241998 689,122.10755441741357 720.6666666666667,122.10755441741357 C 752.3333333333334,122.10755441741357 752.3333333333334,66.71702944942382 784,66.71702944942382 L 784,67.79257362355952 C 752.3333333333334,67.79257362355952 752.3333333333334,122.64532650448145 720.6666666666667,122.64532650448145 C 689,122.64532650448145 689,175.16773367477592 657.3333333333334,175.16773367477592 C 625.6666666666667,175.16773367477592 625.6666666666667,204.92445582586427 594,204.92445582586427 C 562.3333333333334,204.92445582586427 562.3333333333334,200.44302176696544 530.6666666666667,200.44302176696544 C 499.00000000000006,200.44302176696544 499.00000000000006,204.74519846350833 467.33333333333337,204.74519846350833 C 435.6666666666667,204.74519846350833 435.6666666666667,198.82970550576184 404,198.82970550576184 C 372.33333333333337,198.82970550576184 372.33333333333337,206 340.6666666666667,206 C 309,206 309,205.6414852752881 277.33333333333337,205.6414852752881 C 245.66666666666669,205.6414852752881 245.66666666666669,204.92445582586427 214,204.92445582586427 C 182.33333333333334,204.92445582586427 182.33333333333334,205.46222791293215 150.66666666666669,205.46222791293215 C 119.00000000000001,205.46222791293215 119.00000000000001,206 87.33333333333334,206 C 55.66666666666667,206 55.66666666666667,206 24,206 Z" fill="#DA5B0B" fill-opacity="0.75" class="fade-2"/><path d="M 24,206 C 55.66666666666667,206 55.66666666666667,206 87.33333333333334,206 C 119.00000000000001,206 119.00000000000001,205.46222791293215 150.66666666666669,205.46222791293215 C 182.33333333333334,205.46222791293215 182.33333333333334,204.92445582586427 214,204.92445582586427 C 245.66666666666669,204.92445582586427 245.66666666666669,205.6414852752881 277.33333333333337,205.6414852752881 C 309,205.6414852752881 309,206 340.6666666666667,206 C 372.33333333333337,206 372.33333333333337,198.82970550576184 404,198.82970550576184 C 435.6666666666667,198.82970550576184 435.6666666666667,204.74519846350833 467.33333333333337,204.74519846350833 C 499.00000000000006,204.74519846350833 499.00000000000006,200.44302176696544 530.6666666666667,200.44302176696544 C 562.3333333333334,200.44302176696544 562.3333333333334,204.92445582586427 594,204.92445582586427 C 625.6666666666667,204.92445582586427 625.6666666666667,175.16773367477592 657.3333333333334,175.16773367477592 C 689,175.16773367477592 689,122.64532650448145 720.6666666666667,122.64532650448145 C 752.3333333333334,122.64532650448145 752.3333333333334,67.79257362355952 784,67.79257362355952 L 784,72.63252240717028 C 752.3333333333334,72.63252240717028 752.3333333333334,125.51344430217671 720.6666666666667,125.51344430217671 C 689,125.51344430217671 689,176.24327784891165 657.3333333333334,176.24327784891165 C 625.6666666666667,176.24327784891165 625.6666666666667,204.92445582586427 594,204.92445582586427 C 562.3333333333334,204.92445582586427 562.3333333333334,200.62227912932138 530.6666666666667,200.62227912932138 C 499.00000000000006,200.62227912932138 499.00000000000006,204.74519846350833 467.33333333333337,204.74519846350833 C 435.6666666666667,204.74519846350833 435.6666666666667,199.0089628681178 404,199.0089628681178 C 372.33333333333337,199.0089628681178 372.33333333333337,206 340.6666666666667,206 C 309,206 309,205.6414852752881 277.33333333333337,205.6414852752881 C 245.66666666666669,205.6414852752881 245.66666666666669,204.92445582586427 214,204.92445582586427 C 182.33333333333334,204.92445582586427 182.33333333333334,205.46222791293215 150.66666666666669,205.46222791293215 C 119.00000000000001,205.46222791293215 119.00000000000001,206 87.33333333333334,206 C 55.66666666666667,206 55.66666666666667,206 24,206 Z" fill="#b07219" fill-opacity="0.75" class="fade-3"/><path d="M 24,206 C 55.66666666666667,206 55.66666666666667,206 87.33333333333334,206 C 119.00000000000001,206 119.00000000000001,205.46222791293215 150.66666666666669,205.46222791293215 C 182.33333333333334,205.46222791293215 182.33333333333334,204.92445582586427 214,204.92445582586427 C 245.66666666666669,204.92445582586427 245.66666666666669,205.6414852752881 277.33333333333337,205.6414852752881 C 309,205.6414852752881 309,206 340.6666666666667,206 C 372.33333333333337,206 372.33333333333337,199.0089628681178 404,199.0089628681178 C 435.6666666666667,199.0089628681178 435.6666666666667,204.74519846350833 467.33333333333337,204.74519846350833 C 499.00000000000006,204.74519846350833 499.00000000000006,200.62227912932138 530.6666666666667,200.62227912932138 C 562.3333333333334,200.62227912932138 562.3333333333334,204.92445582586427 594,204.92445582586427 C 625.6666666666667,204.92445582586427 625.6666666666667,176.24327784891165 657.3333333333334,176.24327784891165 C 689,176.24327784891165 689,125.51344430217671 720.6666666666667,125.51344430217671 C 752.3333333333334,125.51344430217671 752.3333333333334,72.63252240717028 784,72.63252240717028 L 784,85.53905249679897 C 752.3333333333334,85.53905249679897 752.3333333333334,133.40076824583866 720.6666666666667,133.40076824583866 C 689,133.40076824583866 689,179.11139564660692 657.3333333333334,179.11139564660692 C 625.6666666666667,179.11139564660692 625.6666666666667,205.10371318822024 594,205.10371318822024 C 562.3333333333334,205.10371318822024 562.3333333333334,201.16005121638923 530.6666666666667,201.16005121638923 C 499.00000000000006,201.16005121638923 499.00000000000006,204.92445582586427 467.33333333333337,204.92445582586427 C 435.6666666666667,204.92445582586427 435.6666666666667,199.72599231754162 404,199.72599231754162 C 372.33333333333337,199.72599231754162 372.33333333333337,206 340.6666666666667,206 C 309,206 309,205.6414852752881 277.33333333333337,205.6414852752881 C 245.66666666666669,205.6414852752881 245.66666666666669,205.10371318822024 214,205.10371318822024 C 182.33333333333334,205.10371318822024 182.33333333333334,205.46222791293215 150.66666666666669,205.46222791293215 C 119.00000000000001,205.46222791293215 119.00000000000001,206 87.33333333333334,206 C 55.66666666666667,206 55.66666666666667,206 24,206 Z" fill="#3572A5" fill-opacity="0.75" class="fade-4"/><path d="M 24,206 C 55.66666666666667,206 55.66666666666667,206 87.33333333333334,206 C 119.00000000000001,206 119.00000000000001,205.46222791293215 150.66666666666669,205.46222791293215 C 182.33333333333334,205.46222791293215 182.33333333333334,205.10371318822024 214,205.10371318822024 C 245.66666666666669,205.10371318822024 245.66666666666669,205.6414852752881 277.33333333333337,205.6414852752881 C 309,205.6414852752881 309,206 340.6666666666667,206 C 372.33333333333337,206 372.33333333333337,199.72599231754162 404,199.72599231754162 C 435.6666666666667,199.72599231754162 435.6666666666667,204.92445582586427 467.33333333333337,204.92445582586427 C 499.00000000000006,204.92445582586427 499.00000000000006,201.16005121638923 530.6666666666667,201.16005121638923 C 562.3333333333334,201.16005121638923 562.3333333333334,205.10371318822024 594,205.10371318822024 C 625.6666666666667,205.10371318822024 625.6666666666667,179.11139564660692 657.3333333333334,179.11139564660692 C 689,179.11139564660692 689,133.40076824583866 720.6666666666667,133.40076824583866 C 752.3333333333334,133.40076824583866 752.3333333333334,85.53905249679897 784,85.53905249679897 L 784,104.00256081946222 C 752.3333333333334,104.00256081946222 752.3333333333334,144.51472471190783 720.6666666666667,144.51472471190783 C 689,144.51472471190783 689,183.23431498079384 657.3333333333334,183.23431498079384 C 625.6666666666667,183.23431498079384 625.6666666666667,205.28297055057618 594,205.28297055057618 C 562.3333333333334,205.28297055057618 562.3333333333334,201.87708066581305 530.6666666666667,201.87708066581305 C 499.00000000000006,201.87708066581305 499.00000000000006,205.10371318822024 467.33333333333337,205.10371318822024 C 435.6666666666667,205.10371318822024 435.6666666666667,200.62227912932138 404,200.62227912932138 C 372.33333333333337,200.62227912932138 372.33333333333337,206 340.6666666666667,206 C 309,206 309,205.6414852752881 277.33333333333337,205.6414852752881 C 245.66666666666669,205.6414852752881 245.66666666666669,205.28297055057618 214,205.28297055057618 C 182.33333333333334,205.28297055057618 182.33333333333334,205.46222791293215 150.66666666666669,205.46222791293215 C 119.00000000000001,205.46222791293215 119.00000000000001,206 87.33333333333334,206 C 55.66666666666667,206 55.66666666666667,206 24,206 Z" fill="#89e051" fill-opacity="0.75" class="fade-5"/><path d="M 24,206 C 55.66666666666667,206 55.66666666666667,206 87.33333333333334,206 C 119.00000000000001,206 119.00000000000001,205.46222791293215 150.66666666666669,205.46222791293215 C 182.33333333333334,205.46222791293215 182.33333333333334,205.28297055057618 214,205.28297055057618 C 245.66666666666669,205.28297055057618 245.66666666666669,205.6414852752881 277.33333333333337,205.6414852752881 C 309,205.6414852752881 309,206 340.6666666666667,206 C 372.33333333333337,206 372.33333333333337,200.62227912932138 404,200.62227912932138 C 435.6666666666667,200.62227912932138 435.6666666666667,205.10371318822024 467.33333333333337,205.10371318822024 C 499.00000000000006,205.10371318822024 499.00000000000006,201.87708066581305 530.6666666666667,201.87708066581305 C 562.3333333333334,201.87708066581305 562.3333333333334,205.28297055057618 594,205.28297055057618 C 625.6666666666667,205.28297055057618 625.6666666666667,183.23431498079384 657.3333333333334,183.23431498079384 C 689,183.23431498079384 689,144.51472471190783 720.6666666666667,144.51472471190783 C 752.3333333333334,144.51472471190783 752.3333333333334,104.00256081946222 784,104.00256081946222 L 784,127.12676056338027 C 752.3333333333334,127.12676056338027 752.3333333333334,158.49679897567222 720.6666666666667,158.49679897567222 C 689,158.49679897567222 689,188.43277848911652 657.3333333333334,188.43277848911652 C 625.6666666666667,188.43277848911652 625.6666666666667,205.46222791293215 594,205.46222791293215 C 562.3333333333334,205.46222791293215 562.3333333333334,202.77336747759284 530.6666666666667,202.77336747759284 C 499.00000000000006,202.77336747759284 499.00000000000006,205.28297055057618 467.33333333333337,205.28297055057618 C 435.6666666666667,205.28297055057618 435.6666666666667,201.87708066581305 404,201.87708066581305 C 372.33333333333337,201.87708066581305 372.33333333333337,206 340.6666666666667,206 C 309,206 309,205.6414852752881 277.33333333333337,205.6414852752881 C 245.66666666666669,205.6414852752881 245.66666666666669,205.46222791293215 214,205.46222791293215 C 182.33333333333334,205.46222791293215 182.33333333333334,205.6414852752881 150.66666666666669,205.6414852752881 C 119.00000000000001,205.6414852752881 119.00000000000001,206 87.33333333333334,206 C 55.66666666666667,206 55.66666666666667,206 24,206 Z" fill="#00ADD8" fill-opacity="0.75" class="fade-6"/><path d="M 24,206 C 55.66666666666667,206 55.66666666666667,206 87.33333333333334,206 C 119.00000000000001,206 119.00000000000001,205.6414852752881 150.66666666666669,205.6414852752881 C 182.33333333333334,205.6414852752881 182.33333333333334,205.46222791293215 214,205.46222791293215 C 245.66666666666669,205.46222791293215 245.66666666666669,205.6414852752881 277.33333333333337,205.6414852752881 C 309,205.6414852752881 309,206 340.6666666666667,206 C 372.33333333333337,206 372.33333333333337,201.87708066581305 404,201.87708066581305 C 435.6666666666667,201.87708066581305 435.6666666666667,205.28297055057618 467.33333333333337,205.28297055057618 C 499.00000000000006,205.28297055057618 499.00000000000006,202.77336747759284 530.6666666666667,202.77336747759284 C 562.3333333333334,202.77336747759284 562.3333333333334,205.46222791293215 594,205.46222791293215 C 625.6666666666667,205.46222791293215 625.6666666666667,188.43277848911652 657.3333333333334,188.43277848911652 C 689,188.43277848911652 689,158.49679897567222 720.6666666666667,158.49679897567222 C 752.3333333333334,158.49679897567222 752.3333333333334,127.12676056338027 784,127.12676056338027 L 784,157.7797695262484 C 752.3333333333334,157.7797695262484 752.3333333333334,176.96030729833547 720.6666666666667,176.96030729833547 C 689,176.96030729833547 689,195.24455825864277 657.3333333333334,195.24455825864277 C 625.6666666666667,195.24455825864277 625.6666666666667,205.6414852752881 594,205.6414852752881 C 562.3333333333334,205.6414852752881 562.3333333333334,204.0281690140845 530.6666666666667,204.0281690140845 C 499.00000000000006,204.0281690140845 499.00000000000006,205.6414852752881 467.33333333333337,205.6414852752881 C 435.6666666666667,205.6414852752881 435.6666666666667,203.49039692701663 404,203.49039692701663 C 372.33333333333337,203.49039692701663 372.33333333333337,206 340.6666666666667,206 C 309,206 309,205.82074263764406 277.33333333333337,205.82074263764406 C 245.66666666666669,205.82074263764406 245.66666666666669,205.6414852752881 214,205.6414852752881 C 182.33333333333334,205.6414852752881 182.33333333333334,205.82074263764406 150.66666666666669,205.82074263764406 C 119.00000000000001,205.82074263764406 119.00000000000001,206 87.33333333333334,206 C 55.66666666666667,206 55.66666666666667,206 24,206 Z" fill="#3178c6" fill-opacity="0.75" class="fade-6"/><path d="M 24,206 C 55.66666666666667,206 55.66666666666667,206 87.33333333333334,206 C 119.00000000000001,206 119.00000000000001,205.82074263764406 150.66666666666669,205.82074263764406 C 182.33333333333334,205.82074263764406 182.33333333333334,205.6414852752881 214,205.6414852752881 C 245.66666666666669,205.6414852752881 245.66666666666669,205.82074263764406 277.33333333333337,205.82074263764406 C 309,205.82074263764406 309,206 340.6666666666667,206 C 372.33333333333337,206 372.33333333333337,203.49039692701663 404,203.49039692701663 C 435.6666666666667,203.49039692701663 435.6666666666667,205.6414852752881 467.33333333333337,205.6414852752881 C 499.00000000000006,205.6414852752881 499.00000000000006,204.0281690140845 530.6666666666667,204.0281690140845 C 562.3333333333334,204.0281690140845 562.3333333333334,205.6414852752881 594,205.6414852752881 C 625.6666666666667,205.6414852752881 625.6666666666667,195.24455825864277 657.3333333333334,195.24455825864277 C 689,195.24455825864277 689,176.96030729833547 720.6666666666667,176.96030729833547 C 752.3333333333334,176.96030729833547 752.3333333333334,157.7797695262484 784,157.7797695262484 L 784,206 C 752.3333333333334,206 752.3333333333334,206 720.6666666666667,206 C 689,206 689,206 657.3333333333334,206 C 625.6666666666667,206 625.6666666666667,206 594,206 C 562.3333333333334,206 562.3333333333334,206 530.6666666666667,206 C 499.00000000000006,206 499.00000000000006,206 467.33333333333337,206 C 435.6666666666667,206 435.6666666666667,206 404,206 C 372.33333333333337,206 372.33333333333337,206 340.6666666666667,206 C 309,206 309,206 277.33333333333337,206 C 245.66666666666669,206 245.66666666666669,206 214,206 C 182.33333333333334,206 182.33333333333334,206 150.66666666666669,206 C 119.00000000000001,206 119.00000000000001,206 87.33333333333334,206 C 55.66666666666667,206 55.66666666666667,206 24,206 Z" fill="#dea584" fill-opacity="0.75" class="fade-6"/><rect x="24" y="212" width="8" height="8" rx="2" fill="#dea584" opacity="0.85"/><text x="36" y="220" class="t t-value">Rust</text><rect x="80" y="212" width="8" height="8" rx="2" fill="#3178c6" opacity="0.85"/><text x="92" y="220" class="t t-value">TypeScript</text><rect x="178" y="212" width="8" height="8" rx="2" fill="#00ADD8" opacity="0.85"/><text x="190" y="220" class="t t-value">Go</text><rect x="220" y="212" width="8" height="8" rx="2" fill="#89e051" opacity="0.85"/><text x="232" y="220" class="t t-value">Shell</text><rect x="283" y="212" width="8" height="8" rx="2" fill="#3572A5" opacity="0.85"/><text x="295" y="220" class="t t-value">Python</text><rect x="353" y="212" width="8" height="8" rx="2" fill="#b07219" opacity="0.85"/><text x="365" y="220" class="t t-value">Java</text><rect x="409" y="212" width="8" height="8" rx="2" fill="#DA5B0B" opacity="0.85"/><text x="421" y="220" class="t t-value">Jupyter Notebook</text><rect x="549" y="212" width="8" height="8" rx="2" fill="#3D6117" opacity="0.85"/><text x="561" y="220" class="t t-value">TeX</text><text x="24" y="220" class="t t-value" text-anchor="start" opacity="0">Mar</text><text x="150.66666666666669" y="220" class="t t-value" text-anchor="start" opacity="0">May</text><text x="277.33333333333337" y="220" class="t t-value" text-anchor="start" opacity="0">Jul</text><text x="404" y="220" class="t t-value" text-anchor="start" opacity="0">Sep</text><text x="530.6666666666667" y="220" class="t t-value" text-anchor="start" opacity="0">Nov</text><text x="657.3333333333334" y="220" class="t t-value" text-anchor="start" opacity="0">Jan</text><text x="784" y="220" class="t t-value" text-anchor="start" opacity="0">Mar</text><text x="24" y="282" class="t t-h">CONTRIBUTION RHYTHM</text><text x="24" y="298" class="t t-sub">Activity patterns and statistics over the past year</text><circle cx="144" cy="428" r="22.5" fill="none" stroke="#30363d" stroke-width="1" stroke-opacity="0.4"/><circle cx="144" cy="428" r="45" fill="none" stroke="#30363d" stroke-width="1" stroke-opacity="0.4"/><circle cx="144" cy="428" r="67.5" fill="none" stroke="#30363d" stroke-width="1" stroke-opacity="0.4"/><circle cx="144" cy="428" r="90" fill="none" stroke="#30363d" stroke-width="1" stroke-opacity="0.4"/><line x1="144" y1="428" x2="144" y2="338" stroke="#30363d" stroke-width="1" stroke-opacity="0.3"/><line x1="144" y1="428" x2="214.36483342212267" y2="371.885917832714" stroke="#30363d" stroke-width="1" stroke-opacity="0.3"/><line x1="144" y1="428" x2="231.74351209636413" y2="448.0268840560683" stroke="#30363d" stroke-width="1" stroke-opacity="0.3"/><line x1="144" y1="428" x2="183.04953652058023" y2="509.08719811121773" stroke="#30363d" stroke-width="1" stroke-opacity="0.3"/><line x1="144" y1="428" x2="104.95046347941977" y2="509.08719811121773" stroke="#30363d" stroke-width="1" stroke-opacity="0.3"/><line x1="144" y1="428" x2="56.25648790363587" y2="448.0268840560683" stroke="#30363d" stroke-width="1" stroke-opacity="0.3"/><line x1="144" y1="428" x2="73.63516657787731" y2="371.885917832714" stroke="#30363d" stroke-width="1" stroke-opacity="0.3"/><polygon points="144,349.1448598130841 177.3739747305862,401.3851432711237 185.20664937235793,437.40514882072364 163.70724273001247,468.9225111963155 132.77782011207626,451.30309665345743 117.14392503592593,434.1297238582826 73.63516657787731,371.885917832714" fill="#58a6ff" fill-opacity="0.2" stroke="#58a6ff" stroke-width="2" stroke-opacity="0.8" class="fade-2" style="transform-origin: 144px 428px"/><circle cx="144" cy="349.1448598130841" r="3" fill="#58a6ff" class="fade-1"/><circle cx="177.3739747305862" cy="401.3851432711237" r="3" fill="#58a6ff" class="fade-2"/><circle cx="185.20664937235793" cy="437.40514882072364" r="3" fill="#58a6ff" class="fade-3"/><circle cx="163.70724273001247" cy="468.9225111963155" r="3" fill="#58a6ff" class="fade-4"/><circle cx="132.77782011207626" cy="451.30309665345743" r="3" fill="#58a6ff" class="fade-5"/><circle cx="117.14392503592593" cy="434.1297238582826" r="3" fill="#58a6ff" class="fade-6"/><circle cx="73.63516657787731" cy="371.885917832714" r="3" fill="#58a6ff" class="fade-6"/><text x="144" y="326" class="t t-value" text-anchor="middle">Sun</text><text x="226.87413714161116" y="365.91008100297427" class="t t-value" text-anchor="middle">Mon</text><text x="247.34235869127332" y="455.5872189993693" class="t t-value" text-anchor="middle">Tue</text><text x="189.99167634646116" y="527.5026999976565" class="t t-value" text-anchor="middle">Wed</text><text x="98.00832365353884" y="527.5026999976565" class="t t-value" text-anchor="middle">Thu</text><text x="40.657641308726696" y="455.5872189993693" class="t t-value" text-anchor="middle">Fri</text><text x="61.12586285838883" y="365.91008100297427" class="t t-value" text-anchor="middle">Sat</text><text x="324" y="338" class="t t-stat-label">COMMITS</text><text x="324" y="360" fill="#58a6ff" class="t t-stat-value">1,555</text><text x="324" y="380" class="t t-stat-label">PRS</text><text x="324" y="402" fill="#3fb950" class="t t-stat-value">4</text><text x="324" y="422" class="t t-stat-label">REVIEWS</text><text x="324" y="444" fill="#d29922" class="t t-stat-value">5</text><text x="324" y="464" class="t t-stat-label">REPOS</text><text x="324" y="486" fill="#bc8cff" class="t t-stat-value">24</text><text x="324" y="506" class="t t-stat-label">STREAK</text><text x="324" y="528" fill="#39d2c0" class="t t-stat-value">15d</text><text x="24" y="614" class="t t-h">PROJECT CONSTELLATION</text><text x="24" y="630" class="t t-sub">Projects mapped by language ecosystem and complexity</text><line x1="84.4" y1="670" x2="492.4" y2="733.8187240187976" stroke="#30363d" stroke-width="1" stroke-opacity="0.15" stroke-dasharray="4 4"/><line x1="84.4" y1="670" x2="98" y2="739.2175971615399" stroke="#30363d" stroke-width="1" stroke-opacity="0.15" stroke-dasharray="4 4"/><line x1="84.4" y1="670" x2="696.4" y2="748.6935696393033" stroke="#30363d" stroke-width="1" stroke-opacity="0.15" stroke-dasharray="4 4"/><line x1="84.4" y1="670" x2="111.6" y2="809.718720618188" stroke="#30363d" stroke-width="1" stroke-opacity="0.15" stroke-dasharray="4 4"/><line x1="84.4" y1="670" x2="574" y2="815.6862571777378" stroke="#30363d" stroke-width="1" stroke-opacity="0.15" stroke-dasharray="4 4"/><line x1="84.4" y1="670" x2="710" y2="820.401894544018" stroke="#30363d" stroke-width="1" stroke-opacity="0.15" stroke-dasharray="4 4"/><line x1="84.4" y1="670" x2="497.84" y2="828.6566933347326" stroke="#30363d" stroke-width="1" stroke-opacity="0.15" stroke-dasharray="4 4"/><line x1="84.4" y1="670" x2="503.28" y2="844.1155785446964" stroke="#30363d" stroke-width="1" stroke-opacity="0.15" stroke-dasharray="4 4"/><line x1="84.4" y1="670" x2="433.46666666666664" y2="862.3717059989071" stroke="#30363d" stroke-width="1" stroke-opacity="0.15" stroke-dasharray="4 4"/><line x1="84.4" y1="670" x2="508.72" y2="864.3865028601479" stroke="#30363d" stroke-width="1" stroke-opacity="0.15" stroke-dasharray="4 4"/><line x1="84.4" y1="670" x2="514.1600000000001" y2="874.2369313426357" stroke="#30363d" stroke-width="1" stroke-opacity="0.15" stroke-dasharray="4 4"/><line x1="84.4" y1="670" x2="519.6" y2="907.8261938559699" stroke="#30363d" stroke-width="1" stroke-opacity="0.15" stroke-dasharray="4 4"/><line x1="84.4" y1="670" x2="642" y2="919.4622744803896" stroke="#30363d" stroke-width="1" stroke-opacity="0.15" stroke-dasharray="4 4"/><line x1="288.4" y1="712.3839054863545" x2="424.4" y2="759.2481989664966" stroke="#30363d" stroke-width="1" stroke-opacity="0.15" stroke-dasharray="4 4"/><line x1="288.4" y1="712.3839054863545" x2="710" y2="820.401894544018" stroke="#30363d" stroke-width="1" stroke-opacity="0.15" stroke-dasharray="4 4"/><line x1="288.4" y1="712.3839054863545" x2="315.6" y2="833.1236114275885" stroke="#30363d" stroke-width="1" stroke-opacity="0.15" stroke-dasharray="4 4"/><line x1="288.4" y1="712.3839054863545" x2="433.46666666666664" y2="862.3717059989071" stroke="#30363d" stroke-width="1" stroke-opacity="0.15" stroke-dasharray="4 4"/><line x1="492.4" y1="733.8187240187976" x2="98" y2="739.2175971615399" stroke="#30363d" stroke-width="1" stroke-opacity="0.15" stroke-dasharray="4 4"/><line x1="492.4" y1="733.8187240187976" x2="111.6" y2="809.718720618188" stroke="#30363d" stroke-width="1" stroke-opacity="0.15" stroke-dasharray="4 4"/><line x1="492.4" y1="733.8187240187976" x2="574" y2="815.6862571777378" stroke="#30363d" stroke-width="1" stroke-opacity="0.15" stroke-dasharray="4 4"/><line x1="492.4" y1="733.8187240187976" x2="710" y2="820.401894544018" stroke="#30363d" stroke-width="1" stroke-opacity="0.15" stroke-dasharray="4 4"/><line x1="492.4" y1="733.8187240187976" x2="497.84" y2="828.6566933347326" stroke="#30363d" stroke-width="1" stroke-opacity="0.15" stroke-dasharray="4 4"/><line x1="492.4" y1="733.8187240187976" x2="503.28" y2="844.1155785446964" stroke="#30363d" stroke-width="1" stroke-opacity="0.15" stroke-dasharray="4 4"/><line x1="492.4" y1="733.8187240187976" x2="508.72" y2="864.3865028601479" stroke="#30363d" stroke-width="1" stroke-opacity="0.15" stroke-dasharray="4 4"/><line x1="492.4" y1="733.8187240187976" x2="514.1600000000001" y2="874.2369313426357" stroke="#30363d" stroke-width="1" stroke-opacity="0.15" stroke-dasharray="4 4"/><line x1="492.4" y1="733.8187240187976" x2="519.6" y2="907.8261938559699" stroke="#30363d" stroke-width="1" stroke-opacity="0.15" stroke-dasharray="4 4"/><line x1="98" y1="739.2175971615399" x2="111.6" y2="809.718720618188" stroke="#30363d" stroke-width="1" stroke-opacity="0.15" stroke-dasharray="4 4"/><line x1="98" y1="739.2175971615399" x2="574" y2="815.6862571777378" stroke="#30363d" stroke-width="1" stroke-opacity="0.15" stroke-dasharray="4 4"/><line x1="98" y1="739.2175971615399" x2="710" y2="820.401894544018" stroke="#30363d" stroke-width="1" stroke-opacity="0.15" stroke-dasharray="4 4"/><line x1="98" y1="739.2175971615399" x2="497.84" y2="828.6566933347326" stroke="#30363d" stroke-width="1" stroke-opacity="0.15" stroke-dasharray="4 4"/><line x1="98" y1="739.2175971615399" x2="503.28" y2="844.1155785446964" stroke="#30363d" stroke-width="1" stroke-opacity="0.15" stroke-dasharray="4 4"/><line x1="98" y1="739.2175971615399" x2="508.72" y2="864.3865028601479" stroke="#30363d" stroke-width="1" stroke-opacity="0.15" stroke-dasharray="4 4"/><line x1="98" y1="739.2175971615399" x2="514.1600000000001" y2="874.2369313426357" stroke="#30363d" stroke-width="1" stroke-opacity="0.15" stroke-dasharray="4 4"/><line x1="98" y1="739.2175971615399" x2="519.6" y2="907.8261938559699" stroke="#30363d" stroke-width="1" stroke-opacity="0.15" stroke-dasharray="4 4"/><line x1="696.4" y1="748.6935696393033" x2="710" y2="820.401894544018" stroke="#30363d" stroke-width="1" stroke-opacity="0.15" stroke-dasharray="4 4"/><line x1="696.4" y1="748.6935696393033" x2="497.84" y2="828.6566933347326" stroke="#30363d" stroke-width="1" stroke-opacity="0.15" stroke-dasharray="4 4"/><line x1="696.4" y1="748.6935696393033" x2="234" y2="907.1331708024502" stroke="#30363d" stroke-width="1" stroke-opacity="0.15" stroke-dasharray="4 4"/><line x1="424.4" y1="759.2481989664966" x2="710" y2="820.401894544018" stroke="#30363d" stroke-width="1" stroke-opacity="0.15" stroke-dasharray="4 4"/><line x1="424.4" y1="759.2481989664966" x2="315.6" y2="833.1236114275885" stroke="#30363d" stroke-width="1" stroke-opacity="0.15" stroke-dasharray="4 4"/><line x1="424.4" y1="759.2481989664966" x2="433.46666666666664" y2="862.3717059989071" stroke="#30363d" stroke-width="1" stroke-opacity="0.15" stroke-dasharray="4 4"/><line x1="111.6" y1="809.718720618188" x2="574" y2="815.6862571777378" stroke="#30363d" stroke-width="1" stroke-opacity="0.15" stroke-dasharray="4 4"/><line x1="111.6" y1="809.718720618188" x2="710" y2="820.401894544018" stroke="#30363d" stroke-width="1" stroke-opacity="0.15" stroke-dasharray="4 4"/><line x1="111.6" y1="809.718720618188" x2="497.84" y2="828.6566933347326" stroke="#30363d" stroke-width="1" stroke-opacity="0.15" stroke-dasharray="4 4"/><line x1="111.6" y1="809.718720618188" x2="503.28" y2="844.1155785446964" stroke="#30363d" stroke-width="1" stroke-opacity="0.15" stroke-dasharray="4 4"/><line x1="111.6" y1="809.718720618188" x2="508.72" y2="864.3865028601479" stroke="#30363d" stroke-width="1" stroke-opacity="0.15" stroke-dasharray="4 4"/><line x1="111.6" y1="809.718720618188" x2="514.1600000000001" y2="874.2369313426357" stroke="#30363d" stroke-width="1" stroke-opacity="0.15" stroke-dasharray="4 4"/><line x1="111.6" y1="809.718720618188" x2="519.6" y2="907.8261938559699" stroke="#30363d" stroke-width="1" stroke-opacity="0.15" stroke-dasharray="4 4"/><line x1="574" y1="815.6862571777378" x2="710" y2="820.401894544018" stroke="#30363d" stroke-width="1" stroke-opacity="0.15" stroke-dasharray="4 4"/><line x1="574" y1="815.6862571777378" x2="497.84" y2="828.6566933347326" stroke="#30363d" stroke-width="1" stroke-opacity="0.15" stroke-dasharray="4 4"/><line x1="574" y1="815.6862571777378" x2="503.28" y2="844.1155785446964" stroke="#30363d" stroke-width="1" stroke-opacity="0.15" stroke-dasharray="4 4"/><line x1="574" y1="815.6862571777378" x2="508.72" y2="864.3865028601479" stroke="#30363d" stroke-width="1" stroke-opacity="0.15" stroke-dasharray="4 4"/><line x1="574" y1="815.6862571777378" x2="514.1600000000001" y2="874.2369313426357" stroke="#30363d" stroke-width="1" stroke-opacity="0.15" stroke-dasharray="4 4"/><line x1="574" y1="815.6862571777378" x2="179.6" y2="883.5228813702405" stroke="#30363d" stroke-width="1" stroke-opacity="0.15" stroke-dasharray="4 4"/><line x1="574" y1="815.6862571777378" x2="519.6" y2="907.8261938559699" stroke="#30363d" stroke-width="1" stroke-opacity="0.15" stroke-dasharray="4 4"/><line x1="710" y1="820.401894544018" x2="497.84" y2="828.6566933347326" stroke="#30363d" stroke-width="1" stroke-opacity="0.15" stroke-dasharray="4 4"/><line x1="710" y1="820.401894544018" x2="315.6" y2="833.1236114275885" stroke="#30363d" stroke-width="1" stroke-opacity="0.15" stroke-dasharray="4 4"/><line x1="710" y1="820.401894544018" x2="503.28" y2="844.1155785446964" stroke="#30363d" stroke-width="1" stroke-opacity="0.15" stroke-dasharray="4 4"/><line x1="710" y1="820.401894544018" x2="433.46666666666664" y2="862.3717059989071" stroke="#30363d" stroke-width="1" stroke-opacity="0.15" stroke-dasharray="4 4"/><line x1="710" y1="820.401894544018" x2="508.72" y2="864.3865028601479" stroke="#30363d" stroke-width="1" stroke-opacity="0.15" stroke-dasharray="4 4"/><line x1="710" y1="820.401894544018" x2="514.1600000000001" y2="874.2369313426357" stroke="#30363d" stroke-width="1" stroke-opacity="0.15" stroke-dasharray="4 4"/><line x1="710" y1="820.401894544018" x2="442.53333333333336" y2="886.4626404521064" stroke="#30363d" stroke-width="1" stroke-opacity="0.15" stroke-dasharray="4 4"/><line x1="710" y1="820.401894544018" x2="723.6" y2="889.078243589584" stroke="#30363d" stroke-width="1" stroke-opacity="0.15" stroke-dasharray="4 4"/><line x1="710" y1="820.401894544018" x2="234" y2="907.1331708024502" stroke="#30363d" stroke-width="1" stroke-opacity="0.15" stroke-dasharray="4 4"/><line x1="710" y1="820.401894544018" x2="519.6" y2="907.8261938559699" stroke="#30363d" stroke-width="1" stroke-opacity="0.15" stroke-dasharray="4 4"/><line x1="497.84" y1="828.6566933347326" x2="503.28" y2="844.1155785446964" stroke="#30363d" stroke-width="1" stroke-opacity="0.15" stroke-dasharray="4 4"/><line x1="497.84" y1="828.6566933347326" x2="508.72" y2="864.3865028601479" stroke="#30363d" stroke-width="1" stroke-opacity="0.15" stroke-dasharray="4 4"/><line x1="497.84" y1="828.6566933347326" x2="514.1600000000001" y2="874.2369313426357" stroke="#30363d" stroke-width="1" stroke-opacity="0.15" stroke-dasharray="4 4"/><line x1="497.84" y1="828.6566933347326" x2="519.6" y2="907.8261938559699" stroke="#30363d" stroke-width="1" stroke-opacity="0.15" stroke-dasharray="4 4"/><line x1="315.6" y1="833.1236114275885" x2="433.46666666666664" y2="862.3717059989071" stroke="#30363d" stroke-width="1" stroke-opacity="0.15" stroke-dasharray="4 4"/><line x1="503.28" y1="844.1155785446964" x2="508.72" y2="864.3865028601479" stroke="#30363d" stroke-width="1" stroke-opacity="0.15" stroke-dasharray="4 4"/><line x1="503.28" y1="844.1155785446964" x2="514.1600000000001" y2="874.2369313426357" stroke="#30363d" stroke-width="1" stroke-opacity="0.15" stroke-dasharray="4 4"/><line x1="503.28" y1="844.1155785446964" x2="519.6" y2="907.8261938559699" stroke="#30363d" stroke-width="1" stroke-opacity="0.15" stroke-dasharray="4 4"/><line x1="433.46666666666664" y1="862.3717059989071" x2="642" y2="919.4622744803896" stroke="#30363d" stroke-width="1" stroke-opacity="0.15" stroke-dasharray="4 4"/><line x1="508.72" y1="864.3865028601479" x2="514.1600000000001" y2="874.2369313426357" stroke="#30363d" stroke-width="1" stroke-opacity="0.15" stroke-dasharray="4 4"/><line x1="508.72" y1="864.3865028601479" x2="519.6" y2="907.8261938559699" stroke="#30363d" stroke-width="1" stroke-opacity="0.15" stroke-dasharray="4 4"/><line x1="514.1600000000001" y1="874.2369313426357" x2="519.6" y2="907.8261938559699" stroke="#30363d" stroke-width="1" stroke-opacity="0.15" stroke-dasharray="4 4"/><circle cx="84.4" cy="670" r="26" fill="#00ADD8" fill-opacity="0.08" class="fade-1"/><circle cx="84.4" cy="670" r="22" fill="#00ADD8" fill-opacity="0.7" stroke="#00ADD8" stroke-width="1.5" stroke-opacity="0.9" class="fade-1"/><text x="84.4" y="706" class="t t-value fade-1" text-anchor="middle">incipit</text><circle cx="288.4" cy="712.3839054863545" r="26" fill="#DA5B0B" fill-opacity="0.08" class="fade-2"/><circle cx="288.4" cy="712.3839054863545" r="22" fill="#DA5B0B" fill-opacity="0.7" stroke="#DA5B0B" stroke-width="1.5" stroke-opacity="0.9" class="fade-2"/><text x="288.4" y="748.3839054863545" class="t t-value fade-2" text-anchor="middle">lepus-classifier</text><circle cx="492.4" cy="733.8187240187976" r="26" fill="#dea584" fill-opacity="0.08" class="fade-3"/><circle cx="492.4" cy="733.8187240187976" r="22" fill="#dea584" fill-opacity="0.7" stroke="#dea584" stroke-width="1.5" stroke-opacity="0.9" class="fade-3"/><text x="492.4" y="769.8187240187976" class="t t-value fade-3" text-anchor="middle">linear-gp</text><circle cx="98" cy="739.2175971615399" r="26" fill="#00ADD8" fill-opacity="0.08" class="fade-4"/><circle cx="98" cy="739.2175971615399" r="22" fill="#00ADD8" fill-opacity="0.7" stroke="#00ADD8" stroke-width="1.5" stroke-opacity="0.9" class="fade-4"/><text x="98" y="775.2175971615399" class="t t-value fade-4" text-anchor="middle">zigbee-rest</text><circle cx="696.4" cy="748.6935696393033" r="26" fill="#3178c6" fill-opacity="0.08" class="fade-5"/><circle cx="696.4" cy="748.6935696393033" r="22" fill="#3178c6" fill-opacity="0.7" stroke="#3178c6" stroke-width="1.5" stroke-opacity="0.9" class="fade-5"/><text x="696.4" y="784.6935696393033" class="t t-value fade-5" text-anchor="middle">urmzd.com</text><circle cx="424.4" cy="759.2481989664966" r="26" fill="#3572A5" fill-opacity="0.08" class="fade-6"/><circle cx="424.4" cy="759.2481989664966" r="22" fill="#3572A5" fill-opacity="0.7" stroke="#3572A5" stroke-width="1.5" stroke-opacity="0.9" class="fade-6"/><text x="424.4" y="795.2481989664966" class="t t-value fade-6" text-anchor="middle">exp-agi-models</text><circle cx="111.6" cy="809.718720618188" r="24.33699101850862" fill="#00ADD8" fill-opacity="0.08" class="fade-6"/><circle cx="111.6" cy="809.718720618188" r="20.33699101850862" fill="#00ADD8" fill-opacity="0.7" stroke="#00ADD8" stroke-width="1.5" stroke-opacity="0.9" class="fade-6"/><text x="111.6" y="844.0557116366965" class="t t-value fade-6" text-anchor="middle">saige</text><circle cx="574" cy="815.6862571777378" r="21.675715564635794" fill="#89e051" fill-opacity="0.08" class="fade-6"/><circle cx="574" cy="815.6862571777378" r="17.675715564635794" fill="#89e051" fill-opacity="0.7" stroke="#89e051" stroke-width="1.5" stroke-opacity="0.9" class="fade-6"/><text x="574" y="847.3619727423736" class="t t-value fade-6" text-anchor="middle">dotfiles</text><circle cx="710" cy="820.401894544018" r="15.061182065019677" fill="#3178c6" fill-opacity="0.08" class="fade-6"/><circle cx="710" cy="820.401894544018" r="11.061182065019677" fill="#3178c6" fill-opacity="0.7" stroke="#3178c6" stroke-width="1.5" stroke-opacity="0.9" class="fade-6"/><text x="710" y="845.4630766090377" class="t t-value fade-6" text-anchor="middle">zoro</text><circle cx="497.84" cy="828.6566933347326" r="26" fill="#dea584" fill-opacity="0.08" class="fade-6"/><circle cx="497.84" cy="828.6566933347326" r="22" fill="#dea584" fill-opacity="0.7" stroke="#dea584" stroke-width="1.5" stroke-opacity="0.9" class="fade-6"/><text x="497.84" y="864.6566933347326" class="t t-value fade-6" text-anchor="middle">teasr</text><circle cx="315.6" cy="833.1236114275885" r="25.36863924926572" fill="#DA5B0B" fill-opacity="0.08" class="fade-6"/><circle cx="315.6" cy="833.1236114275885" r="21.36863924926572" fill="#DA5B0B" fill-opacity="0.7" stroke="#DA5B0B" stroke-width="1.5" stroke-opacity="0.9" class="fade-6"/><text x="315.6" y="868.4922506768542" class="t t-value fade-6" text-anchor="middle">md-classifier</text><circle cx="503.28" cy="844.1155785446964" r="20.751279260918498" fill="#dea584" fill-opacity="0.08" class="fade-6"/><circle cx="503.28" cy="844.1155785446964" r="16.751279260918498" fill="#dea584" fill-opacity="0.7" stroke="#dea584" stroke-width="1.5" stroke-opacity="0.9" class="fade-6"/><text x="503.28" y="874.8668578056149" class="t t-value fade-6" text-anchor="middle">oag</text><circle cx="433.46666666666664" cy="862.3717059989071" r="25.46688344753587" fill="#3572A5" fill-opacity="0.08" class="fade-6"/><circle cx="433.46666666666664" cy="862.3717059989071" r="21.46688344753587" fill="#3572A5" fill-opacity="0.7" stroke="#3572A5" stroke-width="1.5" stroke-opacity="0.9" class="fade-6"/><text x="433.46666666666664" y="897.838589446443" class="t t-value fade-6" text-anchor="middle">languide</text><circle cx="508.72" cy="864.3865028601479" r="18.06118206501968" fill="#dea584" fill-opacity="0.08" class="fade-6"/><circle cx="508.72" cy="864.3865028601479" r="14.061182065019677" fill="#dea584" fill-opacity="0.7" stroke="#dea584" stroke-width="1.5" stroke-opacity="0.9" class="fade-6"/><text x="508.72" y="892.4476849251676" class="t t-value fade-6" text-anchor="middle">sr</text><circle cx="152.4" cy="869.3117686484829" r="24.861890796612347" fill="#b07219" fill-opacity="0.08" class="fade-6"/><circle cx="152.4" cy="869.3117686484829" r="20.861890796612347" fill="#b07219" fill-opacity="0.7" stroke="#b07219" stroke-width="1.5" stroke-opacity="0.9" class="fade-6"/><text x="152.4" y="904.1736594450953" class="t t-value fade-6" text-anchor="middle">flappy-bird</text><circle cx="514.1600000000001" cy="874.2369313426357" r="12.0746024947576" fill="#dea584" fill-opacity="0.08" class="fade-6"/><circle cx="514.1600000000001" cy="874.2369313426357" r="8.0746024947576" fill="#dea584" fill-opacity="0.7" stroke="#dea584" stroke-width="1.5" stroke-opacity="0.9" class="fade-6"/><text x="514.1600000000001" y="896.3115338373933" class="t t-value fade-6" text-anchor="middle">embed-src</text><circle cx="179.6" cy="883.5228813702405" r="14.637905107315877" fill="#b07219" fill-opacity="0.08" class="fade-6"/><circle cx="179.6" cy="883.5228813702405" r="10.637905107315877" fill="#b07219" fill-opacity="0.7" stroke="#b07219" stroke-width="1.5" stroke-opacity="0.9" class="fade-6"/><text x="179.6" y="908.1607864775564" class="t t-value fade-6" text-anchor="middle">barter-trader</text><circle cx="442.53333333333336" cy="886.4626404521064" r="14.425254648846348" fill="#3572A5" fill-opacity="0.08" class="fade-6"/><circle cx="442.53333333333336" cy="886.4626404521064" r="10.425254648846348" fill="#3572A5" fill-opacity="0.7" stroke="#3572A5" stroke-width="1.5" stroke-opacity="0.9" class="fade-6"/><text x="442.53333333333336" y="910.8878951009527" class="t t-value fade-6" text-anchor="middle">chess-cli</text><circle cx="723.6" cy="889.078243589584" r="25.862860132336202" fill="#3178c6" fill-opacity="0.08" class="fade-6"/><circle cx="723.6" cy="889.078243589584" r="21.862860132336202" fill="#3178c6" fill-opacity="0.7" stroke="#3178c6" stroke-width="1.5" stroke-opacity="0.9" class="fade-6"/><text x="723.6" y="924.9411037219202" class="t t-value fade-6" text-anchor="middle">github-insights</text><circle cx="234" cy="907.1331708024502" r="12.127871907170075" fill="#f1e05a" fill-opacity="0.08" class="fade-6"/><circle cx="234" cy="907.1331708024502" r="8.127871907170075" fill="#f1e05a" fill-opacity="0.7" stroke="#f1e05a" stroke-width="1.5" stroke-opacity="0.9" class="fade-6"/><text x="234" y="929.2610427096203" class="t t-value fade-6" text-anchor="middle">cypress-name-too-…</text><circle cx="519.6" cy="907.8261938559699" r="10" fill="#dea584" fill-opacity="0.08" class="fade-6"/><circle cx="519.6" cy="907.8261938559699" r="6" fill="#dea584" fill-opacity="0.7" stroke="#dea584" stroke-width="1.5" stroke-opacity="0.9" class="fade-6"/><text x="519.6" y="927.8261938559699" class="t t-value fade-6" text-anchor="middle">gitit</text><circle cx="451.6" cy="916.2570428578609" r="10" fill="#3572A5" fill-opacity="0.08" class="fade-6"/><circle cx="451.6" cy="916.2570428578609" r="6" fill="#3572A5" fill-opacity="0.7" stroke="#3572A5" stroke-width="1.5" stroke-opacity="0.9" class="fade-6"/><text x="451.6" y="936.2570428578609" class="t t-value fade-6" text-anchor="middle">lightning-kfold</text><circle cx="642" cy="919.4622744803896" r="17.114676587835888" fill="#3D6117" fill-opacity="0.08" class="fade-6"/><circle cx="642" cy="919.4622744803896" r="13.11467658783589" fill="#3D6117" fill-opacity="0.7" stroke="#3D6117" stroke-width="1.5" stroke-opacity="0.9" class="fade-6"/><text x="642" y="946.5769510682255" class="t t-value fade-6" text-anchor="middle">rlgp-thesis</text><circle cx="370" cy="950" r="12.38480698841061" fill="#8b949e" fill-opacity="0.08" class="fade-6"/><circle cx="370" cy="950" r="8.38480698841061" fill="#8b949e" fill-opacity="0.7" stroke="#8b949e" stroke-width="1.5" stroke-opacity="0.9" class="fade-6"/><text x="370" y="972.3848069884106" class="t t-value fade-6" text-anchor="middle">urmzd</text><text x="24" y="1076" class="t t-h">OPEN SOURCE IMPACT</text><text x="24" y="1092" class="t t-sub">External repositories contributed to</text><text x="24" y="1124" class="t t-card-title fade-1">getzep/graphiti</text><rect x="304" y="1114" width="400" height="12" rx="3" fill="#58a6ff" fill-opacity="0.7" class="fade-1"/><text x="720" y="1124" class="t t-value fade-1">★ 24,208</text><text x="784" y="1124" class="t t-value fade-1">Python</text><text x="24" y="1166" class="t t-card-title fade-2">googleapis/python-aiplatform</text><rect x="304" y="1156" width="268.38749683135404" height="12" rx="3" fill="#3fb950" fill-opacity="0.7" class="fade-2"/><text x="720" y="1166" class="t t-value fade-2">★ 873</text><text x="784" y="1166" class="t t-value fade-2">Python</text><text x="24" y="1208" class="t t-card-title fade-3">MathisWellmann/gym-rs</text><rect x="304" y="1198" width="192.26469860950434" height="12" rx="3" fill="#d29922" fill-opacity="0.7" class="fade-3"/><text x="720" y="1208" class="t t-value fade-3">★ 127</text><text x="784" y="1208" class="t t-value fade-3">Rust</text></svg>