<svg xmlns="http://www.w3.org/2000/svg" width="808" height="2472" viewBox="0 0 808 2472"><defs><style>
  .t { font-family: -apple-system,BlinkMacSystemFont,Segoe UI,Helvetica,Arial,sans-serif; font-variant-numeric: tabular-lining; }
  .t-h { font-size: 14px; fill: #c9d1d9; letter-spacing: 2px; font-weight: 600; }
  .t-sub { font-size: 11px; fill: #6e7681; }
  .t-label { font-size: 12px; fill: #8b949e; }
  .t-value { font-size: 11px; fill: #6e7681; }
  .t-subhdr { font-size: 11px; fill: #8b949e; letter-spacing: 1px; font-weight: 600; }
  .t-stat-label { font-size: 10px; fill: #8b949e; font-weight: 600; }
  .t-stat-value { font-size: 22px; font-weight: 700; }
  .t-card-title { font-size: 12px; fill: #58a6ff; font-weight: 700; }
  .t-card-detail { font-size: 11px; fill: #8b949e; }
  .t-pill { font-size: 11px; font-weight: 600; }
  .t-bullet { font-size: 12px; fill: #c9d1d9; }
  .bg-fill { fill: #0d1117; }
  .card-fill { fill: #161b22; }
  .border-stroke { stroke: #30363d; }

  @media (prefers-color-scheme: light) {
    .bg-fill { fill: #ffffff; }
    .card-fill { fill: #f6f8fa; }
    .border-stroke { stroke: #d0d7de; }
    .t-h { fill: #1f2328; }
    .t-sub { fill: #656d76; }
    .t-label { fill: #656d76; }
    .t-value { fill: #656d76; }
    .t-subhdr { fill: #656d76; }
    .t-stat-label { fill: #656d76; }
    .t-card-title { fill: #0969da; }
    .t-card-detail { fill: #656d76; }
    .t-bullet { fill: #1f2328; }
  }

  @keyframes fadeIn {
    from { opacity: 0; transform: translateY(8px); }
    to { opacity: 1; transform: translateY(0); }
  }
  @keyframes scaleIn {
    from { transform: scale(0); opacity: 0; }
    to { transform: scale(1); opacity: 1; }
  }
  @keyframes drawPath {
    from { stroke-dashoffset: var(--path-length); }
    to { stroke-dashoffset: 0; }
  }
  @keyframes radarReveal {
    from { transform: scale(0); opacity: 0; }
    to { transform: scale(1); opacity: 0.6; }
  }
  .fade-1 { animation: fadeIn 0.6s ease-out 0.1s both; }
  .fade-2 { animation: fadeIn 0.6s ease-out 0.25s both; }
  .fade-3 { animation: fadeIn 0.6s ease-out 0.4s both; }
  .fade-4 { animation: fadeIn 0.6s ease-out 0.55s both; }
  .fade-5 { animation: fadeIn 0.6s ease-out 0.7s both; }
  .fade-6 { animation: fadeIn 0.6s ease-out 0.85s both; }
</style></defs><rect width="808" height="2472" rx="12" class="bg-fill" fill="#0d1117"/><text x="24" y="40" class="t t-h">LANGUAGE VELOCITY</text><text x="24" y="56" class="t t-sub">How language usage has evolved over the past year</text><path key="Lua" d="M 24,206 C 55.66666666666667,206 55.66666666666667,205.7608881298036 87.33333333333334,205.7608881298036 C 119.00000000000001,205.7608881298036 119.00000000000001,205.88044406490178 150.66666666666669,205.88044406490178 C 182.33333333333334,205.88044406490178 182.33333333333334,205.88044406490178 214,205.88044406490178 C 245.66666666666669,205.88044406490178 245.66666666666669,206 277.33333333333337,206 C 309,206 309,206 340.6666666666667,206 C 372.33333333333337,206 372.33333333333337,205.40222032450896 404,205.40222032450896 C 435.6666666666667,205.40222032450896 435.6666666666667,203.60888129803587 467.33333333333337,203.60888129803587 C 499.00000000000006,203.60888129803587 499.00000000000006,206 530.6666666666667,206 C 562.3333333333334,206 562.3333333333334,191.89239965841162 594,191.89239965841162 C 625.6666666666667,191.89239965841162 625.6666666666667,159.73185311699402 657.3333333333334,159.73185311699402 C 689,159.73185311699402 689,66 720.6666666666667,66 C 752.3333333333334,66 752.3333333333334,155.66695132365498 784,155.66695132365498 L 784,156.14517506404783 C 752.3333333333334,156.14517506404783 752.3333333333334,67.43467122117849 720.6666666666667,67.43467122117849 C 689,67.43467122117849 689,160.21007685738684 657.3333333333334,160.21007685738684 C 625.6666666666667,160.21007685738684 625.6666666666667,192.0119555935098 594,192.0119555935098 C 562.3333333333334,192.0119555935098 562.3333333333334,206 530.6666666666667,206 C 499.00000000000006,206 499.00000000000006,203.60888129803587 467.33333333333337,203.60888129803587 C 435.6666666666667,203.60888129803587 435.6666666666667,205.40222032450896 404,205.40222032450896 C 372.33333333333337,205.40222032450896 372.33333333333337,206 340.6666666666667,206 C 309,206 309,206 277.33333333333337,206 C 245.66666666666669,206 245.66666666666669,205.88044406490178 214,205.88044406490178 C 182.33333333333334,205.88044406490178 182.33333333333334,205.88044406490178 150.66666666666669,205.88044406490178 C 119.00000000000001,205.88044406490178 119.00000000000001,205.7608881298036 87.33333333333334,205.7608881298036 C 55.66666666666667,205.7608881298036 55.66666666666667,206 24,206 Z" fill="#000080" fill-opacity="0.75" class="fade-1"/><path key="Java" d="M 24,206 C 55.66666666666667,206 55.66666666666667,205.7608881298036 87.33333333333334,205.7608881298036 C 119.00000000000001,205.7608881298036 119.00000000000001,205.88044406490178 150.66666666666669,205.88044406490178 C 182.33333333333334,205.88044406490178 182.33333333333334,205.88044406490178 214,205.88044406490178 C 245.66666666666669,205.88044406490178 245.66666666666669,206 277.33333333333337,206 C 309,206 309,206 340.6666666666667,206 C 372.33333333333337,206 372.33333333333337,205.40222032450896 404,205.40222032450896 C 435.6666666666667,205.40222032450896 435.6666666666667,203.60888129803587 467.33333333333337,203.60888129803587 C 499.00000000000006,203.60888129803587 499.00000000000006,206 530.6666666666667,206 C 562.3333333333334,206 562.3333333333334,192.0119555935098 594,192.0119555935098 C 625.6666666666667,192.0119555935098 625.6666666666667,160.21007685738684 657.3333333333334,160.21007685738684 C 689,160.21007685738684 689,67.43467122117849 720.6666666666667,67.43467122117849 C 752.3333333333334,67.43467122117849 752.3333333333334,156.14517506404783 784,156.14517506404783 L 784,157.10162254483348 C 752.3333333333334,157.10162254483348 752.3333333333334,70.18445772843722 720.6666666666667,70.18445772843722 C 689,70.18445772843722 689,161.1665243381725 657.3333333333334,161.1665243381725 C 625.6666666666667,161.1665243381725 625.6666666666667,192.25106746370622 594,192.25106746370622 C 562.3333333333334,192.25106746370622 562.3333333333334,206 530.6666666666667,206 C 499.00000000000006,206 499.00000000000006,203.60888129803587 467.33333333333337,203.60888129803587 C 435.6666666666667,203.60888129803587 435.6666666666667,205.40222032450896 404,205.40222032450896 C 372.33333333333337,205.40222032450896 372.33333333333337,206 340.6666666666667,206 C 309,206 309,206 277.33333333333337,206 C 245.66666666666669,206 245.66666666666669,205.88044406490178 214,205.88044406490178 C 182.33333333333334,205.88044406490178 182.33333333333334,205.88044406490178 150.66666666666669,205.88044406490178 C 119.00000000000001,205.88044406490178 119.00000000000001,205.7608881298036 87.33333333333334,205.7608881298036 C 55.66666666666667,205.7608881298036 55.66666666666667,206 24,206 Z" fill="#b07219" fill-opacity="0.75" class="fade-2"/><path key="Python" d="M 24,206 C 55.66666666666667,206 55.66666666666667,205.7608881298036 87.33333333333334,205.7608881298036 C 119.00000000000001,205.7608881298036 119.00000000000001,205.88044406490178 150.66666666666669,205.88044406490178 C 182.33333333333334,205.88044406490178 182.33333333333334,205.88044406490178 214,205.88044406490178 C 245.66666666666669,205.88044406490178 245.66666666666669,206 277.33333333333337,206 C 309,206 309,206 340.6666666666667,206 C 372.33333333333337,206 372.33333333333337,205.40222032450896 404,205.40222032450896 C 435.6666666666667,205.40222032450896 435.6666666666667,203.60888129803587 467.33333333333337,203.60888129803587 C 499.00000000000006,203.60888129803587 499.00000000000006,206 530.6666666666667,206 C 562.3333333333334,206 562.3333333333334,192.25106746370622 594,192.25106746370622 C 625.6666666666667,192.25106746370622 625.6666666666667,161.1665243381725 657.3333333333334,161.1665243381725 C 689,161.1665243381725 689,70.18445772843722 720.6666666666667,70.18445772843722 C 752.3333333333334,70.18445772843722 752.3333333333334,157.10162254483348 784,157.10162254483348 L 784,165.47053800170795 C 752.3333333333334,165.47053800170795 752.3333333333334,93.49786507258754 720.6666666666667,93.49786507258754 C 689,93.49786507258754 689,168.81810418445772 657.3333333333334,168.81810418445772 C 625.6666666666667,168.81810418445772 625.6666666666667,194.64218616567035 594,194.64218616567035 C 562.3333333333334,194.64218616567035 562.3333333333334,206 530.6666666666667,206 C 499.00000000000006,206 499.00000000000006,203.9675491033305 467.33333333333337,203.9675491033305 C 435.6666666666667,203.9675491033305 435.6666666666667,205.52177625960718 404,205.52177625960718 C 372.33333333333337,205.52177625960718 372.33333333333337,206 340.6666666666667,206 C 309,206 309,206 277.33333333333337,206 C 245.66666666666669,206 245.66666666666669,205.88044406490178 214,205.88044406490178 C 182.33333333333334,205.88044406490178 182.33333333333334,205.88044406490178 150.66666666666669,205.88044406490178 C 119.00000000000001,205.88044406490178 119.00000000000001,205.7608881298036 87.33333333333334,205.7608881298036 C 55.66666666666667,205.7608881298036 55.66666666666667,206 24,206 Z" fill="#3572A5" fill-opacity="0.75" class="fade-3"/><path key="TypeScript" d="M 24,206 C 55.66666666666667,206 55.66666666666667,205.7608881298036 87.33333333333334,205.7608881298036 C 119.00000000000001,205.7608881298036 119.00000000000001,205.88044406490178 150.66666666666669,205.88044406490178 C 182.33333333333334,205.88044406490178 182.33333333333334,205.88044406490178 214,205.88044406490178 C 245.66666666666669,205.88044406490178 245.66666666666669,206 277.33333333333337,206 C 309,206 309,206 340.6666666666667,206 C 372.33333333333337,206 372.33333333333337,205.52177625960718 404,205.52177625960718 C 435.6666666666667,205.52177625960718 435.6666666666667,203.9675491033305 467.33333333333337,203.9675491033305 C 499.00000000000006,203.9675491033305 499.00000000000006,206 530.6666666666667,206 C 562.3333333333334,206 562.3333333333334,194.64218616567035 594,194.64218616567035 C 625.6666666666667,194.64218616567035 625.6666666666667,168.81810418445772 657.3333333333334,168.81810418445772 C 689,168.81810418445772 689,93.49786507258754 720.6666666666667,93.49786507258754 C 752.3333333333334,93.49786507258754 752.3333333333334,165.47053800170795 784,165.47053800170795 L 784,175.3936806148591 C 752.3333333333334,175.3936806148591 752.3333333333334,121.11528608027326 720.6666666666667,121.11528608027326 C 689,121.11528608027326 689,177.90435525192143 657.3333333333334,177.90435525192143 C 625.6666666666667,177.90435525192143 625.6666666666667,197.3919726729291 594,197.3919726729291 C 562.3333333333334,197.3919726729291 562.3333333333334,206 530.6666666666667,206 C 499.00000000000006,206 499.00000000000006,204.44577284372332 467.33333333333337,204.44577284372332 C 435.6666666666667,204.44577284372332 435.6666666666667,205.64133219470537 404,205.64133219470537 C 372.33333333333337,205.64133219470537 372.33333333333337,206 340.6666666666667,206 C 309,206 309,206 277.33333333333337,206 C 245.66666666666669,206 245.66666666666669,205.88044406490178 214,205.88044406490178 C 182.33333333333334,205.88044406490178 182.33333333333334,205.88044406490178 150.66666666666669,205.88044406490178 C 119.00000000000001,205.88044406490178 119.00000000000001,205.7608881298036 87.33333333333334,205.7608881298036 C 55.66666666666667,205.7608881298036 55.66666666666667,206 24,206 Z" fill="#3178c6" fill-opacity="0.75" class="fade-4"/><path key="Go" d="M 24,206 C 55.66666666666667,206 55.66666666666667,205.7608881298036 87.33333333333334,205.7608881298036 C 119.00000000000001,205.7608881298036 119.00000000000001,205.88044406490178 150.66666666666669,205.88044406490178 C 182.33333333333334,205.88044406490178 182.33333333333334,205.88044406490178 214,205.88044406490178 C 245.66666666666669,205.88044406490178 245.66666666666669,206 277.33333333333337,206 C 309,206 309,206 340.6666666666667,206 C 372.33333333333337,206 372.33333333333337,205.64133219470537 404,205.64133219470537 C 435.6666666666667,205.64133219470537 435.6666666666667,204.44577284372332 467.33333333333337,204.44577284372332 C 499.00000000000006,204.44577284372332 499.00000000000006,206 530.6666666666667,206 C 562.3333333333334,206 562.3333333333334,197.3919726729291 594,197.3919726729291 C 625.6666666666667,197.3919726729291 625.6666666666667,177.90435525192143 657.3333333333334,177.90435525192143 C 689,177.90435525192143 689,121.11528608027326 720.6666666666667,121.11528608027326 C 752.3333333333334,121.11528608027326 752.3333333333334,175.3936806148591 784,175.3936806148591 L 784,186.75149444918873 C 752.3333333333334,186.75149444918873 752.3333333333334,152.55849701110162 720.6666666666667,152.55849701110162 C 689,152.55849701110162 689,188.3057216054654 657.3333333333334,188.3057216054654 C 625.6666666666667,188.3057216054654 625.6666666666667,200.6199829205807 594,200.6199829205807 C 562.3333333333334,200.6199829205807 562.3333333333334,206 530.6666666666667,206 C 499.00000000000006,206 499.00000000000006,205.04355251921436 467.33333333333337,205.04355251921436 C 435.6666666666667,205.04355251921436 435.6666666666667,205.7608881298036 404,205.7608881298036 C 372.33333333333337,205.7608881298036 372.33333333333337,206 340.6666666666667,206 C 309,206 309,206 277.33333333333337,206 C 245.66666666666669,206 245.66666666666669,205.88044406490178 214,205.88044406490178 C 182.33333333333334,205.88044406490178 182.33333333333334,205.88044406490178 150.66666666666669,205.88044406490178 C 119.00000000000001,205.88044406490178 119.00000000000001,205.88044406490178 87.33333333333334,205.88044406490178 C 55.66666666666667,205.88044406490178 55.66666666666667,206 24,206 Z" fill="#00ADD8" fill-opacity="0.75" class="fade-5"/><path key="Rust" d="M 24,206 C 55.66666666666667,206 55.66666666666667,205.88044406490178 87.33333333333334,205.88044406490178 C 119.00000000000001,205.88044406490178 119.00000000000001,205.88044406490178 150.66666666666669,205.88044406490178 C 182.33333333333334,205.88044406490178 182.33333333333334,205.88044406490178 214,205.88044406490178 C 245.66666666666669,205.88044406490178 245.66666666666669,206 277.33333333333337,206 C 309,206 309,206 340.6666666666667,206 C 372.33333333333337,206 372.33333333333337,205.7608881298036 404,205.7608881298036 C 435.6666666666667,205.7608881298036 435.6666666666667,205.04355251921436 467.33333333333337,205.04355251921436 C 499.00000000000006,205.04355251921436 499.00000000000006,206 530.6666666666667,206 C 562.3333333333334,206 562.3333333333334,200.6199829205807 594,200.6199829205807 C 625.6666666666667,200.6199829205807 625.6666666666667,188.3057216054654 657.3333333333334,188.3057216054654 C 689,188.3057216054654 689,152.55849701110162 720.6666666666667,152.55849701110162 C 752.3333333333334,152.55849701110162 752.3333333333334,186.75149444918873 784,186.75149444918873 L 784,206 C 752.3333333333334,206 752.3333333333334,206 720.6666666666667,206 C 689,206 689,206 657.3333333333334,206 C 625.6666666666667,206 625.6666666666667,206 594,206 C 562.3333333333334,206 562.3333333333334,206 530.6666666666667,206 C 499.00000000000006,206 499.00000000000006,206 467.33333333333337,206 C 435.6666666666667,206 435.6666666666667,206 404,206 C 372.33333333333337,206 372.33333333333337,206 340.6666666666667,206 C 309,206 309,206 277.33333333333337,206 C 245.66666666666669,206 245.66666666666669,206 214,206 C 182.33333333333334,206 182.33333333333334,206 150.66666666666669,206 C 119.00000000000001,206 119.00000000000001,206 87.33333333333334,206 C 55.66666666666667,206 55.66666666666667,206 24,206 Z" fill="#dea584" fill-opacity="0.75" class="fade-6"/><rect x="24" y="212" width="8" height="8" rx="2" fill="#dea584" opacity="0.85"/><text x="36" y="220" class="t t-value">Rust</text><rect x="80" y="212" width="8" height="8" rx="2" fill="#00ADD8" opacity="0.85"/><text x="92" y="220" class="t t-value">Go</text><rect x="122" y="212" width="8" height="8" rx="2" fill="#3178c6" opacity="0.85"/><text x="134" y="220" class="t t-value">TypeScript</text><rect x="220" y="212" width="8" height="8" rx="2" fill="#3572A5" opacity="0.85"/><text x="232" y="220" class="t t-value">Python</text><rect x="290" y="212" width="8" height="8" rx="2" fill="#b07219" opacity="0.85"/><text x="302" y="220" class="t t-value">Java</text><rect x="346" y="212" width="8" height="8" rx="2" fill="#000080" opacity="0.85"/><text x="358" y="220" class="t t-value">Lua</text><text key="Apr" x="24" y="220" class="t t-value" text-anchor="start" opacity="0">Apr</text><text key="Jun" x="150.66666666666669" y="220" class="t t-value" text-anchor="start" opacity="0">Jun</text><text key="Aug" x="277.33333333333337" y="220" class="t t-value" text-anchor="start" opacity="0">Aug</text><text key="Oct" x="404" y="220" class="t t-value" text-anchor="start" opacity="0">Oct</text><text key="Dec" x="530.6666666666667" y="220" class="t t-value" text-anchor="start" opacity="0">Dec</text><text key="Feb" x="657.3333333333334" y="220" class="t t-value" text-anchor="start" opacity="0">Feb</text><text key="Apr" x="784" y="220" class="t t-value" text-anchor="start" opacity="0">Apr</text><text x="24" y="282" class="t t-h">CONTRIBUTION RHYTHM</text><text x="24" y="298" class="t t-sub">Activity patterns and statistics over the past year</text><circle key="0.25" cx="144" cy="428" r="22.5" fill="none" stroke="#30363d" stroke-width="1" stroke-opacity="0.4"/><circle key="0.5" cx="144" cy="428" r="45" fill="none" stroke="#30363d" stroke-width="1" stroke-opacity="0.4"/><circle key="0.75" cx="144" cy="428" r="67.5" fill="none" stroke="#30363d" stroke-width="1" stroke-opacity="0.4"/><circle key="1" cx="144" cy="428" r="90" fill="none" stroke="#30363d" stroke-width="1" stroke-opacity="0.4"/><line key="Sun" x1="144" y1="428" x2="144" y2="338" stroke="#30363d" stroke-width="1" stroke-opacity="0.3"/><line key="Mon" x1="144" y1="428" x2="214.36483342212267" y2="371.885917832714" stroke="#30363d" stroke-width="1" stroke-opacity="0.3"/><line key="Tue" x1="144" y1="428" x2="231.74351209636413" y2="448.0268840560683" stroke="#30363d" stroke-width="1" stroke-opacity="0.3"/><line key="Wed" x1="144" y1="428" x2="183.04953652058023" y2="509.08719811121773" stroke="#30363d" stroke-width="1" stroke-opacity="0.3"/><line key="Thu" x1="144" y1="428" x2="104.95046347941977" y2="509.08719811121773" stroke="#30363d" stroke-width="1" stroke-opacity="0.3"/><line key="Fri" x1="144" y1="428" x2="56.25648790363587" y2="448.0268840560683" stroke="#30363d" stroke-width="1" stroke-opacity="0.3"/><line key="Sat" x1="144" y1="428" x2="73.63516657787731" y2="371.885917832714" stroke="#30363d" stroke-width="1" stroke-opacity="0.3"/><polygon points="144,338 166.79820602876774,409.8190373777993 169.38712283321468,433.7944451202224 160.3487392899496,461.94850694256314 128.900845878709,459.35371660300416 106.79675087114161,436.49139883977296 96.90247149612588,390.4409743360299" fill="#58a6ff" fill-opacity="0.2" stroke="#58a6ff" stroke-width="2" stroke-opacity="0.8" class="fade-2" style="transform-origin: 144px 428px"/><circle key="Sun" cx="144" cy="338" r="3" fill="#58a6ff" class="fade-1"/><circle key="Mon" cx="166.79820602876774" cy="409.8190373777993" r="3" fill="#58a6ff" class="fade-2"/><circle key="Tue" cx="169.38712283321468" cy="433.7944451202224" r="3" fill="#58a6ff" class="fade-3"/><circle key="Wed" cx="160.3487392899496" cy="461.94850694256314" r="3" fill="#58a6ff" class="fade-4"/><circle key="Thu" cx="128.900845878709" cy="459.35371660300416" r="3" fill="#58a6ff" class="fade-5"/><circle key="Fri" cx="106.79675087114161" cy="436.49139883977296" r="3" fill="#58a6ff" class="fade-6"/><circle key="Sat" cx="96.90247149612588" cy="390.4409743360299" r="3" fill="#58a6ff" class="fade-6"/><text key="Sun" x="144" y="326" class="t t-value" text-anchor="middle">Sun</text><text key="Mon" x="226.87413714161116" y="365.91008100297427" class="t t-value" text-anchor="middle">Mon</text><text key="Tue" x="247.34235869127332" y="455.5872189993693" class="t t-value" text-anchor="middle">Tue</text><text key="Wed" x="189.99167634646116" y="527.5026999976565" class="t t-value" text-anchor="middle">Wed</text><text key="Thu" x="98.00832365353884" y="527.5026999976565" class="t t-value" text-anchor="middle">Thu</text><text key="Fri" x="40.657641308726696" y="455.5872189993693" class="t t-value" text-anchor="middle">Fri</text><text key="Sat" x="61.12586285838883" y="365.91008100297427" class="t t-value" text-anchor="middle">Sat</text><text x="324" y="338" class="t t-stat-label">COMMITS</text><text x="324" y="360" fill="#58a6ff" class="t t-stat-value">2,330</text><text x="324" y="380" class="t t-stat-label">PRS</text><text x="324" y="402" fill="#3fb950" class="t t-stat-value">143</text><text x="324" y="422" class="t t-stat-label">REVIEWS</text><text x="324" y="444" fill="#d29922" class="t t-stat-value">5</text><text x="324" y="464" class="t t-stat-label">REPOS</text><text x="324" y="486" fill="#bc8cff" class="t t-stat-value">29</text><text x="324" y="506" class="t t-stat-label">STREAK</text><text x="324" y="528" fill="#39d2c0" class="t t-stat-value">24d</text><text x="24" y="614" class="t t-h">PROJECT CONSTELLATION</text><text x="24" y="630" class="t t-sub">Top projects ranked by complexity, grouped by primary language</text><circle cx="29" cy="656" r="5" fill="#00ADD8" fill-opacity="0.8" class="fade-1"/><text x="40" y="660" class="t t-subhdr fade-1">Go</text><line x1="204" y1="656" x2="644" y2="656" stroke="#30363d" stroke-opacity="0.3" stroke-width="1"/><text x="32" y="688" class="t t-card-title fade-1">incipit</text><rect x="204" y="680" width="380" height="14" rx="4" fill="#00ADD8" fill-opacity="0.7" class="fade-1"/><text x="604" y="688" class="t t-value fade-1">★ 11</text><text x="32" y="748" class="t t-card-title fade-2">zigbee-skill</text><rect x="204" y="740" width="317.4214115243076" height="14" rx="4" fill="#00ADD8" fill-opacity="0.7" class="fade-2"/><text x="604" y="748" class="t t-value fade-2">★ 0</text><text x="32" y="808" class="t t-card-title fade-3">saige</text><rect x="204" y="800" width="164.69573988870135" height="14" rx="4" fill="#00ADD8" fill-opacity="0.7" class="fade-3"/><text x="604" y="808" class="t t-value fade-3">★ 0</text><circle cx="36" cy="832" r="3" fill="#6e7681" fill-opacity="0.6" class="fade-3"/><text x="42" y="835" class="t fade-3" font-size="9" fill="#6e7681">Go Templa…</text><circle cx="29" cy="884" r="5" fill="#3572A5" fill-opacity="0.8" class="fade-4"/><text x="40" y="888" class="t t-subhdr fade-4">Python</text><line x1="204" y1="884" x2="644" y2="884" stroke="#30363d" stroke-opacity="0.3" stroke-width="1"/><text x="32" y="916" class="t t-card-title fade-4">lepus-classifier</text><rect x="204" y="908" width="335.2354419645207" height="14" rx="4" fill="#3572A5" fill-opacity="0.7" class="fade-4"/><text x="604" y="916" class="t t-value fade-4">★ 2</text><text x="32" y="976" class="t t-card-title fade-5">experimental-transforme…</text><rect x="204" y="968" width="252.30932710906504" height="14" rx="4" fill="#3572A5" fill-opacity="0.7" class="fade-5"/><text x="604" y="976" class="t t-value fade-5">★ 0</text><text x="32" y="1036" class="t t-card-title fade-6">generative-artifact-pro…</text><rect x="204" y="1028" width="180.16701336456438" height="14" rx="4" fill="#3572A5" fill-opacity="0.7" class="fade-6"/><text x="604" y="1036" class="t t-value fade-6">★ 0</text><circle cx="36" cy="1060" r="3" fill="#dea584" fill-opacity="0.6" class="fade-6"/><text x="42" y="1063" class="t fade-6" font-size="9" fill="#6e7681">Rust</text><circle cx="80" cy="1060" r="3" fill="#00ADD8" fill-opacity="0.6" class="fade-6"/><text x="86" y="1063" class="t fade-6" font-size="9" fill="#6e7681">Go</text><circle cx="29" cy="1112" r="5" fill="#dea584" fill-opacity="0.8" class="fade-6"/><text x="40" y="1116" class="t t-subhdr fade-6">Rust</text><line x1="204" y1="1112" x2="644" y2="1112" stroke="#30363d" stroke-opacity="0.3" stroke-width="1"/><text x="32" y="1144" class="t t-card-title fade-6">linear-gp</text><rect x="204" y="1136" width="283.78043285151534" height="14" rx="4" fill="#dea584" fill-opacity="0.7" class="fade-6"/><text x="604" y="1144" class="t t-value fade-6">★ 3</text><text x="32" y="1204" class="t t-card-title fade-6">teasr</text><rect x="204" y="1196" width="154.92733757591657" height="14" rx="4" fill="#dea584" fill-opacity="0.7" class="fade-6"/><text x="604" y="1204" class="t t-value fade-6">★ 0</text><text x="32" y="1264" class="t t-card-title fade-6">oag</text><rect x="204" y="1256" width="131.35282068436265" height="14" rx="4" fill="#dea584" fill-opacity="0.7" class="fade-6"/><text x="604" y="1264" class="t t-value fade-6">★ 0</text><circle cx="36" cy="1288" r="3" fill="#6e7681" fill-opacity="0.6" class="fade-6"/><text x="42" y="1291" class="t fade-6" font-size="9" fill="#6e7681">Jinja</text><circle cx="29" cy="1340" r="5" fill="#3178c6" fill-opacity="0.8" class="fade-6"/><text x="40" y="1344" class="t t-subhdr fade-6">TypeScript</text><line x1="204" y1="1340" x2="644" y2="1340" stroke="#30363d" stroke-opacity="0.3" stroke-width="1"/><text x="32" y="1372" class="t t-card-title fade-6">urmzd.com</text><rect x="204" y="1364" width="264.1164561860722" height="14" rx="4" fill="#3178c6" fill-opacity="0.7" class="fade-6"/><text x="604" y="1372" class="t t-value fade-6">★ 1</text><circle cx="36" cy="1396" r="3" fill="#6e7681" fill-opacity="0.6" class="fade-6"/><text x="42" y="1399" class="t fade-6" font-size="9" fill="#6e7681">MDX</text><circle cx="74" cy="1396" r="3" fill="#6e7681" fill-opacity="0.6" class="fade-6"/><text x="80" y="1399" class="t fade-6" font-size="9" fill="#6e7681">Astro</text><circle cx="124" cy="1396" r="3" fill="#6e7681" fill-opacity="0.6" class="fade-6"/><text x="130" y="1399" class="t fade-6" font-size="9" fill="#6e7681">JavaScript</text><text x="32" y="1432" class="t t-card-title fade-6">github-insights</text><rect x="204" y="1424" width="143.41826796736294" height="14" rx="4" fill="#3178c6" fill-opacity="0.7" class="fade-6"/><text x="604" y="1432" class="t t-value fade-6">★ 0</text><circle cx="29" cy="1508" r="5" fill="#000080" fill-opacity="0.8" class="fade-6"/><text x="40" y="1512" class="t t-subhdr fade-6">Lua</text><line x1="204" y1="1508" x2="644" y2="1508" stroke="#30363d" stroke-opacity="0.3" stroke-width="1"/><text x="32" y="1540" class="t t-card-title fade-6">dotfiles</text><rect x="204" y="1532" width="176.61216697978" height="14" rx="4" fill="#000080" fill-opacity="0.7" class="fade-6"/><text x="604" y="1540" class="t t-value fade-6">★ 2</text><circle cx="36" cy="1564" r="3" fill="#6e7681" fill-opacity="0.6" class="fade-6"/><text x="42" y="1567" class="t fade-6" font-size="9" fill="#6e7681">Go Templa…</text><circle cx="116" cy="1564" r="3" fill="#6e7681" fill-opacity="0.6" class="fade-6"/><text x="122" y="1567" class="t fade-6" font-size="9" fill="#6e7681">Ruby</text><text x="24" y="1640" class="t t-h">OPEN SOURCE IMPACT</text><text x="24" y="1656" class="t t-sub">External repositories contributed to</text><text x="24" y="1690" class="t t-card-title fade-1">getzep/graphiti</text><rect x="280" y="1680" width="340" height="12" rx="3" fill="#58a6ff" fill-opacity="0.7" class="fade-1"/><text x="636" y="1690" class="t t-value fade-1">★ 24,524</text><text x="728" y="1690" class="t t-value fade-1">Python</text><text x="24" y="1736" class="t t-card-title fade-2">googleapis/python-aiplatform</text><rect x="280" y="1726" width="227.91355504298497" height="12" rx="3" fill="#3fb950" fill-opacity="0.7" class="fade-2"/><text x="636" y="1736" class="t t-value fade-2">★ 875</text><text x="728" y="1736" class="t t-value fade-2">Python</text><text x="24" y="1782" class="t t-card-title fade-3">MathisWellmann/gym-rs</text><rect x="280" y="1772" width="163.21530848427398" height="12" rx="3" fill="#d29922" fill-opacity="0.7" class="fade-3"/><text x="636" y="1782" class="t t-value fade-3">★ 127</text><text x="728" y="1782" class="t t-value fade-3">Rust</text><text x="24" y="1854" class="t t-h">TECH STACK</text><text x="24" y="1870" class="t t-sub">Projects arranged by abstraction layer</text><rect x="24" y="1880" width="760" height="124" rx="8" fill="#bc8cff" fill-opacity="0.08" class="fade-1"/><text x="40" y="1916" class="t t-subhdr fade-1" fill-opacity="0.9">AI &amp; RESEARCH</text><rect x="40" y="1928" width="176" height="52" rx="6" class="card-fill fade-1"/><text x="50" y="1948" class="t t-card-title fade-1">experimental-transf…</text><text x="206" y="1948" class="t t-value fade-1" text-anchor="end" font-size="9">★ 0</text><circle cx="54" cy="1966" r="3" fill="#3572A5" fill-opacity="0.8" class="fade-1"/><text x="62" y="1969" class="t fade-1" font-size="9" fill="#6e7681">Python</text><rect x="228" y="1928" width="176" height="52" rx="6" class="card-fill fade-1"/><text x="238" y="1948" class="t t-card-title fade-1">rlgp-thesis</text><text x="394" y="1948" class="t t-value fade-1" text-anchor="end" font-size="9">★ 0</text><circle cx="242" cy="1966" r="3" fill="#3D6117" fill-opacity="0.8" class="fade-1"/><text x="250" y="1969" class="t fade-1" font-size="9" fill="#6e7681">Other</text><rect x="24" y="2012" width="760" height="124" rx="8" fill="#d29922" fill-opacity="0.08" class="fade-2"/><text x="40" y="2048" class="t t-subhdr fade-2" fill-opacity="0.9">APPLICATIONS</text><rect x="40" y="2060" width="176" height="52" rx="6" class="card-fill fade-2"/><text x="50" y="2080" class="t t-card-title fade-2">urmzd.com</text><text x="206" y="2080" class="t t-value fade-2" text-anchor="end" font-size="9">★ 1</text><circle cx="54" cy="2098" r="3" fill="#3178c6" fill-opacity="0.8" class="fade-2"/><text x="62" y="2101" class="t fade-2" font-size="9" fill="#6e7681">TypeScript</text><rect x="228" y="2060" width="176" height="52" rx="6" class="card-fill fade-2"/><text x="238" y="2080" class="t t-card-title fade-2">zoro</text><text x="394" y="2080" class="t t-value fade-2" text-anchor="end" font-size="9">★ 0</text><circle cx="242" cy="2098" r="3" fill="#00ADD8" fill-opacity="0.8" class="fade-2"/><text x="250" y="2101" class="t fade-2" font-size="9" fill="#6e7681">Go</text><rect x="416" y="2060" width="176" height="52" rx="6" class="card-fill fade-2"/><text x="426" y="2080" class="t t-card-title fade-2">languide</text><text x="582" y="2080" class="t t-value fade-2" text-anchor="end" font-size="9">★ 0</text><circle cx="430" cy="2098" r="3" fill="#3D6117" fill-opacity="0.8" class="fade-2"/><text x="438" y="2101" class="t fade-2" font-size="9" fill="#6e7681">Other</text><rect x="24" y="2144" width="760" height="124" rx="8" fill="#58a6ff" fill-opacity="0.08" class="fade-3"/><text x="40" y="2180" class="t t-subhdr fade-3" fill-opacity="0.9">LIBRARIES &amp; SDKS</text><rect x="40" y="2192" width="176" height="52" rx="6" class="card-fill fade-3"/><text x="50" y="2212" class="t t-card-title fade-3">zigbee-skill</text><text x="206" y="2212" class="t t-value fade-3" text-anchor="end" font-size="9">★ 0</text><circle cx="54" cy="2230" r="3" fill="#00ADD8" fill-opacity="0.8" class="fade-3"/><text x="62" y="2233" class="t fade-3" font-size="9" fill="#6e7681">Go</text><rect x="228" y="2192" width="176" height="52" rx="6" class="card-fill fade-3"/><text x="238" y="2212" class="t t-card-title fade-3">linear-gp</text><text x="394" y="2212" class="t t-value fade-3" text-anchor="end" font-size="9">★ 3</text><circle cx="242" cy="2230" r="3" fill="#dea584" fill-opacity="0.8" class="fade-3"/><text x="250" y="2233" class="t fade-3" font-size="9" fill="#6e7681">Rust</text><rect x="416" y="2192" width="176" height="52" rx="6" class="card-fill fade-3"/><text x="426" y="2212" class="t t-card-title fade-3">generative-artifact…</text><text x="582" y="2212" class="t t-value fade-3" text-anchor="end" font-size="9">★ 0</text><circle cx="430" cy="2230" r="3" fill="#3572A5" fill-opacity="0.8" class="fade-3"/><text x="438" y="2233" class="t fade-3" font-size="9" fill="#6e7681">Python</text><rect x="24" y="2276" width="760" height="124" rx="8" fill="#3fb950" fill-opacity="0.08" class="fade-4"/><text x="40" y="2312" class="t t-subhdr fade-4" fill-opacity="0.9">INFRASTRUCTURE &amp; DEVOPS</text><rect x="40" y="2324" width="176" height="52" rx="6" class="card-fill fade-4"/><text x="50" y="2344" class="t t-card-title fade-4">incipit</text><text x="206" y="2344" class="t t-value fade-4" text-anchor="end" font-size="9">★ 11</text><circle cx="54" cy="2362" r="3" fill="#00ADD8" fill-opacity="0.8" class="fade-4"/><text x="62" y="2365" class="t fade-4" font-size="9" fill="#6e7681">Go</text><rect x="228" y="2324" width="176" height="52" rx="6" class="card-fill fade-4"/><text x="238" y="2344" class="t t-card-title fade-4">dotfiles</text><text x="394" y="2344" class="t t-value fade-4" text-anchor="end" font-size="9">★ 2</text><circle cx="242" cy="2362" r="3" fill="#000080" fill-opacity="0.8" class="fade-4"/><text x="250" y="2365" class="t fade-4" font-size="9" fill="#6e7681">Lua</text><rect x="416" y="2324" width="176" height="52" rx="6" class="card-fill fade-4"/><text x="426" y="2344" class="t t-card-title fade-4">teasr</text><text x="582" y="2344" class="t t-value fade-4" text-anchor="end" font-size="9">★ 0</text><circle cx="430" cy="2362" r="3" fill="#dea584" fill-opacity="0.8" class="fade-4"/><text x="438" y="2365" class="t fade-4" font-size="9" fill="#6e7681">Rust</text></svg>