<svg xmlns="http://www.w3.org/2000/svg" width="808" height="1298" viewBox="0 0 808 1298"><defs><style>
  .t { font-family: -apple-system,BlinkMacSystemFont,Segoe UI,Helvetica,Arial,sans-serif; font-variant-numeric: tabular-lining; }
  .t-h { font-size: 14px; fill: #c9d1d9; letter-spacing: 2px; font-weight: 600; }
  .t-sub { font-size: 11px; fill: #6e7681; }
  .t-label { font-size: 12px; fill: #8b949e; }
  .t-value { font-size: 11px; fill: #6e7681; }
  .t-subhdr { font-size: 11px; fill: #8b949e; letter-spacing: 1px; font-weight: 600; }
  .t-stat-label { font-size: 10px; fill: #8b949e; font-weight: 600; }
  .t-stat-value { font-size: 22px; font-weight: 700; }
  .t-card-title { font-size: 12px; fill: #58a6ff; font-weight: 700; }
  .t-card-detail { font-size: 11px; fill: #8b949e; }
  .t-pill { font-size: 11px; font-weight: 600; }
  .t-bullet { font-size: 12px; fill: #c9d1d9; }
  .bg-fill { fill: #0d1117; }
  .card-fill { fill: #161b22; }
  .border-stroke { stroke: #30363d; }

  @media (prefers-color-scheme: light) {
    .bg-fill { fill: #ffffff; }
    .card-fill { fill: #f6f8fa; }
    .border-stroke { stroke: #d0d7de; }
    .t-h { fill: #1f2328; }
    .t-sub { fill: #656d76; }
    .t-label { fill: #656d76; }
    .t-value { fill: #656d76; }
    .t-subhdr { fill: #656d76; }
    .t-stat-label { fill: #656d76; }
    .t-card-title { fill: #0969da; }
    .t-card-detail { fill: #656d76; }
    .t-bullet { fill: #1f2328; }
  }

  @keyframes fadeIn {
    from { opacity: 0; transform: translateY(8px); }
    to { opacity: 1; transform: translateY(0); }
  }
  @keyframes scaleIn {
    from { transform: scale(0); opacity: 0; }
    to { transform: scale(1); opacity: 1; }
  }
  @keyframes drawPath {
    from { stroke-dashoffset: var(--path-length); }
    to { stroke-dashoffset: 0; }
  }
  @keyframes radarReveal {
    from { transform: scale(0); opacity: 0; }
    to { transform: scale(1); opacity: 0.6; }
  }
  .fade-1 { animation: fadeIn 0.6s ease-out 0.1s both; }
  .fade-2 { animation: fadeIn 0.6s ease-out 0.25s both; }
  .fade-3 { animation: fadeIn 0.6s ease-out 0.4s both; }
  .fade-4 { animation: fadeIn 0.6s ease-out 0.55s both; }
  .fade-5 { animation: fadeIn 0.6s ease-out 0.7s both; }
  .fade-6 { animation: fadeIn 0.6s ease-out 0.85s both; }
</style></defs><rect width="808" height="1298" rx="12" class="bg-fill" fill="#0d1117"/><text x="24" y="40" class="t t-h">LANGUAGE VELOCITY</text><text x="24" y="56" class="t t-sub">How language usage has evolved over the past year</text><path key="TeX" d="M 24,206 C 55.66666666666667,206 55.66666666666667,206 87.33333333333334,206 C 119.00000000000001,206 119.00000000000001,205.58125623130607 150.66666666666669,205.58125623130607 C 182.33333333333334,205.58125623130607 182.33333333333334,205.30209371884348 214,205.30209371884348 C 245.66666666666669,205.30209371884348 245.66666666666669,205.72083748753738 277.33333333333337,205.72083748753738 C 309,205.72083748753738 309,206 340.6666666666667,206 C 372.33333333333337,206 372.33333333333337,200.41674975074775 404,200.41674975074775 C 435.6666666666667,200.41674975074775 435.6666666666667,205.02293120638086 467.33333333333337,205.02293120638086 C 499.00000000000006,205.02293120638086 499.00000000000006,201.5333998005982 530.6666666666667,201.5333998005982 C 562.3333333333334,201.5333998005982 562.3333333333334,205.30209371884348 594,205.30209371884348 C 625.6666666666667,205.30209371884348 625.6666666666667,181.85244267198405 657.3333333333334,181.85244267198405 C 689,181.85244267198405 689,135.2323030907278 720.6666666666667,135.2323030907278 C 752.3333333333334,135.2323030907278 752.3333333333334,66 784,66 L 784,66.97706879361914 C 752.3333333333334,66.97706879361914 752.3333333333334,135.79062811565302 720.6666666666667,135.79062811565302 C 689,135.79062811565302 689,181.99202392821536 657.3333333333334,181.99202392821536 C 625.6666666666667,181.99202392821536 625.6666666666667,205.30209371884348 594,205.30209371884348 C 562.3333333333334,205.30209371884348 562.3333333333334,201.5333998005982 530.6666666666667,201.5333998005982 C 499.00000000000006,201.5333998005982 499.00000000000006,205.02293120638086 467.33333333333337,205.02293120638086 C 435.6666666666667,205.02293120638086 435.6666666666667,200.41674975074775 404,200.41674975074775 C 372.33333333333337,200.41674975074775 372.33333333333337,206 340.6666666666667,206 C 309,206 309,205.72083748753738 277.33333333333337,205.72083748753738 C 245.66666666666669,205.72083748753738 245.66666666666669,205.30209371884348 214,205.30209371884348 C 182.33333333333334,205.30209371884348 182.33333333333334,205.58125623130607 150.66666666666669,205.58125623130607 C 119.00000000000001,205.58125623130607 119.00000000000001,206 87.33333333333334,206 C 55.66666666666667,206 55.66666666666667,206 24,206 Z" fill="#3D6117" fill-opacity="0.75" class="fade-1"/><path key="Java" d="M 24,206 C 55.66666666666667,206 55.66666666666667,206 87.33333333333334,206 C 119.00000000000001,206 119.00000000000001,205.58125623130607 150.66666666666669,205.58125623130607 C 182.33333333333334,205.58125623130607 182.33333333333334,205.30209371884348 214,205.30209371884348 C 245.66666666666669,205.30209371884348 245.66666666666669,205.72083748753738 277.33333333333337,205.72083748753738 C 309,205.72083748753738 309,206 340.6666666666667,206 C 372.33333333333337,206 372.33333333333337,200.41674975074775 404,200.41674975074775 C 435.6666666666667,200.41674975074775 435.6666666666667,205.02293120638086 467.33333333333337,205.02293120638086 C 499.00000000000006,205.02293120638086 499.00000000000006,201.5333998005982 530.6666666666667,201.5333998005982 C 562.3333333333334,201.5333998005982 562.3333333333334,205.30209371884348 594,205.30209371884348 C 625.6666666666667,205.30209371884348 625.6666666666667,181.99202392821536 657.3333333333334,181.99202392821536 C 689,181.99202392821536 689,135.79062811565302 720.6666666666667,135.79062811565302 C 752.3333333333334,135.79062811565302 752.3333333333334,66.97706879361914 784,66.97706879361914 L 784,71.16450648055832 C 752.3333333333334,71.16450648055832 752.3333333333334,137.88434695912264 720.6666666666667,137.88434695912264 C 689,137.88434695912264 689,182.68993020937188 657.3333333333334,182.68993020937188 C 625.6666666666667,182.68993020937188 625.6666666666667,205.30209371884348 594,205.30209371884348 C 562.3333333333334,205.30209371884348 562.3333333333334,201.6729810568295 530.6666666666667,201.6729810568295 C 499.00000000000006,201.6729810568295 499.00000000000006,205.02293120638086 467.33333333333337,205.02293120638086 C 435.6666666666667,205.02293120638086 435.6666666666667,200.55633100697906 404,200.55633100697906 C 372.33333333333337,200.55633100697906 372.33333333333337,206 340.6666666666667,206 C 309,206 309,205.72083748753738 277.33333333333337,205.72083748753738 C 245.66666666666669,205.72083748753738 245.66666666666669,205.30209371884348 214,205.30209371884348 C 182.33333333333334,205.30209371884348 182.33333333333334,205.58125623130607 150.66666666666669,205.58125623130607 C 119.00000000000001,205.58125623130607 119.00000000000001,206 87.33333333333334,206 C 55.66666666666667,206 55.66666666666667,206 24,206 Z" fill="#b07219" fill-opacity="0.75" class="fade-2"/><path key="Python" d="M 24,206 C 55.66666666666667,206 55.66666666666667,206 87.33333333333334,206 C 119.00000000000001,206 119.00000000000001,205.58125623130607 150.66666666666669,205.58125623130607 C 182.33333333333334,205.58125623130607 182.33333333333334,205.30209371884348 214,205.30209371884348 C 245.66666666666669,205.30209371884348 245.66666666666669,205.72083748753738 277.33333333333337,205.72083748753738 C 309,205.72083748753738 309,206 340.6666666666667,206 C 372.33333333333337,206 372.33333333333337,200.55633100697906 404,200.55633100697906 C 435.6666666666667,200.55633100697906 435.6666666666667,205.02293120638086 467.33333333333337,205.02293120638086 C 499.00000000000006,205.02293120638086 499.00000000000006,201.6729810568295 530.6666666666667,201.6729810568295 C 562.3333333333334,201.6729810568295 562.3333333333334,205.30209371884348 594,205.30209371884348 C 625.6666666666667,205.30209371884348 625.6666666666667,182.68993020937188 657.3333333333334,182.68993020937188 C 689,182.68993020937188 689,137.88434695912264 720.6666666666667,137.88434695912264 C 752.3333333333334,137.88434695912264 752.3333333333334,71.16450648055832 784,71.16450648055832 L 784,83.44765702891326 C 752.3333333333334,83.44765702891326 752.3333333333334,144.0259222333001 720.6666666666667,144.0259222333001 C 689,144.0259222333001 689,184.78364905284147 657.3333333333334,184.78364905284147 C 625.6666666666667,184.78364905284147 625.6666666666667,205.30209371884348 594,205.30209371884348 C 562.3333333333334,205.30209371884348 562.3333333333334,202.09172482552344 530.6666666666667,202.09172482552344 C 499.00000000000006,202.09172482552344 499.00000000000006,205.16251246261217 467.33333333333337,205.16251246261217 C 435.6666666666667,205.16251246261217 435.6666666666667,200.975074775673 404,200.975074775673 C 372.33333333333337,200.975074775673 372.33333333333337,206 340.6666666666667,206 C 309,206 309,205.72083748753738 277.33333333333337,205.72083748753738 C 245.66666666666669,205.72083748753738 245.66666666666669,205.30209371884348 214,205.30209371884348 C 182.33333333333334,205.30209371884348 182.33333333333334,205.58125623130607 150.66666666666669,205.58125623130607 C 119.00000000000001,205.58125623130607 119.00000000000001,206 87.33333333333334,206 C 55.66666666666667,206 55.66666666666667,206 24,206 Z" fill="#3572A5" fill-opacity="0.75" class="fade-3"/><path key="JavaScript" d="M 24,206 C 55.66666666666667,206 55.66666666666667,206 87.33333333333334,206 C 119.00000000000001,206 119.00000000000001,205.58125623130607 150.66666666666669,205.58125623130607 C 182.33333333333334,205.58125623130607 182.33333333333334,205.30209371884348 214,205.30209371884348 C 245.66666666666669,205.30209371884348 245.66666666666669,205.72083748753738 277.33333333333337,205.72083748753738 C 309,205.72083748753738 309,206 340.6666666666667,206 C 372.33333333333337,206 372.33333333333337,200.975074775673 404,200.975074775673 C 435.6666666666667,200.975074775673 435.6666666666667,205.16251246261217 467.33333333333337,205.16251246261217 C 499.00000000000006,205.16251246261217 499.00000000000006,202.09172482552344 530.6666666666667,202.09172482552344 C 562.3333333333334,202.09172482552344 562.3333333333334,205.30209371884348 594,205.30209371884348 C 625.6666666666667,205.30209371884348 625.6666666666667,184.78364905284147 657.3333333333334,184.78364905284147 C 689,184.78364905284147 689,144.0259222333001 720.6666666666667,144.0259222333001 C 752.3333333333334,144.0259222333001 752.3333333333334,83.44765702891326 784,83.44765702891326 L 784,95.8703888334995 C 752.3333333333334,95.8703888334995 752.3333333333334,150.3070787637089 720.6666666666667,150.3070787637089 C 689,150.3070787637089 689,186.87736789631106 657.3333333333334,186.87736789631106 C 625.6666666666667,186.87736789631106 625.6666666666667,205.30209371884348 594,205.30209371884348 C 562.3333333333334,205.30209371884348 562.3333333333334,202.51046859421734 530.6666666666667,202.51046859421734 C 499.00000000000006,202.51046859421734 499.00000000000006,205.30209371884348 467.33333333333337,205.30209371884348 C 435.6666666666667,205.30209371884348 435.6666666666667,201.5333998005982 404,201.5333998005982 C 372.33333333333337,201.5333998005982 372.33333333333337,206 340.6666666666667,206 C 309,206 309,205.72083748753738 277.33333333333337,205.72083748753738 C 245.66666666666669,205.72083748753738 245.66666666666669,205.30209371884348 214,205.30209371884348 C 182.33333333333334,205.30209371884348 182.33333333333334,205.58125623130607 150.66666666666669,205.58125623130607 C 119.00000000000001,205.58125623130607 119.00000000000001,206 87.33333333333334,206 C 55.66666666666667,206 55.66666666666667,206 24,206 Z" fill="#f1e05a" fill-opacity="0.75" class="fade-4"/><path key="Shell" d="M 24,206 C 55.66666666666667,206 55.66666666666667,206 87.33333333333334,206 C 119.00000000000001,206 119.00000000000001,205.58125623130607 150.66666666666669,205.58125623130607 C 182.33333333333334,205.58125623130607 182.33333333333334,205.30209371884348 214,205.30209371884348 C 245.66666666666669,205.30209371884348 245.66666666666669,205.72083748753738 277.33333333333337,205.72083748753738 C 309,205.72083748753738 309,206 340.6666666666667,206 C 372.33333333333337,206 372.33333333333337,201.5333998005982 404,201.5333998005982 C 435.6666666666667,201.5333998005982 435.6666666666667,205.30209371884348 467.33333333333337,205.30209371884348 C 499.00000000000006,205.30209371884348 499.00000000000006,202.51046859421734 530.6666666666667,202.51046859421734 C 562.3333333333334,202.51046859421734 562.3333333333334,205.30209371884348 594,205.30209371884348 C 625.6666666666667,205.30209371884348 625.6666666666667,186.87736789631106 657.3333333333334,186.87736789631106 C 689,186.87736789631106 689,150.3070787637089 720.6666666666667,150.3070787637089 C 752.3333333333334,150.3070787637089 752.3333333333334,95.8703888334995 784,95.8703888334995 L 784,113.73678963110667 C 752.3333333333334,113.73678963110667 752.3333333333334,159.37986041874376 720.6666666666667,159.37986041874376 C 689,159.37986041874376 689,189.9481555333998 657.3333333333334,189.9481555333998 C 625.6666666666667,189.9481555333998 625.6666666666667,205.4416749750748 594,205.4416749750748 C 562.3333333333334,205.4416749750748 562.3333333333334,203.06879361914258 530.6666666666667,203.06879361914258 C 499.00000000000006,203.06879361914258 499.00000000000006,205.4416749750748 467.33333333333337,205.4416749750748 C 435.6666666666667,205.4416749750748 435.6666666666667,202.23130608175472 404,202.23130608175472 C 372.33333333333337,202.23130608175472 372.33333333333337,206 340.6666666666667,206 C 309,206 309,205.72083748753738 277.33333333333337,205.72083748753738 C 245.66666666666669,205.72083748753738 245.66666666666669,205.4416749750748 214,205.4416749750748 C 182.33333333333334,205.4416749750748 182.33333333333334,205.58125623130607 150.66666666666669,205.58125623130607 C 119.00000000000001,205.58125623130607 119.00000000000001,206 87.33333333333334,206 C 55.66666666666667,206 55.66666666666667,206 24,206 Z" fill="#89e051" fill-opacity="0.75" class="fade-5"/><path key="Go" d="M 24,206 C 55.66666666666667,206 55.66666666666667,206 87.33333333333334,206 C 119.00000000000001,206 119.00000000000001,205.58125623130607 150.66666666666669,205.58125623130607 C 182.33333333333334,205.58125623130607 182.33333333333334,205.4416749750748 214,205.4416749750748 C 245.66666666666669,205.4416749750748 245.66666666666669,205.72083748753738 277.33333333333337,205.72083748753738 C 309,205.72083748753738 309,206 340.6666666666667,206 C 372.33333333333337,206 372.33333333333337,202.23130608175472 404,202.23130608175472 C 435.6666666666667,202.23130608175472 435.6666666666667,205.4416749750748 467.33333333333337,205.4416749750748 C 499.00000000000006,205.4416749750748 499.00000000000006,203.06879361914258 530.6666666666667,203.06879361914258 C 562.3333333333334,203.06879361914258 562.3333333333334,205.4416749750748 594,205.4416749750748 C 625.6666666666667,205.4416749750748 625.6666666666667,189.9481555333998 657.3333333333334,189.9481555333998 C 689,189.9481555333998 689,159.37986041874376 720.6666666666667,159.37986041874376 C 752.3333333333334,159.37986041874376 752.3333333333334,113.73678963110667 784,113.73678963110667 L 784,134.39481555333998 C 752.3333333333334,134.39481555333998 752.3333333333334,169.84845463609173 720.6666666666667,169.84845463609173 C 689,169.84845463609173 689,193.57726819541375 657.3333333333334,193.57726819541375 C 625.6666666666667,193.57726819541375 625.6666666666667,205.58125623130607 594,205.58125623130607 C 562.3333333333334,205.58125623130607 562.3333333333334,203.7666999002991 530.6666666666667,203.7666999002991 C 499.00000000000006,203.7666999002991 499.00000000000006,205.58125623130607 467.33333333333337,205.58125623130607 C 435.6666666666667,205.58125623130607 435.6666666666667,203.06879361914258 404,203.06879361914258 C 372.33333333333337,203.06879361914258 372.33333333333337,206 340.6666666666667,206 C 309,206 309,205.72083748753738 277.33333333333337,205.72083748753738 C 245.66666666666669,205.72083748753738 245.66666666666669,205.58125623130607 214,205.58125623130607 C 182.33333333333334,205.58125623130607 182.33333333333334,205.72083748753738 150.66666666666669,205.72083748753738 C 119.00000000000001,205.72083748753738 119.00000000000001,206 87.33333333333334,206 C 55.66666666666667,206 55.66666666666667,206 24,206 Z" fill="#00ADD8" fill-opacity="0.75" class="fade-6"/><path key="TypeScript" d="M 24,206 C 55.66666666666667,206 55.66666666666667,206 87.33333333333334,206 C 119.00000000000001,206 119.00000000000001,205.72083748753738 150.66666666666669,205.72083748753738 C 182.33333333333334,205.72083748753738 182.33333333333334,205.58125623130607 214,205.58125623130607 C 245.66666666666669,205.58125623130607 245.66666666666669,205.72083748753738 277.33333333333337,205.72083748753738 C 309,205.72083748753738 309,206 340.6666666666667,206 C 372.33333333333337,206 372.33333333333337,203.06879361914258 404,203.06879361914258 C 435.6666666666667,203.06879361914258 435.6666666666667,205.58125623130607 467.33333333333337,205.58125623130607 C 499.00000000000006,205.58125623130607 499.00000000000006,203.7666999002991 530.6666666666667,203.7666999002991 C 562.3333333333334,203.7666999002991 562.3333333333334,205.58125623130607 594,205.58125623130607 C 625.6666666666667,205.58125623130607 625.6666666666667,193.57726819541375 657.3333333333334,193.57726819541375 C 689,193.57726819541375 689,169.84845463609173 720.6666666666667,169.84845463609173 C 752.3333333333334,169.84845463609173 752.3333333333334,134.39481555333998 784,134.39481555333998 L 784,160.91525423728814 C 752.3333333333334,160.91525423728814 752.3333333333334,183.24825523429712 720.6666666666667,183.24825523429712 C 689,183.24825523429712 689,198.18344965104686 657.3333333333334,198.18344965104686 C 625.6666666666667,198.18344965104686 625.6666666666667,205.72083748753738 594,205.72083748753738 C 562.3333333333334,205.72083748753738 562.3333333333334,204.60418743768693 530.6666666666667,204.60418743768693 C 499.00000000000006,204.60418743768693 499.00000000000006,205.72083748753738 467.33333333333337,205.72083748753738 C 435.6666666666667,205.72083748753738 435.6666666666667,204.18544366899303 404,204.18544366899303 C 372.33333333333337,204.18544366899303 372.33333333333337,206 340.6666666666667,206 C 309,206 309,205.8604187437687 277.33333333333337,205.8604187437687 C 245.66666666666669,205.8604187437687 245.66666666666669,205.72083748753738 214,205.72083748753738 C 182.33333333333334,205.72083748753738 182.33333333333334,205.8604187437687 150.66666666666669,205.8604187437687 C 119.00000000000001,205.8604187437687 119.00000000000001,206 87.33333333333334,206 C 55.66666666666667,206 55.66666666666667,206 24,206 Z" fill="#3178c6" fill-opacity="0.75" class="fade-6"/><path key="Rust" d="M 24,206 C 55.66666666666667,206 55.66666666666667,206 87.33333333333334,206 C 119.00000000000001,206 119.00000000000001,205.8604187437687 150.66666666666669,205.8604187437687 C 182.33333333333334,205.8604187437687 182.33333333333334,205.72083748753738 214,205.72083748753738 C 245.66666666666669,205.72083748753738 245.66666666666669,205.8604187437687 277.33333333333337,205.8604187437687 C 309,205.8604187437687 309,206 340.6666666666667,206 C 372.33333333333337,206 372.33333333333337,204.18544366899303 404,204.18544366899303 C 435.6666666666667,204.18544366899303 435.6666666666667,205.72083748753738 467.33333333333337,205.72083748753738 C 499.00000000000006,205.72083748753738 499.00000000000006,204.60418743768693 530.6666666666667,204.60418743768693 C 562.3333333333334,204.60418743768693 562.3333333333334,205.72083748753738 594,205.72083748753738 C 625.6666666666667,205.72083748753738 625.6666666666667,198.18344965104686 657.3333333333334,198.18344965104686 C 689,198.18344965104686 689,183.24825523429712 720.6666666666667,183.24825523429712 C 752.3333333333334,183.24825523429712 752.3333333333334,160.91525423728814 784,160.91525423728814 L 784,206 C 752.3333333333334,206 752.3333333333334,206 720.6666666666667,206 C 689,206 689,206 657.3333333333334,206 C 625.6666666666667,206 625.6666666666667,206 594,206 C 562.3333333333334,206 562.3333333333334,206 530.6666666666667,206 C 499.00000000000006,206 499.00000000000006,206 467.33333333333337,206 C 435.6666666666667,206 435.6666666666667,206 404,206 C 372.33333333333337,206 372.33333333333337,206 340.6666666666667,206 C 309,206 309,206 277.33333333333337,206 C 245.66666666666669,206 245.66666666666669,206 214,206 C 182.33333333333334,206 182.33333333333334,206 150.66666666666669,206 C 119.00000000000001,206 119.00000000000001,206 87.33333333333334,206 C 55.66666666666667,206 55.66666666666667,206 24,206 Z" fill="#dea584" fill-opacity="0.75" class="fade-6"/><rect x="24" y="212" width="8" height="8" rx="2" fill="#dea584" opacity="0.85"/><text x="36" y="220" class="t t-value">Rust</text><rect x="80" y="212" width="8" height="8" rx="2" fill="#3178c6" opacity="0.85"/><text x="92" y="220" class="t t-value">TypeScript</text><rect x="178" y="212" width="8" height="8" rx="2" fill="#00ADD8" opacity="0.85"/><text x="190" y="220" class="t t-value">Go</text><rect x="220" y="212" width="8" height="8" rx="2" fill="#89e051" opacity="0.85"/><text x="232" y="220" class="t t-value">Shell</text><rect x="283" y="212" width="8" height="8" rx="2" fill="#f1e05a" opacity="0.85"/><text x="295" y="220" class="t t-value">JavaScript</text><rect x="381" y="212" width="8" height="8" rx="2" fill="#3572A5" opacity="0.85"/><text x="393" y="220" class="t t-value">Python</text><rect x="451" y="212" width="8" height="8" rx="2" fill="#b07219" opacity="0.85"/><text x="463" y="220" class="t t-value">Java</text><rect x="507" y="212" width="8" height="8" rx="2" fill="#3D6117" opacity="0.85"/><text x="519" y="220" class="t t-value">TeX</text><text key="Mar" x="24" y="220" class="t t-value" text-anchor="start" opacity="0">Mar</text><text key="May" x="150.66666666666669" y="220" class="t t-value" text-anchor="start" opacity="0">May</text><text key="Jul" x="277.33333333333337" y="220" class="t t-value" text-anchor="start" opacity="0">Jul</text><text key="Sep" x="404" y="220" class="t t-value" text-anchor="start" opacity="0">Sep</text><text key="Nov" x="530.6666666666667" y="220" class="t t-value" text-anchor="start" opacity="0">Nov</text><text key="Jan" x="657.3333333333334" y="220" class="t t-value" text-anchor="start" opacity="0">Jan</text><text key="Mar" x="784" y="220" class="t t-value" text-anchor="start" opacity="0">Mar</text><text x="24" y="282" class="t t-h">CONTRIBUTION RHYTHM</text><text x="24" y="298" class="t t-sub">Activity patterns and statistics over the past year</text><circle key="0.25" cx="144" cy="428" r="22.5" fill="none" stroke="#30363d" stroke-width="1" stroke-opacity="0.4"/><circle key="0.5" cx="144" cy="428" r="45" fill="none" stroke="#30363d" stroke-width="1" stroke-opacity="0.4"/><circle key="0.75" cx="144" cy="428" r="67.5" fill="none" stroke="#30363d" stroke-width="1" stroke-opacity="0.4"/><circle key="1" cx="144" cy="428" r="90" fill="none" stroke="#30363d" stroke-width="1" stroke-opacity="0.4"/><line key="Sun" x1="144" y1="428" x2="144" y2="338" stroke="#30363d" stroke-width="1" stroke-opacity="0.3"/><line key="Mon" x1="144" y1="428" x2="214.36483342212267" y2="371.885917832714" stroke="#30363d" stroke-width="1" stroke-opacity="0.3"/><line key="Tue" x1="144" y1="428" x2="231.74351209636413" y2="448.0268840560683" stroke="#30363d" stroke-width="1" stroke-opacity="0.3"/><line key="Wed" x1="144" y1="428" x2="183.04953652058023" y2="509.08719811121773" stroke="#30363d" stroke-width="1" stroke-opacity="0.3"/><line key="Thu" x1="144" y1="428" x2="104.95046347941977" y2="509.08719811121773" stroke="#30363d" stroke-width="1" stroke-opacity="0.3"/><line key="Fri" x1="144" y1="428" x2="56.25648790363587" y2="448.0268840560683" stroke="#30363d" stroke-width="1" stroke-opacity="0.3"/><line key="Sat" x1="144" y1="428" x2="73.63516657787731" y2="371.885917832714" stroke="#30363d" stroke-width="1" stroke-opacity="0.3"/><polygon points="144,351.6538461538462 177.52854242122513,401.26187965105817 183.93454717206316,437.11479979474905 171.36805123664598,484.83034397538336 128.98094749208454,459.1873838889299 113.43975967583899,434.9751754297845 73.63516657787731,371.885917832714" fill="#58a6ff" fill-opacity="0.2" stroke="#58a6ff" stroke-width="2" stroke-opacity="0.8" class="fade-2" style="transform-origin: 144px 428px"/><circle key="Sun" cx="144" cy="351.6538461538462" r="3" fill="#58a6ff" class="fade-1"/><circle key="Mon" cx="177.52854242122513" cy="401.26187965105817" r="3" fill="#58a6ff" class="fade-2"/><circle key="Tue" cx="183.93454717206316" cy="437.11479979474905" r="3" fill="#58a6ff" class="fade-3"/><circle key="Wed" cx="171.36805123664598" cy="484.83034397538336" r="3" fill="#58a6ff" class="fade-4"/><circle key="Thu" cx="128.98094749208454" cy="459.1873838889299" r="3" fill="#58a6ff" class="fade-5"/><circle key="Fri" cx="113.43975967583899" cy="434.9751754297845" r="3" fill="#58a6ff" class="fade-6"/><circle key="Sat" cx="73.63516657787731" cy="371.885917832714" r="3" fill="#58a6ff" class="fade-6"/><text key="Sun" x="144" y="326" class="t t-value" text-anchor="middle">Sun</text><text key="Mon" x="226.87413714161116" y="365.91008100297427" class="t t-value" text-anchor="middle">Mon</text><text key="Tue" x="247.34235869127332" y="455.5872189993693" class="t t-value" text-anchor="middle">Tue</text><text key="Wed" x="189.99167634646116" y="527.5026999976565" class="t t-value" text-anchor="middle">Wed</text><text key="Thu" x="98.00832365353884" y="527.5026999976565" class="t t-value" text-anchor="middle">Thu</text><text key="Fri" x="40.657641308726696" y="455.5872189993693" class="t t-value" text-anchor="middle">Fri</text><text key="Sat" x="61.12586285838883" y="365.91008100297427" class="t t-value" text-anchor="middle">Sat</text><text x="324" y="338" class="t t-stat-label">COMMITS</text><text x="324" y="360" fill="#58a6ff" class="t t-stat-value">1,823</text><text x="324" y="380" class="t t-stat-label">PRS</text><text x="324" y="402" fill="#3fb950" class="t t-stat-value">38</text><text x="324" y="422" class="t t-stat-label">REVIEWS</text><text x="324" y="444" fill="#d29922" class="t t-stat-value">5</text><text x="324" y="464" class="t t-stat-label">REPOS</text><text x="324" y="486" fill="#bc8cff" class="t t-stat-value">26</text><text x="324" y="506" class="t t-stat-label">STREAK</text><text x="324" y="528" fill="#39d2c0" class="t t-stat-value">20d</text><text x="24" y="614" class="t t-h">PROJECT CONSTELLATION</text><text x="24" y="630" class="t t-sub">Projects mapped by language ecosystem and complexity</text><line key="0-2" x1="103.2" y1="670" x2="487.2" y2="733.8305222801126" stroke="#30363d" stroke-width="1" stroke-opacity="0.15" stroke-dasharray="4 4"/><line key="0-3" x1="103.2" y1="670" x2="116" y2="739.2576869667628" stroke="#30363d" stroke-width="1" stroke-opacity="0.15" stroke-dasharray="4 4"/><line key="0-6" x1="103.2" y1="670" x2="128.8" y2="809.7632947661301" stroke="#30363d" stroke-width="1" stroke-opacity="0.15" stroke-dasharray="4 4"/><line key="0-7" x1="103.2" y1="670" x2="564" y2="815.6196489160435" stroke="#30363d" stroke-width="1" stroke-opacity="0.15" stroke-dasharray="4 4"/><line key="0-8" x1="103.2" y1="670" x2="704.8" y2="820.3799585040027" stroke="#30363d" stroke-width="1" stroke-opacity="0.15" stroke-dasharray="4 4"/><line key="0-9" x1="103.2" y1="670" x2="491.46666666666664" y2="828.7206242743673" stroke="#30363d" stroke-width="1" stroke-opacity="0.15" stroke-dasharray="4 4"/><line key="0-11" x1="103.2" y1="670" x2="495.73333333333335" y2="844.2555686324449" stroke="#30363d" stroke-width="1" stroke-opacity="0.15" stroke-dasharray="4 4"/><line key="0-12" x1="103.2" y1="670" x2="500" y2="865.3323163954378" stroke="#30363d" stroke-width="1" stroke-opacity="0.15" stroke-dasharray="4 4"/><line key="0-14" x1="103.2" y1="670" x2="429.6" y2="867.236437545159" stroke="#30363d" stroke-width="1" stroke-opacity="0.15" stroke-dasharray="4 4"/><line key="0-17" x1="103.2" y1="670" x2="504.26666666666665" y2="874.3104852820086" stroke="#30363d" stroke-width="1" stroke-opacity="0.15" stroke-dasharray="4 4"/><line key="0-18" x1="103.2" y1="670" x2="508.53333333333336" y2="877.2882958906034" stroke="#30363d" stroke-width="1" stroke-opacity="0.15" stroke-dasharray="4 4"/><line key="0-22" x1="103.2" y1="670" x2="512.8" y2="907.9639392585784" stroke="#30363d" stroke-width="1" stroke-opacity="0.15" stroke-dasharray="4 4"/><line key="0-24" x1="103.2" y1="670" x2="628" y2="919.5732065326494" stroke="#30363d" stroke-width="1" stroke-opacity="0.15" stroke-dasharray="4 4"/><line key="1-5" x1="295.2" y1="712.4084536155184" x2="423.2" y2="759.2998901990702" stroke="#30363d" stroke-width="1" stroke-opacity="0.15" stroke-dasharray="4 4"/><line key="1-8" x1="295.2" y1="712.4084536155184" x2="704.8" y2="820.3799585040027" stroke="#30363d" stroke-width="1" stroke-opacity="0.15" stroke-dasharray="4 4"/><line key="1-10" x1="295.2" y1="712.4084536155184" x2="320.8" y2="833.2180902028938" stroke="#30363d" stroke-width="1" stroke-opacity="0.15" stroke-dasharray="4 4"/><line key="1-14" x1="295.2" y1="712.4084536155184" x2="429.6" y2="867.236437545159" stroke="#30363d" stroke-width="1" stroke-opacity="0.15" stroke-dasharray="4 4"/><line key="1-18" x1="295.2" y1="712.4084536155184" x2="508.53333333333336" y2="877.2882958906034" stroke="#30363d" stroke-width="1" stroke-opacity="0.15" stroke-dasharray="4 4"/><line key="2-3" x1="487.2" y1="733.8305222801126" x2="116" y2="739.2576869667628" stroke="#30363d" stroke-width="1" stroke-opacity="0.15" stroke-dasharray="4 4"/><line key="2-6" x1="487.2" y1="733.8305222801126" x2="128.8" y2="809.7632947661301" stroke="#30363d" stroke-width="1" stroke-opacity="0.15" stroke-dasharray="4 4"/><line key="2-7" x1="487.2" y1="733.8305222801126" x2="564" y2="815.6196489160435" stroke="#30363d" stroke-width="1" stroke-opacity="0.15" stroke-dasharray="4 4"/><line key="2-8" x1="487.2" y1="733.8305222801126" x2="704.8" y2="820.3799585040027" stroke="#30363d" stroke-width="1" stroke-opacity="0.15" stroke-dasharray="4 4"/><line key="2-9" x1="487.2" y1="733.8305222801126" x2="491.46666666666664" y2="828.7206242743673" stroke="#30363d" stroke-width="1" stroke-opacity="0.15" stroke-dasharray="4 4"/><line key="2-11" x1="487.2" y1="733.8305222801126" x2="495.73333333333335" y2="844.2555686324449" stroke="#30363d" stroke-width="1" stroke-opacity="0.15" stroke-dasharray="4 4"/><line key="2-12" x1="487.2" y1="733.8305222801126" x2="500" y2="865.3323163954378" stroke="#30363d" stroke-width="1" stroke-opacity="0.15" stroke-dasharray="4 4"/><line key="2-17" x1="487.2" y1="733.8305222801126" x2="504.26666666666665" y2="874.3104852820086" stroke="#30363d" stroke-width="1" stroke-opacity="0.15" stroke-dasharray="4 4"/><line key="2-18" x1="487.2" y1="733.8305222801126" x2="508.53333333333336" y2="877.2882958906034" stroke="#30363d" stroke-width="1" stroke-opacity="0.15" stroke-dasharray="4 4"/><line key="2-22" x1="487.2" y1="733.8305222801126" x2="512.8" y2="907.9639392585784" stroke="#30363d" stroke-width="1" stroke-opacity="0.15" stroke-dasharray="4 4"/><line key="3-6" x1="116" y1="739.2576869667628" x2="128.8" y2="809.7632947661301" stroke="#30363d" stroke-width="1" stroke-opacity="0.15" stroke-dasharray="4 4"/><line key="3-7" x1="116" y1="739.2576869667628" x2="564" y2="815.6196489160435" stroke="#30363d" stroke-width="1" stroke-opacity="0.15" stroke-dasharray="4 4"/><line key="3-8" x1="116" y1="739.2576869667628" x2="704.8" y2="820.3799585040027" stroke="#30363d" stroke-width="1" stroke-opacity="0.15" stroke-dasharray="4 4"/><line key="3-9" x1="116" y1="739.2576869667628" x2="491.46666666666664" y2="828.7206242743673" stroke="#30363d" stroke-width="1" stroke-opacity="0.15" stroke-dasharray="4 4"/><line key="3-11" x1="116" y1="739.2576869667628" x2="495.73333333333335" y2="844.2555686324449" stroke="#30363d" stroke-width="1" stroke-opacity="0.15" stroke-dasharray="4 4"/><line key="3-12" x1="116" y1="739.2576869667628" x2="500" y2="865.3323163954378" stroke="#30363d" stroke-width="1" stroke-opacity="0.15" stroke-dasharray="4 4"/><line key="3-17" x1="116" y1="739.2576869667628" x2="504.26666666666665" y2="874.3104852820086" stroke="#30363d" stroke-width="1" stroke-opacity="0.15" stroke-dasharray="4 4"/><line key="3-18" x1="116" y1="739.2576869667628" x2="508.53333333333336" y2="877.2882958906034" stroke="#30363d" stroke-width="1" stroke-opacity="0.15" stroke-dasharray="4 4"/><line key="3-22" x1="116" y1="739.2576869667628" x2="512.8" y2="907.9639392585784" stroke="#30363d" stroke-width="1" stroke-opacity="0.15" stroke-dasharray="4 4"/><line key="4-8" x1="679.2" y1="757.1636955465196" x2="704.8" y2="820.3799585040027" stroke="#30363d" stroke-width="1" stroke-opacity="0.15" stroke-dasharray="4 4"/><line key="4-13" x1="679.2" y1="757.1636955465196" x2="231.2" y2="865.8691611248746" stroke="#30363d" stroke-width="1" stroke-opacity="0.15" stroke-dasharray="4 4"/><line key="4-21" x1="679.2" y1="757.1636955465196" x2="256.8" y2="907.2705148163892" stroke="#30363d" stroke-width="1" stroke-opacity="0.15" stroke-dasharray="4 4"/><line key="5-8" x1="423.2" y1="759.2998901990702" x2="704.8" y2="820.3799585040027" stroke="#30363d" stroke-width="1" stroke-opacity="0.15" stroke-dasharray="4 4"/><line key="5-10" x1="423.2" y1="759.2998901990702" x2="320.8" y2="833.2180902028938" stroke="#30363d" stroke-width="1" stroke-opacity="0.15" stroke-dasharray="4 4"/><line key="5-14" x1="423.2" y1="759.2998901990702" x2="429.6" y2="867.236437545159" stroke="#30363d" stroke-width="1" stroke-opacity="0.15" stroke-dasharray="4 4"/><line key="5-18" x1="423.2" y1="759.2998901990702" x2="508.53333333333336" y2="877.2882958906034" stroke="#30363d" stroke-width="1" stroke-opacity="0.15" stroke-dasharray="4 4"/><line key="6-7" x1="128.8" y1="809.7632947661301" x2="564" y2="815.6196489160435" stroke="#30363d" stroke-width="1" stroke-opacity="0.15" stroke-dasharray="4 4"/><line key="6-8" x1="128.8" y1="809.7632947661301" x2="704.8" y2="820.3799585040027" stroke="#30363d" stroke-width="1" stroke-opacity="0.15" stroke-dasharray="4 4"/><line key="6-9" x1="128.8" y1="809.7632947661301" x2="491.46666666666664" y2="828.7206242743673" stroke="#30363d" stroke-width="1" stroke-opacity="0.15" stroke-dasharray="4 4"/><line key="6-11" x1="128.8" y1="809.7632947661301" x2="495.73333333333335" y2="844.2555686324449" stroke="#30363d" stroke-width="1" stroke-opacity="0.15" stroke-dasharray="4 4"/><line key="6-12" x1="128.8" y1="809.7632947661301" x2="500" y2="865.3323163954378" stroke="#30363d" stroke-width="1" stroke-opacity="0.15" stroke-dasharray="4 4"/><line key="6-17" x1="128.8" y1="809.7632947661301" x2="504.26666666666665" y2="874.3104852820086" stroke="#30363d" stroke-width="1" stroke-opacity="0.15" stroke-dasharray="4 4"/><line key="6-18" x1="128.8" y1="809.7632947661301" x2="508.53333333333336" y2="877.2882958906034" stroke="#30363d" stroke-width="1" stroke-opacity="0.15" stroke-dasharray="4 4"/><line key="6-22" x1="128.8" y1="809.7632947661301" x2="512.8" y2="907.9639392585784" stroke="#30363d" stroke-width="1" stroke-opacity="0.15" stroke-dasharray="4 4"/><line key="7-8" x1="564" y1="815.6196489160435" x2="704.8" y2="820.3799585040027" stroke="#30363d" stroke-width="1" stroke-opacity="0.15" stroke-dasharray="4 4"/><line key="7-9" x1="564" y1="815.6196489160435" x2="491.46666666666664" y2="828.7206242743673" stroke="#30363d" stroke-width="1" stroke-opacity="0.15" stroke-dasharray="4 4"/><line key="7-11" x1="564" y1="815.6196489160435" x2="495.73333333333335" y2="844.2555686324449" stroke="#30363d" stroke-width="1" stroke-opacity="0.15" stroke-dasharray="4 4"/><line key="7-12" x1="564" y1="815.6196489160435" x2="500" y2="865.3323163954378" stroke="#30363d" stroke-width="1" stroke-opacity="0.15" stroke-dasharray="4 4"/><line key="7-17" x1="564" y1="815.6196489160435" x2="504.26666666666665" y2="874.3104852820086" stroke="#30363d" stroke-width="1" stroke-opacity="0.15" stroke-dasharray="4 4"/><line key="7-18" x1="564" y1="815.6196489160435" x2="508.53333333333336" y2="877.2882958906034" stroke="#30363d" stroke-width="1" stroke-opacity="0.15" stroke-dasharray="4 4"/><line key="7-19" x1="564" y1="815.6196489160435" x2="192.8" y2="883.6465506548706" stroke="#30363d" stroke-width="1" stroke-opacity="0.15" stroke-dasharray="4 4"/><line key="7-22" x1="564" y1="815.6196489160435" x2="512.8" y2="907.9639392585784" stroke="#30363d" stroke-width="1" stroke-opacity="0.15" stroke-dasharray="4 4"/><line key="8-9" x1="704.8" y1="820.3799585040027" x2="491.46666666666664" y2="828.7206242743673" stroke="#30363d" stroke-width="1" stroke-opacity="0.15" stroke-dasharray="4 4"/><line key="8-10" x1="704.8" y1="820.3799585040027" x2="320.8" y2="833.2180902028938" stroke="#30363d" stroke-width="1" stroke-opacity="0.15" stroke-dasharray="4 4"/><line key="8-11" x1="704.8" y1="820.3799585040027" x2="495.73333333333335" y2="844.2555686324449" stroke="#30363d" stroke-width="1" stroke-opacity="0.15" stroke-dasharray="4 4"/><line key="8-12" x1="704.8" y1="820.3799585040027" x2="500" y2="865.3323163954378" stroke="#30363d" stroke-width="1" stroke-opacity="0.15" stroke-dasharray="4 4"/><line key="8-13" x1="704.8" y1="820.3799585040027" x2="231.2" y2="865.8691611248746" stroke="#30363d" stroke-width="1" stroke-opacity="0.15" stroke-dasharray="4 4"/><line key="8-14" x1="704.8" y1="820.3799585040027" x2="429.6" y2="867.236437545159" stroke="#30363d" stroke-width="1" stroke-opacity="0.15" stroke-dasharray="4 4"/><line key="8-16" x1="704.8" y1="820.3799585040027" x2="436" y2="870.180695358164" stroke="#30363d" stroke-width="1" stroke-opacity="0.15" stroke-dasharray="4 4"/><line key="8-17" x1="704.8" y1="820.3799585040027" x2="504.26666666666665" y2="874.3104852820086" stroke="#30363d" stroke-width="1" stroke-opacity="0.15" stroke-dasharray="4 4"/><line key="8-18" x1="704.8" y1="820.3799585040027" x2="508.53333333333336" y2="877.2882958906034" stroke="#30363d" stroke-width="1" stroke-opacity="0.15" stroke-dasharray="4 4"/><line key="8-20" x1="704.8" y1="820.3799585040027" x2="442.4" y2="886.5880124015764" stroke="#30363d" stroke-width="1" stroke-opacity="0.15" stroke-dasharray="4 4"/><line key="8-21" x1="704.8" y1="820.3799585040027" x2="256.8" y2="907.2705148163892" stroke="#30363d" stroke-width="1" stroke-opacity="0.15" stroke-dasharray="4 4"/><line key="8-22" x1="704.8" y1="820.3799585040027" x2="512.8" y2="907.9639392585784" stroke="#30363d" stroke-width="1" stroke-opacity="0.15" stroke-dasharray="4 4"/><line key="9-11" x1="491.46666666666664" y1="828.7206242743673" x2="495.73333333333335" y2="844.2555686324449" stroke="#30363d" stroke-width="1" stroke-opacity="0.15" stroke-dasharray="4 4"/><line key="9-12" x1="491.46666666666664" y1="828.7206242743673" x2="500" y2="865.3323163954378" stroke="#30363d" stroke-width="1" stroke-opacity="0.15" stroke-dasharray="4 4"/><line key="9-17" x1="491.46666666666664" y1="828.7206242743673" x2="504.26666666666665" y2="874.3104852820086" stroke="#30363d" stroke-width="1" stroke-opacity="0.15" stroke-dasharray="4 4"/><line key="9-18" x1="491.46666666666664" y1="828.7206242743673" x2="508.53333333333336" y2="877.2882958906034" stroke="#30363d" stroke-width="1" stroke-opacity="0.15" stroke-dasharray="4 4"/><line key="9-22" x1="491.46666666666664" y1="828.7206242743673" x2="512.8" y2="907.9639392585784" stroke="#30363d" stroke-width="1" stroke-opacity="0.15" stroke-dasharray="4 4"/><line key="10-14" x1="320.8" y1="833.2180902028938" x2="429.6" y2="867.236437545159" stroke="#30363d" stroke-width="1" stroke-opacity="0.15" stroke-dasharray="4 4"/><line key="10-18" x1="320.8" y1="833.2180902028938" x2="508.53333333333336" y2="877.2882958906034" stroke="#30363d" stroke-width="1" stroke-opacity="0.15" stroke-dasharray="4 4"/><line key="11-12" x1="495.73333333333335" y1="844.2555686324449" x2="500" y2="865.3323163954378" stroke="#30363d" stroke-width="1" stroke-opacity="0.15" stroke-dasharray="4 4"/><line key="11-17" x1="495.73333333333335" y1="844.2555686324449" x2="504.26666666666665" y2="874.3104852820086" stroke="#30363d" stroke-width="1" stroke-opacity="0.15" stroke-dasharray="4 4"/><line key="11-18" x1="495.73333333333335" y1="844.2555686324449" x2="508.53333333333336" y2="877.2882958906034" stroke="#30363d" stroke-width="1" stroke-opacity="0.15" stroke-dasharray="4 4"/><line key="11-22" x1="495.73333333333335" y1="844.2555686324449" x2="512.8" y2="907.9639392585784" stroke="#30363d" stroke-width="1" stroke-opacity="0.15" stroke-dasharray="4 4"/><line key="12-17" x1="500" y1="865.3323163954378" x2="504.26666666666665" y2="874.3104852820086" stroke="#30363d" stroke-width="1" stroke-opacity="0.15" stroke-dasharray="4 4"/><line key="12-18" x1="500" y1="865.3323163954378" x2="508.53333333333336" y2="877.2882958906034" stroke="#30363d" stroke-width="1" stroke-opacity="0.15" stroke-dasharray="4 4"/><line key="12-22" x1="500" y1="865.3323163954378" x2="512.8" y2="907.9639392585784" stroke="#30363d" stroke-width="1" stroke-opacity="0.15" stroke-dasharray="4 4"/><line key="14-18" x1="429.6" y1="867.236437545159" x2="508.53333333333336" y2="877.2882958906034" stroke="#30363d" stroke-width="1" stroke-opacity="0.15" stroke-dasharray="4 4"/><line key="14-24" x1="429.6" y1="867.236437545159" x2="628" y2="919.5732065326494" stroke="#30363d" stroke-width="1" stroke-opacity="0.15" stroke-dasharray="4 4"/><line key="16-18" x1="436" y1="870.180695358164" x2="508.53333333333336" y2="877.2882958906034" stroke="#30363d" stroke-width="1" stroke-opacity="0.15" stroke-dasharray="4 4"/><line key="16-20" x1="436" y1="870.180695358164" x2="442.4" y2="886.5880124015764" stroke="#30363d" stroke-width="1" stroke-opacity="0.15" stroke-dasharray="4 4"/><line key="17-18" x1="504.26666666666665" y1="874.3104852820086" x2="508.53333333333336" y2="877.2882958906034" stroke="#30363d" stroke-width="1" stroke-opacity="0.15" stroke-dasharray="4 4"/><line key="17-22" x1="504.26666666666665" y1="874.3104852820086" x2="512.8" y2="907.9639392585784" stroke="#30363d" stroke-width="1" stroke-opacity="0.15" stroke-dasharray="4 4"/><line key="18-20" x1="508.53333333333336" y1="877.2882958906034" x2="442.4" y2="886.5880124015764" stroke="#30363d" stroke-width="1" stroke-opacity="0.15" stroke-dasharray="4 4"/><line key="18-22" x1="508.53333333333336" y1="877.2882958906034" x2="512.8" y2="907.9639392585784" stroke="#30363d" stroke-width="1" stroke-opacity="0.15" stroke-dasharray="4 4"/><circle cx="103.2" cy="670" r="26" fill="#00ADD8" fill-opacity="0.08" class="fade-1"/><circle cx="103.2" cy="670" r="22" fill="#00ADD8" fill-opacity="0.7" stroke="#00ADD8" stroke-width="1.5" stroke-opacity="0.9" class="fade-1"/><text x="103.2" y="706" class="t t-value fade-1" text-anchor="middle">incipit</text><circle cx="295.2" cy="712.4084536155184" r="26" fill="#DA5B0B" fill-opacity="0.08" class="fade-2"/><circle cx="295.2" cy="712.4084536155184" r="22" fill="#DA5B0B" fill-opacity="0.7" stroke="#DA5B0B" stroke-width="1.5" stroke-opacity="0.9" class="fade-2"/><text x="295.2" y="748.4084536155184" class="t t-value fade-2" text-anchor="middle">lepus-classifier</text><circle cx="487.2" cy="733.8305222801126" r="26" fill="#dea584" fill-opacity="0.08" class="fade-3"/><circle cx="487.2" cy="733.8305222801126" r="22" fill="#dea584" fill-opacity="0.7" stroke="#dea584" stroke-width="1.5" stroke-opacity="0.9" class="fade-3"/><text x="487.2" y="769.8305222801126" class="t t-value fade-3" text-anchor="middle">linear-gp</text><circle cx="116" cy="739.2576869667628" r="26" fill="#00ADD8" fill-opacity="0.08" class="fade-4"/><circle cx="116" cy="739.2576869667628" r="22" fill="#00ADD8" fill-opacity="0.7" stroke="#00ADD8" stroke-width="1.5" stroke-opacity="0.9" class="fade-4"/><text x="116" y="775.2576869667628" class="t t-value fade-4" text-anchor="middle">zigbee-skill</text><circle cx="679.2" cy="757.1636955465196" r="26" fill="#3178c6" fill-opacity="0.08" class="fade-5"/><circle cx="679.2" cy="757.1636955465196" r="22" fill="#3178c6" fill-opacity="0.7" stroke="#3178c6" stroke-width="1.5" stroke-opacity="0.9" class="fade-5"/><text x="679.2" y="793.1636955465196" class="t t-value fade-5" text-anchor="middle">urmzd.com</text><circle cx="423.2" cy="759.2998901990702" r="26" fill="#3572A5" fill-opacity="0.08" class="fade-6"/><circle cx="423.2" cy="759.2998901990702" r="22" fill="#3572A5" fill-opacity="0.7" stroke="#3572A5" stroke-width="1.5" stroke-opacity="0.9" class="fade-6"/><text x="423.2" y="795.2998901990702" class="t t-value fade-6" text-anchor="middle">exp-agi-models</text><circle cx="128.8" cy="809.7632947661301" r="24.34722569478212" fill="#00ADD8" fill-opacity="0.08" class="fade-6"/><circle cx="128.8" cy="809.7632947661301" r="20.34722569478212" fill="#00ADD8" fill-opacity="0.7" stroke="#00ADD8" stroke-width="1.5" stroke-opacity="0.9" class="fade-6"/><text x="128.8" y="844.1105204609122" class="t t-value fade-6" text-anchor="middle">saige</text><circle cx="564" cy="815.6196489160435" r="21.753727221558947" fill="#89e051" fill-opacity="0.08" class="fade-6"/><circle cx="564" cy="815.6196489160435" r="17.753727221558947" fill="#89e051" fill-opacity="0.7" stroke="#89e051" stroke-width="1.5" stroke-opacity="0.9" class="fade-6"/><text x="564" y="847.3733761376025" class="t t-value fade-6" text-anchor="middle">dotfiles</text><circle cx="704.8" cy="820.3799585040027" r="15.315656735546098" fill="#3178c6" fill-opacity="0.08" class="fade-6"/><circle cx="704.8" cy="820.3799585040027" r="11.315656735546098" fill="#3178c6" fill-opacity="0.7" stroke="#3178c6" stroke-width="1.5" stroke-opacity="0.9" class="fade-6"/><text x="704.8" y="845.6956152395488" class="t t-value fade-6" text-anchor="middle">zoro</text><circle cx="491.46666666666664" cy="828.7206242743673" r="26" fill="#dea584" fill-opacity="0.08" class="fade-6"/><circle cx="491.46666666666664" cy="828.7206242743673" r="22" fill="#dea584" fill-opacity="0.7" stroke="#dea584" stroke-width="1.5" stroke-opacity="0.9" class="fade-6"/><text x="491.46666666666664" y="864.7206242743673" class="t t-value fade-6" text-anchor="middle">teasr</text><circle cx="320.8" cy="833.2180902028938" r="25.36863924926572" fill="#DA5B0B" fill-opacity="0.08" class="fade-6"/><circle cx="320.8" cy="833.2180902028938" r="21.36863924926572" fill="#DA5B0B" fill-opacity="0.7" stroke="#DA5B0B" stroke-width="1.5" stroke-opacity="0.9" class="fade-6"/><text x="320.8" y="868.5867294521595" class="t t-value fade-6" text-anchor="middle">md-classifier</text><circle cx="495.73333333333335" cy="844.2555686324449" r="20.72593699206231" fill="#dea584" fill-opacity="0.08" class="fade-6"/><circle cx="495.73333333333335" cy="844.2555686324449" r="16.72593699206231" fill="#dea584" fill-opacity="0.7" stroke="#dea584" stroke-width="1.5" stroke-opacity="0.9" class="fade-6"/><text x="495.73333333333335" y="874.9815056245072" class="t t-value fade-6" text-anchor="middle">oag</text><circle cx="500" cy="865.3323163954378" r="16.922285575576744" fill="#dea584" fill-opacity="0.08" class="fade-6"/><circle cx="500" cy="865.3323163954378" r="12.922285575576742" fill="#dea584" fill-opacity="0.7" stroke="#dea584" stroke-width="1.5" stroke-opacity="0.9" class="fade-6"/><text x="500" y="892.2546019710146" class="t t-value fade-6" text-anchor="middle">sr</text><circle cx="231.2" cy="865.8691611248746" r="26" fill="#f1e05a" fill-opacity="0.08" class="fade-6"/><circle cx="231.2" cy="865.8691611248746" r="22" fill="#f1e05a" fill-opacity="0.7" stroke="#f1e05a" stroke-width="1.5" stroke-opacity="0.9" class="fade-6"/><text x="231.2" y="901.8691611248746" class="t t-value fade-6" text-anchor="middle">github-insights</text><circle cx="429.6" cy="867.236437545159" r="24.287843736263678" fill="#3572A5" fill-opacity="0.08" class="fade-6"/><circle cx="429.6" cy="867.236437545159" r="20.287843736263678" fill="#3572A5" fill-opacity="0.7" stroke="#3572A5" stroke-width="1.5" stroke-opacity="0.9" class="fade-6"/><text x="429.6" y="901.5242812814226" class="t t-value fade-6" text-anchor="middle">languide</text><circle cx="167.2" cy="869.4272070674895" r="24.861890796612347" fill="#b07219" fill-opacity="0.08" class="fade-6"/><circle cx="167.2" cy="869.4272070674895" r="20.861890796612347" fill="#b07219" fill-opacity="0.7" stroke="#b07219" stroke-width="1.5" stroke-opacity="0.9" class="fade-6"/><text x="167.2" y="904.2890978641018" class="t t-value fade-6" text-anchor="middle">flappy-bird</text><circle cx="436" cy="870.180695358164" r="26" fill="#3572A5" fill-opacity="0.08" class="fade-6"/><circle cx="436" cy="870.180695358164" r="22" fill="#3572A5" fill-opacity="0.7" stroke="#3572A5" stroke-width="1.5" stroke-opacity="0.9" class="fade-6"/><text x="436" y="906.180695358164" class="t t-value fade-6" text-anchor="middle">fighter-iq</text><circle cx="504.26666666666665" cy="874.3104852820086" r="12.283855820084858" fill="#dea584" fill-opacity="0.08" class="fade-6"/><circle cx="504.26666666666665" cy="874.3104852820086" r="8.283855820084858" fill="#dea584" fill-opacity="0.7" stroke="#dea584" stroke-width="1.5" stroke-opacity="0.9" class="fade-6"/><text x="504.26666666666665" y="896.5943411020935" class="t t-value fade-6" text-anchor="middle">embed-src</text><circle cx="508.53333333333336" cy="877.2882958906034" r="16.053765723991788" fill="#dea584" fill-opacity="0.08" class="fade-6"/><circle cx="508.53333333333336" cy="877.2882958906034" r="12.053765723991786" fill="#dea584" fill-opacity="0.7" stroke="#dea584" stroke-width="1.5" stroke-opacity="0.9" class="fade-6"/><text x="508.53333333333336" y="903.3420616145952" class="t t-value fade-6" text-anchor="middle">llmem</text><circle cx="192.8" cy="883.6465506548706" r="14.637905107315877" fill="#b07219" fill-opacity="0.08" class="fade-6"/><circle cx="192.8" cy="883.6465506548706" r="10.637905107315877" fill="#b07219" fill-opacity="0.7" stroke="#b07219" stroke-width="1.5" stroke-opacity="0.9" class="fade-6"/><text x="192.8" y="908.2844557621864" class="t t-value fade-6" text-anchor="middle">barter-trader</text><circle cx="442.4" cy="886.5880124015764" r="14.425254648846348" fill="#3572A5" fill-opacity="0.08" class="fade-6"/><circle cx="442.4" cy="886.5880124015764" r="10.425254648846348" fill="#3572A5" fill-opacity="0.7" stroke="#3572A5" stroke-width="1.5" stroke-opacity="0.9" class="fade-6"/><text x="442.4" y="911.0132670504228" class="t t-value fade-6" text-anchor="middle">chess-cli</text><circle cx="256.8" cy="907.2705148163892" r="12.127871907170075" fill="#f1e05a" fill-opacity="0.08" class="fade-6"/><circle cx="256.8" cy="907.2705148163892" r="8.127871907170075" fill="#f1e05a" fill-opacity="0.7" stroke="#f1e05a" stroke-width="1.5" stroke-opacity="0.9" class="fade-6"/><text x="256.8" y="929.3983867235593" class="t t-value fade-6" text-anchor="middle">cypress-name-too-…</text><circle cx="512.8" cy="907.9639392585784" r="10" fill="#dea584" fill-opacity="0.08" class="fade-6"/><circle cx="512.8" cy="907.9639392585784" r="6" fill="#dea584" fill-opacity="0.7" stroke="#dea584" stroke-width="1.5" stroke-opacity="0.9" class="fade-6"/><text x="512.8" y="927.9639392585784" class="t t-value fade-6" text-anchor="middle">gitit</text><circle cx="448.8" cy="916.399671283114" r="10" fill="#3572A5" fill-opacity="0.08" class="fade-6"/><circle cx="448.8" cy="916.399671283114" r="6" fill="#3572A5" fill-opacity="0.7" stroke="#3572A5" stroke-width="1.5" stroke-opacity="0.9" class="fade-6"/><text x="448.8" y="936.399671283114" class="t t-value fade-6" text-anchor="middle">lightning-kfold</text><circle cx="628" cy="919.5732065326494" r="17.16456861146825" fill="#3D6117" fill-opacity="0.08" class="fade-6"/><circle cx="628" cy="919.5732065326494" r="13.164568611468251" fill="#3D6117" fill-opacity="0.7" stroke="#3D6117" stroke-width="1.5" stroke-opacity="0.9" class="fade-6"/><text x="628" y="946.7377751441176" class="t t-value fade-6" text-anchor="middle">rlgp-thesis</text><circle cx="372" cy="950" r="13.053765723991786" fill="#8b949e" fill-opacity="0.08" class="fade-6"/><circle cx="372" cy="950" r="9.053765723991786" fill="#8b949e" fill-opacity="0.7" stroke="#8b949e" stroke-width="1.5" stroke-opacity="0.9" class="fade-6"/><text x="372" y="973.0537657239918" class="t t-value fade-6" text-anchor="middle">urmzd</text><text x="24" y="1076" class="t t-h">OPEN SOURCE IMPACT</text><text x="24" y="1092" class="t t-sub">External repositories contributed to</text><text x="24" y="1126" class="t t-card-title fade-1">getzep/graphiti</text><rect x="280" y="1116" width="340" height="12" rx="3" fill="#58a6ff" fill-opacity="0.7" class="fade-1"/><text x="636" y="1126" class="t t-value fade-1">★ 24,289</text><text x="728" y="1126" class="t t-value fade-1">Python</text><text x="24" y="1172" class="t t-card-title fade-2">googleapis/python-aiplatform</text><rect x="280" y="1162" width="228.1692852900607" height="12" rx="3" fill="#3fb950" fill-opacity="0.7" class="fade-2"/><text x="636" y="1172" class="t t-value fade-2">★ 876</text><text x="728" y="1172" class="t t-value fade-2">Python</text><text x="24" y="1218" class="t t-card-title fade-3">MathisWellmann/gym-rs</text><rect x="280" y="1208" width="163.3709341361925" height="12" rx="3" fill="#d29922" fill-opacity="0.7" class="fade-3"/><text x="636" y="1218" class="t t-value fade-3">★ 127</text><text x="728" y="1218" class="t t-value fade-3">Rust</text></svg>