<svg xmlns="http://www.w3.org/2000/svg" width="808" height="1862" viewBox="0 0 808 1862"><defs><style>
  .t { font-family: -apple-system,BlinkMacSystemFont,Segoe UI,Helvetica,Arial,sans-serif; font-variant-numeric: tabular-lining; }
  .t-h { font-size: 14px; fill: #c9d1d9; letter-spacing: 2px; font-weight: 600; }
  .t-sub { font-size: 11px; fill: #6e7681; }
  .t-label { font-size: 12px; fill: #8b949e; }
  .t-value { font-size: 11px; fill: #6e7681; }
  .t-subhdr { font-size: 11px; fill: #8b949e; letter-spacing: 1px; font-weight: 600; }
  .t-stat-label { font-size: 10px; fill: #8b949e; font-weight: 600; }
  .t-stat-value { font-size: 22px; font-weight: 700; }
  .t-card-title { font-size: 12px; fill: #58a6ff; font-weight: 700; }
  .t-card-detail { font-size: 11px; fill: #8b949e; }
  .t-pill { font-size: 11px; font-weight: 600; }
  .t-bullet { font-size: 12px; fill: #c9d1d9; }
  .bg-fill { fill: #0d1117; }
  .card-fill { fill: #161b22; }
  .border-stroke { stroke: #30363d; }

  @media (prefers-color-scheme: light) {
    .bg-fill { fill: #ffffff; }
    .card-fill { fill: #f6f8fa; }
    .border-stroke { stroke: #d0d7de; }
    .t-h { fill: #1f2328; }
    .t-sub { fill: #656d76; }
    .t-label { fill: #656d76; }
    .t-value { fill: #656d76; }
    .t-subhdr { fill: #656d76; }
    .t-stat-label { fill: #656d76; }
    .t-card-title { fill: #0969da; }
    .t-card-detail { fill: #656d76; }
    .t-bullet { fill: #1f2328; }
  }

  @keyframes fadeIn {
    from { opacity: 0; transform: translateY(8px); }
    to { opacity: 1; transform: translateY(0); }
  }
  @keyframes scaleIn {
    from { transform: scale(0); opacity: 0; }
    to { transform: scale(1); opacity: 1; }
  }
  @keyframes drawPath {
    from { stroke-dashoffset: var(--path-length); }
    to { stroke-dashoffset: 0; }
  }
  @keyframes radarReveal {
    from { transform: scale(0); opacity: 0; }
    to { transform: scale(1); opacity: 0.6; }
  }
  .fade-1 { animation: fadeIn 0.6s ease-out 0.1s both; }
  .fade-2 { animation: fadeIn 0.6s ease-out 0.25s both; }
  .fade-3 { animation: fadeIn 0.6s ease-out 0.4s both; }
  .fade-4 { animation: fadeIn 0.6s ease-out 0.55s both; }
  .fade-5 { animation: fadeIn 0.6s ease-out 0.7s both; }
  .fade-6 { animation: fadeIn 0.6s ease-out 0.85s both; }
</style></defs><rect width="808" height="1862" rx="12" class="bg-fill" fill="#0d1117"/><text x="24" y="40" class="t t-h">LANGUAGE VELOCITY</text><text x="24" y="56" class="t t-sub">How language usage has evolved over the past year</text><path key="TeX" d="M 24,206 C 55.66666666666667,206 55.66666666666667,205.77564102564102 87.33333333333334,205.77564102564102 C 119.00000000000001,205.77564102564102 119.00000000000001,205.77564102564102 150.66666666666669,205.77564102564102 C 182.33333333333334,205.77564102564102 182.33333333333334,205.77564102564102 214,205.77564102564102 C 245.66666666666669,205.77564102564102 245.66666666666669,206 277.33333333333337,206 C 309,206 309,206 340.6666666666667,206 C 372.33333333333337,206 372.33333333333337,205.43910256410257 404,205.43910256410257 C 435.6666666666667,205.43910256410257 435.6666666666667,203.64423076923077 467.33333333333337,203.64423076923077 C 499.00000000000006,203.64423076923077 499.00000000000006,206 530.6666666666667,206 C 562.3333333333334,206 562.3333333333334,192.31410256410257 594,192.31410256410257 C 625.6666666666667,192.31410256410257 625.6666666666667,159.33333333333334 657.3333333333334,159.33333333333334 C 689,159.33333333333334 689,66 720.6666666666667,66 C 752.3333333333334,66 752.3333333333334,172.45833333333331 784,172.45833333333331 L 784,173.35576923076923 C 752.3333333333334,173.35576923076923 752.3333333333334,69.70192307692307 720.6666666666667,69.70192307692307 C 689,69.70192307692307 689,160.56730769230768 657.3333333333334,160.56730769230768 C 625.6666666666667,160.56730769230768 625.6666666666667,192.65064102564102 594,192.65064102564102 C 562.3333333333334,192.65064102564102 562.3333333333334,206 530.6666666666667,206 C 499.00000000000006,206 499.00000000000006,203.75641025641025 467.33333333333337,203.75641025641025 C 435.6666666666667,203.75641025641025 435.6666666666667,205.43910256410257 404,205.43910256410257 C 372.33333333333337,205.43910256410257 372.33333333333337,206 340.6666666666667,206 C 309,206 309,206 277.33333333333337,206 C 245.66666666666669,206 245.66666666666669,205.77564102564102 214,205.77564102564102 C 182.33333333333334,205.77564102564102 182.33333333333334,205.77564102564102 150.66666666666669,205.77564102564102 C 119.00000000000001,205.77564102564102 119.00000000000001,205.77564102564102 87.33333333333334,205.77564102564102 C 55.66666666666667,205.77564102564102 55.66666666666667,206 24,206 Z" fill="#3D6117" fill-opacity="0.75" class="fade-1"/><path key="Shell" d="M 24,206 C 55.66666666666667,206 55.66666666666667,205.77564102564102 87.33333333333334,205.77564102564102 C 119.00000000000001,205.77564102564102 119.00000000000001,205.77564102564102 150.66666666666669,205.77564102564102 C 182.33333333333334,205.77564102564102 182.33333333333334,205.77564102564102 214,205.77564102564102 C 245.66666666666669,205.77564102564102 245.66666666666669,206 277.33333333333337,206 C 309,206 309,206 340.6666666666667,206 C 372.33333333333337,206 372.33333333333337,205.43910256410257 404,205.43910256410257 C 435.6666666666667,205.43910256410257 435.6666666666667,203.75641025641025 467.33333333333337,203.75641025641025 C 499.00000000000006,203.75641025641025 499.00000000000006,206 530.6666666666667,206 C 562.3333333333334,206 562.3333333333334,192.65064102564102 594,192.65064102564102 C 625.6666666666667,192.65064102564102 625.6666666666667,160.56730769230768 657.3333333333334,160.56730769230768 C 689,160.56730769230768 689,69.70192307692307 720.6666666666667,69.70192307692307 C 752.3333333333334,69.70192307692307 752.3333333333334,173.35576923076923 784,173.35576923076923 L 784,174.70192307692307 C 752.3333333333334,174.70192307692307 752.3333333333334,75.19871794871796 720.6666666666667,75.19871794871796 C 689,75.19871794871796 689,162.3621794871795 657.3333333333334,162.3621794871795 C 625.6666666666667,162.3621794871795 625.6666666666667,193.21153846153845 594,193.21153846153845 C 562.3333333333334,193.21153846153845 562.3333333333334,206 530.6666666666667,206 C 499.00000000000006,206 499.00000000000006,203.86858974358975 467.33333333333337,203.86858974358975 C 435.6666666666667,203.86858974358975 435.6666666666667,205.43910256410257 404,205.43910256410257 C 372.33333333333337,205.43910256410257 372.33333333333337,206 340.6666666666667,206 C 309,206 309,206 277.33333333333337,206 C 245.66666666666669,206 245.66666666666669,205.77564102564102 214,205.77564102564102 C 182.33333333333334,205.77564102564102 182.33333333333334,205.77564102564102 150.66666666666669,205.77564102564102 C 119.00000000000001,205.77564102564102 119.00000000000001,205.77564102564102 87.33333333333334,205.77564102564102 C 55.66666666666667,205.77564102564102 55.66666666666667,206 24,206 Z" fill="#89e051" fill-opacity="0.75" class="fade-2"/><path key="Python" d="M 24,206 C 55.66666666666667,206 55.66666666666667,205.77564102564102 87.33333333333334,205.77564102564102 C 119.00000000000001,205.77564102564102 119.00000000000001,205.77564102564102 150.66666666666669,205.77564102564102 C 182.33333333333334,205.77564102564102 182.33333333333334,205.77564102564102 214,205.77564102564102 C 245.66666666666669,205.77564102564102 245.66666666666669,206 277.33333333333337,206 C 309,206 309,206 340.6666666666667,206 C 372.33333333333337,206 372.33333333333337,205.43910256410257 404,205.43910256410257 C 435.6666666666667,205.43910256410257 435.6666666666667,203.86858974358975 467.33333333333337,203.86858974358975 C 499.00000000000006,203.86858974358975 499.00000000000006,206 530.6666666666667,206 C 562.3333333333334,206 562.3333333333334,193.21153846153845 594,193.21153846153845 C 625.6666666666667,193.21153846153845 625.6666666666667,162.3621794871795 657.3333333333334,162.3621794871795 C 689,162.3621794871795 689,75.19871794871796 720.6666666666667,75.19871794871796 C 752.3333333333334,75.19871794871796 752.3333333333334,174.70192307692307 784,174.70192307692307 L 784,176.72115384615384 C 752.3333333333334,176.72115384615384 752.3333333333334,83.61217948717949 720.6666666666667,83.61217948717949 C 689,83.61217948717949 689,165.16666666666666 657.3333333333334,165.16666666666666 C 625.6666666666667,165.16666666666666 625.6666666666667,193.99679487179486 594,193.99679487179486 C 562.3333333333334,193.99679487179486 562.3333333333334,206 530.6666666666667,206 C 499.00000000000006,206 499.00000000000006,203.98076923076923 467.33333333333337,203.98076923076923 C 435.6666666666667,203.98076923076923 435.6666666666667,205.43910256410257 404,205.43910256410257 C 372.33333333333337,205.43910256410257 372.33333333333337,206 340.6666666666667,206 C 309,206 309,206 277.33333333333337,206 C 245.66666666666669,206 245.66666666666669,205.77564102564102 214,205.77564102564102 C 182.33333333333334,205.77564102564102 182.33333333333334,205.77564102564102 150.66666666666669,205.77564102564102 C 119.00000000000001,205.77564102564102 119.00000000000001,205.77564102564102 87.33333333333334,205.77564102564102 C 55.66666666666667,205.77564102564102 55.66666666666667,206 24,206 Z" fill="#3572A5" fill-opacity="0.75" class="fade-3"/><path key="JavaScript" d="M 24,206 C 55.66666666666667,206 55.66666666666667,205.77564102564102 87.33333333333334,205.77564102564102 C 119.00000000000001,205.77564102564102 119.00000000000001,205.77564102564102 150.66666666666669,205.77564102564102 C 182.33333333333334,205.77564102564102 182.33333333333334,205.77564102564102 214,205.77564102564102 C 245.66666666666669,205.77564102564102 245.66666666666669,206 277.33333333333337,206 C 309,206 309,206 340.6666666666667,206 C 372.33333333333337,206 372.33333333333337,205.43910256410257 404,205.43910256410257 C 435.6666666666667,205.43910256410257 435.6666666666667,203.98076923076923 467.33333333333337,203.98076923076923 C 499.00000000000006,203.98076923076923 499.00000000000006,206 530.6666666666667,206 C 562.3333333333334,206 562.3333333333334,193.99679487179486 594,193.99679487179486 C 625.6666666666667,193.99679487179486 625.6666666666667,165.16666666666666 657.3333333333334,165.16666666666666 C 689,165.16666666666666 689,83.61217948717949 720.6666666666667,83.61217948717949 C 752.3333333333334,83.61217948717949 752.3333333333334,176.72115384615384 784,176.72115384615384 L 784,179.07692307692307 C 752.3333333333334,179.07692307692307 752.3333333333334,93.70833333333333 720.6666666666667,93.70833333333333 C 689,93.70833333333333 689,168.53205128205127 657.3333333333334,168.53205128205127 C 625.6666666666667,168.53205128205127 625.6666666666667,195.00641025641025 594,195.00641025641025 C 562.3333333333334,195.00641025641025 562.3333333333334,206 530.6666666666667,206 C 499.00000000000006,206 499.00000000000006,204.2051282051282 467.33333333333337,204.2051282051282 C 435.6666666666667,204.2051282051282 435.6666666666667,205.43910256410257 404,205.43910256410257 C 372.33333333333337,205.43910256410257 372.33333333333337,206 340.6666666666667,206 C 309,206 309,206 277.33333333333337,206 C 245.66666666666669,206 245.66666666666669,205.77564102564102 214,205.77564102564102 C 182.33333333333334,205.77564102564102 182.33333333333334,205.77564102564102 150.66666666666669,205.77564102564102 C 119.00000000000001,205.77564102564102 119.00000000000001,205.77564102564102 87.33333333333334,205.77564102564102 C 55.66666666666667,205.77564102564102 55.66666666666667,206 24,206 Z" fill="#f1e05a" fill-opacity="0.75" class="fade-4"/><path key="HTML" d="M 24,206 C 55.66666666666667,206 55.66666666666667,205.77564102564102 87.33333333333334,205.77564102564102 C 119.00000000000001,205.77564102564102 119.00000000000001,205.77564102564102 150.66666666666669,205.77564102564102 C 182.33333333333334,205.77564102564102 182.33333333333334,205.77564102564102 214,205.77564102564102 C 245.66666666666669,205.77564102564102 245.66666666666669,206 277.33333333333337,206 C 309,206 309,206 340.6666666666667,206 C 372.33333333333337,206 372.33333333333337,205.43910256410257 404,205.43910256410257 C 435.6666666666667,205.43910256410257 435.6666666666667,204.2051282051282 467.33333333333337,204.2051282051282 C 499.00000000000006,204.2051282051282 499.00000000000006,206 530.6666666666667,206 C 562.3333333333334,206 562.3333333333334,195.00641025641025 594,195.00641025641025 C 625.6666666666667,195.00641025641025 625.6666666666667,168.53205128205127 657.3333333333334,168.53205128205127 C 689,168.53205128205127 689,93.70833333333333 720.6666666666667,93.70833333333333 C 752.3333333333334,93.70833333333333 752.3333333333334,179.07692307692307 784,179.07692307692307 L 784,182.89102564102564 C 752.3333333333334,182.89102564102564 752.3333333333334,109.63782051282051 720.6666666666667,109.63782051282051 C 689,109.63782051282051 689,173.80448717948718 657.3333333333334,173.80448717948718 C 625.6666666666667,173.80448717948718 625.6666666666667,196.57692307692307 594,196.57692307692307 C 562.3333333333334,196.57692307692307 562.3333333333334,206 530.6666666666667,206 C 499.00000000000006,206 499.00000000000006,204.42948717948718 467.33333333333337,204.42948717948718 C 435.6666666666667,204.42948717948718 435.6666666666667,205.55128205128204 404,205.55128205128204 C 372.33333333333337,205.55128205128204 372.33333333333337,206 340.6666666666667,206 C 309,206 309,206 277.33333333333337,206 C 245.66666666666669,206 245.66666666666669,205.77564102564102 214,205.77564102564102 C 182.33333333333334,205.77564102564102 182.33333333333334,205.77564102564102 150.66666666666669,205.77564102564102 C 119.00000000000001,205.77564102564102 119.00000000000001,205.77564102564102 87.33333333333334,205.77564102564102 C 55.66666666666667,205.77564102564102 55.66666666666667,206 24,206 Z" fill="#e34c26" fill-opacity="0.75" class="fade-5"/><path key="TypeScript" d="M 24,206 C 55.66666666666667,206 55.66666666666667,205.77564102564102 87.33333333333334,205.77564102564102 C 119.00000000000001,205.77564102564102 119.00000000000001,205.77564102564102 150.66666666666669,205.77564102564102 C 182.33333333333334,205.77564102564102 182.33333333333334,205.77564102564102 214,205.77564102564102 C 245.66666666666669,205.77564102564102 245.66666666666669,206 277.33333333333337,206 C 309,206 309,206 340.6666666666667,206 C 372.33333333333337,206 372.33333333333337,205.55128205128204 404,205.55128205128204 C 435.6666666666667,205.55128205128204 435.6666666666667,204.42948717948718 467.33333333333337,204.42948717948718 C 499.00000000000006,204.42948717948718 499.00000000000006,206 530.6666666666667,206 C 562.3333333333334,206 562.3333333333334,196.57692307692307 594,196.57692307692307 C 625.6666666666667,196.57692307692307 625.6666666666667,173.80448717948718 657.3333333333334,173.80448717948718 C 689,173.80448717948718 689,109.63782051282051 720.6666666666667,109.63782051282051 C 752.3333333333334,109.63782051282051 752.3333333333334,182.89102564102564 784,182.89102564102564 L 784,186.81730769230768 C 752.3333333333334,186.81730769230768 752.3333333333334,126.01602564102565 720.6666666666667,126.01602564102565 C 689,126.01602564102565 689,179.30128205128204 657.3333333333334,179.30128205128204 C 625.6666666666667,179.30128205128204 625.6666666666667,198.14743589743588 594,198.14743589743588 C 562.3333333333334,198.14743589743588 562.3333333333334,206 530.6666666666667,206 C 499.00000000000006,206 499.00000000000006,204.65384615384616 467.33333333333337,204.65384615384616 C 435.6666666666667,204.65384615384616 435.6666666666667,205.66346153846155 404,205.66346153846155 C 372.33333333333337,205.66346153846155 372.33333333333337,206 340.6666666666667,206 C 309,206 309,206 277.33333333333337,206 C 245.66666666666669,206 245.66666666666669,205.77564102564102 214,205.77564102564102 C 182.33333333333334,205.77564102564102 182.33333333333334,205.77564102564102 150.66666666666669,205.77564102564102 C 119.00000000000001,205.77564102564102 119.00000000000001,205.77564102564102 87.33333333333334,205.77564102564102 C 55.66666666666667,205.77564102564102 55.66666666666667,206 24,206 Z" fill="#3178c6" fill-opacity="0.75" class="fade-6"/><path key="Go" d="M 24,206 C 55.66666666666667,206 55.66666666666667,205.77564102564102 87.33333333333334,205.77564102564102 C 119.00000000000001,205.77564102564102 119.00000000000001,205.77564102564102 150.66666666666669,205.77564102564102 C 182.33333333333334,205.77564102564102 182.33333333333334,205.77564102564102 214,205.77564102564102 C 245.66666666666669,205.77564102564102 245.66666666666669,206 277.33333333333337,206 C 309,206 309,206 340.6666666666667,206 C 372.33333333333337,206 372.33333333333337,205.66346153846155 404,205.66346153846155 C 435.6666666666667,205.66346153846155 435.6666666666667,204.65384615384616 467.33333333333337,204.65384615384616 C 499.00000000000006,204.65384615384616 499.00000000000006,206 530.6666666666667,206 C 562.3333333333334,206 562.3333333333334,198.14743589743588 594,198.14743589743588 C 625.6666666666667,198.14743589743588 625.6666666666667,179.30128205128204 657.3333333333334,179.30128205128204 C 689,179.30128205128204 689,126.01602564102565 720.6666666666667,126.01602564102565 C 752.3333333333334,126.01602564102565 752.3333333333334,186.81730769230768 784,186.81730769230768 L 784,193.99679487179486 C 752.3333333333334,193.99679487179486 752.3333333333334,155.85576923076923 720.6666666666667,155.85576923076923 C 689,155.85576923076923 689,189.2852564102564 657.3333333333334,189.2852564102564 C 625.6666666666667,189.2852564102564 625.6666666666667,201.06410256410257 594,201.06410256410257 C 562.3333333333334,201.06410256410257 562.3333333333334,206 530.6666666666667,206 C 499.00000000000006,206 499.00000000000006,205.10256410256412 467.33333333333337,205.10256410256412 C 435.6666666666667,205.10256410256412 435.6666666666667,205.77564102564102 404,205.77564102564102 C 372.33333333333337,205.77564102564102 372.33333333333337,206 340.6666666666667,206 C 309,206 309,206 277.33333333333337,206 C 245.66666666666669,206 245.66666666666669,205.88782051282053 214,205.88782051282053 C 182.33333333333334,205.88782051282053 182.33333333333334,205.88782051282053 150.66666666666669,205.88782051282053 C 119.00000000000001,205.88782051282053 119.00000000000001,205.88782051282053 87.33333333333334,205.88782051282053 C 55.66666666666667,205.88782051282053 55.66666666666667,206 24,206 Z" fill="#00ADD8" fill-opacity="0.75" class="fade-6"/><path key="Rust" d="M 24,206 C 55.66666666666667,206 55.66666666666667,205.88782051282053 87.33333333333334,205.88782051282053 C 119.00000000000001,205.88782051282053 119.00000000000001,205.88782051282053 150.66666666666669,205.88782051282053 C 182.33333333333334,205.88782051282053 182.33333333333334,205.88782051282053 214,205.88782051282053 C 245.66666666666669,205.88782051282053 245.66666666666669,206 277.33333333333337,206 C 309,206 309,206 340.6666666666667,206 C 372.33333333333337,206 372.33333333333337,205.77564102564102 404,205.77564102564102 C 435.6666666666667,205.77564102564102 435.6666666666667,205.10256410256412 467.33333333333337,205.10256410256412 C 499.00000000000006,205.10256410256412 499.00000000000006,206 530.6666666666667,206 C 562.3333333333334,206 562.3333333333334,201.06410256410257 594,201.06410256410257 C 625.6666666666667,201.06410256410257 625.6666666666667,189.2852564102564 657.3333333333334,189.2852564102564 C 689,189.2852564102564 689,155.85576923076923 720.6666666666667,155.85576923076923 C 752.3333333333334,155.85576923076923 752.3333333333334,193.99679487179486 784,193.99679487179486 L 784,206 C 752.3333333333334,206 752.3333333333334,206 720.6666666666667,206 C 689,206 689,206 657.3333333333334,206 C 625.6666666666667,206 625.6666666666667,206 594,206 C 562.3333333333334,206 562.3333333333334,206 530.6666666666667,206 C 499.00000000000006,206 499.00000000000006,206 467.33333333333337,206 C 435.6666666666667,206 435.6666666666667,206 404,206 C 372.33333333333337,206 372.33333333333337,206 340.6666666666667,206 C 309,206 309,206 277.33333333333337,206 C 245.66666666666669,206 245.66666666666669,206 214,206 C 182.33333333333334,206 182.33333333333334,206 150.66666666666669,206 C 119.00000000000001,206 119.00000000000001,206 87.33333333333334,206 C 55.66666666666667,206 55.66666666666667,206 24,206 Z" fill="#dea584" fill-opacity="0.75" class="fade-6"/><rect x="24" y="212" width="8" height="8" rx="2" fill="#dea584" opacity="0.85"/><text x="36" y="220" class="t t-value">Rust</text><rect x="80" y="212" width="8" height="8" rx="2" fill="#00ADD8" opacity="0.85"/><text x="92" y="220" class="t t-value">Go</text><rect x="122" y="212" width="8" height="8" rx="2" fill="#3178c6" opacity="0.85"/><text x="134" y="220" class="t t-value">TypeScript</text><rect x="220" y="212" width="8" height="8" rx="2" fill="#e34c26" opacity="0.85"/><text x="232" y="220" class="t t-value">HTML</text><rect x="276" y="212" width="8" height="8" rx="2" fill="#f1e05a" opacity="0.85"/><text x="288" y="220" class="t t-value">JavaScript</text><rect x="374" y="212" width="8" height="8" rx="2" fill="#3572A5" opacity="0.85"/><text x="386" y="220" class="t t-value">Python</text><rect x="444" y="212" width="8" height="8" rx="2" fill="#89e051" opacity="0.85"/><text x="456" y="220" class="t t-value">Shell</text><rect x="507" y="212" width="8" height="8" rx="2" fill="#3D6117" opacity="0.85"/><text x="519" y="220" class="t t-value">TeX</text><text key="Apr" x="24" y="220" class="t t-value" text-anchor="start" opacity="0">Apr</text><text key="Jun" x="150.66666666666669" y="220" class="t t-value" text-anchor="start" opacity="0">Jun</text><text key="Aug" x="277.33333333333337" y="220" class="t t-value" text-anchor="start" opacity="0">Aug</text><text key="Oct" x="404" y="220" class="t t-value" text-anchor="start" opacity="0">Oct</text><text key="Dec" x="530.6666666666667" y="220" class="t t-value" text-anchor="start" opacity="0">Dec</text><text key="Feb" x="657.3333333333334" y="220" class="t t-value" text-anchor="start" opacity="0">Feb</text><text key="Apr" x="784" y="220" class="t t-value" text-anchor="start" opacity="0">Apr</text><text x="24" y="282" class="t t-h">CONTRIBUTION RHYTHM</text><text x="24" y="298" class="t t-sub">Activity patterns and statistics over the past year</text><circle key="0.25" cx="144" cy="428" r="22.5" fill="none" stroke="#30363d" stroke-width="1" stroke-opacity="0.4"/><circle key="0.5" cx="144" cy="428" r="45" fill="none" stroke="#30363d" stroke-width="1" stroke-opacity="0.4"/><circle key="0.75" cx="144" cy="428" r="67.5" fill="none" stroke="#30363d" stroke-width="1" stroke-opacity="0.4"/><circle key="1" cx="144" cy="428" r="90" fill="none" stroke="#30363d" stroke-width="1" stroke-opacity="0.4"/><line key="Sun" x1="144" y1="428" x2="144" y2="338" stroke="#30363d" stroke-width="1" stroke-opacity="0.3"/><line key="Mon" x1="144" y1="428" x2="214.36483342212267" y2="371.885917832714" stroke="#30363d" stroke-width="1" stroke-opacity="0.3"/><line key="Tue" x1="144" y1="428" x2="231.74351209636413" y2="448.0268840560683" stroke="#30363d" stroke-width="1" stroke-opacity="0.3"/><line key="Wed" x1="144" y1="428" x2="183.04953652058023" y2="509.08719811121773" stroke="#30363d" stroke-width="1" stroke-opacity="0.3"/><line key="Thu" x1="144" y1="428" x2="104.95046347941977" y2="509.08719811121773" stroke="#30363d" stroke-width="1" stroke-opacity="0.3"/><line key="Fri" x1="144" y1="428" x2="56.25648790363587" y2="448.0268840560683" stroke="#30363d" stroke-width="1" stroke-opacity="0.3"/><line key="Sat" x1="144" y1="428" x2="73.63516657787731" y2="371.885917832714" stroke="#30363d" stroke-width="1" stroke-opacity="0.3"/><polygon points="144,338 172.9668564254405,404.89970284113394 177.34253459661838,435.61021594130597 164.6962543559075,470.9762149989454 124.99589222665095,467.46243641412593 97.64217777575429,438.5808704096228 82.89986964512346,379.27427198474" fill="#58a6ff" fill-opacity="0.2" stroke="#58a6ff" stroke-width="2" stroke-opacity="0.8" class="fade-2" style="transform-origin: 144px 428px"/><circle key="Sun" cx="144" cy="338" r="3" fill="#58a6ff" class="fade-1"/><circle key="Mon" cx="172.9668564254405" cy="404.89970284113394" r="3" fill="#58a6ff" class="fade-2"/><circle key="Tue" cx="177.34253459661838" cy="435.61021594130597" r="3" fill="#58a6ff" class="fade-3"/><circle key="Wed" cx="164.6962543559075" cy="470.9762149989454" r="3" fill="#58a6ff" class="fade-4"/><circle key="Thu" cx="124.99589222665095" cy="467.46243641412593" r="3" fill="#58a6ff" class="fade-5"/><circle key="Fri" cx="97.64217777575429" cy="438.5808704096228" r="3" fill="#58a6ff" class="fade-6"/><circle key="Sat" cx="82.89986964512346" cy="379.27427198474" r="3" fill="#58a6ff" class="fade-6"/><text key="Sun" x="144" y="326" class="t t-value" text-anchor="middle">Sun</text><text key="Mon" x="226.87413714161116" y="365.91008100297427" class="t t-value" text-anchor="middle">Mon</text><text key="Tue" x="247.34235869127332" y="455.5872189993693" class="t t-value" text-anchor="middle">Tue</text><text key="Wed" x="189.99167634646116" y="527.5026999976565" class="t t-value" text-anchor="middle">Wed</text><text key="Thu" x="98.00832365353884" y="527.5026999976565" class="t t-value" text-anchor="middle">Thu</text><text key="Fri" x="40.657641308726696" y="455.5872189993693" class="t t-value" text-anchor="middle">Fri</text><text key="Sat" x="61.12586285838883" y="365.91008100297427" class="t t-value" text-anchor="middle">Sat</text><text x="324" y="338" class="t t-stat-label">COMMITS</text><text x="324" y="360" fill="#58a6ff" class="t t-stat-value">2,226</text><text x="324" y="380" class="t t-stat-label">PRS</text><text x="324" y="402" fill="#3fb950" class="t t-stat-value">120</text><text x="324" y="422" class="t t-stat-label">REVIEWS</text><text x="324" y="444" fill="#d29922" class="t t-stat-value">5</text><text x="324" y="464" class="t t-stat-label">REPOS</text><text x="324" y="486" fill="#bc8cff" class="t t-stat-value">29</text><text x="324" y="506" class="t t-stat-label">STREAK</text><text x="324" y="528" fill="#39d2c0" class="t t-stat-value">24d</text><text x="24" y="614" class="t t-h">PROJECT CONSTELLATION</text><text x="24" y="630" class="t t-sub">Top projects ranked by complexity, grouped by primary language</text><circle cx="29" cy="656" r="5" fill="#00ADD8" fill-opacity="0.8" class="fade-1"/><text x="40" y="660" class="t t-subhdr fade-1">Go</text><line x1="204" y1="656" x2="644" y2="656" stroke="#30363d" stroke-opacity="0.3" stroke-width="1"/><text x="32" y="688" class="t t-card-title fade-1">incipit</text><rect x="204" y="680" width="380" height="14" rx="4" fill="#00ADD8" fill-opacity="0.7" class="fade-1"/><text x="604" y="688" class="t t-value fade-1">★ 11</text><circle cx="36" cy="712" r="3" fill="#6e7681" fill-opacity="0.6" class="fade-1"/><text x="42" y="715" class="t fade-1" font-size="9" fill="#6e7681">TeX</text><circle cx="74" cy="712" r="3" fill="#e34c26" fill-opacity="0.6" class="fade-1"/><text x="80" y="715" class="t fade-1" font-size="9" fill="#6e7681">HTML</text><circle cx="118" cy="712" r="3" fill="#89e051" fill-opacity="0.6" class="fade-1"/><text x="124" y="715" class="t fade-1" font-size="9" fill="#6e7681">Shell</text><circle cx="168" cy="712" r="3" fill="#6e7681" fill-opacity="0.6" class="fade-1"/><text x="174" y="715" class="t fade-1" font-size="9" fill="#6e7681">Just</text><text x="32" y="748" class="t t-card-title fade-2">zigbee-skill</text><rect x="204" y="740" width="285.83788039004423" height="14" rx="4" fill="#00ADD8" fill-opacity="0.7" class="fade-2"/><text x="604" y="748" class="t t-value fade-2">★ 0</text><circle cx="36" cy="772" r="3" fill="#6e7681" fill-opacity="0.6" class="fade-2"/><text x="42" y="775" class="t fade-2" font-size="9" fill="#6e7681">Just</text><circle cx="80" cy="772" r="3" fill="#89e051" fill-opacity="0.6" class="fade-2"/><text x="86" y="775" class="t fade-2" font-size="9" fill="#6e7681">Shell</text><text x="32" y="808" class="t t-card-title fade-3">saige</text><rect x="204" y="800" width="195.60068425022897" height="14" rx="4" fill="#00ADD8" fill-opacity="0.7" class="fade-3"/><text x="604" y="808" class="t t-value fade-3">★ 0</text><circle cx="36" cy="832" r="3" fill="#6e7681" fill-opacity="0.6" class="fade-3"/><text x="42" y="835" class="t fade-3" font-size="9" fill="#6e7681">Go Templa…</text><circle cx="116" cy="832" r="3" fill="#89e051" fill-opacity="0.6" class="fade-3"/><text x="122" y="835" class="t fade-3" font-size="9" fill="#6e7681">Shell</text><circle cx="166" cy="832" r="3" fill="#6e7681" fill-opacity="0.6" class="fade-3"/><text x="172" y="835" class="t fade-3" font-size="9" fill="#6e7681">Just</text><circle cx="210" cy="832" r="3" fill="#6e7681" fill-opacity="0.6" class="fade-3"/><text x="216" y="835" class="t fade-3" font-size="9" fill="#6e7681">Dockerfile</text><circle cx="29" cy="884" r="5" fill="#DA5B0B" fill-opacity="0.8" class="fade-4"/><text x="40" y="888" class="t t-subhdr fade-4">Jupyter Notebook</text><line x1="204" y1="884" x2="644" y2="884" stroke="#30363d" stroke-opacity="0.3" stroke-width="1"/><text x="32" y="916" class="t t-card-title fade-4">lepus-classifier</text><rect x="204" y="908" width="322.05988911012616" height="14" rx="4" fill="#DA5B0B" fill-opacity="0.7" class="fade-4"/><text x="604" y="916" class="t t-value fade-4">★ 2</text><circle cx="36" cy="940" r="3" fill="#3572A5" fill-opacity="0.6" class="fade-4"/><text x="42" y="943" class="t fade-4" font-size="9" fill="#6e7681">Python</text><circle cx="92" cy="940" r="3" fill="#89e051" fill-opacity="0.6" class="fade-4"/><text x="98" y="943" class="t fade-4" font-size="9" fill="#6e7681">Shell</text><text x="32" y="976" class="t t-card-title fade-5">md-classifier</text><rect x="204" y="968" width="159.07692223390364" height="14" rx="4" fill="#DA5B0B" fill-opacity="0.7" class="fade-5"/><text x="604" y="976" class="t t-value fade-5">★ 2</text><circle cx="36" cy="1000" r="3" fill="#3572A5" fill-opacity="0.6" class="fade-5"/><text x="42" y="1003" class="t fade-5" font-size="9" fill="#6e7681">Python</text><circle cx="92" cy="1000" r="3" fill="#89e051" fill-opacity="0.6" class="fade-5"/><text x="98" y="1003" class="t fade-5" font-size="9" fill="#6e7681">Shell</text><circle cx="29" cy="1052" r="5" fill="#dea584" fill-opacity="0.8" class="fade-6"/><text x="40" y="1056" class="t t-subhdr fade-6">Rust</text><line x1="204" y1="1052" x2="644" y2="1052" stroke="#30363d" stroke-opacity="0.3" stroke-width="1"/><text x="32" y="1084" class="t t-card-title fade-6">linear-gp</text><rect x="204" y="1076" width="292.5221171411416" height="14" rx="4" fill="#dea584" fill-opacity="0.7" class="fade-6"/><text x="604" y="1084" class="t t-value fade-6">★ 3</text><circle cx="36" cy="1108" r="3" fill="#89e051" fill-opacity="0.6" class="fade-6"/><text x="42" y="1111" class="t fade-6" font-size="9" fill="#6e7681">Shell</text><circle cx="86" cy="1108" r="3" fill="#6e7681" fill-opacity="0.6" class="fade-6"/><text x="92" y="1111" class="t fade-6" font-size="9" fill="#6e7681">Just</text><text x="32" y="1144" class="t t-card-title fade-6">teasr</text><rect x="204" y="1136" width="166.2571866843222" height="14" rx="4" fill="#dea584" fill-opacity="0.7" class="fade-6"/><text x="604" y="1144" class="t t-value fade-6">★ 0</text><circle cx="36" cy="1168" r="3" fill="#e34c26" fill-opacity="0.6" class="fade-6"/><text x="42" y="1171" class="t fade-6" font-size="9" fill="#6e7681">HTML</text><circle cx="80" cy="1168" r="3" fill="#89e051" fill-opacity="0.6" class="fade-6"/><text x="86" y="1171" class="t fade-6" font-size="9" fill="#6e7681">Shell</text><circle cx="130" cy="1168" r="3" fill="#6e7681" fill-opacity="0.6" class="fade-6"/><text x="136" y="1171" class="t fade-6" font-size="9" fill="#6e7681">Just</text><text x="32" y="1204" class="t t-card-title fade-6">oag</text><rect x="204" y="1196" width="143.97514013311874" height="14" rx="4" fill="#dea584" fill-opacity="0.7" class="fade-6"/><text x="604" y="1204" class="t t-value fade-6">★ 0</text><circle cx="36" cy="1228" r="3" fill="#6e7681" fill-opacity="0.6" class="fade-6"/><text x="42" y="1231" class="t fade-6" font-size="9" fill="#6e7681">Jinja</text><circle cx="86" cy="1228" r="3" fill="#89e051" fill-opacity="0.6" class="fade-6"/><text x="92" y="1231" class="t fade-6" font-size="9" fill="#6e7681">Shell</text><circle cx="136" cy="1228" r="3" fill="#6e7681" fill-opacity="0.6" class="fade-6"/><text x="142" y="1231" class="t fade-6" font-size="9" fill="#6e7681">Just</text><circle cx="29" cy="1280" r="5" fill="#8b949e" fill-opacity="0.8" class="fade-6"/><text x="40" y="1284" class="t t-subhdr fade-6">Other</text><line x1="204" y1="1280" x2="644" y2="1280" stroke="#30363d" stroke-opacity="0.3" stroke-width="1"/><text x="32" y="1312" class="t t-card-title fade-6">urmzd.com</text><rect x="204" y="1304" width="281.6281692082018" height="14" rx="4" fill="#3178c6" fill-opacity="0.7" class="fade-6"/><text x="604" y="1312" class="t t-value fade-6">★ 1</text><circle cx="36" cy="1336" r="3" fill="#6e7681" fill-opacity="0.6" class="fade-6"/><text x="42" y="1339" class="t fade-6" font-size="9" fill="#6e7681">MDX</text><circle cx="74" cy="1336" r="3" fill="#6e7681" fill-opacity="0.6" class="fade-6"/><text x="80" y="1339" class="t fade-6" font-size="9" fill="#6e7681">Astro</text><circle cx="124" cy="1336" r="3" fill="#6e7681" fill-opacity="0.6" class="fade-6"/><text x="130" y="1339" class="t fade-6" font-size="9" fill="#6e7681">CSS</text><circle cx="162" cy="1336" r="3" fill="#e34c26" fill-opacity="0.6" class="fade-6"/><text x="168" y="1339" class="t fade-6" font-size="9" fill="#6e7681">HTML</text><circle cx="206" cy="1336" r="3" fill="#6e7681" fill-opacity="0.6" class="fade-6"/><text x="212" y="1339" class="t fade-6" font-size="9" fill="#6e7681">JavaScript</text><text x="32" y="1372" class="t t-card-title fade-6">generative-artifact-pro…</text><rect x="204" y="1364" width="209.6519155695506" height="14" rx="4" fill="#e34c26" fill-opacity="0.7" class="fade-6"/><text x="604" y="1372" class="t t-value fade-6">★ 0</text><circle cx="36" cy="1396" r="3" fill="#3572A5" fill-opacity="0.6" class="fade-6"/><text x="42" y="1399" class="t fade-6" font-size="9" fill="#6e7681">Python</text><circle cx="92" cy="1396" r="3" fill="#dea584" fill-opacity="0.6" class="fade-6"/><text x="98" y="1399" class="t fade-6" font-size="9" fill="#6e7681">Rust</text><circle cx="136" cy="1396" r="3" fill="#00ADD8" fill-opacity="0.6" class="fade-6"/><text x="142" y="1399" class="t fade-6" font-size="9" fill="#6e7681">Go</text><circle cx="168" cy="1396" r="3" fill="#89e051" fill-opacity="0.6" class="fade-6"/><text x="174" y="1399" class="t fade-6" font-size="9" fill="#6e7681">Shell</text><circle cx="218" cy="1396" r="3" fill="#6e7681" fill-opacity="0.6" class="fade-6"/><text x="224" y="1399" class="t fade-6" font-size="9" fill="#6e7681">Just</text><text x="32" y="1432" class="t t-card-title fade-6">dotfiles</text><rect x="204" y="1424" width="163.78078410106986" height="14" rx="4" fill="#89e051" fill-opacity="0.7" class="fade-6"/><text x="604" y="1432" class="t t-value fade-6">★ 2</text><circle cx="36" cy="1456" r="3" fill="#6e7681" fill-opacity="0.6" class="fade-6"/><text x="42" y="1459" class="t fade-6" font-size="9" fill="#6e7681">Lua</text><circle cx="74" cy="1456" r="3" fill="#6e7681" fill-opacity="0.6" class="fade-6"/><text x="80" y="1459" class="t fade-6" font-size="9" fill="#6e7681">Go Templa…</text><circle cx="154" cy="1456" r="3" fill="#6e7681" fill-opacity="0.6" class="fade-6"/><text x="160" y="1459" class="t fade-6" font-size="9" fill="#6e7681">Nix</text><circle cx="192" cy="1456" r="3" fill="#6e7681" fill-opacity="0.6" class="fade-6"/><text x="198" y="1459" class="t fade-6" font-size="9" fill="#6e7681">Ruby</text><circle cx="29" cy="1508" r="5" fill="#3572A5" fill-opacity="0.8" class="fade-6"/><text x="40" y="1512" class="t t-subhdr fade-6">Python</text><line x1="204" y1="1508" x2="644" y2="1508" stroke="#30363d" stroke-opacity="0.3" stroke-width="1"/><text x="32" y="1540" class="t t-card-title fade-6">exp-agi-models</text><rect x="204" y="1532" width="258.79916197476973" height="14" rx="4" fill="#3572A5" fill-opacity="0.7" class="fade-6"/><text x="604" y="1540" class="t t-value fade-6">★ 0</text><circle cx="36" cy="1564" r="3" fill="#89e051" fill-opacity="0.6" class="fade-6"/><text x="42" y="1567" class="t fade-6" font-size="9" fill="#6e7681">Shell</text><text x="24" y="1640" class="t t-h">OPEN SOURCE IMPACT</text><text x="24" y="1656" class="t t-sub">External repositories contributed to</text><text x="24" y="1690" class="t t-card-title fade-1">getzep/graphiti</text><rect x="280" y="1680" width="340" height="12" rx="3" fill="#58a6ff" fill-opacity="0.7" class="fade-1"/><text x="636" y="1690" class="t t-value fade-1">★ 24,513</text><text x="728" y="1690" class="t t-value fade-1">Python</text><text x="24" y="1736" class="t t-card-title fade-2">googleapis/python-aiplatform</text><rect x="280" y="1726" width="227.9236715127252" height="12" rx="3" fill="#3fb950" fill-opacity="0.7" class="fade-2"/><text x="636" y="1736" class="t t-value fade-2">★ 875</text><text x="728" y="1736" class="t t-value fade-2">Python</text><text x="24" y="1782" class="t t-card-title fade-3">MathisWellmann/gym-rs</text><rect x="280" y="1772" width="163.22255317285385" height="12" rx="3" fill="#d29922" fill-opacity="0.7" class="fade-3"/><text x="636" y="1782" class="t t-value fade-3">★ 127</text><text x="728" y="1782" class="t t-value fade-3">Rust</text></svg>