<svg xmlns="http://www.w3.org/2000/svg" width="808" height="1376" viewBox="0 0 808 1376"><defs><style>
  .t { font-family: -apple-system,BlinkMacSystemFont,Segoe UI,Helvetica,Arial,sans-serif; }
  .t-h { font-size: 13px; fill: #c9d1d9; letter-spacing: 1.5px; font-weight: 600; }
  .t-sub { font-size: 11px; fill: #6e7681; }
  .t-label { font-size: 12px; fill: #8b949e; }
  .t-value { font-size: 11px; fill: #6e7681; }
  .t-subhdr { font-size: 11px; fill: #8b949e; letter-spacing: 1px; font-weight: 600; }
  .t-stat-label { font-size: 10px; fill: #8b949e; font-weight: 600; }
  .t-stat-value { font-size: 22px; font-weight: 700; }
  .t-card-title { font-size: 12px; fill: #58a6ff; font-weight: 700; }
  .t-card-detail { font-size: 11px; fill: #8b949e; }
  .t-pill { font-size: 11px; font-weight: 600; }
  .t-bullet { font-size: 12px; fill: #c9d1d9; }
</style></defs><rect width="808" height="1376" rx="12" fill="#0d1117"/><text x="24" y="40" class="t t-h">AT A GLANCE</text><text x="24" y="56" class="t t-sub">Contribution activity over the past year</text><rect x="24" y="66" width="140" height="72" rx="8" fill="#161b22" stroke="#30363d" stroke-width="1"/><circle cx="38" cy="82" r="4" fill="#58a6ff"/><text x="48" y="86" class="t t-stat-label">COMMITS</text><text x="94" y="118" fill="#58a6ff" class="t t-stat-value" text-anchor="middle">575</text><rect x="179" y="66" width="140" height="72" rx="8" fill="#161b22" stroke="#30363d" stroke-width="1"/><circle cx="193" cy="82" r="4" fill="#3fb950"/><text x="203" y="86" class="t t-stat-label">PRS</text><text x="249" y="118" fill="#3fb950" class="t t-stat-value" text-anchor="middle">3</text><rect x="334" y="66" width="140" height="72" rx="8" fill="#161b22" stroke="#30363d" stroke-width="1"/><circle cx="348" cy="82" r="4" fill="#d29922"/><text x="358" y="86" class="t t-stat-label">REVIEWS</text><text x="404" y="118" fill="#d29922" class="t t-stat-value" text-anchor="middle">5</text><rect x="489" y="66" width="140" height="72" rx="8" fill="#161b22" stroke="#30363d" stroke-width="1"/><circle cx="503" cy="82" r="4" fill="#bc8cff"/><text x="513" y="86" class="t t-stat-label">REPOS</text><text x="559" y="118" fill="#bc8cff" class="t t-stat-value" text-anchor="middle">17</text><text x="24" y="184" class="t t-h">LANGUAGES</text><text x="24" y="200" class="t t-sub">By bytes of code across all public repos</text><circle cx="114" cy="300" r="70" fill="none" stroke="#dea584" stroke-width="28" stroke-dasharray="125.78936984973532 314.0336016528357" stroke-dashoffset="0" transform="rotate(-90 114 300)" opacity="0.85"/><circle cx="114" cy="300" r="70" fill="none" stroke="#3178c6" stroke-width="28" stroke-dasharray="81.80707269947823 358.0158988030928" stroke-dashoffset="-125.78936984973532" transform="rotate(-90 114 300)" opacity="0.85"/><circle cx="114" cy="300" r="70" fill="none" stroke="#00ADD8" stroke-width="28" stroke-dasharray="64.65397681087794 375.1689946916931" stroke-dashoffset="-207.59644254921355" transform="rotate(-90 114 300)" opacity="0.85"/><circle cx="114" cy="300" r="70" fill="none" stroke="#b07219" stroke-width="28" stroke-dasharray="58.056632238339375 381.76633926423165" stroke-dashoffset="-272.2504193600915" transform="rotate(-90 114 300)" opacity="0.85"/><circle cx="114" cy="300" r="70" fill="none" stroke="#3572A5" stroke-width="28" stroke-dasharray="31.667253948185117 408.1557175543859" stroke-dashoffset="-330.30705159843086" transform="rotate(-90 114 300)" opacity="0.85"/><circle cx="114" cy="300" r="70" fill="none" stroke="#89e051" stroke-width="28" stroke-dasharray="23.750440461138837 416.07253104143217" stroke-dashoffset="-361.974305546616" transform="rotate(-90 114 300)" opacity="0.85"/><circle cx="114" cy="300" r="70" fill="none" stroke="#000080" stroke-width="28" stroke-dasharray="9.676105373056563 430.1468661295145" stroke-dashoffset="-385.72474600775485" transform="rotate(-90 114 300)" opacity="0.85"/><circle cx="114" cy="300" r="70" fill="none" stroke="#a52a22" stroke-width="28" stroke-dasharray="7.476990515543708 432.3459809870273" stroke-dashoffset="-395.4008513808114" transform="rotate(-90 114 300)" opacity="0.85"/><circle cx="114" cy="300" r="70" fill="none" stroke="#3D6117" stroke-width="28" stroke-dasharray="6.597344572538565 433.22562693003243" stroke-dashoffset="-402.8778418963551" transform="rotate(-90 114 300)" opacity="0.85"/><circle cx="114" cy="300" r="70" fill="none" stroke="#663399" stroke-width="28" stroke-dasharray="6.157521601035993 433.66544990153506" stroke-dashoffset="-409.4751864688937" transform="rotate(-90 114 300)" opacity="0.85"/><text x="114" y="305" class="t" fill="#c9d1d9" font-size="14" font-weight="700" text-anchor="middle">10</text><text x="114" y="320" class="t" fill="#6e7681" font-size="10" text-anchor="middle">languages</text><rect x="244" y="220" width="12" height="12" rx="2" fill="#dea584" opacity="0.85"/><text x="264" y="230" class="t t-label">Rust</text><text x="444" y="230" class="t t-value" text-anchor="end">28.6%</text><rect x="244" y="244" width="12" height="12" rx="2" fill="#3178c6" opacity="0.85"/><text x="264" y="254" class="t t-label">TypeScript</text><text x="444" y="254" class="t t-value" text-anchor="end">18.6%</text><rect x="244" y="268" width="12" height="12" rx="2" fill="#00ADD8" opacity="0.85"/><text x="264" y="278" class="t t-label">Go</text><text x="444" y="278" class="t t-value" text-anchor="end">14.7%</text><rect x="244" y="292" width="12" height="12" rx="2" fill="#b07219" opacity="0.85"/><text x="264" y="302" class="t t-label">Java</text><text x="444" y="302" class="t t-value" text-anchor="end">13.2%</text><rect x="244" y="316" width="12" height="12" rx="2" fill="#3572A5" opacity="0.85"/><text x="264" y="326" class="t t-label">Python</text><text x="444" y="326" class="t t-value" text-anchor="end">7.2%</text><rect x="244" y="340" width="12" height="12" rx="2" fill="#89e051" opacity="0.85"/><text x="264" y="350" class="t t-label">Shell</text><text x="444" y="350" class="t t-value" text-anchor="end">5.4%</text><rect x="244" y="364" width="12" height="12" rx="2" fill="#000080" opacity="0.85"/><text x="264" y="374" class="t t-label">Lua</text><text x="444" y="374" class="t t-value" text-anchor="end">2.2%</text><rect x="244" y="388" width="12" height="12" rx="2" fill="#a52a22" opacity="0.85"/><text x="264" y="398" class="t t-label">Jinja</text><text x="444" y="398" class="t t-value" text-anchor="end">1.7%</text><rect x="244" y="412" width="12" height="12" rx="2" fill="#3D6117" opacity="0.85"/><text x="264" y="422" class="t t-label">TeX</text><text x="444" y="422" class="t t-value" text-anchor="end">1.5%</text><rect x="244" y="436" width="12" height="12" rx="2" fill="#663399" opacity="0.85"/><text x="264" y="446" class="t t-label">CSS</text><text x="444" y="446" class="t t-value" text-anchor="end">1.4%</text><text x="24" y="516" class="t t-h">EXPERTISE</text><text x="24" y="532" class="t t-sub">Curated from dependencies, topics, and languages via AI analysis</text><text x="24" y="555" class="t t-subhdr">WEB DEVELOPMENT</text><rect x="204" y="542" width="500" height="18" rx="4" fill="#58a6ff" fill-opacity="0.15"/><rect x="204" y="542" width="450" height="18" rx="4" fill="#58a6ff" fill-opacity="0.85"/><text x="714" y="555" class="t t-value">90%</text><text x="204" y="576" class="t t-card-detail">TypeScript · React · Astro · Tailwind CSS · MDX</text><text x="24" y="603" class="t t-subhdr">MACHINE LEARNING</text><rect x="204" y="590" width="500" height="18" rx="4" fill="#3fb950" fill-opacity="0.15"/><rect x="204" y="590" width="425" height="18" rx="4" fill="#3fb950" fill-opacity="0.85"/><text x="714" y="603" class="t t-value">85%</text><text x="204" y="624" class="t t-card-detail">Python · TensorFlow · PyTorch · Scikit-learn · Keras</text><text x="24" y="651" class="t t-subhdr">SYSTEMS PROGRAMMING</text><rect x="204" y="638" width="500" height="18" rx="4" fill="#d29922" fill-opacity="0.15"/><rect x="204" y="638" width="400" height="18" rx="4" fill="#d29922" fill-opacity="0.85"/><text x="714" y="651" class="t t-value">80%</text><text x="204" y="672" class="t t-card-detail">Rust · Go · Shell · Linux · Docker</text><text x="24" y="699" class="t t-subhdr">DEVOPS &amp; AUTOMATION</text><rect x="204" y="686" width="500" height="18" rx="4" fill="#f85149" fill-opacity="0.15"/><rect x="204" y="686" width="375" height="18" rx="4" fill="#f85149" fill-opacity="0.85"/><text x="714" y="699" class="t t-value">75%</text><text x="204" y="720" class="t t-card-detail">GitHub Actions · AWS CDK · Terraform · CI/CD · Semantic Release</text><text x="24" y="747" class="t t-subhdr">DATA SCIENCE</text><rect x="204" y="734" width="500" height="18" rx="4" fill="#bc8cff" fill-opacity="0.15"/><rect x="204" y="734" width="350" height="18" rx="4" fill="#bc8cff" fill-opacity="0.85"/><text x="714" y="747" class="t t-value">70%</text><text x="204" y="768" class="t t-card-detail">Pandas · NumPy · Matplotlib · Seaborn · SQLAlchemy</text><text x="24" y="828" class="t t-h">SIGNATURE PROJECTS</text><text x="24" y="844" class="t t-sub">Top projects by stars</text><rect x="24" y="854" width="760" height="52" rx="6" fill="#161b22" stroke="#30363d" stroke-width="1"/><rect x="24" y="854" width="4" height="52" rx="2" fill="#58a6ff"/><text x="40" y="872" class="t t-card-title">resume-generator</text><text x="768" y="872" class="t t-value" text-anchor="end">★ 9</text><text x="40" y="888" class="t t-card-detail">A data-driven CLI tool that transforms YAML/JSON/TOML resume data into polished PDFs usin…</text><rect x="24" y="916" width="760" height="52" rx="6" fill="#161b22" stroke="#30363d" stroke-width="1"/><rect x="24" y="916" width="4" height="52" rx="2" fill="#3fb950"/><text x="40" y="934" class="t t-card-title">flappy-bird</text><text x="768" y="934" class="t t-value" text-anchor="end">★ 4</text><text x="40" y="950" class="t t-card-detail">A Flappy Bird clone built with JavaFX and Java 21, demonstrating data-oriented design pat…</text><rect x="24" y="978" width="760" height="52" rx="6" fill="#161b22" stroke="#30363d" stroke-width="1"/><rect x="24" y="978" width="4" height="52" rx="2" fill="#d29922"/><text x="40" y="996" class="t t-card-title">chess-cli</text><text x="768" y="996" class="t t-value" text-anchor="end">★ 3</text><text x="40" y="1012" class="t t-card-detail">A fully playable chess game in Python with object-oriented design and command-line interf…</text><rect x="24" y="1040" width="760" height="52" rx="6" fill="#161b22" stroke="#30363d" stroke-width="1"/><rect x="24" y="1040" width="4" height="52" rx="2" fill="#f85149"/><text x="40" y="1058" class="t t-card-title">lepus-classifier</text><text x="768" y="1058" class="t t-value" text-anchor="end">★ 2</text><text x="40" y="1074" class="t t-card-detail">A CNN research project exploring optimal image classification architectures for small dat…</text><rect x="24" y="1102" width="760" height="52" rx="6" fill="#161b22" stroke="#30363d" stroke-width="1"/><rect x="24" y="1102" width="4" height="52" rx="2" fill="#bc8cff"/><text x="40" y="1120" class="t t-card-title">dotfiles</text><text x="768" y="1120" class="t t-value" text-anchor="end">★ 2</text><text x="40" y="1136" class="t t-card-detail">Modern dotfiles with Chezmoi and Nix, providing one-command environment bootstrap for mac…</text><text x="24" y="1200" class="t t-h">OPEN SOURCE CONTRIBUTIONS</text><text x="24" y="1216" class="t t-sub">External repositories contributed to (all time)</text><rect x="24" y="1226" width="760" height="44" rx="6" fill="#161b22" stroke="#30363d" stroke-width="1"/><rect x="24" y="1226" width="4" height="44" rx="2" fill="#58a6ff"/><text x="40" y="1244" class="t t-card-title">MathisWellmann/gym-rs</text><text x="40" y="1260" class="t t-card-detail">★ 125 · Rust</text><rect x="24" y="1278" width="760" height="44" rx="6" fill="#161b22" stroke="#30363d" stroke-width="1"/><rect x="24" y="1278" width="4" height="44" rx="2" fill="#3fb950"/><text x="40" y="1296" class="t t-card-title">getzep/graphiti</text><text x="40" y="1312" class="t t-card-detail">★ 22,757 · Python</text></svg>