<svg xmlns="http://www.w3.org/2000/svg" width="808" height="1723" viewBox="0 0 808 1723"><defs><style>
  .t { font-family: -apple-system,BlinkMacSystemFont,Segoe UI,Helvetica,Arial,sans-serif; }
  .t-h { font-size: 13px; fill: #c9d1d9; letter-spacing: 1.5px; font-weight: 600; }
  .t-sub { font-size: 11px; fill: #6e7681; }
  .t-label { font-size: 12px; fill: #8b949e; }
  .t-value { font-size: 11px; fill: #6e7681; }
  .t-subhdr { font-size: 11px; fill: #8b949e; letter-spacing: 1px; font-weight: 600; }
  .t-stat-label { font-size: 10px; fill: #8b949e; font-weight: 600; }
  .t-stat-value { font-size: 22px; font-weight: 700; }
  .t-card-title { font-size: 12px; fill: #58a6ff; font-weight: 700; }
  .t-card-detail { font-size: 11px; fill: #8b949e; }
  .t-pill { font-size: 11px; font-weight: 600; }
  .t-bullet { font-size: 12px; fill: #c9d1d9; }
</style></defs><rect width="808" height="1723" rx="12" fill="#0d1117"/><text x="24" y="40" class="t t-h">AT A GLANCE</text><text x="24" y="56" class="t t-sub">Contribution activity over the past year</text><rect x="24" y="66" width="140" height="72" rx="8" fill="#161b22" stroke="#30363d" stroke-width="1"/><circle cx="38" cy="82" r="4" fill="#58a6ff"/><text x="48" y="86" class="t t-stat-label">COMMITS</text><text x="94" y="118" fill="#58a6ff" class="t t-stat-value" text-anchor="middle">608</text><rect x="179" y="66" width="140" height="72" rx="8" fill="#161b22" stroke="#30363d" stroke-width="1"/><circle cx="193" cy="82" r="4" fill="#3fb950"/><text x="203" y="86" class="t t-stat-label">PRS</text><text x="249" y="118" fill="#3fb950" class="t t-stat-value" text-anchor="middle">3</text><rect x="334" y="66" width="140" height="72" rx="8" fill="#161b22" stroke="#30363d" stroke-width="1"/><circle cx="348" cy="82" r="4" fill="#d29922"/><text x="358" y="86" class="t t-stat-label">REVIEWS</text><text x="404" y="118" fill="#d29922" class="t t-stat-value" text-anchor="middle">5</text><rect x="489" y="66" width="140" height="72" rx="8" fill="#161b22" stroke="#30363d" stroke-width="1"/><circle cx="503" cy="82" r="4" fill="#bc8cff"/><text x="513" y="86" class="t t-stat-label">REPOS</text><text x="559" y="118" fill="#bc8cff" class="t t-stat-value" text-anchor="middle">17</text><text x="24" y="184" class="t t-h">LANGUAGES</text><text x="24" y="200" class="t t-sub">By bytes of code across all public repos</text><circle cx="114" cy="300" r="70" fill="none" stroke="#dea584" stroke-width="28" stroke-dasharray="122.7106090492173 317.11236245335374" stroke-dashoffset="0" transform="rotate(-90 114 300)" opacity="0.85"/><circle cx="114" cy="300" r="70" fill="none" stroke="#3178c6" stroke-width="28" stroke-dasharray="90.60353212952964 349.2194393730414" stroke-dashoffset="-122.7106090492173" transform="rotate(-90 114 300)" opacity="0.85"/><circle cx="114" cy="300" r="70" fill="none" stroke="#00ADD8" stroke-width="28" stroke-dasharray="62.01503898186251 377.8079325207085" stroke-dashoffset="-213.31414117874692" transform="rotate(-90 114 300)" opacity="0.85"/><circle cx="114" cy="300" r="70" fill="none" stroke="#b07219" stroke-width="28" stroke-dasharray="55.41769440932395 384.4052770932471" stroke-dashoffset="-275.32918016060944" transform="rotate(-90 114 300)" opacity="0.85"/><circle cx="114" cy="300" r="70" fill="none" stroke="#3572A5" stroke-width="28" stroke-dasharray="30.347785033677404 409.47518646889364" stroke-dashoffset="-330.74687456993337" transform="rotate(-90 114 300)" opacity="0.85"/><circle cx="114" cy="300" r="70" fill="none" stroke="#89e051" stroke-width="28" stroke-dasharray="22.870794518133696 416.9521769844373" stroke-dashoffset="-361.09465960361075" transform="rotate(-90 114 300)" opacity="0.85"/><circle cx="114" cy="300" r="70" fill="none" stroke="#a52a22" stroke-width="28" stroke-dasharray="10.995574287564276 428.8273972150067" stroke-dashoffset="-383.9654541217445" transform="rotate(-90 114 300)" opacity="0.85"/><circle cx="114" cy="300" r="70" fill="none" stroke="#000080" stroke-width="28" stroke-dasharray="9.236282401553993 430.58668910101704" stroke-dashoffset="-394.96102840930877" transform="rotate(-90 114 300)" opacity="0.85"/><circle cx="114" cy="300" r="70" fill="none" stroke="#3D6117" stroke-width="28" stroke-dasharray="6.157521601035993 433.66544990153506" stroke-dashoffset="-404.19731081086275" transform="rotate(-90 114 300)" opacity="0.85"/><circle cx="114" cy="300" r="70" fill="none" stroke="#663399" stroke-width="28" stroke-dasharray="6.157521601035993 433.66544990153506" stroke-dashoffset="-410.3548324118987" transform="rotate(-90 114 300)" opacity="0.85"/><text x="114" y="305" class="t" fill="#c9d1d9" font-size="14" font-weight="700" text-anchor="middle">10</text><text x="114" y="320" class="t" fill="#6e7681" font-size="10" text-anchor="middle">languages</text><rect x="244" y="220" width="12" height="12" rx="2" fill="#dea584" opacity="0.85"/><text x="264" y="230" class="t t-label">Rust</text><text x="444" y="230" class="t t-value" text-anchor="end">27.9%</text><rect x="244" y="244" width="12" height="12" rx="2" fill="#3178c6" opacity="0.85"/><text x="264" y="254" class="t t-label">TypeScript</text><text x="444" y="254" class="t t-value" text-anchor="end">20.6%</text><rect x="244" y="268" width="12" height="12" rx="2" fill="#00ADD8" opacity="0.85"/><text x="264" y="278" class="t t-label">Go</text><text x="444" y="278" class="t t-value" text-anchor="end">14.1%</text><rect x="244" y="292" width="12" height="12" rx="2" fill="#b07219" opacity="0.85"/><text x="264" y="302" class="t t-label">Java</text><text x="444" y="302" class="t t-value" text-anchor="end">12.6%</text><rect x="244" y="316" width="12" height="12" rx="2" fill="#3572A5" opacity="0.85"/><text x="264" y="326" class="t t-label">Python</text><text x="444" y="326" class="t t-value" text-anchor="end">6.9%</text><rect x="244" y="340" width="12" height="12" rx="2" fill="#89e051" opacity="0.85"/><text x="264" y="350" class="t t-label">Shell</text><text x="444" y="350" class="t t-value" text-anchor="end">5.2%</text><rect x="244" y="364" width="12" height="12" rx="2" fill="#a52a22" opacity="0.85"/><text x="264" y="374" class="t t-label">Jinja</text><text x="444" y="374" class="t t-value" text-anchor="end">2.5%</text><rect x="244" y="388" width="12" height="12" rx="2" fill="#000080" opacity="0.85"/><text x="264" y="398" class="t t-label">Lua</text><text x="444" y="398" class="t t-value" text-anchor="end">2.1%</text><rect x="244" y="412" width="12" height="12" rx="2" fill="#3D6117" opacity="0.85"/><text x="264" y="422" class="t t-label">TeX</text><text x="444" y="422" class="t t-value" text-anchor="end">1.4%</text><rect x="244" y="436" width="12" height="12" rx="2" fill="#663399" opacity="0.85"/><text x="264" y="446" class="t t-label">CSS</text><text x="444" y="446" class="t t-value" text-anchor="end">1.4%</text><text x="24" y="516" class="t t-h">EXPERTISE</text><text x="24" y="532" class="t t-sub">Curated from dependencies, topics, and languages via AI analysis</text><text x="24" y="556" class="t t-subhdr">MACHINE LEARNING &amp; DEEP LEARNING</text><rect x="24" y="562" width="700" height="18" rx="4" fill="#58a6ff" fill-opacity="0.15"/><rect x="24" y="562" width="630" height="18" rx="4" fill="#58a6ff" fill-opacity="0.85"/><text x="734" y="575" class="t t-value">90%</text><text x="24" y="596" class="t t-card-detail">TensorFlow · PyTorch · Keras · Scikit-learn · Optuna · CNNs</text><text x="24" y="624" class="t t-subhdr">WEB DEVELOPMENT &amp; STATIC SITES</text><rect x="24" y="630" width="700" height="18" rx="4" fill="#3fb950" fill-opacity="0.15"/><rect x="24" y="630" width="595" height="18" rx="4" fill="#3fb950" fill-opacity="0.85"/><text x="734" y="643" class="t t-value">85%</text><text x="24" y="664" class="t t-card-detail">Astro · React · TypeScript · MDX · Tailwind CSS</text><text x="24" y="692" class="t t-subhdr">DEVOPS &amp; CI/CD AUTOMATION</text><rect x="24" y="698" width="700" height="18" rx="4" fill="#d29922" fill-opacity="0.15"/><rect x="24" y="698" width="560" height="18" rx="4" fill="#d29922" fill-opacity="0.85"/><text x="734" y="711" class="t t-value">80%</text><text x="24" y="732" class="t t-card-detail">GitHub Actions · Docker · Nix · Chezmoi · Semantic Release</text><text x="24" y="760" class="t t-subhdr">SYSTEMS PROGRAMMING &amp; BACKEND</text><rect x="24" y="766" width="700" height="18" rx="4" fill="#f85149" fill-opacity="0.15"/><rect x="24" y="766" width="525" height="18" rx="4" fill="#f85149" fill-opacity="0.85"/><text x="734" y="779" class="t t-value">75%</text><text x="24" y="800" class="t t-card-detail">Rust · Go · Java · SQLAlchemy · FastAPI</text><text x="24" y="828" class="t t-subhdr">DATA SCIENCE &amp; NLP</text><rect x="24" y="834" width="700" height="18" rx="4" fill="#bc8cff" fill-opacity="0.15"/><rect x="24" y="834" width="489.99999999999994" height="18" rx="4" fill="#bc8cff" fill-opacity="0.85"/><text x="734" y="847" class="t t-value">70%</text><text x="24" y="868" class="t t-card-detail">Pandas · NumPy · NLTK · Transformers · Jupyter</text><text x="24" y="896" class="t t-subhdr">DESKTOP &amp; MOBILE APPLICATION DEVELOPMENT</text><rect x="24" y="902" width="700" height="18" rx="4" fill="#39d2c0" fill-opacity="0.15"/><rect x="24" y="902" width="420" height="18" rx="4" fill="#39d2c0" fill-opacity="0.85"/><text x="734" y="915" class="t t-value">60%</text><text x="24" y="936" class="t t-card-detail">JavaFX · Android · MVVM · Clean Architecture · Zigbee</text><text x="24" y="996" class="t t-h">SIGNATURE PROJECTS</text><text x="24" y="1012" class="t t-sub">Top projects by stars</text><rect x="24" y="1022" width="760" height="52" rx="6" fill="#161b22" stroke="#30363d" stroke-width="1"/><rect x="24" y="1022" width="4" height="52" rx="2" fill="#58a6ff"/><text x="40" y="1040" class="t t-card-title">resume-generator</text><text x="768" y="1040" class="t t-value" text-anchor="end">★ 9</text><text x="40" y="1056" class="t t-card-detail">A data-driven CLI tool that transforms YAML/JSON/TOML resume data into polished PDFs usin…</text><rect x="24" y="1084" width="760" height="52" rx="6" fill="#161b22" stroke="#30363d" stroke-width="1"/><rect x="24" y="1084" width="4" height="52" rx="2" fill="#3fb950"/><text x="40" y="1102" class="t t-card-title">flappy-bird</text><text x="768" y="1102" class="t t-value" text-anchor="end">★ 4</text><text x="40" y="1118" class="t t-card-detail">A Flappy Bird clone built with JavaFX and Java 21, demonstrating data-oriented design pat…</text><rect x="24" y="1146" width="760" height="52" rx="6" fill="#161b22" stroke="#30363d" stroke-width="1"/><rect x="24" y="1146" width="4" height="52" rx="2" fill="#d29922"/><text x="40" y="1164" class="t t-card-title">chess-cli</text><text x="768" y="1164" class="t t-value" text-anchor="end">★ 3</text><text x="40" y="1180" class="t t-card-detail">A fully playable chess game in Python with object-oriented design and command-line interf…</text><rect x="24" y="1208" width="760" height="52" rx="6" fill="#161b22" stroke="#30363d" stroke-width="1"/><rect x="24" y="1208" width="4" height="52" rx="2" fill="#f85149"/><text x="40" y="1226" class="t t-card-title">lepus-classifier</text><text x="768" y="1226" class="t t-value" text-anchor="end">★ 2</text><text x="40" y="1242" class="t t-card-detail">A CNN research project exploring optimal image classification architectures for small dat…</text><rect x="24" y="1270" width="760" height="52" rx="6" fill="#161b22" stroke="#30363d" stroke-width="1"/><rect x="24" y="1270" width="4" height="52" rx="2" fill="#bc8cff"/><text x="40" y="1288" class="t t-card-title">dotfiles</text><text x="768" y="1288" class="t t-value" text-anchor="end">★ 2</text><text x="40" y="1304" class="t t-card-detail">Modern dotfiles with Chezmoi and Nix, providing one-command environment bootstrap for mac…</text><text x="24" y="1368" class="t t-h">CONTRIBUTION CALENDAR</text><text x="24" y="1384" class="t t-sub">677 contributions in the last year</text><text x="54" y="1405" class="t t-value">Feb</text><text x="80" y="1405" class="t t-value">Mar</text><text x="145" y="1405" class="t t-value">Apr</text><text x="197" y="1405" class="t t-value">May</text><text x="249" y="1405" class="t t-value">Jun</text><text x="314" y="1405" class="t t-value">Jul</text><text x="366" y="1405" class="t t-value">Aug</text><text x="431" y="1405" class="t t-value">Sep</text><text x="483" y="1405" class="t t-value">Oct</text><text x="535" y="1405" class="t t-value">Nov</text><text x="600" y="1405" class="t t-value">Dec</text><text x="652" y="1405" class="t t-value">Jan</text><text x="704" y="1405" class="t t-value">Feb</text><text x="24" y="1433" class="t t-value">Mon</text><text x="24" y="1459" class="t t-value">Wed</text><text x="24" y="1485" class="t t-value">Fri</text><rect x="54" y="1410" width="11" height="11" rx="2" fill="#ebedf0"/><rect x="54" y="1423" width="11" height="11" rx="2" fill="#ebedf0"/><rect x="54" y="1436" width="11" height="11" rx="2" fill="#ebedf0"/><rect x="67" y="1410" width="11" height="11" rx="2" fill="#ebedf0"/><rect x="67" y="1423" width="11" height="11" rx="2" fill="#ebedf0"/><rect x="67" y="1436" width="11" height="11" rx="2" fill="#ebedf0"/><rect x="67" y="1449" width="11" height="11" rx="2" fill="#ebedf0"/><rect x="67" y="1462" width="11" height="11" rx="2" fill="#9be9a8"/><rect x="67" y="1475" width="11" height="11" rx="2" fill="#ebedf0"/><rect x="67" y="1488" width="11" height="11" rx="2" fill="#ebedf0"/><rect x="80" y="1410" width="11" height="11" rx="2" fill="#ebedf0"/><rect x="80" y="1423" width="11" height="11" rx="2" fill="#ebedf0"/><rect x="80" y="1436" width="11" height="11" rx="2" fill="#ebedf0"/><rect x="80" y="1449" width="11" height="11" rx="2" fill="#ebedf0"/><rect x="80" y="1462" width="11" height="11" rx="2" fill="#ebedf0"/><rect x="80" y="1475" width="11" height="11" rx="2" fill="#ebedf0"/><rect x="80" y="1488" width="11" height="11" rx="2" fill="#ebedf0"/><rect x="93" y="1410" width="11" height="11" rx="2" fill="#ebedf0"/><rect x="93" y="1423" width="11" height="11" rx="2" fill="#ebedf0"/><rect x="93" y="1436" width="11" height="11" rx="2" fill="#ebedf0"/><rect x="93" y="1449" width="11" height="11" rx="2" fill="#ebedf0"/><rect x="93" y="1462" width="11" height="11" rx="2" fill="#ebedf0"/><rect x="93" y="1475" width="11" height="11" rx="2" fill="#ebedf0"/><rect x="93" y="1488" width="11" height="11" rx="2" fill="#ebedf0"/><rect x="106" y="1410" width="11" height="11" rx="2" fill="#ebedf0"/><rect x="106" y="1423" width="11" height="11" rx="2" fill="#ebedf0"/><rect x="106" y="1436" width="11" height="11" rx="2" fill="#ebedf0"/><rect x="106" y="1449" width="11" height="11" rx="2" fill="#ebedf0"/><rect x="106" y="1462" width="11" height="11" rx="2" fill="#ebedf0"/><rect x="106" y="1475" width="11" height="11" rx="2" fill="#ebedf0"/><rect x="106" y="1488" width="11" height="11" rx="2" fill="#ebedf0"/><rect x="119" y="1410" width="11" height="11" rx="2" fill="#ebedf0"/><rect x="119" y="1423" width="11" height="11" rx="2" fill="#ebedf0"/><rect x="119" y="1436" width="11" height="11" rx="2" fill="#ebedf0"/><rect x="119" y="1449" width="11" height="11" rx="2" fill="#ebedf0"/><rect x="119" y="1462" width="11" height="11" rx="2" fill="#ebedf0"/><rect x="119" y="1475" width="11" height="11" rx="2" fill="#ebedf0"/><rect x="119" y="1488" width="11" height="11" rx="2" fill="#ebedf0"/><rect x="132" y="1410" width="11" height="11" rx="2" fill="#ebedf0"/><rect x="132" y="1423" width="11" height="11" rx="2" fill="#ebedf0"/><rect x="132" y="1436" width="11" height="11" rx="2" fill="#ebedf0"/><rect x="132" y="1449" width="11" height="11" rx="2" fill="#ebedf0"/><rect x="132" y="1462" width="11" height="11" rx="2" fill="#ebedf0"/><rect x="132" y="1475" width="11" height="11" rx="2" fill="#ebedf0"/><rect x="132" y="1488" width="11" height="11" rx="2" fill="#ebedf0"/><rect x="145" y="1410" width="11" height="11" rx="2" fill="#ebedf0"/><rect x="145" y="1423" width="11" height="11" rx="2" fill="#ebedf0"/><rect x="145" y="1436" width="11" height="11" rx="2" fill="#ebedf0"/><rect x="145" y="1449" width="11" height="11" rx="2" fill="#ebedf0"/><rect x="145" y="1462" width="11" height="11" rx="2" fill="#ebedf0"/><rect x="145" y="1475" width="11" height="11" rx="2" fill="#ebedf0"/><rect x="145" y="1488" width="11" height="11" rx="2" fill="#ebedf0"/><rect x="158" y="1410" width="11" height="11" rx="2" fill="#ebedf0"/><rect x="158" y="1423" width="11" height="11" rx="2" fill="#ebedf0"/><rect x="158" y="1436" width="11" height="11" rx="2" fill="#ebedf0"/><rect x="158" y="1449" width="11" height="11" rx="2" fill="#ebedf0"/><rect x="158" y="1462" width="11" height="11" rx="2" fill="#ebedf0"/><rect x="158" y="1475" width="11" height="11" rx="2" fill="#ebedf0"/><rect x="158" y="1488" width="11" height="11" rx="2" fill="#ebedf0"/><rect x="171" y="1410" width="11" height="11" rx="2" fill="#ebedf0"/><rect x="171" y="1423" width="11" height="11" rx="2" fill="#ebedf0"/><rect x="171" y="1436" width="11" height="11" rx="2" fill="#ebedf0"/><rect x="171" y="1449" width="11" height="11" rx="2" fill="#ebedf0"/><rect x="171" y="1462" width="11" height="11" rx="2" fill="#ebedf0"/><rect x="171" y="1475" width="11" height="11" rx="2" fill="#ebedf0"/><rect x="171" y="1488" width="11" height="11" rx="2" fill="#ebedf0"/><rect x="184" y="1410" width="11" height="11" rx="2" fill="#ebedf0"/><rect x="184" y="1423" width="11" height="11" rx="2" fill="#ebedf0"/><rect x="184" y="1436" width="11" height="11" rx="2" fill="#ebedf0"/><rect x="184" y="1449" width="11" height="11" rx="2" fill="#ebedf0"/><rect x="184" y="1462" width="11" height="11" rx="2" fill="#ebedf0"/><rect x="184" y="1475" width="11" height="11" rx="2" fill="#ebedf0"/><rect x="184" y="1488" width="11" height="11" rx="2" fill="#ebedf0"/><rect x="197" y="1410" width="11" height="11" rx="2" fill="#ebedf0"/><rect x="197" y="1423" width="11" height="11" rx="2" fill="#ebedf0"/><rect x="197" y="1436" width="11" height="11" rx="2" fill="#ebedf0"/><rect x="197" y="1449" width="11" height="11" rx="2" fill="#ebedf0"/><rect x="197" y="1462" width="11" height="11" rx="2" fill="#ebedf0"/><rect x="197" y="1475" width="11" height="11" rx="2" fill="#ebedf0"/><rect x="197" y="1488" width="11" height="11" rx="2" fill="#ebedf0"/><rect x="210" y="1410" width="11" height="11" rx="2" fill="#ebedf0"/><rect x="210" y="1423" width="11" height="11" rx="2" fill="#ebedf0"/><rect x="210" y="1436" width="11" height="11" rx="2" fill="#ebedf0"/><rect x="210" y="1449" width="11" height="11" rx="2" fill="#ebedf0"/><rect x="210" y="1462" width="11" height="11" rx="2" fill="#9be9a8"/><rect x="210" y="1475" width="11" height="11" rx="2" fill="#ebedf0"/><rect x="210" y="1488" width="11" height="11" rx="2" fill="#ebedf0"/><rect x="223" y="1410" width="11" height="11" rx="2" fill="#9be9a8"/><rect x="223" y="1423" width="11" height="11" rx="2" fill="#ebedf0"/><rect x="223" y="1436" width="11" height="11" rx="2" fill="#ebedf0"/><rect x="223" y="1449" width="11" height="11" rx="2" fill="#ebedf0"/><rect x="223" y="1462" width="11" height="11" rx="2" fill="#ebedf0"/><rect x="223" y="1475" width="11" height="11" rx="2" fill="#ebedf0"/><rect x="223" y="1488" width="11" height="11" rx="2" fill="#ebedf0"/><rect x="236" y="1410" width="11" height="11" rx="2" fill="#ebedf0"/><rect x="236" y="1423" width="11" height="11" rx="2" fill="#ebedf0"/><rect x="236" y="1436" width="11" height="11" rx="2" fill="#ebedf0"/><rect x="236" y="1449" width="11" height="11" rx="2" fill="#ebedf0"/><rect x="236" y="1462" width="11" height="11" rx="2" fill="#ebedf0"/><rect x="236" y="1475" width="11" height="11" rx="2" fill="#ebedf0"/><rect x="236" y="1488" width="11" height="11" rx="2" fill="#ebedf0"/><rect x="249" y="1410" width="11" height="11" rx="2" fill="#ebedf0"/><rect x="249" y="1423" width="11" height="11" rx="2" fill="#ebedf0"/><rect x="249" y="1436" width="11" height="11" rx="2" fill="#ebedf0"/><rect x="249" y="1449" width="11" height="11" rx="2" fill="#ebedf0"/><rect x="249" y="1462" width="11" height="11" rx="2" fill="#ebedf0"/><rect x="249" y="1475" width="11" height="11" rx="2" fill="#ebedf0"/><rect x="249" y="1488" width="11" height="11" rx="2" fill="#ebedf0"/><rect x="262" y="1410" width="11" height="11" rx="2" fill="#ebedf0"/><rect x="262" y="1423" width="11" height="11" rx="2" fill="#ebedf0"/><rect x="262" y="1436" width="11" height="11" rx="2" fill="#ebedf0"/><rect x="262" y="1449" width="11" height="11" rx="2" fill="#ebedf0"/><rect x="262" y="1462" width="11" height="11" rx="2" fill="#ebedf0"/><rect x="262" y="1475" width="11" height="11" rx="2" fill="#ebedf0"/><rect x="262" y="1488" width="11" height="11" rx="2" fill="#ebedf0"/><rect x="275" y="1410" width="11" height="11" rx="2" fill="#ebedf0"/><rect x="275" y="1423" width="11" height="11" rx="2" fill="#ebedf0"/><rect x="275" y="1436" width="11" height="11" rx="2" fill="#ebedf0"/><rect x="275" y="1449" width="11" height="11" rx="2" fill="#ebedf0"/><rect x="275" y="1462" width="11" height="11" rx="2" fill="#ebedf0"/><rect x="275" y="1475" width="11" height="11" rx="2" fill="#ebedf0"/><rect x="275" y="1488" width="11" height="11" rx="2" fill="#ebedf0"/><rect x="288" y="1410" width="11" height="11" rx="2" fill="#ebedf0"/><rect x="288" y="1423" width="11" height="11" rx="2" fill="#ebedf0"/><rect x="288" y="1436" width="11" height="11" rx="2" fill="#ebedf0"/><rect x="288" y="1449" width="11" height="11" rx="2" fill="#ebedf0"/><rect x="288" y="1462" width="11" height="11" rx="2" fill="#ebedf0"/><rect x="288" y="1475" width="11" height="11" rx="2" fill="#ebedf0"/><rect x="288" y="1488" width="11" height="11" rx="2" fill="#9be9a8"/><rect x="301" y="1410" width="11" height="11" rx="2" fill="#ebedf0"/><rect x="301" y="1423" width="11" height="11" rx="2" fill="#ebedf0"/><rect x="301" y="1436" width="11" height="11" rx="2" fill="#ebedf0"/><rect x="301" y="1449" width="11" height="11" rx="2" fill="#9be9a8"/><rect x="301" y="1462" width="11" height="11" rx="2" fill="#ebedf0"/><rect x="301" y="1475" width="11" height="11" rx="2" fill="#ebedf0"/><rect x="301" y="1488" width="11" height="11" rx="2" fill="#ebedf0"/><rect x="314" y="1410" width="11" height="11" rx="2" fill="#ebedf0"/><rect x="314" y="1423" width="11" height="11" rx="2" fill="#ebedf0"/><rect x="314" y="1436" width="11" height="11" rx="2" fill="#ebedf0"/><rect x="314" y="1449" width="11" height="11" rx="2" fill="#ebedf0"/><rect x="314" y="1462" width="11" height="11" rx="2" fill="#9be9a8"/><rect x="314" y="1475" width="11" height="11" rx="2" fill="#ebedf0"/><rect x="314" y="1488" width="11" height="11" rx="2" fill="#ebedf0"/><rect x="327" y="1410" width="11" height="11" rx="2" fill="#ebedf0"/><rect x="327" y="1423" width="11" height="11" rx="2" fill="#ebedf0"/><rect x="327" y="1436" width="11" height="11" rx="2" fill="#ebedf0"/><rect x="327" y="1449" width="11" height="11" rx="2" fill="#ebedf0"/><rect x="327" y="1462" width="11" height="11" rx="2" fill="#ebedf0"/><rect x="327" y="1475" width="11" height="11" rx="2" fill="#ebedf0"/><rect x="327" y="1488" width="11" height="11" rx="2" fill="#ebedf0"/><rect x="340" y="1410" width="11" height="11" rx="2" fill="#ebedf0"/><rect x="340" y="1423" width="11" height="11" rx="2" fill="#ebedf0"/><rect x="340" y="1436" width="11" height="11" rx="2" fill="#ebedf0"/><rect x="340" y="1449" width="11" height="11" rx="2" fill="#ebedf0"/><rect x="340" y="1462" width="11" height="11" rx="2" fill="#ebedf0"/><rect x="340" y="1475" width="11" height="11" rx="2" fill="#ebedf0"/><rect x="340" y="1488" width="11" height="11" rx="2" fill="#ebedf0"/><rect x="353" y="1410" width="11" height="11" rx="2" fill="#ebedf0"/><rect x="353" y="1423" width="11" height="11" rx="2" fill="#9be9a8"/><rect x="353" y="1436" width="11" height="11" rx="2" fill="#ebedf0"/><rect x="353" y="1449" width="11" height="11" rx="2" fill="#ebedf0"/><rect x="353" y="1462" width="11" height="11" rx="2" fill="#ebedf0"/><rect x="353" y="1475" width="11" height="11" rx="2" fill="#ebedf0"/><rect x="353" y="1488" width="11" height="11" rx="2" fill="#ebedf0"/><rect x="366" y="1410" width="11" height="11" rx="2" fill="#ebedf0"/><rect x="366" y="1423" width="11" height="11" rx="2" fill="#ebedf0"/><rect x="366" y="1436" width="11" height="11" rx="2" fill="#ebedf0"/><rect x="366" y="1449" width="11" height="11" rx="2" fill="#ebedf0"/><rect x="366" y="1462" width="11" height="11" rx="2" fill="#ebedf0"/><rect x="366" y="1475" width="11" height="11" rx="2" fill="#ebedf0"/><rect x="366" y="1488" width="11" height="11" rx="2" fill="#ebedf0"/><rect x="379" y="1410" width="11" height="11" rx="2" fill="#ebedf0"/><rect x="379" y="1423" width="11" height="11" rx="2" fill="#ebedf0"/><rect x="379" y="1436" width="11" height="11" rx="2" fill="#ebedf0"/><rect x="379" y="1449" width="11" height="11" rx="2" fill="#ebedf0"/><rect x="379" y="1462" width="11" height="11" rx="2" fill="#ebedf0"/><rect x="379" y="1475" width="11" height="11" rx="2" fill="#ebedf0"/><rect x="379" y="1488" width="11" height="11" rx="2" fill="#ebedf0"/><rect x="392" y="1410" width="11" height="11" rx="2" fill="#ebedf0"/><rect x="392" y="1423" width="11" height="11" rx="2" fill="#ebedf0"/><rect x="392" y="1436" width="11" height="11" rx="2" fill="#ebedf0"/><rect x="392" y="1449" width="11" height="11" rx="2" fill="#ebedf0"/><rect x="392" y="1462" width="11" height="11" rx="2" fill="#ebedf0"/><rect x="392" y="1475" width="11" height="11" rx="2" fill="#ebedf0"/><rect x="392" y="1488" width="11" height="11" rx="2" fill="#ebedf0"/><rect x="405" y="1410" width="11" height="11" rx="2" fill="#ebedf0"/><rect x="405" y="1423" width="11" height="11" rx="2" fill="#ebedf0"/><rect x="405" y="1436" width="11" height="11" rx="2" fill="#ebedf0"/><rect x="405" y="1449" width="11" height="11" rx="2" fill="#ebedf0"/><rect x="405" y="1462" width="11" height="11" rx="2" fill="#ebedf0"/><rect x="405" y="1475" width="11" height="11" rx="2" fill="#ebedf0"/><rect x="405" y="1488" width="11" height="11" rx="2" fill="#ebedf0"/><rect x="418" y="1410" width="11" height="11" rx="2" fill="#ebedf0"/><rect x="418" y="1423" width="11" height="11" rx="2" fill="#ebedf0"/><rect x="418" y="1436" width="11" height="11" rx="2" fill="#ebedf0"/><rect x="418" y="1449" width="11" height="11" rx="2" fill="#ebedf0"/><rect x="418" y="1462" width="11" height="11" rx="2" fill="#ebedf0"/><rect x="418" y="1475" width="11" height="11" rx="2" fill="#ebedf0"/><rect x="418" y="1488" width="11" height="11" rx="2" fill="#ebedf0"/><rect x="431" y="1410" width="11" height="11" rx="2" fill="#ebedf0"/><rect x="431" y="1423" width="11" height="11" rx="2" fill="#ebedf0"/><rect x="431" y="1436" width="11" height="11" rx="2" fill="#ebedf0"/><rect x="431" y="1449" width="11" height="11" rx="2" fill="#ebedf0"/><rect x="431" y="1462" width="11" height="11" rx="2" fill="#9be9a8"/><rect x="431" y="1475" width="11" height="11" rx="2" fill="#30a14e"/><rect x="431" y="1488" width="11" height="11" rx="2" fill="#9be9a8"/><rect x="444" y="1410" width="11" height="11" rx="2" fill="#9be9a8"/><rect x="444" y="1423" width="11" height="11" rx="2" fill="#9be9a8"/><rect x="444" y="1436" width="11" height="11" rx="2" fill="#ebedf0"/><rect x="444" y="1449" width="11" height="11" rx="2" fill="#ebedf0"/><rect x="444" y="1462" width="11" height="11" rx="2" fill="#ebedf0"/><rect x="444" y="1475" width="11" height="11" rx="2" fill="#ebedf0"/><rect x="444" y="1488" width="11" height="11" rx="2" fill="#ebedf0"/><rect x="457" y="1410" width="11" height="11" rx="2" fill="#ebedf0"/><rect x="457" y="1423" width="11" height="11" rx="2" fill="#ebedf0"/><rect x="457" y="1436" width="11" height="11" rx="2" fill="#ebedf0"/><rect x="457" y="1449" width="11" height="11" rx="2" fill="#ebedf0"/><rect x="457" y="1462" width="11" height="11" rx="2" fill="#ebedf0"/><rect x="457" y="1475" width="11" height="11" rx="2" fill="#ebedf0"/><rect x="457" y="1488" width="11" height="11" rx="2" fill="#ebedf0"/><rect x="470" y="1410" width="11" height="11" rx="2" fill="#ebedf0"/><rect x="470" y="1423" width="11" height="11" rx="2" fill="#ebedf0"/><rect x="470" y="1436" width="11" height="11" rx="2" fill="#ebedf0"/><rect x="470" y="1449" width="11" height="11" rx="2" fill="#ebedf0"/><rect x="470" y="1462" width="11" height="11" rx="2" fill="#ebedf0"/><rect x="470" y="1475" width="11" height="11" rx="2" fill="#ebedf0"/><rect x="470" y="1488" width="11" height="11" rx="2" fill="#ebedf0"/><rect x="483" y="1410" width="11" height="11" rx="2" fill="#ebedf0"/><rect x="483" y="1423" width="11" height="11" rx="2" fill="#ebedf0"/><rect x="483" y="1436" width="11" height="11" rx="2" fill="#ebedf0"/><rect x="483" y="1449" width="11" height="11" rx="2" fill="#ebedf0"/><rect x="483" y="1462" width="11" height="11" rx="2" fill="#ebedf0"/><rect x="483" y="1475" width="11" height="11" rx="2" fill="#ebedf0"/><rect x="483" y="1488" width="11" height="11" rx="2" fill="#ebedf0"/><rect x="496" y="1410" width="11" height="11" rx="2" fill="#ebedf0"/><rect x="496" y="1423" width="11" height="11" rx="2" fill="#ebedf0"/><rect x="496" y="1436" width="11" height="11" rx="2" fill="#ebedf0"/><rect x="496" y="1449" width="11" height="11" rx="2" fill="#ebedf0"/><rect x="496" y="1462" width="11" height="11" rx="2" fill="#ebedf0"/><rect x="496" y="1475" width="11" height="11" rx="2" fill="#ebedf0"/><rect x="496" y="1488" width="11" height="11" rx="2" fill="#ebedf0"/><rect x="509" y="1410" width="11" height="11" rx="2" fill="#ebedf0"/><rect x="509" y="1423" width="11" height="11" rx="2" fill="#ebedf0"/><rect x="509" y="1436" width="11" height="11" rx="2" fill="#ebedf0"/><rect x="509" y="1449" width="11" height="11" rx="2" fill="#ebedf0"/><rect x="509" y="1462" width="11" height="11" rx="2" fill="#ebedf0"/><rect x="509" y="1475" width="11" height="11" rx="2" fill="#ebedf0"/><rect x="509" y="1488" width="11" height="11" rx="2" fill="#9be9a8"/><rect x="522" y="1410" width="11" height="11" rx="2" fill="#ebedf0"/><rect x="522" y="1423" width="11" height="11" rx="2" fill="#ebedf0"/><rect x="522" y="1436" width="11" height="11" rx="2" fill="#ebedf0"/><rect x="522" y="1449" width="11" height="11" rx="2" fill="#ebedf0"/><rect x="522" y="1462" width="11" height="11" rx="2" fill="#ebedf0"/><rect x="522" y="1475" width="11" height="11" rx="2" fill="#ebedf0"/><rect x="522" y="1488" width="11" height="11" rx="2" fill="#ebedf0"/><rect x="535" y="1410" width="11" height="11" rx="2" fill="#ebedf0"/><rect x="535" y="1423" width="11" height="11" rx="2" fill="#ebedf0"/><rect x="535" y="1436" width="11" height="11" rx="2" fill="#ebedf0"/><rect x="535" y="1449" width="11" height="11" rx="2" fill="#ebedf0"/><rect x="535" y="1462" width="11" height="11" rx="2" fill="#ebedf0"/><rect x="535" y="1475" width="11" height="11" rx="2" fill="#9be9a8"/><rect x="535" y="1488" width="11" height="11" rx="2" fill="#9be9a8"/><rect x="548" y="1410" width="11" height="11" rx="2" fill="#9be9a8"/><rect x="548" y="1423" width="11" height="11" rx="2" fill="#9be9a8"/><rect x="548" y="1436" width="11" height="11" rx="2" fill="#ebedf0"/><rect x="548" y="1449" width="11" height="11" rx="2" fill="#9be9a8"/><rect x="548" y="1462" width="11" height="11" rx="2" fill="#ebedf0"/><rect x="548" y="1475" width="11" height="11" rx="2" fill="#ebedf0"/><rect x="548" y="1488" width="11" height="11" rx="2" fill="#ebedf0"/><rect x="561" y="1410" width="11" height="11" rx="2" fill="#ebedf0"/><rect x="561" y="1423" width="11" height="11" rx="2" fill="#ebedf0"/><rect x="561" y="1436" width="11" height="11" rx="2" fill="#ebedf0"/><rect x="561" y="1449" width="11" height="11" rx="2" fill="#ebedf0"/><rect x="561" y="1462" width="11" height="11" rx="2" fill="#ebedf0"/><rect x="561" y="1475" width="11" height="11" rx="2" fill="#ebedf0"/><rect x="561" y="1488" width="11" height="11" rx="2" fill="#ebedf0"/><rect x="574" y="1410" width="11" height="11" rx="2" fill="#ebedf0"/><rect x="574" y="1423" width="11" height="11" rx="2" fill="#9be9a8"/><rect x="574" y="1436" width="11" height="11" rx="2" fill="#9be9a8"/><rect x="574" y="1449" width="11" height="11" rx="2" fill="#9be9a8"/><rect x="574" y="1462" width="11" height="11" rx="2" fill="#9be9a8"/><rect x="574" y="1475" width="11" height="11" rx="2" fill="#9be9a8"/><rect x="574" y="1488" width="11" height="11" rx="2" fill="#ebedf0"/><rect x="587" y="1410" width="11" height="11" rx="2" fill="#ebedf0"/><rect x="587" y="1423" width="11" height="11" rx="2" fill="#ebedf0"/><rect x="587" y="1436" width="11" height="11" rx="2" fill="#ebedf0"/><rect x="587" y="1449" width="11" height="11" rx="2" fill="#9be9a8"/><rect x="587" y="1462" width="11" height="11" rx="2" fill="#ebedf0"/><rect x="587" y="1475" width="11" height="11" rx="2" fill="#ebedf0"/><rect x="587" y="1488" width="11" height="11" rx="2" fill="#ebedf0"/><rect x="600" y="1410" width="11" height="11" rx="2" fill="#ebedf0"/><rect x="600" y="1423" width="11" height="11" rx="2" fill="#9be9a8"/><rect x="600" y="1436" width="11" height="11" rx="2" fill="#ebedf0"/><rect x="600" y="1449" width="11" height="11" rx="2" fill="#ebedf0"/><rect x="600" y="1462" width="11" height="11" rx="2" fill="#9be9a8"/><rect x="600" y="1475" width="11" height="11" rx="2" fill="#ebedf0"/><rect x="600" y="1488" width="11" height="11" rx="2" fill="#ebedf0"/><rect x="613" y="1410" width="11" height="11" rx="2" fill="#ebedf0"/><rect x="613" y="1423" width="11" height="11" rx="2" fill="#ebedf0"/><rect x="613" y="1436" width="11" height="11" rx="2" fill="#ebedf0"/><rect x="613" y="1449" width="11" height="11" rx="2" fill="#9be9a8"/><rect x="613" y="1462" width="11" height="11" rx="2" fill="#ebedf0"/><rect x="613" y="1475" width="11" height="11" rx="2" fill="#ebedf0"/><rect x="613" y="1488" width="11" height="11" rx="2" fill="#ebedf0"/><rect x="626" y="1410" width="11" height="11" rx="2" fill="#ebedf0"/><rect x="626" y="1423" width="11" height="11" rx="2" fill="#ebedf0"/><rect x="626" y="1436" width="11" height="11" rx="2" fill="#ebedf0"/><rect x="626" y="1449" width="11" height="11" rx="2" fill="#ebedf0"/><rect x="626" y="1462" width="11" height="11" rx="2" fill="#ebedf0"/><rect x="626" y="1475" width="11" height="11" rx="2" fill="#ebedf0"/><rect x="626" y="1488" width="11" height="11" rx="2" fill="#ebedf0"/><rect x="639" y="1410" width="11" height="11" rx="2" fill="#ebedf0"/><rect x="639" y="1423" width="11" height="11" rx="2" fill="#ebedf0"/><rect x="639" y="1436" width="11" height="11" rx="2" fill="#ebedf0"/><rect x="639" y="1449" width="11" height="11" rx="2" fill="#ebedf0"/><rect x="639" y="1462" width="11" height="11" rx="2" fill="#ebedf0"/><rect x="639" y="1475" width="11" height="11" rx="2" fill="#ebedf0"/><rect x="639" y="1488" width="11" height="11" rx="2" fill="#ebedf0"/><rect x="652" y="1410" width="11" height="11" rx="2" fill="#ebedf0"/><rect x="652" y="1423" width="11" height="11" rx="2" fill="#ebedf0"/><rect x="652" y="1436" width="11" height="11" rx="2" fill="#9be9a8"/><rect x="652" y="1449" width="11" height="11" rx="2" fill="#9be9a8"/><rect x="652" y="1462" width="11" height="11" rx="2" fill="#9be9a8"/><rect x="652" y="1475" width="11" height="11" rx="2" fill="#9be9a8"/><rect x="652" y="1488" width="11" height="11" rx="2" fill="#ebedf0"/><rect x="665" y="1410" width="11" height="11" rx="2" fill="#ebedf0"/><rect x="665" y="1423" width="11" height="11" rx="2" fill="#ebedf0"/><rect x="665" y="1436" width="11" height="11" rx="2" fill="#9be9a8"/><rect x="665" y="1449" width="11" height="11" rx="2" fill="#9be9a8"/><rect x="665" y="1462" width="11" height="11" rx="2" fill="#9be9a8"/><rect x="665" y="1475" width="11" height="11" rx="2" fill="#ebedf0"/><rect x="665" y="1488" width="11" height="11" rx="2" fill="#9be9a8"/><rect x="678" y="1410" width="11" height="11" rx="2" fill="#ebedf0"/><rect x="678" y="1423" width="11" height="11" rx="2" fill="#40c463"/><rect x="678" y="1436" width="11" height="11" rx="2" fill="#9be9a8"/><rect x="678" y="1449" width="11" height="11" rx="2" fill="#9be9a8"/><rect x="678" y="1462" width="11" height="11" rx="2" fill="#9be9a8"/><rect x="678" y="1475" width="11" height="11" rx="2" fill="#9be9a8"/><rect x="678" y="1488" width="11" height="11" rx="2" fill="#9be9a8"/><rect x="691" y="1410" width="11" height="11" rx="2" fill="#ebedf0"/><rect x="691" y="1423" width="11" height="11" rx="2" fill="#9be9a8"/><rect x="691" y="1436" width="11" height="11" rx="2" fill="#9be9a8"/><rect x="691" y="1449" width="11" height="11" rx="2" fill="#9be9a8"/><rect x="691" y="1462" width="11" height="11" rx="2" fill="#9be9a8"/><rect x="691" y="1475" width="11" height="11" rx="2" fill="#ebedf0"/><rect x="691" y="1488" width="11" height="11" rx="2" fill="#216e39"/><rect x="704" y="1410" width="11" height="11" rx="2" fill="#30a14e"/><rect x="704" y="1423" width="11" height="11" rx="2" fill="#9be9a8"/><rect x="704" y="1436" width="11" height="11" rx="2" fill="#9be9a8"/><rect x="704" y="1449" width="11" height="11" rx="2" fill="#40c463"/><rect x="704" y="1462" width="11" height="11" rx="2" fill="#9be9a8"/><rect x="704" y="1475" width="11" height="11" rx="2" fill="#9be9a8"/><rect x="704" y="1488" width="11" height="11" rx="2" fill="#40c463"/><rect x="717" y="1410" width="11" height="11" rx="2" fill="#216e39"/><rect x="717" y="1423" width="11" height="11" rx="2" fill="#40c463"/><rect x="717" y="1436" width="11" height="11" rx="2" fill="#216e39"/><rect x="717" y="1449" width="11" height="11" rx="2" fill="#216e39"/><rect x="717" y="1462" width="11" height="11" rx="2" fill="#30a14e"/><rect x="717" y="1475" width="11" height="11" rx="2" fill="#216e39"/><rect x="717" y="1488" width="11" height="11" rx="2" fill="#9be9a8"/><rect x="730" y="1410" width="11" height="11" rx="2" fill="#ebedf0"/><rect x="730" y="1423" width="11" height="11" rx="2" fill="#ebedf0"/><rect x="730" y="1436" width="11" height="11" rx="2" fill="#40c463"/><rect x="730" y="1449" width="11" height="11" rx="2" fill="#9be9a8"/><rect x="730" y="1462" width="11" height="11" rx="2" fill="#ebedf0"/><rect x="730" y="1475" width="11" height="11" rx="2" fill="#ebedf0"/><text x="24" y="1547" class="t t-h">OPEN SOURCE CONTRIBUTIONS</text><text x="24" y="1563" class="t t-sub">External repositories contributed to (all time)</text><rect x="24" y="1573" width="760" height="44" rx="6" fill="#161b22" stroke="#30363d" stroke-width="1"/><rect x="24" y="1573" width="4" height="44" rx="2" fill="#58a6ff"/><text x="40" y="1591" class="t t-card-title">MathisWellmann/gym-rs</text><text x="40" y="1607" class="t t-card-detail">★ 125 · Rust</text><rect x="24" y="1625" width="760" height="44" rx="6" fill="#161b22" stroke="#30363d" stroke-width="1"/><rect x="24" y="1625" width="4" height="44" rx="2" fill="#3fb950"/><text x="40" y="1643" class="t t-card-title">getzep/graphiti</text><text x="40" y="1659" class="t t-card-detail">★ 22,934 · Python</text></svg>