<svg xmlns="http://www.w3.org/2000/svg" width="808" height="1780" viewBox="0 0 808 1780"><defs><style>
  .t { font-family: -apple-system,BlinkMacSystemFont,Segoe UI,Helvetica,Arial,sans-serif; }
  .t-h { font-size: 13px; fill: #c9d1d9; letter-spacing: 1.5px; font-weight: 600; }
  .t-sub { font-size: 11px; fill: #6e7681; }
  .t-label { font-size: 12px; fill: #8b949e; }
  .t-value { font-size: 11px; fill: #6e7681; }
  .t-subhdr { font-size: 11px; fill: #8b949e; letter-spacing: 1px; font-weight: 600; }
  .t-stat-label { font-size: 10px; fill: #8b949e; font-weight: 600; }
  .t-stat-value { font-size: 22px; font-weight: 700; }
  .t-card-title { font-size: 12px; fill: #58a6ff; font-weight: 700; }
  .t-card-detail { font-size: 11px; fill: #8b949e; }
  .t-pill { font-size: 11px; font-weight: 600; }
  .t-bullet { font-size: 12px; fill: #c9d1d9; }
</style></defs><rect width="808" height="1780" rx="12" fill="#0d1117"/><text x="24" y="40" class="t t-h">WORK DOMAINS</text><text x="24" y="56" class="t t-sub">Extracted from project READMEs via AI analysis</text><rect x="24" y="66" width="98" height="36" rx="18" fill="#58a6ff" fill-opacity="0.15" stroke="#58a6ff" stroke-opacity="0.4" stroke-width="1"/><text x="73" y="88.66666666666667" fill="#58a6ff" font-size="14" class="t t-pill" text-anchor="middle">CLI Tools</text><rect x="132" y="66" width="105" height="36" rx="18" fill="#3fb950" fill-opacity="0.15" stroke="#3fb950" stroke-opacity="0.4" stroke-width="1"/><text x="184.5" y="88.66666666666667" fill="#3fb950" font-size="14" class="t t-pill" text-anchor="middle">Automation</text><rect x="247" y="66" width="75" height="36" rx="18" fill="#d29922" fill-opacity="0.15" stroke="#d29922" stroke-opacity="0.4" stroke-width="1"/><text x="284.5" y="88.66666666666667" fill="#d29922" font-size="14" class="t t-pill" text-anchor="middle">DevOps</text><rect x="332" y="66" width="143" height="32" rx="16" fill="#f85149" fill-opacity="0.15" stroke="#f85149" stroke-opacity="0.4" stroke-width="1"/><text x="403.5" y="86.33333333333333" fill="#f85149" font-size="13" class="t t-pill" text-anchor="middle">Machine Learning</text><rect x="485" y="66" width="86" height="32" rx="16" fill="#bc8cff" fill-opacity="0.15" stroke="#bc8cff" stroke-opacity="0.4" stroke-width="1"/><text x="528" y="86.33333333333333" fill="#bc8cff" font-size="13" class="t t-pill" text-anchor="middle">Web Apps</text><rect x="581" y="66" width="77" height="28" rx="14" fill="#39d2c0" fill-opacity="0.15" stroke="#39d2c0" stroke-opacity="0.4" stroke-width="1"/><text x="619.5" y="83.66666666666667" fill="#39d2c0" font-size="11" class="t t-pill" text-anchor="middle">Game Dev</text><rect x="24" y="104" width="131" height="28" rx="14" fill="#db61a2" fill-opacity="0.15" stroke="#db61a2" stroke-opacity="0.4" stroke-width="1"/><text x="89.5" y="121.66666666666667" fill="#db61a2" font-size="11" class="t t-pill" text-anchor="middle">Personal Projects</text><rect x="165" y="104" width="88" height="24" rx="12" fill="#79c0ff" fill-opacity="0.15" stroke="#79c0ff" stroke-opacity="0.4" stroke-width="1"/><text x="209" y="119" fill="#79c0ff" font-size="9" class="t t-pill" text-anchor="middle">Desktop Apps</text><rect x="263" y="104" width="103" height="24" rx="12" fill="#58a6ff" fill-opacity="0.15" stroke="#58a6ff" stroke-opacity="0.4" stroke-width="1"/><text x="314.5" y="119" fill="#58a6ff" font-size="9" class="t t-pill" text-anchor="middle">Computer Vision</text><rect x="376" y="104" width="88" height="24" rx="12" fill="#3fb950" fill-opacity="0.15" stroke="#3fb950" stroke-opacity="0.4" stroke-width="1"/><text x="420" y="119" fill="#3fb950" font-size="9" class="t t-pill" text-anchor="middle">Data Science</text><rect x="474" y="104" width="103" height="24" rx="12" fill="#d29922" fill-opacity="0.15" stroke="#d29922" stroke-opacity="0.4" stroke-width="1"/><text x="525.5" y="119" fill="#d29922" font-size="9" class="t t-pill" text-anchor="middle">API Development</text><rect x="587" y="104" width="73" height="24" rx="12" fill="#f85149" fill-opacity="0.15" stroke="#f85149" stroke-opacity="0.4" stroke-width="1"/><text x="623.5" y="119" fill="#f85149" font-size="9" class="t t-pill" text-anchor="middle">Education</text><rect x="670" y="104" width="43" height="24" rx="12" fill="#bc8cff" fill-opacity="0.15" stroke="#bc8cff" stroke-opacity="0.4" stroke-width="1"/><text x="691.5" y="119" fill="#bc8cff" font-size="9" class="t t-pill" text-anchor="middle">IoT</text><rect x="24" y="138" width="68" height="24" rx="12" fill="#39d2c0" fill-opacity="0.15" stroke="#39d2c0" stroke-opacity="0.4" stroke-width="1"/><text x="58" y="153" fill="#39d2c0" font-size="9" class="t t-pill" text-anchor="middle">Research</text><rect x="102" y="138" width="83" height="24" rx="12" fill="#db61a2" fill-opacity="0.15" stroke="#db61a2" stroke-opacity="0.4" stroke-width="1"/><text x="143.5" y="153" fill="#db61a2" font-size="9" class="t t-pill" text-anchor="middle">Mobile Apps</text><text x="24" y="212" class="t t-h">LANGUAGES</text><text x="24" y="228" class="t t-sub">By bytes of code across all public repos</text><circle cx="114" cy="328" r="70" fill="none" stroke="#3178c6" stroke-width="28" stroke-dasharray="87.08494835750906 352.73802314506196" stroke-dashoffset="0" transform="rotate(-90 114 328)" opacity="0.85"/><circle cx="114" cy="328" r="70" fill="none" stroke="#dea584" stroke-width="28" stroke-dasharray="81.80707269947823 358.0158988030928" stroke-dashoffset="-87.08494835750906" transform="rotate(-90 114 328)" opacity="0.85"/><circle cx="114" cy="328" r="70" fill="none" stroke="#00ADD8" stroke-width="28" stroke-dasharray="76.96902001294993 362.85395148962107" stroke-dashoffset="-168.8920210569873" transform="rotate(-90 114 328)" opacity="0.85"/><circle cx="114" cy="328" r="70" fill="none" stroke="#b07219" stroke-width="28" stroke-dasharray="69.05220652590366 370.77076497666735" stroke-dashoffset="-245.86104106993722" transform="rotate(-90 114 328)" opacity="0.85"/><circle cx="114" cy="328" r="70" fill="none" stroke="#3572A5" stroke-width="28" stroke-dasharray="37.384952577718536 402.4380189248525" stroke-dashoffset="-314.91324759584086" transform="rotate(-90 114 328)" opacity="0.85"/><circle cx="114" cy="328" r="70" fill="none" stroke="#89e051" stroke-width="28" stroke-dasharray="29.907962062174832 409.9150094403962" stroke-dashoffset="-352.2982001735594" transform="rotate(-90 114 328)" opacity="0.85"/><circle cx="114" cy="328" r="70" fill="none" stroke="#000080" stroke-width="28" stroke-dasharray="11.435397259066848 428.38757424350416" stroke-dashoffset="-382.2061622357342" transform="rotate(-90 114 328)" opacity="0.85"/><circle cx="114" cy="328" r="70" fill="none" stroke="#3D6117" stroke-width="28" stroke-dasharray="7.916813487046279 431.90615801552474" stroke-dashoffset="-393.6415594948011" transform="rotate(-90 114 328)" opacity="0.85"/><circle cx="114" cy="328" r="70" fill="none" stroke="#fcb32c" stroke-width="28" stroke-dasharray="7.916813487046279 431.90615801552474" stroke-dashoffset="-401.55837298184736" transform="rotate(-90 114 328)" opacity="0.85"/><circle cx="114" cy="328" r="70" fill="none" stroke="#663399" stroke-width="28" stroke-dasharray="7.037167544041137 432.78580395852987" stroke-dashoffset="-409.47518646889364" transform="rotate(-90 114 328)" opacity="0.85"/><text x="114" y="333" class="t" fill="#c9d1d9" font-size="14" font-weight="700" text-anchor="middle">10</text><text x="114" y="348" class="t" fill="#6e7681" font-size="10" text-anchor="middle">languages</text><rect x="244" y="248" width="12" height="12" rx="2" fill="#3178c6" opacity="0.85"/><text x="264" y="258" class="t t-label">TypeScript</text><text x="444" y="258" class="t t-value" text-anchor="end">19.8%</text><g transform="translate(494, 242) scale(0.7)"><path d="M8 16c3.314 0 6-2 6-5.5 0-1.44-.714-2.89-1.166-3.778C12.024 5.143 10.9 3.5 8 0 5.1 3.5 3.976 5.143 3.166 6.722 2.714 7.61 2 9.06 2 10.5 2 14 4.686 16 8 16m0-1c-2.21 0-4-1.343-4-3.5 0-.93.258-1.695.672-2.528C5.2 7.865 6.1 6.5 8 4c1.9 2.5 2.8 3.865 3.328 4.972.414.833.672 1.598.672 2.528 0 2.157-1.79 3.5-4 3.5" fill="#f0883e"/></g><rect x="244" y="272" width="12" height="12" rx="2" fill="#dea584" opacity="0.85"/><text x="264" y="282" class="t t-label">Rust</text><text x="444" y="282" class="t t-value" text-anchor="end">18.6%</text><g transform="translate(494, 266) scale(0.7)"><path d="M8 16c3.314 0 6-2 6-5.5 0-1.44-.714-2.89-1.166-3.778C12.024 5.143 10.9 3.5 8 0 5.1 3.5 3.976 5.143 3.166 6.722 2.714 7.61 2 9.06 2 10.5 2 14 4.686 16 8 16m0-1c-2.21 0-4-1.343-4-3.5 0-.93.258-1.695.672-2.528C5.2 7.865 6.1 6.5 8 4c1.9 2.5 2.8 3.865 3.328 4.972.414.833.672 1.598.672 2.528 0 2.157-1.79 3.5-4 3.5" fill="#f0883e"/></g><rect x="244" y="296" width="12" height="12" rx="2" fill="#00ADD8" opacity="0.85"/><text x="264" y="306" class="t t-label">Go</text><text x="444" y="306" class="t t-value" text-anchor="end">17.5%</text><g transform="translate(494, 290) scale(0.7)"><path d="M8 16c3.314 0 6-2 6-5.5 0-1.44-.714-2.89-1.166-3.778C12.024 5.143 10.9 3.5 8 0 5.1 3.5 3.976 5.143 3.166 6.722 2.714 7.61 2 9.06 2 10.5 2 14 4.686 16 8 16m0-1c-2.21 0-4-1.343-4-3.5 0-.93.258-1.695.672-2.528C5.2 7.865 6.1 6.5 8 4c1.9 2.5 2.8 3.865 3.328 4.972.414.833.672 1.598.672 2.528 0 2.157-1.79 3.5-4 3.5" fill="#f0883e"/></g><rect x="244" y="320" width="12" height="12" rx="2" fill="#b07219" opacity="0.85"/><text x="264" y="330" class="t t-label">Java</text><text x="444" y="330" class="t t-value" text-anchor="end">15.7%</text><g transform="translate(494, 314) scale(0.7)"><path d="M8 16c3.314 0 6-2 6-5.5 0-1.44-.714-2.89-1.166-3.778C12.024 5.143 10.9 3.5 8 0 5.1 3.5 3.976 5.143 3.166 6.722 2.714 7.61 2 9.06 2 10.5 2 14 4.686 16 8 16m0-1c-2.21 0-4-1.343-4-3.5 0-.93.258-1.695.672-2.528C5.2 7.865 6.1 6.5 8 4c1.9 2.5 2.8 3.865 3.328 4.972.414.833.672 1.598.672 2.528 0 2.157-1.79 3.5-4 3.5" fill="#f0883e"/></g><rect x="244" y="344" width="12" height="12" rx="2" fill="#3572A5" opacity="0.85"/><text x="264" y="354" class="t t-label">Python</text><text x="444" y="354" class="t t-value" text-anchor="end">8.5%</text><g transform="translate(494, 338) scale(0.7)"><path d="M8 16c3.314 0 6-2 6-5.5 0-1.44-.714-2.89-1.166-3.778C12.024 5.143 10.9 3.5 8 0 5.1 3.5 3.976 5.143 3.166 6.722 2.714 7.61 2 9.06 2 10.5 2 14 4.686 16 8 16m0-1c-2.21 0-4-1.343-4-3.5 0-.93.258-1.695.672-2.528C5.2 7.865 6.1 6.5 8 4c1.9 2.5 2.8 3.865 3.328 4.972.414.833.672 1.598.672 2.528 0 2.157-1.79 3.5-4 3.5" fill="#f0883e"/></g><rect x="244" y="368" width="12" height="12" rx="2" fill="#89e051" opacity="0.85"/><text x="264" y="378" class="t t-label">Shell</text><text x="444" y="378" class="t t-value" text-anchor="end">6.8%</text><g transform="translate(494, 362) scale(0.7)"><path d="M8 16c3.314 0 6-2 6-5.5 0-1.44-.714-2.89-1.166-3.778C12.024 5.143 10.9 3.5 8 0 5.1 3.5 3.976 5.143 3.166 6.722 2.714 7.61 2 9.06 2 10.5 2 14 4.686 16 8 16m0-1c-2.21 0-4-1.343-4-3.5 0-.93.258-1.695.672-2.528C5.2 7.865 6.1 6.5 8 4c1.9 2.5 2.8 3.865 3.328 4.972.414.833.672 1.598.672 2.528 0 2.157-1.79 3.5-4 3.5" fill="#f0883e"/></g><rect x="244" y="392" width="12" height="12" rx="2" fill="#000080" opacity="0.85"/><text x="264" y="402" class="t t-label">Lua</text><text x="444" y="402" class="t t-value" text-anchor="end">2.6%</text><g transform="translate(494, 386) scale(0.7)"><path d="M8 16c3.314 0 6-2 6-5.5 0-1.44-.714-2.89-1.166-3.778C12.024 5.143 10.9 3.5 8 0 5.1 3.5 3.976 5.143 3.166 6.722 2.714 7.61 2 9.06 2 10.5 2 14 4.686 16 8 16m0-1c-2.21 0-4-1.343-4-3.5 0-.93.258-1.695.672-2.528C5.2 7.865 6.1 6.5 8 4c1.9 2.5 2.8 3.865 3.328 4.972.414.833.672 1.598.672 2.528 0 2.157-1.79 3.5-4 3.5" fill="#f0883e"/></g><rect x="244" y="416" width="12" height="12" rx="2" fill="#3D6117" opacity="0.85"/><text x="264" y="426" class="t t-label">TeX</text><text x="444" y="426" class="t t-value" text-anchor="end">1.8%</text><g transform="translate(494, 410) scale(0.7)"><path d="M8 16c3.314 0 6-2 6-5.5 0-1.44-.714-2.89-1.166-3.778C12.024 5.143 10.9 3.5 8 0 5.1 3.5 3.976 5.143 3.166 6.722 2.714 7.61 2 9.06 2 10.5 2 14 4.686 16 8 16m0-1c-2.21 0-4-1.343-4-3.5 0-.93.258-1.695.672-2.528C5.2 7.865 6.1 6.5 8 4c1.9 2.5 2.8 3.865 3.328 4.972.414.833.672 1.598.672 2.528 0 2.157-1.79 3.5-4 3.5" fill="#f0883e"/></g><rect x="244" y="440" width="12" height="12" rx="2" fill="#fcb32c" opacity="0.85"/><text x="264" y="450" class="t t-label">MDX</text><text x="444" y="450" class="t t-value" text-anchor="end">1.8%</text><g transform="translate(494, 434) scale(0.7)"><path d="M8 16c3.314 0 6-2 6-5.5 0-1.44-.714-2.89-1.166-3.778C12.024 5.143 10.9 3.5 8 0 5.1 3.5 3.976 5.143 3.166 6.722 2.714 7.61 2 9.06 2 10.5 2 14 4.686 16 8 16m0-1c-2.21 0-4-1.343-4-3.5 0-.93.258-1.695.672-2.528C5.2 7.865 6.1 6.5 8 4c1.9 2.5 2.8 3.865 3.328 4.972.414.833.672 1.598.672 2.528 0 2.157-1.79 3.5-4 3.5" fill="#f0883e"/></g><rect x="244" y="464" width="12" height="12" rx="2" fill="#663399" opacity="0.85"/><text x="264" y="474" class="t t-label">CSS</text><text x="444" y="474" class="t t-value" text-anchor="end">1.6%</text><g transform="translate(494, 458) scale(0.7)"><path d="M8 16c3.314 0 6-2 6-5.5 0-1.44-.714-2.89-1.166-3.778C12.024 5.143 10.9 3.5 8 0 5.1 3.5 3.976 5.143 3.166 6.722 2.714 7.61 2 9.06 2 10.5 2 14 4.686 16 8 16m0-1c-2.21 0-4-1.343-4-3.5 0-.93.258-1.695.672-2.528C5.2 7.865 6.1 6.5 8 4c1.9 2.5 2.8 3.865 3.328 4.972.414.833.672 1.598.672 2.528 0 2.157-1.79 3.5-4 3.5" fill="#f0883e"/></g><text x="24" y="544" class="t t-h">TECH STACK</text><text x="24" y="560" class="t t-sub">Curated from dependencies, topics, and languages via AI analysis</text><text x="24" y="581" class="t t-subhdr">FRONTEND DEVELOPMENT</text><rect x="24" y="592" width="59" height="26" rx="13" fill="#58a6ff" fill-opacity="0.15" stroke="#58a6ff" stroke-opacity="0.4" stroke-width="1"/><text x="53.5" y="608.6666666666666" fill="#58a6ff" font-size="11" class="t t-pill" text-anchor="middle">React</text><rect x="93" y="592" width="59" height="26" rx="13" fill="#58a6ff" fill-opacity="0.15" stroke="#58a6ff" stroke-opacity="0.4" stroke-width="1"/><text x="122.5" y="608.6666666666666" fill="#58a6ff" font-size="11" class="t t-pill" text-anchor="middle">Astro</text><rect x="162" y="592" width="101" height="26" rx="13" fill="#58a6ff" fill-opacity="0.15" stroke="#58a6ff" stroke-opacity="0.4" stroke-width="1"/><text x="212.5" y="608.6666666666666" fill="#58a6ff" font-size="11" class="t t-pill" text-anchor="middle">Tailwind CSS</text><rect x="273" y="592" width="77" height="26" rx="13" fill="#58a6ff" fill-opacity="0.15" stroke="#58a6ff" stroke-opacity="0.4" stroke-width="1"/><text x="311.5" y="608.6666666666666" fill="#58a6ff" font-size="11" class="t t-pill" text-anchor="middle">Radix UI</text><rect x="360" y="592" width="47" height="26" rx="13" fill="#58a6ff" fill-opacity="0.15" stroke="#58a6ff" stroke-opacity="0.4" stroke-width="1"/><text x="383.5" y="608.6666666666666" fill="#58a6ff" font-size="11" class="t t-pill" text-anchor="middle">MDX</text><line x1="24" y1="634" x2="784" y2="634" stroke="#30363d" stroke-opacity="0.6" stroke-width="1"/><text x="24" y="657" class="t t-subhdr">BACKEND &amp; APIS</text><rect x="24" y="668" width="71" height="26" rx="13" fill="#3fb950" fill-opacity="0.15" stroke="#3fb950" stroke-opacity="0.4" stroke-width="1"/><text x="59.5" y="684.6666666666666" fill="#3fb950" font-size="11" class="t t-pill" text-anchor="middle">Node.js</text><rect x="105" y="668" width="71" height="26" rx="13" fill="#3fb950" fill-opacity="0.15" stroke="#3fb950" stroke-opacity="0.4" stroke-width="1"/><text x="140.5" y="684.6666666666666" fill="#3fb950" font-size="11" class="t t-pill" text-anchor="middle">Express</text><rect x="186" y="668" width="41" height="26" rx="13" fill="#3fb950" fill-opacity="0.15" stroke="#3fb950" stroke-opacity="0.4" stroke-width="1"/><text x="206.5" y="684.6666666666666" fill="#3fb950" font-size="11" class="t t-pill" text-anchor="middle">Go</text><rect x="237" y="668" width="53" height="26" rx="13" fill="#3fb950" fill-opacity="0.15" stroke="#3fb950" stroke-opacity="0.4" stroke-width="1"/><text x="263.5" y="684.6666666666666" fill="#3fb950" font-size="11" class="t t-pill" text-anchor="middle">Rust</text><rect x="300" y="668" width="89" height="26" rx="13" fill="#3fb950" fill-opacity="0.15" stroke="#3fb950" stroke-opacity="0.4" stroke-width="1"/><text x="344.5" y="684.6666666666666" fill="#3fb950" font-size="11" class="t t-pill" text-anchor="middle">SQLAlchemy</text><line x1="24" y1="710" x2="784" y2="710" stroke="#30363d" stroke-opacity="0.6" stroke-width="1"/><text x="24" y="733" class="t t-subhdr">MACHINE LEARNING &amp; DATA SCIENCE</text><rect x="24" y="744" width="89" height="26" rx="13" fill="#d29922" fill-opacity="0.15" stroke="#d29922" stroke-opacity="0.4" stroke-width="1"/><text x="68.5" y="760.6666666666666" fill="#d29922" font-size="11" class="t t-pill" text-anchor="middle">TensorFlow</text><rect x="123" y="744" width="71" height="26" rx="13" fill="#d29922" fill-opacity="0.15" stroke="#d29922" stroke-opacity="0.4" stroke-width="1"/><text x="158.5" y="760.6666666666666" fill="#d29922" font-size="11" class="t t-pill" text-anchor="middle">PyTorch</text><rect x="204" y="744" width="101" height="26" rx="13" fill="#d29922" fill-opacity="0.15" stroke="#d29922" stroke-opacity="0.4" stroke-width="1"/><text x="254.5" y="760.6666666666666" fill="#d29922" font-size="11" class="t t-pill" text-anchor="middle">Scikit-learn</text><rect x="315" y="744" width="65" height="26" rx="13" fill="#d29922" fill-opacity="0.15" stroke="#d29922" stroke-opacity="0.4" stroke-width="1"/><text x="347.5" y="760.6666666666666" fill="#d29922" font-size="11" class="t t-pill" text-anchor="middle">Pandas</text><rect x="390" y="744" width="59" height="26" rx="13" fill="#d29922" fill-opacity="0.15" stroke="#d29922" stroke-opacity="0.4" stroke-width="1"/><text x="419.5" y="760.6666666666666" fill="#d29922" font-size="11" class="t t-pill" text-anchor="middle">Keras</text><line x1="24" y1="786" x2="784" y2="786" stroke="#30363d" stroke-opacity="0.6" stroke-width="1"/><text x="24" y="809" class="t t-subhdr">INFRASTRUCTURE &amp; DEVOPS</text><rect x="24" y="820" width="65" height="26" rx="13" fill="#f85149" fill-opacity="0.15" stroke="#f85149" stroke-opacity="0.4" stroke-width="1"/><text x="56.5" y="836.6666666666666" fill="#f85149" font-size="11" class="t t-pill" text-anchor="middle">Docker</text><rect x="99" y="820" width="113" height="26" rx="13" fill="#f85149" fill-opacity="0.15" stroke="#f85149" stroke-opacity="0.4" stroke-width="1"/><text x="155.5" y="836.6666666666666" fill="#f85149" font-size="11" class="t t-pill" text-anchor="middle">GitHub Actions</text><rect x="222" y="820" width="71" height="26" rx="13" fill="#f85149" fill-opacity="0.15" stroke="#f85149" stroke-opacity="0.4" stroke-width="1"/><text x="257.5" y="836.6666666666666" fill="#f85149" font-size="11" class="t t-pill" text-anchor="middle">AWS CDK</text><rect x="303" y="820" width="83" height="26" rx="13" fill="#f85149" fill-opacity="0.15" stroke="#f85149" stroke-opacity="0.4" stroke-width="1"/><text x="344.5" y="836.6666666666666" fill="#f85149" font-size="11" class="t t-pill" text-anchor="middle">Terraform</text><rect x="396" y="820" width="59" height="26" rx="13" fill="#f85149" fill-opacity="0.15" stroke="#f85149" stroke-opacity="0.4" stroke-width="1"/><text x="425.5" y="836.6666666666666" fill="#f85149" font-size="11" class="t t-pill" text-anchor="middle">CI/CD</text><line x1="24" y1="862" x2="784" y2="862" stroke="#30363d" stroke-opacity="0.6" stroke-width="1"/><text x="24" y="885" class="t t-subhdr">DOCUMENTATION &amp; CONTENT</text><rect x="24" y="896" width="59" height="26" rx="13" fill="#bc8cff" fill-opacity="0.15" stroke="#bc8cff" stroke-opacity="0.4" stroke-width="1"/><text x="53.5" y="912.6666666666666" fill="#bc8cff" font-size="11" class="t t-pill" text-anchor="middle">LaTeX</text><rect x="93" y="896" width="77" height="26" rx="13" fill="#bc8cff" fill-opacity="0.15" stroke="#bc8cff" stroke-opacity="0.4" stroke-width="1"/><text x="131.5" y="912.6666666666666" fill="#bc8cff" font-size="11" class="t t-pill" text-anchor="middle">Markdown</text><rect x="180" y="896" width="125" height="26" rx="13" fill="#bc8cff" fill-opacity="0.15" stroke="#bc8cff" stroke-opacity="0.4" stroke-width="1"/><text x="242.5" y="912.6666666666666" fill="#bc8cff" font-size="11" class="t t-pill" text-anchor="middle">Jupyter Notebook</text><rect x="315" y="896" width="65" height="26" rx="13" fill="#bc8cff" fill-opacity="0.15" stroke="#bc8cff" stroke-opacity="0.4" stroke-width="1"/><text x="347.5" y="912.6666666666666" fill="#bc8cff" font-size="11" class="t t-pill" text-anchor="middle">Sphinx</text><rect x="390" y="896" width="65" height="26" rx="13" fill="#bc8cff" fill-opacity="0.15" stroke="#bc8cff" stroke-opacity="0.4" stroke-width="1"/><text x="422.5" y="912.6666666666666" fill="#bc8cff" font-size="11" class="t t-pill" text-anchor="middle">Pandoc</text><text x="24" y="978" class="t t-h">SIGNATURE PROJECTS</text><text x="24" y="994" class="t t-sub">Top projects by complexity score (languages, disk usage, code size)</text><rect x="24" y="1004" width="760" height="74" rx="6" fill="#161b22" stroke="#30363d" stroke-width="1"/><rect x="24" y="1004" width="4" height="74" rx="2" fill="#58a6ff"/><text x="40" y="1022" class="t t-card-title">resume-generator</text><text x="768" y="1022" class="t t-value" text-anchor="end">score 284</text><text x="40" y="1038" class="t t-card-detail">A data-driven CLI tool that transforms YAML/JSON/TOML resume data into polished PDFs usin…</text><rect x="40" y="1046" width="70" height="16" rx="8" fill="#d29922" fill-opacity="0.15" stroke="#d29922" stroke-opacity="0.4" stroke-width="1"/><text x="75" y="1057" fill="#d29922" font-size="9" class="t t-pill" text-anchor="middle">CLI Tools</text><rect x="116" y="1046" width="76" height="16" rx="8" fill="#f85149" fill-opacity="0.15" stroke="#f85149" stroke-opacity="0.4" stroke-width="1"/><text x="154" y="1057" fill="#f85149" font-size="9" class="t t-pill" text-anchor="middle">Automation</text><rect x="24" y="1088" width="760" height="74" rx="6" fill="#161b22" stroke="#30363d" stroke-width="1"/><rect x="24" y="1088" width="4" height="74" rx="2" fill="#3fb950"/><text x="40" y="1106" class="t t-card-title">urmzd.com</text><text x="768" y="1106" class="t t-value" text-anchor="end">score 259</text><text x="40" y="1122" class="t t-card-detail">Personal website and blog built with Astro, TypeScript, and MDX—featuring fast static sit…</text><rect x="40" y="1130" width="64" height="16" rx="8" fill="#f85149" fill-opacity="0.15" stroke="#f85149" stroke-opacity="0.4" stroke-width="1"/><text x="72" y="1141" fill="#f85149" font-size="9" class="t t-pill" text-anchor="middle">Web Apps</text><rect x="110" y="1130" width="118" height="16" rx="8" fill="#bc8cff" fill-opacity="0.15" stroke="#bc8cff" stroke-opacity="0.4" stroke-width="1"/><text x="169" y="1141" fill="#bc8cff" font-size="9" class="t t-pill" text-anchor="middle">Personal Projects</text><rect x="24" y="1172" width="760" height="74" rx="6" fill="#161b22" stroke="#30363d" stroke-width="1"/><rect x="24" y="1172" width="4" height="74" rx="2" fill="#d29922"/><text x="40" y="1190" class="t t-card-title">lepus-classifier</text><text x="768" y="1190" class="t t-value" text-anchor="end">score 253</text><text x="40" y="1206" class="t t-card-detail">A CNN research project exploring optimal image classification architectures for small dat…</text><rect x="40" y="1214" width="106" height="16" rx="8" fill="#bc8cff" fill-opacity="0.15" stroke="#bc8cff" stroke-opacity="0.4" stroke-width="1"/><text x="93" y="1225" fill="#bc8cff" font-size="9" class="t t-pill" text-anchor="middle">Computer Vision</text><rect x="152" y="1214" width="112" height="16" rx="8" fill="#39d2c0" fill-opacity="0.15" stroke="#39d2c0" stroke-opacity="0.4" stroke-width="1"/><text x="208" y="1225" fill="#39d2c0" font-size="9" class="t t-pill" text-anchor="middle">Machine Learning</text><rect x="24" y="1256" width="760" height="74" rx="6" fill="#161b22" stroke="#30363d" stroke-width="1"/><rect x="24" y="1256" width="4" height="74" rx="2" fill="#f85149"/><text x="40" y="1274" class="t t-card-title">dotfiles</text><text x="768" y="1274" class="t t-value" text-anchor="end">score 243</text><text x="40" y="1290" class="t t-card-detail">Modern dotfiles with Chezmoi and Nix, providing one-command environment bootstrap for mac…</text><rect x="40" y="1298" width="52" height="16" rx="8" fill="#39d2c0" fill-opacity="0.15" stroke="#39d2c0" stroke-opacity="0.4" stroke-width="1"/><text x="66" y="1309" fill="#39d2c0" font-size="9" class="t t-pill" text-anchor="middle">DevOps</text><rect x="98" y="1298" width="76" height="16" rx="8" fill="#db61a2" fill-opacity="0.15" stroke="#db61a2" stroke-opacity="0.4" stroke-width="1"/><text x="136" y="1309" fill="#db61a2" font-size="9" class="t t-pill" text-anchor="middle">Automation</text><rect x="24" y="1340" width="760" height="74" rx="6" fill="#161b22" stroke="#30363d" stroke-width="1"/><rect x="24" y="1340" width="4" height="74" rx="2" fill="#bc8cff"/><text x="40" y="1358" class="t t-card-title">linear-gp</text><text x="768" y="1358" class="t t-value" text-anchor="end">score 237</text><text x="40" y="1374" class="t t-card-detail">A production-grade Rust framework for Linear Genetic Programming research, featuring modu…</text><rect x="40" y="1382" width="112" height="16" rx="8" fill="#db61a2" fill-opacity="0.15" stroke="#db61a2" stroke-opacity="0.4" stroke-width="1"/><text x="96" y="1393" fill="#db61a2" font-size="9" class="t t-pill" text-anchor="middle">Machine Learning</text><rect x="158" y="1382" width="64" height="16" rx="8" fill="#79c0ff" fill-opacity="0.15" stroke="#79c0ff" stroke-opacity="0.4" stroke-width="1"/><text x="190" y="1393" fill="#79c0ff" font-size="9" class="t t-pill" text-anchor="middle">Research</text><text x="24" y="1460" class="t t-h">AT A GLANCE</text><text x="24" y="1476" class="t t-sub">Contribution activity over the past year</text><rect x="24" y="1486" width="140" height="72" rx="8" fill="#161b22" stroke="#30363d" stroke-width="1"/><circle cx="38" cy="1502" r="4" fill="#58a6ff"/><text x="48" y="1506" class="t t-stat-label">COMMITS</text><text x="94" y="1538" fill="#58a6ff" class="t t-stat-value" text-anchor="middle">450</text><rect x="179" y="1486" width="140" height="72" rx="8" fill="#161b22" stroke="#30363d" stroke-width="1"/><circle cx="193" cy="1502" r="4" fill="#3fb950"/><text x="203" y="1506" class="t t-stat-label">PRS</text><text x="249" y="1538" fill="#3fb950" class="t t-stat-value" text-anchor="middle">3</text><rect x="334" y="1486" width="140" height="72" rx="8" fill="#161b22" stroke="#30363d" stroke-width="1"/><circle cx="348" cy="1502" r="4" fill="#d29922"/><text x="358" y="1506" class="t t-stat-label">REVIEWS</text><text x="404" y="1538" fill="#d29922" class="t t-stat-value" text-anchor="middle">5</text><rect x="489" y="1486" width="140" height="72" rx="8" fill="#161b22" stroke="#30363d" stroke-width="1"/><circle cx="503" cy="1502" r="4" fill="#bc8cff"/><text x="513" y="1506" class="t t-stat-label">REPOS</text><text x="559" y="1538" fill="#bc8cff" class="t t-stat-value" text-anchor="middle">13</text><text x="24" y="1604" class="t t-h">OPEN SOURCE CONTRIBUTIONS</text><text x="24" y="1620" class="t t-sub">External repositories contributed to (all time)</text><rect x="24" y="1630" width="760" height="44" rx="6" fill="#161b22" stroke="#30363d" stroke-width="1"/><rect x="24" y="1630" width="4" height="44" rx="2" fill="#58a6ff"/><text x="40" y="1648" class="t t-card-title">MathisWellmann/gym-rs</text><text x="40" y="1664" class="t t-card-detail">★ 124 · Rust</text><rect x="24" y="1682" width="760" height="44" rx="6" fill="#161b22" stroke="#30363d" stroke-width="1"/><rect x="24" y="1682" width="4" height="44" rx="2" fill="#3fb950"/><text x="40" y="1700" class="t t-card-title">getzep/graphiti</text><text x="40" y="1716" class="t t-card-detail">★ 22,647 · Python</text></svg>